<?xml version="1.0" encoding="UTF-8" standalone="no"?>
<!DOCTYPE svg PUBLIC "-//W3C//DTD SVG 1.1//EN"
 "http://www.w3.org/Graphics/SVG/1.1/DTD/svg11.dtd">
<!-- Generated by graphviz version 2.43.0 (0)
 -->
<!-- Title: dasynq::v2::dprivate::base_signal_watcher&lt; T_Sigdata &gt; Pages: 1 -->
<svg width="217pt" height="371pt"
 viewBox="0.00 0.00 217.00 371.00" xmlns="http://www.w3.org/2000/svg" xmlns:xlink="http://www.w3.org/1999/xlink">
<g id="graph0" class="graph" transform="scale(1 1) rotate(0) translate(4 367)">
<title>dasynq::v2::dprivate::base_signal_watcher&lt; T_Sigdata &gt;</title>
<!-- Node1 -->
<g id="Node000001" class="node">
<title>Node1</title>
<g id="a_Node000001"><a xlink:title=" ">
<polygon fill="#999999" stroke="#666666" points="147.5,-296 22.5,-296 22.5,-255 147.5,-255 147.5,-296"/>
<text text-anchor="start" x="30.5" y="-284" font-family="Helvetica,sans-Serif" font-size="10.00">dasynq::v2::dprivate</text>
<text text-anchor="start" x="30.5" y="-273" font-family="Helvetica,sans-Serif" font-size="10.00">::base_signal_watcher</text>
<text text-anchor="middle" x="85" y="-262" font-family="Helvetica,sans-Serif" font-size="10.00">&lt; T_Sigdata &gt;</text>
</a>
</g>
</g>
<!-- Node3 -->
<g id="Node000003" class="node">
<title>Node3</title>
<g id="a_Node000003"><a xlink:href="classdasynq_1_1v2_1_1dprivate_1_1base__signal__watcher.html" target="_top" xlink:title=" ">
<polygon fill="white" stroke="#666666" points="153.5,-197 16.5,-197 16.5,-145 153.5,-145 153.5,-197"/>
<text text-anchor="start" x="24.5" y="-185" font-family="Helvetica,sans-Serif" font-size="10.00">dasynq::v2::dprivate</text>
<text text-anchor="start" x="24.5" y="-174" font-family="Helvetica,sans-Serif" font-size="10.00">::base_signal_watcher</text>
<text text-anchor="start" x="24.5" y="-163" font-family="Helvetica,sans-Serif" font-size="10.00">&lt; EventLoop::loop_traits</text>
<text text-anchor="middle" x="85" y="-152" font-family="Helvetica,sans-Serif" font-size="10.00">_t::sigdata_t &gt;</text>
</a>
</g>
</g>
<!-- Node1&#45;&gt;Node3 -->
<g id="edge2_Node000001_Node000003" class="edge">
<title>Node1&#45;&gt;Node3</title>
<g id="a_edge2_Node000001_Node000003"><a xlink:title=" ">
<path fill="none" stroke="orange" stroke-dasharray="5,2" d="M85,-244.42C85,-229.4 85,-211.43 85,-197.16"/>
<polygon fill="orange" stroke="orange" points="81.5,-244.74 85,-254.74 88.5,-244.74 81.5,-244.74"/>
</a>
</g>
<text text-anchor="start" x="85" y="-229" font-family="Helvetica,sans-Serif" font-size="10.00" fill="grey"> &lt; EventLoop::loop_traits</text>
<text text-anchor="middle" x="147" y="-218" font-family="Helvetica,sans-Serif" font-size="10.00" fill="grey">_t::sigdata_t &gt;</text>
</g>
<!-- Node2 -->
<g id="Node000002" class="node">
<title>Node2</title>
<g id="a_Node000002"><a xlink:href="classdasynq_1_1v2_1_1dprivate_1_1base__watcher.html" target="_top" xlink:title=" ">
<polygon fill="white" stroke="#666666" points="143,-363 27,-363 27,-333 143,-333 143,-363"/>
<text text-anchor="start" x="35" y="-351" font-family="Helvetica,sans-Serif" font-size="10.00">dasynq::v2::dprivate</text>
<text text-anchor="middle" x="85" y="-340" font-family="Helvetica,sans-Serif" font-size="10.00">::base_watcher</text>
</a>
</g>
</g>
<!-- Node2&#45;&gt;Node1 -->
<g id="edge1_Node000001_Node000002" class="edge">
<title>Node2&#45;&gt;Node1</title>
<g id="a_edge1_Node000001_Node000002"><a xlink:title=" ">
<path fill="none" stroke="#63b8ff" d="M85,-322.48C85,-313.85 85,-304.26 85,-296.09"/>
<polygon fill="#63b8ff" stroke="#63b8ff" points="81.5,-322.73 85,-332.73 88.5,-322.73 81.5,-322.73"/>
</a>
</g>
</g>
<!-- Node4 -->
<g id="Node000004" class="node">
<title>Node4</title>
<g id="a_Node000004"><a xlink:href="classdasynq_1_1v2_1_1dprivate_1_1signal__watcher.html" target="_top" xlink:title=" ">
<polygon fill="white" stroke="#666666" points="170,-108 0,-108 0,-78 170,-78 170,-108"/>
<text text-anchor="start" x="8" y="-96" font-family="Helvetica,sans-Serif" font-size="10.00">dasynq::v2::dprivate</text>
<text text-anchor="middle" x="85" y="-85" font-family="Helvetica,sans-Serif" font-size="10.00">::signal_watcher&lt; EventLoop &gt;</text>
</a>
</g>
</g>
<!-- Node3&#45;&gt;Node4 -->
<g id="edge3_Node000003_Node000004" class="edge">
<title>Node3&#45;&gt;Node4</title>
<g id="a_edge3_Node000003_Node000004"><a xlink:title=" ">
<path fill="none" stroke="#8b1a1a" d="M85,-134.46C85,-125.22 85,-115.78 85,-108.35"/>
<polygon fill="#8b1a1a" stroke="#8b1a1a" points="81.5,-134.69 85,-144.69 88.5,-134.69 81.5,-134.69"/>
</a>
</g>
</g>
<!-- Node5 -->
<g id="Node000005" class="node">
<title>Node5</title>
<g id="a_Node000005"><a xlink:href="classdasynq_1_1v2_1_1dprivate_1_1signal__watcher__impl.html" target="_top" xlink:title=" ">
<polygon fill="white" stroke="#666666" points="152,-41 18,-41 18,0 152,0 152,-41"/>
<text text-anchor="start" x="26" y="-29" font-family="Helvetica,sans-Serif" font-size="10.00">dasynq::v2::dprivate</text>
<text text-anchor="start" x="26" y="-18" font-family="Helvetica,sans-Serif" font-size="10.00">::signal_watcher_impl</text>
<text text-anchor="middle" x="85" y="-7" font-family="Helvetica,sans-Serif" font-size="10.00">&lt; EventLoop, Derived &gt;</text>
</a>
</g>
</g>
<!-- Node4&#45;&gt;Node5 -->
<g id="edge4_Node000004_Node000005" class="edge">
<title>Node4&#45;&gt;Node5</title>
<g id="a_edge4_Node000004_Node000005"><a xlink:title=" ">
<path fill="none" stroke="#63b8ff" d="M85,-67.48C85,-58.85 85,-49.26 85,-41.09"/>
<polygon fill="#63b8ff" stroke="#63b8ff" points="81.5,-67.73 85,-77.73 88.5,-67.73 81.5,-67.73"/>
</a>
</g>
</g>
</g>
</svg>
