<?xml version="1.0" encoding="UTF-8" standalone="no"?>
<!DOCTYPE svg PUBLIC "-//W3C//DTD SVG 1.1//EN"
 "http://www.w3.org/Graphics/SVG/1.1/DTD/svg11.dtd">
<!-- Generated by graphviz version 2.43.0 (0)
 -->
<!-- Title: dasynq::v2::dprivate::bidi_fd_watcher&lt; EventLoop &gt; Pages: 1 -->
<svg width="181pt" height="313pt"
 viewBox="0.00 0.00 181.00 313.00" xmlns="http://www.w3.org/2000/svg" xmlns:xlink="http://www.w3.org/1999/xlink">
<g id="graph0" class="graph" transform="scale(1 1) rotate(0) translate(4 309)">
<title>dasynq::v2::dprivate::bidi_fd_watcher&lt; EventLoop &gt;</title>
<!-- Node1 -->
<g id="Node000001" class="node">
<title>Node1</title>
<g id="a_Node000001"><a xlink:title=" ">
<polygon fill="#999999" stroke="#666666" points="173,-107 0,-107 0,-77 173,-77 173,-107"/>
<text text-anchor="start" x="8" y="-95" font-family="Helvetica,sans-Serif" font-size="10.00">dasynq::v2::dprivate</text>
<text text-anchor="middle" x="86.5" y="-84" font-family="Helvetica,sans-Serif" font-size="10.00">::bidi_fd_watcher&lt; EventLoop &gt;</text>
</a>
</g>
</g>
<!-- Node5 -->
<g id="Node000005" class="node">
<title>Node5</title>
<g id="a_Node000005"><a xlink:href="classdasynq_1_1v2_1_1dprivate_1_1bidi__fd__watcher__impl.html" target="_top" xlink:title=" ">
<polygon fill="white" stroke="#666666" points="153.5,-41 19.5,-41 19.5,0 153.5,0 153.5,-41"/>
<text text-anchor="start" x="27.5" y="-29" font-family="Helvetica,sans-Serif" font-size="10.00">dasynq::v2::dprivate</text>
<text text-anchor="start" x="27.5" y="-18" font-family="Helvetica,sans-Serif" font-size="10.00">::bidi_fd_watcher_impl</text>
<text text-anchor="middle" x="86.5" y="-7" font-family="Helvetica,sans-Serif" font-size="10.00">&lt; EventLoop, Derived &gt;</text>
</a>
</g>
</g>
<!-- Node1&#45;&gt;Node5 -->
<g id="edge4_Node000001_Node000005" class="edge">
<title>Node1&#45;&gt;Node5</title>
<g id="a_edge4_Node000001_Node000005"><a xlink:title=" ">
<path fill="none" stroke="#63b8ff" d="M86.5,-66.91C86.5,-58.47 86.5,-49.1 86.5,-41.07"/>
<polygon fill="#63b8ff" stroke="#63b8ff" points="83,-66.94 86.5,-76.94 90,-66.94 83,-66.94"/>
</a>
</g>
</g>
<!-- Node2 -->
<g id="Node000002" class="node">
<title>Node2</title>
<g id="a_Node000002"><a xlink:href="classdasynq_1_1v2_1_1dprivate_1_1base__bidi__fd__watcher.html" target="_top" xlink:title=" ">
<polygon fill="white" stroke="#666666" points="150.5,-173 22.5,-173 22.5,-143 150.5,-143 150.5,-173"/>
<text text-anchor="start" x="30.5" y="-161" font-family="Helvetica,sans-Serif" font-size="10.00">dasynq::v2::dprivate</text>
<text text-anchor="middle" x="86.5" y="-150" font-family="Helvetica,sans-Serif" font-size="10.00">::base_bidi_fd_watcher</text>
</a>
</g>
</g>
<!-- Node2&#45;&gt;Node1 -->
<g id="edge1_Node000001_Node000002" class="edge">
<title>Node2&#45;&gt;Node1</title>
<g id="a_edge1_Node000001_Node000002"><a xlink:title=" ">
<path fill="none" stroke="#8b1a1a" d="M86.5,-132.54C86.5,-123.96 86.5,-114.61 86.5,-107.16"/>
<polygon fill="#8b1a1a" stroke="#8b1a1a" points="83,-132.8 86.5,-142.8 90,-132.8 83,-132.8"/>
</a>
</g>
</g>
<!-- Node3 -->
<g id="Node000003" class="node">
<title>Node3</title>
<g id="a_Node000003"><a xlink:href="classdasynq_1_1v2_1_1dprivate_1_1base__fd__watcher.html" target="_top" xlink:title=" ">
<polygon fill="white" stroke="#666666" points="144.5,-239 28.5,-239 28.5,-209 144.5,-209 144.5,-239"/>
<text text-anchor="start" x="36.5" y="-227" font-family="Helvetica,sans-Serif" font-size="10.00">dasynq::v2::dprivate</text>
<text text-anchor="middle" x="86.5" y="-216" font-family="Helvetica,sans-Serif" font-size="10.00">::base_fd_watcher</text>
</a>
</g>
</g>
<!-- Node3&#45;&gt;Node2 -->
<g id="edge2_Node000002_Node000003" class="edge">
<title>Node3&#45;&gt;Node2</title>
<g id="a_edge2_Node000002_Node000003"><a xlink:title=" ">
<path fill="none" stroke="#63b8ff" d="M86.5,-198.54C86.5,-189.96 86.5,-180.61 86.5,-173.16"/>
<polygon fill="#63b8ff" stroke="#63b8ff" points="83,-198.8 86.5,-208.8 90,-198.8 83,-198.8"/>
</a>
</g>
</g>
<!-- Node4 -->
<g id="Node000004" class="node">
<title>Node4</title>
<g id="a_Node000004"><a xlink:href="classdasynq_1_1v2_1_1dprivate_1_1base__watcher.html" target="_top" xlink:title=" ">
<polygon fill="white" stroke="#666666" points="144.5,-305 28.5,-305 28.5,-275 144.5,-275 144.5,-305"/>
<text text-anchor="start" x="36.5" y="-293" font-family="Helvetica,sans-Serif" font-size="10.00">dasynq::v2::dprivate</text>
<text text-anchor="middle" x="86.5" y="-282" font-family="Helvetica,sans-Serif" font-size="10.00">::base_watcher</text>
</a>
</g>
</g>
<!-- Node4&#45;&gt;Node3 -->
<g id="edge3_Node000003_Node000004" class="edge">
<title>Node4&#45;&gt;Node3</title>
<g id="a_edge3_Node000003_Node000004"><a xlink:title=" ">
<path fill="none" stroke="#63b8ff" d="M86.5,-264.54C86.5,-255.96 86.5,-246.61 86.5,-239.16"/>
<polygon fill="#63b8ff" stroke="#63b8ff" points="83,-264.8 86.5,-274.8 90,-264.8 83,-264.8"/>
</a>
</g>
</g>
</g>
</svg>
