<?xml version="1.0" encoding="UTF-8" standalone="no"?>
<!DOCTYPE svg PUBLIC "-//W3C//DTD SVG 1.1//EN"
 "http://www.w3.org/Graphics/SVG/1.1/DTD/svg11.dtd">
<!-- Generated by graphviz version 2.43.0 (0)
 -->
<!-- Title: base_process_service Pages: 1 -->
<svg width="218pt" height="192pt"
 viewBox="0.00 0.00 217.50 192.00" xmlns="http://www.w3.org/2000/svg" xmlns:xlink="http://www.w3.org/1999/xlink">
<g id="graph0" class="graph" transform="scale(1 1) rotate(0) translate(4 188)">
<title>base_process_service</title>
<!-- Node1 -->
<g id="Node000001" class="node">
<title>Node1</title>
<g id="a_Node000001"><a xlink:title=" ">
<polygon fill="#999999" stroke="#666666" points="166,-129 43,-129 43,-110 166,-110 166,-129"/>
<text text-anchor="middle" x="104.5" y="-117" font-family="Helvetica,sans-Serif" font-size="10.00">base_process_service</text>
</a>
</g>
</g>
<!-- Node3 -->
<g id="Node000003" class="node">
<title>Node3</title>
<g id="a_Node000003"><a xlink:href="classprocess__service.html" target="_top" xlink:title=" ">
<polygon fill="white" stroke="#666666" points="95,-74 0,-74 0,-55 95,-55 95,-74"/>
<text text-anchor="middle" x="47.5" y="-62" font-family="Helvetica,sans-Serif" font-size="10.00">process_service</text>
</a>
</g>
</g>
<!-- Node1&#45;&gt;Node3 -->
<g id="edge2_Node000001_Node000003" class="edge">
<title>Node1&#45;&gt;Node3</title>
<g id="a_edge2_Node000001_Node000003"><a xlink:title=" ">
<path fill="none" stroke="#63b8ff" d="M87.88,-103.04C77.77,-93.64 65.22,-81.98 56.82,-74.17"/>
<polygon fill="#63b8ff" stroke="#63b8ff" points="85.64,-105.74 95.34,-109.98 90.4,-100.61 85.64,-105.74"/>
</a>
</g>
</g>
<!-- Node5 -->
<g id="Node000005" class="node">
<title>Node5</title>
<g id="a_Node000005"><a xlink:href="classscripted__service.html" target="_top" xlink:title=" ">
<polygon fill="white" stroke="#666666" points="209.5,-74 113.5,-74 113.5,-55 209.5,-55 209.5,-74"/>
<text text-anchor="middle" x="161.5" y="-62" font-family="Helvetica,sans-Serif" font-size="10.00">scripted_service</text>
</a>
</g>
</g>
<!-- Node1&#45;&gt;Node5 -->
<g id="edge4_Node000001_Node000005" class="edge">
<title>Node1&#45;&gt;Node5</title>
<g id="a_edge4_Node000001_Node000005"><a xlink:title=" ">
<path fill="none" stroke="#63b8ff" d="M121.12,-103.04C131.23,-93.64 143.78,-81.98 152.18,-74.17"/>
<polygon fill="#63b8ff" stroke="#63b8ff" points="118.6,-100.61 113.66,-109.98 123.36,-105.74 118.6,-100.61"/>
</a>
</g>
</g>
<!-- Node2 -->
<g id="Node000002" class="node">
<title>Node2</title>
<g id="a_Node000002"><a xlink:href="classservice__record.html" target="_top" xlink:title=" ">
<polygon fill="white" stroke="#666666" points="148.5,-184 60.5,-184 60.5,-165 148.5,-165 148.5,-184"/>
<text text-anchor="middle" x="104.5" y="-172" font-family="Helvetica,sans-Serif" font-size="10.00">service_record</text>
</a>
</g>
</g>
<!-- Node2&#45;&gt;Node1 -->
<g id="edge1_Node000001_Node000002" class="edge">
<title>Node2&#45;&gt;Node1</title>
<g id="a_edge1_Node000001_Node000002"><a xlink:title=" ">
<path fill="none" stroke="#63b8ff" d="M104.5,-154.66C104.5,-145.93 104.5,-135.99 104.5,-129.09"/>
<polygon fill="#63b8ff" stroke="#63b8ff" points="101,-154.75 104.5,-164.75 108,-154.75 101,-154.75"/>
</a>
</g>
</g>
<!-- Node4 -->
<g id="Node000004" class="node">
<title>Node4</title>
<g id="a_Node000004"><a xlink:href="classbgproc__service.html" target="_top" xlink:title=" ">
<polygon fill="white" stroke="#666666" points="92.5,-19 2.5,-19 2.5,0 92.5,0 92.5,-19"/>
<text text-anchor="middle" x="47.5" y="-7" font-family="Helvetica,sans-Serif" font-size="10.00">bgproc_service</text>
</a>
</g>
</g>
<!-- Node3&#45;&gt;Node4 -->
<g id="edge3_Node000003_Node000004" class="edge">
<title>Node3&#45;&gt;Node4</title>
<g id="a_edge3_Node000003_Node000004"><a xlink:title=" ">
<path fill="none" stroke="#63b8ff" d="M47.5,-44.66C47.5,-35.93 47.5,-25.99 47.5,-19.09"/>
<polygon fill="#63b8ff" stroke="#63b8ff" points="44,-44.75 47.5,-54.75 51,-44.75 44,-44.75"/>
</a>
</g>
</g>
</g>
</svg>
