<?xml version="1.0" encoding="UTF-8" standalone="no"?>
<!DOCTYPE svg PUBLIC "-//W3C//DTD SVG 1.1//EN"
 "http://www.w3.org/Graphics/SVG/1.1/DTD/svg11.dtd">
<!-- Generated by graphviz version 2.43.0 (0)
 -->
<!-- Title: dasynq::posix_timer_events&lt; Base, provide_mono_timer &gt; Pages: 1 -->
<svg width="141pt" height="170pt"
 viewBox="0.00 0.00 141.00 170.00" xmlns="http://www.w3.org/2000/svg" xmlns:xlink="http://www.w3.org/1999/xlink">
<g id="graph0" class="graph" transform="scale(1 1) rotate(0) translate(4 166)">
<title>dasynq::posix_timer_events&lt; Base, provide_mono_timer &gt;</title>
<!-- Node1 -->
<g id="Node000001" class="node">
<title>Node1</title>
<g id="a_Node000001"><a xlink:title=" ">
<polygon fill="#999999" stroke="#666666" points="133,-41 0,-41 0,0 133,0 133,-41"/>
<text text-anchor="start" x="8" y="-29" font-family="Helvetica,sans-Serif" font-size="10.00">dasynq::posix_timer</text>
<text text-anchor="start" x="8" y="-18" font-family="Helvetica,sans-Serif" font-size="10.00">_events&lt; Base, provide</text>
<text text-anchor="middle" x="66.5" y="-7" font-family="Helvetica,sans-Serif" font-size="10.00">_mono_timer &gt;</text>
</a>
</g>
</g>
<!-- Node2 -->
<g id="Node000002" class="node">
<title>Node2</title>
<g id="a_Node000002"><a xlink:href="classdasynq_1_1timer__base.html" target="_top" xlink:title=" ">
<polygon fill="white" stroke="#666666" points="123,-107 10,-107 10,-77 123,-77 123,-107"/>
<text text-anchor="start" x="18" y="-95" font-family="Helvetica,sans-Serif" font-size="10.00">dasynq::timer_base</text>
<text text-anchor="middle" x="66.5" y="-84" font-family="Helvetica,sans-Serif" font-size="10.00">&lt; Base &gt;</text>
</a>
</g>
</g>
<!-- Node2&#45;&gt;Node1 -->
<g id="edge1_Node000001_Node000002" class="edge">
<title>Node2&#45;&gt;Node1</title>
<g id="a_edge1_Node000001_Node000002"><a xlink:title=" ">
<path fill="none" stroke="#63b8ff" d="M66.5,-66.91C66.5,-58.47 66.5,-49.1 66.5,-41.07"/>
<polygon fill="#63b8ff" stroke="#63b8ff" points="63,-66.94 66.5,-76.94 70,-66.94 63,-66.94"/>
</a>
</g>
</g>
<!-- Node3 -->
<g id="Node000003" class="node">
<title>Node3</title>
<g id="a_Node000003"><a xlink:title=" ">
<polygon fill="white" stroke="#666666" points="87,-162 46,-162 46,-143 87,-143 87,-162"/>
<text text-anchor="middle" x="66.5" y="-150" font-family="Helvetica,sans-Serif" font-size="10.00">Base</text>
</a>
</g>
</g>
<!-- Node3&#45;&gt;Node2 -->
<g id="edge2_Node000002_Node000003" class="edge">
<title>Node3&#45;&gt;Node2</title>
<g id="a_edge2_Node000002_Node000003"><a xlink:title=" ">
<path fill="none" stroke="#63b8ff" d="M66.5,-132.65C66.5,-124.36 66.5,-114.78 66.5,-107.11"/>
<polygon fill="#63b8ff" stroke="#63b8ff" points="63,-132.87 66.5,-142.87 70,-132.87 63,-132.87"/>
</a>
</g>
</g>
</g>
</svg>
