<?xml version="1.0" encoding="UTF-8" standalone="no"?>
<!DOCTYPE svg PUBLIC "-//W3C//DTD SVG 1.1//EN"
 "http://www.w3.org/Graphics/SVG/1.1/DTD/svg11.dtd">
<!-- Generated by graphviz version 2.43.0 (0)
 -->
<!-- Title: dasynq::v2::dprivate::fd_watcher_impl&lt; EventLoop, Derived &gt; Pages: 1 -->
<svg width="177pt" height="247pt"
 viewBox="0.00 0.00 177.00 247.00" xmlns="http://www.w3.org/2000/svg" xmlns:xlink="http://www.w3.org/1999/xlink">
<g id="graph0" class="graph" transform="scale(1 1) rotate(0) translate(4 243)">
<title>dasynq::v2::dprivate::fd_watcher_impl&lt; EventLoop, Derived &gt;</title>
<!-- Node1 -->
<g id="Node000001" class="node">
<title>Node1</title>
<g id="a_Node000001"><a xlink:title=" ">
<polygon fill="#999999" stroke="#666666" points="169,-41 0,-41 0,0 169,0 169,-41"/>
<text text-anchor="start" x="8" y="-29" font-family="Helvetica,sans-Serif" font-size="10.00">dasynq::v2::dprivate</text>
<text text-anchor="start" x="8" y="-18" font-family="Helvetica,sans-Serif" font-size="10.00">::fd_watcher_impl&lt; EventLoop,</text>
<text text-anchor="middle" x="84.5" y="-7" font-family="Helvetica,sans-Serif" font-size="10.00"> Derived &gt;</text>
</a>
</g>
</g>
<!-- Node2 -->
<g id="Node000002" class="node">
<title>Node2</title>
<g id="a_Node000002"><a xlink:href="classdasynq_1_1v2_1_1dprivate_1_1fd__watcher.html" target="_top" xlink:title=" ">
<polygon fill="white" stroke="#666666" points="159.5,-107 9.5,-107 9.5,-77 159.5,-77 159.5,-107"/>
<text text-anchor="start" x="17.5" y="-95" font-family="Helvetica,sans-Serif" font-size="10.00">dasynq::v2::dprivate</text>
<text text-anchor="middle" x="84.5" y="-84" font-family="Helvetica,sans-Serif" font-size="10.00">::fd_watcher&lt; EventLoop &gt;</text>
</a>
</g>
</g>
<!-- Node2&#45;&gt;Node1 -->
<g id="edge1_Node000001_Node000002" class="edge">
<title>Node2&#45;&gt;Node1</title>
<g id="a_edge1_Node000001_Node000002"><a xlink:title=" ">
<path fill="none" stroke="#63b8ff" d="M84.5,-66.91C84.5,-58.47 84.5,-49.1 84.5,-41.07"/>
<polygon fill="#63b8ff" stroke="#63b8ff" points="81,-66.94 84.5,-76.94 88,-66.94 81,-66.94"/>
</a>
</g>
</g>
<!-- Node3 -->
<g id="Node000003" class="node">
<title>Node3</title>
<g id="a_Node000003"><a xlink:href="classdasynq_1_1v2_1_1dprivate_1_1base__fd__watcher.html" target="_top" xlink:title=" ">
<polygon fill="white" stroke="#666666" points="142.5,-173 26.5,-173 26.5,-143 142.5,-143 142.5,-173"/>
<text text-anchor="start" x="34.5" y="-161" font-family="Helvetica,sans-Serif" font-size="10.00">dasynq::v2::dprivate</text>
<text text-anchor="middle" x="84.5" y="-150" font-family="Helvetica,sans-Serif" font-size="10.00">::base_fd_watcher</text>
</a>
</g>
</g>
<!-- Node3&#45;&gt;Node2 -->
<g id="edge2_Node000002_Node000003" class="edge">
<title>Node3&#45;&gt;Node2</title>
<g id="a_edge2_Node000002_Node000003"><a xlink:title=" ">
<path fill="none" stroke="#8b1a1a" d="M84.5,-132.54C84.5,-123.96 84.5,-114.61 84.5,-107.16"/>
<polygon fill="#8b1a1a" stroke="#8b1a1a" points="81,-132.8 84.5,-142.8 88,-132.8 81,-132.8"/>
</a>
</g>
</g>
<!-- Node4 -->
<g id="Node000004" class="node">
<title>Node4</title>
<g id="a_Node000004"><a xlink:href="classdasynq_1_1v2_1_1dprivate_1_1base__watcher.html" target="_top" xlink:title=" ">
<polygon fill="white" stroke="#666666" points="142.5,-239 26.5,-239 26.5,-209 142.5,-209 142.5,-239"/>
<text text-anchor="start" x="34.5" y="-227" font-family="Helvetica,sans-Serif" font-size="10.00">dasynq::v2::dprivate</text>
<text text-anchor="middle" x="84.5" y="-216" font-family="Helvetica,sans-Serif" font-size="10.00">::base_watcher</text>
</a>
</g>
</g>
<!-- Node4&#45;&gt;Node3 -->
<g id="edge3_Node000003_Node000004" class="edge">
<title>Node4&#45;&gt;Node3</title>
<g id="a_edge3_Node000003_Node000004"><a xlink:title=" ">
<path fill="none" stroke="#63b8ff" d="M84.5,-198.54C84.5,-189.96 84.5,-180.61 84.5,-173.16"/>
<polygon fill="#63b8ff" stroke="#63b8ff" points="81,-198.8 84.5,-208.8 88,-198.8 81,-198.8"/>
</a>
</g>
</g>
</g>
</svg>
