<?xml version="1.0" encoding="UTF-8" standalone="no"?>
<!DOCTYPE svg PUBLIC "-//W3C//DTD SVG 1.1//EN"
 "http://www.w3.org/Graphics/SVG/1.1/DTD/svg11.dtd">
<!-- Generated by graphviz version 2.43.0 (0)
 -->
<!-- Title: dasynq::v2::dprivate::base_fd_watcher Pages: 1 -->
<!--zoomable 103 -->

<svg id="main" version="1.1" xmlns="http://www.w3.org/2000/svg" xmlns:xlink="http://www.w3.org/1999/xlink" xml:space="preserve" onload="init(evt)">
<style type="text/css"><![CDATA[
.node, .edge {opacity: 0.7;}
.node.selected, .edge.selected {opacity: 1;}
.edge:hover path { stroke: red; }
.edge:hover polygon { stroke: red; fill: red; }
]]></style>

<defs>
  <circle id="rim" cx="0" cy="0" r="7"/>
  <circle id="rim2" cx="0" cy="0" r="3.5"/>
  <g id="zoomPlus">
    <use xlink:href="#rim" fill="#404040"><set attributeName="fill" to="#808080" begin="zoomplus.mouseover" end="zoomplus.mouseout"/></use>
    <path d="M-4,0h8M0,-4v8" fill="none" stroke="white" stroke-width="1.5" pointer-events="none"/>
  </g>
  <g id="zoomMin">
    <use xlink:href="#rim" fill="#404040"><set attributeName="fill" to="#808080" begin="zoomminus.mouseover" end="zoomminus.mouseout"/></use>
    <path d="M-4,0h8" fill="none" stroke="white" stroke-width="1.5" pointer-events="none"/>
  </g>
  <g id="arrowUp" transform="translate(30 24)">
    <use xlink:href="#rim"/>
    <path pointer-events="none" fill="none" stroke="white" stroke-width="1.5" d="M0,-3.0v7 M-2.5,-0.5L0,-3.0L2.5,-0.5"/>
  </g>
  <g id="arrowRight" transform="rotate(90) translate(36 -43)">
    <use xlink:href="#rim"/>
    <path pointer-events="none" fill="none" stroke="white" stroke-width="1.5" d="M0,-3.0v7 M-2.5,-0.5L0,-3.0L2.5,-0.5"/>
  </g>
  <g id="arrowDown" transform="rotate(180) translate(-30 -48)">
    <use xlink:href="#rim"/>
    <path pointer-events="none" fill="none" stroke="white" stroke-width="1.5" d="M0,-3.0v7 M-2.5,-0.5L0,-3.0L2.5,-0.5"/>
  </g>
  <g id="arrowLeft" transform="rotate(270) translate(-36 17)">
    <use xlink:href="#rim"/>
    <path pointer-events="none" fill="none" stroke="white" stroke-width="1.5" d="M0,-3.0v7 M-2.5,-0.5L0,-3.0L2.5,-0.5"/>
  </g>
  <g id="resetDef">
    <use xlink:href="#rim2" fill="#404040"><set attributeName="fill" to="#808080" begin="reset.mouseover" end="reset.mouseout"/></use>
  </g>
</defs>
<script type="application/ecmascript">
var viewWidth = 841;
var viewHeight = 103;
var sectionId = 'dynsection-0';
</script>
<script type="application/ecmascript" xlink:href="svg.min.js"/>
<svg id="graph" class="graph">
<g id="viewport">
<title>dasynq::v2::dprivate::base_fd_watcher</title>
<!-- Node1 -->
<g id="Node000001" class="node">
<title>Node1</title>
<g id="a_Node000001"><a xlink:title=" ">
<polygon fill="#999999" stroke="#666666" points="268,-62.5 152,-62.5 152,-32.5 268,-32.5 268,-62.5"/>
<text text-anchor="start" x="160" y="-50.5" font-family="Helvetica,sans-Serif" font-size="10.00">dasynq::v2::dprivate</text>
<text text-anchor="middle" x="210" y="-39.5" font-family="Helvetica,sans-Serif" font-size="10.00">::base_fd_watcher</text>
</a>
</g>
</g>
<!-- Node3 -->
<g id="Node000003" class="node">
<title>Node3</title>
<g id="a_Node000003"><a xlink:href="classdasynq_1_1v2_1_1dprivate_1_1base__bidi__fd__watcher.html" target="_top" xlink:title=" ">
<polygon fill="white" stroke="#666666" points="443,-87.5 315,-87.5 315,-57.5 443,-57.5 443,-87.5"/>
<text text-anchor="start" x="323" y="-75.5" font-family="Helvetica,sans-Serif" font-size="10.00">dasynq::v2::dprivate</text>
<text text-anchor="middle" x="379" y="-64.5" font-family="Helvetica,sans-Serif" font-size="10.00">::base_bidi_fd_watcher</text>
</a>
</g>
</g>
<!-- Node1&#45;&gt;Node3 -->
<g id="edge2_Node000001_Node000003" class="edge">
<title>Node1&#45;&gt;Node3</title>
<g id="a_edge2_Node000001_Node000003"><a xlink:title=" ">
<path fill="none" stroke="#63b8ff" d="M278.09,-57.54C290.26,-59.36 302.91,-61.26 314.95,-63.06"/>
<polygon fill="#63b8ff" stroke="#63b8ff" points="278.41,-54.05 268,-56.03 277.38,-60.98 278.41,-54.05"/>
</a>
</g>
</g>
<!-- Node6 -->
<g id="Node000006" class="node">
<title>Node6</title>
<g id="a_Node000006"><a xlink:href="classdasynq_1_1v2_1_1dprivate_1_1fd__watcher.html" target="_top" xlink:title=" ">
<polygon fill="white" stroke="#666666" points="454,-38.5 304,-38.5 304,-8.5 454,-8.5 454,-38.5"/>
<text text-anchor="start" x="312" y="-26.5" font-family="Helvetica,sans-Serif" font-size="10.00">dasynq::v2::dprivate</text>
<text text-anchor="middle" x="379" y="-15.5" font-family="Helvetica,sans-Serif" font-size="10.00">::fd_watcher&lt; EventLoop &gt;</text>
</a>
</g>
</g>
<!-- Node1&#45;&gt;Node6 -->
<g id="edge5_Node000001_Node000006" class="edge">
<title>Node1&#45;&gt;Node6</title>
<g id="a_edge5_Node000001_Node000006"><a xlink:title=" ">
<path fill="none" stroke="#8b1a1a" d="M278.17,-37.85C286.61,-36.63 295.29,-35.39 303.83,-34.16"/>
<polygon fill="#8b1a1a" stroke="#8b1a1a" points="277.41,-34.42 268,-39.31 278.4,-41.35 277.41,-34.42"/>
</a>
</g>
</g>
<!-- Node2 -->
<g id="Node000002" class="node">
<title>Node2</title>
<g id="a_Node000002"><a xlink:href="classdasynq_1_1v2_1_1dprivate_1_1base__watcher.html" target="_top" xlink:title=" ">
<polygon fill="white" stroke="#666666" points="116,-62.5 0,-62.5 0,-32.5 116,-32.5 116,-62.5"/>
<text text-anchor="start" x="8" y="-50.5" font-family="Helvetica,sans-Serif" font-size="10.00">dasynq::v2::dprivate</text>
<text text-anchor="middle" x="58" y="-39.5" font-family="Helvetica,sans-Serif" font-size="10.00">::base_watcher</text>
</a>
</g>
</g>
<!-- Node2&#45;&gt;Node1 -->
<g id="edge1_Node000001_Node000002" class="edge">
<title>Node2&#45;&gt;Node1</title>
<g id="a_edge1_Node000001_Node000002"><a xlink:title=" ">
<path fill="none" stroke="#63b8ff" d="M126.31,-47.5C134.73,-47.5 143.28,-47.5 151.53,-47.5"/>
<polygon fill="#63b8ff" stroke="#63b8ff" points="126.14,-44 116.14,-47.5 126.14,-51 126.14,-44"/>
</a>
</g>
</g>
<!-- Node4 -->
<g id="Node000004" class="node">
<title>Node4</title>
<g id="a_Node000004"><a xlink:href="classdasynq_1_1v2_1_1dprivate_1_1bidi__fd__watcher.html" target="_top" xlink:title=" ">
<polygon fill="white" stroke="#666666" points="663,-89.5 490,-89.5 490,-59.5 663,-59.5 663,-89.5"/>
<text text-anchor="start" x="498" y="-77.5" font-family="Helvetica,sans-Serif" font-size="10.00">dasynq::v2::dprivate</text>
<text text-anchor="middle" x="576.5" y="-66.5" font-family="Helvetica,sans-Serif" font-size="10.00">::bidi_fd_watcher&lt; EventLoop &gt;</text>
</a>
</g>
</g>
<!-- Node3&#45;&gt;Node4 -->
<g id="edge3_Node000003_Node000004" class="edge">
<title>Node3&#45;&gt;Node4</title>
<g id="a_edge3_Node000003_Node000004"><a xlink:title=" ">
<path fill="none" stroke="#8b1a1a" d="M453.46,-73.25C465.29,-73.37 477.64,-73.5 489.74,-73.62"/>
<polygon fill="#8b1a1a" stroke="#8b1a1a" points="453.24,-69.75 443.2,-73.15 453.17,-76.75 453.24,-69.75"/>
</a>
</g>
</g>
<!-- Node5 -->
<g id="Node000005" class="node">
<title>Node5</title>
<g id="a_Node000005"><a xlink:href="classdasynq_1_1v2_1_1dprivate_1_1bidi__fd__watcher__impl.html" target="_top" xlink:title=" ">
<polygon fill="white" stroke="#666666" points="833,-95 699,-95 699,-54 833,-54 833,-95"/>
<text text-anchor="start" x="707" y="-83" font-family="Helvetica,sans-Serif" font-size="10.00">dasynq::v2::dprivate</text>
<text text-anchor="start" x="707" y="-72" font-family="Helvetica,sans-Serif" font-size="10.00">::bidi_fd_watcher_impl</text>
<text text-anchor="middle" x="766" y="-61" font-family="Helvetica,sans-Serif" font-size="10.00">&lt; EventLoop, Derived &gt;</text>
</a>
</g>
</g>
<!-- Node4&#45;&gt;Node5 -->
<g id="edge4_Node000004_Node000005" class="edge">
<title>Node4&#45;&gt;Node5</title>
<g id="a_edge4_Node000004_Node000005"><a xlink:title=" ">
<path fill="none" stroke="#63b8ff" d="M673.23,-74.5C681.94,-74.5 690.62,-74.5 698.98,-74.5"/>
<polygon fill="#63b8ff" stroke="#63b8ff" points="673.02,-71 663.02,-74.5 673.02,-78 673.02,-71"/>
</a>
</g>
</g>
<!-- Node7 -->
<g id="Node000007" class="node">
<title>Node7</title>
<g id="a_Node000007"><a xlink:href="classdasynq_1_1v2_1_1dprivate_1_1fd__watcher__impl.html" target="_top" xlink:title=" ">
<polygon fill="white" stroke="#666666" points="661,-41 492,-41 492,0 661,0 661,-41"/>
<text text-anchor="start" x="500" y="-29" font-family="Helvetica,sans-Serif" font-size="10.00">dasynq::v2::dprivate</text>
<text text-anchor="start" x="500" y="-18" font-family="Helvetica,sans-Serif" font-size="10.00">::fd_watcher_impl&lt; EventLoop,</text>
<text text-anchor="middle" x="576.5" y="-7" font-family="Helvetica,sans-Serif" font-size="10.00"> Derived &gt;</text>
</a>
</g>
</g>
<!-- Node6&#45;&gt;Node7 -->
<g id="edge6_Node000006_Node000007" class="edge">
<title>Node6&#45;&gt;Node7</title>
<g id="a_edge6_Node000006_Node000007"><a xlink:title=" ">
<path fill="none" stroke="#63b8ff" d="M464.39,-22.2C473.5,-22.07 482.77,-21.92 491.88,-21.78"/>
<polygon fill="#63b8ff" stroke="#63b8ff" points="464.13,-18.71 454.19,-22.36 464.24,-25.71 464.13,-18.71"/>
</a>
</g>
</g>
</g>
</svg>

<g id="navigator" transform="translate(0 0)" fill="#404254">
  <rect fill="#f2f5e9" fill-opacity="0.5" stroke="#606060" stroke-width=".5" x="0" y="0" width="60" height="60"/>
  <use id="zoomplus" xlink:href="#zoomPlus" x="17" y="9" onmousedown="handleZoom(evt,'in')"/>
  <use id="zoomminus" xlink:href="#zoomMin" x="42" y="9" onmousedown="handleZoom(evt,'out')"/>
  <use id="reset" xlink:href="#resetDef" x="30" y="36" onmousedown="handleReset()"/>
   <use id="arrowup" xlink:href="#arrowUp" x="0" y="0" onmousedown="handlePan(0,-1)"/>
  <use id="arrowright" xlink:href="#arrowRight" x="0" y="0" onmousedown="handlePan(1,0)"/>
  <use id="arrowdown" xlink:href="#arrowDown" x="0" y="0" onmousedown="handlePan(0,1)"/>
  <use id="arrowleft" xlink:href="#arrowLeft" x="0" y="0" onmousedown="handlePan(-1,0)"/>
</g>
<svg viewBox="0 0 15 15" width="100%" height="30px" preserveAspectRatio="xMaxYMin meet">
 <g id="arrow_out" transform="scale(0.3 0.3)">
  <a xlink:href="classdasynq_1_1v2_1_1dprivate_1_1base__fd__watcher__inherit__graph_org.svg" target="_base">
   <rect id="button" ry="5" rx="5" y="6" x="6" height="38" width="38"
        fill="#f2f5e9" fill-opacity="0.5" stroke="#606060" stroke-width="1.0"/>
   <path id="arrow"
     d="M 11.500037,31.436501 C 11.940474,20.09759 22.043105,11.32322 32.158766,21.979434 L 37.068811,17.246167 C 37.068811,17.246167 37.088388,32 37.088388,32 L 22.160133,31.978069 C 22.160133,31.978069 26.997745,27.140456 26.997745,27.140456 C 18.528582,18.264221 13.291696,25.230495 11.500037,31.436501 z"
     style="fill:#404040;"/>
  </a>
 </g>
</svg>

<style type='text/css'>
<![CDATA[
[data-mouse-over-selected='false'] { opacity: 0.7; }
[data-mouse-over-selected='true']  { opacity: 1.0; }
]]>
</style>
<script type="application/ecmascript"><![CDATA[
document.addEventListener('DOMContentLoaded', (event) => {
  highlightEdges();
  highlightAdjacentNodes();
});
]]></script>
</svg>
