<?xml version="1.0" encoding="UTF-8" standalone="no"?>
<!DOCTYPE svg PUBLIC "-//W3C//DTD SVG 1.1//EN"
 "http://www.w3.org/Graphics/SVG/1.1/DTD/svg11.dtd">
<!-- Generated by graphviz version 2.43.0 (0)
 -->
<!-- Title: dasynq::v2::dprivate::timer_impl&lt; EventLoop, Derived &gt; Pages: 1 -->
<svg width="149pt" height="247pt"
 viewBox="0.00 0.00 149.00 247.00" xmlns="http://www.w3.org/2000/svg" xmlns:xlink="http://www.w3.org/1999/xlink">
<g id="graph0" class="graph" transform="scale(1 1) rotate(0) translate(4 243)">
<title>dasynq::v2::dprivate::timer_impl&lt; EventLoop, Derived &gt;</title>
<!-- Node1 -->
<g id="Node000001" class="node">
<title>Node1</title>
<g id="a_Node000001"><a xlink:title=" ">
<polygon fill="#999999" stroke="#666666" points="141,-41 0,-41 0,0 141,0 141,-41"/>
<text text-anchor="start" x="8" y="-29" font-family="Helvetica,sans-Serif" font-size="10.00">dasynq::v2::dprivate</text>
<text text-anchor="start" x="8" y="-18" font-family="Helvetica,sans-Serif" font-size="10.00">::timer_impl&lt; EventLoop,</text>
<text text-anchor="middle" x="70.5" y="-7" font-family="Helvetica,sans-Serif" font-size="10.00"> Derived &gt;</text>
</a>
</g>
</g>
<!-- Node2 -->
<g id="Node000002" class="node">
<title>Node2</title>
<g id="a_Node000002"><a xlink:href="classdasynq_1_1v2_1_1dprivate_1_1timer.html" target="_top" xlink:title=" ">
<polygon fill="white" stroke="#666666" points="131.5,-107 9.5,-107 9.5,-77 131.5,-77 131.5,-107"/>
<text text-anchor="start" x="17.5" y="-95" font-family="Helvetica,sans-Serif" font-size="10.00">dasynq::v2::dprivate</text>
<text text-anchor="middle" x="70.5" y="-84" font-family="Helvetica,sans-Serif" font-size="10.00">::timer&lt; EventLoop &gt;</text>
</a>
</g>
</g>
<!-- Node2&#45;&gt;Node1 -->
<g id="edge1_Node000001_Node000002" class="edge">
<title>Node2&#45;&gt;Node1</title>
<g id="a_edge1_Node000001_Node000002"><a xlink:title=" ">
<path fill="none" stroke="#63b8ff" d="M70.5,-66.91C70.5,-58.47 70.5,-49.1 70.5,-41.07"/>
<polygon fill="#63b8ff" stroke="#63b8ff" points="67,-66.94 70.5,-76.94 74,-66.94 67,-66.94"/>
</a>
</g>
</g>
<!-- Node3 -->
<g id="Node000003" class="node">
<title>Node3</title>
<g id="a_Node000003"><a xlink:href="classdasynq_1_1v2_1_1dprivate_1_1base__timer__watcher.html" target="_top" xlink:title=" ">
<polygon fill="white" stroke="#666666" points="131.5,-173 9.5,-173 9.5,-143 131.5,-143 131.5,-173"/>
<text text-anchor="start" x="17.5" y="-161" font-family="Helvetica,sans-Serif" font-size="10.00">dasynq::v2::dprivate</text>
<text text-anchor="middle" x="70.5" y="-150" font-family="Helvetica,sans-Serif" font-size="10.00">::base_timer_watcher</text>
</a>
</g>
</g>
<!-- Node3&#45;&gt;Node2 -->
<g id="edge2_Node000002_Node000003" class="edge">
<title>Node3&#45;&gt;Node2</title>
<g id="a_edge2_Node000002_Node000003"><a xlink:title=" ">
<path fill="none" stroke="#8b1a1a" d="M70.5,-132.54C70.5,-123.96 70.5,-114.61 70.5,-107.16"/>
<polygon fill="#8b1a1a" stroke="#8b1a1a" points="67,-132.8 70.5,-142.8 74,-132.8 67,-132.8"/>
</a>
</g>
</g>
<!-- Node4 -->
<g id="Node000004" class="node">
<title>Node4</title>
<g id="a_Node000004"><a xlink:href="classdasynq_1_1v2_1_1dprivate_1_1base__watcher.html" target="_top" xlink:title=" ">
<polygon fill="white" stroke="#666666" points="128.5,-239 12.5,-239 12.5,-209 128.5,-209 128.5,-239"/>
<text text-anchor="start" x="20.5" y="-227" font-family="Helvetica,sans-Serif" font-size="10.00">dasynq::v2::dprivate</text>
<text text-anchor="middle" x="70.5" y="-216" font-family="Helvetica,sans-Serif" font-size="10.00">::base_watcher</text>
</a>
</g>
</g>
<!-- Node4&#45;&gt;Node3 -->
<g id="edge3_Node000003_Node000004" class="edge">
<title>Node4&#45;&gt;Node3</title>
<g id="a_edge3_Node000003_Node000004"><a xlink:title=" ">
<path fill="none" stroke="#63b8ff" d="M70.5,-198.54C70.5,-189.96 70.5,-180.61 70.5,-173.16"/>
<polygon fill="#63b8ff" stroke="#63b8ff" points="67,-198.8 70.5,-208.8 74,-198.8 67,-198.8"/>
</a>
</g>
</g>
</g>
</svg>
