<?xml version="1.0" encoding="UTF-8" standalone="no"?>
<!DOCTYPE svg PUBLIC "-//W3C//DTD SVG 1.1//EN"
 "http://www.w3.org/Graphics/SVG/1.1/DTD/svg11.dtd">
<!-- Generated by graphviz version 2.43.0 (0)
 -->
<!-- Title: dasynq::v2::dprivate::base_child_watcher&lt; ChildData &gt; Pages: 1 -->
<svg width="928pt" height="60pt"
 viewBox="0.00 0.00 928.00 60.00" xmlns="http://www.w3.org/2000/svg" xmlns:xlink="http://www.w3.org/1999/xlink">
<g id="graph0" class="graph" transform="scale(1 1) rotate(0) translate(4 56)">
<title>dasynq::v2::dprivate::base_child_watcher&lt; ChildData &gt;</title>
<!-- Node1 -->
<g id="Node000001" class="node">
<title>Node1</title>
<g id="a_Node000001"><a xlink:title=" ">
<polygon fill="#999999" stroke="#666666" points="272,-46.5 153,-46.5 153,-5.5 272,-5.5 272,-46.5"/>
<text text-anchor="start" x="161" y="-34.5" font-family="Helvetica,sans-Serif" font-size="10.00">dasynq::v2::dprivate</text>
<text text-anchor="start" x="161" y="-23.5" font-family="Helvetica,sans-Serif" font-size="10.00">::base_child_watcher</text>
<text text-anchor="middle" x="212.5" y="-12.5" font-family="Helvetica,sans-Serif" font-size="10.00">&lt; ChildData &gt;</text>
</a>
</g>
</g>
<!-- Node3 -->
<g id="Node000003" class="node">
<title>Node3</title>
<g id="a_Node000003"><a xlink:href="classdasynq_1_1v2_1_1dprivate_1_1base__child__watcher.html" target="_top" xlink:title=" ">
<polygon fill="white" stroke="#666666" points="569,-52 432,-52 432,0 569,0 569,-52"/>
<text text-anchor="start" x="440" y="-40" font-family="Helvetica,sans-Serif" font-size="10.00">dasynq::v2::dprivate</text>
<text text-anchor="start" x="440" y="-29" font-family="Helvetica,sans-Serif" font-size="10.00">::base_child_watcher</text>
<text text-anchor="start" x="440" y="-18" font-family="Helvetica,sans-Serif" font-size="10.00">&lt; EventLoop::loop_traits</text>
<text text-anchor="middle" x="500.5" y="-7" font-family="Helvetica,sans-Serif" font-size="10.00">_t::proc_status_t &gt;</text>
</a>
</g>
</g>
<!-- Node1&#45;&gt;Node3 -->
<g id="edge2_Node000001_Node000003" class="edge">
<title>Node1&#45;&gt;Node3</title>
<g id="a_edge2_Node000001_Node000003"><a xlink:title=" ">
<path fill="none" stroke="orange" stroke-dasharray="5,2" d="M282.12,-26C327.52,-26 386.8,-26 431.98,-26"/>
<polygon fill="orange" stroke="orange" points="282.07,-22.5 272.07,-26 282.07,-29.5 282.07,-22.5"/>
</a>
</g>
<text text-anchor="start" x="290" y="-40" font-family="Helvetica,sans-Serif" font-size="10.00" fill="grey"> &lt; EventLoop::loop_traits</text>
<text text-anchor="middle" x="352" y="-29" font-family="Helvetica,sans-Serif" font-size="10.00" fill="grey">_t::proc_status_t &gt;</text>
</g>
<!-- Node2 -->
<g id="Node000002" class="node">
<title>Node2</title>
<g id="a_Node000002"><a xlink:href="classdasynq_1_1v2_1_1dprivate_1_1base__watcher.html" target="_top" xlink:title=" ">
<polygon fill="white" stroke="#666666" points="116,-41 0,-41 0,-11 116,-11 116,-41"/>
<text text-anchor="start" x="8" y="-29" font-family="Helvetica,sans-Serif" font-size="10.00">dasynq::v2::dprivate</text>
<text text-anchor="middle" x="58" y="-18" font-family="Helvetica,sans-Serif" font-size="10.00">::base_watcher</text>
</a>
</g>
</g>
<!-- Node2&#45;&gt;Node1 -->
<g id="edge1_Node000001_Node000002" class="edge">
<title>Node2&#45;&gt;Node1</title>
<g id="a_edge1_Node000001_Node000002"><a xlink:title=" ">
<path fill="none" stroke="#63b8ff" d="M126.48,-26C135.3,-26 144.28,-26 152.94,-26"/>
<polygon fill="#63b8ff" stroke="#63b8ff" points="126.22,-22.5 116.22,-26 126.22,-29.5 126.22,-22.5"/>
</a>
</g>
</g>
<!-- Node4 -->
<g id="Node000004" class="node">
<title>Node4</title>
<g id="a_Node000004"><a xlink:href="classdasynq_1_1v2_1_1dprivate_1_1child__proc__watcher.html" target="_top" xlink:title=" ">
<polygon fill="white" stroke="#666666" points="722,-46.5 606,-46.5 606,-5.5 722,-5.5 722,-46.5"/>
<text text-anchor="start" x="614" y="-34.5" font-family="Helvetica,sans-Serif" font-size="10.00">dasynq::v2::dprivate</text>
<text text-anchor="start" x="614" y="-23.5" font-family="Helvetica,sans-Serif" font-size="10.00">::child_proc_watcher</text>
<text text-anchor="middle" x="664" y="-12.5" font-family="Helvetica,sans-Serif" font-size="10.00">&lt; EventLoop &gt;</text>
</a>
</g>
</g>
<!-- Node3&#45;&gt;Node4 -->
<g id="edge3_Node000003_Node000004" class="edge">
<title>Node3&#45;&gt;Node4</title>
<g id="a_edge3_Node000003_Node000004"><a xlink:title=" ">
<path fill="none" stroke="#8b1a1a" d="M579.19,-26C588.21,-26 597.28,-26 605.95,-26"/>
<polygon fill="#8b1a1a" stroke="#8b1a1a" points="579.05,-22.5 569.05,-26 579.05,-29.5 579.05,-22.5"/>
</a>
</g>
</g>
<!-- Node5 -->
<g id="Node000005" class="node">
<title>Node5</title>
<g id="a_Node000005"><a xlink:href="classdasynq_1_1v2_1_1dprivate_1_1child__proc__watcher__impl.html" target="_top" xlink:title=" ">
<polygon fill="white" stroke="#666666" points="920,-46.5 759,-46.5 759,-5.5 920,-5.5 920,-46.5"/>
<text text-anchor="start" x="767" y="-34.5" font-family="Helvetica,sans-Serif" font-size="10.00">dasynq::v2::dprivate</text>
<text text-anchor="start" x="767" y="-23.5" font-family="Helvetica,sans-Serif" font-size="10.00">::child_proc_watcher</text>
<text text-anchor="middle" x="839.5" y="-12.5" font-family="Helvetica,sans-Serif" font-size="10.00">_impl&lt; EventLoop, Derived &gt;</text>
</a>
</g>
</g>
<!-- Node4&#45;&gt;Node5 -->
<g id="edge4_Node000004_Node000005" class="edge">
<title>Node4&#45;&gt;Node5</title>
<g id="a_edge4_Node000004_Node000005"><a xlink:title=" ">
<path fill="none" stroke="#63b8ff" d="M732.37,-26C741.09,-26 750.08,-26 758.97,-26"/>
<polygon fill="#63b8ff" stroke="#63b8ff" points="732.29,-22.5 722.29,-26 732.29,-29.5 732.29,-22.5"/>
</a>
</g>
</g>
</g>
</svg>
