<?xml version="1.0" encoding="UTF-8" standalone="no"?>
<!DOCTYPE svg PUBLIC "-//W3C//DTD SVG 1.1//EN"
 "http://www.w3.org/Graphics/SVG/1.1/DTD/svg11.dtd">
<!-- Generated by graphviz version 2.43.0 (0)
 -->
<!-- Title: dasynq::v2::dprivate::base_watcher Pages: 1 -->
<svg width="1004pt" height="310pt"
 viewBox="0.00 0.00 1004.00 309.50" xmlns="http://www.w3.org/2000/svg" xmlns:xlink="http://www.w3.org/1999/xlink">
<g id="graph0" class="graph" transform="scale(1 1) rotate(0) translate(4 305.5)">
<title>dasynq::v2::dprivate::base_watcher</title>
<!-- Node1 -->
<g id="Node000001" class="node">
<title>Node1</title>
<g id="a_Node000001"><a xlink:title=" ">
<polygon fill="#999999" stroke="#666666" points="116,-193.5 0,-193.5 0,-163.5 116,-163.5 116,-193.5"/>
<text text-anchor="start" x="8" y="-181.5" font-family="Helvetica,sans-Serif" font-size="10.00">dasynq::v2::dprivate</text>
<text text-anchor="middle" x="58" y="-170.5" font-family="Helvetica,sans-Serif" font-size="10.00">::base_watcher</text>
</a>
</g>
</g>
<!-- Node2 -->
<g id="Node000002" class="node">
<title>Node2</title>
<g id="a_Node000002"><a xlink:href="classdasynq_1_1v2_1_1dprivate_1_1base__child__watcher.html" target="_top" xlink:title=" ">
<polygon fill="white" stroke="#666666" points="581.5,-301.5 444.5,-301.5 444.5,-249.5 581.5,-249.5 581.5,-301.5"/>
<text text-anchor="start" x="452.5" y="-289.5" font-family="Helvetica,sans-Serif" font-size="10.00">dasynq::v2::dprivate</text>
<text text-anchor="start" x="452.5" y="-278.5" font-family="Helvetica,sans-Serif" font-size="10.00">::base_child_watcher</text>
<text text-anchor="start" x="452.5" y="-267.5" font-family="Helvetica,sans-Serif" font-size="10.00">&lt; EventLoop::loop_traits</text>
<text text-anchor="middle" x="513" y="-256.5" font-family="Helvetica,sans-Serif" font-size="10.00">_t::proc_status_t &gt;</text>
</a>
</g>
</g>
<!-- Node1&#45;&gt;Node2 -->
<g id="edge1_Node000001_Node000002" class="edge">
<title>Node1&#45;&gt;Node2</title>
<g id="a_edge1_Node000001_Node000002"><a xlink:title=" ">
<path fill="none" stroke="#63b8ff" d="M74.91,-202C91.48,-224.21 119.65,-256.21 153,-270.5 247.68,-311.07 369.71,-301.34 444.34,-289.35"/>
<polygon fill="#63b8ff" stroke="#63b8ff" points="77.64,-199.79 68.95,-193.73 71.96,-203.89 77.64,-199.79"/>
</a>
</g>
</g>
<!-- Node5 -->
<g id="Node000005" class="node">
<title>Node5</title>
<g id="a_Node000005"><a xlink:href="classdasynq_1_1v2_1_1dprivate_1_1base__signal__watcher.html" target="_top" xlink:title=" ">
<polygon fill="white" stroke="#666666" points="581.5,-217.5 444.5,-217.5 444.5,-165.5 581.5,-165.5 581.5,-217.5"/>
<text text-anchor="start" x="452.5" y="-205.5" font-family="Helvetica,sans-Serif" font-size="10.00">dasynq::v2::dprivate</text>
<text text-anchor="start" x="452.5" y="-194.5" font-family="Helvetica,sans-Serif" font-size="10.00">::base_signal_watcher</text>
<text text-anchor="start" x="452.5" y="-183.5" font-family="Helvetica,sans-Serif" font-size="10.00">&lt; EventLoop::loop_traits</text>
<text text-anchor="middle" x="513" y="-172.5" font-family="Helvetica,sans-Serif" font-size="10.00">_t::sigdata_t &gt;</text>
</a>
</g>
</g>
<!-- Node1&#45;&gt;Node5 -->
<g id="edge4_Node000001_Node000005" class="edge">
<title>Node1&#45;&gt;Node5</title>
<g id="a_edge4_Node000001_Node000005"><a xlink:title=" ">
<path fill="none" stroke="#63b8ff" d="M126.5,-180.44C212.08,-182.89 358.78,-187.1 444.41,-189.56"/>
<polygon fill="#63b8ff" stroke="#63b8ff" points="126.47,-176.93 116.37,-180.15 126.27,-183.93 126.47,-176.93"/>
</a>
</g>
</g>
<!-- Node8 -->
<g id="Node000008" class="node">
<title>Node8</title>
<g id="a_Node000008"><a xlink:href="classdasynq_1_1v2_1_1dprivate_1_1base__child__watcher.html" target="_top" xlink:title=" ">
<polygon fill="white" stroke="#666666" points="275,-261 156,-261 156,-220 275,-220 275,-261"/>
<text text-anchor="start" x="164" y="-249" font-family="Helvetica,sans-Serif" font-size="10.00">dasynq::v2::dprivate</text>
<text text-anchor="start" x="164" y="-238" font-family="Helvetica,sans-Serif" font-size="10.00">::base_child_watcher</text>
<text text-anchor="middle" x="215.5" y="-227" font-family="Helvetica,sans-Serif" font-size="10.00">&lt; ChildData &gt;</text>
</a>
</g>
</g>
<!-- Node1&#45;&gt;Node8 -->
<g id="edge7_Node000001_Node000008" class="edge">
<title>Node1&#45;&gt;Node8</title>
<g id="a_edge7_Node000001_Node000008"><a xlink:title=" ">
<path fill="none" stroke="#63b8ff" d="M106.28,-197.35C124.14,-204.47 144.56,-212.61 162.81,-219.89"/>
<polygon fill="#63b8ff" stroke="#63b8ff" points="107.23,-193.96 96.64,-193.51 104.63,-200.46 107.23,-193.96"/>
</a>
</g>
</g>
<!-- Node9 -->
<g id="Node000009" class="node">
<title>Node9</title>
<g id="a_Node000009"><a xlink:href="classdasynq_1_1v2_1_1dprivate_1_1base__fd__watcher.html" target="_top" xlink:title=" ">
<polygon fill="white" stroke="#666666" points="273.5,-103.5 157.5,-103.5 157.5,-73.5 273.5,-73.5 273.5,-103.5"/>
<text text-anchor="start" x="165.5" y="-91.5" font-family="Helvetica,sans-Serif" font-size="10.00">dasynq::v2::dprivate</text>
<text text-anchor="middle" x="215.5" y="-80.5" font-family="Helvetica,sans-Serif" font-size="10.00">::base_fd_watcher</text>
</a>
</g>
</g>
<!-- Node1&#45;&gt;Node9 -->
<g id="edge9_Node000001_Node000009" class="edge">
<title>Node1&#45;&gt;Node9</title>
<g id="a_edge9_Node000001_Node000009"><a xlink:title=" ">
<path fill="none" stroke="#63b8ff" d="M86.74,-156.92C104.93,-143.38 129.6,-126.15 153,-113.5 159.59,-109.94 166.8,-106.57 173.89,-103.53"/>
<polygon fill="#63b8ff" stroke="#63b8ff" points="84.24,-154.42 78.36,-163.23 88.45,-160.01 84.24,-154.42"/>
</a>
</g>
</g>
<!-- Node15 -->
<g id="Node000015" class="node">
<title>Node15</title>
<g id="a_Node000015"><a xlink:href="classdasynq_1_1v2_1_1dprivate_1_1base__signal__watcher.html" target="_top" xlink:title=" ">
<polygon fill="white" stroke="#666666" points="278,-163 153,-163 153,-122 278,-122 278,-163"/>
<text text-anchor="start" x="161" y="-151" font-family="Helvetica,sans-Serif" font-size="10.00">dasynq::v2::dprivate</text>
<text text-anchor="start" x="161" y="-140" font-family="Helvetica,sans-Serif" font-size="10.00">::base_signal_watcher</text>
<text text-anchor="middle" x="215.5" y="-129" font-family="Helvetica,sans-Serif" font-size="10.00">&lt; T_Sigdata &gt;</text>
</a>
</g>
</g>
<!-- Node1&#45;&gt;Node15 -->
<g id="edge15_Node000001_Node000015" class="edge">
<title>Node1&#45;&gt;Node15</title>
<g id="a_edge15_Node000001_Node000015"><a xlink:title=" ">
<path fill="none" stroke="#63b8ff" d="M125.96,-163C134.87,-160.94 143.96,-158.83 152.77,-156.79"/>
<polygon fill="#63b8ff" stroke="#63b8ff" points="124.97,-159.63 116.02,-165.3 126.55,-166.45 124.97,-159.63"/>
</a>
</g>
</g>
<!-- Node16 -->
<g id="Node000016" class="node">
<title>Node16</title>
<g id="a_Node000016"><a xlink:href="classdasynq_1_1v2_1_1dprivate_1_1base__timer__watcher.html" target="_top" xlink:title=" ">
<polygon fill="white" stroke="#666666" points="276.5,-53.5 154.5,-53.5 154.5,-23.5 276.5,-23.5 276.5,-53.5"/>
<text text-anchor="start" x="162.5" y="-41.5" font-family="Helvetica,sans-Serif" font-size="10.00">dasynq::v2::dprivate</text>
<text text-anchor="middle" x="215.5" y="-30.5" font-family="Helvetica,sans-Serif" font-size="10.00">::base_timer_watcher</text>
</a>
</g>
</g>
<!-- Node1&#45;&gt;Node16 -->
<g id="edge17_Node000001_Node000016" class="edge">
<title>Node1&#45;&gt;Node16</title>
<g id="a_edge17_Node000001_Node000016"><a xlink:title=" ">
<path fill="none" stroke="#63b8ff" d="M73.66,-154.6C90.22,-129.3 119.3,-89.63 153,-64.5 158.58,-60.34 164.92,-56.71 171.36,-53.57"/>
<polygon fill="#63b8ff" stroke="#63b8ff" points="70.59,-152.91 68.14,-163.21 76.49,-156.68 70.59,-152.91"/>
</a>
</g>
</g>
<!-- Node3 -->
<g id="Node000003" class="node">
<title>Node3</title>
<g id="a_Node000003"><a xlink:href="classdasynq_1_1v2_1_1dprivate_1_1child__proc__watcher.html" target="_top" xlink:title=" ">
<polygon fill="white" stroke="#666666" points="769.5,-296 653.5,-296 653.5,-255 769.5,-255 769.5,-296"/>
<text text-anchor="start" x="661.5" y="-284" font-family="Helvetica,sans-Serif" font-size="10.00">dasynq::v2::dprivate</text>
<text text-anchor="start" x="661.5" y="-273" font-family="Helvetica,sans-Serif" font-size="10.00">::child_proc_watcher</text>
<text text-anchor="middle" x="711.5" y="-262" font-family="Helvetica,sans-Serif" font-size="10.00">&lt; EventLoop &gt;</text>
</a>
</g>
</g>
<!-- Node2&#45;&gt;Node3 -->
<g id="edge2_Node000002_Node000003" class="edge">
<title>Node2&#45;&gt;Node3</title>
<g id="a_edge2_Node000002_Node000003"><a xlink:title=" ">
<path fill="none" stroke="#8b1a1a" d="M591.87,-275.5C612.34,-275.5 634.05,-275.5 653.21,-275.5"/>
<polygon fill="#8b1a1a" stroke="#8b1a1a" points="591.62,-272 581.62,-275.5 591.62,-279 591.62,-272"/>
</a>
</g>
</g>
<!-- Node4 -->
<g id="Node000004" class="node">
<title>Node4</title>
<g id="a_Node000004"><a xlink:href="classdasynq_1_1v2_1_1dprivate_1_1child__proc__watcher__impl.html" target="_top" xlink:title=" ">
<polygon fill="white" stroke="#666666" points="996,-296 835,-296 835,-255 996,-255 996,-296"/>
<text text-anchor="start" x="843" y="-284" font-family="Helvetica,sans-Serif" font-size="10.00">dasynq::v2::dprivate</text>
<text text-anchor="start" x="843" y="-273" font-family="Helvetica,sans-Serif" font-size="10.00">::child_proc_watcher</text>
<text text-anchor="middle" x="915.5" y="-262" font-family="Helvetica,sans-Serif" font-size="10.00">_impl&lt; EventLoop, Derived &gt;</text>
</a>
</g>
</g>
<!-- Node3&#45;&gt;Node4 -->
<g id="edge3_Node000003_Node000004" class="edge">
<title>Node3&#45;&gt;Node4</title>
<g id="a_edge3_Node000003_Node000004"><a xlink:title=" ">
<path fill="none" stroke="#63b8ff" d="M779.78,-275.5C797.46,-275.5 816.7,-275.5 834.95,-275.5"/>
<polygon fill="#63b8ff" stroke="#63b8ff" points="779.58,-272 769.58,-275.5 779.58,-279 779.58,-272"/>
</a>
</g>
</g>
<!-- Node6 -->
<g id="Node000006" class="node">
<title>Node6</title>
<g id="a_Node000006"><a xlink:href="classdasynq_1_1v2_1_1dprivate_1_1signal__watcher.html" target="_top" xlink:title=" ">
<polygon fill="white" stroke="#666666" points="796.5,-207.5 626.5,-207.5 626.5,-177.5 796.5,-177.5 796.5,-207.5"/>
<text text-anchor="start" x="634.5" y="-195.5" font-family="Helvetica,sans-Serif" font-size="10.00">dasynq::v2::dprivate</text>
<text text-anchor="middle" x="711.5" y="-184.5" font-family="Helvetica,sans-Serif" font-size="10.00">::signal_watcher&lt; EventLoop &gt;</text>
</a>
</g>
</g>
<!-- Node5&#45;&gt;Node6 -->
<g id="edge5_Node000005_Node000006" class="edge">
<title>Node5&#45;&gt;Node6</title>
<g id="a_edge5_Node000005_Node000006"><a xlink:title=" ">
<path fill="none" stroke="#8b1a1a" d="M591.91,-191.9C603.26,-191.95 614.98,-192.01 626.43,-192.07"/>
<polygon fill="#8b1a1a" stroke="#8b1a1a" points="591.64,-188.4 581.62,-191.84 591.61,-195.4 591.64,-188.4"/>
</a>
</g>
</g>
<!-- Node7 -->
<g id="Node000007" class="node">
<title>Node7</title>
<g id="a_Node000007"><a xlink:href="classdasynq_1_1v2_1_1dprivate_1_1signal__watcher__impl.html" target="_top" xlink:title=" ">
<polygon fill="white" stroke="#666666" points="982.5,-213 848.5,-213 848.5,-172 982.5,-172 982.5,-213"/>
<text text-anchor="start" x="856.5" y="-201" font-family="Helvetica,sans-Serif" font-size="10.00">dasynq::v2::dprivate</text>
<text text-anchor="start" x="856.5" y="-190" font-family="Helvetica,sans-Serif" font-size="10.00">::signal_watcher_impl</text>
<text text-anchor="middle" x="915.5" y="-179" font-family="Helvetica,sans-Serif" font-size="10.00">&lt; EventLoop, Derived &gt;</text>
</a>
</g>
</g>
<!-- Node6&#45;&gt;Node7 -->
<g id="edge6_Node000006_Node000007" class="edge">
<title>Node6&#45;&gt;Node7</title>
<g id="a_edge6_Node000006_Node000007"><a xlink:title=" ">
<path fill="none" stroke="#63b8ff" d="M806.85,-192.5C820.85,-192.5 835.02,-192.5 848.27,-192.5"/>
<polygon fill="#63b8ff" stroke="#63b8ff" points="806.7,-189 796.7,-192.5 806.7,-196 806.7,-189"/>
</a>
</g>
</g>
<!-- Node8&#45;&gt;Node2 -->
<g id="edge8_Node000008_Node000002" class="edge">
<title>Node8&#45;&gt;Node2</title>
<g id="a_edge8_Node000008_Node000002"><a xlink:title=" ">
<path fill="none" stroke="orange" stroke-dasharray="5,2" d="M285.19,-241.97C324.78,-243.54 375.4,-246.79 420,-253.5 427.96,-254.7 436.24,-256.24 444.43,-257.96"/>
<polygon fill="orange" stroke="orange" points="285.24,-238.47 275.11,-241.59 284.98,-245.46 285.24,-238.47"/>
</a>
</g>
<text text-anchor="start" x="296" y="-267.5" font-family="Helvetica,sans-Serif" font-size="10.00" fill="grey"> &lt; EventLoop::loop_traits</text>
<text text-anchor="middle" x="358" y="-256.5" font-family="Helvetica,sans-Serif" font-size="10.00" fill="grey">_t::proc_status_t &gt;</text>
</g>
<!-- Node10 -->
<g id="Node000010" class="node">
<title>Node10</title>
<g id="a_Node000010"><a xlink:href="classdasynq_1_1v2_1_1dprivate_1_1base__bidi__fd__watcher.html" target="_top" xlink:title=" ">
<polygon fill="white" stroke="#666666" points="577,-146.5 449,-146.5 449,-116.5 577,-116.5 577,-146.5"/>
<text text-anchor="start" x="457" y="-134.5" font-family="Helvetica,sans-Serif" font-size="10.00">dasynq::v2::dprivate</text>
<text text-anchor="middle" x="513" y="-123.5" font-family="Helvetica,sans-Serif" font-size="10.00">::base_bidi_fd_watcher</text>
</a>
</g>
</g>
<!-- Node9&#45;&gt;Node10 -->
<g id="edge10_Node000009_Node000010" class="edge">
<title>Node9&#45;&gt;Node10</title>
<g id="a_edge10_Node000009_Node000010"><a xlink:title=" ">
<path fill="none" stroke="#63b8ff" d="M283.82,-98.3C333.41,-105.51 400.4,-115.26 448.95,-122.33"/>
<polygon fill="#63b8ff" stroke="#63b8ff" points="284.23,-94.82 273.83,-96.84 283.22,-101.75 284.23,-94.82"/>
</a>
</g>
</g>
<!-- Node13 -->
<g id="Node000013" class="node">
<title>Node13</title>
<g id="a_Node000013"><a xlink:href="classdasynq_1_1v2_1_1dprivate_1_1fd__watcher.html" target="_top" xlink:title=" ">
<polygon fill="white" stroke="#666666" points="588,-95.5 438,-95.5 438,-65.5 588,-65.5 588,-95.5"/>
<text text-anchor="start" x="446" y="-83.5" font-family="Helvetica,sans-Serif" font-size="10.00">dasynq::v2::dprivate</text>
<text text-anchor="middle" x="513" y="-72.5" font-family="Helvetica,sans-Serif" font-size="10.00">::fd_watcher&lt; EventLoop &gt;</text>
</a>
</g>
</g>
<!-- Node9&#45;&gt;Node13 -->
<g id="edge13_Node000009_Node000013" class="edge">
<title>Node9&#45;&gt;Node13</title>
<g id="a_edge13_Node000009_Node000013"><a xlink:title=" ">
<path fill="none" stroke="#8b1a1a" d="M283.96,-86.67C329.82,-85.43 390.5,-83.79 437.74,-82.51"/>
<polygon fill="#8b1a1a" stroke="#8b1a1a" points="283.73,-83.18 273.83,-86.95 283.92,-90.18 283.73,-83.18"/>
</a>
</g>
</g>
<!-- Node11 -->
<g id="Node000011" class="node">
<title>Node11</title>
<g id="a_Node000011"><a xlink:href="classdasynq_1_1v2_1_1dprivate_1_1bidi__fd__watcher.html" target="_top" xlink:title=" ">
<polygon fill="white" stroke="#666666" points="798,-148.5 625,-148.5 625,-118.5 798,-118.5 798,-148.5"/>
<text text-anchor="start" x="633" y="-136.5" font-family="Helvetica,sans-Serif" font-size="10.00">dasynq::v2::dprivate</text>
<text text-anchor="middle" x="711.5" y="-125.5" font-family="Helvetica,sans-Serif" font-size="10.00">::bidi_fd_watcher&lt; EventLoop &gt;</text>
</a>
</g>
</g>
<!-- Node10&#45;&gt;Node11 -->
<g id="edge11_Node000010_Node000011" class="edge">
<title>Node10&#45;&gt;Node11</title>
<g id="a_edge11_Node000010_Node000011"><a xlink:title=" ">
<path fill="none" stroke="#8b1a1a" d="M587.36,-132.25C599.56,-132.37 612.32,-132.5 624.8,-132.63"/>
<polygon fill="#8b1a1a" stroke="#8b1a1a" points="587.29,-128.75 577.26,-132.14 587.22,-135.75 587.29,-128.75"/>
</a>
</g>
</g>
<!-- Node12 -->
<g id="Node000012" class="node">
<title>Node12</title>
<g id="a_Node000012"><a xlink:href="classdasynq_1_1v2_1_1dprivate_1_1bidi__fd__watcher__impl.html" target="_top" xlink:title=" ">
<polygon fill="white" stroke="#666666" points="982.5,-154 848.5,-154 848.5,-113 982.5,-113 982.5,-154"/>
<text text-anchor="start" x="856.5" y="-142" font-family="Helvetica,sans-Serif" font-size="10.00">dasynq::v2::dprivate</text>
<text text-anchor="start" x="856.5" y="-131" font-family="Helvetica,sans-Serif" font-size="10.00">::bidi_fd_watcher_impl</text>
<text text-anchor="middle" x="915.5" y="-120" font-family="Helvetica,sans-Serif" font-size="10.00">&lt; EventLoop, Derived &gt;</text>
</a>
</g>
</g>
<!-- Node11&#45;&gt;Node12 -->
<g id="edge12_Node000011_Node000012" class="edge">
<title>Node11&#45;&gt;Node12</title>
<g id="a_edge12_Node000011_Node000012"><a xlink:title=" ">
<path fill="none" stroke="#63b8ff" d="M808.44,-133.5C821.94,-133.5 835.55,-133.5 848.31,-133.5"/>
<polygon fill="#63b8ff" stroke="#63b8ff" points="808.17,-130 798.17,-133.5 808.17,-137 808.17,-130"/>
</a>
</g>
</g>
<!-- Node14 -->
<g id="Node000014" class="node">
<title>Node14</title>
<g id="a_Node000014"><a xlink:href="classdasynq_1_1v2_1_1dprivate_1_1fd__watcher__impl.html" target="_top" xlink:title=" ">
<polygon fill="white" stroke="#666666" points="796,-100 627,-100 627,-59 796,-59 796,-100"/>
<text text-anchor="start" x="635" y="-88" font-family="Helvetica,sans-Serif" font-size="10.00">dasynq::v2::dprivate</text>
<text text-anchor="start" x="635" y="-77" font-family="Helvetica,sans-Serif" font-size="10.00">::fd_watcher_impl&lt; EventLoop,</text>
<text text-anchor="middle" x="711.5" y="-66" font-family="Helvetica,sans-Serif" font-size="10.00"> Derived &gt;</text>
</a>
</g>
</g>
<!-- Node13&#45;&gt;Node14 -->
<g id="edge14_Node000013_Node000014" class="edge">
<title>Node13&#45;&gt;Node14</title>
<g id="a_edge14_Node000013_Node000014"><a xlink:title=" ">
<path fill="none" stroke="#63b8ff" d="M598.17,-80.07C607.61,-80.02 617.23,-79.97 626.67,-79.93"/>
<polygon fill="#63b8ff" stroke="#63b8ff" points="597.99,-76.57 588.01,-80.12 598.03,-83.57 597.99,-76.57"/>
</a>
</g>
</g>
<!-- Node15&#45;&gt;Node5 -->
<g id="edge16_Node000015_Node000005" class="edge">
<title>Node15&#45;&gt;Node5</title>
<g id="a_edge16_Node000015_Node000005"><a xlink:title=" ">
<path fill="none" stroke="orange" stroke-dasharray="5,2" d="M288.22,-141.7C327.55,-142.61 376.92,-145.94 420,-155.5 431.05,-157.95 442.52,-161.53 453.45,-165.5"/>
<polygon fill="orange" stroke="orange" points="288.25,-138.2 278.19,-141.52 288.12,-145.2 288.25,-138.2"/>
</a>
</g>
<text text-anchor="start" x="296" y="-169.5" font-family="Helvetica,sans-Serif" font-size="10.00" fill="grey"> &lt; EventLoop::loop_traits</text>
<text text-anchor="middle" x="358" y="-158.5" font-family="Helvetica,sans-Serif" font-size="10.00" fill="grey">_t::sigdata_t &gt;</text>
</g>
<!-- Node17 -->
<g id="Node000017" class="node">
<title>Node17</title>
<g id="a_Node000017"><a xlink:href="classdasynq_1_1v2_1_1dprivate_1_1timer.html" target="_top" xlink:title=" ">
<polygon fill="white" stroke="#666666" points="574,-42.5 452,-42.5 452,-12.5 574,-12.5 574,-42.5"/>
<text text-anchor="start" x="460" y="-30.5" font-family="Helvetica,sans-Serif" font-size="10.00">dasynq::v2::dprivate</text>
<text text-anchor="middle" x="513" y="-19.5" font-family="Helvetica,sans-Serif" font-size="10.00">::timer&lt; EventLoop &gt;</text>
</a>
</g>
</g>
<!-- Node16&#45;&gt;Node17 -->
<g id="edge18_Node000016_Node000017" class="edge">
<title>Node16&#45;&gt;Node17</title>
<g id="a_edge18_Node000016_Node000017"><a xlink:title=" ">
<path fill="none" stroke="#8b1a1a" d="M286.8,-35.88C337.11,-34.01 404.12,-31.52 451.93,-29.74"/>
<polygon fill="#8b1a1a" stroke="#8b1a1a" points="286.52,-32.39 276.66,-36.26 286.78,-39.39 286.52,-32.39"/>
</a>
</g>
</g>
<!-- Node18 -->
<g id="Node000018" class="node">
<title>Node18</title>
<g id="a_Node000018"><a xlink:href="classdasynq_1_1v2_1_1dprivate_1_1timer__impl.html" target="_top" xlink:title=" ">
<polygon fill="white" stroke="#666666" points="782,-41 641,-41 641,0 782,0 782,-41"/>
<text text-anchor="start" x="649" y="-29" font-family="Helvetica,sans-Serif" font-size="10.00">dasynq::v2::dprivate</text>
<text text-anchor="start" x="649" y="-18" font-family="Helvetica,sans-Serif" font-size="10.00">::timer_impl&lt; EventLoop,</text>
<text text-anchor="middle" x="711.5" y="-7" font-family="Helvetica,sans-Serif" font-size="10.00"> Derived &gt;</text>
</a>
</g>
</g>
<!-- Node17&#45;&gt;Node18 -->
<g id="edge19_Node000017_Node000018" class="edge">
<title>Node17&#45;&gt;Node18</title>
<g id="a_edge19_Node000017_Node000018"><a xlink:title=" ">
<path fill="none" stroke="#63b8ff" d="M584.1,-25C602.55,-24.35 622.43,-23.64 640.85,-22.98"/>
<polygon fill="#63b8ff" stroke="#63b8ff" points="583.89,-21.51 574.02,-25.36 584.14,-28.5 583.89,-21.51"/>
</a>
</g>
</g>
</g>
</svg>
