<?xml version="1.0" encoding="UTF-8" standalone="no"?>
<!DOCTYPE svg PUBLIC "-//W3C//DTD SVG 1.1//EN"
 "http://www.w3.org/Graphics/SVG/1.1/DTD/svg11.dtd">
<!-- Generated by graphviz version 2.43.0 (0)
 -->
<!-- Title: dasynq::v2::dprivate::signal_watcher_impl&lt; EventLoop, Derived &gt; Pages: 1 -->
<svg width="961pt" height="82pt"
 viewBox="0.00 0.00 961.00 81.50" xmlns="http://www.w3.org/2000/svg" xmlns:xlink="http://www.w3.org/1999/xlink">
<g id="graph0" class="graph" transform="scale(1 1) rotate(0) translate(4 77.5)">
<title>dasynq::v2::dprivate::signal_watcher_impl&lt; EventLoop, Derived &gt;</title>
<!-- Node1 -->
<g id="Node000001" class="node">
<title>Node1</title>
<g id="a_Node000001"><a xlink:title=" ">
<polygon fill="#999999" stroke="#666666" points="953,-68 819,-68 819,-27 953,-27 953,-68"/>
<text text-anchor="start" x="827" y="-56" font-family="Helvetica,sans-Serif" font-size="10.00">dasynq::v2::dprivate</text>
<text text-anchor="start" x="827" y="-45" font-family="Helvetica,sans-Serif" font-size="10.00">::signal_watcher_impl</text>
<text text-anchor="middle" x="886" y="-34" font-family="Helvetica,sans-Serif" font-size="10.00">&lt; EventLoop, Derived &gt;</text>
</a>
</g>
</g>
<!-- Node2 -->
<g id="Node000002" class="node">
<title>Node2</title>
<g id="a_Node000002"><a xlink:href="classdasynq_1_1v2_1_1dprivate_1_1signal__watcher.html" target="_top" xlink:title=" ">
<polygon fill="white" stroke="#666666" points="782,-62.5 612,-62.5 612,-32.5 782,-32.5 782,-62.5"/>
<text text-anchor="start" x="620" y="-50.5" font-family="Helvetica,sans-Serif" font-size="10.00">dasynq::v2::dprivate</text>
<text text-anchor="middle" x="697" y="-39.5" font-family="Helvetica,sans-Serif" font-size="10.00">::signal_watcher&lt; EventLoop &gt;</text>
</a>
</g>
</g>
<!-- Node2&#45;&gt;Node1 -->
<g id="edge1_Node000001_Node000002" class="edge">
<title>Node2&#45;&gt;Node1</title>
<g id="a_edge1_Node000001_Node000002"><a xlink:title=" ">
<path fill="none" stroke="#63b8ff" d="M792.33,-47.5C801.32,-47.5 810.29,-47.5 818.92,-47.5"/>
<polygon fill="#63b8ff" stroke="#63b8ff" points="792.2,-44 782.2,-47.5 792.2,-51 792.2,-44"/>
</a>
</g>
</g>
<!-- Node3 -->
<g id="Node000003" class="node">
<title>Node3</title>
<g id="a_Node000003"><a xlink:href="classdasynq_1_1v2_1_1dprivate_1_1base__signal__watcher.html" target="_top" xlink:title=" ">
<polygon fill="white" stroke="#666666" points="575,-73.5 438,-73.5 438,-21.5 575,-21.5 575,-73.5"/>
<text text-anchor="start" x="446" y="-61.5" font-family="Helvetica,sans-Serif" font-size="10.00">dasynq::v2::dprivate</text>
<text text-anchor="start" x="446" y="-50.5" font-family="Helvetica,sans-Serif" font-size="10.00">::base_signal_watcher</text>
<text text-anchor="start" x="446" y="-39.5" font-family="Helvetica,sans-Serif" font-size="10.00">&lt; EventLoop::loop_traits</text>
<text text-anchor="middle" x="506.5" y="-28.5" font-family="Helvetica,sans-Serif" font-size="10.00">_t::sigdata_t &gt;</text>
</a>
</g>
</g>
<!-- Node3&#45;&gt;Node2 -->
<g id="edge2_Node000002_Node000003" class="edge">
<title>Node3&#45;&gt;Node2</title>
<g id="a_edge2_Node000002_Node000003"><a xlink:title=" ">
<path fill="none" stroke="#8b1a1a" d="M585.22,-47.5C594,-47.5 602.99,-47.5 611.85,-47.5"/>
<polygon fill="#8b1a1a" stroke="#8b1a1a" points="585.02,-44 575.02,-47.5 585.02,-51 585.02,-44"/>
</a>
</g>
</g>
<!-- Node4 -->
<g id="Node000004" class="node">
<title>Node4</title>
<g id="a_Node000004"><a xlink:href="classdasynq_1_1v2_1_1dprivate_1_1base__watcher.html" target="_top" xlink:title=" ">
<polygon fill="white" stroke="#666666" points="116,-59.5 0,-59.5 0,-29.5 116,-29.5 116,-59.5"/>
<text text-anchor="start" x="8" y="-47.5" font-family="Helvetica,sans-Serif" font-size="10.00">dasynq::v2::dprivate</text>
<text text-anchor="middle" x="58" y="-36.5" font-family="Helvetica,sans-Serif" font-size="10.00">::base_watcher</text>
</a>
</g>
</g>
<!-- Node4&#45;&gt;Node3 -->
<g id="edge3_Node000003_Node000004" class="edge">
<title>Node4&#45;&gt;Node3</title>
<g id="a_edge3_Node000003_Node000004"><a xlink:title=" ">
<path fill="none" stroke="#63b8ff" d="M126.59,-49.67C199.15,-54.49 317.77,-60.27 420,-55.5 425.81,-55.23 431.83,-54.85 437.87,-54.42"/>
<polygon fill="#63b8ff" stroke="#63b8ff" points="126.44,-46.15 116.23,-48.96 125.97,-53.13 126.44,-46.15"/>
</a>
</g>
</g>
<!-- Node5 -->
<g id="Node000005" class="node">
<title>Node5</title>
<g id="a_Node000005"><a xlink:href="classdasynq_1_1v2_1_1dprivate_1_1base__signal__watcher.html" target="_top" xlink:title=" ">
<polygon fill="white" stroke="#666666" points="278,-41 153,-41 153,0 278,0 278,-41"/>
<text text-anchor="start" x="161" y="-29" font-family="Helvetica,sans-Serif" font-size="10.00">dasynq::v2::dprivate</text>
<text text-anchor="start" x="161" y="-18" font-family="Helvetica,sans-Serif" font-size="10.00">::base_signal_watcher</text>
<text text-anchor="middle" x="215.5" y="-7" font-family="Helvetica,sans-Serif" font-size="10.00">&lt; T_Sigdata &gt;</text>
</a>
</g>
</g>
<!-- Node4&#45;&gt;Node5 -->
<g id="edge5_Node000005_Node000004" class="edge">
<title>Node4&#45;&gt;Node5</title>
<g id="a_edge5_Node000005_Node000004"><a xlink:title=" ">
<path fill="none" stroke="#63b8ff" d="M125.96,-34.16C134.87,-32.79 143.96,-31.39 152.77,-30.03"/>
<polygon fill="#63b8ff" stroke="#63b8ff" points="125.37,-30.72 116.02,-35.7 126.44,-37.63 125.37,-30.72"/>
</a>
</g>
</g>
<!-- Node5&#45;&gt;Node3 -->
<g id="edge4_Node000003_Node000005" class="edge">
<title>Node5&#45;&gt;Node3</title>
<g id="a_edge4_Node000003_Node000005"><a xlink:title=" ">
<path fill="none" stroke="orange" stroke-dasharray="5,2" d="M288.3,-23.36C327.33,-25.35 376.41,-28.55 420,-33.5 425.83,-34.16 431.87,-34.95 437.91,-35.8"/>
<polygon fill="orange" stroke="orange" points="288.25,-19.85 278.08,-22.85 287.9,-26.84 288.25,-19.85"/>
</a>
</g>
<text text-anchor="start" x="296" y="-47.5" font-family="Helvetica,sans-Serif" font-size="10.00" fill="grey"> &lt; EventLoop::loop_traits</text>
<text text-anchor="middle" x="358" y="-36.5" font-family="Helvetica,sans-Serif" font-size="10.00" fill="grey">_t::sigdata_t &gt;</text>
</g>
</g>
</svg>
