<?xml version="1.0" encoding="UTF-8" standalone="no"?>
<!DOCTYPE svg PUBLIC "-//W3C//DTD SVG 1.1//EN"
 "http://www.w3.org/Graphics/SVG/1.1/DTD/svg11.dtd">
<!-- Generated by graphviz version 2.43.0 (0)
 -->
<!-- Title: dasynq::v2::dprivate::base_fd_watcher Pages: 1 -->
<svg width="841pt" height="103pt"
 viewBox="0.00 0.00 841.00 103.00" xmlns="http://www.w3.org/2000/svg" xmlns:xlink="http://www.w3.org/1999/xlink">
<g id="graph0" class="graph" transform="scale(1 1) rotate(0) translate(4 99)">
<title>dasynq::v2::dprivate::base_fd_watcher</title>
<!-- Node1 -->
<g id="Node000001" class="node">
<title>Node1</title>
<g id="a_Node000001"><a xlink:title=" ">
<polygon fill="#999999" stroke="#666666" points="268,-62.5 152,-62.5 152,-32.5 268,-32.5 268,-62.5"/>
<text text-anchor="start" x="160" y="-50.5" font-family="Helvetica,sans-Serif" font-size="10.00">dasynq::v2::dprivate</text>
<text text-anchor="middle" x="210" y="-39.5" font-family="Helvetica,sans-Serif" font-size="10.00">::base_fd_watcher</text>
</a>
</g>
</g>
<!-- Node3 -->
<g id="Node000003" class="node">
<title>Node3</title>
<g id="a_Node000003"><a xlink:href="classdasynq_1_1v2_1_1dprivate_1_1base__bidi__fd__watcher.html" target="_top" xlink:title=" ">
<polygon fill="white" stroke="#666666" points="443,-87.5 315,-87.5 315,-57.5 443,-57.5 443,-87.5"/>
<text text-anchor="start" x="323" y="-75.5" font-family="Helvetica,sans-Serif" font-size="10.00">dasynq::v2::dprivate</text>
<text text-anchor="middle" x="379" y="-64.5" font-family="Helvetica,sans-Serif" font-size="10.00">::base_bidi_fd_watcher</text>
</a>
</g>
</g>
<!-- Node1&#45;&gt;Node3 -->
<g id="edge2_Node000001_Node000003" class="edge">
<title>Node1&#45;&gt;Node3</title>
<g id="a_edge2_Node000001_Node000003"><a xlink:title=" ">
<path fill="none" stroke="#63b8ff" d="M278.09,-57.54C290.26,-59.36 302.91,-61.26 314.95,-63.06"/>
<polygon fill="#63b8ff" stroke="#63b8ff" points="278.41,-54.05 268,-56.03 277.38,-60.98 278.41,-54.05"/>
</a>
</g>
</g>
<!-- Node6 -->
<g id="Node000006" class="node">
<title>Node6</title>
<g id="a_Node000006"><a xlink:href="classdasynq_1_1v2_1_1dprivate_1_1fd__watcher.html" target="_top" xlink:title=" ">
<polygon fill="white" stroke="#666666" points="454,-38.5 304,-38.5 304,-8.5 454,-8.5 454,-38.5"/>
<text text-anchor="start" x="312" y="-26.5" font-family="Helvetica,sans-Serif" font-size="10.00">dasynq::v2::dprivate</text>
<text text-anchor="middle" x="379" y="-15.5" font-family="Helvetica,sans-Serif" font-size="10.00">::fd_watcher&lt; EventLoop &gt;</text>
</a>
</g>
</g>
<!-- Node1&#45;&gt;Node6 -->
<g id="edge5_Node000001_Node000006" class="edge">
<title>Node1&#45;&gt;Node6</title>
<g id="a_edge5_Node000001_Node000006"><a xlink:title=" ">
<path fill="none" stroke="#8b1a1a" d="M278.17,-37.85C286.61,-36.63 295.29,-35.39 303.83,-34.16"/>
<polygon fill="#8b1a1a" stroke="#8b1a1a" points="277.41,-34.42 268,-39.31 278.4,-41.35 277.41,-34.42"/>
</a>
</g>
</g>
<!-- Node2 -->
<g id="Node000002" class="node">
<title>Node2</title>
<g id="a_Node000002"><a xlink:href="classdasynq_1_1v2_1_1dprivate_1_1base__watcher.html" target="_top" xlink:title=" ">
<polygon fill="white" stroke="#666666" points="116,-62.5 0,-62.5 0,-32.5 116,-32.5 116,-62.5"/>
<text text-anchor="start" x="8" y="-50.5" font-family="Helvetica,sans-Serif" font-size="10.00">dasynq::v2::dprivate</text>
<text text-anchor="middle" x="58" y="-39.5" font-family="Helvetica,sans-Serif" font-size="10.00">::base_watcher</text>
</a>
</g>
</g>
<!-- Node2&#45;&gt;Node1 -->
<g id="edge1_Node000001_Node000002" class="edge">
<title>Node2&#45;&gt;Node1</title>
<g id="a_edge1_Node000001_Node000002"><a xlink:title=" ">
<path fill="none" stroke="#63b8ff" d="M126.31,-47.5C134.73,-47.5 143.28,-47.5 151.53,-47.5"/>
<polygon fill="#63b8ff" stroke="#63b8ff" points="126.14,-44 116.14,-47.5 126.14,-51 126.14,-44"/>
</a>
</g>
</g>
<!-- Node4 -->
<g id="Node000004" class="node">
<title>Node4</title>
<g id="a_Node000004"><a xlink:href="classdasynq_1_1v2_1_1dprivate_1_1bidi__fd__watcher.html" target="_top" xlink:title=" ">
<polygon fill="white" stroke="#666666" points="663,-89.5 490,-89.5 490,-59.5 663,-59.5 663,-89.5"/>
<text text-anchor="start" x="498" y="-77.5" font-family="Helvetica,sans-Serif" font-size="10.00">dasynq::v2::dprivate</text>
<text text-anchor="middle" x="576.5" y="-66.5" font-family="Helvetica,sans-Serif" font-size="10.00">::bidi_fd_watcher&lt; EventLoop &gt;</text>
</a>
</g>
</g>
<!-- Node3&#45;&gt;Node4 -->
<g id="edge3_Node000003_Node000004" class="edge">
<title>Node3&#45;&gt;Node4</title>
<g id="a_edge3_Node000003_Node000004"><a xlink:title=" ">
<path fill="none" stroke="#8b1a1a" d="M453.46,-73.25C465.29,-73.37 477.64,-73.5 489.74,-73.62"/>
<polygon fill="#8b1a1a" stroke="#8b1a1a" points="453.24,-69.75 443.2,-73.15 453.17,-76.75 453.24,-69.75"/>
</a>
</g>
</g>
<!-- Node5 -->
<g id="Node000005" class="node">
<title>Node5</title>
<g id="a_Node000005"><a xlink:href="classdasynq_1_1v2_1_1dprivate_1_1bidi__fd__watcher__impl.html" target="_top" xlink:title=" ">
<polygon fill="white" stroke="#666666" points="833,-95 699,-95 699,-54 833,-54 833,-95"/>
<text text-anchor="start" x="707" y="-83" font-family="Helvetica,sans-Serif" font-size="10.00">dasynq::v2::dprivate</text>
<text text-anchor="start" x="707" y="-72" font-family="Helvetica,sans-Serif" font-size="10.00">::bidi_fd_watcher_impl</text>
<text text-anchor="middle" x="766" y="-61" font-family="Helvetica,sans-Serif" font-size="10.00">&lt; EventLoop, Derived &gt;</text>
</a>
</g>
</g>
<!-- Node4&#45;&gt;Node5 -->
<g id="edge4_Node000004_Node000005" class="edge">
<title>Node4&#45;&gt;Node5</title>
<g id="a_edge4_Node000004_Node000005"><a xlink:title=" ">
<path fill="none" stroke="#63b8ff" d="M673.23,-74.5C681.94,-74.5 690.62,-74.5 698.98,-74.5"/>
<polygon fill="#63b8ff" stroke="#63b8ff" points="673.02,-71 663.02,-74.5 673.02,-78 673.02,-71"/>
</a>
</g>
</g>
<!-- Node7 -->
<g id="Node000007" class="node">
<title>Node7</title>
<g id="a_Node000007"><a xlink:href="classdasynq_1_1v2_1_1dprivate_1_1fd__watcher__impl.html" target="_top" xlink:title=" ">
<polygon fill="white" stroke="#666666" points="661,-41 492,-41 492,0 661,0 661,-41"/>
<text text-anchor="start" x="500" y="-29" font-family="Helvetica,sans-Serif" font-size="10.00">dasynq::v2::dprivate</text>
<text text-anchor="start" x="500" y="-18" font-family="Helvetica,sans-Serif" font-size="10.00">::fd_watcher_impl&lt; EventLoop,</text>
<text text-anchor="middle" x="576.5" y="-7" font-family="Helvetica,sans-Serif" font-size="10.00"> Derived &gt;</text>
</a>
</g>
</g>
<!-- Node6&#45;&gt;Node7 -->
<g id="edge6_Node000006_Node000007" class="edge">
<title>Node6&#45;&gt;Node7</title>
<g id="a_edge6_Node000006_Node000007"><a xlink:title=" ">
<path fill="none" stroke="#63b8ff" d="M464.39,-22.2C473.5,-22.07 482.77,-21.92 491.88,-21.78"/>
<polygon fill="#63b8ff" stroke="#63b8ff" points="464.13,-18.71 454.19,-22.36 464.24,-25.71 464.13,-18.71"/>
</a>
</g>
</g>
</g>
</svg>
