<?xml version="1.0" encoding="UTF-8" standalone="no"?>
<!DOCTYPE svg PUBLIC "-//W3C//DTD SVG 1.1//EN"
 "http://www.w3.org/Graphics/SVG/1.1/DTD/svg11.dtd">
<!-- Generated by graphviz version 2.43.0 (0)
 -->
<!-- Title: dasynq::v2::dprivate::child_proc_watcher_impl&lt; EventLoop, Derived &gt; Pages: 1 -->
<svg width="928pt" height="82pt"
 viewBox="0.00 0.00 928.00 81.50" xmlns="http://www.w3.org/2000/svg" xmlns:xlink="http://www.w3.org/1999/xlink">
<g id="graph0" class="graph" transform="scale(1 1) rotate(0) translate(4 77.5)">
<title>dasynq::v2::dprivate::child_proc_watcher_impl&lt; EventLoop, Derived &gt;</title>
<!-- Node1 -->
<g id="Node000001" class="node">
<title>Node1</title>
<g id="a_Node000001"><a xlink:title=" ">
<polygon fill="#999999" stroke="#666666" points="920,-68 759,-68 759,-27 920,-27 920,-68"/>
<text text-anchor="start" x="767" y="-56" font-family="Helvetica,sans-Serif" font-size="10.00">dasynq::v2::dprivate</text>
<text text-anchor="start" x="767" y="-45" font-family="Helvetica,sans-Serif" font-size="10.00">::child_proc_watcher</text>
<text text-anchor="middle" x="839.5" y="-34" font-family="Helvetica,sans-Serif" font-size="10.00">_impl&lt; EventLoop, Derived &gt;</text>
</a>
</g>
</g>
<!-- Node2 -->
<g id="Node000002" class="node">
<title>Node2</title>
<g id="a_Node000002"><a xlink:href="classdasynq_1_1v2_1_1dprivate_1_1child__proc__watcher.html" target="_top" xlink:title=" ">
<polygon fill="white" stroke="#666666" points="722,-68 606,-68 606,-27 722,-27 722,-68"/>
<text text-anchor="start" x="614" y="-56" font-family="Helvetica,sans-Serif" font-size="10.00">dasynq::v2::dprivate</text>
<text text-anchor="start" x="614" y="-45" font-family="Helvetica,sans-Serif" font-size="10.00">::child_proc_watcher</text>
<text text-anchor="middle" x="664" y="-34" font-family="Helvetica,sans-Serif" font-size="10.00">&lt; EventLoop &gt;</text>
</a>
</g>
</g>
<!-- Node2&#45;&gt;Node1 -->
<g id="edge1_Node000001_Node000002" class="edge">
<title>Node2&#45;&gt;Node1</title>
<g id="a_edge1_Node000001_Node000002"><a xlink:title=" ">
<path fill="none" stroke="#63b8ff" d="M732.37,-47.5C741.09,-47.5 750.08,-47.5 758.97,-47.5"/>
<polygon fill="#63b8ff" stroke="#63b8ff" points="732.29,-44 722.29,-47.5 732.29,-51 732.29,-44"/>
</a>
</g>
</g>
<!-- Node3 -->
<g id="Node000003" class="node">
<title>Node3</title>
<g id="a_Node000003"><a xlink:href="classdasynq_1_1v2_1_1dprivate_1_1base__child__watcher.html" target="_top" xlink:title=" ">
<polygon fill="white" stroke="#666666" points="569,-73.5 432,-73.5 432,-21.5 569,-21.5 569,-73.5"/>
<text text-anchor="start" x="440" y="-61.5" font-family="Helvetica,sans-Serif" font-size="10.00">dasynq::v2::dprivate</text>
<text text-anchor="start" x="440" y="-50.5" font-family="Helvetica,sans-Serif" font-size="10.00">::base_child_watcher</text>
<text text-anchor="start" x="440" y="-39.5" font-family="Helvetica,sans-Serif" font-size="10.00">&lt; EventLoop::loop_traits</text>
<text text-anchor="middle" x="500.5" y="-28.5" font-family="Helvetica,sans-Serif" font-size="10.00">_t::proc_status_t &gt;</text>
</a>
</g>
</g>
<!-- Node3&#45;&gt;Node2 -->
<g id="edge2_Node000002_Node000003" class="edge">
<title>Node3&#45;&gt;Node2</title>
<g id="a_edge2_Node000002_Node000003"><a xlink:title=" ">
<path fill="none" stroke="#8b1a1a" d="M579.19,-47.5C588.21,-47.5 597.28,-47.5 605.95,-47.5"/>
<polygon fill="#8b1a1a" stroke="#8b1a1a" points="579.05,-44 569.05,-47.5 579.05,-51 579.05,-44"/>
</a>
</g>
</g>
<!-- Node4 -->
<g id="Node000004" class="node">
<title>Node4</title>
<g id="a_Node000004"><a xlink:href="classdasynq_1_1v2_1_1dprivate_1_1base__watcher.html" target="_top" xlink:title=" ">
<polygon fill="white" stroke="#666666" points="116,-59.5 0,-59.5 0,-29.5 116,-29.5 116,-59.5"/>
<text text-anchor="start" x="8" y="-47.5" font-family="Helvetica,sans-Serif" font-size="10.00">dasynq::v2::dprivate</text>
<text text-anchor="middle" x="58" y="-36.5" font-family="Helvetica,sans-Serif" font-size="10.00">::base_watcher</text>
</a>
</g>
</g>
<!-- Node4&#45;&gt;Node3 -->
<g id="edge3_Node000003_Node000004" class="edge">
<title>Node4&#45;&gt;Node3</title>
<g id="a_edge3_Node000003_Node000004"><a xlink:title=" ">
<path fill="none" stroke="#63b8ff" d="M126.41,-49.7C197.84,-54.48 313.9,-60.17 414,-55.5 419.81,-55.23 425.83,-54.85 431.87,-54.42"/>
<polygon fill="#63b8ff" stroke="#63b8ff" points="126.42,-46.19 116.2,-49 125.94,-53.18 126.42,-46.19"/>
</a>
</g>
</g>
<!-- Node5 -->
<g id="Node000005" class="node">
<title>Node5</title>
<g id="a_Node000005"><a xlink:href="classdasynq_1_1v2_1_1dprivate_1_1base__child__watcher.html" target="_top" xlink:title=" ">
<polygon fill="white" stroke="#666666" points="272,-41 153,-41 153,0 272,0 272,-41"/>
<text text-anchor="start" x="161" y="-29" font-family="Helvetica,sans-Serif" font-size="10.00">dasynq::v2::dprivate</text>
<text text-anchor="start" x="161" y="-18" font-family="Helvetica,sans-Serif" font-size="10.00">::base_child_watcher</text>
<text text-anchor="middle" x="212.5" y="-7" font-family="Helvetica,sans-Serif" font-size="10.00">&lt; ChildData &gt;</text>
</a>
</g>
</g>
<!-- Node4&#45;&gt;Node5 -->
<g id="edge5_Node000005_Node000004" class="edge">
<title>Node4&#45;&gt;Node5</title>
<g id="a_edge5_Node000005_Node000004"><a xlink:title=" ">
<path fill="none" stroke="#63b8ff" d="M126.19,-33.93C135.1,-32.52 144.19,-31.09 152.94,-29.72"/>
<polygon fill="#63b8ff" stroke="#63b8ff" points="125.55,-30.48 116.22,-35.5 126.64,-37.4 125.55,-30.48"/>
</a>
</g>
</g>
<!-- Node5&#45;&gt;Node3 -->
<g id="edge4_Node000003_Node000005" class="edge">
<title>Node5&#45;&gt;Node3</title>
<g id="a_edge4_Node000003_Node000005"><a xlink:title=" ">
<path fill="none" stroke="orange" stroke-dasharray="5,2" d="M282.54,-23.31C321.26,-25.31 370.41,-28.53 414,-33.5 419.83,-34.16 425.87,-34.95 431.91,-35.81"/>
<polygon fill="orange" stroke="orange" points="282.58,-19.81 272.42,-22.81 282.23,-26.8 282.58,-19.81"/>
</a>
</g>
<text text-anchor="start" x="290" y="-47.5" font-family="Helvetica,sans-Serif" font-size="10.00" fill="grey"> &lt; EventLoop::loop_traits</text>
<text text-anchor="middle" x="352" y="-36.5" font-family="Helvetica,sans-Serif" font-size="10.00" fill="grey">_t::proc_status_t &gt;</text>
</g>
</g>
</svg>
