<?xml version="1.0" encoding="UTF-8" standalone="no"?>
<!DOCTYPE svg PUBLIC "-//W3C//DTD SVG 1.1//EN"
 "http://www.w3.org/Graphics/SVG/1.1/DTD/svg11.dtd">
<!-- Generated by graphviz version 2.43.0 (0)
 -->
<!-- Title: slist&lt; T, E &gt; Pages: 1 -->
<svg width="376pt" height="86pt"
 viewBox="0.00 0.00 376.00 86.00" xmlns="http://www.w3.org/2000/svg" xmlns:xlink="http://www.w3.org/1999/xlink">
<g id="graph0" class="graph" transform="scale(1 1) rotate(0) translate(4 82)">
<title>slist&lt; T, E &gt;</title>
<!-- Node1 -->
<g id="Node000001" class="node">
<title>Node1</title>
<g id="a_Node000001"><a xlink:title=" ">
<polygon fill="#999999" stroke="#666666" points="77,-48.5 0,-48.5 0,-29.5 77,-29.5 77,-48.5"/>
<text text-anchor="middle" x="38.5" y="-36.5" font-family="Helvetica,sans-Serif" font-size="10.00">slist&lt; T, E &gt;</text>
</a>
</g>
</g>
<!-- Node2 -->
<g id="Node000002" class="node">
<title>Node2</title>
<g id="a_Node000002"><a xlink:href="classslist.html" target="_top" xlink:title=" ">
<polygon fill="white" stroke="#666666" points="368,-78 240,-78 240,-48 368,-48 368,-78"/>
<text text-anchor="start" x="248" y="-66" font-family="Helvetica,sans-Serif" font-size="10.00">slist&lt; service_record,</text>
<text text-anchor="middle" x="304" y="-55" font-family="Helvetica,sans-Serif" font-size="10.00"> extract_prop_queue &gt;</text>
</a>
</g>
</g>
<!-- Node1&#45;&gt;Node2 -->
<g id="edge1_Node000001_Node000002" class="edge">
<title>Node1&#45;&gt;Node2</title>
<g id="a_edge1_Node000001_Node000002"><a xlink:title=" ">
<path fill="none" stroke="orange" stroke-dasharray="5,2" d="M87.4,-43.36C130.14,-47.26 193.04,-52.98 239.88,-57.25"/>
<polygon fill="orange" stroke="orange" points="87.53,-39.86 77.25,-42.44 86.89,-46.83 87.53,-39.86"/>
</a>
</g>
<text text-anchor="start" x="95" y="-69" font-family="Helvetica,sans-Serif" font-size="10.00" fill="grey"> &lt; service_record, extract</text>
<text text-anchor="middle" x="158.5" y="-58" font-family="Helvetica,sans-Serif" font-size="10.00" fill="grey">_prop_queue &gt;</text>
</g>
<!-- Node3 -->
<g id="Node000003" class="node">
<title>Node3</title>
<g id="a_Node000003"><a xlink:href="classslist.html" target="_top" xlink:title=" ">
<polygon fill="white" stroke="#666666" points="367.5,-30 240.5,-30 240.5,0 367.5,0 367.5,-30"/>
<text text-anchor="start" x="248.5" y="-18" font-family="Helvetica,sans-Serif" font-size="10.00">slist&lt; service_record,</text>
<text text-anchor="middle" x="304" y="-7" font-family="Helvetica,sans-Serif" font-size="10.00"> extract_stop_queue &gt;</text>
</a>
</g>
</g>
<!-- Node1&#45;&gt;Node3 -->
<g id="edge2_Node000001_Node000003" class="edge">
<title>Node1&#45;&gt;Node3</title>
<g id="a_edge2_Node000001_Node000003"><a xlink:title=" ">
<path fill="none" stroke="orange" stroke-dasharray="5,2" d="M69.1,-25.63C77.32,-22.52 86.37,-19.64 95,-18 143.07,-8.85 198.53,-8.55 240.08,-10.29"/>
<polygon fill="orange" stroke="orange" points="67.53,-22.49 59.57,-29.47 70.15,-28.99 67.53,-22.49"/>
</a>
</g>
<text text-anchor="start" x="95" y="-32" font-family="Helvetica,sans-Serif" font-size="10.00" fill="grey"> &lt; service_record, extract</text>
<text text-anchor="middle" x="158.5" y="-21" font-family="Helvetica,sans-Serif" font-size="10.00" fill="grey">_stop_queue &gt;</text>
</g>
</g>
</svg>
