<?xml version="1.0" encoding="UTF-8" standalone="no"?>
<!DOCTYPE svg PUBLIC "-//W3C//DTD SVG 1.1//EN"
 "http://www.w3.org/Graphics/SVG/1.1/DTD/svg11.dtd">
<!-- Generated by graphviz version 2.43.0 (0)
 -->
<!-- Title: dasynq::select_events&lt; Base &gt; Pages: 1 -->
<svg width="223pt" height="238pt"
 viewBox="0.00 0.00 222.50 238.00" xmlns="http://www.w3.org/2000/svg" xmlns:xlink="http://www.w3.org/1999/xlink">
<g id="graph0" class="graph" transform="scale(1 1) rotate(0) translate(4 234)">
<title>dasynq::select_events&lt; Base &gt;</title>
<!-- Node1 -->
<g id="Node000001" class="node">
<title>Node1</title>
<g id="a_Node000001"><a xlink:title=" ">
<polygon fill="#999999" stroke="#666666" points="125,-30 0,-30 0,0 125,0 125,-30"/>
<text text-anchor="start" x="8" y="-18" font-family="Helvetica,sans-Serif" font-size="10.00">dasynq::select_events</text>
<text text-anchor="middle" x="62.5" y="-7" font-family="Helvetica,sans-Serif" font-size="10.00">&lt; Base &gt;</text>
</a>
</g>
</g>
<!-- Node2 -->
<g id="Node000002" class="node">
<title>Node2</title>
<g id="a_Node000002"><a xlink:href="classdasynq_1_1signal__events.html" target="_top" xlink:title=" ">
<polygon fill="white" stroke="#666666" points="125,-97 0,-97 0,-67 125,-67 125,-97"/>
<text text-anchor="start" x="8" y="-85" font-family="Helvetica,sans-Serif" font-size="10.00">dasynq::signal_events</text>
<text text-anchor="middle" x="62.5" y="-74" font-family="Helvetica,sans-Serif" font-size="10.00">&lt; Base, true &gt;</text>
</a>
</g>
</g>
<!-- Node2&#45;&gt;Node1 -->
<g id="edge1_Node000001_Node000002" class="edge">
<title>Node2&#45;&gt;Node1</title>
<g id="a_edge1_Node000001_Node000002"><a xlink:title=" ">
<path fill="none" stroke="#63b8ff" d="M62.5,-56.61C62.5,-47.65 62.5,-37.82 62.5,-30.08"/>
<polygon fill="#63b8ff" stroke="#63b8ff" points="59,-56.9 62.5,-66.9 66,-56.9 59,-56.9"/>
</a>
</g>
</g>
<!-- Node3 -->
<g id="Node000003" class="node">
<title>Node3</title>
<g id="a_Node000003"><a xlink:title=" ">
<polygon fill="white" stroke="#666666" points="79,-230 38,-230 38,-211 79,-211 79,-230"/>
<text text-anchor="middle" x="58.5" y="-218" font-family="Helvetica,sans-Serif" font-size="10.00">Base</text>
</a>
</g>
</g>
<!-- Node3&#45;&gt;Node2 -->
<g id="edge2_Node000002_Node000003" class="edge">
<title>Node3&#45;&gt;Node2</title>
<g id="a_edge2_Node000002_Node000003"><a xlink:title=" ">
<path fill="none" stroke="#63b8ff" d="M59.05,-200.65C59.87,-172.91 61.37,-121.7 62.09,-97.02"/>
<polygon fill="#63b8ff" stroke="#63b8ff" points="55.54,-200.86 58.75,-210.96 62.54,-201.07 55.54,-200.86"/>
</a>
</g>
</g>
<!-- Node4 -->
<g id="Node000004" class="node">
<title>Node4</title>
<g id="a_Node000004"><a xlink:href="classdasynq_1_1signal__events.html" target="_top" xlink:title=" ">
<polygon fill="white" stroke="#666666" points="214.5,-174 74.5,-174 74.5,-144 214.5,-144 214.5,-174"/>
<text text-anchor="start" x="82.5" y="-162" font-family="Helvetica,sans-Serif" font-size="10.00">dasynq::signal_events</text>
<text text-anchor="middle" x="144.5" y="-151" font-family="Helvetica,sans-Serif" font-size="10.00">&lt; Base, mask_enables &gt;</text>
</a>
</g>
</g>
<!-- Node3&#45;&gt;Node4 -->
<g id="edge4_Node000004_Node000003" class="edge">
<title>Node3&#45;&gt;Node4</title>
<g id="a_edge4_Node000004_Node000003"><a xlink:title=" ">
<path fill="none" stroke="#63b8ff" d="M79.11,-205.24C92.78,-195.78 110.63,-183.43 124.23,-174.02"/>
<polygon fill="#63b8ff" stroke="#63b8ff" points="77.05,-202.41 70.82,-210.98 81.04,-208.16 77.05,-202.41"/>
</a>
</g>
</g>
<!-- Node4&#45;&gt;Node2 -->
<g id="edge3_Node000002_Node000004" class="edge">
<title>Node4&#45;&gt;Node2</title>
<g id="a_edge3_Node000002_Node000004"><a xlink:title=" ">
<path fill="none" stroke="orange" stroke-dasharray="5,2" d="M121.34,-136.82C107.42,-124.08 90.09,-108.24 77.85,-97.04"/>
<polygon fill="orange" stroke="orange" points="119.34,-139.73 129.08,-143.89 124.06,-134.56 119.34,-139.73"/>
</a>
</g>
<text text-anchor="middle" x="145.5" y="-118" font-family="Helvetica,sans-Serif" font-size="10.00" fill="grey"> &lt; Base, true &gt;</text>
</g>
</g>
</svg>
