<?xml version="1.0" encoding="UTF-8" standalone="no"?>
<!DOCTYPE svg PUBLIC "-//W3C//DTD SVG 1.1//EN"
 "http://www.w3.org/Graphics/SVG/1.1/DTD/svg11.dtd">
<!-- Generated by graphviz version 2.43.0 (0)
 -->
<!-- Title: dasynq::timer_base&lt; Base &gt; Pages: 1 -->
<svg width="371pt" height="157pt"
 viewBox="0.00 0.00 371.00 156.50" xmlns="http://www.w3.org/2000/svg" xmlns:xlink="http://www.w3.org/1999/xlink">
<g id="graph0" class="graph" transform="scale(1 1) rotate(0) translate(4 152.5)">
<title>dasynq::timer_base&lt; Base &gt;</title>
<!-- Node1 -->
<g id="Node000001" class="node">
<title>Node1</title>
<g id="a_Node000001"><a xlink:title=" ">
<polygon fill="#999999" stroke="#666666" points="190,-84 77,-84 77,-54 190,-54 190,-84"/>
<text text-anchor="start" x="85" y="-72" font-family="Helvetica,sans-Serif" font-size="10.00">dasynq::timer_base</text>
<text text-anchor="middle" x="133.5" y="-61" font-family="Helvetica,sans-Serif" font-size="10.00">&lt; Base &gt;</text>
</a>
</g>
</g>
<!-- Node3 -->
<g id="Node000003" class="node">
<title>Node3</title>
<g id="a_Node000003"><a xlink:href="classdasynq_1_1itimer__events.html" target="_top" xlink:title=" ">
<polygon fill="white" stroke="#666666" points="358.5,-148.5 230.5,-148.5 230.5,-107.5 358.5,-107.5 358.5,-148.5"/>
<text text-anchor="start" x="238.5" y="-136.5" font-family="Helvetica,sans-Serif" font-size="10.00">dasynq::itimer_events</text>
<text text-anchor="start" x="238.5" y="-125.5" font-family="Helvetica,sans-Serif" font-size="10.00">&lt; Base, provide_mono</text>
<text text-anchor="middle" x="294.5" y="-114.5" font-family="Helvetica,sans-Serif" font-size="10.00">_timer &gt;</text>
</a>
</g>
</g>
<!-- Node1&#45;&gt;Node3 -->
<g id="edge2_Node000001_Node000003" class="edge">
<title>Node1&#45;&gt;Node3</title>
<g id="a_edge2_Node000001_Node000003"><a xlink:title=" ">
<path fill="none" stroke="#63b8ff" d="M184.75,-87.65C201.7,-93.94 220.71,-100.99 238.04,-107.42"/>
<polygon fill="#63b8ff" stroke="#63b8ff" points="185.63,-84.24 175.03,-84.04 183.19,-90.8 185.63,-84.24"/>
</a>
</g>
</g>
<!-- Node4 -->
<g id="Node000004" class="node">
<title>Node4</title>
<g id="a_Node000004"><a xlink:href="classdasynq_1_1posix__timer__events.html" target="_top" xlink:title=" ">
<polygon fill="white" stroke="#666666" points="361,-89.5 228,-89.5 228,-48.5 361,-48.5 361,-89.5"/>
<text text-anchor="start" x="236" y="-77.5" font-family="Helvetica,sans-Serif" font-size="10.00">dasynq::posix_timer</text>
<text text-anchor="start" x="236" y="-66.5" font-family="Helvetica,sans-Serif" font-size="10.00">_events&lt; Base, provide</text>
<text text-anchor="middle" x="294.5" y="-55.5" font-family="Helvetica,sans-Serif" font-size="10.00">_mono_timer &gt;</text>
</a>
</g>
</g>
<!-- Node1&#45;&gt;Node4 -->
<g id="edge3_Node000001_Node000004" class="edge">
<title>Node1&#45;&gt;Node4</title>
<g id="a_edge3_Node000001_Node000004"><a xlink:title=" ">
<path fill="none" stroke="#63b8ff" d="M200.26,-69C209.37,-69 218.72,-69 227.82,-69"/>
<polygon fill="#63b8ff" stroke="#63b8ff" points="200.11,-65.5 190.11,-69 200.11,-72.5 200.11,-65.5"/>
</a>
</g>
</g>
<!-- Node5 -->
<g id="Node000005" class="node">
<title>Node5</title>
<g id="a_Node000005"><a xlink:href="classdasynq_1_1timer__fd__events.html" target="_top" xlink:title=" ">
<polygon fill="white" stroke="#666666" points="363,-30 226,-30 226,0 363,0 363,-30"/>
<text text-anchor="start" x="234" y="-18" font-family="Helvetica,sans-Serif" font-size="10.00">dasynq::timer_fd_events</text>
<text text-anchor="middle" x="294.5" y="-7" font-family="Helvetica,sans-Serif" font-size="10.00">&lt; Base &gt;</text>
</a>
</g>
</g>
<!-- Node1&#45;&gt;Node5 -->
<g id="edge4_Node000001_Node000005" class="edge">
<title>Node1&#45;&gt;Node5</title>
<g id="a_edge4_Node000001_Node000005"><a xlink:title=" ">
<path fill="none" stroke="#63b8ff" d="M188.3,-50.73C208.1,-44 230.29,-36.47 249.17,-30.05"/>
<polygon fill="#63b8ff" stroke="#63b8ff" points="187.13,-47.43 178.79,-53.96 189.38,-54.06 187.13,-47.43"/>
</a>
</g>
</g>
<!-- Node2 -->
<g id="Node000002" class="node">
<title>Node2</title>
<g id="a_Node000002"><a xlink:title=" ">
<polygon fill="white" stroke="#666666" points="41,-78.5 0,-78.5 0,-59.5 41,-59.5 41,-78.5"/>
<text text-anchor="middle" x="20.5" y="-66.5" font-family="Helvetica,sans-Serif" font-size="10.00">Base</text>
</a>
</g>
</g>
<!-- Node2&#45;&gt;Node1 -->
<g id="edge1_Node000001_Node000002" class="edge">
<title>Node2&#45;&gt;Node1</title>
<g id="a_edge1_Node000001_Node000002"><a xlink:title=" ">
<path fill="none" stroke="#63b8ff" d="M51.27,-69C59.21,-69 68.04,-69 76.89,-69"/>
<polygon fill="#63b8ff" stroke="#63b8ff" points="51.09,-65.5 41.09,-69 51.09,-72.5 51.09,-65.5"/>
</a>
</g>
</g>
</g>
</svg>
