<?xml version="1.0" encoding="UTF-8" standalone="no"?>
<!DOCTYPE svg PUBLIC "-//W3C//DTD SVG 1.1//EN"
 "http://www.w3.org/Graphics/SVG/1.1/DTD/svg11.dtd">
<!-- Generated by graphviz version 2.43.0 (0)
 -->
<!-- Title: dinit_protocol_error Pages: 1 -->
<svg width="447pt" height="82pt"
 viewBox="0.00 0.00 446.50 82.00" xmlns="http://www.w3.org/2000/svg" xmlns:xlink="http://www.w3.org/1999/xlink">
<g id="graph0" class="graph" transform="scale(1 1) rotate(0) translate(4 78)">
<title>dinit_protocol_error</title>
<!-- Node1 -->
<g id="Node000001" class="node">
<title>Node1</title>
<g id="a_Node000001"><a xlink:title=" ">
<polygon fill="#999999" stroke="#666666" points="277,-74 165,-74 165,-55 277,-55 277,-74"/>
<text text-anchor="middle" x="221" y="-62" font-family="Helvetica,sans-Serif" font-size="10.00">dinit_protocol_error</text>
</a>
</g>
</g>
<!-- Node2 -->
<g id="Node000002" class="node">
<title>Node2</title>
<g id="a_Node000002"><a xlink:href="classcp__old__client__exception.html" target="_top" xlink:title=" ">
<polygon fill="white" stroke="#666666" points="134,-19 0,-19 0,0 134,0 134,-19"/>
<text text-anchor="middle" x="67" y="-7" font-family="Helvetica,sans-Serif" font-size="10.00">cp_old_client_exception</text>
</a>
</g>
</g>
<!-- Node1&#45;&gt;Node2 -->
<g id="edge1_Node000001_Node000002" class="edge">
<title>Node1&#45;&gt;Node2</title>
<g id="a_edge1_Node000001_Node000002"><a xlink:title=" ">
<path fill="none" stroke="#63b8ff" d="M186.62,-51.67C157.91,-41.79 117.64,-27.93 91.94,-19.08"/>
<polygon fill="#63b8ff" stroke="#63b8ff" points="185.66,-55.04 196.26,-54.98 187.94,-48.42 185.66,-55.04"/>
</a>
</g>
</g>
<!-- Node3 -->
<g id="Node000003" class="node">
<title>Node3</title>
<g id="a_Node000003"><a xlink:href="classcp__old__server__exception.html" target="_top" xlink:title=" ">
<polygon fill="white" stroke="#666666" points="289.5,-19 152.5,-19 152.5,0 289.5,0 289.5,-19"/>
<text text-anchor="middle" x="221" y="-7" font-family="Helvetica,sans-Serif" font-size="10.00">cp_old_server_exception</text>
</a>
</g>
</g>
<!-- Node1&#45;&gt;Node3 -->
<g id="edge2_Node000001_Node000003" class="edge">
<title>Node1&#45;&gt;Node3</title>
<g id="a_edge2_Node000001_Node000003"><a xlink:title=" ">
<path fill="none" stroke="#63b8ff" d="M221,-44.66C221,-35.93 221,-25.99 221,-19.09"/>
<polygon fill="#63b8ff" stroke="#63b8ff" points="217.5,-44.75 221,-54.75 224.5,-44.75 217.5,-44.75"/>
</a>
</g>
</g>
<!-- Node4 -->
<g id="Node000004" class="node">
<title>Node4</title>
<g id="a_Node000004"><a xlink:href="classdinit__unknown__sd__conf.html" target="_top" xlink:title=" ">
<polygon fill="white" stroke="#666666" points="438.5,-19 307.5,-19 307.5,0 438.5,0 438.5,-19"/>
<text text-anchor="middle" x="373" y="-7" font-family="Helvetica,sans-Serif" font-size="10.00">dinit_unknown_sd_conf</text>
</a>
</g>
</g>
<!-- Node1&#45;&gt;Node4 -->
<g id="edge3_Node000001_Node000004" class="edge">
<title>Node1&#45;&gt;Node4</title>
<g id="a_edge3_Node000001_Node000004"><a xlink:title=" ">
<path fill="none" stroke="#63b8ff" d="M254.93,-51.67C283.27,-41.79 323.02,-27.93 348.39,-19.08"/>
<polygon fill="#63b8ff" stroke="#63b8ff" points="253.71,-48.39 245.42,-54.98 256.02,-55 253.71,-48.39"/>
</a>
</g>
</g>
</g>
</svg>
