<?xml version="1.0" encoding="UTF-8" standalone="no"?>
<!DOCTYPE svg PUBLIC "-//W3C//DTD SVG 1.1//EN"
 "http://www.w3.org/Graphics/SVG/1.1/DTD/svg11.dtd">
<!-- Generated by graphviz version 2.43.0 (0)
 -->
<!-- Title: dasynq::signal_events&lt; Base, mask_enables &gt; Pages: 1 -->
<!--zoomable 134 -->

<svg id="main" version="1.1" xmlns="http://www.w3.org/2000/svg" xmlns:xlink="http://www.w3.org/1999/xlink" xml:space="preserve" onload="init(evt)">
<style type="text/css"><![CDATA[
.node, .edge {opacity: 0.7;}
.node.selected, .edge.selected {opacity: 1;}
.edge:hover path { stroke: red; }
.edge:hover polygon { stroke: red; fill: red; }
]]></style>

<defs>
  <circle id="rim" cx="0" cy="0" r="7"/>
  <circle id="rim2" cx="0" cy="0" r="3.5"/>
  <g id="zoomPlus">
    <use xlink:href="#rim" fill="#404040"><set attributeName="fill" to="#808080" begin="zoomplus.mouseover" end="zoomplus.mouseout"/></use>
    <path d="M-4,0h8M0,-4v8" fill="none" stroke="white" stroke-width="1.5" pointer-events="none"/>
  </g>
  <g id="zoomMin">
    <use xlink:href="#rim" fill="#404040"><set attributeName="fill" to="#808080" begin="zoomminus.mouseover" end="zoomminus.mouseout"/></use>
    <path d="M-4,0h8" fill="none" stroke="white" stroke-width="1.5" pointer-events="none"/>
  </g>
  <g id="arrowUp" transform="translate(30 24)">
    <use xlink:href="#rim"/>
    <path pointer-events="none" fill="none" stroke="white" stroke-width="1.5" d="M0,-3.0v7 M-2.5,-0.5L0,-3.0L2.5,-0.5"/>
  </g>
  <g id="arrowRight" transform="rotate(90) translate(36 -43)">
    <use xlink:href="#rim"/>
    <path pointer-events="none" fill="none" stroke="white" stroke-width="1.5" d="M0,-3.0v7 M-2.5,-0.5L0,-3.0L2.5,-0.5"/>
  </g>
  <g id="arrowDown" transform="rotate(180) translate(-30 -48)">
    <use xlink:href="#rim"/>
    <path pointer-events="none" fill="none" stroke="white" stroke-width="1.5" d="M0,-3.0v7 M-2.5,-0.5L0,-3.0L2.5,-0.5"/>
  </g>
  <g id="arrowLeft" transform="rotate(270) translate(-36 17)">
    <use xlink:href="#rim"/>
    <path pointer-events="none" fill="none" stroke="white" stroke-width="1.5" d="M0,-3.0v7 M-2.5,-0.5L0,-3.0L2.5,-0.5"/>
  </g>
  <g id="resetDef">
    <use xlink:href="#rim2" fill="#404040"><set attributeName="fill" to="#808080" begin="reset.mouseover" end="reset.mouseout"/></use>
  </g>
</defs>
<script type="application/ecmascript">
var viewWidth = 653;
var viewHeight = 134;
var sectionId = 'dynsection-0';
</script>
<script type="application/ecmascript" xlink:href="svg.min.js"/>
<svg id="graph" class="graph">
<g id="viewport">
<title>dasynq::signal_events&lt; Base, mask_enables &gt;</title>
<!-- Node1 -->
<g id="Node000001" class="node">
<title>Node1</title>
<g id="a_Node000001"><a xlink:title=" ">
<polygon fill="#999999" stroke="#666666" points="218,-102 78,-102 78,-72 218,-72 218,-102"/>
<text text-anchor="start" x="86" y="-90" font-family="Helvetica,sans-Serif" font-size="10.00">dasynq::signal_events</text>
<text text-anchor="middle" x="148" y="-79" font-family="Helvetica,sans-Serif" font-size="10.00">&lt; Base, mask_enables &gt;</text>
</a>
</g>
</g>
<!-- Node3 -->
<g id="Node000003" class="node">
<title>Node3</title>
<g id="a_Node000003"><a xlink:href="classdasynq_1_1signal__events.html" target="_top" xlink:title=" ">
<polygon fill="white" stroke="#666666" points="459,-126 334,-126 334,-96 459,-96 459,-126"/>
<text text-anchor="start" x="342" y="-114" font-family="Helvetica,sans-Serif" font-size="10.00">dasynq::signal_events</text>
<text text-anchor="middle" x="396.5" y="-103" font-family="Helvetica,sans-Serif" font-size="10.00">&lt; Base, false &gt;</text>
</a>
</g>
</g>
<!-- Node1&#45;&gt;Node3 -->
<g id="edge2_Node000001_Node000003" class="edge">
<title>Node1&#45;&gt;Node3</title>
<g id="a_edge2_Node000001_Node000003"><a xlink:title=" ">
<path fill="none" stroke="orange" stroke-dasharray="5,2" d="M228.28,-94.72C262.48,-98.05 301.88,-101.88 333.84,-105"/>
<polygon fill="orange" stroke="orange" points="228.61,-91.23 218.32,-93.75 227.93,-98.2 228.61,-91.23"/>
</a>
</g>
<text text-anchor="middle" x="276" y="-106" font-family="Helvetica,sans-Serif" font-size="10.00" fill="grey"> &lt; Base, false &gt;</text>
</g>
<!-- Node5 -->
<g id="Node000005" class="node">
<title>Node5</title>
<g id="a_Node000005"><a xlink:href="classdasynq_1_1signal__events.html" target="_top" xlink:title=" ">
<polygon fill="white" stroke="#666666" points="459,-78 334,-78 334,-48 459,-48 459,-78"/>
<text text-anchor="start" x="342" y="-66" font-family="Helvetica,sans-Serif" font-size="10.00">dasynq::signal_events</text>
<text text-anchor="middle" x="396.5" y="-55" font-family="Helvetica,sans-Serif" font-size="10.00">&lt; Base, true &gt;</text>
</a>
</g>
</g>
<!-- Node1&#45;&gt;Node5 -->
<g id="edge4_Node000001_Node000005" class="edge">
<title>Node1&#45;&gt;Node5</title>
<g id="a_edge4_Node000001_Node000005"><a xlink:title=" ">
<path fill="none" stroke="orange" stroke-dasharray="5,2" d="M228.28,-79.28C262.48,-75.95 301.88,-72.12 333.84,-69"/>
<polygon fill="orange" stroke="orange" points="227.93,-75.8 218.32,-80.25 228.61,-82.77 227.93,-75.8"/>
</a>
</g>
<text text-anchor="middle" x="276" y="-81" font-family="Helvetica,sans-Serif" font-size="10.00" fill="grey"> &lt; Base, true &gt;</text>
</g>
<!-- Node2 -->
<g id="Node000002" class="node">
<title>Node2</title>
<g id="a_Node000002"><a xlink:title=" ">
<polygon fill="white" stroke="#666666" points="41,-96.5 0,-96.5 0,-77.5 41,-77.5 41,-96.5"/>
<text text-anchor="middle" x="20.5" y="-84.5" font-family="Helvetica,sans-Serif" font-size="10.00">Base</text>
</a>
</g>
</g>
<!-- Node2&#45;&gt;Node1 -->
<g id="edge1_Node000001_Node000002" class="edge">
<title>Node2&#45;&gt;Node1</title>
<g id="a_edge1_Node000001_Node000002"><a xlink:title=" ">
<path fill="none" stroke="#63b8ff" d="M51.11,-87C59.23,-87 68.38,-87 77.73,-87"/>
<polygon fill="#63b8ff" stroke="#63b8ff" points="51.11,-83.5 41.11,-87 51.11,-90.5 51.11,-83.5"/>
</a>
</g>
</g>
<!-- Node4 -->
<g id="Node000004" class="node">
<title>Node4</title>
<g id="a_Node000004"><a xlink:href="classdasynq_1_1pselect__events.html" target="_top" xlink:title=" ">
<polygon fill="white" stroke="#666666" points="636,-126 505,-126 505,-96 636,-96 636,-126"/>
<text text-anchor="start" x="513" y="-114" font-family="Helvetica,sans-Serif" font-size="10.00">dasynq::pselect_events</text>
<text text-anchor="middle" x="570.5" y="-103" font-family="Helvetica,sans-Serif" font-size="10.00">&lt; Base &gt;</text>
</a>
</g>
</g>
<!-- Node3&#45;&gt;Node4 -->
<g id="edge3_Node000003_Node000004" class="edge">
<title>Node3&#45;&gt;Node4</title>
<g id="a_edge3_Node000003_Node000004"><a xlink:title=" ">
<path fill="none" stroke="#63b8ff" d="M469.34,-111C481.11,-111 493.25,-111 504.84,-111"/>
<polygon fill="#63b8ff" stroke="#63b8ff" points="469.11,-107.5 459.11,-111 469.11,-114.5 469.11,-107.5"/>
</a>
</g>
</g>
<!-- Node6 -->
<g id="Node000006" class="node">
<title>Node6</title>
<g id="a_Node000006"><a xlink:href="classdasynq_1_1select__events.html" target="_top" xlink:title=" ">
<polygon fill="white" stroke="#666666" points="633,-78 508,-78 508,-48 633,-48 633,-78"/>
<text text-anchor="start" x="516" y="-66" font-family="Helvetica,sans-Serif" font-size="10.00">dasynq::select_events</text>
<text text-anchor="middle" x="570.5" y="-55" font-family="Helvetica,sans-Serif" font-size="10.00">&lt; Base &gt;</text>
</a>
</g>
</g>
<!-- Node5&#45;&gt;Node6 -->
<g id="edge5_Node000005_Node000006" class="edge">
<title>Node5&#45;&gt;Node6</title>
<g id="a_edge5_Node000005_Node000006"><a xlink:title=" ">
<path fill="none" stroke="#63b8ff" d="M469.25,-63C482.04,-63 495.26,-63 507.74,-63"/>
<polygon fill="#63b8ff" stroke="#63b8ff" points="469.11,-59.5 459.11,-63 469.11,-66.5 469.11,-59.5"/>
</a>
</g>
</g>
<!-- Node7 -->
<g id="Node000007" class="node">
<title>Node7</title>
<g id="a_Node000007"><a xlink:href="classdasynq_1_1v2_1_1macos__kqueue__loop.html" target="_top" xlink:title=" ">
<polygon fill="white" stroke="#666666" points="645,-30 496,-30 496,0 645,0 645,-30"/>
<text text-anchor="start" x="504" y="-18" font-family="Helvetica,sans-Serif" font-size="10.00">dasynq::v2::macos_kqueue</text>
<text text-anchor="middle" x="570.5" y="-7" font-family="Helvetica,sans-Serif" font-size="10.00">_loop&lt; Base &gt;</text>
</a>
</g>
</g>
<!-- Node5&#45;&gt;Node7 -->
<g id="edge6_Node000005_Node000007" class="edge">
<title>Node5&#45;&gt;Node7</title>
<g id="a_edge6_Node000005_Node000007"><a xlink:title=" ">
<path fill="none" stroke="#63b8ff" d="M461.24,-45.21C479.16,-40.21 498.47,-34.82 515.74,-30"/>
<polygon fill="#63b8ff" stroke="#63b8ff" points="460.14,-41.88 451.45,-47.94 462.02,-48.63 460.14,-41.88"/>
</a>
</g>
</g>
</g>
</svg>

<g id="navigator" transform="translate(0 0)" fill="#404254">
  <rect fill="#f2f5e9" fill-opacity="0.5" stroke="#606060" stroke-width=".5" x="0" y="0" width="60" height="60"/>
  <use id="zoomplus" xlink:href="#zoomPlus" x="17" y="9" onmousedown="handleZoom(evt,'in')"/>
  <use id="zoomminus" xlink:href="#zoomMin" x="42" y="9" onmousedown="handleZoom(evt,'out')"/>
  <use id="reset" xlink:href="#resetDef" x="30" y="36" onmousedown="handleReset()"/>
   <use id="arrowup" xlink:href="#arrowUp" x="0" y="0" onmousedown="handlePan(0,-1)"/>
  <use id="arrowright" xlink:href="#arrowRight" x="0" y="0" onmousedown="handlePan(1,0)"/>
  <use id="arrowdown" xlink:href="#arrowDown" x="0" y="0" onmousedown="handlePan(0,1)"/>
  <use id="arrowleft" xlink:href="#arrowLeft" x="0" y="0" onmousedown="handlePan(-1,0)"/>
</g>
<svg viewBox="0 0 15 15" width="100%" height="30px" preserveAspectRatio="xMaxYMin meet">
 <g id="arrow_out" transform="scale(0.3 0.3)">
  <a xlink:href="classdasynq_1_1signal__events__inherit__graph_org.svg" target="_base">
   <rect id="button" ry="5" rx="5" y="6" x="6" height="38" width="38"
        fill="#f2f5e9" fill-opacity="0.5" stroke="#606060" stroke-width="1.0"/>
   <path id="arrow"
     d="M 11.500037,31.436501 C 11.940474,20.09759 22.043105,11.32322 32.158766,21.979434 L 37.068811,17.246167 C 37.068811,17.246167 37.088388,32 37.088388,32 L 22.160133,31.978069 C 22.160133,31.978069 26.997745,27.140456 26.997745,27.140456 C 18.528582,18.264221 13.291696,25.230495 11.500037,31.436501 z"
     style="fill:#404040;"/>
  </a>
 </g>
</svg>

<style type='text/css'>
<![CDATA[
[data-mouse-over-selected='false'] { opacity: 0.7; }
[data-mouse-over-selected='true']  { opacity: 1.0; }
]]>
</style>
<script type="application/ecmascript"><![CDATA[
document.addEventListener('DOMContentLoaded', (event) => {
  highlightEdges();
  highlightAdjacentNodes();
});
]]></script>
</svg>
