<?xml version="1.0" encoding="UTF-8" standalone="no"?>
<!DOCTYPE svg PUBLIC "-//W3C//DTD SVG 1.1//EN"
 "http://www.w3.org/Graphics/SVG/1.1/DTD/svg11.dtd">
<!-- Generated by graphviz version 2.43.0 (0)
 -->
<!-- Title: Graphical Class Hierarchy Pages: 1 -->
<svg width="350pt" height="138pt"
 viewBox="0.00 0.00 350.00 138.00" xmlns="http://www.w3.org/2000/svg" xmlns:xlink="http://www.w3.org/1999/xlink">
<g id="graph0" class="graph" transform="scale(1 1) rotate(0) translate(4 134)">
<title>Graphical Class Hierarchy</title>
<!-- Node0 -->
<g id="Node000000" class="node">
<title>Node0</title>
<g id="a_Node000000"><a xlink:title=" ">
<polygon fill="#e0e0e0" stroke="#999999" points="161,-74 0,-74 0,-55 161,-55 161,-74"/>
<text text-anchor="middle" x="80.5" y="-62" font-family="Helvetica,sans-Serif" font-size="10.00">eventloop_t::fd_watcher_impl</text>
</a>
</g>
</g>
<!-- Node1 -->
<g id="Node000001" class="node">
<title>Node1</title>
<g id="a_Node000001"><a xlink:href="classexec__status__pipe__watcher.html" target="_top" xlink:title=" ">
<polygon fill="white" stroke="#666666" points="342,-130 197,-130 197,-111 342,-111 342,-130"/>
<text text-anchor="middle" x="269.5" y="-118" font-family="Helvetica,sans-Serif" font-size="10.00">exec_status_pipe_watcher</text>
</a>
</g>
</g>
<!-- Node0&#45;&gt;Node1 -->
<g id="edge49_Node000000_Node000001" class="edge">
<title>Node0&#45;&gt;Node1</title>
<g id="a_edge49_Node000000_Node000001"><a xlink:title=" ">
<path fill="none" stroke="#63b8ff" d="M118.4,-77.38C140.97,-85.08 170.51,-94.82 197,-102.5 207.08,-105.42 218.04,-108.32 228.28,-110.91"/>
<polygon fill="#63b8ff" stroke="#63b8ff" points="119.46,-74.05 108.87,-74.11 117.19,-80.67 119.46,-74.05"/>
</a>
</g>
</g>
<!-- Node2 -->
<g id="Node000002" class="node">
<title>Node2</title>
<g id="a_Node000002"><a xlink:href="classlog__output__watcher.html" target="_top" xlink:title=" ">
<polygon fill="white" stroke="#666666" points="326,-93 213,-93 213,-74 326,-74 326,-93"/>
<text text-anchor="middle" x="269.5" y="-81" font-family="Helvetica,sans-Serif" font-size="10.00">log_output_watcher</text>
</a>
</g>
</g>
<!-- Node0&#45;&gt;Node2 -->
<g id="edge50_Node000000_Node000002" class="edge">
<title>Node0&#45;&gt;Node2</title>
<g id="a_edge50_Node000000_Node000002"><a xlink:title=" ">
<path fill="none" stroke="#63b8ff" d="M171.33,-73.63C185.46,-75.06 199.7,-76.51 212.76,-77.84"/>
<polygon fill="#63b8ff" stroke="#63b8ff" points="171.38,-70.11 161.08,-72.59 170.67,-77.08 171.38,-70.11"/>
</a>
</g>
</g>
<!-- Node3 -->
<g id="Node000003" class="node">
<title>Node3</title>
<g id="a_Node000003"><a xlink:href="classready__notify__watcher.html" target="_top" xlink:title=" ">
<polygon fill="white" stroke="#666666" points="330.5,-56 208.5,-56 208.5,-37 330.5,-37 330.5,-56"/>
<text text-anchor="middle" x="269.5" y="-44" font-family="Helvetica,sans-Serif" font-size="10.00">ready_notify_watcher</text>
</a>
</g>
</g>
<!-- Node0&#45;&gt;Node3 -->
<g id="edge51_Node000000_Node000003" class="edge">
<title>Node0&#45;&gt;Node3</title>
<g id="a_edge51_Node000000_Node000003"><a xlink:title=" ">
<path fill="none" stroke="#63b8ff" d="M171.13,-55.87C183.72,-54.66 196.4,-53.44 208.26,-52.3"/>
<polygon fill="#63b8ff" stroke="#63b8ff" points="170.69,-52.4 161.08,-56.84 171.37,-59.37 170.69,-52.4"/>
</a>
</g>
</g>
<!-- Node4 -->
<g id="Node000004" class="node">
<title>Node4</title>
<g id="a_Node000004"><a xlink:href="classstop__status__pipe__watcher.html" target="_top" xlink:title=" ">
<polygon fill="white" stroke="#666666" points="341,-19 198,-19 198,0 341,0 341,-19"/>
<text text-anchor="middle" x="269.5" y="-7" font-family="Helvetica,sans-Serif" font-size="10.00">stop_status_pipe_watcher</text>
</a>
</g>
</g>
<!-- Node0&#45;&gt;Node4 -->
<g id="edge52_Node000000_Node000004" class="edge">
<title>Node0&#45;&gt;Node4</title>
<g id="a_edge52_Node000000_Node000004"><a xlink:title=" ">
<path fill="none" stroke="#63b8ff" d="M120.61,-51.86C142.92,-44.76 171.45,-35.87 197,-28.5 208.11,-25.3 220.24,-22 231.31,-19.06"/>
<polygon fill="#63b8ff" stroke="#63b8ff" points="119.29,-48.6 110.83,-54.98 121.42,-55.27 119.29,-48.6"/>
</a>
</g>
</g>
</g>
</svg>
