<?xml version="1.0" encoding="UTF-8" standalone="no"?>
<!DOCTYPE svg PUBLIC "-//W3C//DTD SVG 1.1//EN"
 "http://www.w3.org/Graphics/SVG/1.1/DTD/svg11.dtd">
<!-- Generated by graphviz version 2.43.0 (0)
 -->
<!-- Title: Graphical Class Hierarchy Pages: 1 -->
<svg width="413pt" height="422pt"
 viewBox="0.00 0.00 413.00 422.00" xmlns="http://www.w3.org/2000/svg" xmlns:xlink="http://www.w3.org/1999/xlink">
<g id="graph0" class="graph" transform="scale(1 1) rotate(0) translate(4 418)">
<title>Graphical Class Hierarchy</title>
<!-- Node0 -->
<g id="Node000000" class="node">
<title>Node0</title>
<g id="a_Node000000"><a xlink:title=" ">
<polygon fill="#e0e0e0" stroke="#999999" points="41,-216.5 0,-216.5 0,-197.5 41,-197.5 41,-216.5"/>
<text text-anchor="middle" x="20.5" y="-204.5" font-family="Helvetica,sans-Serif" font-size="10.00">Base</text>
</a>
</g>
</g>
<!-- Node1 -->
<g id="Node000001" class="node">
<title>Node1</title>
<g id="a_Node000001"><a xlink:href="classdasynq_1_1signal__events.html" target="_top" xlink:title=" ">
<polygon fill="white" stroke="#666666" points="211,-414 86,-414 86,-384 211,-384 211,-414"/>
<text text-anchor="start" x="94" y="-402" font-family="Helvetica,sans-Serif" font-size="10.00">dasynq::signal_events</text>
<text text-anchor="middle" x="148.5" y="-391" font-family="Helvetica,sans-Serif" font-size="10.00">&lt; Base, false &gt;</text>
</a>
</g>
</g>
<!-- Node0&#45;&gt;Node1 -->
<g id="edge1_Node000000_Node000001" class="edge">
<title>Node0&#45;&gt;Node1</title>
<g id="a_edge1_Node000000_Node000001"><a xlink:title=" ">
<path fill="none" stroke="#63b8ff" d="M22.53,-227.21C25.4,-262.09 36.21,-333.84 77,-375 80.37,-378.4 84.23,-381.32 88.39,-383.82"/>
<polygon fill="#63b8ff" stroke="#63b8ff" points="26,-226.63 21.83,-216.89 19.02,-227.1 26,-226.63"/>
</a>
</g>
</g>
<!-- Node3 -->
<g id="Node000003" class="node">
<title>Node3</title>
<g id="a_Node000003"><a xlink:href="classdasynq_1_1signal__events.html" target="_top" xlink:title=" ">
<polygon fill="white" stroke="#666666" points="211,-366 86,-366 86,-336 211,-336 211,-366"/>
<text text-anchor="start" x="94" y="-354" font-family="Helvetica,sans-Serif" font-size="10.00">dasynq::signal_events</text>
<text text-anchor="middle" x="148.5" y="-343" font-family="Helvetica,sans-Serif" font-size="10.00">&lt; Base, true &gt;</text>
</a>
</g>
</g>
<!-- Node0&#45;&gt;Node3 -->
<g id="edge3_Node000000_Node000003" class="edge">
<title>Node0&#45;&gt;Node3</title>
<g id="a_edge3_Node000000_Node000003"><a xlink:title=" ">
<path fill="none" stroke="#63b8ff" d="M25.49,-226.58C31.87,-252.99 46.85,-299.86 77,-327 80.84,-330.46 85.21,-333.42 89.84,-335.96"/>
<polygon fill="#63b8ff" stroke="#63b8ff" points="28.87,-225.62 23.27,-216.63 22.04,-227.15 28.87,-225.62"/>
</a>
</g>
</g>
<!-- Node6 -->
<g id="Node000006" class="node">
<title>Node6</title>
<g id="a_Node000006"><a xlink:href="classdasynq_1_1interrupt__channel.html" target="_top" xlink:title=" ">
<polygon fill="white" stroke="#666666" points="220,-318 77,-318 77,-288 220,-288 220,-318"/>
<text text-anchor="start" x="85" y="-306" font-family="Helvetica,sans-Serif" font-size="10.00">dasynq::interrupt_channel</text>
<text text-anchor="middle" x="148.5" y="-295" font-family="Helvetica,sans-Serif" font-size="10.00">&lt; Base, Mutex &gt;</text>
</a>
</g>
</g>
<!-- Node0&#45;&gt;Node6 -->
<g id="edge6_Node000000_Node000006" class="edge">
<title>Node0&#45;&gt;Node6</title>
<g id="a_edge6_Node000000_Node000006"><a xlink:title=" ">
<path fill="none" stroke="#63b8ff" d="M31.81,-225.96C41.5,-242.16 57.44,-265.01 77,-279 81.73,-282.39 86.98,-285.32 92.41,-287.86"/>
<polygon fill="#63b8ff" stroke="#63b8ff" points="34.61,-223.81 26.6,-216.87 28.53,-227.29 34.61,-223.81"/>
</a>
</g>
</g>
<!-- Node7 -->
<g id="Node000007" class="node">
<title>Node7</title>
<g id="a_Node000007"><a xlink:href="classdasynq_1_1interrupt__channel_3_01Base_00_01null__mutex_01_4.html" target="_top" xlink:title=" ">
<polygon fill="white" stroke="#666666" points="220,-270 77,-270 77,-240 220,-240 220,-270"/>
<text text-anchor="start" x="85" y="-258" font-family="Helvetica,sans-Serif" font-size="10.00">dasynq::interrupt_channel</text>
<text text-anchor="middle" x="148.5" y="-247" font-family="Helvetica,sans-Serif" font-size="10.00">&lt; Base, null_mutex &gt;</text>
</a>
</g>
</g>
<!-- Node0&#45;&gt;Node7 -->
<g id="edge7_Node000000_Node000007" class="edge">
<title>Node0&#45;&gt;Node7</title>
<g id="a_edge7_Node000000_Node000007"><a xlink:title=" ">
<path fill="none" stroke="#63b8ff" d="M50.31,-219.98C58.84,-223.68 68.25,-227.62 77,-231 84.84,-234.02 93.25,-237.06 101.42,-239.91"/>
<polygon fill="#63b8ff" stroke="#63b8ff" points="51.68,-216.76 41.12,-215.94 48.87,-223.17 51.68,-216.76"/>
</a>
</g>
</g>
<!-- Node8 -->
<g id="Node000008" class="node">
<title>Node8</title>
<g id="a_Node000008"><a xlink:href="classdasynq_1_1signal__events.html" target="_top" xlink:title=" ">
<polygon fill="white" stroke="#666666" points="218.5,-222 78.5,-222 78.5,-192 218.5,-192 218.5,-222"/>
<text text-anchor="start" x="86.5" y="-210" font-family="Helvetica,sans-Serif" font-size="10.00">dasynq::signal_events</text>
<text text-anchor="middle" x="148.5" y="-199" font-family="Helvetica,sans-Serif" font-size="10.00">&lt; Base, mask_enables &gt;</text>
</a>
</g>
</g>
<!-- Node0&#45;&gt;Node8 -->
<g id="edge8_Node000000_Node000008" class="edge">
<title>Node0&#45;&gt;Node8</title>
<g id="a_edge8_Node000000_Node000008"><a xlink:title=" ">
<path fill="none" stroke="#63b8ff" d="M51.3,-207C59.51,-207 68.78,-207 78.23,-207"/>
<polygon fill="#63b8ff" stroke="#63b8ff" points="51.19,-203.5 41.19,-207 51.19,-210.5 51.19,-203.5"/>
</a>
</g>
</g>
<!-- Node9 -->
<g id="Node000009" class="node">
<title>Node9</title>
<g id="a_Node000009"><a xlink:href="classdasynq_1_1timer__base.html" target="_top" xlink:title=" ">
<polygon fill="white" stroke="#666666" points="205,-174 92,-174 92,-144 205,-144 205,-174"/>
<text text-anchor="start" x="100" y="-162" font-family="Helvetica,sans-Serif" font-size="10.00">dasynq::timer_base</text>
<text text-anchor="middle" x="148.5" y="-151" font-family="Helvetica,sans-Serif" font-size="10.00">&lt; Base &gt;</text>
</a>
</g>
</g>
<!-- Node0&#45;&gt;Node9 -->
<g id="edge9_Node000000_Node000009" class="edge">
<title>Node0&#45;&gt;Node9</title>
<g id="a_edge9_Node000000_Node000009"><a xlink:title=" ">
<path fill="none" stroke="#63b8ff" d="M50.31,-194.02C58.84,-190.32 68.25,-186.38 77,-183 84.84,-179.98 93.25,-176.94 101.42,-174.09"/>
<polygon fill="#63b8ff" stroke="#63b8ff" points="48.87,-190.83 41.12,-198.06 51.68,-197.24 48.87,-190.83"/>
</a>
</g>
</g>
<!-- Node13 -->
<g id="Node000013" class="node">
<title>Node13</title>
<g id="a_Node000013"><a xlink:href="classdasynq_1_1v2_1_1child__proc__events.html" target="_top" xlink:title=" ">
<polygon fill="white" stroke="#666666" points="211,-126 86,-126 86,-96 211,-96 211,-126"/>
<text text-anchor="start" x="94" y="-114" font-family="Helvetica,sans-Serif" font-size="10.00">dasynq::v2::child_proc</text>
<text text-anchor="middle" x="148.5" y="-103" font-family="Helvetica,sans-Serif" font-size="10.00">_events&lt; Base &gt;</text>
</a>
</g>
</g>
<!-- Node0&#45;&gt;Node13 -->
<g id="edge13_Node000000_Node000013" class="edge">
<title>Node0&#45;&gt;Node13</title>
<g id="a_edge13_Node000000_Node000013"><a xlink:title=" ">
<path fill="none" stroke="#63b8ff" d="M31.81,-188.04C41.5,-171.84 57.44,-148.99 77,-135 81.73,-131.61 86.98,-128.68 92.41,-126.14"/>
<polygon fill="#63b8ff" stroke="#63b8ff" points="28.53,-186.71 26.6,-197.13 34.61,-190.19 28.53,-186.71"/>
</a>
</g>
</g>
<!-- Node14 -->
<g id="Node000014" class="node">
<title>Node14</title>
<g id="a_Node000014"><a xlink:href="classdasynq_1_1v2_1_1epoll__loop.html" target="_top" xlink:title=" ">
<polygon fill="white" stroke="#666666" points="211.5,-78 85.5,-78 85.5,-48 211.5,-48 211.5,-78"/>
<text text-anchor="start" x="93.5" y="-66" font-family="Helvetica,sans-Serif" font-size="10.00">dasynq::v2::epoll_loop</text>
<text text-anchor="middle" x="148.5" y="-55" font-family="Helvetica,sans-Serif" font-size="10.00">&lt; Base &gt;</text>
</a>
</g>
</g>
<!-- Node0&#45;&gt;Node14 -->
<g id="edge14_Node000000_Node000014" class="edge">
<title>Node0&#45;&gt;Node14</title>
<g id="a_edge14_Node000000_Node000014"><a xlink:title=" ">
<path fill="none" stroke="#63b8ff" d="M25.49,-187.42C31.87,-161.01 46.85,-114.14 77,-87 80.84,-83.54 85.21,-80.58 89.84,-78.04"/>
<polygon fill="#63b8ff" stroke="#63b8ff" points="22.04,-186.85 23.27,-197.37 28.87,-188.38 22.04,-186.85"/>
</a>
</g>
</g>
<!-- Node15 -->
<g id="Node000015" class="node">
<title>Node15</title>
<g id="a_Node000015"><a xlink:href="classdasynq_1_1v2_1_1kqueue__loop.html" target="_top" xlink:title=" ">
<polygon fill="white" stroke="#666666" points="204.5,-30 92.5,-30 92.5,0 204.5,0 204.5,-30"/>
<text text-anchor="start" x="100.5" y="-18" font-family="Helvetica,sans-Serif" font-size="10.00">dasynq::v2::kqueue</text>
<text text-anchor="middle" x="148.5" y="-7" font-family="Helvetica,sans-Serif" font-size="10.00">_loop&lt; Base &gt;</text>
</a>
</g>
</g>
<!-- Node0&#45;&gt;Node15 -->
<g id="edge15_Node000000_Node000015" class="edge">
<title>Node0&#45;&gt;Node15</title>
<g id="a_edge15_Node000000_Node000015"><a xlink:title=" ">
<path fill="none" stroke="#63b8ff" d="M22.53,-186.79C25.4,-151.91 36.21,-80.16 77,-39 81.37,-34.59 86.58,-30.99 92.16,-28.05"/>
<polygon fill="#63b8ff" stroke="#63b8ff" points="19.02,-186.9 21.83,-197.11 26,-187.37 19.02,-186.9"/>
</a>
</g>
</g>
<!-- Node2 -->
<g id="Node000002" class="node">
<title>Node2</title>
<g id="a_Node000002"><a xlink:href="classdasynq_1_1pselect__events.html" target="_top" xlink:title=" ">
<polygon fill="white" stroke="#666666" points="396,-414 265,-414 265,-384 396,-384 396,-414"/>
<text text-anchor="start" x="273" y="-402" font-family="Helvetica,sans-Serif" font-size="10.00">dasynq::pselect_events</text>
<text text-anchor="middle" x="330.5" y="-391" font-family="Helvetica,sans-Serif" font-size="10.00">&lt; Base &gt;</text>
</a>
</g>
</g>
<!-- Node1&#45;&gt;Node2 -->
<g id="edge2_Node000001_Node000002" class="edge">
<title>Node1&#45;&gt;Node2</title>
<g id="a_edge2_Node000001_Node000002"><a xlink:title=" ">
<path fill="none" stroke="#63b8ff" d="M221.49,-399C235.81,-399 250.76,-399 264.82,-399"/>
<polygon fill="#63b8ff" stroke="#63b8ff" points="221.19,-395.5 211.19,-399 221.19,-402.5 221.19,-395.5"/>
</a>
</g>
</g>
<!-- Node4 -->
<g id="Node000004" class="node">
<title>Node4</title>
<g id="a_Node000004"><a xlink:href="classdasynq_1_1select__events.html" target="_top" xlink:title=" ">
<polygon fill="white" stroke="#666666" points="393,-366 268,-366 268,-336 393,-336 393,-366"/>
<text text-anchor="start" x="276" y="-354" font-family="Helvetica,sans-Serif" font-size="10.00">dasynq::select_events</text>
<text text-anchor="middle" x="330.5" y="-343" font-family="Helvetica,sans-Serif" font-size="10.00">&lt; Base &gt;</text>
</a>
</g>
</g>
<!-- Node3&#45;&gt;Node4 -->
<g id="edge4_Node000003_Node000004" class="edge">
<title>Node3&#45;&gt;Node4</title>
<g id="a_edge4_Node000003_Node000004"><a xlink:title=" ">
<path fill="none" stroke="#63b8ff" d="M221.22,-351C236.67,-351 252.86,-351 267.89,-351"/>
<polygon fill="#63b8ff" stroke="#63b8ff" points="221.19,-347.5 211.19,-351 221.19,-354.5 221.19,-347.5"/>
</a>
</g>
</g>
<!-- Node5 -->
<g id="Node000005" class="node">
<title>Node5</title>
<g id="a_Node000005"><a xlink:href="classdasynq_1_1v2_1_1macos__kqueue__loop.html" target="_top" xlink:title=" ">
<polygon fill="white" stroke="#666666" points="405,-318 256,-318 256,-288 405,-288 405,-318"/>
<text text-anchor="start" x="264" y="-306" font-family="Helvetica,sans-Serif" font-size="10.00">dasynq::v2::macos_kqueue</text>
<text text-anchor="middle" x="330.5" y="-295" font-family="Helvetica,sans-Serif" font-size="10.00">_loop&lt; Base &gt;</text>
</a>
</g>
</g>
<!-- Node3&#45;&gt;Node5 -->
<g id="edge5_Node000003_Node000005" class="edge">
<title>Node3&#45;&gt;Node5</title>
<g id="a_edge5_Node000003_Node000005"><a xlink:title=" ">
<path fill="none" stroke="#63b8ff" d="M215.69,-333.35C234.59,-328.31 254.99,-322.87 273.24,-318"/>
<polygon fill="#63b8ff" stroke="#63b8ff" points="214.72,-329.99 205.96,-335.94 216.52,-336.75 214.72,-329.99"/>
</a>
</g>
</g>
<!-- Node10 -->
<g id="Node000010" class="node">
<title>Node10</title>
<g id="a_Node000010"><a xlink:href="classdasynq_1_1itimer__events.html" target="_top" xlink:title=" ">
<polygon fill="white" stroke="#666666" points="394.5,-238.5 266.5,-238.5 266.5,-197.5 394.5,-197.5 394.5,-238.5"/>
<text text-anchor="start" x="274.5" y="-226.5" font-family="Helvetica,sans-Serif" font-size="10.00">dasynq::itimer_events</text>
<text text-anchor="start" x="274.5" y="-215.5" font-family="Helvetica,sans-Serif" font-size="10.00">&lt; Base, provide_mono</text>
<text text-anchor="middle" x="330.5" y="-204.5" font-family="Helvetica,sans-Serif" font-size="10.00">_timer &gt;</text>
</a>
</g>
</g>
<!-- Node9&#45;&gt;Node10 -->
<g id="edge10_Node000009_Node000010" class="edge">
<title>Node9&#45;&gt;Node10</title>
<g id="a_edge10_Node000009_Node000010"><a xlink:title=" ">
<path fill="none" stroke="#63b8ff" d="M205.04,-177.21C224.57,-183.61 246.64,-190.84 266.72,-197.42"/>
<polygon fill="#63b8ff" stroke="#63b8ff" points="205.98,-173.83 195.39,-174.04 203.8,-180.48 205.98,-173.83"/>
</a>
</g>
</g>
<!-- Node11 -->
<g id="Node000011" class="node">
<title>Node11</title>
<g id="a_Node000011"><a xlink:href="classdasynq_1_1posix__timer__events.html" target="_top" xlink:title=" ">
<polygon fill="white" stroke="#666666" points="397,-179.5 264,-179.5 264,-138.5 397,-138.5 397,-179.5"/>
<text text-anchor="start" x="272" y="-167.5" font-family="Helvetica,sans-Serif" font-size="10.00">dasynq::posix_timer</text>
<text text-anchor="start" x="272" y="-156.5" font-family="Helvetica,sans-Serif" font-size="10.00">_events&lt; Base, provide</text>
<text text-anchor="middle" x="330.5" y="-145.5" font-family="Helvetica,sans-Serif" font-size="10.00">_mono_timer &gt;</text>
</a>
</g>
</g>
<!-- Node9&#45;&gt;Node11 -->
<g id="edge11_Node000009_Node000011" class="edge">
<title>Node9&#45;&gt;Node11</title>
<g id="a_edge11_Node000009_Node000011"><a xlink:title=" ">
<path fill="none" stroke="#63b8ff" d="M215.62,-159C231.33,-159 248.09,-159 263.79,-159"/>
<polygon fill="#63b8ff" stroke="#63b8ff" points="215.47,-155.5 205.47,-159 215.47,-162.5 215.47,-155.5"/>
</a>
</g>
</g>
<!-- Node12 -->
<g id="Node000012" class="node">
<title>Node12</title>
<g id="a_Node000012"><a xlink:href="classdasynq_1_1timer__fd__events.html" target="_top" xlink:title=" ">
<polygon fill="white" stroke="#666666" points="399,-120 262,-120 262,-90 399,-90 399,-120"/>
<text text-anchor="start" x="270" y="-108" font-family="Helvetica,sans-Serif" font-size="10.00">dasynq::timer_fd_events</text>
<text text-anchor="middle" x="330.5" y="-97" font-family="Helvetica,sans-Serif" font-size="10.00">&lt; Base &gt;</text>
</a>
</g>
</g>
<!-- Node9&#45;&gt;Node12 -->
<g id="edge12_Node000009_Node000012" class="edge">
<title>Node9&#45;&gt;Node12</title>
<g id="a_edge12_Node000009_Node000012"><a xlink:title=" ">
<path fill="none" stroke="#63b8ff" d="M209.49,-141C232.14,-134.21 257.65,-126.55 279.32,-120.05"/>
<polygon fill="#63b8ff" stroke="#63b8ff" points="208.21,-137.73 199.64,-143.96 210.22,-144.44 208.21,-137.73"/>
</a>
</g>
</g>
</g>
</svg>
