<?xml version="1.0" encoding="UTF-8" standalone="no"?>
<!DOCTYPE svg PUBLIC "-//W3C//DTD SVG 1.1//EN"
 "http://www.w3.org/Graphics/SVG/1.1/DTD/svg11.dtd">
<!-- Generated by graphviz version 2.43.0 (0)
 -->
<!-- Title: Graphical Class Hierarchy Pages: 1 -->
<svg width="283pt" height="64pt"
 viewBox="0.00 0.00 283.00 64.00" xmlns="http://www.w3.org/2000/svg" xmlns:xlink="http://www.w3.org/1999/xlink">
<g id="graph0" class="graph" transform="scale(1 1) rotate(0) translate(4 60)">
<title>Graphical Class Hierarchy</title>
<!-- Node0 -->
<g id="Node000000" class="node">
<title>Node0</title>
<g id="a_Node000000"><a xlink:title=" ">
<polygon fill="#e0e0e0" stroke="#999999" points="114,-42.5 0,-42.5 0,-12.5 114,-12.5 114,-42.5"/>
<text text-anchor="start" x="8" y="-30.5" font-family="Helvetica,sans-Serif" font-size="10.00">eventloop_t::child</text>
<text text-anchor="middle" x="57" y="-19.5" font-family="Helvetica,sans-Serif" font-size="10.00">_proc_watcher_impl</text>
</a>
</g>
</g>
<!-- Node1 -->
<g id="Node000001" class="node">
<title>Node1</title>
<g id="a_Node000001"><a xlink:href="classservice__child__watcher.html" target="_top" xlink:title=" ">
<polygon fill="white" stroke="#666666" points="275,-56 150,-56 150,-37 275,-37 275,-56"/>
<text text-anchor="middle" x="212.5" y="-44" font-family="Helvetica,sans-Serif" font-size="10.00">service_child_watcher</text>
</a>
</g>
</g>
<!-- Node0&#45;&gt;Node1 -->
<g id="edge47_Node000000_Node000001" class="edge">
<title>Node0&#45;&gt;Node1</title>
<g id="a_edge47_Node000000_Node000001"><a xlink:title=" ">
<path fill="none" stroke="#63b8ff" d="M124.44,-35.72C132.86,-36.77 141.45,-37.83 149.79,-38.86"/>
<polygon fill="#63b8ff" stroke="#63b8ff" points="124.64,-32.22 114.29,-34.47 123.78,-39.17 124.64,-32.22"/>
</a>
</g>
</g>
<!-- Node2 -->
<g id="Node000002" class="node">
<title>Node2</title>
<g id="a_Node000002"><a xlink:href="classstop__child__watcher.html" target="_top" xlink:title=" ">
<polygon fill="white" stroke="#666666" points="267.5,-19 157.5,-19 157.5,0 267.5,0 267.5,-19"/>
<text text-anchor="middle" x="212.5" y="-7" font-family="Helvetica,sans-Serif" font-size="10.00">stop_child_watcher</text>
</a>
</g>
</g>
<!-- Node0&#45;&gt;Node2 -->
<g id="edge48_Node000000_Node000002" class="edge">
<title>Node0&#45;&gt;Node2</title>
<g id="a_edge48_Node000000_Node000002"><a xlink:title=" ">
<path fill="none" stroke="#63b8ff" d="M124.29,-19.73C135.3,-18.44 146.6,-17.11 157.27,-15.86"/>
<polygon fill="#63b8ff" stroke="#63b8ff" points="123.81,-16.26 114.29,-20.9 124.63,-23.21 123.81,-16.26"/>
</a>
</g>
</g>
</g>
</svg>
