<?xml version="1.0" encoding="UTF-8" standalone="no"?>
<!DOCTYPE svg PUBLIC "-//W3C//DTD SVG 1.1//EN"
 "http://www.w3.org/Graphics/SVG/1.1/DTD/svg11.dtd">
<!-- Generated by graphviz version 2.43.0 (0)
 -->
<!-- Title: Graphical Class Hierarchy Pages: 1 -->
<svg width="513pt" height="119pt"
 viewBox="0.00 0.00 513.00 119.00" xmlns="http://www.w3.org/2000/svg" xmlns:xlink="http://www.w3.org/1999/xlink">
<g id="graph0" class="graph" transform="scale(1 1) rotate(0) translate(4 115)">
<title>Graphical Class Hierarchy</title>
<!-- Node0 -->
<g id="Node000000" class="node">
<title>Node0</title>
<g id="a_Node000000"><a xlink:href="classservice__record.html" target="_top" xlink:title=" ">
<polygon fill="white" stroke="#666666" points="88,-56 0,-56 0,-37 88,-37 88,-56"/>
<text text-anchor="middle" x="44" y="-44" font-family="Helvetica,sans-Serif" font-size="10.00">service_record</text>
</a>
</g>
</g>
<!-- Node1 -->
<g id="Node000001" class="node">
<title>Node1</title>
<g id="a_Node000001"><a xlink:href="classbase__process__service.html" target="_top" xlink:title=" ">
<polygon fill="white" stroke="#666666" points="247,-93 124,-93 124,-74 247,-74 247,-93"/>
<text text-anchor="middle" x="185.5" y="-81" font-family="Helvetica,sans-Serif" font-size="10.00">base_process_service</text>
</a>
</g>
</g>
<!-- Node0&#45;&gt;Node1 -->
<g id="edge62_Node000000_Node000001" class="edge">
<title>Node0&#45;&gt;Node1</title>
<g id="a_edge62_Node000000_Node000001"><a xlink:title=" ">
<path fill="none" stroke="#63b8ff" d="M90.7,-58.62C109.36,-63.57 130.64,-69.22 148.21,-73.88"/>
<polygon fill="#63b8ff" stroke="#63b8ff" points="91.49,-55.21 80.92,-56.03 89.69,-61.98 91.49,-55.21"/>
</a>
</g>
</g>
<!-- Node5 -->
<g id="Node000005" class="node">
<title>Node5</title>
<g id="a_Node000005"><a xlink:href="classplaceholder__service.html" target="_top" xlink:title=" ">
<polygon fill="white" stroke="#666666" points="242.5,-56 128.5,-56 128.5,-37 242.5,-37 242.5,-56"/>
<text text-anchor="middle" x="185.5" y="-44" font-family="Helvetica,sans-Serif" font-size="10.00">placeholder_service</text>
</a>
</g>
</g>
<!-- Node0&#45;&gt;Node5 -->
<g id="edge66_Node000000_Node000005" class="edge">
<title>Node0&#45;&gt;Node5</title>
<g id="a_edge66_Node000000_Node000005"><a xlink:title=" ">
<path fill="none" stroke="#63b8ff" d="M98.38,-46.5C108.18,-46.5 118.43,-46.5 128.31,-46.5"/>
<polygon fill="#63b8ff" stroke="#63b8ff" points="98.37,-43 88.37,-46.5 98.37,-50 98.37,-43"/>
</a>
</g>
</g>
<!-- Node6 -->
<g id="Node000006" class="node">
<title>Node6</title>
<g id="a_Node000006"><a xlink:href="classtriggered__service.html" target="_top" xlink:title=" ">
<polygon fill="white" stroke="#666666" points="236,-19 135,-19 135,0 236,0 236,-19"/>
<text text-anchor="middle" x="185.5" y="-7" font-family="Helvetica,sans-Serif" font-size="10.00">triggered_service</text>
</a>
</g>
</g>
<!-- Node0&#45;&gt;Node6 -->
<g id="edge67_Node000000_Node000006" class="edge">
<title>Node0&#45;&gt;Node6</title>
<g id="a_edge67_Node000000_Node000006"><a xlink:title=" ">
<path fill="none" stroke="#63b8ff" d="M90.7,-34.38C109.36,-29.43 130.64,-23.78 148.21,-19.12"/>
<polygon fill="#63b8ff" stroke="#63b8ff" points="89.69,-31.02 80.92,-36.97 91.49,-37.79 89.69,-31.02"/>
</a>
</g>
</g>
<!-- Node2 -->
<g id="Node000002" class="node">
<title>Node2</title>
<g id="a_Node000002"><a xlink:href="classprocess__service.html" target="_top" xlink:title=" ">
<polygon fill="white" stroke="#666666" points="378.5,-111 283.5,-111 283.5,-92 378.5,-92 378.5,-111"/>
<text text-anchor="middle" x="331" y="-99" font-family="Helvetica,sans-Serif" font-size="10.00">process_service</text>
</a>
</g>
</g>
<!-- Node1&#45;&gt;Node2 -->
<g id="edge63_Node000001_Node000002" class="edge">
<title>Node1&#45;&gt;Node2</title>
<g id="a_edge63_Node000001_Node000002"><a xlink:title=" ">
<path fill="none" stroke="#63b8ff" d="M257.32,-92.38C266.18,-93.5 275.06,-94.61 283.42,-95.66"/>
<polygon fill="#63b8ff" stroke="#63b8ff" points="257.71,-88.91 247.36,-91.13 256.84,-95.85 257.71,-88.91"/>
</a>
</g>
</g>
<!-- Node4 -->
<g id="Node000004" class="node">
<title>Node4</title>
<g id="a_Node000004"><a xlink:href="classscripted__service.html" target="_top" xlink:title=" ">
<polygon fill="white" stroke="#666666" points="379,-74 283,-74 283,-55 379,-55 379,-74"/>
<text text-anchor="middle" x="331" y="-62" font-family="Helvetica,sans-Serif" font-size="10.00">scripted_service</text>
</a>
</g>
</g>
<!-- Node1&#45;&gt;Node4 -->
<g id="edge65_Node000001_Node000004" class="edge">
<title>Node1&#45;&gt;Node4</title>
<g id="a_edge65_Node000001_Node000004"><a xlink:title=" ">
<path fill="none" stroke="#63b8ff" d="M257.48,-74.1C266.13,-72.96 274.8,-71.81 282.98,-70.73"/>
<polygon fill="#63b8ff" stroke="#63b8ff" points="256.81,-70.66 247.36,-75.44 257.73,-77.6 256.81,-70.66"/>
</a>
</g>
</g>
<!-- Node3 -->
<g id="Node000003" class="node">
<title>Node3</title>
<g id="a_Node000003"><a xlink:href="classbgproc__service.html" target="_top" xlink:title=" ">
<polygon fill="white" stroke="#666666" points="505,-111 415,-111 415,-92 505,-92 505,-111"/>
<text text-anchor="middle" x="460" y="-99" font-family="Helvetica,sans-Serif" font-size="10.00">bgproc_service</text>
</a>
</g>
</g>
<!-- Node2&#45;&gt;Node3 -->
<g id="edge64_Node000002_Node000003" class="edge">
<title>Node2&#45;&gt;Node3</title>
<g id="a_edge64_Node000002_Node000003"><a xlink:title=" ">
<path fill="none" stroke="#63b8ff" d="M388.77,-101.5C397.55,-101.5 406.52,-101.5 414.97,-101.5"/>
<polygon fill="#63b8ff" stroke="#63b8ff" points="388.57,-98 378.57,-101.5 388.57,-105 388.57,-98"/>
</a>
</g>
</g>
</g>
</svg>
