<?xml version="1.0" encoding="UTF-8" standalone="no"?>
<!DOCTYPE svg PUBLIC "-//W3C//DTD SVG 1.1//EN"
 "http://www.w3.org/Graphics/SVG/1.1/DTD/svg11.dtd">
<!-- Generated by graphviz version 2.43.0 (0)
 -->
<!-- Title: Graphical Class Hierarchy Pages: 1 -->
<svg width="293pt" height="101pt"
 viewBox="0.00 0.00 293.00 101.00" xmlns="http://www.w3.org/2000/svg" xmlns:xlink="http://www.w3.org/1999/xlink">
<g id="graph0" class="graph" transform="scale(1 1) rotate(0) translate(4 97)">
<title>Graphical Class Hierarchy</title>
<!-- Node0 -->
<g id="Node000000" class="node">
<title>Node0</title>
<g id="a_Node000000"><a xlink:href="classdinit__protocol__error.html" target="_top" xlink:title=" ">
<polygon fill="white" stroke="#666666" points="112,-56 0,-56 0,-37 112,-37 112,-56"/>
<text text-anchor="middle" x="56" y="-44" font-family="Helvetica,sans-Serif" font-size="10.00">dinit_protocol_error</text>
</a>
</g>
</g>
<!-- Node1 -->
<g id="Node000001" class="node">
<title>Node1</title>
<g id="a_Node000001"><a xlink:href="classcp__old__client__exception.html" target="_top" xlink:title=" ">
<polygon fill="white" stroke="#666666" points="283.5,-93 149.5,-93 149.5,-74 283.5,-74 283.5,-93"/>
<text text-anchor="middle" x="216.5" y="-81" font-family="Helvetica,sans-Serif" font-size="10.00">cp_old_client_exception</text>
</a>
</g>
</g>
<!-- Node0&#45;&gt;Node1 -->
<g id="edge40_Node000000_Node000001" class="edge">
<title>Node0&#45;&gt;Node1</title>
<g id="a_edge40_Node000000_Node000001"><a xlink:title=" ">
<path fill="none" stroke="#63b8ff" d="M107.79,-58.36C129.36,-63.39 154.18,-69.18 174.55,-73.94"/>
<polygon fill="#63b8ff" stroke="#63b8ff" points="108.35,-54.89 97.82,-56.03 106.76,-61.71 108.35,-54.89"/>
</a>
</g>
</g>
<!-- Node2 -->
<g id="Node000002" class="node">
<title>Node2</title>
<g id="a_Node000002"><a xlink:href="classcp__old__server__exception.html" target="_top" xlink:title=" ">
<polygon fill="white" stroke="#666666" points="285,-56 148,-56 148,-37 285,-37 285,-56"/>
<text text-anchor="middle" x="216.5" y="-44" font-family="Helvetica,sans-Serif" font-size="10.00">cp_old_server_exception</text>
</a>
</g>
</g>
<!-- Node0&#45;&gt;Node2 -->
<g id="edge41_Node000000_Node000002" class="edge">
<title>Node0&#45;&gt;Node2</title>
<g id="a_edge41_Node000000_Node000002"><a xlink:title=" ">
<path fill="none" stroke="#63b8ff" d="M122.5,-46.5C130.86,-46.5 139.43,-46.5 147.82,-46.5"/>
<polygon fill="#63b8ff" stroke="#63b8ff" points="122.44,-43 112.44,-46.5 122.44,-50 122.44,-43"/>
</a>
</g>
</g>
<!-- Node3 -->
<g id="Node000003" class="node">
<title>Node3</title>
<g id="a_Node000003"><a xlink:href="classdinit__unknown__sd__conf.html" target="_top" xlink:title=" ">
<polygon fill="white" stroke="#666666" points="282,-19 151,-19 151,0 282,0 282,-19"/>
<text text-anchor="middle" x="216.5" y="-7" font-family="Helvetica,sans-Serif" font-size="10.00">dinit_unknown_sd_conf</text>
</a>
</g>
</g>
<!-- Node0&#45;&gt;Node3 -->
<g id="edge42_Node000000_Node000003" class="edge">
<title>Node0&#45;&gt;Node3</title>
<g id="a_edge42_Node000000_Node000003"><a xlink:title=" ">
<path fill="none" stroke="#63b8ff" d="M107.79,-34.64C129.36,-29.61 154.18,-23.82 174.55,-19.06"/>
<polygon fill="#63b8ff" stroke="#63b8ff" points="106.76,-31.29 97.82,-36.97 108.35,-38.11 106.76,-31.29"/>
</a>
</g>
</g>
</g>
</svg>
