<?xml version="1.0" encoding="UTF-8" standalone="no"?>
<!DOCTYPE svg PUBLIC "-//W3C//DTD SVG 1.1//EN"
 "http://www.w3.org/Graphics/SVG/1.1/DTD/svg11.dtd">
<!-- Generated by graphviz version 2.43.0 (0)
 -->
<!-- Title: Graphical Class Hierarchy Pages: 1 -->
<svg width="882pt" height="352pt"
 viewBox="0.00 0.00 882.00 351.50" xmlns="http://www.w3.org/2000/svg" xmlns:xlink="http://www.w3.org/1999/xlink">
<g id="graph0" class="graph" transform="scale(1 1) rotate(0) translate(4 347.5)">
<title>Graphical Class Hierarchy</title>
<!-- Node0 -->
<g id="Node000000" class="node">
<title>Node0</title>
<g id="a_Node000000"><a xlink:href="classdasynq_1_1v2_1_1dprivate_1_1base__watcher.html" target="_top" xlink:title=" ">
<polygon fill="white" stroke="#666666" points="116,-170.5 0,-170.5 0,-140.5 116,-140.5 116,-170.5"/>
<text text-anchor="start" x="8" y="-158.5" font-family="Helvetica,sans-Serif" font-size="10.00">dasynq::v2::dprivate</text>
<text text-anchor="middle" x="58" y="-147.5" font-family="Helvetica,sans-Serif" font-size="10.00">::base_watcher</text>
</a>
</g>
</g>
<!-- Node1 -->
<g id="Node000001" class="node">
<title>Node1</title>
<g id="a_Node000001"><a xlink:href="classdasynq_1_1v2_1_1dprivate_1_1base__child__watcher.html" target="_top" xlink:title=" ">
<polygon fill="white" stroke="#666666" points="289,-343.5 152,-343.5 152,-291.5 289,-291.5 289,-343.5"/>
<text text-anchor="start" x="160" y="-331.5" font-family="Helvetica,sans-Serif" font-size="10.00">dasynq::v2::dprivate</text>
<text text-anchor="start" x="160" y="-320.5" font-family="Helvetica,sans-Serif" font-size="10.00">::base_child_watcher</text>
<text text-anchor="start" x="160" y="-309.5" font-family="Helvetica,sans-Serif" font-size="10.00">&lt; EventLoop::loop_traits</text>
<text text-anchor="middle" x="220.5" y="-298.5" font-family="Helvetica,sans-Serif" font-size="10.00">_t::proc_status_t &gt;</text>
</a>
</g>
</g>
<!-- Node0&#45;&gt;Node1 -->
<g id="edge23_Node000000_Node000001" class="edge">
<title>Node0&#45;&gt;Node1</title>
<g id="a_edge23_Node000000_Node000001"><a xlink:title=" ">
<path fill="none" stroke="#63b8ff" d="M72.01,-179.53C87.92,-207.17 117.1,-252.59 152,-282.5 155.71,-285.68 159.76,-288.67 163.96,-291.46"/>
<polygon fill="#63b8ff" stroke="#63b8ff" points="74.9,-177.54 66.94,-170.55 68.8,-180.98 74.9,-177.54"/>
</a>
</g>
</g>
<!-- Node4 -->
<g id="Node000004" class="node">
<title>Node4</title>
<g id="a_Node000004"><a xlink:href="classdasynq_1_1v2_1_1dprivate_1_1base__signal__watcher.html" target="_top" xlink:title=" ">
<polygon fill="white" stroke="#666666" points="289,-273.5 152,-273.5 152,-221.5 289,-221.5 289,-273.5"/>
<text text-anchor="start" x="160" y="-261.5" font-family="Helvetica,sans-Serif" font-size="10.00">dasynq::v2::dprivate</text>
<text text-anchor="start" x="160" y="-250.5" font-family="Helvetica,sans-Serif" font-size="10.00">::base_signal_watcher</text>
<text text-anchor="start" x="160" y="-239.5" font-family="Helvetica,sans-Serif" font-size="10.00">&lt; EventLoop::loop_traits</text>
<text text-anchor="middle" x="220.5" y="-228.5" font-family="Helvetica,sans-Serif" font-size="10.00">_t::sigdata_t &gt;</text>
</a>
</g>
</g>
<!-- Node0&#45;&gt;Node4 -->
<g id="edge26_Node000000_Node000004" class="edge">
<title>Node0&#45;&gt;Node4</title>
<g id="a_edge26_Node000000_Node000004"><a xlink:title=" ">
<path fill="none" stroke="#63b8ff" d="M91.6,-176.27C109.28,-187.33 131.64,-201 152,-212.5 157.17,-215.42 162.61,-218.4 168.07,-221.32"/>
<polygon fill="#63b8ff" stroke="#63b8ff" points="93.13,-173.1 82.81,-170.74 89.41,-179.03 93.13,-173.1"/>
</a>
</g>
</g>
<!-- Node7 -->
<g id="Node000007" class="node">
<title>Node7</title>
<g id="a_Node000007"><a xlink:href="classdasynq_1_1v2_1_1dprivate_1_1base__child__watcher.html" target="_top" xlink:title=" ">
<polygon fill="white" stroke="#666666" points="280,-203 161,-203 161,-162 280,-162 280,-203"/>
<text text-anchor="start" x="169" y="-191" font-family="Helvetica,sans-Serif" font-size="10.00">dasynq::v2::dprivate</text>
<text text-anchor="start" x="169" y="-180" font-family="Helvetica,sans-Serif" font-size="10.00">::base_child_watcher</text>
<text text-anchor="middle" x="220.5" y="-169" font-family="Helvetica,sans-Serif" font-size="10.00">&lt; ChildData &gt;</text>
</a>
</g>
</g>
<!-- Node0&#45;&gt;Node7 -->
<g id="edge29_Node000000_Node000007" class="edge">
<title>Node0&#45;&gt;Node7</title>
<g id="a_edge29_Node000000_Node000007"><a xlink:title=" ">
<path fill="none" stroke="#63b8ff" d="M126.04,-166.78C137.57,-168.72 149.46,-170.72 160.75,-172.62"/>
<polygon fill="#63b8ff" stroke="#63b8ff" points="126.48,-163.3 116.04,-165.1 125.32,-170.21 126.48,-163.3"/>
</a>
</g>
</g>
<!-- Node8 -->
<g id="Node000008" class="node">
<title>Node8</title>
<g id="a_Node000008"><a xlink:href="classdasynq_1_1v2_1_1dprivate_1_1base__fd__watcher.html" target="_top" xlink:title=" ">
<polygon fill="white" stroke="#666666" points="278.5,-143.5 162.5,-143.5 162.5,-113.5 278.5,-113.5 278.5,-143.5"/>
<text text-anchor="start" x="170.5" y="-131.5" font-family="Helvetica,sans-Serif" font-size="10.00">dasynq::v2::dprivate</text>
<text text-anchor="middle" x="220.5" y="-120.5" font-family="Helvetica,sans-Serif" font-size="10.00">::base_fd_watcher</text>
</a>
</g>
</g>
<!-- Node0&#45;&gt;Node8 -->
<g id="edge30_Node000000_Node000008" class="edge">
<title>Node0&#45;&gt;Node8</title>
<g id="a_edge30_Node000000_Node000008"><a xlink:title=" ">
<path fill="none" stroke="#63b8ff" d="M126.06,-144.22C138.13,-142.19 150.62,-140.09 162.38,-138.11"/>
<polygon fill="#63b8ff" stroke="#63b8ff" points="125.32,-140.79 116.04,-145.9 126.48,-147.7 125.32,-140.79"/>
</a>
</g>
</g>
<!-- Node14 -->
<g id="Node000014" class="node">
<title>Node14</title>
<g id="a_Node000014"><a xlink:href="classdasynq_1_1v2_1_1dprivate_1_1base__signal__watcher.html" target="_top" xlink:title=" ">
<polygon fill="white" stroke="#666666" points="283,-95 158,-95 158,-54 283,-54 283,-95"/>
<text text-anchor="start" x="166" y="-83" font-family="Helvetica,sans-Serif" font-size="10.00">dasynq::v2::dprivate</text>
<text text-anchor="start" x="166" y="-72" font-family="Helvetica,sans-Serif" font-size="10.00">::base_signal_watcher</text>
<text text-anchor="middle" x="220.5" y="-61" font-family="Helvetica,sans-Serif" font-size="10.00">&lt; T_Sigdata &gt;</text>
</a>
</g>
</g>
<!-- Node0&#45;&gt;Node14 -->
<g id="edge36_Node000000_Node000014" class="edge">
<title>Node0&#45;&gt;Node14</title>
<g id="a_edge36_Node000000_Node000014"><a xlink:title=" ">
<path fill="none" stroke="#63b8ff" d="M94.28,-135.25C111.51,-125.59 132.65,-114.09 152,-104.5 158.32,-101.37 165.04,-98.2 171.7,-95.15"/>
<polygon fill="#63b8ff" stroke="#63b8ff" points="92.14,-132.44 85.15,-140.4 95.58,-138.53 92.14,-132.44"/>
</a>
</g>
</g>
<!-- Node15 -->
<g id="Node000015" class="node">
<title>Node15</title>
<g id="a_Node000015"><a xlink:href="classdasynq_1_1v2_1_1dprivate_1_1base__timer__watcher.html" target="_top" xlink:title=" ">
<polygon fill="white" stroke="#666666" points="281.5,-35.5 159.5,-35.5 159.5,-5.5 281.5,-5.5 281.5,-35.5"/>
<text text-anchor="start" x="167.5" y="-23.5" font-family="Helvetica,sans-Serif" font-size="10.00">dasynq::v2::dprivate</text>
<text text-anchor="middle" x="220.5" y="-12.5" font-family="Helvetica,sans-Serif" font-size="10.00">::base_timer_watcher</text>
</a>
</g>
</g>
<!-- Node0&#45;&gt;Node15 -->
<g id="edge37_Node000000_Node000015" class="edge">
<title>Node0&#45;&gt;Node15</title>
<g id="a_edge37_Node000000_Node000015"><a xlink:title=" ">
<path fill="none" stroke="#63b8ff" d="M73.32,-131.86C89.54,-106.91 118.17,-68.02 152,-44.5 156.9,-41.09 162.34,-38.12 167.94,-35.54"/>
<polygon fill="#63b8ff" stroke="#63b8ff" points="70.33,-130.05 67.92,-140.36 76.23,-133.8 70.33,-130.05"/>
</a>
</g>
</g>
<!-- Node2 -->
<g id="Node000002" class="node">
<title>Node2</title>
<g id="a_Node000002"><a xlink:href="classdasynq_1_1v2_1_1dprivate_1_1child__proc__watcher.html" target="_top" xlink:title=" ">
<polygon fill="white" stroke="#666666" points="468,-338 352,-338 352,-297 468,-297 468,-338"/>
<text text-anchor="start" x="360" y="-326" font-family="Helvetica,sans-Serif" font-size="10.00">dasynq::v2::dprivate</text>
<text text-anchor="start" x="360" y="-315" font-family="Helvetica,sans-Serif" font-size="10.00">::child_proc_watcher</text>
<text text-anchor="middle" x="410" y="-304" font-family="Helvetica,sans-Serif" font-size="10.00">&lt; EventLoop &gt;</text>
</a>
</g>
</g>
<!-- Node1&#45;&gt;Node2 -->
<g id="edge24_Node000001_Node000002" class="edge">
<title>Node1&#45;&gt;Node2</title>
<g id="a_edge24_Node000001_Node000002"><a xlink:title=" ">
<path fill="none" stroke="#8b1a1a" d="M299.44,-317.5C317.02,-317.5 335.37,-317.5 351.92,-317.5"/>
<polygon fill="#8b1a1a" stroke="#8b1a1a" points="299.19,-314 289.19,-317.5 299.19,-321 299.19,-314"/>
</a>
</g>
</g>
<!-- Node3 -->
<g id="Node000003" class="node">
<title>Node3</title>
<g id="a_Node000003"><a xlink:href="classdasynq_1_1v2_1_1dprivate_1_1child__proc__watcher__impl.html" target="_top" xlink:title=" ">
<polygon fill="white" stroke="#666666" points="698,-338 537,-338 537,-297 698,-297 698,-338"/>
<text text-anchor="start" x="545" y="-326" font-family="Helvetica,sans-Serif" font-size="10.00">dasynq::v2::dprivate</text>
<text text-anchor="start" x="545" y="-315" font-family="Helvetica,sans-Serif" font-size="10.00">::child_proc_watcher</text>
<text text-anchor="middle" x="617.5" y="-304" font-family="Helvetica,sans-Serif" font-size="10.00">_impl&lt; EventLoop, Derived &gt;</text>
</a>
</g>
</g>
<!-- Node2&#45;&gt;Node3 -->
<g id="edge25_Node000002_Node000003" class="edge">
<title>Node2&#45;&gt;Node3</title>
<g id="a_edge25_Node000002_Node000003"><a xlink:title=" ">
<path fill="none" stroke="#63b8ff" d="M478.43,-317.5C497.12,-317.5 517.59,-317.5 536.91,-317.5"/>
<polygon fill="#63b8ff" stroke="#63b8ff" points="478.24,-314 468.24,-317.5 478.24,-321 478.24,-314"/>
</a>
</g>
</g>
<!-- Node5 -->
<g id="Node000005" class="node">
<title>Node5</title>
<g id="a_Node000005"><a xlink:href="classdasynq_1_1v2_1_1dprivate_1_1signal__watcher.html" target="_top" xlink:title=" ">
<polygon fill="white" stroke="#666666" points="495,-262.5 325,-262.5 325,-232.5 495,-232.5 495,-262.5"/>
<text text-anchor="start" x="333" y="-250.5" font-family="Helvetica,sans-Serif" font-size="10.00">dasynq::v2::dprivate</text>
<text text-anchor="middle" x="410" y="-239.5" font-family="Helvetica,sans-Serif" font-size="10.00">::signal_watcher&lt; EventLoop &gt;</text>
</a>
</g>
</g>
<!-- Node4&#45;&gt;Node5 -->
<g id="edge27_Node000004_Node000005" class="edge">
<title>Node4&#45;&gt;Node5</title>
<g id="a_edge27_Node000004_Node000005"><a xlink:title=" ">
<path fill="none" stroke="#8b1a1a" d="M299.32,-247.5C307.71,-247.5 316.28,-247.5 324.75,-247.5"/>
<polygon fill="#8b1a1a" stroke="#8b1a1a" points="299.19,-244 289.19,-247.5 299.19,-251 299.19,-244"/>
</a>
</g>
</g>
<!-- Node6 -->
<g id="Node000006" class="node">
<title>Node6</title>
<g id="a_Node000006"><a xlink:href="classdasynq_1_1v2_1_1dprivate_1_1signal__watcher__impl.html" target="_top" xlink:title=" ">
<polygon fill="white" stroke="#666666" points="684.5,-268 550.5,-268 550.5,-227 684.5,-227 684.5,-268"/>
<text text-anchor="start" x="558.5" y="-256" font-family="Helvetica,sans-Serif" font-size="10.00">dasynq::v2::dprivate</text>
<text text-anchor="start" x="558.5" y="-245" font-family="Helvetica,sans-Serif" font-size="10.00">::signal_watcher_impl</text>
<text text-anchor="middle" x="617.5" y="-234" font-family="Helvetica,sans-Serif" font-size="10.00">&lt; EventLoop, Derived &gt;</text>
</a>
</g>
</g>
<!-- Node5&#45;&gt;Node6 -->
<g id="edge28_Node000005_Node000006" class="edge">
<title>Node5&#45;&gt;Node6</title>
<g id="a_edge28_Node000005_Node000006"><a xlink:title=" ">
<path fill="none" stroke="#63b8ff" d="M505.6,-247.5C520.73,-247.5 536.1,-247.5 550.38,-247.5"/>
<polygon fill="#63b8ff" stroke="#63b8ff" points="505.18,-244 495.18,-247.5 505.18,-251 505.18,-244"/>
</a>
</g>
</g>
<!-- Node9 -->
<g id="Node000009" class="node">
<title>Node9</title>
<g id="a_Node000009"><a xlink:href="classdasynq_1_1v2_1_1dprivate_1_1base__bidi__fd__watcher.html" target="_top" xlink:title=" ">
<polygon fill="white" stroke="#666666" points="474,-167.5 346,-167.5 346,-137.5 474,-137.5 474,-167.5"/>
<text text-anchor="start" x="354" y="-155.5" font-family="Helvetica,sans-Serif" font-size="10.00">dasynq::v2::dprivate</text>
<text text-anchor="middle" x="410" y="-144.5" font-family="Helvetica,sans-Serif" font-size="10.00">::base_bidi_fd_watcher</text>
</a>
</g>
</g>
<!-- Node8&#45;&gt;Node9 -->
<g id="edge31_Node000008_Node000009" class="edge">
<title>Node8&#45;&gt;Node9</title>
<g id="a_edge31_Node000008_Node000009"><a xlink:title=" ">
<path fill="none" stroke="#63b8ff" d="M288.67,-137.1C307.25,-139.48 327.35,-142.05 345.71,-144.4"/>
<polygon fill="#63b8ff" stroke="#63b8ff" points="288.88,-133.6 278.52,-135.8 287.99,-140.54 288.88,-133.6"/>
</a>
</g>
</g>
<!-- Node12 -->
<g id="Node000012" class="node">
<title>Node12</title>
<g id="a_Node000012"><a xlink:href="classdasynq_1_1v2_1_1dprivate_1_1fd__watcher.html" target="_top" xlink:title=" ">
<polygon fill="white" stroke="#666666" points="485,-119.5 335,-119.5 335,-89.5 485,-89.5 485,-119.5"/>
<text text-anchor="start" x="343" y="-107.5" font-family="Helvetica,sans-Serif" font-size="10.00">dasynq::v2::dprivate</text>
<text text-anchor="middle" x="410" y="-96.5" font-family="Helvetica,sans-Serif" font-size="10.00">::fd_watcher&lt; EventLoop &gt;</text>
</a>
</g>
</g>
<!-- Node8&#45;&gt;Node12 -->
<g id="edge34_Node000008_Node000012" class="edge">
<title>Node8&#45;&gt;Node12</title>
<g id="a_edge34_Node000008_Node000012"><a xlink:title=" ">
<path fill="none" stroke="#8b1a1a" d="M288.72,-119.9C303.71,-117.98 319.69,-115.93 334.94,-113.98"/>
<polygon fill="#8b1a1a" stroke="#8b1a1a" points="287.99,-116.46 278.52,-121.2 288.88,-123.4 287.99,-116.46"/>
</a>
</g>
</g>
<!-- Node10 -->
<g id="Node000010" class="node">
<title>Node10</title>
<g id="a_Node000010"><a xlink:href="classdasynq_1_1v2_1_1dprivate_1_1bidi__fd__watcher.html" target="_top" xlink:title=" ">
<polygon fill="white" stroke="#666666" points="704,-170.5 531,-170.5 531,-140.5 704,-140.5 704,-170.5"/>
<text text-anchor="start" x="539" y="-158.5" font-family="Helvetica,sans-Serif" font-size="10.00">dasynq::v2::dprivate</text>
<text text-anchor="middle" x="617.5" y="-147.5" font-family="Helvetica,sans-Serif" font-size="10.00">::bidi_fd_watcher&lt; EventLoop &gt;</text>
</a>
</g>
</g>
<!-- Node9&#45;&gt;Node10 -->
<g id="edge32_Node000009_Node000010" class="edge">
<title>Node9&#45;&gt;Node10</title>
<g id="a_edge32_Node000009_Node000010"><a xlink:title=" ">
<path fill="none" stroke="#8b1a1a" d="M484.32,-153.57C499.4,-153.79 515.4,-154.02 530.86,-154.25"/>
<polygon fill="#8b1a1a" stroke="#8b1a1a" points="484.1,-150.07 474.05,-153.42 484,-157.07 484.1,-150.07"/>
</a>
</g>
</g>
<!-- Node11 -->
<g id="Node000011" class="node">
<title>Node11</title>
<g id="a_Node000011"><a xlink:href="classdasynq_1_1v2_1_1dprivate_1_1bidi__fd__watcher__impl.html" target="_top" xlink:title=" ">
<polygon fill="white" stroke="#666666" points="874,-176 740,-176 740,-135 874,-135 874,-176"/>
<text text-anchor="start" x="748" y="-164" font-family="Helvetica,sans-Serif" font-size="10.00">dasynq::v2::dprivate</text>
<text text-anchor="start" x="748" y="-153" font-family="Helvetica,sans-Serif" font-size="10.00">::bidi_fd_watcher_impl</text>
<text text-anchor="middle" x="807" y="-142" font-family="Helvetica,sans-Serif" font-size="10.00">&lt; EventLoop, Derived &gt;</text>
</a>
</g>
</g>
<!-- Node10&#45;&gt;Node11 -->
<g id="edge33_Node000010_Node000011" class="edge">
<title>Node10&#45;&gt;Node11</title>
<g id="a_edge33_Node000010_Node000011"><a xlink:title=" ">
<path fill="none" stroke="#63b8ff" d="M714.23,-155.5C722.94,-155.5 731.62,-155.5 739.98,-155.5"/>
<polygon fill="#63b8ff" stroke="#63b8ff" points="714.02,-152 704.02,-155.5 714.02,-159 714.02,-152"/>
</a>
</g>
</g>
<!-- Node13 -->
<g id="Node000013" class="node">
<title>Node13</title>
<g id="a_Node000013"><a xlink:href="classdasynq_1_1v2_1_1dprivate_1_1fd__watcher__impl.html" target="_top" xlink:title=" ">
<polygon fill="white" stroke="#666666" points="702,-122 533,-122 533,-81 702,-81 702,-122"/>
<text text-anchor="start" x="541" y="-110" font-family="Helvetica,sans-Serif" font-size="10.00">dasynq::v2::dprivate</text>
<text text-anchor="start" x="541" y="-99" font-family="Helvetica,sans-Serif" font-size="10.00">::fd_watcher_impl&lt; EventLoop,</text>
<text text-anchor="middle" x="617.5" y="-88" font-family="Helvetica,sans-Serif" font-size="10.00"> Derived &gt;</text>
</a>
</g>
</g>
<!-- Node12&#45;&gt;Node13 -->
<g id="edge35_Node000012_Node000013" class="edge">
<title>Node12&#45;&gt;Node13</title>
<g id="a_edge35_Node000012_Node000013"><a xlink:title=" ">
<path fill="none" stroke="#63b8ff" d="M495.42,-103.27C507.71,-103.09 520.37,-102.9 532.66,-102.72"/>
<polygon fill="#63b8ff" stroke="#63b8ff" points="495.14,-99.77 485.19,-103.42 495.24,-106.77 495.14,-99.77"/>
</a>
</g>
</g>
<!-- Node16 -->
<g id="Node000016" class="node">
<title>Node16</title>
<g id="a_Node000016"><a xlink:href="classdasynq_1_1v2_1_1dprivate_1_1timer.html" target="_top" xlink:title=" ">
<polygon fill="white" stroke="#666666" points="471,-35.5 349,-35.5 349,-5.5 471,-5.5 471,-35.5"/>
<text text-anchor="start" x="357" y="-23.5" font-family="Helvetica,sans-Serif" font-size="10.00">dasynq::v2::dprivate</text>
<text text-anchor="middle" x="410" y="-12.5" font-family="Helvetica,sans-Serif" font-size="10.00">::timer&lt; EventLoop &gt;</text>
</a>
</g>
</g>
<!-- Node15&#45;&gt;Node16 -->
<g id="edge38_Node000015_Node000016" class="edge">
<title>Node15&#45;&gt;Node16</title>
<g id="a_edge38_Node000015_Node000016"><a xlink:title=" ">
<path fill="none" stroke="#8b1a1a" d="M291.61,-20.5C310.46,-20.5 330.67,-20.5 348.92,-20.5"/>
<polygon fill="#8b1a1a" stroke="#8b1a1a" points="291.6,-17 281.6,-20.5 291.6,-24 291.6,-17"/>
</a>
</g>
</g>
<!-- Node17 -->
<g id="Node000017" class="node">
<title>Node17</title>
<g id="a_Node000017"><a xlink:href="classdasynq_1_1v2_1_1dprivate_1_1timer__impl.html" target="_top" xlink:title=" ">
<polygon fill="white" stroke="#666666" points="688,-41 547,-41 547,0 688,0 688,-41"/>
<text text-anchor="start" x="555" y="-29" font-family="Helvetica,sans-Serif" font-size="10.00">dasynq::v2::dprivate</text>
<text text-anchor="start" x="555" y="-18" font-family="Helvetica,sans-Serif" font-size="10.00">::timer_impl&lt; EventLoop,</text>
<text text-anchor="middle" x="617.5" y="-7" font-family="Helvetica,sans-Serif" font-size="10.00"> Derived &gt;</text>
</a>
</g>
</g>
<!-- Node16&#45;&gt;Node17 -->
<g id="edge39_Node000016_Node000017" class="edge">
<title>Node16&#45;&gt;Node17</title>
<g id="a_edge39_Node000016_Node000017"><a xlink:title=" ">
<path fill="none" stroke="#63b8ff" d="M481.46,-20.5C502.59,-20.5 525.75,-20.5 546.82,-20.5"/>
<polygon fill="#63b8ff" stroke="#63b8ff" points="481.27,-17 471.27,-20.5 481.27,-24 481.27,-17"/>
</a>
</g>
</g>
</g>
</svg>
