<?xml version="1.0" encoding="UTF-8" standalone="no"?>
<!DOCTYPE svg PUBLIC "-//W3C//DTD SVG 1.1//EN"
 "http://www.w3.org/Graphics/SVG/1.1/DTD/svg11.dtd">
<!-- Generated by graphviz version 2.43.0 (0)
 -->
<!-- Title: Graphical Class Hierarchy Pages: 1 -->
<svg width="267pt" height="205pt"
 viewBox="0.00 0.00 267.00 204.50" xmlns="http://www.w3.org/2000/svg" xmlns:xlink="http://www.w3.org/1999/xlink">
<g id="graph0" class="graph" transform="scale(1 1) rotate(0) translate(4 200.5)">
<title>Graphical Class Hierarchy</title>
<!-- Node0 -->
<g id="Node000000" class="node">
<title>Node0</title>
<g id="a_Node000000"><a xlink:title=" ">
<polygon fill="#e0e0e0" stroke="#999999" points="81,-99.5 0,-99.5 0,-80.5 81,-80.5 81,-99.5"/>
<text text-anchor="middle" x="40.5" y="-87.5" font-family="Helvetica,sans-Serif" font-size="10.00">Base::traits_t</text>
</a>
</g>
</g>
<!-- Node1 -->
<g id="Node000001" class="node">
<title>Node1</title>
<g id="a_Node000001"><a xlink:href="classdasynq_1_1itimer__events_1_1traits__t.html" target="_top" xlink:title=" ">
<polygon fill="white" stroke="#666666" points="252,-196.5 124,-196.5 124,-155.5 252,-155.5 252,-196.5"/>
<text text-anchor="start" x="132" y="-184.5" font-family="Helvetica,sans-Serif" font-size="10.00">dasynq::itimer_events</text>
<text text-anchor="start" x="132" y="-173.5" font-family="Helvetica,sans-Serif" font-size="10.00">&lt; Base, provide_mono</text>
<text text-anchor="middle" x="188" y="-162.5" font-family="Helvetica,sans-Serif" font-size="10.00">_timer &gt;::traits_t</text>
</a>
</g>
</g>
<!-- Node0&#45;&gt;Node1 -->
<g id="edge16_Node000000_Node000001" class="edge">
<title>Node0&#45;&gt;Node1</title>
<g id="a_edge16_Node000000_Node000001"><a xlink:title=" ">
<path fill="none" stroke="#63b8ff" d="M60.49,-106.5C75.21,-118.74 96.5,-135.27 117,-147 122.14,-149.94 127.63,-152.74 133.2,-155.36"/>
<polygon fill="#63b8ff" stroke="#63b8ff" points="62.53,-103.64 52.63,-99.85 58.01,-108.98 62.53,-103.64"/>
</a>
</g>
</g>
<!-- Node2 -->
<g id="Node000002" class="node">
<title>Node2</title>
<g id="a_Node000002"><a xlink:href="classdasynq_1_1posix__timer__events_1_1traits__t.html" target="_top" xlink:title=" ">
<polygon fill="white" stroke="#666666" points="254.5,-137.5 121.5,-137.5 121.5,-96.5 254.5,-96.5 254.5,-137.5"/>
<text text-anchor="start" x="129.5" y="-125.5" font-family="Helvetica,sans-Serif" font-size="10.00">dasynq::posix_timer</text>
<text text-anchor="start" x="129.5" y="-114.5" font-family="Helvetica,sans-Serif" font-size="10.00">_events&lt; Base, provide</text>
<text text-anchor="middle" x="188" y="-103.5" font-family="Helvetica,sans-Serif" font-size="10.00">_mono_timer &gt;::traits_t</text>
</a>
</g>
</g>
<!-- Node0&#45;&gt;Node2 -->
<g id="edge17_Node000000_Node000002" class="edge">
<title>Node0&#45;&gt;Node2</title>
<g id="a_edge17_Node000000_Node000002"><a xlink:title=" ">
<path fill="none" stroke="#63b8ff" d="M91.11,-99.21C100.81,-101.01 111.13,-102.92 121.26,-104.8"/>
<polygon fill="#63b8ff" stroke="#63b8ff" points="91.73,-95.76 81.26,-97.38 90.45,-102.64 91.73,-95.76"/>
</a>
</g>
</g>
<!-- Node3 -->
<g id="Node000003" class="node">
<title>Node3</title>
<g id="a_Node000003"><a xlink:href="classdasynq_1_1timer__fd__events_1_1traits__t.html" target="_top" xlink:title=" ">
<polygon fill="white" stroke="#666666" points="256.5,-78 119.5,-78 119.5,-48 256.5,-48 256.5,-78"/>
<text text-anchor="start" x="127.5" y="-66" font-family="Helvetica,sans-Serif" font-size="10.00">dasynq::timer_fd_events</text>
<text text-anchor="middle" x="188" y="-55" font-family="Helvetica,sans-Serif" font-size="10.00">&lt; Base &gt;::traits_t</text>
</a>
</g>
</g>
<!-- Node0&#45;&gt;Node3 -->
<g id="edge18_Node000000_Node000003" class="edge">
<title>Node0&#45;&gt;Node3</title>
<g id="a_edge18_Node000000_Node000003"><a xlink:title=" ">
<path fill="none" stroke="#63b8ff" d="M91.22,-80.77C100.26,-79.1 109.84,-77.32 119.31,-75.56"/>
<polygon fill="#63b8ff" stroke="#63b8ff" points="90.45,-77.36 81.26,-82.62 91.73,-84.24 90.45,-77.36"/>
</a>
</g>
</g>
<!-- Node4 -->
<g id="Node000004" class="node">
<title>Node4</title>
<g id="a_Node000004"><a xlink:href="classdasynq_1_1v2_1_1child__proc__events_1_1traits__t.html" target="_top" xlink:title=" ">
<polygon fill="white" stroke="#666666" points="259,-30 117,-30 117,0 259,0 259,-30"/>
<text text-anchor="start" x="125" y="-18" font-family="Helvetica,sans-Serif" font-size="10.00">dasynq::v2::child_proc</text>
<text text-anchor="middle" x="188" y="-7" font-family="Helvetica,sans-Serif" font-size="10.00">_events&lt; Base &gt;::traits_t</text>
</a>
</g>
</g>
<!-- Node0&#45;&gt;Node4 -->
<g id="edge19_Node000000_Node000004" class="edge">
<title>Node0&#45;&gt;Node4</title>
<g id="a_edge19_Node000000_Node000004"><a xlink:title=" ">
<path fill="none" stroke="#63b8ff" d="M61.76,-74.15C76.47,-63.19 97.19,-48.87 117,-39 123.55,-35.73 130.66,-32.73 137.75,-30.04"/>
<polygon fill="#63b8ff" stroke="#63b8ff" points="59.29,-71.63 53.44,-80.46 63.52,-77.2 59.29,-71.63"/>
</a>
</g>
</g>
</g>
</svg>
