<?xml version="1.0" encoding="UTF-8" standalone="no"?>
<!DOCTYPE svg PUBLIC "-//W3C//DTD SVG 1.1//EN"
 "http://www.w3.org/Graphics/SVG/1.1/DTD/svg11.dtd">
<!-- Generated by graphviz version 2.43.0 (0)
 -->
<!-- Title: Graphical Class Hierarchy Pages: 1 -->
<svg width="311pt" height="76pt"
 viewBox="0.00 0.00 311.00 75.50" xmlns="http://www.w3.org/2000/svg" xmlns:xlink="http://www.w3.org/1999/xlink">
<g id="graph0" class="graph" transform="scale(1 1) rotate(0) translate(4 71.5)">
<title>Graphical Class Hierarchy</title>
<!-- Node0 -->
<g id="Node000000" class="node">
<title>Node0</title>
<g id="a_Node000000"><a xlink:href="classdasynq_1_1signal__traits.html" target="_top" xlink:title=" ">
<polygon fill="white" stroke="#666666" points="118,-45.5 0,-45.5 0,-26.5 118,-26.5 118,-45.5"/>
<text text-anchor="middle" x="59" y="-33.5" font-family="Helvetica,sans-Serif" font-size="10.00">dasynq::signal_traits</text>
</a>
</g>
</g>
<!-- Node1 -->
<g id="Node000001" class="node">
<title>Node1</title>
<g id="a_Node000001"><a xlink:href="classdasynq_1_1select__traits.html" target="_top" xlink:title=" ">
<polygon fill="white" stroke="#666666" points="287.5,-67.5 169.5,-67.5 169.5,-48.5 287.5,-48.5 287.5,-67.5"/>
<text text-anchor="middle" x="228.5" y="-55.5" font-family="Helvetica,sans-Serif" font-size="10.00">dasynq::select_traits</text>
</a>
</g>
</g>
<!-- Node0&#45;&gt;Node1 -->
<g id="edge21_Node000000_Node000001" class="edge">
<title>Node0&#45;&gt;Node1</title>
<g id="a_edge21_Node000000_Node000001"><a xlink:title=" ">
<path fill="none" stroke="#63b8ff" d="M128.41,-44.98C142.04,-46.78 156.24,-48.64 169.49,-50.38"/>
<polygon fill="#63b8ff" stroke="#63b8ff" points="128.48,-41.46 118.11,-43.63 127.57,-48.41 128.48,-41.46"/>
</a>
</g>
</g>
<!-- Node2 -->
<g id="Node000002" class="node">
<title>Node2</title>
<g id="a_Node000002"><a xlink:href="classdasynq_1_1v2_1_1macos__kqueue__traits.html" target="_top" xlink:title=" ">
<polygon fill="white" stroke="#666666" points="303,-30 154,-30 154,0 303,0 303,-30"/>
<text text-anchor="start" x="162" y="-18" font-family="Helvetica,sans-Serif" font-size="10.00">dasynq::v2::macos_kqueue</text>
<text text-anchor="middle" x="228.5" y="-7" font-family="Helvetica,sans-Serif" font-size="10.00">_traits</text>
</a>
</g>
</g>
<!-- Node0&#45;&gt;Node2 -->
<g id="edge22_Node000000_Node000002" class="edge">
<title>Node0&#45;&gt;Node2</title>
<g id="a_edge22_Node000000_Node000002"><a xlink:title=" ">
<path fill="none" stroke="#63b8ff" d="M128.27,-27.44C136.7,-26.38 145.34,-25.3 153.85,-24.23"/>
<polygon fill="#63b8ff" stroke="#63b8ff" points="127.6,-24 118.11,-28.71 128.47,-30.94 127.6,-24"/>
</a>
</g>
</g>
</g>
</svg>
