<?xml version="1.0" encoding="UTF-8" standalone="no"?>
<!DOCTYPE svg PUBLIC "-//W3C//DTD SVG 1.1//EN"
 "http://www.w3.org/Graphics/SVG/1.1/DTD/svg11.dtd">
<!-- Generated by graphviz version 2.43.0 (0)
 -->
<!-- Title: Graphical Class Hierarchy Pages: 1 -->
<svg width="294pt" height="138pt"
 viewBox="0.00 0.00 294.00 138.00" xmlns="http://www.w3.org/2000/svg" xmlns:xlink="http://www.w3.org/1999/xlink">
<g id="graph0" class="graph" transform="scale(1 1) rotate(0) translate(4 134)">
<title>Graphical Class Hierarchy</title>
<!-- Node0 -->
<g id="Node000000" class="node">
<title>Node0</title>
<g id="a_Node000000"><a xlink:href="classservice__load__exc.html" target="_top" xlink:title=" ">
<polygon fill="white" stroke="#666666" points="101,-74 0,-74 0,-55 101,-55 101,-74"/>
<text text-anchor="middle" x="50.5" y="-62" font-family="Helvetica,sans-Serif" font-size="10.00">service_load_exc</text>
</a>
</g>
</g>
<!-- Node1 -->
<g id="Node000001" class="node">
<title>Node1</title>
<g id="a_Node000001"><a xlink:href="classservice__cyclic__dependency.html" target="_top" xlink:title=" ">
<polygon fill="white" stroke="#666666" points="286,-130 137,-130 137,-111 286,-111 286,-130"/>
<text text-anchor="middle" x="211.5" y="-118" font-family="Helvetica,sans-Serif" font-size="10.00">service_cyclic_dependency</text>
</a>
</g>
</g>
<!-- Node0&#45;&gt;Node1 -->
<g id="edge58_Node000000_Node000001" class="edge">
<title>Node0&#45;&gt;Node1</title>
<g id="a_edge58_Node000000_Node000001"><a xlink:title=" ">
<path fill="none" stroke="#63b8ff" d="M79.53,-78.48C95.98,-86.29 117.34,-95.78 137,-102.5 146.2,-105.64 156.22,-108.47 165.82,-110.91"/>
<polygon fill="#63b8ff" stroke="#63b8ff" points="80.99,-75.29 70.46,-74.1 77.95,-81.6 80.99,-75.29"/>
</a>
</g>
</g>
<!-- Node2 -->
<g id="Node000002" class="node">
<title>Node2</title>
<g id="a_Node000002"><a xlink:href="classservice__description__exc.html" target="_top" xlink:title=" ">
<polygon fill="white" stroke="#666666" points="278.5,-93 144.5,-93 144.5,-74 278.5,-74 278.5,-93"/>
<text text-anchor="middle" x="211.5" y="-81" font-family="Helvetica,sans-Serif" font-size="10.00">service_description_exc</text>
</a>
</g>
</g>
<!-- Node0&#45;&gt;Node2 -->
<g id="edge59_Node000000_Node000002" class="edge">
<title>Node0&#45;&gt;Node2</title>
<g id="a_edge59_Node000000_Node000002"><a xlink:title=" ">
<path fill="none" stroke="#63b8ff" d="M111.51,-71.67C122.27,-72.96 133.55,-74.3 144.47,-75.61"/>
<polygon fill="#63b8ff" stroke="#63b8ff" points="111.72,-68.17 101.37,-70.46 110.89,-75.12 111.72,-68.17"/>
</a>
</g>
</g>
<!-- Node3 -->
<g id="Node000003" class="node">
<title>Node3</title>
<g id="a_Node000003"><a xlink:href="classservice__load__error.html" target="_top" xlink:title=" ">
<polygon fill="white" stroke="#666666" points="265,-56 158,-56 158,-37 265,-37 265,-56"/>
<text text-anchor="middle" x="211.5" y="-44" font-family="Helvetica,sans-Serif" font-size="10.00">service_load_error</text>
</a>
</g>
</g>
<!-- Node0&#45;&gt;Node3 -->
<g id="edge60_Node000000_Node000003" class="edge">
<title>Node0&#45;&gt;Node3</title>
<g id="a_edge60_Node000000_Node000003"><a xlink:title=" ">
<path fill="none" stroke="#63b8ff" d="M111.68,-57.69C126.85,-55.97 143.01,-54.14 157.78,-52.47"/>
<polygon fill="#63b8ff" stroke="#63b8ff" points="110.92,-54.25 101.37,-58.85 111.7,-61.21 110.92,-54.25"/>
</a>
</g>
</g>
<!-- Node4 -->
<g id="Node000004" class="node">
<title>Node4</title>
<g id="a_Node000004"><a xlink:href="classservice__not__found.html" target="_top" xlink:title=" ">
<polygon fill="white" stroke="#666666" points="264.5,-19 158.5,-19 158.5,0 264.5,0 264.5,-19"/>
<text text-anchor="middle" x="211.5" y="-7" font-family="Helvetica,sans-Serif" font-size="10.00">service_not_found</text>
</a>
</g>
</g>
<!-- Node0&#45;&gt;Node4 -->
<g id="edge61_Node000000_Node000004" class="edge">
<title>Node0&#45;&gt;Node4</title>
<g id="a_edge61_Node000000_Node000004"><a xlink:title=" ">
<path fill="none" stroke="#63b8ff" d="M81.4,-50.65C97.63,-43.45 118.17,-34.86 137,-28.5 147.36,-25 158.73,-21.77 169.37,-19.01"/>
<polygon fill="#63b8ff" stroke="#63b8ff" points="79.59,-47.62 71.91,-54.91 82.46,-54.01 79.59,-47.62"/>
</a>
</g>
</g>
</g>
</svg>
