<?xml version="1.0" encoding="UTF-8" standalone="no"?>
<!DOCTYPE svg PUBLIC "-//W3C//DTD SVG 1.1//EN"
 "http://www.w3.org/Graphics/SVG/1.1/DTD/svg11.dtd">
<!-- Generated by graphviz version 2.43.0 (0)
 -->
<!-- Title: Graphical Class Hierarchy Pages: 1 -->
<svg width="226pt" height="64pt"
 viewBox="0.00 0.00 226.00 64.00" xmlns="http://www.w3.org/2000/svg" xmlns:xlink="http://www.w3.org/1999/xlink">
<g id="graph0" class="graph" transform="scale(1 1) rotate(0) translate(4 60)">
<title>Graphical Class Hierarchy</title>
<!-- Node0 -->
<g id="Node000000" class="node">
<title>Node0</title>
<g id="a_Node000000"><a xlink:href="classenv__listener.html" target="_top" xlink:title=" ">
<polygon fill="white" stroke="#666666" points="85.5,-56 8.5,-56 8.5,-37 85.5,-37 85.5,-56"/>
<text text-anchor="middle" x="47" y="-44" font-family="Helvetica,sans-Serif" font-size="10.00">env_listener</text>
</a>
</g>
</g>
<!-- Node1 -->
<g id="Node000001" class="node">
<title>Node1</title>
<g id="a_Node000001"><a xlink:href="classcontrol__conn__t.html" target="_top" xlink:title=" ">
<polygon fill="white" stroke="#666666" points="218,-37 130,-37 130,-18 218,-18 218,-37"/>
<text text-anchor="middle" x="174" y="-25" font-family="Helvetica,sans-Serif" font-size="10.00">control_conn_t</text>
</a>
</g>
</g>
<!-- Node0&#45;&gt;Node1 -->
<g id="edge44_Node000000_Node000001" class="edge">
<title>Node0&#45;&gt;Node1</title>
<g id="a_edge44_Node000000_Node000001"><a xlink:title=" ">
<path fill="none" stroke="#8b1a1a" d="M95.6,-39.27C106.84,-37.56 118.78,-35.74 129.82,-34.06"/>
<polygon fill="#8b1a1a" stroke="#8b1a1a" points="94.86,-35.84 85.5,-40.8 95.92,-42.76 94.86,-35.84"/>
</a>
</g>
</g>
<!-- Node2 -->
<g id="Node000002" class="node">
<title>Node2</title>
<g id="a_Node000002"><a xlink:href="classservice__listener.html" target="_top" xlink:title=" ">
<polygon fill="white" stroke="#666666" points="94,-19 0,-19 0,0 94,0 94,-19"/>
<text text-anchor="middle" x="47" y="-7" font-family="Helvetica,sans-Serif" font-size="10.00">service_listener</text>
</a>
</g>
</g>
<!-- Node2&#45;&gt;Node1 -->
<g id="edge45_Node000002_Node000001" class="edge">
<title>Node2&#45;&gt;Node1</title>
<g id="a_edge45_Node000002_Node000001"><a xlink:title=" ">
<path fill="none" stroke="#8b1a1a" d="M104.2,-17.59C112.83,-18.84 121.62,-20.1 129.9,-21.29"/>
<polygon fill="#8b1a1a" stroke="#8b1a1a" points="104.59,-14.11 94.19,-16.15 103.59,-21.04 104.59,-14.11"/>
</a>
</g>
</g>
</g>
</svg>
