<?xml version="1.0" encoding="UTF-8" standalone="no"?>
<!DOCTYPE svg PUBLIC "-//W3C//DTD SVG 1.1//EN"
 "http://www.w3.org/Graphics/SVG/1.1/DTD/svg11.dtd">
<!-- Generated by graphviz version 2.43.0 (0)
 -->
<!-- Title: Catch::Generators::RandomIntegerGenerator&lt; Integer &gt; Pages: 1 -->
<svg width="200pt" height="260pt"
 viewBox="0.00 0.00 200.00 260.00" xmlns="http://www.w3.org/2000/svg" xmlns:xlink="http://www.w3.org/1999/xlink">
<g id="graph0" class="graph" transform="scale(1 1) rotate(0) translate(4 256)">
<title>Catch::Generators::RandomIntegerGenerator&lt; Integer &gt;</title>
<!-- Node1 -->
<g id="Node000001" class="node">
<title>Node1</title>
<g id="a_Node000001"><a xlink:title=" ">
<polygon fill="#999999" stroke="#666666" points="140,-41 0,-41 0,0 140,0 140,-41"/>
<text text-anchor="start" x="8" y="-29" font-family="Helvetica,sans-Serif" font-size="10.00">Catch::Generators::</text>
<text text-anchor="start" x="8" y="-18" font-family="Helvetica,sans-Serif" font-size="10.00">RandomIntegerGenerator</text>
<text text-anchor="middle" x="70" y="-7" font-family="Helvetica,sans-Serif" font-size="10.00">&lt; Integer &gt;</text>
</a>
</g>
</g>
<!-- Node2 -->
<g id="Node000002" class="node">
<title>Node2</title>
<g id="a_Node000002"><a xlink:href="structCatch_1_1Generators_1_1IGenerator.html" target="_top" xlink:title=" ">
<polygon fill="white" stroke="#666666" points="132.5,-108 7.5,-108 7.5,-78 132.5,-78 132.5,-108"/>
<text text-anchor="start" x="15.5" y="-96" font-family="Helvetica,sans-Serif" font-size="10.00">Catch::Generators::</text>
<text text-anchor="middle" x="70" y="-85" font-family="Helvetica,sans-Serif" font-size="10.00">IGenerator&lt; Integer &gt;</text>
</a>
</g>
</g>
<!-- Node2&#45;&gt;Node1 -->
<g id="edge1_Node000001_Node000002" class="edge">
<title>Node2&#45;&gt;Node1</title>
<g id="a_edge1_Node000001_Node000002"><a xlink:title=" ">
<path fill="none" stroke="#63b8ff" d="M70,-67.48C70,-58.85 70,-49.26 70,-41.09"/>
<polygon fill="#63b8ff" stroke="#63b8ff" points="66.5,-67.73 70,-77.73 73.5,-67.73 66.5,-67.73"/>
</a>
</g>
</g>
<!-- Node3 -->
<g id="Node000003" class="node">
<title>Node3</title>
<g id="a_Node000003"><a xlink:href="classCatch_1_1Generators_1_1GeneratorUntypedBase.html" target="_top" xlink:title=" ">
<polygon fill="white" stroke="#666666" points="131.5,-252 0.5,-252 0.5,-222 131.5,-222 131.5,-252"/>
<text text-anchor="start" x="8.5" y="-240" font-family="Helvetica,sans-Serif" font-size="10.00">Catch::Generators::</text>
<text text-anchor="middle" x="66" y="-229" font-family="Helvetica,sans-Serif" font-size="10.00">GeneratorUntypedBase</text>
</a>
</g>
</g>
<!-- Node3&#45;&gt;Node2 -->
<g id="edge2_Node000002_Node000003" class="edge">
<title>Node3&#45;&gt;Node2</title>
<g id="a_edge2_Node000002_Node000003"><a xlink:title=" ">
<path fill="none" stroke="#63b8ff" d="M66.68,-211.86C67.52,-182.04 68.92,-132.28 69.6,-108.08"/>
<polygon fill="#63b8ff" stroke="#63b8ff" points="63.18,-211.77 66.4,-221.87 70.18,-211.97 63.18,-211.77"/>
</a>
</g>
</g>
<!-- Node4 -->
<g id="Node000004" class="node">
<title>Node4</title>
<g id="a_Node000004"><a xlink:href="structCatch_1_1Generators_1_1IGenerator.html" target="_top" xlink:title=" ">
<polygon fill="white" stroke="#666666" points="192,-185 82,-185 82,-155 192,-155 192,-185"/>
<text text-anchor="start" x="90" y="-173" font-family="Helvetica,sans-Serif" font-size="10.00">Catch::Generators::</text>
<text text-anchor="middle" x="137" y="-162" font-family="Helvetica,sans-Serif" font-size="10.00">IGenerator&lt; T &gt;</text>
</a>
</g>
</g>
<!-- Node3&#45;&gt;Node4 -->
<g id="edge4_Node000004_Node000003" class="edge">
<title>Node3&#45;&gt;Node4</title>
<g id="a_edge4_Node000004_Node000003"><a xlink:title=" ">
<path fill="none" stroke="#63b8ff" d="M88.83,-215.1C99.55,-205.28 112.05,-193.84 121.62,-185.08"/>
<polygon fill="#63b8ff" stroke="#63b8ff" points="86.42,-212.56 81.41,-221.9 91.15,-217.72 86.42,-212.56"/>
</a>
</g>
</g>
<!-- Node4&#45;&gt;Node2 -->
<g id="edge3_Node000002_Node000004" class="edge">
<title>Node4&#45;&gt;Node2</title>
<g id="a_edge3_Node000002_Node000004"><a xlink:title=" ">
<path fill="none" stroke="orange" stroke-dasharray="5,2" d="M117.43,-147.1C106.17,-134.49 92.36,-119.03 82.55,-108.04"/>
<polygon fill="orange" stroke="orange" points="115.13,-149.77 124.4,-154.89 120.35,-145.1 115.13,-149.77"/>
</a>
</g>
<text text-anchor="middle" x="137.5" y="-129" font-family="Helvetica,sans-Serif" font-size="10.00" fill="grey"> &lt; Integer &gt;</text>
</g>
</g>
</svg>
