<?xml version="1.0" encoding="UTF-8" standalone="no"?>
<!DOCTYPE svg PUBLIC "-//W3C//DTD SVG 1.1//EN"
 "http://www.w3.org/Graphics/SVG/1.1/DTD/svg11.dtd">
<!-- Generated by graphviz version 2.43.0 (0)
 -->
<!-- Title: Catch::Matchers::Impl::MatcherUntypedBase Pages: 1 -->
<svg width="795pt" height="687pt"
 viewBox="0.00 0.00 795.00 687.00" xmlns="http://www.w3.org/2000/svg" xmlns:xlink="http://www.w3.org/1999/xlink">
<g id="graph0" class="graph" transform="scale(1 1) rotate(0) translate(4 683)">
<title>Catch::Matchers::Impl::MatcherUntypedBase</title>
<!-- Node1 -->
<g id="Node000001" class="node">
<title>Node1</title>
<g id="a_Node000001"><a xlink:title=" ">
<polygon fill="#999999" stroke="#666666" points="128,-582 0,-582 0,-552 128,-552 128,-582"/>
<text text-anchor="start" x="8" y="-570" font-family="Helvetica,sans-Serif" font-size="10.00">Catch::Matchers::Impl</text>
<text text-anchor="middle" x="64" y="-559" font-family="Helvetica,sans-Serif" font-size="10.00">::MatcherUntypedBase</text>
</a>
</g>
</g>
<!-- Node2 -->
<g id="Node000002" class="node">
<title>Node2</title>
<g id="a_Node000002"><a xlink:href="structCatch_1_1Matchers_1_1Impl_1_1MatcherBase.html" target="_top" xlink:title=" ">
<polygon fill="white" stroke="#666666" points="588,-679 446,-679 446,-649 588,-649 588,-679"/>
<text text-anchor="start" x="454" y="-667" font-family="Helvetica,sans-Serif" font-size="10.00">Catch::Matchers::Impl</text>
<text text-anchor="middle" x="517" y="-656" font-family="Helvetica,sans-Serif" font-size="10.00">::MatcherBase&lt; double &gt;</text>
</a>
</g>
</g>
<!-- Node1&#45;&gt;Node2 -->
<g id="edge1_Node000001_Node000002" class="edge">
<title>Node1&#45;&gt;Node2</title>
<g id="a_edge1_Node000001_Node000002"><a xlink:title=" ">
<path fill="none" stroke="#63b8ff" d="M101.17,-586.7C119.76,-596.02 143.05,-606.51 165,-613 259.92,-641.09 374.03,-654.01 445.81,-659.74"/>
<polygon fill="#63b8ff" stroke="#63b8ff" points="102.68,-583.54 92.19,-582.1 99.49,-589.77 102.68,-583.54"/>
</a>
</g>
</g>
<!-- Node3 -->
<g id="Node000003" class="node">
<title>Node3</title>
<g id="a_Node000003"><a xlink:href="structCatch_1_1Matchers_1_1Impl_1_1MatcherBase.html" target="_top" xlink:title=" ">
<polygon fill="white" stroke="#666666" points="582.5,-631 451.5,-631 451.5,-601 582.5,-601 582.5,-631"/>
<text text-anchor="start" x="459.5" y="-619" font-family="Helvetica,sans-Serif" font-size="10.00">Catch::Matchers::Impl</text>
<text text-anchor="middle" x="517" y="-608" font-family="Helvetica,sans-Serif" font-size="10.00">::MatcherBase&lt; ArgT &gt;</text>
</a>
</g>
</g>
<!-- Node1&#45;&gt;Node3 -->
<g id="edge2_Node000001_Node000003" class="edge">
<title>Node1&#45;&gt;Node3</title>
<g id="a_edge2_Node000001_Node000003"><a xlink:title=" ">
<path fill="none" stroke="#63b8ff" d="M137.91,-583.87C185.48,-594.07 249.08,-606.18 306,-612 354.61,-616.97 409.87,-617.83 451.5,-617.52"/>
<polygon fill="#63b8ff" stroke="#63b8ff" points="138.53,-580.42 128.01,-581.73 137.04,-587.26 138.53,-580.42"/>
</a>
</g>
</g>
<!-- Node7 -->
<g id="Node000007" class="node">
<title>Node7</title>
<g id="a_Node000007"><a xlink:href="structCatch_1_1Matchers_1_1Impl_1_1MatcherBase.html" target="_top" xlink:title=" ">
<polygon fill="white" stroke="#666666" points="596,-582 438,-582 438,-552 596,-552 596,-582"/>
<text text-anchor="start" x="446" y="-570" font-family="Helvetica,sans-Serif" font-size="10.00">Catch::Matchers::Impl</text>
<text text-anchor="middle" x="517" y="-559" font-family="Helvetica,sans-Serif" font-size="10.00">::MatcherBase&lt; std::string &gt;</text>
</a>
</g>
</g>
<!-- Node1&#45;&gt;Node7 -->
<g id="edge6_Node000001_Node000007" class="edge">
<title>Node1&#45;&gt;Node7</title>
<g id="a_edge6_Node000001_Node000007"><a xlink:title=" ">
<path fill="none" stroke="#63b8ff" d="M138.2,-567C220.46,-567 353.45,-567 437.73,-567"/>
<polygon fill="#63b8ff" stroke="#63b8ff" points="138.18,-563.5 128.18,-567 138.18,-570.5 138.18,-563.5"/>
</a>
</g>
</g>
<!-- Node8 -->
<g id="Node000008" class="node">
<title>Node8</title>
<g id="a_Node000008"><a xlink:href="structCatch_1_1Matchers_1_1Impl_1_1MatcherBase.html" target="_top" xlink:title=" ">
<polygon fill="white" stroke="#666666" points="591.5,-533.5 442.5,-533.5 442.5,-492.5 591.5,-492.5 591.5,-533.5"/>
<text text-anchor="start" x="450.5" y="-521.5" font-family="Helvetica,sans-Serif" font-size="10.00">Catch::Matchers::Impl</text>
<text text-anchor="start" x="450.5" y="-510.5" font-family="Helvetica,sans-Serif" font-size="10.00">::MatcherBase&lt; std::vector</text>
<text text-anchor="middle" x="517" y="-499.5" font-family="Helvetica,sans-Serif" font-size="10.00">&lt; T &gt; &gt;</text>
</a>
</g>
</g>
<!-- Node1&#45;&gt;Node8 -->
<g id="edge7_Node000001_Node000008" class="edge">
<title>Node1&#45;&gt;Node8</title>
<g id="a_edge7_Node000001_Node000008"><a xlink:title=" ">
<path fill="none" stroke="#63b8ff" d="M137.96,-550.59C185.54,-540.58 249.15,-528.49 306,-522 351.14,-516.84 402.04,-514.58 442.43,-513.6"/>
<polygon fill="#63b8ff" stroke="#63b8ff" points="137.11,-547.19 128.06,-552.69 138.57,-554.04 137.11,-547.19"/>
</a>
</g>
</g>
<!-- Node9 -->
<g id="Node000009" class="node">
<title>Node9</title>
<g id="a_Node000009"><a xlink:href="structCatch_1_1Matchers_1_1Impl_1_1MatcherBase.html" target="_top" xlink:title=" ">
<polygon fill="white" stroke="#666666" points="288,-378 165,-378 165,-348 288,-348 288,-378"/>
<text text-anchor="start" x="173" y="-366" font-family="Helvetica,sans-Serif" font-size="10.00">Catch::Matchers::Impl</text>
<text text-anchor="middle" x="226.5" y="-355" font-family="Helvetica,sans-Serif" font-size="10.00">::MatcherBase&lt; T &gt;</text>
</a>
</g>
</g>
<!-- Node1&#45;&gt;Node9 -->
<g id="edge8_Node000001_Node000009" class="edge">
<title>Node1&#45;&gt;Node9</title>
<g id="a_edge8_Node000001_Node000009"><a xlink:title=" ">
<path fill="none" stroke="#63b8ff" d="M83.11,-543.98C116.27,-501.83 185.9,-413.34 213.68,-378.02"/>
<polygon fill="#63b8ff" stroke="#63b8ff" points="80.23,-541.98 76.8,-552 85.74,-546.3 80.23,-541.98"/>
</a>
</g>
</g>
<!-- Node4 -->
<g id="Node000004" class="node">
<title>Node4</title>
<g id="a_Node000004"><a xlink:href="structCatch_1_1Matchers_1_1Impl_1_1MatchAllOf.html" target="_top" xlink:title=" ">
<polygon fill="white" stroke="#666666" points="775.5,-679 652.5,-679 652.5,-649 775.5,-649 775.5,-679"/>
<text text-anchor="start" x="660.5" y="-667" font-family="Helvetica,sans-Serif" font-size="10.00">Catch::Matchers::Impl</text>
<text text-anchor="middle" x="714" y="-656" font-family="Helvetica,sans-Serif" font-size="10.00">::MatchAllOf&lt; ArgT &gt;</text>
</a>
</g>
</g>
<!-- Node3&#45;&gt;Node4 -->
<g id="edge3_Node000003_Node000004" class="edge">
<title>Node3&#45;&gt;Node4</title>
<g id="a_edge3_Node000003_Node000004"><a xlink:title=" ">
<path fill="none" stroke="#63b8ff" d="M588.9,-633.45C609.72,-638.58 632.28,-644.13 652.39,-649.08"/>
<polygon fill="#63b8ff" stroke="#63b8ff" points="589.71,-630.05 579.16,-631.06 588.04,-636.84 589.71,-630.05"/>
</a>
</g>
</g>
<!-- Node5 -->
<g id="Node000005" class="node">
<title>Node5</title>
<g id="a_Node000005"><a xlink:href="structCatch_1_1Matchers_1_1Impl_1_1MatchAnyOf.html" target="_top" xlink:title=" ">
<polygon fill="white" stroke="#666666" points="778,-631 650,-631 650,-601 778,-601 778,-631"/>
<text text-anchor="start" x="658" y="-619" font-family="Helvetica,sans-Serif" font-size="10.00">Catch::Matchers::Impl</text>
<text text-anchor="middle" x="714" y="-608" font-family="Helvetica,sans-Serif" font-size="10.00">::MatchAnyOf&lt; ArgT &gt;</text>
</a>
</g>
</g>
<!-- Node3&#45;&gt;Node5 -->
<g id="edge4_Node000003_Node000005" class="edge">
<title>Node3&#45;&gt;Node5</title>
<g id="a_edge4_Node000003_Node000005"><a xlink:title=" ">
<path fill="none" stroke="#63b8ff" d="M592.69,-616C611.55,-616 631.61,-616 649.84,-616"/>
<polygon fill="#63b8ff" stroke="#63b8ff" points="592.66,-612.5 582.66,-616 592.66,-619.5 592.66,-612.5"/>
</a>
</g>
</g>
<!-- Node6 -->
<g id="Node000006" class="node">
<title>Node6</title>
<g id="a_Node000006"><a xlink:href="structCatch_1_1Matchers_1_1Impl_1_1MatchNotOf.html" target="_top" xlink:title=" ">
<polygon fill="white" stroke="#666666" points="777,-583 651,-583 651,-553 777,-553 777,-583"/>
<text text-anchor="start" x="659" y="-571" font-family="Helvetica,sans-Serif" font-size="10.00">Catch::Matchers::Impl</text>
<text text-anchor="middle" x="714" y="-560" font-family="Helvetica,sans-Serif" font-size="10.00">::MatchNotOf&lt; ArgT &gt;</text>
</a>
</g>
</g>
<!-- Node3&#45;&gt;Node6 -->
<g id="edge5_Node000003_Node000006" class="edge">
<title>Node3&#45;&gt;Node6</title>
<g id="a_edge5_Node000003_Node000006"><a xlink:title=" ">
<path fill="none" stroke="#63b8ff" d="M589.14,-598.49C609.77,-593.41 632.1,-587.91 652.05,-583"/>
<polygon fill="#63b8ff" stroke="#63b8ff" points="588.04,-595.16 579.16,-600.94 589.71,-601.95 588.04,-595.16"/>
</a>
</g>
</g>
<!-- Node9&#45;&gt;Node2 -->
<g id="edge23_Node000009_Node000002" class="edge">
<title>Node9&#45;&gt;Node2</title>
<g id="a_edge23_Node000009_Node000002"><a xlink:title=" ">
<path fill="none" stroke="orange" stroke-dasharray="5,2" d="M230.59,-388.29C237.13,-431.94 256.12,-522.11 306,-578 347.03,-623.97 372.51,-617.84 430,-640 438.39,-643.23 447.39,-646.23 456.3,-648.94"/>
<polygon fill="orange" stroke="orange" points="234.04,-387.66 229.18,-378.24 227.1,-388.63 234.04,-387.66"/>
</a>
</g>
<text text-anchor="middle" x="359" y="-636" font-family="Helvetica,sans-Serif" font-size="10.00" fill="grey"> &lt; double &gt;</text>
</g>
<!-- Node9&#45;&gt;Node3 -->
<g id="edge24_Node000009_Node000003" class="edge">
<title>Node9&#45;&gt;Node3</title>
<g id="a_edge24_Node000009_Node000003"><a xlink:title=" ">
<path fill="none" stroke="orange" stroke-dasharray="5,2" d="M234.44,-388.38C244.85,-422.2 267.51,-482.06 306,-519 343.31,-554.81 371.67,-534.63 412,-567 422.4,-575.34 419.03,-583.42 430,-591 436.52,-595.51 443.86,-599.22 451.43,-602.26"/>
<polygon fill="orange" stroke="orange" points="237.67,-386.98 231.48,-378.38 230.96,-388.96 237.67,-386.98"/>
</a>
</g>
<text text-anchor="middle" x="359" y="-570" font-family="Helvetica,sans-Serif" font-size="10.00" fill="grey"> &lt; ArgT &gt;</text>
</g>
<!-- Node9&#45;&gt;Node7 -->
<g id="edge25_Node000009_Node000007" class="edge">
<title>Node9&#45;&gt;Node7</title>
<g id="a_edge25_Node000009_Node000007"><a xlink:title=" ">
<path fill="none" stroke="orange" stroke-dasharray="5,2" d="M242.14,-386.85C256.29,-408.29 279.45,-439.49 306,-460 346.92,-491.62 374.32,-472.58 412,-508 424.46,-519.71 416.74,-531.2 430,-542 434.7,-545.83 439.97,-549.07 445.52,-551.82"/>
<polygon fill="orange" stroke="orange" points="245,-384.82 236.64,-378.31 239.12,-388.62 245,-384.82"/>
</a>
</g>
<text text-anchor="middle" x="359" y="-511" font-family="Helvetica,sans-Serif" font-size="10.00" fill="grey"> &lt; std::string &gt;</text>
</g>
<!-- Node9&#45;&gt;Node8 -->
<g id="edge26_Node000009_Node000008" class="edge">
<title>Node9&#45;&gt;Node8</title>
<g id="a_edge26_Node000009_Node000008"><a xlink:title=" ">
<path fill="none" stroke="orange" stroke-dasharray="5,2" d="M249.54,-385.37C264.3,-399.09 284.84,-415.91 306,-426 349.51,-446.75 373.59,-419.87 412,-449 425.62,-459.33 417.03,-471.86 430,-483 434.08,-486.5 438.59,-489.61 443.35,-492.35"/>
<polygon fill="orange" stroke="orange" points="251.61,-382.51 241.97,-378.13 246.78,-387.57 251.61,-382.51"/>
</a>
</g>
<text text-anchor="middle" x="359" y="-452" font-family="Helvetica,sans-Serif" font-size="10.00" fill="grey"> &lt; std::vector&lt; T &gt; &gt;</text>
</g>
<!-- Node10 -->
<g id="Node000010" class="node">
<title>Node10</title>
<g id="a_Node000010"><a xlink:href="structCatch_1_1Matchers_1_1Floating_1_1WithinAbsMatcher.html" target="_top" xlink:title=" ">
<polygon fill="white" stroke="#666666" points="600.5,-378 433.5,-378 433.5,-348 600.5,-348 600.5,-378"/>
<text text-anchor="start" x="441.5" y="-366" font-family="Helvetica,sans-Serif" font-size="10.00">Catch::Matchers::Floating</text>
<text text-anchor="middle" x="517" y="-355" font-family="Helvetica,sans-Serif" font-size="10.00">::WithinAbsMatcher&lt; double &gt;</text>
</a>
</g>
</g>
<!-- Node9&#45;&gt;Node10 -->
<g id="edge9_Node000009_Node000010" class="edge">
<title>Node9&#45;&gt;Node10</title>
<g id="a_edge9_Node000009_Node000010"><a xlink:title=" ">
<path fill="none" stroke="#63b8ff" d="M298.46,-363C339.27,-363 390.74,-363 433.36,-363"/>
<polygon fill="#63b8ff" stroke="#63b8ff" points="298.33,-359.5 288.33,-363 298.33,-366.5 298.33,-359.5"/>
</a>
</g>
</g>
<!-- Node11 -->
<g id="Node000011" class="node">
<title>Node11</title>
<g id="a_Node000011"><a xlink:href="structCatch_1_1Matchers_1_1Floating_1_1WithinUlpsMatcher.html" target="_top" xlink:title=" ">
<polygon fill="white" stroke="#666666" points="602.5,-330 431.5,-330 431.5,-300 602.5,-300 602.5,-330"/>
<text text-anchor="start" x="439.5" y="-318" font-family="Helvetica,sans-Serif" font-size="10.00">Catch::Matchers::Floating</text>
<text text-anchor="middle" x="517" y="-307" font-family="Helvetica,sans-Serif" font-size="10.00">::WithinUlpsMatcher&lt; double &gt;</text>
</a>
</g>
</g>
<!-- Node9&#45;&gt;Node11 -->
<g id="edge10_Node000009_Node000011" class="edge">
<title>Node9&#45;&gt;Node11</title>
<g id="a_edge10_Node000009_Node000011"><a xlink:title=" ">
<path fill="none" stroke="#63b8ff" d="M298.32,-351.22C338.55,-344.52 389.16,-336.1 431.45,-329.07"/>
<polygon fill="#63b8ff" stroke="#63b8ff" points="297.62,-347.79 288.33,-352.88 298.77,-354.69 297.62,-347.79"/>
</a>
</g>
</g>
<!-- Node12 -->
<g id="Node000012" class="node">
<title>Node12</title>
<g id="a_Node000012"><a xlink:href="classCatch_1_1Matchers_1_1Generic_1_1PredicateMatcher.html" target="_top" xlink:title=" ">
<polygon fill="white" stroke="#666666" points="586.5,-282 447.5,-282 447.5,-252 586.5,-252 586.5,-282"/>
<text text-anchor="start" x="455.5" y="-270" font-family="Helvetica,sans-Serif" font-size="10.00">Catch::Matchers::Generic</text>
<text text-anchor="middle" x="517" y="-259" font-family="Helvetica,sans-Serif" font-size="10.00">::PredicateMatcher&lt; T &gt;</text>
</a>
</g>
</g>
<!-- Node9&#45;&gt;Node12 -->
<g id="edge11_Node000009_Node000012" class="edge">
<title>Node9&#45;&gt;Node12</title>
<g id="a_edge11_Node000009_Node000012"><a xlink:title=" ">
<path fill="none" stroke="#63b8ff" d="M270.89,-343.91C282.23,-339.15 294.51,-334.21 306,-330 357.11,-311.27 416.64,-293.8 459.24,-282.04"/>
<polygon fill="#63b8ff" stroke="#63b8ff" points="269.46,-340.72 261.62,-347.84 272.19,-347.16 269.46,-340.72"/>
</a>
</g>
</g>
<!-- Node13 -->
<g id="Node000013" class="node">
<title>Node13</title>
<g id="a_Node000013"><a xlink:href="structCatch_1_1Matchers_1_1StdString_1_1RegexMatcher.html" target="_top" xlink:title=" ">
<polygon fill="white" stroke="#666666" points="599,-234 435,-234 435,-204 599,-204 599,-234"/>
<text text-anchor="start" x="443" y="-222" font-family="Helvetica,sans-Serif" font-size="10.00">Catch::Matchers::StdString</text>
<text text-anchor="middle" x="517" y="-211" font-family="Helvetica,sans-Serif" font-size="10.00">::RegexMatcher&lt; std::string &gt;</text>
</a>
</g>
</g>
<!-- Node9&#45;&gt;Node13 -->
<g id="edge12_Node000009_Node000013" class="edge">
<title>Node9&#45;&gt;Node13</title>
<g id="a_edge12_Node000009_Node000013"><a xlink:title=" ">
<path fill="none" stroke="#63b8ff" d="M248.53,-340.55C263.47,-325.58 284.6,-306.29 306,-293 350.82,-265.16 407.55,-245.97 450.75,-234.12"/>
<polygon fill="#63b8ff" stroke="#63b8ff" points="245.8,-338.33 241.31,-347.93 250.81,-343.23 245.8,-338.33"/>
</a>
</g>
</g>
<!-- Node14 -->
<g id="Node000014" class="node">
<title>Node14</title>
<g id="a_Node000014"><a xlink:href="structCatch_1_1Matchers_1_1StdString_1_1StringMatcherBase.html" target="_top" xlink:title=" ">
<polygon fill="white" stroke="#666666" points="590,-185.5 444,-185.5 444,-144.5 590,-144.5 590,-185.5"/>
<text text-anchor="start" x="452" y="-173.5" font-family="Helvetica,sans-Serif" font-size="10.00">Catch::Matchers::StdString</text>
<text text-anchor="start" x="452" y="-162.5" font-family="Helvetica,sans-Serif" font-size="10.00">::StringMatcherBase&lt; std</text>
<text text-anchor="middle" x="517" y="-151.5" font-family="Helvetica,sans-Serif" font-size="10.00">::string &gt;</text>
</a>
</g>
</g>
<!-- Node9&#45;&gt;Node14 -->
<g id="edge13_Node000009_Node000014" class="edge">
<title>Node9&#45;&gt;Node14</title>
<g id="a_edge13_Node000009_Node000014"><a xlink:title=" ">
<path fill="none" stroke="#63b8ff" d="M237.92,-338.48C250.46,-311.64 273.91,-268.97 306,-243 345.75,-210.83 400.08,-191.12 443.51,-179.57"/>
<polygon fill="#63b8ff" stroke="#63b8ff" points="234.58,-337.38 233.65,-347.93 240.96,-340.26 234.58,-337.38"/>
</a>
</g>
</g>
<!-- Node19 -->
<g id="Node000019" class="node">
<title>Node19</title>
<g id="a_Node000019"><a xlink:href="structCatch_1_1Matchers_1_1Vector_1_1ApproxMatcher.html" target="_top" xlink:title=" ">
<polygon fill="white" stroke="#666666" points="583,-126 451,-126 451,-96 583,-96 583,-126"/>
<text text-anchor="start" x="459" y="-114" font-family="Helvetica,sans-Serif" font-size="10.00">Catch::Matchers::Vector</text>
<text text-anchor="middle" x="517" y="-103" font-family="Helvetica,sans-Serif" font-size="10.00">::ApproxMatcher&lt; T &gt;</text>
</a>
</g>
</g>
<!-- Node9&#45;&gt;Node19 -->
<g id="edge18_Node000009_Node000019" class="edge">
<title>Node9&#45;&gt;Node19</title>
<g id="a_edge18_Node000009_Node000019"><a xlink:title=" ">
<path fill="none" stroke="#63b8ff" d="M232.53,-337.79C241.25,-300.24 262.56,-229.47 306,-187 345.09,-148.78 404.82,-129.61 450.61,-120.09"/>
<polygon fill="#63b8ff" stroke="#63b8ff" points="229.04,-337.37 230.31,-347.88 235.88,-338.87 229.04,-337.37"/>
</a>
</g>
</g>
<!-- Node20 -->
<g id="Node000020" class="node">
<title>Node20</title>
<g id="a_Node000020"><a xlink:href="structCatch_1_1Matchers_1_1Vector_1_1ContainsElementMatcher.html" target="_top" xlink:title=" ">
<polygon fill="white" stroke="#666666" points="604,-78 430,-78 430,-48 604,-48 604,-78"/>
<text text-anchor="start" x="438" y="-66" font-family="Helvetica,sans-Serif" font-size="10.00">Catch::Matchers::Vector</text>
<text text-anchor="middle" x="517" y="-55" font-family="Helvetica,sans-Serif" font-size="10.00">::ContainsElementMatcher&lt; T &gt;</text>
</a>
</g>
</g>
<!-- Node9&#45;&gt;Node20 -->
<g id="edge19_Node000009_Node000020" class="edge">
<title>Node9&#45;&gt;Node20</title>
<g id="a_edge19_Node000009_Node000020"><a xlink:title=" ">
<path fill="none" stroke="#63b8ff" d="M228.67,-337.79C232.25,-289.97 246.82,-185.65 306,-127 338.83,-94.47 387.67,-78.4 429.99,-70.49"/>
<polygon fill="#63b8ff" stroke="#63b8ff" points="225.17,-337.68 228.02,-347.89 232.15,-338.14 225.17,-337.68"/>
</a>
</g>
</g>
<!-- Node21 -->
<g id="Node000021" class="node">
<title>Node21</title>
<g id="a_Node000021"><a xlink:href="structCatch_1_1Matchers_1_1Vector_1_1ContainsMatcher.html" target="_top" xlink:title=" ">
<polygon fill="white" stroke="#666666" points="584,-30 450,-30 450,0 584,0 584,-30"/>
<text text-anchor="start" x="458" y="-18" font-family="Helvetica,sans-Serif" font-size="10.00">Catch::Matchers::Vector</text>
<text text-anchor="middle" x="517" y="-7" font-family="Helvetica,sans-Serif" font-size="10.00">::ContainsMatcher&lt; T &gt;</text>
</a>
</g>
</g>
<!-- Node9&#45;&gt;Node21 -->
<g id="edge20_Node000009_Node000021" class="edge">
<title>Node9&#45;&gt;Node21</title>
<g id="a_edge20_Node000009_Node000021"><a xlink:title=" ">
<path fill="none" stroke="#63b8ff" d="M230.99,-337.94C240.33,-274.36 267.8,-109.12 306,-71 343.66,-33.42 403.54,-20.25 449.74,-16"/>
<polygon fill="#63b8ff" stroke="#63b8ff" points="227.51,-337.51 229.55,-347.91 234.44,-338.51 227.51,-337.51"/>
</a>
</g>
</g>
<!-- Node22 -->
<g id="Node000022" class="node">
<title>Node22</title>
<g id="a_Node000022"><a xlink:href="structCatch_1_1Matchers_1_1Vector_1_1EqualsMatcher.html" target="_top" xlink:title=" ">
<polygon fill="white" stroke="#666666" points="583,-474 451,-474 451,-444 583,-444 583,-474"/>
<text text-anchor="start" x="459" y="-462" font-family="Helvetica,sans-Serif" font-size="10.00">Catch::Matchers::Vector</text>
<text text-anchor="middle" x="517" y="-451" font-family="Helvetica,sans-Serif" font-size="10.00">::EqualsMatcher&lt; T &gt;</text>
</a>
</g>
</g>
<!-- Node9&#45;&gt;Node22 -->
<g id="edge21_Node000009_Node000022" class="edge">
<title>Node9&#45;&gt;Node22</title>
<g id="a_edge21_Node000009_Node000022"><a xlink:title=" ">
<path fill="none" stroke="#63b8ff" d="M266.76,-382.44C279.15,-388.19 292.99,-394.21 306,-399 351.94,-415.92 365.21,-414.59 412,-429 420.06,-431.48 421.94,-432.53 430,-435 439.78,-437.99 450.24,-441.04 460.37,-443.91"/>
<polygon fill="#63b8ff" stroke="#63b8ff" points="268.15,-379.23 257.61,-378.13 265.16,-385.56 268.15,-379.23"/>
</a>
</g>
</g>
<!-- Node23 -->
<g id="Node000023" class="node">
<title>Node23</title>
<g id="a_Node000023"><a xlink:href="structCatch_1_1Matchers_1_1Vector_1_1UnorderedEqualsMatcher.html" target="_top" xlink:title=" ">
<polygon fill="white" stroke="#666666" points="604,-426 430,-426 430,-396 604,-396 604,-426"/>
<text text-anchor="start" x="438" y="-414" font-family="Helvetica,sans-Serif" font-size="10.00">Catch::Matchers::Vector</text>
<text text-anchor="middle" x="517" y="-403" font-family="Helvetica,sans-Serif" font-size="10.00">::UnorderedEqualsMatcher&lt; T &gt;</text>
</a>
</g>
</g>
<!-- Node9&#45;&gt;Node23 -->
<g id="edge22_Node000009_Node000023" class="edge">
<title>Node9&#45;&gt;Node23</title>
<g id="a_edge22_Node000009_Node000023"><a xlink:title=" ">
<path fill="none" stroke="#63b8ff" d="M298.2,-374.76C337.92,-381.37 387.81,-389.67 429.81,-396.66"/>
<polygon fill="#63b8ff" stroke="#63b8ff" points="298.77,-371.31 288.33,-373.12 297.62,-378.21 298.77,-371.31"/>
</a>
</g>
</g>
<!-- Node15 -->
<g id="Node000015" class="node">
<title>Node15</title>
<g id="a_Node000015"><a xlink:href="structCatch_1_1Matchers_1_1StdString_1_1ContainsMatcher.html" target="_top" xlink:title=" ">
<polygon fill="white" stroke="#666666" points="787,-204 641,-204 641,-174 787,-174 787,-204"/>
<text text-anchor="start" x="649" y="-192" font-family="Helvetica,sans-Serif" font-size="10.00">Catch::Matchers::StdString</text>
<text text-anchor="middle" x="714" y="-181" font-family="Helvetica,sans-Serif" font-size="10.00">::ContainsMatcher</text>
</a>
</g>
</g>
<!-- Node14&#45;&gt;Node15 -->
<g id="edge14_Node000014_Node000015" class="edge">
<title>Node14&#45;&gt;Node15</title>
<g id="a_edge14_Node000014_Node000015"><a xlink:title=" ">
<path fill="none" stroke="#63b8ff" d="M600.29,-175.13C613.79,-176.79 627.69,-178.5 640.91,-180.13"/>
<polygon fill="#63b8ff" stroke="#63b8ff" points="600.41,-171.62 590.06,-173.87 599.55,-178.56 600.41,-171.62"/>
</a>
</g>
</g>
<!-- Node16 -->
<g id="Node000016" class="node">
<title>Node16</title>
<g id="a_Node000016"><a xlink:href="structCatch_1_1Matchers_1_1StdString_1_1EndsWithMatcher.html" target="_top" xlink:title=" ">
<polygon fill="white" stroke="#666666" points="787,-156 641,-156 641,-126 787,-126 787,-156"/>
<text text-anchor="start" x="649" y="-144" font-family="Helvetica,sans-Serif" font-size="10.00">Catch::Matchers::StdString</text>
<text text-anchor="middle" x="714" y="-133" font-family="Helvetica,sans-Serif" font-size="10.00">::EndsWithMatcher</text>
</a>
</g>
</g>
<!-- Node14&#45;&gt;Node16 -->
<g id="edge15_Node000014_Node000016" class="edge">
<title>Node14&#45;&gt;Node16</title>
<g id="a_edge15_Node000014_Node000016"><a xlink:title=" ">
<path fill="none" stroke="#63b8ff" d="M600.29,-154.87C613.79,-153.21 627.69,-151.5 640.91,-149.87"/>
<polygon fill="#63b8ff" stroke="#63b8ff" points="599.55,-151.44 590.06,-156.13 600.41,-158.38 599.55,-151.44"/>
</a>
</g>
</g>
<!-- Node17 -->
<g id="Node000017" class="node">
<title>Node17</title>
<g id="a_Node000017"><a xlink:href="structCatch_1_1Matchers_1_1StdString_1_1EqualsMatcher.html" target="_top" xlink:title=" ">
<polygon fill="white" stroke="#666666" points="787,-108 641,-108 641,-78 787,-78 787,-108"/>
<text text-anchor="start" x="649" y="-96" font-family="Helvetica,sans-Serif" font-size="10.00">Catch::Matchers::StdString</text>
<text text-anchor="middle" x="714" y="-85" font-family="Helvetica,sans-Serif" font-size="10.00">::EqualsMatcher</text>
</a>
</g>
</g>
<!-- Node14&#45;&gt;Node17 -->
<g id="edge16_Node000014_Node000017" class="edge">
<title>Node14&#45;&gt;Node17</title>
<g id="a_edge16_Node000014_Node000017"><a xlink:title=" ">
<path fill="none" stroke="#63b8ff" d="M589.44,-140.81C594.39,-138.91 599.28,-136.96 604,-135 620.88,-127.98 624.07,-123.91 641,-117 648.69,-113.87 656.95,-110.82 665.04,-108.01"/>
<polygon fill="#63b8ff" stroke="#63b8ff" points="588,-137.61 579.87,-144.4 590.46,-144.16 588,-137.61"/>
</a>
</g>
</g>
<!-- Node18 -->
<g id="Node000018" class="node">
<title>Node18</title>
<g id="a_Node000018"><a xlink:href="structCatch_1_1Matchers_1_1StdString_1_1StartsWithMatcher.html" target="_top" xlink:title=" ">
<polygon fill="white" stroke="#666666" points="787,-252 641,-252 641,-222 787,-222 787,-252"/>
<text text-anchor="start" x="649" y="-240" font-family="Helvetica,sans-Serif" font-size="10.00">Catch::Matchers::StdString</text>
<text text-anchor="middle" x="714" y="-229" font-family="Helvetica,sans-Serif" font-size="10.00">::StartsWithMatcher</text>
</a>
</g>
</g>
<!-- Node14&#45;&gt;Node18 -->
<g id="edge17_Node000014_Node000018" class="edge">
<title>Node14&#45;&gt;Node18</title>
<g id="a_edge17_Node000014_Node000018"><a xlink:title=" ">
<path fill="none" stroke="#63b8ff" d="M589.44,-189.19C594.39,-191.09 599.28,-193.04 604,-195 620.88,-202.02 624.07,-206.09 641,-213 648.69,-216.13 656.95,-219.18 665.04,-221.99"/>
<polygon fill="#63b8ff" stroke="#63b8ff" points="590.46,-185.84 579.87,-185.6 588,-192.39 590.46,-185.84"/>
</a>
</g>
</g>
</g>
</svg>
