<?xml version="1.0" encoding="UTF-8" standalone="no"?>
<!DOCTYPE svg PUBLIC "-//W3C//DTD SVG 1.1//EN"
 "http://www.w3.org/Graphics/SVG/1.1/DTD/svg11.dtd">
<!-- Generated by graphviz version 2.43.0 (0)
 -->
<!-- Title: spdlog::details::circular_q&lt; T &gt; Pages: 1 -->
<svg width="397pt" height="146pt"
 viewBox="0.00 0.00 397.00 145.50" xmlns="http://www.w3.org/2000/svg" xmlns:xlink="http://www.w3.org/1999/xlink">
<g id="graph0" class="graph" transform="scale(1 1) rotate(0) translate(4 141.5)">
<title>spdlog::details::circular_q&lt; T &gt;</title>
<!-- Node1 -->
<g id="Node000001" class="node">
<title>Node1</title>
<g id="a_Node000001"><a xlink:title=" ">
<polygon fill="#999999" stroke="#666666" points="130,-78 0,-78 0,-48 130,-48 130,-78"/>
<text text-anchor="start" x="8" y="-66" font-family="Helvetica,sans-Serif" font-size="10.00">spdlog::details::circular</text>
<text text-anchor="middle" x="65" y="-55" font-family="Helvetica,sans-Serif" font-size="10.00">_q&lt; T &gt;</text>
</a>
</g>
</g>
<!-- Node2 -->
<g id="Node000002" class="node">
<title>Node2</title>
<g id="a_Node000002"><a xlink:href="classspdlog_1_1details_1_1circular__q.html" target="_top" xlink:title=" ">
<polygon fill="white" stroke="#666666" points="389,-137.5 258,-137.5 258,-96.5 389,-96.5 389,-137.5"/>
<text text-anchor="start" x="266" y="-125.5" font-family="Helvetica,sans-Serif" font-size="10.00">spdlog::details::circular</text>
<text text-anchor="start" x="266" y="-114.5" font-family="Helvetica,sans-Serif" font-size="10.00">_q&lt; spdlog::details::log</text>
<text text-anchor="middle" x="323.5" y="-103.5" font-family="Helvetica,sans-Serif" font-size="10.00">_msg_buffer &gt;</text>
</a>
</g>
</g>
<!-- Node1&#45;&gt;Node2 -->
<g id="edge1_Node000001_Node000002" class="edge">
<title>Node1&#45;&gt;Node2</title>
<g id="a_edge1_Node000001_Node000002"><a xlink:title=" ">
<path fill="none" stroke="orange" stroke-dasharray="5,2" d="M139.87,-78.55C177.17,-86.4 222.01,-95.84 257.92,-103.4"/>
<polygon fill="orange" stroke="orange" points="140.57,-75.12 130.06,-76.49 139.13,-81.97 140.57,-75.12"/>
</a>
</g>
<text text-anchor="start" x="148" y="-113" font-family="Helvetica,sans-Serif" font-size="10.00" fill="grey"> &lt; spdlog::details::</text>
<text text-anchor="middle" x="194" y="-102" font-family="Helvetica,sans-Serif" font-size="10.00" fill="grey">log_msg_buffer &gt;</text>
</g>
<!-- Node3 -->
<g id="Node000003" class="node">
<title>Node3</title>
<g id="a_Node000003"><a xlink:href="classspdlog_1_1details_1_1circular__q.html" target="_top" xlink:title=" ">
<polygon fill="white" stroke="#666666" points="388.5,-78 258.5,-78 258.5,-48 388.5,-48 388.5,-78"/>
<text text-anchor="start" x="266.5" y="-66" font-family="Helvetica,sans-Serif" font-size="10.00">spdlog::details::circular</text>
<text text-anchor="middle" x="323.5" y="-55" font-family="Helvetica,sans-Serif" font-size="10.00">_q&lt; item_type &gt;</text>
</a>
</g>
</g>
<!-- Node1&#45;&gt;Node3 -->
<g id="edge2_Node000001_Node000003" class="edge">
<title>Node1&#45;&gt;Node3</title>
<g id="a_edge2_Node000001_Node000003"><a xlink:title=" ">
<path fill="none" stroke="orange" stroke-dasharray="5,2" d="M140.39,-63C177.74,-63 222.54,-63 258.36,-63"/>
<polygon fill="orange" stroke="orange" points="140.06,-59.5 130.06,-63 140.06,-66.5 140.06,-59.5"/>
</a>
</g>
<text text-anchor="middle" x="194" y="-66" font-family="Helvetica,sans-Serif" font-size="10.00" fill="grey"> &lt; item_type &gt;</text>
</g>
<!-- Node4 -->
<g id="Node000004" class="node">
<title>Node4</title>
<g id="a_Node000004"><a xlink:href="classspdlog_1_1details_1_1circular__q.html" target="_top" xlink:title=" ">
<polygon fill="white" stroke="#666666" points="388.5,-30 258.5,-30 258.5,0 388.5,0 388.5,-30"/>
<text text-anchor="start" x="266.5" y="-18" font-family="Helvetica,sans-Serif" font-size="10.00">spdlog::details::circular</text>
<text text-anchor="middle" x="323.5" y="-7" font-family="Helvetica,sans-Serif" font-size="10.00">_q&lt; std::string &gt;</text>
</a>
</g>
</g>
<!-- Node1&#45;&gt;Node4 -->
<g id="edge3_Node000001_Node000004" class="edge">
<title>Node1&#45;&gt;Node4</title>
<g id="a_edge3_Node000001_Node000004"><a xlink:title=" ">
<path fill="none" stroke="orange" stroke-dasharray="5,2" d="M139.91,-49.17C177.36,-42.16 222.39,-33.73 258.36,-27"/>
<polygon fill="orange" stroke="orange" points="139.25,-45.73 130.06,-51.01 140.54,-52.61 139.25,-45.73"/>
</a>
</g>
<text text-anchor="middle" x="194" y="-51" font-family="Helvetica,sans-Serif" font-size="10.00" fill="grey"> &lt; std::string &gt;</text>
</g>
</g>
</svg>
