<?xml version="1.0" encoding="UTF-8" standalone="no"?>
<!DOCTYPE svg PUBLIC "-//W3C//DTD SVG 1.1//EN"
 "http://www.w3.org/Graphics/SVG/1.1/DTD/svg11.dtd">
<!-- Generated by graphviz version 2.43.0 (0)
 -->
<!-- Title: basic_format_parse_context&lt; Char, ErrorHandler &gt; Pages: 1 -->
<svg width="900pt" height="156pt"
 viewBox="0.00 0.00 900.00 155.50" xmlns="http://www.w3.org/2000/svg" xmlns:xlink="http://www.w3.org/1999/xlink">
<g id="graph0" class="graph" transform="scale(1 1) rotate(0) translate(4 151.5)">
<title>basic_format_parse_context&lt; Char, ErrorHandler &gt;</title>
<!-- Node1 -->
<g id="Node000001" class="node">
<title>Node1</title>
<g id="a_Node000001"><a xlink:title=" ">
<polygon fill="#999999" stroke="#666666" points="324,-89.5 153,-89.5 153,-59.5 324,-59.5 324,-89.5"/>
<text text-anchor="start" x="161" y="-77.5" font-family="Helvetica,sans-Serif" font-size="10.00">basic_format_parse</text>
<text text-anchor="middle" x="238.5" y="-66.5" font-family="Helvetica,sans-Serif" font-size="10.00">_context&lt; Char, ErrorHandler &gt;</text>
</a>
</g>
</g>
<!-- Node1&#45;&gt;Node1 -->
<g id="edge2_Node000001_Node000001" class="edge">
<title>Node1&#45;&gt;Node1</title>
<g id="a_edge2_Node000001_Node000001"><a xlink:title=" ">
<path fill="none" stroke="orange" stroke-dasharray="5,2" d="M229.4,-100.1C230.64,-104.47 233.68,-107.5 238.5,-107.5 246.62,-107.5 249.67,-98.91 247.64,-89.78"/>
<polygon fill="orange" stroke="orange" points="232.9,-99.76 229.36,-89.78 225.9,-99.79 232.9,-99.76"/>
</a>
</g>
<text text-anchor="middle" x="238.5" y="-110.5" font-family="Helvetica,sans-Serif" font-size="10.00" fill="grey"> &lt; Char, ErrorHandler &gt;</text>
</g>
<!-- Node1&#45;&gt;Node1 -->
<g id="edge7_Node000001_Node000001" class="edge">
<title>Node1&#45;&gt;Node1</title>
<g id="a_edge7_Node000001_Node000001"><a xlink:title=" ">
<path fill="none" stroke="orange" stroke-dasharray="5,2" d="M219.93,-99.16C216.47,-112.87 222.66,-125.5 238.5,-125.5 258,-125.5 262.88,-106.38 253.12,-89.64"/>
<polygon fill="orange" stroke="orange" points="223.28,-100.22 223.88,-89.64 216.82,-97.54 223.28,-100.22"/>
</a>
</g>
<text text-anchor="middle" x="238.5" y="-128.5" font-family="Helvetica,sans-Serif" font-size="10.00" fill="grey"> &lt; Char, ErrorHandler &gt;</text>
</g>
<!-- Node3 -->
<g id="Node000003" class="node">
<title>Node3</title>
<g id="a_Node000003"><a xlink:href="classbasic__printf__parse__context.html" target="_top" xlink:title=" ">
<polygon fill="white" stroke="#666666" points="598,-137.5 492,-137.5 492,-107.5 598,-107.5 598,-137.5"/>
<text text-anchor="start" x="500" y="-125.5" font-family="Helvetica,sans-Serif" font-size="10.00">basic_printf_parse</text>
<text text-anchor="middle" x="545" y="-114.5" font-family="Helvetica,sans-Serif" font-size="10.00">_context&lt; Char &gt;</text>
</a>
</g>
</g>
<!-- Node1&#45;&gt;Node3 -->
<g id="edge3_Node000001_Node000003" class="edge">
<title>Node1&#45;&gt;Node3</title>
<g id="a_edge3_Node000001_Node000003"><a xlink:title=" ">
<path fill="none" stroke="#63b8ff" d="M334.22,-89.43C386.11,-97.61 448.46,-107.44 491.63,-114.24"/>
<polygon fill="#63b8ff" stroke="#63b8ff" points="334.74,-85.97 324.32,-87.87 333.65,-92.89 334.74,-85.97"/>
</a>
</g>
</g>
<!-- Node4 -->
<g id="Node000004" class="node">
<title>Node4</title>
<g id="a_Node000004"><a xlink:href="classcompile__parse__context.html" target="_top" xlink:title=" ">
<polygon fill="white" stroke="#666666" points="610,-89.5 480,-89.5 480,-59.5 610,-59.5 610,-89.5"/>
<text text-anchor="start" x="488" y="-77.5" font-family="Helvetica,sans-Serif" font-size="10.00">compile_parse_context</text>
<text text-anchor="middle" x="545" y="-66.5" font-family="Helvetica,sans-Serif" font-size="10.00">&lt; Char, ErrorHandler &gt;</text>
</a>
</g>
</g>
<!-- Node1&#45;&gt;Node4 -->
<g id="edge4_Node000001_Node000004" class="edge">
<title>Node1&#45;&gt;Node4</title>
<g id="a_edge4_Node000001_Node000004"><a xlink:title=" ">
<path fill="none" stroke="#63b8ff" d="M334.58,-74.5C381.87,-74.5 437.77,-74.5 479.91,-74.5"/>
<polygon fill="#63b8ff" stroke="#63b8ff" points="334.32,-71 324.32,-74.5 334.32,-78 334.32,-71"/>
</a>
</g>
</g>
<!-- Node6 -->
<g id="Node000006" class="node">
<title>Node6</title>
<g id="a_Node000006"><a xlink:href="classbasic__format__parse__context.html" target="_top" xlink:title=" ">
<polygon fill="white" stroke="#666666" points="606,-41 484,-41 484,0 606,0 606,-41"/>
<text text-anchor="start" x="492" y="-29" font-family="Helvetica,sans-Serif" font-size="10.00">basic_format_parse</text>
<text text-anchor="start" x="492" y="-18" font-family="Helvetica,sans-Serif" font-size="10.00">_context&lt; Char, error</text>
<text text-anchor="middle" x="545" y="-7" font-family="Helvetica,sans-Serif" font-size="10.00">_handler &gt;</text>
</a>
</g>
</g>
<!-- Node1&#45;&gt;Node6 -->
<g id="edge6_Node000001_Node000006" class="edge">
<title>Node1&#45;&gt;Node6</title>
<g id="a_edge6_Node000001_Node000006"><a xlink:title=" ">
<path fill="none" stroke="orange" stroke-dasharray="5,2" d="M334.27,-57.69C383.07,-49.04 441.11,-38.75 483.75,-31.18"/>
<polygon fill="orange" stroke="orange" points="333.56,-54.27 324.32,-59.46 334.78,-61.16 333.56,-54.27"/>
</a>
</g>
<text text-anchor="middle" x="402" y="-58.5" font-family="Helvetica,sans-Serif" font-size="10.00" fill="grey"> &lt; Char, error_handler &gt;</text>
</g>
<!-- Node2 -->
<g id="Node000002" class="node">
<title>Node2</title>
<g id="a_Node000002"><a xlink:title=" ">
<polygon fill="white" stroke="#666666" points="116,-84 0,-84 0,-65 116,-65 116,-84"/>
<text text-anchor="middle" x="58" y="-72" font-family="Helvetica,sans-Serif" font-size="10.00">detail::error_handler</text>
</a>
</g>
</g>
<!-- Node2&#45;&gt;Node1 -->
<g id="edge1_Node000001_Node000002" class="edge">
<title>Node2&#45;&gt;Node1</title>
<g id="a_edge1_Node000001_Node000002"><a xlink:title=" ">
<path fill="none" stroke="#8b1a1a" d="M126.72,-74.5C135.26,-74.5 144.09,-74.5 152.85,-74.5"/>
<polygon fill="#8b1a1a" stroke="#8b1a1a" points="126.46,-71 116.46,-74.5 126.46,-78 126.46,-71"/>
</a>
</g>
</g>
<!-- Node5 -->
<g id="Node000005" class="node">
<title>Node5</title>
<g id="a_Node000005"><a xlink:href="classcompile__parse__context.html" target="_top" xlink:title=" ">
<polygon fill="white" stroke="#666666" points="892,-89.5 762,-89.5 762,-59.5 892,-59.5 892,-89.5"/>
<text text-anchor="start" x="770" y="-77.5" font-family="Helvetica,sans-Serif" font-size="10.00">compile_parse_context</text>
<text text-anchor="middle" x="827" y="-66.5" font-family="Helvetica,sans-Serif" font-size="10.00">&lt; Char, ErrorHandler &gt;</text>
</a>
</g>
</g>
<!-- Node4&#45;&gt;Node5 -->
<g id="edge5_Node000004_Node000005" class="edge">
<title>Node4&#45;&gt;Node5</title>
<g id="a_edge5_Node000004_Node000005"><a xlink:title=" ">
<path fill="none" stroke="orange" stroke-dasharray="5,2" d="M620.3,-74.5C664.28,-74.5 719.45,-74.5 761.58,-74.5"/>
<polygon fill="orange" stroke="orange" points="620.24,-71 610.24,-74.5 620.24,-78 620.24,-71"/>
</a>
</g>
<text text-anchor="middle" x="686" y="-77.5" font-family="Helvetica,sans-Serif" font-size="10.00" fill="grey"> &lt; Char, ErrorHandler &gt;</text>
</g>
</g>
</svg>
