<?xml version="1.0" encoding="UTF-8" standalone="no"?>
<!DOCTYPE svg PUBLIC "-//W3C//DTD SVG 1.1//EN"
 "http://www.w3.org/Graphics/SVG/1.1/DTD/svg11.dtd">
<!-- Generated by graphviz version 2.43.0 (0)
 -->
<!-- Title: basic_format_args&lt; Context &gt; Pages: 1 -->
<svg width="428pt" height="86pt"
 viewBox="0.00 0.00 428.00 86.00" xmlns="http://www.w3.org/2000/svg" xmlns:xlink="http://www.w3.org/1999/xlink">
<g id="graph0" class="graph" transform="scale(1 1) rotate(0) translate(4 82)">
<title>basic_format_args&lt; Context &gt;</title>
<!-- Node1 -->
<g id="Node000001" class="node">
<title>Node1</title>
<g id="a_Node000001"><a xlink:title=" ">
<polygon fill="#999999" stroke="#666666" points="115,-54 0,-54 0,-24 115,-24 115,-54"/>
<text text-anchor="start" x="8" y="-42" font-family="Helvetica,sans-Serif" font-size="10.00">basic_format_args&lt;</text>
<text text-anchor="middle" x="57.5" y="-31" font-family="Helvetica,sans-Serif" font-size="10.00"> Context &gt;</text>
</a>
</g>
</g>
<!-- Node2 -->
<g id="Node000002" class="node">
<title>Node2</title>
<g id="a_Node000002"><a xlink:href="classbasic__format__args.html" target="_top" xlink:title=" ">
<polygon fill="white" stroke="#666666" points="420,-78 283,-78 283,-48 420,-48 420,-78"/>
<text text-anchor="start" x="291" y="-66" font-family="Helvetica,sans-Serif" font-size="10.00">basic_format_args&lt;</text>
<text text-anchor="middle" x="351.5" y="-55" font-family="Helvetica,sans-Serif" font-size="10.00"> basic_format_context &gt;</text>
</a>
</g>
</g>
<!-- Node1&#45;&gt;Node2 -->
<g id="edge1_Node000001_Node000002" class="edge">
<title>Node1&#45;&gt;Node2</title>
<g id="a_edge1_Node000001_Node000002"><a xlink:title=" ">
<path fill="none" stroke="orange" stroke-dasharray="5,2" d="M125.27,-44.49C172.5,-48.37 235.6,-53.56 282.99,-57.45"/>
<polygon fill="orange" stroke="orange" points="125.4,-40.99 115.15,-43.66 124.83,-47.96 125.4,-40.99"/>
</a>
</g>
<text text-anchor="middle" x="199" y="-58" font-family="Helvetica,sans-Serif" font-size="10.00" fill="grey"> &lt; basic_format_context &gt;</text>
</g>
<!-- Node3 -->
<g id="Node000003" class="node">
<title>Node3</title>
<g id="a_Node000003"><a xlink:href="classbasic__format__args.html" target="_top" xlink:title=" ">
<polygon fill="white" stroke="#666666" points="416.5,-30 286.5,-30 286.5,0 416.5,0 416.5,-30"/>
<text text-anchor="start" x="294.5" y="-18" font-family="Helvetica,sans-Serif" font-size="10.00">basic_format_args&lt;</text>
<text text-anchor="middle" x="351.5" y="-7" font-family="Helvetica,sans-Serif" font-size="10.00"> basic_printf_context &gt;</text>
</a>
</g>
</g>
<!-- Node1&#45;&gt;Node3 -->
<g id="edge2_Node000001_Node000003" class="edge">
<title>Node1&#45;&gt;Node3</title>
<g id="a_edge2_Node000001_Node000003"><a xlink:title=" ">
<path fill="none" stroke="orange" stroke-dasharray="5,2" d="M125.22,-30.77C127.85,-30.5 130.45,-30.24 133,-30 184.43,-25.12 242.86,-21.18 286.19,-18.57"/>
<polygon fill="orange" stroke="orange" points="124.58,-27.32 115.01,-31.86 125.32,-34.28 124.58,-27.32"/>
</a>
</g>
<text text-anchor="middle" x="199" y="-33" font-family="Helvetica,sans-Serif" font-size="10.00" fill="grey"> &lt; basic_printf_context &gt;</text>
</g>
</g>
</svg>
