<?xml version="1.0" encoding="UTF-8" standalone="no"?>
<!DOCTYPE svg PUBLIC "-//W3C//DTD SVG 1.1//EN"
 "http://www.w3.org/Graphics/SVG/1.1/DTD/svg11.dtd">
<!-- Generated by graphviz version 2.43.0 (0)
 -->
<!-- Title: Catch::Generators::GeneratorUntypedBase Pages: 1 -->
<!--zoomable 559 -->

<svg id="main" version="1.1" xmlns="http://www.w3.org/2000/svg" xmlns:xlink="http://www.w3.org/1999/xlink" xml:space="preserve" onload="init(evt)">
<style type="text/css"><![CDATA[
.node, .edge {opacity: 0.7;}
.node.selected, .edge.selected {opacity: 1;}
.edge:hover path { stroke: red; }
.edge:hover polygon { stroke: red; fill: red; }
]]></style>

<defs>
  <circle id="rim" cx="0" cy="0" r="7"/>
  <circle id="rim2" cx="0" cy="0" r="3.5"/>
  <g id="zoomPlus">
    <use xlink:href="#rim" fill="#404040"><set attributeName="fill" to="#808080" begin="zoomplus.mouseover" end="zoomplus.mouseout"/></use>
    <path d="M-4,0h8M0,-4v8" fill="none" stroke="white" stroke-width="1.5" pointer-events="none"/>
  </g>
  <g id="zoomMin">
    <use xlink:href="#rim" fill="#404040"><set attributeName="fill" to="#808080" begin="zoomminus.mouseover" end="zoomminus.mouseout"/></use>
    <path d="M-4,0h8" fill="none" stroke="white" stroke-width="1.5" pointer-events="none"/>
  </g>
  <g id="arrowUp" transform="translate(30 24)">
    <use xlink:href="#rim"/>
    <path pointer-events="none" fill="none" stroke="white" stroke-width="1.5" d="M0,-3.0v7 M-2.5,-0.5L0,-3.0L2.5,-0.5"/>
  </g>
  <g id="arrowRight" transform="rotate(90) translate(36 -43)">
    <use xlink:href="#rim"/>
    <path pointer-events="none" fill="none" stroke="white" stroke-width="1.5" d="M0,-3.0v7 M-2.5,-0.5L0,-3.0L2.5,-0.5"/>
  </g>
  <g id="arrowDown" transform="rotate(180) translate(-30 -48)">
    <use xlink:href="#rim"/>
    <path pointer-events="none" fill="none" stroke="white" stroke-width="1.5" d="M0,-3.0v7 M-2.5,-0.5L0,-3.0L2.5,-0.5"/>
  </g>
  <g id="arrowLeft" transform="rotate(270) translate(-36 17)">
    <use xlink:href="#rim"/>
    <path pointer-events="none" fill="none" stroke="white" stroke-width="1.5" d="M0,-3.0v7 M-2.5,-0.5L0,-3.0L2.5,-0.5"/>
  </g>
  <g id="resetDef">
    <use xlink:href="#rim2" fill="#404040"><set attributeName="fill" to="#808080" begin="reset.mouseover" end="reset.mouseout"/></use>
  </g>
</defs>
<script type="application/ecmascript">
var viewWidth = 763;
var viewHeight = 559;
var sectionId = 'dynsection-0';
</script>
<script type="application/ecmascript" xlink:href="svg.min.js"/>
<svg id="graph" class="graph">
<g id="viewport">
<title>Catch::Generators::GeneratorUntypedBase</title>
<!-- Node1 -->
<g id="Node000001" class="node">
<title>Node1</title>
<g id="a_Node000001"><a xlink:title=" ">
<polygon fill="#999999" stroke="#666666" points="131,-465.5 0,-465.5 0,-435.5 131,-435.5 131,-465.5"/>
<text text-anchor="start" x="8" y="-453.5" font-family="Helvetica,sans-Serif" font-size="10.00">Catch::Generators::</text>
<text text-anchor="middle" x="65.5" y="-442.5" font-family="Helvetica,sans-Serif" font-size="10.00">GeneratorUntypedBase</text>
</a>
</g>
</g>
<!-- Node2 -->
<g id="Node000002" class="node">
<title>Node2</title>
<g id="a_Node000002"><a xlink:href="structCatch_1_1Generators_1_1IGenerator.html" target="_top" xlink:title=" ">
<polygon fill="white" stroke="#666666" points="561.5,-551 430.5,-551 430.5,-510 561.5,-510 561.5,-551"/>
<text text-anchor="start" x="438.5" y="-539" font-family="Helvetica,sans-Serif" font-size="10.00">Catch::Generators::</text>
<text text-anchor="start" x="438.5" y="-528" font-family="Helvetica,sans-Serif" font-size="10.00">IGenerator&lt; std::vector</text>
<text text-anchor="middle" x="496" y="-517" font-family="Helvetica,sans-Serif" font-size="10.00">&lt; T &gt; &gt;</text>
</a>
</g>
</g>
<!-- Node1&#45;&gt;Node2 -->
<g id="edge1_Node000001_Node000002" class="edge">
<title>Node1&#45;&gt;Node2</title>
<g id="a_edge1_Node000001_Node000002"><a xlink:title=" ">
<path fill="none" stroke="#63b8ff" d="M134.11,-467.9C145.39,-470.59 157,-473.22 168,-475.5 258.48,-494.22 364.04,-511.09 430.21,-521.07"/>
<polygon fill="#63b8ff" stroke="#63b8ff" points="134.84,-464.48 124.3,-465.53 133.2,-471.28 134.84,-464.48"/>
</a>
</g>
</g>
<!-- Node4 -->
<g id="Node000004" class="node">
<title>Node4</title>
<g id="a_Node000004"><a xlink:href="structCatch_1_1Generators_1_1IGenerator.html" target="_top" xlink:title=" ">
<polygon fill="white" stroke="#666666" points="554,-491.5 438,-491.5 438,-461.5 554,-461.5 554,-491.5"/>
<text text-anchor="start" x="446" y="-479.5" font-family="Helvetica,sans-Serif" font-size="10.00">Catch::Generators::</text>
<text text-anchor="middle" x="496" y="-468.5" font-family="Helvetica,sans-Serif" font-size="10.00">IGenerator&lt; Float &gt;</text>
</a>
</g>
</g>
<!-- Node1&#45;&gt;Node4 -->
<g id="edge3_Node000001_Node000004" class="edge">
<title>Node1&#45;&gt;Node4</title>
<g id="a_edge3_Node000001_Node000004"><a xlink:title=" ">
<path fill="none" stroke="#63b8ff" d="M141.5,-456.1C186.32,-459.35 244.4,-463.41 296,-466.5 343.82,-469.37 398.15,-472.06 437.94,-473.93"/>
<polygon fill="#63b8ff" stroke="#63b8ff" points="141.5,-452.59 131.27,-455.35 140.99,-459.57 141.5,-452.59"/>
</a>
</g>
</g>
<!-- Node6 -->
<g id="Node000006" class="node">
<title>Node6</title>
<g id="a_Node000006"><a xlink:href="structCatch_1_1Generators_1_1IGenerator.html" target="_top" xlink:title=" ">
<polygon fill="white" stroke="#666666" points="558.5,-35.5 433.5,-35.5 433.5,-5.5 558.5,-5.5 558.5,-35.5"/>
<text text-anchor="start" x="441.5" y="-23.5" font-family="Helvetica,sans-Serif" font-size="10.00">Catch::Generators::</text>
<text text-anchor="middle" x="496" y="-12.5" font-family="Helvetica,sans-Serif" font-size="10.00">IGenerator&lt; Integer &gt;</text>
</a>
</g>
</g>
<!-- Node1&#45;&gt;Node6 -->
<g id="edge5_Node000001_Node000006" class="edge">
<title>Node1&#45;&gt;Node6</title>
<g id="a_edge5_Node000001_Node000006"><a xlink:title=" ">
<path fill="none" stroke="#63b8ff" d="M71.74,-425.45C88.78,-351.01 150.16,-130.48 296,-36.5 336.35,-10.5 391.29,-7.95 433.22,-11.08"/>
<polygon fill="#63b8ff" stroke="#63b8ff" points="68.3,-424.82 69.54,-435.34 75.13,-426.34 68.3,-424.82"/>
</a>
</g>
</g>
<!-- Node8 -->
<g id="Node000008" class="node">
<title>Node8</title>
<g id="a_Node000008"><a xlink:href="structCatch_1_1Generators_1_1IGenerator.html" target="_top" xlink:title=" ">
<polygon fill="white" stroke="#666666" points="278,-312.5 168,-312.5 168,-282.5 278,-282.5 278,-312.5"/>
<text text-anchor="start" x="176" y="-300.5" font-family="Helvetica,sans-Serif" font-size="10.00">Catch::Generators::</text>
<text text-anchor="middle" x="223" y="-289.5" font-family="Helvetica,sans-Serif" font-size="10.00">IGenerator&lt; T &gt;</text>
</a>
</g>
</g>
<!-- Node1&#45;&gt;Node8 -->
<g id="edge7_Node000001_Node000008" class="edge">
<title>Node1&#45;&gt;Node8</title>
<g id="a_edge7_Node000001_Node000008"><a xlink:title=" ">
<path fill="none" stroke="#63b8ff" d="M89.17,-428.2C121.25,-396.64 179.04,-339.77 206.58,-312.67"/>
<polygon fill="#63b8ff" stroke="#63b8ff" points="86.65,-425.76 81.98,-435.27 91.56,-430.75 86.65,-425.76"/>
</a>
</g>
</g>
<!-- Node3 -->
<g id="Node000003" class="node">
<title>Node3</title>
<g id="a_Node000003"><a xlink:href="classCatch_1_1Generators_1_1ChunkGenerator.html" target="_top" xlink:title=" ">
<polygon fill="white" stroke="#666666" points="744.5,-545.5 619.5,-545.5 619.5,-515.5 744.5,-515.5 744.5,-545.5"/>
<text text-anchor="start" x="627.5" y="-533.5" font-family="Helvetica,sans-Serif" font-size="10.00">Catch::Generators::</text>
<text text-anchor="middle" x="682" y="-522.5" font-family="Helvetica,sans-Serif" font-size="10.00">ChunkGenerator&lt; T &gt;</text>
</a>
</g>
</g>
<!-- Node2&#45;&gt;Node3 -->
<g id="edge2_Node000002_Node000003" class="edge">
<title>Node2&#45;&gt;Node3</title>
<g id="a_edge2_Node000002_Node000003"><a xlink:title=" ">
<path fill="none" stroke="#63b8ff" d="M571.86,-530.5C587.63,-530.5 604.1,-530.5 619.32,-530.5"/>
<polygon fill="#63b8ff" stroke="#63b8ff" points="571.61,-527 561.61,-530.5 571.61,-534 571.61,-527"/>
</a>
</g>
</g>
<!-- Node5 -->
<g id="Node000005" class="node">
<title>Node5</title>
<g id="a_Node000005"><a xlink:href="classCatch_1_1Generators_1_1RandomFloatingGenerator.html" target="_top" xlink:title=" ">
<polygon fill="white" stroke="#666666" points="755,-497 609,-497 609,-456 755,-456 755,-497"/>
<text text-anchor="start" x="617" y="-485" font-family="Helvetica,sans-Serif" font-size="10.00">Catch::Generators::</text>
<text text-anchor="start" x="617" y="-474" font-family="Helvetica,sans-Serif" font-size="10.00">RandomFloatingGenerator</text>
<text text-anchor="middle" x="682" y="-463" font-family="Helvetica,sans-Serif" font-size="10.00">&lt; Float &gt;</text>
</a>
</g>
</g>
<!-- Node4&#45;&gt;Node5 -->
<g id="edge4_Node000004_Node000005" class="edge">
<title>Node4&#45;&gt;Node5</title>
<g id="a_edge4_Node000004_Node000005"><a xlink:title=" ">
<path fill="none" stroke="#63b8ff" d="M564.55,-476.5C578.98,-476.5 594.28,-476.5 608.88,-476.5"/>
<polygon fill="#63b8ff" stroke="#63b8ff" points="564.21,-473 554.21,-476.5 564.21,-480 564.21,-473"/>
</a>
</g>
</g>
<!-- Node7 -->
<g id="Node000007" class="node">
<title>Node7</title>
<g id="a_Node000007"><a xlink:href="classCatch_1_1Generators_1_1RandomIntegerGenerator.html" target="_top" xlink:title=" ">
<polygon fill="white" stroke="#666666" points="752,-41 612,-41 612,0 752,0 752,-41"/>
<text text-anchor="start" x="620" y="-29" font-family="Helvetica,sans-Serif" font-size="10.00">Catch::Generators::</text>
<text text-anchor="start" x="620" y="-18" font-family="Helvetica,sans-Serif" font-size="10.00">RandomIntegerGenerator</text>
<text text-anchor="middle" x="682" y="-7" font-family="Helvetica,sans-Serif" font-size="10.00">&lt; Integer &gt;</text>
</a>
</g>
</g>
<!-- Node6&#45;&gt;Node7 -->
<g id="edge6_Node000006_Node000007" class="edge">
<title>Node6&#45;&gt;Node7</title>
<g id="a_edge6_Node000006_Node000007"><a xlink:title=" ">
<path fill="none" stroke="#63b8ff" d="M568.73,-20.5C582.93,-20.5 597.81,-20.5 611.92,-20.5"/>
<polygon fill="#63b8ff" stroke="#63b8ff" points="568.53,-17 558.53,-20.5 568.53,-24 568.53,-17"/>
</a>
</g>
</g>
<!-- Node8&#45;&gt;Node2 -->
<g id="edge16_Node000008_Node000002" class="edge">
<title>Node8&#45;&gt;Node2</title>
<g id="a_edge16_Node000008_Node000002"><a xlink:title=" ">
<path fill="none" stroke="orange" stroke-dasharray="5,2" d="M232.18,-322.12C242.93,-351.41 264.26,-400.39 296,-432.5 333.22,-470.16 387.87,-495.64 430.48,-511.15"/>
<polygon fill="orange" stroke="orange" points="235.46,-320.89 228.81,-312.64 228.86,-323.23 235.46,-320.89"/>
</a>
</g>
<text text-anchor="middle" x="349" y="-502.5" font-family="Helvetica,sans-Serif" font-size="10.00" fill="grey"> &lt; std::vector&lt; T &gt; &gt;</text>
</g>
<!-- Node8&#45;&gt;Node4 -->
<g id="edge17_Node000008_Node000004" class="edge">
<title>Node8&#45;&gt;Node4</title>
<g id="a_edge17_Node000008_Node000004"><a xlink:title=" ">
<path fill="none" stroke="orange" stroke-dasharray="5,2" d="M236.76,-321.52C249.19,-342.66 269.99,-372.77 296,-390.5 336.56,-418.14 363.36,-391.23 402,-421.5 414.54,-431.33 407.58,-442.52 420,-452.5 425.33,-456.78 431.43,-460.31 437.81,-463.21"/>
<polygon fill="orange" stroke="orange" points="239.79,-319.76 231.81,-312.79 233.7,-323.21 239.79,-319.76"/>
</a>
</g>
<text text-anchor="middle" x="349" y="-424.5" font-family="Helvetica,sans-Serif" font-size="10.00" fill="grey"> &lt; Float &gt;</text>
</g>
<!-- Node8&#45;&gt;Node6 -->
<g id="edge18_Node000008_Node000006" class="edge">
<title>Node8&#45;&gt;Node6</title>
<g id="a_edge18_Node000008_Node000006"><a xlink:title=" ">
<path fill="none" stroke="orange" stroke-dasharray="5,2" d="M224.89,-272.29C227.88,-226.78 240.79,-130.69 296,-77.5 315.73,-58.49 382.58,-41.9 433.4,-31.59"/>
<polygon fill="orange" stroke="orange" points="221.38,-272.29 224.33,-282.46 228.37,-272.67 221.38,-272.29"/>
</a>
</g>
<text text-anchor="middle" x="349" y="-80.5" font-family="Helvetica,sans-Serif" font-size="10.00" fill="grey"> &lt; Integer &gt;</text>
</g>
<!-- Node9 -->
<g id="Node000009" class="node">
<title>Node9</title>
<g id="a_Node000009"><a xlink:href="classCatch_1_1Generators_1_1FilterGenerator.html" target="_top" xlink:title=" ">
<polygon fill="white" stroke="#666666" points="551,-95 441,-95 441,-54 551,-54 551,-95"/>
<text text-anchor="start" x="449" y="-83" font-family="Helvetica,sans-Serif" font-size="10.00">Catch::Generators::</text>
<text text-anchor="start" x="449" y="-72" font-family="Helvetica,sans-Serif" font-size="10.00">FilterGenerator&lt; T,</text>
<text text-anchor="middle" x="496" y="-61" font-family="Helvetica,sans-Serif" font-size="10.00"> Predicate &gt;</text>
</a>
</g>
</g>
<!-- Node8&#45;&gt;Node9 -->
<g id="edge8_Node000008_Node000009" class="edge">
<title>Node8&#45;&gt;Node9</title>
<g id="a_edge8_Node000008_Node000009"><a xlink:title=" ">
<path fill="none" stroke="#63b8ff" d="M229.61,-272.51C238.31,-239.3 258.14,-180.83 296,-146.5 336.42,-109.85 396.91,-91.49 440.58,-82.54"/>
<polygon fill="#63b8ff" stroke="#63b8ff" points="226.18,-271.8 227.17,-282.35 232.98,-273.48 226.18,-271.8"/>
</a>
</g>
</g>
<!-- Node10 -->
<g id="Node000010" class="node">
<title>Node10</title>
<g id="a_Node000010"><a xlink:href="classCatch_1_1Generators_1_1FixedValuesGenerator.html" target="_top" xlink:title=" ">
<polygon fill="white" stroke="#666666" points="572,-443.5 420,-443.5 420,-413.5 572,-413.5 572,-443.5"/>
<text text-anchor="start" x="428" y="-431.5" font-family="Helvetica,sans-Serif" font-size="10.00">Catch::Generators::</text>
<text text-anchor="middle" x="496" y="-420.5" font-family="Helvetica,sans-Serif" font-size="10.00">FixedValuesGenerator&lt; T &gt;</text>
</a>
</g>
</g>
<!-- Node8&#45;&gt;Node10 -->
<g id="edge9_Node000008_Node000010" class="edge">
<title>Node8&#45;&gt;Node10</title>
<g id="a_edge9_Node000008_Node000010"><a xlink:title=" ">
<path fill="none" stroke="#63b8ff" d="M247.63,-319.58C261.07,-331.33 278.65,-345.4 296,-355.5 347.21,-385.31 364.19,-384.57 420,-404.5 428.5,-407.53 437.6,-410.6 446.43,-413.48"/>
<polygon fill="#63b8ff" stroke="#63b8ff" points="249.62,-316.66 239.83,-312.61 244.96,-321.88 249.62,-316.66"/>
</a>
</g>
</g>
<!-- Node11 -->
<g id="Node000011" class="node">
<title>Node11</title>
<g id="a_Node000011"><a xlink:href="classCatch_1_1Generators_1_1Generators.html" target="_top" xlink:title=" ">
<polygon fill="white" stroke="#666666" points="551,-395.5 441,-395.5 441,-365.5 551,-365.5 551,-395.5"/>
<text text-anchor="start" x="449" y="-383.5" font-family="Helvetica,sans-Serif" font-size="10.00">Catch::Generators::</text>
<text text-anchor="middle" x="496" y="-372.5" font-family="Helvetica,sans-Serif" font-size="10.00">Generators&lt; T &gt;</text>
</a>
</g>
</g>
<!-- Node8&#45;&gt;Node11 -->
<g id="edge10_Node000008_Node000011" class="edge">
<title>Node8&#45;&gt;Node11</title>
<g id="a_edge10_Node000008_Node000011"><a xlink:title=" ">
<path fill="none" stroke="#63b8ff" d="M270.18,-316.25C278.71,-319.49 287.58,-322.71 296,-325.5 344.48,-341.58 400.65,-356.8 440.92,-367.14"/>
<polygon fill="#63b8ff" stroke="#63b8ff" points="271.33,-312.94 260.74,-312.61 268.81,-319.48 271.33,-312.94"/>
</a>
</g>
</g>
<!-- Node12 -->
<g id="Node000012" class="node">
<title>Node12</title>
<g id="a_Node000012"><a xlink:href="classCatch_1_1Generators_1_1MapGenerator.html" target="_top" xlink:title=" ">
<polygon fill="white" stroke="#666666" points="556,-347 436,-347 436,-306 556,-306 556,-347"/>
<text text-anchor="start" x="444" y="-335" font-family="Helvetica,sans-Serif" font-size="10.00">Catch::Generators::</text>
<text text-anchor="start" x="444" y="-324" font-family="Helvetica,sans-Serif" font-size="10.00">MapGenerator&lt; T, U,</text>
<text text-anchor="middle" x="496" y="-313" font-family="Helvetica,sans-Serif" font-size="10.00"> Func &gt;</text>
</a>
</g>
</g>
<!-- Node8&#45;&gt;Node12 -->
<g id="edge11_Node000008_Node000012" class="edge">
<title>Node8&#45;&gt;Node12</title>
<g id="a_edge11_Node000008_Node000012"><a xlink:title=" ">
<path fill="none" stroke="#63b8ff" d="M288.36,-304.39C333.06,-309.17 392.18,-315.5 435.73,-320.16"/>
<polygon fill="#63b8ff" stroke="#63b8ff" points="288.51,-300.88 278.19,-303.3 287.76,-307.84 288.51,-300.88"/>
</a>
</g>
</g>
<!-- Node13 -->
<g id="Node000013" class="node">
<title>Node13</title>
<g id="a_Node000013"><a xlink:href="classCatch_1_1Generators_1_1RangeGenerator.html" target="_top" xlink:title=" ">
<polygon fill="white" stroke="#666666" points="558.5,-287.5 433.5,-287.5 433.5,-257.5 558.5,-257.5 558.5,-287.5"/>
<text text-anchor="start" x="441.5" y="-275.5" font-family="Helvetica,sans-Serif" font-size="10.00">Catch::Generators::</text>
<text text-anchor="middle" x="496" y="-264.5" font-family="Helvetica,sans-Serif" font-size="10.00">RangeGenerator&lt; T &gt;</text>
</a>
</g>
</g>
<!-- Node8&#45;&gt;Node13 -->
<g id="edge12_Node000008_Node000013" class="edge">
<title>Node8&#45;&gt;Node13</title>
<g id="a_edge12_Node000008_Node000013"><a xlink:title=" ">
<path fill="none" stroke="#63b8ff" d="M288.18,-291.58C332.09,-287.53 389.97,-282.19 433.33,-278.19"/>
<polygon fill="#63b8ff" stroke="#63b8ff" points="287.83,-288.1 278.19,-292.5 288.47,-295.07 287.83,-288.1"/>
</a>
</g>
</g>
<!-- Node14 -->
<g id="Node000014" class="node">
<title>Node14</title>
<g id="a_Node000014"><a xlink:href="classCatch_1_1Generators_1_1RepeatGenerator.html" target="_top" xlink:title=" ">
<polygon fill="white" stroke="#666666" points="560,-239.5 432,-239.5 432,-209.5 560,-209.5 560,-239.5"/>
<text text-anchor="start" x="440" y="-227.5" font-family="Helvetica,sans-Serif" font-size="10.00">Catch::Generators::</text>
<text text-anchor="middle" x="496" y="-216.5" font-family="Helvetica,sans-Serif" font-size="10.00">RepeatGenerator&lt; T &gt;</text>
</a>
</g>
</g>
<!-- Node8&#45;&gt;Node14 -->
<g id="edge13_Node000008_Node000014" class="edge">
<title>Node8&#45;&gt;Node14</title>
<g id="a_edge13_Node000008_Node000014"><a xlink:title=" ">
<path fill="none" stroke="#63b8ff" d="M287.58,-279.8C290.43,-279.02 293.24,-278.25 296,-277.5 343.78,-264.5 398.11,-250.05 437.91,-239.53"/>
<polygon fill="#63b8ff" stroke="#63b8ff" points="286.56,-276.45 277.85,-282.48 288.42,-283.2 286.56,-276.45"/>
</a>
</g>
</g>
<!-- Node15 -->
<g id="Node000015" class="node">
<title>Node15</title>
<g id="a_Node000015"><a xlink:href="classCatch_1_1Generators_1_1SingleValueGenerator.html" target="_top" xlink:title=" ">
<polygon fill="white" stroke="#666666" points="571.5,-191.5 420.5,-191.5 420.5,-161.5 571.5,-161.5 571.5,-191.5"/>
<text text-anchor="start" x="428.5" y="-179.5" font-family="Helvetica,sans-Serif" font-size="10.00">Catch::Generators::</text>
<text text-anchor="middle" x="496" y="-168.5" font-family="Helvetica,sans-Serif" font-size="10.00">SingleValueGenerator&lt; T &gt;</text>
</a>
</g>
</g>
<!-- Node8&#45;&gt;Node15 -->
<g id="edge14_Node000008_Node000015" class="edge">
<title>Node8&#45;&gt;Node15</title>
<g id="a_edge14_Node000008_Node000015"><a xlink:title=" ">
<path fill="none" stroke="#63b8ff" d="M250.51,-276.2C263.66,-266.3 280.11,-254.89 296,-246.5 341.67,-222.39 397.4,-203.6 438.25,-191.59"/>
<polygon fill="#63b8ff" stroke="#63b8ff" points="248.18,-273.57 242.38,-282.44 252.44,-279.13 248.18,-273.57"/>
</a>
</g>
</g>
<!-- Node16 -->
<g id="Node000016" class="node">
<title>Node16</title>
<g id="a_Node000016"><a xlink:href="classCatch_1_1Generators_1_1TakeGenerator.html" target="_top" xlink:title=" ">
<polygon fill="white" stroke="#666666" points="554,-143.5 438,-143.5 438,-113.5 554,-113.5 554,-143.5"/>
<text text-anchor="start" x="446" y="-131.5" font-family="Helvetica,sans-Serif" font-size="10.00">Catch::Generators::</text>
<text text-anchor="middle" x="496" y="-120.5" font-family="Helvetica,sans-Serif" font-size="10.00">TakeGenerator&lt; T &gt;</text>
</a>
</g>
</g>
<!-- Node8&#45;&gt;Node16 -->
<g id="edge15_Node000008_Node000016" class="edge">
<title>Node8&#45;&gt;Node16</title>
<g id="a_edge15_Node000008_Node000016"><a xlink:title=" ">
<path fill="none" stroke="#63b8ff" d="M236.39,-273.41C248.8,-251.43 269.79,-219.42 296,-199.5 337.91,-167.66 395.37,-149.2 437.77,-139.13"/>
<polygon fill="#63b8ff" stroke="#63b8ff" points="233.18,-271.99 231.46,-282.44 239.32,-275.34 233.18,-271.99"/>
</a>
</g>
</g>
</g>
</svg>

<g id="navigator" transform="translate(0 0)" fill="#404254">
  <rect fill="#f2f5e9" fill-opacity="0.5" stroke="#606060" stroke-width=".5" x="0" y="0" width="60" height="60"/>
  <use id="zoomplus" xlink:href="#zoomPlus" x="17" y="9" onmousedown="handleZoom(evt,'in')"/>
  <use id="zoomminus" xlink:href="#zoomMin" x="42" y="9" onmousedown="handleZoom(evt,'out')"/>
  <use id="reset" xlink:href="#resetDef" x="30" y="36" onmousedown="handleReset()"/>
   <use id="arrowup" xlink:href="#arrowUp" x="0" y="0" onmousedown="handlePan(0,-1)"/>
  <use id="arrowright" xlink:href="#arrowRight" x="0" y="0" onmousedown="handlePan(1,0)"/>
  <use id="arrowdown" xlink:href="#arrowDown" x="0" y="0" onmousedown="handlePan(0,1)"/>
  <use id="arrowleft" xlink:href="#arrowLeft" x="0" y="0" onmousedown="handlePan(-1,0)"/>
</g>
<svg viewBox="0 0 15 15" width="100%" height="30px" preserveAspectRatio="xMaxYMin meet">
 <g id="arrow_out" transform="scale(0.3 0.3)">
  <a xlink:href="classCatch_1_1Generators_1_1GeneratorUntypedBase__inherit__graph_org.svg" target="_base">
   <rect id="button" ry="5" rx="5" y="6" x="6" height="38" width="38"
        fill="#f2f5e9" fill-opacity="0.5" stroke="#606060" stroke-width="1.0"/>
   <path id="arrow"
     d="M 11.500037,31.436501 C 11.940474,20.09759 22.043105,11.32322 32.158766,21.979434 L 37.068811,17.246167 C 37.068811,17.246167 37.088388,32 37.088388,32 L 22.160133,31.978069 C 22.160133,31.978069 26.997745,27.140456 26.997745,27.140456 C 18.528582,18.264221 13.291696,25.230495 11.500037,31.436501 z"
     style="fill:#404040;"/>
  </a>
 </g>
</svg>

<style type='text/css'>
<![CDATA[
[data-mouse-over-selected='false'] { opacity: 0.7; }
[data-mouse-over-selected='true']  { opacity: 1.0; }
]]>
</style>
<script type="application/ecmascript"><![CDATA[
document.addEventListener('DOMContentLoaded', (event) => {
  highlightEdges();
  highlightAdjacentNodes();
});
]]></script>
</svg>
