<?xml version="1.0" encoding="UTF-8" standalone="no"?>
<!DOCTYPE svg PUBLIC "-//W3C//DTD SVG 1.1//EN"
 "http://www.w3.org/Graphics/SVG/1.1/DTD/svg11.dtd">
<!-- Generated by graphviz version 2.43.0 (0)
 -->
<!-- Title: spdlog::async_logger Pages: 1 -->
<svg width="268pt" height="171pt"
 viewBox="0.00 0.00 267.50 171.00" xmlns="http://www.w3.org/2000/svg" xmlns:xlink="http://www.w3.org/1999/xlink">
<g id="graph0" class="graph" transform="scale(1 1) rotate(0) translate(4 167)">
<title>spdlog::async_logger</title>
<!-- Node1 -->
<g id="Node000001" class="node">
<title>Node1</title>
<g id="a_Node000001"><a xlink:title=" ">
<polygon fill="#999999" stroke="#666666" points="206,-19 87,-19 87,0 206,0 206,-19"/>
<text text-anchor="middle" x="146.5" y="-7" font-family="Helvetica,sans-Serif" font-size="10.00">spdlog::async_logger</text>
</a>
</g>
</g>
<!-- Node2 -->
<g id="Node000002" class="node">
<title>Node2</title>
<g id="a_Node000002"><a target="_parent" xlink:href="http://en.cppreference.com/w/cpp/memory/enable_shared_from_this.html" xlink:title=" ">
<polygon fill="white" stroke="#666666" points="155,-86 0,-86 0,-56 155,-56 155,-86"/>
<text text-anchor="start" x="8" y="-74" font-family="Helvetica,sans-Serif" font-size="10.00">std::enable_shared</text>
<text text-anchor="middle" x="77.5" y="-63" font-family="Helvetica,sans-Serif" font-size="10.00">_from_this&lt; async_logger &gt;</text>
</a>
</g>
</g>
<!-- Node2&#45;&gt;Node1 -->
<g id="edge1_Node000001_Node000002" class="edge">
<title>Node2&#45;&gt;Node1</title>
<g id="a_edge1_Node000001_Node000002"><a xlink:title=" ">
<path fill="none" stroke="#63b8ff" d="M101.74,-49.1C113.66,-38.82 127.39,-26.98 136.46,-19.16"/>
<polygon fill="#63b8ff" stroke="#63b8ff" points="99.14,-46.72 93.85,-55.9 103.71,-52.02 99.14,-46.72"/>
</a>
</g>
</g>
<!-- Node3 -->
<g id="Node000003" class="node">
<title>Node3</title>
<g id="a_Node000003"><a target="_parent" xlink:href="http://en.cppreference.com/w/cpp/memory/enable_shared_from_this.html" xlink:title=" ">
<polygon fill="white" stroke="#666666" points="132,-163 23,-163 23,-133 132,-133 132,-163"/>
<text text-anchor="start" x="31" y="-151" font-family="Helvetica,sans-Serif" font-size="10.00">std::enable_shared</text>
<text text-anchor="middle" x="77.5" y="-140" font-family="Helvetica,sans-Serif" font-size="10.00">_from_this</text>
</a>
</g>
</g>
<!-- Node3&#45;&gt;Node2 -->
<g id="edge2_Node000002_Node000003" class="edge">
<title>Node3&#45;&gt;Node2</title>
<g id="a_edge2_Node000002_Node000003"><a xlink:title=" ">
<path fill="none" stroke="orange" stroke-dasharray="5,2" d="M77.5,-122.54C77.5,-110.45 77.5,-96.29 77.5,-86.04"/>
<polygon fill="orange" stroke="orange" points="74,-122.89 77.5,-132.89 81,-122.89 74,-122.89"/>
</a>
</g>
<text text-anchor="middle" x="123" y="-107" font-family="Helvetica,sans-Serif" font-size="10.00" fill="grey"> &lt; async_logger &gt;</text>
</g>
<!-- Node4 -->
<g id="Node000004" class="node">
<title>Node4</title>
<g id="a_Node000004"><a xlink:href="classspdlog_1_1logger.html" target="_top" xlink:title=" ">
<polygon fill="white" stroke="#666666" points="259.5,-80.5 173.5,-80.5 173.5,-61.5 259.5,-61.5 259.5,-80.5"/>
<text text-anchor="middle" x="216.5" y="-68.5" font-family="Helvetica,sans-Serif" font-size="10.00">spdlog::logger</text>
</a>
</g>
</g>
<!-- Node4&#45;&gt;Node1 -->
<g id="edge3_Node000001_Node000004" class="edge">
<title>Node4&#45;&gt;Node1</title>
<g id="a_edge3_Node000001_Node000004"><a xlink:title=" ">
<path fill="none" stroke="#63b8ff" d="M198.82,-54.97C185.43,-43.59 167.52,-28.37 156.51,-19.01"/>
<polygon fill="#63b8ff" stroke="#63b8ff" points="196.58,-57.67 206.47,-61.48 201.12,-52.33 196.58,-57.67"/>
</a>
</g>
</g>
</g>
</svg>
