<?xml version="1.0" encoding="UTF-8" standalone="no"?>
<!DOCTYPE svg PUBLIC "-//W3C//DTD SVG 1.1//EN"
 "http://www.w3.org/Graphics/SVG/1.1/DTD/svg11.dtd">
<!-- Generated by graphviz version 2.43.0 (0)
 -->
<!-- Title: spdlog::sinks::sink Pages: 1 -->
<!--zoomable 1082 -->

<svg id="main" version="1.1" xmlns="http://www.w3.org/2000/svg" xmlns:xlink="http://www.w3.org/1999/xlink" xml:space="preserve" onload="init(evt)">
<style type="text/css"><![CDATA[
.node, .edge {opacity: 0.7;}
.node.selected, .edge.selected {opacity: 1;}
.edge:hover path { stroke: red; }
.edge:hover polygon { stroke: red; fill: red; }
]]></style>

<defs>
  <circle id="rim" cx="0" cy="0" r="7"/>
  <circle id="rim2" cx="0" cy="0" r="3.5"/>
  <g id="zoomPlus">
    <use xlink:href="#rim" fill="#404040"><set attributeName="fill" to="#808080" begin="zoomplus.mouseover" end="zoomplus.mouseout"/></use>
    <path d="M-4,0h8M0,-4v8" fill="none" stroke="white" stroke-width="1.5" pointer-events="none"/>
  </g>
  <g id="zoomMin">
    <use xlink:href="#rim" fill="#404040"><set attributeName="fill" to="#808080" begin="zoomminus.mouseover" end="zoomminus.mouseout"/></use>
    <path d="M-4,0h8" fill="none" stroke="white" stroke-width="1.5" pointer-events="none"/>
  </g>
  <g id="arrowUp" transform="translate(30 24)">
    <use xlink:href="#rim"/>
    <path pointer-events="none" fill="none" stroke="white" stroke-width="1.5" d="M0,-3.0v7 M-2.5,-0.5L0,-3.0L2.5,-0.5"/>
  </g>
  <g id="arrowRight" transform="rotate(90) translate(36 -43)">
    <use xlink:href="#rim"/>
    <path pointer-events="none" fill="none" stroke="white" stroke-width="1.5" d="M0,-3.0v7 M-2.5,-0.5L0,-3.0L2.5,-0.5"/>
  </g>
  <g id="arrowDown" transform="rotate(180) translate(-30 -48)">
    <use xlink:href="#rim"/>
    <path pointer-events="none" fill="none" stroke="white" stroke-width="1.5" d="M0,-3.0v7 M-2.5,-0.5L0,-3.0L2.5,-0.5"/>
  </g>
  <g id="arrowLeft" transform="rotate(270) translate(-36 17)">
    <use xlink:href="#rim"/>
    <path pointer-events="none" fill="none" stroke="white" stroke-width="1.5" d="M0,-3.0v7 M-2.5,-0.5L0,-3.0L2.5,-0.5"/>
  </g>
  <g id="resetDef">
    <use xlink:href="#rim2" fill="#404040"><set attributeName="fill" to="#808080" begin="reset.mouseover" end="reset.mouseout"/></use>
  </g>
</defs>
<script type="application/ecmascript">
var viewWidth = 760;
var viewHeight = 1082;
var sectionId = 'dynsection-0';
</script>
<script type="application/ecmascript" xlink:href="svg.min.js"/>
<svg id="graph" class="graph">
<g id="viewport">
<title>spdlog::sinks::sink</title>
<!-- Node1 -->
<g id="Node000001" class="node">
<title>Node1</title>
<g id="a_Node000001"><a xlink:title=" ">
<polygon fill="#999999" stroke="#666666" points="107,-603.5 0,-603.5 0,-584.5 107,-584.5 107,-603.5"/>
<text text-anchor="middle" x="53.5" y="-591.5" font-family="Helvetica,sans-Serif" font-size="10.00">spdlog::sinks::sink</text>
</a>
</g>
</g>
<!-- Node2 -->
<g id="Node000002" class="node">
<title>Node2</title>
<g id="a_Node000002"><a xlink:href="classspdlog_1_1sinks_1_1base__sink.html" target="_top" xlink:title=" ">
<polygon fill="white" stroke="#666666" points="565.5,-978 448.5,-978 448.5,-948 565.5,-948 565.5,-978"/>
<text text-anchor="start" x="456.5" y="-966" font-family="Helvetica,sans-Serif" font-size="10.00">spdlog::sinks::base</text>
<text text-anchor="middle" x="507" y="-955" font-family="Helvetica,sans-Serif" font-size="10.00">_sink&lt; std::mutex &gt;</text>
</a>
</g>
</g>
<!-- Node1&#45;&gt;Node2 -->
<g id="edge1_Node000001_Node000002" class="edge">
<title>Node1&#45;&gt;Node2</title>
<g id="a_edge1_Node000001_Node000002"><a xlink:title=" ">
<path fill="none" stroke="#63b8ff" d="M62.5,-613.01C89.19,-673.8 181.71,-864.09 325,-944 362.39,-964.85 410.91,-968.95 448.3,-968.19"/>
<polygon fill="#63b8ff" stroke="#63b8ff" points="65.7,-611.61 58.53,-603.81 59.27,-614.38 65.7,-611.61"/>
</a>
</g>
</g>
<!-- Node4 -->
<g id="Node000004" class="node">
<title>Node4</title>
<g id="a_Node000004"><a xlink:href="classspdlog_1_1sinks_1_1ansicolor__sink.html" target="_top" xlink:title=" ">
<polygon fill="white" stroke="#666666" points="292.5,-1026 158.5,-1026 158.5,-996 292.5,-996 292.5,-1026"/>
<text text-anchor="start" x="166.5" y="-1014" font-family="Helvetica,sans-Serif" font-size="10.00">spdlog::sinks::ansicolor</text>
<text text-anchor="middle" x="225.5" y="-1003" font-family="Helvetica,sans-Serif" font-size="10.00">_sink&lt; ConsoleMutex &gt;</text>
</a>
</g>
</g>
<!-- Node1&#45;&gt;Node4 -->
<g id="edge3_Node000001_Node000004" class="edge">
<title>Node1&#45;&gt;Node4</title>
<g id="a_edge3_Node000001_Node000004"><a xlink:title=" ">
<path fill="none" stroke="#63b8ff" d="M55.55,-613.7C59.68,-684.02 77,-921.35 125,-977 133.76,-987.16 145.7,-994.29 158.26,-999.29"/>
<polygon fill="#63b8ff" stroke="#63b8ff" points="59.04,-613.36 54.98,-603.57 52.05,-613.75 59.04,-613.36"/>
</a>
</g>
</g>
<!-- Node7 -->
<g id="Node000007" class="node">
<title>Node7</title>
<g id="a_Node000007"><a xlink:href="classspdlog_1_1sinks_1_1base__sink.html" target="_top" xlink:title=" ">
<polygon fill="white" stroke="#666666" points="280.5,-609 170.5,-609 170.5,-579 280.5,-579 280.5,-609"/>
<text text-anchor="start" x="178.5" y="-597" font-family="Helvetica,sans-Serif" font-size="10.00">spdlog::sinks::base</text>
<text text-anchor="middle" x="225.5" y="-586" font-family="Helvetica,sans-Serif" font-size="10.00">_sink&lt; Mutex &gt;</text>
</a>
</g>
</g>
<!-- Node1&#45;&gt;Node7 -->
<g id="edge6_Node000001_Node000007" class="edge">
<title>Node1&#45;&gt;Node7</title>
<g id="a_edge6_Node000001_Node000007"><a xlink:title=" ">
<path fill="none" stroke="#63b8ff" d="M117.39,-594C134.74,-594 153.4,-594 170.21,-594"/>
<polygon fill="#63b8ff" stroke="#63b8ff" points="117.36,-590.5 107.36,-594 117.36,-597.5 117.36,-590.5"/>
</a>
</g>
</g>
<!-- Node24 -->
<g id="Node000024" class="node">
<title>Node24</title>
<g id="a_Node000024"><a xlink:href="classspdlog_1_1sinks_1_1stdout__sink__base.html" target="_top" xlink:title=" ">
<polygon fill="white" stroke="#666666" points="307,-174 144,-174 144,-144 307,-144 307,-174"/>
<text text-anchor="start" x="152" y="-162" font-family="Helvetica,sans-Serif" font-size="10.00">spdlog::sinks::stdout</text>
<text text-anchor="middle" x="225.5" y="-151" font-family="Helvetica,sans-Serif" font-size="10.00">_sink_base&lt; ConsoleMutex &gt;</text>
</a>
</g>
</g>
<!-- Node1&#45;&gt;Node24 -->
<g id="edge24_Node000001_Node000024" class="edge">
<title>Node1&#45;&gt;Node24</title>
<g id="a_edge24_Node000001_Node000024"><a xlink:title=" ">
<path fill="none" stroke="#63b8ff" d="M62.06,-574.66C90.79,-501.15 192.86,-239.97 218.58,-174.15"/>
<polygon fill="#63b8ff" stroke="#63b8ff" points="58.75,-573.51 58.37,-584.1 65.27,-576.06 58.75,-573.51"/>
</a>
</g>
</g>
<!-- Node27 -->
<g id="Node000027" class="node">
<title>Node27</title>
<g id="a_Node000027"><a xlink:href="classspdlog_1_1sinks_1_1wincolor__sink.html" target="_top" xlink:title=" ">
<polygon fill="white" stroke="#666666" points="292.5,-78 158.5,-78 158.5,-48 292.5,-48 292.5,-78"/>
<text text-anchor="start" x="166.5" y="-66" font-family="Helvetica,sans-Serif" font-size="10.00">spdlog::sinks::wincolor</text>
<text text-anchor="middle" x="225.5" y="-55" font-family="Helvetica,sans-Serif" font-size="10.00">_sink&lt; ConsoleMutex &gt;</text>
</a>
</g>
</g>
<!-- Node1&#45;&gt;Node27 -->
<g id="edge27_Node000001_Node000027" class="edge">
<title>Node1&#45;&gt;Node27</title>
<g id="a_edge27_Node000001_Node000027"><a xlink:title=" ">
<path fill="none" stroke="#63b8ff" d="M54.01,-573.77C53.26,-506.57 57.9,-286.48 144,-135 157.62,-111.04 182.14,-90.85 200.55,-78.01"/>
<polygon fill="#63b8ff" stroke="#63b8ff" points="50.52,-574.23 54.19,-584.17 57.52,-574.11 50.52,-574.23"/>
</a>
</g>
</g>
<!-- Node3 -->
<g id="Node000003" class="node">
<title>Node3</title>
<g id="a_Node000003"><a xlink:href="classfailing__sink.html" target="_top" xlink:title=" ">
<polygon fill="white" stroke="#666666" points="727,-972.5 654,-972.5 654,-953.5 727,-953.5 727,-972.5"/>
<text text-anchor="middle" x="690.5" y="-960.5" font-family="Helvetica,sans-Serif" font-size="10.00">failing_sink</text>
</a>
</g>
</g>
<!-- Node2&#45;&gt;Node3 -->
<g id="edge2_Node000002_Node000003" class="edge">
<title>Node2&#45;&gt;Node3</title>
<g id="a_edge2_Node000002_Node000003"><a xlink:title=" ">
<path fill="none" stroke="#63b8ff" d="M575.7,-963C602.26,-963 631.65,-963 653.9,-963"/>
<polygon fill="#63b8ff" stroke="#63b8ff" points="575.68,-959.5 565.68,-963 575.68,-966.5 575.68,-959.5"/>
</a>
</g>
</g>
<!-- Node5 -->
<g id="Node000005" class="node">
<title>Node5</title>
<g id="a_Node000005"><a xlink:href="classspdlog_1_1sinks_1_1ansicolor__stderr__sink.html" target="_top" xlink:title=" ">
<polygon fill="white" stroke="#666666" points="591,-1026 423,-1026 423,-996 591,-996 591,-1026"/>
<text text-anchor="start" x="431" y="-1014" font-family="Helvetica,sans-Serif" font-size="10.00">spdlog::sinks::ansicolor</text>
<text text-anchor="middle" x="507" y="-1003" font-family="Helvetica,sans-Serif" font-size="10.00">_stderr_sink&lt; ConsoleMutex &gt;</text>
</a>
</g>
</g>
<!-- Node4&#45;&gt;Node5 -->
<g id="edge4_Node000004_Node000005" class="edge">
<title>Node4&#45;&gt;Node5</title>
<g id="a_edge4_Node000004_Node000005"><a xlink:title=" ">
<path fill="none" stroke="#63b8ff" d="M303.01,-1011C340.2,-1011 384.95,-1011 422.96,-1011"/>
<polygon fill="#63b8ff" stroke="#63b8ff" points="302.74,-1007.5 292.74,-1011 302.74,-1014.5 302.74,-1007.5"/>
</a>
</g>
</g>
<!-- Node6 -->
<g id="Node000006" class="node">
<title>Node6</title>
<g id="a_Node000006"><a xlink:href="classspdlog_1_1sinks_1_1ansicolor__stdout__sink.html" target="_top" xlink:title=" ">
<polygon fill="white" stroke="#666666" points="592,-1074 422,-1074 422,-1044 592,-1044 592,-1074"/>
<text text-anchor="start" x="430" y="-1062" font-family="Helvetica,sans-Serif" font-size="10.00">spdlog::sinks::ansicolor</text>
<text text-anchor="middle" x="507" y="-1051" font-family="Helvetica,sans-Serif" font-size="10.00">_stdout_sink&lt; ConsoleMutex &gt;</text>
</a>
</g>
</g>
<!-- Node4&#45;&gt;Node6 -->
<g id="edge5_Node000004_Node000006" class="edge">
<title>Node4&#45;&gt;Node6</title>
<g id="a_edge5_Node000004_Node000006"><a xlink:title=" ">
<path fill="none" stroke="#63b8ff" d="M302.93,-1024.13C339.79,-1030.46 384.11,-1038.07 421.93,-1044.56"/>
<polygon fill="#63b8ff" stroke="#63b8ff" points="303.19,-1020.62 292.74,-1022.38 302,-1027.52 303.19,-1020.62"/>
</a>
</g>
</g>
<!-- Node7&#45;&gt;Node2 -->
<g id="edge23_Node000007_Node000002" class="edge">
<title>Node7&#45;&gt;Node2</title>
<g id="a_edge23_Node000007_Node000002"><a xlink:title=" ">
<path fill="none" stroke="orange" stroke-dasharray="5,2" d="M231.01,-619.28C240.94,-669.51 268.45,-783.78 325,-862 357.25,-906.6 373.04,-913.84 422,-939 430.23,-943.23 439.31,-946.8 448.36,-949.8"/>
<polygon fill="orange" stroke="orange" points="234.42,-618.46 229.1,-609.29 227.54,-619.77 234.42,-618.46"/>
</a>
</g>
<text text-anchor="middle" x="364.5" y="-932" font-family="Helvetica,sans-Serif" font-size="10.00" fill="grey"> &lt; std::mutex &gt;</text>
</g>
<!-- Node8 -->
<g id="Node000008" class="node">
<title>Node8</title>
<g id="a_Node000008"><a xlink:href="classspdlog_1_1sinks_1_1basic__file__sink.html" target="_top" xlink:title=" ">
<polygon fill="white" stroke="#666666" points="565,-582 449,-582 449,-552 565,-552 565,-582"/>
<text text-anchor="start" x="457" y="-570" font-family="Helvetica,sans-Serif" font-size="10.00">spdlog::sinks::basic</text>
<text text-anchor="middle" x="507" y="-559" font-family="Helvetica,sans-Serif" font-size="10.00">_file_sink&lt; Mutex &gt;</text>
</a>
</g>
</g>
<!-- Node7&#45;&gt;Node8 -->
<g id="edge7_Node000007_Node000008" class="edge">
<title>Node7&#45;&gt;Node8</title>
<g id="a_edge7_Node000007_Node000008"><a xlink:title=" ">
<path fill="none" stroke="#63b8ff" d="M290.92,-587.78C338.5,-583.18 402.72,-576.98 448.56,-572.55"/>
<polygon fill="#63b8ff" stroke="#63b8ff" points="290.34,-584.32 280.72,-588.76 291.01,-591.28 290.34,-584.32"/>
</a>
</g>
</g>
<!-- Node9 -->
<g id="Node000009" class="node">
<title>Node9</title>
<g id="a_Node000009"><a xlink:href="classspdlog_1_1sinks_1_1daily__file__sink.html" target="_top" xlink:title=" ">
<polygon fill="white" stroke="#666666" points="585.5,-533.5 428.5,-533.5 428.5,-492.5 585.5,-492.5 585.5,-533.5"/>
<text text-anchor="start" x="436.5" y="-521.5" font-family="Helvetica,sans-Serif" font-size="10.00">spdlog::sinks::daily</text>
<text text-anchor="start" x="436.5" y="-510.5" font-family="Helvetica,sans-Serif" font-size="10.00">_file_sink&lt; Mutex, FileName</text>
<text text-anchor="middle" x="507" y="-499.5" font-family="Helvetica,sans-Serif" font-size="10.00">Calc &gt;</text>
</a>
</g>
</g>
<!-- Node7&#45;&gt;Node9 -->
<g id="edge8_Node000007_Node000009" class="edge">
<title>Node7&#45;&gt;Node9</title>
<g id="a_edge8_Node000007_Node000009"><a xlink:title=" ">
<path fill="none" stroke="#63b8ff" d="M288.28,-576.1C331.68,-563.52 389.84,-546.66 435.13,-533.54"/>
<polygon fill="#63b8ff" stroke="#63b8ff" points="287.05,-572.81 278.42,-578.95 289,-579.53 287.05,-572.81"/>
</a>
</g>
</g>
<!-- Node10 -->
<g id="Node000010" class="node">
<title>Node10</title>
<g id="a_Node000010"><a xlink:href="classspdlog_1_1sinks_1_1dist__sink.html" target="_top" xlink:title=" ">
<polygon fill="white" stroke="#666666" points="559,-474 455,-474 455,-444 559,-444 559,-474"/>
<text text-anchor="start" x="463" y="-462" font-family="Helvetica,sans-Serif" font-size="10.00">spdlog::sinks::dist</text>
<text text-anchor="middle" x="507" y="-451" font-family="Helvetica,sans-Serif" font-size="10.00">_sink&lt; Mutex &gt;</text>
</a>
</g>
</g>
<!-- Node7&#45;&gt;Node10 -->
<g id="edge9_Node000007_Node000010" class="edge">
<title>Node7&#45;&gt;Node10</title>
<g id="a_edge9_Node000007_Node000010"><a xlink:title=" ">
<path fill="none" stroke="#63b8ff" d="M257.92,-573.4C295.65,-549.37 361.42,-509.68 422,-484 432.37,-479.61 443.76,-475.66 454.72,-472.28"/>
<polygon fill="#63b8ff" stroke="#63b8ff" points="255.94,-570.52 249.41,-578.86 259.72,-576.41 255.94,-570.52"/>
</a>
</g>
</g>
<!-- Node12 -->
<g id="Node000012" class="node">
<title>Node12</title>
<g id="a_Node000012"><a xlink:href="classspdlog_1_1sinks_1_1hourly__file__sink.html" target="_top" xlink:title=" ">
<polygon fill="white" stroke="#666666" points="585.5,-425.5 428.5,-425.5 428.5,-384.5 585.5,-384.5 585.5,-425.5"/>
<text text-anchor="start" x="436.5" y="-413.5" font-family="Helvetica,sans-Serif" font-size="10.00">spdlog::sinks::hourly</text>
<text text-anchor="start" x="436.5" y="-402.5" font-family="Helvetica,sans-Serif" font-size="10.00">_file_sink&lt; Mutex, FileName</text>
<text text-anchor="middle" x="507" y="-391.5" font-family="Helvetica,sans-Serif" font-size="10.00">Calc &gt;</text>
</a>
</g>
</g>
<!-- Node7&#45;&gt;Node12 -->
<g id="edge11_Node000007_Node000012" class="edge">
<title>Node7&#45;&gt;Node12</title>
<g id="a_edge11_Node000007_Node000012"><a xlink:title=" ">
<path fill="none" stroke="#63b8ff" d="M244.81,-570.61C263.37,-547.91 293.72,-513.41 325,-489 363.9,-458.64 377.06,-455.37 422,-435 429.19,-431.74 436.85,-428.59 444.51,-425.63"/>
<polygon fill="#63b8ff" stroke="#63b8ff" points="241.85,-568.71 238.3,-578.69 247.3,-573.1 241.85,-568.71"/>
</a>
</g>
</g>
<!-- Node13 -->
<g id="Node000013" class="node">
<title>Node13</title>
<g id="a_Node000013"><a xlink:href="classspdlog_1_1sinks_1_1mongo__sink.html" target="_top" xlink:title=" ">
<polygon fill="white" stroke="#666666" points="567,-366 447,-366 447,-336 567,-336 567,-366"/>
<text text-anchor="start" x="455" y="-354" font-family="Helvetica,sans-Serif" font-size="10.00">spdlog::sinks::mongo</text>
<text text-anchor="middle" x="507" y="-343" font-family="Helvetica,sans-Serif" font-size="10.00">_sink&lt; Mutex &gt;</text>
</a>
</g>
</g>
<!-- Node7&#45;&gt;Node13 -->
<g id="edge12_Node000007_Node000013" class="edge">
<title>Node7&#45;&gt;Node13</title>
<g id="a_edge12_Node000007_Node000013"><a xlink:title=" ">
<path fill="none" stroke="#63b8ff" d="M237.83,-569.63C253.83,-537.06 285.56,-478.83 325,-439 361.17,-402.47 375.33,-397.55 422,-376 430.01,-372.3 438.71,-368.99 447.36,-366.09"/>
<polygon fill="#63b8ff" stroke="#63b8ff" points="234.57,-568.34 233.38,-578.86 240.87,-571.38 234.57,-568.34"/>
</a>
</g>
</g>
<!-- Node14 -->
<g id="Node000014" class="node">
<title>Node14</title>
<g id="a_Node000014"><a xlink:href="classspdlog_1_1sinks_1_1null__sink.html" target="_top" xlink:title=" ">
<polygon fill="white" stroke="#666666" points="559,-318 455,-318 455,-288 559,-288 559,-318"/>
<text text-anchor="start" x="463" y="-306" font-family="Helvetica,sans-Serif" font-size="10.00">spdlog::sinks::null</text>
<text text-anchor="middle" x="507" y="-295" font-family="Helvetica,sans-Serif" font-size="10.00">_sink&lt; Mutex &gt;</text>
</a>
</g>
</g>
<!-- Node7&#45;&gt;Node14 -->
<g id="edge13_Node000007_Node000014" class="edge">
<title>Node7&#45;&gt;Node14</title>
<g id="a_edge13_Node000007_Node000014"><a xlink:title=" ">
<path fill="none" stroke="#63b8ff" d="M232.62,-568.83C244.18,-525.76 272.89,-437.17 325,-381 359.44,-343.88 414.56,-323.61 454.93,-313.11"/>
<polygon fill="#63b8ff" stroke="#63b8ff" points="229.17,-568.19 230.04,-578.75 235.94,-569.95 229.17,-568.19"/>
</a>
</g>
</g>
<!-- Node15 -->
<g id="Node000015" class="node">
<title>Node15</title>
<g id="a_Node000015"><a xlink:href="classspdlog_1_1sinks_1_1ostream__sink.html" target="_top" xlink:title=" ">
<polygon fill="white" stroke="#666666" points="570.5,-270 443.5,-270 443.5,-240 570.5,-240 570.5,-270"/>
<text text-anchor="start" x="451.5" y="-258" font-family="Helvetica,sans-Serif" font-size="10.00">spdlog::sinks::ostream</text>
<text text-anchor="middle" x="507" y="-247" font-family="Helvetica,sans-Serif" font-size="10.00">_sink&lt; Mutex &gt;</text>
</a>
</g>
</g>
<!-- Node7&#45;&gt;Node15 -->
<g id="edge14_Node000007_Node000015" class="edge">
<title>Node7&#45;&gt;Node15</title>
<g id="a_edge14_Node000007_Node000015"><a xlink:title=" ">
<path fill="none" stroke="#63b8ff" d="M229.52,-568.78C236.9,-517.33 260.23,-399.03 325,-327 355.53,-293.05 404.19,-274.88 443.38,-265.3"/>
<polygon fill="#63b8ff" stroke="#63b8ff" points="226.05,-568.33 228.18,-578.71 232.99,-569.27 226.05,-568.33"/>
</a>
</g>
</g>
<!-- Node16 -->
<g id="Node000016" class="node">
<title>Node16</title>
<g id="a_Node000016"><a xlink:href="classspdlog_1_1sinks_1_1qt__sink.html" target="_top" xlink:title=" ">
<polygon fill="white" stroke="#666666" points="568,-222 446,-222 446,-192 568,-192 568,-222"/>
<text text-anchor="start" x="454" y="-210" font-family="Helvetica,sans-Serif" font-size="10.00">spdlog::sinks::qt_sink</text>
<text text-anchor="middle" x="507" y="-199" font-family="Helvetica,sans-Serif" font-size="10.00">&lt; Mutex &gt;</text>
</a>
</g>
</g>
<!-- Node7&#45;&gt;Node16 -->
<g id="edge15_Node000007_Node000016" class="edge">
<title>Node7&#45;&gt;Node16</title>
<g id="a_edge15_Node000007_Node000016"><a xlink:title=" ">
<path fill="none" stroke="#63b8ff" d="M227.49,-568.71C231.1,-509.97 247.79,-362.64 325,-275 355.62,-240.24 405.83,-223.2 445.6,-214.87"/>
<polygon fill="#63b8ff" stroke="#63b8ff" points="223.99,-568.75 226.95,-578.92 230.98,-569.12 223.99,-568.75"/>
</a>
</g>
</g>
<!-- Node17 -->
<g id="Node000017" class="node">
<title>Node17</title>
<g id="a_Node000017"><a xlink:href="classspdlog_1_1sinks_1_1ringbuffer__sink.html" target="_top" xlink:title=" ">
<polygon fill="white" stroke="#666666" points="574,-930 440,-930 440,-900 574,-900 574,-930"/>
<text text-anchor="start" x="448" y="-918" font-family="Helvetica,sans-Serif" font-size="10.00">spdlog::sinks::ringbuffer</text>
<text text-anchor="middle" x="507" y="-907" font-family="Helvetica,sans-Serif" font-size="10.00">_sink&lt; Mutex &gt;</text>
</a>
</g>
</g>
<!-- Node7&#45;&gt;Node17 -->
<g id="edge16_Node000007_Node000017" class="edge">
<title>Node7&#45;&gt;Node17</title>
<g id="a_edge16_Node000007_Node000017"><a xlink:title=" ">
<path fill="none" stroke="#63b8ff" d="M233.19,-618.68C245.77,-661.86 276.17,-752.44 325,-815 358.7,-858.17 373.21,-866.13 422,-891 428.62,-894.38 435.78,-897.34 443.04,-899.92"/>
<polygon fill="#63b8ff" stroke="#63b8ff" points="236.54,-617.67 230.44,-609.01 229.81,-619.59 236.54,-617.67"/>
</a>
</g>
</g>
<!-- Node18 -->
<g id="Node000018" class="node">
<title>Node18</title>
<g id="a_Node000018"><a xlink:href="classspdlog_1_1sinks_1_1rotating__file__sink.html" target="_top" xlink:title=" ">
<polygon fill="white" stroke="#666666" points="569.5,-882 444.5,-882 444.5,-852 569.5,-852 569.5,-882"/>
<text text-anchor="start" x="452.5" y="-870" font-family="Helvetica,sans-Serif" font-size="10.00">spdlog::sinks::rotating</text>
<text text-anchor="middle" x="507" y="-859" font-family="Helvetica,sans-Serif" font-size="10.00">_file_sink&lt; Mutex &gt;</text>
</a>
</g>
</g>
<!-- Node7&#45;&gt;Node18 -->
<g id="edge17_Node000007_Node000018" class="edge">
<title>Node7&#45;&gt;Node18</title>
<g id="a_edge17_Node000007_Node000018"><a xlink:title=" ">
<path fill="none" stroke="#63b8ff" d="M236.41,-618.73C251.66,-654.75 283.52,-722.51 325,-770 360.49,-810.64 373.69,-818.96 422,-843 429.06,-846.51 436.72,-849.59 444.44,-852.26"/>
<polygon fill="#63b8ff" stroke="#63b8ff" points="239.62,-617.35 232.55,-609.46 233.16,-620.03 239.62,-617.35"/>
</a>
</g>
</g>
<!-- Node19 -->
<g id="Node000019" class="node">
<title>Node19</title>
<g id="a_Node000019"><a xlink:href="classspdlog_1_1sinks_1_1syslog__sink.html" target="_top" xlink:title=" ">
<polygon fill="white" stroke="#666666" points="566,-834 448,-834 448,-804 566,-804 566,-834"/>
<text text-anchor="start" x="456" y="-822" font-family="Helvetica,sans-Serif" font-size="10.00">spdlog::sinks::syslog</text>
<text text-anchor="middle" x="507" y="-811" font-family="Helvetica,sans-Serif" font-size="10.00">_sink&lt; Mutex &gt;</text>
</a>
</g>
</g>
<!-- Node7&#45;&gt;Node19 -->
<g id="edge18_Node000007_Node000019" class="edge">
<title>Node7&#45;&gt;Node19</title>
<g id="a_edge18_Node000007_Node000019"><a xlink:title=" ">
<path fill="none" stroke="#63b8ff" d="M240.8,-618.18C258.31,-646.55 290.01,-694.03 325,-728 362.59,-764.5 374.63,-772.62 422,-795 430.09,-798.82 438.91,-802.16 447.7,-805.03"/>
<polygon fill="#63b8ff" stroke="#63b8ff" points="243.6,-616.06 235.41,-609.34 237.62,-619.7 243.6,-616.06"/>
</a>
</g>
</g>
<!-- Node20 -->
<g id="Node000020" class="node">
<title>Node20</title>
<g id="a_Node000020"><a xlink:href="classspdlog_1_1sinks_1_1systemd__sink.html" target="_top" xlink:title=" ">
<polygon fill="white" stroke="#666666" points="571,-786 443,-786 443,-756 571,-756 571,-786"/>
<text text-anchor="start" x="451" y="-774" font-family="Helvetica,sans-Serif" font-size="10.00">spdlog::sinks::systemd</text>
<text text-anchor="middle" x="507" y="-763" font-family="Helvetica,sans-Serif" font-size="10.00">_sink&lt; Mutex &gt;</text>
</a>
</g>
</g>
<!-- Node7&#45;&gt;Node20 -->
<g id="edge19_Node000007_Node000020" class="edge">
<title>Node7&#45;&gt;Node20</title>
<g id="a_edge19_Node000007_Node000020"><a xlink:title=" ">
<path fill="none" stroke="#63b8ff" d="M247.93,-616.67C281.56,-650.77 350.34,-714.7 422,-747 429.33,-750.3 437.22,-753.27 445.13,-755.89"/>
<polygon fill="#63b8ff" stroke="#63b8ff" points="250.02,-613.8 240.53,-609.07 245,-618.68 250.02,-613.8"/>
</a>
</g>
</g>
<!-- Node21 -->
<g id="Node000021" class="node">
<title>Node21</title>
<g id="a_Node000021"><a xlink:href="classspdlog_1_1sinks_1_1tcp__sink.html" target="_top" xlink:title=" ">
<polygon fill="white" stroke="#666666" points="557.5,-738 456.5,-738 456.5,-708 557.5,-708 557.5,-738"/>
<text text-anchor="start" x="464.5" y="-726" font-family="Helvetica,sans-Serif" font-size="10.00">spdlog::sinks::tcp</text>
<text text-anchor="middle" x="507" y="-715" font-family="Helvetica,sans-Serif" font-size="10.00">_sink&lt; Mutex &gt;</text>
</a>
</g>
</g>
<!-- Node7&#45;&gt;Node21 -->
<g id="edge20_Node000007_Node000021" class="edge">
<title>Node7&#45;&gt;Node21</title>
<g id="a_edge20_Node000007_Node000021"><a xlink:title=" ">
<path fill="none" stroke="#63b8ff" d="M258.95,-614.25C296.91,-637.25 362.17,-674.74 422,-699 432.82,-703.39 444.73,-707.31 456.1,-710.64"/>
<polygon fill="#63b8ff" stroke="#63b8ff" points="260.73,-611.23 250.37,-609.01 257.08,-617.21 260.73,-611.23"/>
</a>
</g>
</g>
<!-- Node22 -->
<g id="Node000022" class="node">
<title>Node22</title>
<g id="a_Node000022"><a xlink:href="classspdlog_1_1sinks_1_1test__sink.html" target="_top" xlink:title=" ">
<polygon fill="white" stroke="#666666" points="559.5,-690 454.5,-690 454.5,-660 559.5,-660 559.5,-690"/>
<text text-anchor="start" x="462.5" y="-678" font-family="Helvetica,sans-Serif" font-size="10.00">spdlog::sinks::test</text>
<text text-anchor="middle" x="507" y="-667" font-family="Helvetica,sans-Serif" font-size="10.00">_sink&lt; Mutex &gt;</text>
</a>
</g>
</g>
<!-- Node7&#45;&gt;Node22 -->
<g id="edge21_Node000007_Node000022" class="edge">
<title>Node7&#45;&gt;Node22</title>
<g id="a_edge21_Node000007_Node000022"><a xlink:title=" ">
<path fill="none" stroke="#63b8ff" d="M287.95,-612.01C326.44,-623.27 377.1,-638.04 422,-651 432.49,-654.03 443.73,-657.25 454.46,-660.32"/>
<polygon fill="#63b8ff" stroke="#63b8ff" points="288.51,-608.53 277.93,-609.08 286.55,-615.24 288.51,-608.53"/>
</a>
</g>
</g>
<!-- Node23 -->
<g id="Node000023" class="node">
<title>Node23</title>
<g id="a_Node000023"><a xlink:href="classspdlog_1_1sinks_1_1win__eventlog_1_1win__eventlog__sink.html" target="_top" xlink:title=" ">
<polygon fill="white" stroke="#666666" points="575,-641.5 439,-641.5 439,-600.5 575,-600.5 575,-641.5"/>
<text text-anchor="start" x="447" y="-629.5" font-family="Helvetica,sans-Serif" font-size="10.00">spdlog::sinks::win</text>
<text text-anchor="start" x="447" y="-618.5" font-family="Helvetica,sans-Serif" font-size="10.00">_eventlog::win_eventlog</text>
<text text-anchor="middle" x="507" y="-607.5" font-family="Helvetica,sans-Serif" font-size="10.00">_sink&lt; Mutex &gt;</text>
</a>
</g>
</g>
<!-- Node7&#45;&gt;Node23 -->
<g id="edge22_Node000007_Node000023" class="edge">
<title>Node7&#45;&gt;Node23</title>
<g id="a_edge22_Node000007_Node000023"><a xlink:title=" ">
<path fill="none" stroke="#63b8ff" d="M290.8,-600.21C335.13,-604.49 393.92,-610.17 438.84,-614.51"/>
<polygon fill="#63b8ff" stroke="#63b8ff" points="291.01,-596.72 280.72,-599.24 290.34,-603.68 291.01,-596.72"/>
</a>
</g>
</g>
<!-- Node11 -->
<g id="Node000011" class="node">
<title>Node11</title>
<g id="a_Node000011"><a xlink:href="classspdlog_1_1sinks_1_1dup__filter__sink.html" target="_top" xlink:title=" ">
<polygon fill="white" stroke="#666666" points="752,-474 629,-474 629,-444 752,-444 752,-474"/>
<text text-anchor="start" x="637" y="-462" font-family="Helvetica,sans-Serif" font-size="10.00">spdlog::sinks::dup</text>
<text text-anchor="middle" x="690.5" y="-451" font-family="Helvetica,sans-Serif" font-size="10.00">_filter_sink&lt; Mutex &gt;</text>
</a>
</g>
</g>
<!-- Node10&#45;&gt;Node11 -->
<g id="edge10_Node000010_Node000011" class="edge">
<title>Node10&#45;&gt;Node11</title>
<g id="a_edge10_Node000010_Node000011"><a xlink:title=" ">
<path fill="none" stroke="#63b8ff" d="M569.2,-459C588.44,-459 609.67,-459 628.88,-459"/>
<polygon fill="#63b8ff" stroke="#63b8ff" points="569.04,-455.5 559.04,-459 569.04,-462.5 569.04,-455.5"/>
</a>
</g>
</g>
<!-- Node25 -->
<g id="Node000025" class="node">
<title>Node25</title>
<g id="a_Node000025"><a xlink:href="classspdlog_1_1sinks_1_1stderr__sink.html" target="_top" xlink:title=" ">
<polygon fill="white" stroke="#666666" points="574,-126 440,-126 440,-96 574,-96 574,-126"/>
<text text-anchor="start" x="448" y="-114" font-family="Helvetica,sans-Serif" font-size="10.00">spdlog::sinks::stderr</text>
<text text-anchor="middle" x="507" y="-103" font-family="Helvetica,sans-Serif" font-size="10.00">_sink&lt; ConsoleMutex &gt;</text>
</a>
</g>
</g>
<!-- Node24&#45;&gt;Node25 -->
<g id="edge25_Node000024_Node000025" class="edge">
<title>Node24&#45;&gt;Node25</title>
<g id="a_edge25_Node000024_Node000025"><a xlink:title=" ">
<path fill="none" stroke="#63b8ff" d="M317.36,-143.4C357.29,-136.54 403.33,-128.63 439.92,-122.35"/>
<polygon fill="#63b8ff" stroke="#63b8ff" points="316.61,-139.97 307.34,-145.12 317.79,-146.87 316.61,-139.97"/>
</a>
</g>
</g>
<!-- Node26 -->
<g id="Node000026" class="node">
<title>Node26</title>
<g id="a_Node000026"><a xlink:href="classspdlog_1_1sinks_1_1stdout__sink.html" target="_top" xlink:title=" ">
<polygon fill="white" stroke="#666666" points="574,-174 440,-174 440,-144 574,-144 574,-174"/>
<text text-anchor="start" x="448" y="-162" font-family="Helvetica,sans-Serif" font-size="10.00">spdlog::sinks::stdout</text>
<text text-anchor="middle" x="507" y="-151" font-family="Helvetica,sans-Serif" font-size="10.00">_sink&lt; ConsoleMutex &gt;</text>
</a>
</g>
</g>
<!-- Node24&#45;&gt;Node26 -->
<g id="edge26_Node000024_Node000026" class="edge">
<title>Node24&#45;&gt;Node26</title>
<g id="a_edge26_Node000024_Node000026"><a xlink:title=" ">
<path fill="none" stroke="#63b8ff" d="M317.36,-159C357.29,-159 403.33,-159 439.92,-159"/>
<polygon fill="#63b8ff" stroke="#63b8ff" points="317.34,-155.5 307.34,-159 317.34,-162.5 317.34,-155.5"/>
</a>
</g>
</g>
<!-- Node28 -->
<g id="Node000028" class="node">
<title>Node28</title>
<g id="a_Node000028"><a xlink:href="classspdlog_1_1sinks_1_1wincolor__stderr__sink.html" target="_top" xlink:title=" ">
<polygon fill="white" stroke="#666666" points="591,-30 423,-30 423,0 591,0 591,-30"/>
<text text-anchor="start" x="431" y="-18" font-family="Helvetica,sans-Serif" font-size="10.00">spdlog::sinks::wincolor</text>
<text text-anchor="middle" x="507" y="-7" font-family="Helvetica,sans-Serif" font-size="10.00">_stderr_sink&lt; ConsoleMutex &gt;</text>
</a>
</g>
</g>
<!-- Node27&#45;&gt;Node28 -->
<g id="edge28_Node000027_Node000028" class="edge">
<title>Node27&#45;&gt;Node28</title>
<g id="a_edge28_Node000027_Node000028"><a xlink:title=" ">
<path fill="none" stroke="#63b8ff" d="M303.01,-49.86C340.2,-43.47 384.95,-35.79 422.96,-29.26"/>
<polygon fill="#63b8ff" stroke="#63b8ff" points="302,-46.48 292.74,-51.62 303.19,-53.38 302,-46.48"/>
</a>
</g>
</g>
<!-- Node29 -->
<g id="Node000029" class="node">
<title>Node29</title>
<g id="a_Node000029"><a xlink:href="classspdlog_1_1sinks_1_1wincolor__stdout__sink.html" target="_top" xlink:title=" ">
<polygon fill="white" stroke="#666666" points="592,-78 422,-78 422,-48 592,-48 592,-78"/>
<text text-anchor="start" x="430" y="-66" font-family="Helvetica,sans-Serif" font-size="10.00">spdlog::sinks::wincolor</text>
<text text-anchor="middle" x="507" y="-55" font-family="Helvetica,sans-Serif" font-size="10.00">_stdout_sink&lt; ConsoleMutex &gt;</text>
</a>
</g>
</g>
<!-- Node27&#45;&gt;Node29 -->
<g id="edge29_Node000027_Node000029" class="edge">
<title>Node27&#45;&gt;Node29</title>
<g id="a_edge29_Node000027_Node000029"><a xlink:title=" ">
<path fill="none" stroke="#63b8ff" d="M302.93,-63C339.79,-63 384.11,-63 421.93,-63"/>
<polygon fill="#63b8ff" stroke="#63b8ff" points="302.74,-59.5 292.74,-63 302.74,-66.5 302.74,-59.5"/>
</a>
</g>
</g>
</g>
</svg>

<g id="navigator" transform="translate(0 0)" fill="#404254">
  <rect fill="#f2f5e9" fill-opacity="0.5" stroke="#606060" stroke-width=".5" x="0" y="0" width="60" height="60"/>
  <use id="zoomplus" xlink:href="#zoomPlus" x="17" y="9" onmousedown="handleZoom(evt,'in')"/>
  <use id="zoomminus" xlink:href="#zoomMin" x="42" y="9" onmousedown="handleZoom(evt,'out')"/>
  <use id="reset" xlink:href="#resetDef" x="30" y="36" onmousedown="handleReset()"/>
   <use id="arrowup" xlink:href="#arrowUp" x="0" y="0" onmousedown="handlePan(0,-1)"/>
  <use id="arrowright" xlink:href="#arrowRight" x="0" y="0" onmousedown="handlePan(1,0)"/>
  <use id="arrowdown" xlink:href="#arrowDown" x="0" y="0" onmousedown="handlePan(0,1)"/>
  <use id="arrowleft" xlink:href="#arrowLeft" x="0" y="0" onmousedown="handlePan(-1,0)"/>
</g>
<svg viewBox="0 0 15 15" width="100%" height="30px" preserveAspectRatio="xMaxYMin meet">
 <g id="arrow_out" transform="scale(0.3 0.3)">
  <a xlink:href="classspdlog_1_1sinks_1_1sink__inherit__graph_org.svg" target="_base">
   <rect id="button" ry="5" rx="5" y="6" x="6" height="38" width="38"
        fill="#f2f5e9" fill-opacity="0.5" stroke="#606060" stroke-width="1.0"/>
   <path id="arrow"
     d="M 11.500037,31.436501 C 11.940474,20.09759 22.043105,11.32322 32.158766,21.979434 L 37.068811,17.246167 C 37.068811,17.246167 37.088388,32 37.088388,32 L 22.160133,31.978069 C 22.160133,31.978069 26.997745,27.140456 26.997745,27.140456 C 18.528582,18.264221 13.291696,25.230495 11.500037,31.436501 z"
     style="fill:#404040;"/>
  </a>
 </g>
</svg>

<style type='text/css'>
<![CDATA[
[data-mouse-over-selected='false'] { opacity: 0.7; }
[data-mouse-over-selected='true']  { opacity: 1.0; }
]]>
</style>
<script type="application/ecmascript"><![CDATA[
document.addEventListener('DOMContentLoaded', (event) => {
  highlightEdges();
  highlightAdjacentNodes();
});
]]></script>
</svg>
