<?xml version="1.0" encoding="UTF-8" standalone="no"?>
<!DOCTYPE svg PUBLIC "-//W3C//DTD SVG 1.1//EN"
 "http://www.w3.org/Graphics/SVG/1.1/DTD/svg11.dtd">
<!-- Generated by graphviz version 2.43.0 (0)
 -->
<!-- Title: failing_sink Pages: 1 -->
<svg width="189pt" height="227pt"
 viewBox="0.00 0.00 188.50 227.00" xmlns="http://www.w3.org/2000/svg" xmlns:xlink="http://www.w3.org/1999/xlink">
<g id="graph0" class="graph" transform="scale(1 1) rotate(0) translate(4 223)">
<title>failing_sink</title>
<!-- Node1 -->
<g id="Node000001" class="node">
<title>Node1</title>
<g id="a_Node000001"><a xlink:title=" ">
<polygon fill="#999999" stroke="#666666" points="95,-19 22,-19 22,0 95,0 95,-19"/>
<text text-anchor="middle" x="58.5" y="-7" font-family="Helvetica,sans-Serif" font-size="10.00">failing_sink</text>
</a>
</g>
</g>
<!-- Node2 -->
<g id="Node000002" class="node">
<title>Node2</title>
<g id="a_Node000002"><a xlink:href="classspdlog_1_1sinks_1_1base__sink.html" target="_top" xlink:title=" ">
<polygon fill="white" stroke="#666666" points="117,-86 0,-86 0,-56 117,-56 117,-86"/>
<text text-anchor="start" x="8" y="-74" font-family="Helvetica,sans-Serif" font-size="10.00">spdlog::sinks::base</text>
<text text-anchor="middle" x="58.5" y="-63" font-family="Helvetica,sans-Serif" font-size="10.00">_sink&lt; std::mutex &gt;</text>
</a>
</g>
</g>
<!-- Node2&#45;&gt;Node1 -->
<g id="edge1_Node000001_Node000002" class="edge">
<title>Node2&#45;&gt;Node1</title>
<g id="a_edge1_Node000001_Node000002"><a xlink:title=" ">
<path fill="none" stroke="#63b8ff" d="M58.5,-45.79C58.5,-36.36 58.5,-26.15 58.5,-19.16"/>
<polygon fill="#63b8ff" stroke="#63b8ff" points="55,-45.9 58.5,-55.9 62,-45.9 55,-45.9"/>
</a>
</g>
</g>
<!-- Node3 -->
<g id="Node000003" class="node">
<title>Node3</title>
<g id="a_Node000003"><a xlink:href="classspdlog_1_1sinks_1_1sink.html" target="_top" xlink:title=" ">
<polygon fill="white" stroke="#666666" points="108,-219 1,-219 1,-200 108,-200 108,-219"/>
<text text-anchor="middle" x="54.5" y="-207" font-family="Helvetica,sans-Serif" font-size="10.00">spdlog::sinks::sink</text>
</a>
</g>
</g>
<!-- Node3&#45;&gt;Node2 -->
<g id="edge2_Node000002_Node000003" class="edge">
<title>Node3&#45;&gt;Node2</title>
<g id="a_edge2_Node000002_Node000003"><a xlink:title=" ">
<path fill="none" stroke="#63b8ff" d="M55.05,-189.65C55.87,-161.91 57.37,-110.7 58.09,-86.02"/>
<polygon fill="#63b8ff" stroke="#63b8ff" points="51.54,-189.86 54.75,-199.96 58.54,-190.07 51.54,-189.86"/>
</a>
</g>
</g>
<!-- Node4 -->
<g id="Node000004" class="node">
<title>Node4</title>
<g id="a_Node000004"><a xlink:href="classspdlog_1_1sinks_1_1base__sink.html" target="_top" xlink:title=" ">
<polygon fill="white" stroke="#666666" points="180.5,-163 70.5,-163 70.5,-133 180.5,-133 180.5,-163"/>
<text text-anchor="start" x="78.5" y="-151" font-family="Helvetica,sans-Serif" font-size="10.00">spdlog::sinks::base</text>
<text text-anchor="middle" x="125.5" y="-140" font-family="Helvetica,sans-Serif" font-size="10.00">_sink&lt; Mutex &gt;</text>
</a>
</g>
</g>
<!-- Node3&#45;&gt;Node4 -->
<g id="edge4_Node000004_Node000003" class="edge">
<title>Node3&#45;&gt;Node4</title>
<g id="a_edge4_Node000004_Node000003"><a xlink:title=" ">
<path fill="none" stroke="#63b8ff" d="M72.49,-193.42C83.64,-184.08 97.86,-172.16 108.77,-163.02"/>
<polygon fill="#63b8ff" stroke="#63b8ff" points="70.09,-190.87 64.67,-199.98 74.59,-196.23 70.09,-190.87"/>
</a>
</g>
</g>
<!-- Node4&#45;&gt;Node2 -->
<g id="edge3_Node000002_Node000004" class="edge">
<title>Node4&#45;&gt;Node2</title>
<g id="a_edge3_Node000002_Node000004"><a xlink:title=" ">
<path fill="none" stroke="orange" stroke-dasharray="5,2" d="M105.93,-125.1C94.67,-112.49 80.86,-97.03 71.05,-86.04"/>
<polygon fill="orange" stroke="orange" points="103.63,-127.77 112.9,-132.89 108.85,-123.1 103.63,-127.77"/>
</a>
</g>
<text text-anchor="middle" x="135" y="-107" font-family="Helvetica,sans-Serif" font-size="10.00" fill="grey"> &lt; std::mutex &gt;</text>
</g>
</g>
</svg>
