<?xml version="1.0" encoding="UTF-8" standalone="no"?>
<!DOCTYPE svg PUBLIC "-//W3C//DTD SVG 1.1//EN"
 "http://www.w3.org/Graphics/SVG/1.1/DTD/svg11.dtd">
<!-- Generated by graphviz version 2.43.0 (0)
 -->
<!-- Title: basic_memory_buffer&lt; T, SIZE, Allocator &gt; Pages: 1 -->
<svg width="289pt" height="171pt"
 viewBox="0.00 0.00 289.00 171.00" xmlns="http://www.w3.org/2000/svg" xmlns:xlink="http://www.w3.org/1999/xlink">
<g id="graph0" class="graph" transform="scale(1 1) rotate(0) translate(4 167)">
<title>basic_memory_buffer&lt; T, SIZE, Allocator &gt;</title>
<!-- Node1 -->
<g id="Node000001" class="node">
<title>Node1</title>
<g id="a_Node000001"><a xlink:title=" ">
<polygon fill="#999999" stroke="#666666" points="206,-107 84,-107 84,-77 206,-77 206,-107"/>
<text text-anchor="start" x="92" y="-95" font-family="Helvetica,sans-Serif" font-size="10.00">basic_memory_buffer</text>
<text text-anchor="middle" x="145" y="-84" font-family="Helvetica,sans-Serif" font-size="10.00">&lt; T, SIZE, Allocator &gt;</text>
</a>
</g>
</g>
<!-- Node3 -->
<g id="Node000003" class="node">
<title>Node3</title>
<g id="a_Node000003"><a xlink:href="classbasic__memory__buffer.html" target="_top" xlink:title=" ">
<polygon fill="white" stroke="#666666" points="140,-30 0,-30 0,0 140,0 140,-30"/>
<text text-anchor="start" x="8" y="-18" font-family="Helvetica,sans-Serif" font-size="10.00">basic_memory_buffer</text>
<text text-anchor="middle" x="70" y="-7" font-family="Helvetica,sans-Serif" font-size="10.00">&lt; bigit, bigits_capacity &gt;</text>
</a>
</g>
</g>
<!-- Node1&#45;&gt;Node3 -->
<g id="edge2_Node000001_Node000003" class="edge">
<title>Node1&#45;&gt;Node3</title>
<g id="a_edge2_Node000001_Node000003"><a xlink:title=" ">
<path fill="none" stroke="orange" stroke-dasharray="5,2" d="M82.96,-71.33C78.33,-67.86 74.23,-63.79 71,-59 65.41,-50.7 65.4,-39.31 66.66,-30.34"/>
<polygon fill="orange" stroke="orange" points="81.44,-74.52 91.75,-76.94 85.2,-68.61 81.44,-74.52"/>
</a>
</g>
<text text-anchor="middle" x="134.5" y="-51" font-family="Helvetica,sans-Serif" font-size="10.00" fill="grey"> &lt; bigit, bigits_capacity &gt;</text>
</g>
<!-- Node4 -->
<g id="Node000004" class="node">
<title>Node4</title>
<g id="a_Node000004"><a xlink:href="classbasic__memory__buffer.html" target="_top" xlink:title=" ">
<polygon fill="white" stroke="#666666" points="281,-30 159,-30 159,0 281,0 281,-30"/>
<text text-anchor="start" x="167" y="-18" font-family="Helvetica,sans-Serif" font-size="10.00">basic_memory_buffer</text>
<text text-anchor="middle" x="220" y="-7" font-family="Helvetica,sans-Serif" font-size="10.00">&lt; wchar_t &gt;</text>
</a>
</g>
</g>
<!-- Node1&#45;&gt;Node4 -->
<g id="edge3_Node000001_Node000004" class="edge">
<title>Node1&#45;&gt;Node4</title>
<g id="a_edge3_Node000001_Node000004"><a xlink:title=" ">
<path fill="none" stroke="orange" stroke-dasharray="5,2" d="M183.33,-71.44C188.63,-67.75 193.72,-63.59 198,-59 205.66,-50.78 211.33,-39.38 214.99,-30.39"/>
<polygon fill="orange" stroke="orange" points="181.44,-68.5 174.91,-76.85 185.22,-74.39 181.44,-68.5"/>
</a>
</g>
<text text-anchor="middle" x="237" y="-51" font-family="Helvetica,sans-Serif" font-size="10.00" fill="grey"> &lt; wchar_t &gt;</text>
</g>
<!-- Node2 -->
<g id="Node000002" class="node">
<title>Node2</title>
<g id="a_Node000002"><a xlink:title=" ">
<polygon fill="white" stroke="#666666" points="198.5,-163 91.5,-163 91.5,-144 198.5,-144 198.5,-163"/>
<text text-anchor="middle" x="145" y="-151" font-family="Helvetica,sans-Serif" font-size="10.00">detail::buffer&lt; T &gt;</text>
</a>
</g>
</g>
<!-- Node2&#45;&gt;Node1 -->
<g id="edge1_Node000001_Node000002" class="edge">
<title>Node2&#45;&gt;Node1</title>
<g id="a_edge1_Node000001_Node000002"><a xlink:title=" ">
<path fill="none" stroke="#63b8ff" d="M145,-133.73C145,-125.09 145,-115 145,-107.02"/>
<polygon fill="#63b8ff" stroke="#63b8ff" points="141.5,-133.98 145,-143.98 148.5,-133.98 141.5,-133.98"/>
</a>
</g>
</g>
</g>
</svg>
