<?xml version="1.0" encoding="UTF-8" standalone="no"?>
<!DOCTYPE svg PUBLIC "-//W3C//DTD SVG 1.1//EN"
 "http://www.w3.org/Graphics/SVG/1.1/DTD/svg11.dtd">
<!-- Generated by graphviz version 2.43.0 (0)
 -->
<!-- Title: spdlog::sinks::base_sink&lt; Mutex &gt; Pages: 1 -->
<!--zoomable 794 -->

<svg id="main" version="1.1" xmlns="http://www.w3.org/2000/svg" xmlns:xlink="http://www.w3.org/1999/xlink" xml:space="preserve" onload="init(evt)">
<style type="text/css"><![CDATA[
.node, .edge {opacity: 0.7;}
.node.selected, .edge.selected {opacity: 1;}
.edge:hover path { stroke: red; }
.edge:hover polygon { stroke: red; fill: red; }
]]></style>

<defs>
  <circle id="rim" cx="0" cy="0" r="7"/>
  <circle id="rim2" cx="0" cy="0" r="3.5"/>
  <g id="zoomPlus">
    <use xlink:href="#rim" fill="#404040"><set attributeName="fill" to="#808080" begin="zoomplus.mouseover" end="zoomplus.mouseout"/></use>
    <path d="M-4,0h8M0,-4v8" fill="none" stroke="white" stroke-width="1.5" pointer-events="none"/>
  </g>
  <g id="zoomMin">
    <use xlink:href="#rim" fill="#404040"><set attributeName="fill" to="#808080" begin="zoomminus.mouseover" end="zoomminus.mouseout"/></use>
    <path d="M-4,0h8" fill="none" stroke="white" stroke-width="1.5" pointer-events="none"/>
  </g>
  <g id="arrowUp" transform="translate(30 24)">
    <use xlink:href="#rim"/>
    <path pointer-events="none" fill="none" stroke="white" stroke-width="1.5" d="M0,-3.0v7 M-2.5,-0.5L0,-3.0L2.5,-0.5"/>
  </g>
  <g id="arrowRight" transform="rotate(90) translate(36 -43)">
    <use xlink:href="#rim"/>
    <path pointer-events="none" fill="none" stroke="white" stroke-width="1.5" d="M0,-3.0v7 M-2.5,-0.5L0,-3.0L2.5,-0.5"/>
  </g>
  <g id="arrowDown" transform="rotate(180) translate(-30 -48)">
    <use xlink:href="#rim"/>
    <path pointer-events="none" fill="none" stroke="white" stroke-width="1.5" d="M0,-3.0v7 M-2.5,-0.5L0,-3.0L2.5,-0.5"/>
  </g>
  <g id="arrowLeft" transform="rotate(270) translate(-36 17)">
    <use xlink:href="#rim"/>
    <path pointer-events="none" fill="none" stroke="white" stroke-width="1.5" d="M0,-3.0v7 M-2.5,-0.5L0,-3.0L2.5,-0.5"/>
  </g>
  <g id="resetDef">
    <use xlink:href="#rim2" fill="#404040"><set attributeName="fill" to="#808080" begin="reset.mouseover" end="reset.mouseout"/></use>
  </g>
</defs>
<script type="application/ecmascript">
var viewWidth = 694;
var viewHeight = 794;
var sectionId = 'dynsection-0';
</script>
<script type="application/ecmascript" xlink:href="svg.min.js"/>
<svg id="graph" class="graph">
<g id="viewport">
<title>spdlog::sinks::base_sink&lt; Mutex &gt;</title>
<!-- Node1 -->
<g id="Node000001" class="node">
<title>Node1</title>
<g id="a_Node000001"><a xlink:title=" ">
<polygon fill="#999999" stroke="#666666" points="254,-402 144,-402 144,-372 254,-372 254,-402"/>
<text text-anchor="start" x="152" y="-390" font-family="Helvetica,sans-Serif" font-size="10.00">spdlog::sinks::base</text>
<text text-anchor="middle" x="199" y="-379" font-family="Helvetica,sans-Serif" font-size="10.00">_sink&lt; Mutex &gt;</text>
</a>
</g>
</g>
<!-- Node3 -->
<g id="Node000003" class="node">
<title>Node3</title>
<g id="a_Node000003"><a xlink:href="classspdlog_1_1sinks_1_1basic__file__sink.html" target="_top" xlink:title=" ">
<polygon fill="white" stroke="#666666" points="505.5,-786 389.5,-786 389.5,-756 505.5,-756 505.5,-786"/>
<text text-anchor="start" x="397.5" y="-774" font-family="Helvetica,sans-Serif" font-size="10.00">spdlog::sinks::basic</text>
<text text-anchor="middle" x="447.5" y="-763" font-family="Helvetica,sans-Serif" font-size="10.00">_file_sink&lt; Mutex &gt;</text>
</a>
</g>
</g>
<!-- Node1&#45;&gt;Node3 -->
<g id="edge2_Node000001_Node000003" class="edge">
<title>Node1&#45;&gt;Node3</title>
<g id="a_edge2_Node000001_Node000003"><a xlink:title=" ">
<path fill="none" stroke="#63b8ff" d="M202.34,-412.3C207.85,-461.7 224.9,-573.11 272,-653 302.49,-704.71 317.36,-716.39 369,-747 375.3,-750.73 382.24,-753.94 389.3,-756.68"/>
<polygon fill="#63b8ff" stroke="#63b8ff" points="205.81,-411.78 201.28,-402.2 198.85,-412.51 205.81,-411.78"/>
</a>
</g>
</g>
<!-- Node4 -->
<g id="Node000004" class="node">
<title>Node4</title>
<g id="a_Node000004"><a xlink:href="classspdlog_1_1sinks_1_1daily__file__sink.html" target="_top" xlink:title=" ">
<polygon fill="white" stroke="#666666" points="526,-737.5 369,-737.5 369,-696.5 526,-696.5 526,-737.5"/>
<text text-anchor="start" x="377" y="-725.5" font-family="Helvetica,sans-Serif" font-size="10.00">spdlog::sinks::daily</text>
<text text-anchor="start" x="377" y="-714.5" font-family="Helvetica,sans-Serif" font-size="10.00">_file_sink&lt; Mutex, FileName</text>
<text text-anchor="middle" x="447.5" y="-703.5" font-family="Helvetica,sans-Serif" font-size="10.00">Calc &gt;</text>
</a>
</g>
</g>
<!-- Node1&#45;&gt;Node4 -->
<g id="edge3_Node000001_Node000004" class="edge">
<title>Node1&#45;&gt;Node4</title>
<g id="a_edge3_Node000001_Node000004"><a xlink:title=" ">
<path fill="none" stroke="#63b8ff" d="M203.89,-412.09C211.39,-454.43 230.87,-541.49 272,-603 303.7,-650.41 320.13,-657.61 369,-687 374.69,-690.42 380.83,-693.58 387.09,-696.46"/>
<polygon fill="#63b8ff" stroke="#63b8ff" points="207.32,-411.37 202.2,-402.09 200.42,-412.53 207.32,-411.37"/>
</a>
</g>
</g>
<!-- Node5 -->
<g id="Node000005" class="node">
<title>Node5</title>
<g id="a_Node000005"><a xlink:href="classspdlog_1_1sinks_1_1dist__sink.html" target="_top" xlink:title=" ">
<polygon fill="white" stroke="#666666" points="499.5,-678 395.5,-678 395.5,-648 499.5,-648 499.5,-678"/>
<text text-anchor="start" x="403.5" y="-666" font-family="Helvetica,sans-Serif" font-size="10.00">spdlog::sinks::dist</text>
<text text-anchor="middle" x="447.5" y="-655" font-family="Helvetica,sans-Serif" font-size="10.00">_sink&lt; Mutex &gt;</text>
</a>
</g>
</g>
<!-- Node1&#45;&gt;Node5 -->
<g id="edge4_Node000001_Node000005" class="edge">
<title>Node1&#45;&gt;Node5</title>
<g id="a_edge4_Node000001_Node000005"><a xlink:title=" ">
<path fill="none" stroke="#63b8ff" d="M207.27,-412.23C217.85,-446.17 239.8,-507.42 272,-552 305.91,-598.94 318.62,-610.44 369,-639 377.09,-643.58 386.16,-647.4 395.16,-650.54"/>
<polygon fill="#63b8ff" stroke="#63b8ff" points="210.49,-410.78 204.24,-402.23 203.79,-412.81 210.49,-410.78"/>
</a>
</g>
</g>
<!-- Node7 -->
<g id="Node000007" class="node">
<title>Node7</title>
<g id="a_Node000007"><a xlink:href="classspdlog_1_1sinks_1_1hourly__file__sink.html" target="_top" xlink:title=" ">
<polygon fill="white" stroke="#666666" points="526,-629.5 369,-629.5 369,-588.5 526,-588.5 526,-629.5"/>
<text text-anchor="start" x="377" y="-617.5" font-family="Helvetica,sans-Serif" font-size="10.00">spdlog::sinks::hourly</text>
<text text-anchor="start" x="377" y="-606.5" font-family="Helvetica,sans-Serif" font-size="10.00">_file_sink&lt; Mutex, FileName</text>
<text text-anchor="middle" x="447.5" y="-595.5" font-family="Helvetica,sans-Serif" font-size="10.00">Calc &gt;</text>
</a>
</g>
</g>
<!-- Node1&#45;&gt;Node7 -->
<g id="edge6_Node000001_Node000007" class="edge">
<title>Node1&#45;&gt;Node7</title>
<g id="a_edge6_Node000001_Node000007"><a xlink:title=" ">
<path fill="none" stroke="#63b8ff" d="M210.67,-411.38C222.9,-437.49 244.81,-479.19 272,-509 307.83,-548.28 322.27,-553.64 369,-579 375.21,-582.37 381.89,-585.55 388.62,-588.49"/>
<polygon fill="#63b8ff" stroke="#63b8ff" points="213.81,-409.83 206.47,-402.19 207.45,-412.74 213.81,-409.83"/>
</a>
</g>
</g>
<!-- Node8 -->
<g id="Node000008" class="node">
<title>Node8</title>
<g id="a_Node000008"><a xlink:href="classspdlog_1_1sinks_1_1mongo__sink.html" target="_top" xlink:title=" ">
<polygon fill="white" stroke="#666666" points="507.5,-570 387.5,-570 387.5,-540 507.5,-540 507.5,-570"/>
<text text-anchor="start" x="395.5" y="-558" font-family="Helvetica,sans-Serif" font-size="10.00">spdlog::sinks::mongo</text>
<text text-anchor="middle" x="447.5" y="-547" font-family="Helvetica,sans-Serif" font-size="10.00">_sink&lt; Mutex &gt;</text>
</a>
</g>
</g>
<!-- Node1&#45;&gt;Node8 -->
<g id="edge7_Node000001_Node000008" class="edge">
<title>Node1&#45;&gt;Node8</title>
<g id="a_edge7_Node000001_Node000008"><a xlink:title=" ">
<path fill="none" stroke="#63b8ff" d="M217.29,-410.01C231,-427.38 251.25,-451.18 272,-469 310.82,-502.33 322.59,-509.46 369,-531 376.03,-534.26 383.61,-537.23 391.19,-539.88"/>
<polygon fill="#63b8ff" stroke="#63b8ff" points="220.01,-407.81 211.11,-402.06 214.48,-412.1 220.01,-407.81"/>
</a>
</g>
</g>
<!-- Node9 -->
<g id="Node000009" class="node">
<title>Node9</title>
<g id="a_Node000009"><a xlink:href="classspdlog_1_1sinks_1_1null__sink.html" target="_top" xlink:title=" ">
<polygon fill="white" stroke="#666666" points="499.5,-522 395.5,-522 395.5,-492 499.5,-492 499.5,-522"/>
<text text-anchor="start" x="403.5" y="-510" font-family="Helvetica,sans-Serif" font-size="10.00">spdlog::sinks::null</text>
<text text-anchor="middle" x="447.5" y="-499" font-family="Helvetica,sans-Serif" font-size="10.00">_sink&lt; Mutex &gt;</text>
</a>
</g>
</g>
<!-- Node1&#45;&gt;Node9 -->
<g id="edge8_Node000001_Node000009" class="edge">
<title>Node1&#45;&gt;Node9</title>
<g id="a_edge8_Node000001_Node000009"><a xlink:title=" ">
<path fill="none" stroke="#63b8ff" d="M229.04,-408.19C241.92,-417.21 257.43,-427.57 272,-436 313.47,-459.98 324.44,-465.42 369,-483 377.39,-486.31 386.42,-489.46 395.26,-492.33"/>
<polygon fill="#63b8ff" stroke="#63b8ff" points="230.77,-405.12 220.59,-402.2 226.72,-410.84 230.77,-405.12"/>
</a>
</g>
</g>
<!-- Node10 -->
<g id="Node000010" class="node">
<title>Node10</title>
<g id="a_Node000010"><a xlink:href="classspdlog_1_1sinks_1_1ostream__sink.html" target="_top" xlink:title=" ">
<polygon fill="white" stroke="#666666" points="511,-474 384,-474 384,-444 511,-444 511,-474"/>
<text text-anchor="start" x="392" y="-462" font-family="Helvetica,sans-Serif" font-size="10.00">spdlog::sinks::ostream</text>
<text text-anchor="middle" x="447.5" y="-451" font-family="Helvetica,sans-Serif" font-size="10.00">_sink&lt; Mutex &gt;</text>
</a>
</g>
</g>
<!-- Node1&#45;&gt;Node10 -->
<g id="edge9_Node000001_Node000010" class="edge">
<title>Node1&#45;&gt;Node10</title>
<g id="a_edge9_Node000001_Node000010"><a xlink:title=" ">
<path fill="none" stroke="#63b8ff" d="M251.61,-405.41C258.44,-407.71 265.37,-409.96 272,-412 309.78,-423.63 352.65,-435.2 386.43,-443.95"/>
<polygon fill="#63b8ff" stroke="#63b8ff" points="252.31,-401.96 241.71,-402.05 250.05,-408.58 252.31,-401.96"/>
</a>
</g>
</g>
<!-- Node11 -->
<g id="Node000011" class="node">
<title>Node11</title>
<g id="a_Node000011"><a xlink:href="classspdlog_1_1sinks_1_1qt__sink.html" target="_top" xlink:title=" ">
<polygon fill="white" stroke="#666666" points="508.5,-426 386.5,-426 386.5,-396 508.5,-396 508.5,-426"/>
<text text-anchor="start" x="394.5" y="-414" font-family="Helvetica,sans-Serif" font-size="10.00">spdlog::sinks::qt_sink</text>
<text text-anchor="middle" x="447.5" y="-403" font-family="Helvetica,sans-Serif" font-size="10.00">&lt; Mutex &gt;</text>
</a>
</g>
</g>
<!-- Node1&#45;&gt;Node11 -->
<g id="edge10_Node000001_Node000011" class="edge">
<title>Node1&#45;&gt;Node11</title>
<g id="a_edge10_Node000001_Node000011"><a xlink:title=" ">
<path fill="none" stroke="#63b8ff" d="M264.47,-393.28C302.2,-396.95 349.54,-401.56 386.48,-405.16"/>
<polygon fill="#63b8ff" stroke="#63b8ff" points="264.39,-389.75 254.1,-392.27 263.71,-396.72 264.39,-389.75"/>
</a>
</g>
</g>
<!-- Node12 -->
<g id="Node000012" class="node">
<title>Node12</title>
<g id="a_Node000012"><a xlink:href="classspdlog_1_1sinks_1_1ringbuffer__sink.html" target="_top" xlink:title=" ">
<polygon fill="white" stroke="#666666" points="514.5,-378 380.5,-378 380.5,-348 514.5,-348 514.5,-378"/>
<text text-anchor="start" x="388.5" y="-366" font-family="Helvetica,sans-Serif" font-size="10.00">spdlog::sinks::ringbuffer</text>
<text text-anchor="middle" x="447.5" y="-355" font-family="Helvetica,sans-Serif" font-size="10.00">_sink&lt; Mutex &gt;</text>
</a>
</g>
</g>
<!-- Node1&#45;&gt;Node12 -->
<g id="edge11_Node000001_Node000012" class="edge">
<title>Node1&#45;&gt;Node12</title>
<g id="a_edge11_Node000001_Node000012"><a xlink:title=" ">
<path fill="none" stroke="#63b8ff" d="M264.39,-380.73C300.04,-377.26 344.29,-372.95 380.24,-369.45"/>
<polygon fill="#63b8ff" stroke="#63b8ff" points="263.71,-377.28 254.1,-381.73 264.39,-384.25 263.71,-377.28"/>
</a>
</g>
</g>
<!-- Node13 -->
<g id="Node000013" class="node">
<title>Node13</title>
<g id="a_Node000013"><a xlink:href="classspdlog_1_1sinks_1_1rotating__file__sink.html" target="_top" xlink:title=" ">
<polygon fill="white" stroke="#666666" points="510,-330 385,-330 385,-300 510,-300 510,-330"/>
<text text-anchor="start" x="393" y="-318" font-family="Helvetica,sans-Serif" font-size="10.00">spdlog::sinks::rotating</text>
<text text-anchor="middle" x="447.5" y="-307" font-family="Helvetica,sans-Serif" font-size="10.00">_file_sink&lt; Mutex &gt;</text>
</a>
</g>
</g>
<!-- Node1&#45;&gt;Node13 -->
<g id="edge12_Node000001_Node000013" class="edge">
<title>Node1&#45;&gt;Node13</title>
<g id="a_edge12_Node000001_Node000013"><a xlink:title=" ">
<path fill="none" stroke="#63b8ff" d="M261.01,-369.18C302.12,-357.17 355.75,-341.51 394.77,-330.11"/>
<polygon fill="#63b8ff" stroke="#63b8ff" points="259.99,-365.83 251.37,-371.99 261.95,-372.55 259.99,-365.83"/>
</a>
</g>
</g>
<!-- Node14 -->
<g id="Node000014" class="node">
<title>Node14</title>
<g id="a_Node000014"><a xlink:href="classspdlog_1_1sinks_1_1syslog__sink.html" target="_top" xlink:title=" ">
<polygon fill="white" stroke="#666666" points="506.5,-282 388.5,-282 388.5,-252 506.5,-252 506.5,-282"/>
<text text-anchor="start" x="396.5" y="-270" font-family="Helvetica,sans-Serif" font-size="10.00">spdlog::sinks::syslog</text>
<text text-anchor="middle" x="447.5" y="-259" font-family="Helvetica,sans-Serif" font-size="10.00">_sink&lt; Mutex &gt;</text>
</a>
</g>
</g>
<!-- Node1&#45;&gt;Node14 -->
<g id="edge13_Node000001_Node000014" class="edge">
<title>Node1&#45;&gt;Node14</title>
<g id="a_edge13_Node000001_Node000014"><a xlink:title=" ">
<path fill="none" stroke="#63b8ff" d="M231.01,-366.14C264,-344.74 318.32,-311.72 369,-291 376.82,-287.8 385.24,-284.78 393.53,-282.04"/>
<polygon fill="#63b8ff" stroke="#63b8ff" points="228.74,-363.44 222.29,-371.85 232.57,-369.3 228.74,-363.44"/>
</a>
</g>
</g>
<!-- Node15 -->
<g id="Node000015" class="node">
<title>Node15</title>
<g id="a_Node000015"><a xlink:href="classspdlog_1_1sinks_1_1systemd__sink.html" target="_top" xlink:title=" ">
<polygon fill="white" stroke="#666666" points="511.5,-234 383.5,-234 383.5,-204 511.5,-204 511.5,-234"/>
<text text-anchor="start" x="391.5" y="-222" font-family="Helvetica,sans-Serif" font-size="10.00">spdlog::sinks::systemd</text>
<text text-anchor="middle" x="447.5" y="-211" font-family="Helvetica,sans-Serif" font-size="10.00">_sink&lt; Mutex &gt;</text>
</a>
</g>
</g>
<!-- Node1&#45;&gt;Node15 -->
<g id="edge14_Node000001_Node000015" class="edge">
<title>Node1&#45;&gt;Node15</title>
<g id="a_edge14_Node000001_Node000015"><a xlink:title=" ">
<path fill="none" stroke="#63b8ff" d="M214.7,-363.49C227.91,-343.71 248.77,-315.6 272,-296 307.06,-266.43 355.26,-246.32 392.12,-234.08"/>
<polygon fill="#63b8ff" stroke="#63b8ff" points="211.72,-361.64 209.18,-371.93 217.58,-365.47 211.72,-361.64"/>
</a>
</g>
</g>
<!-- Node16 -->
<g id="Node000016" class="node">
<title>Node16</title>
<g id="a_Node000016"><a xlink:href="classspdlog_1_1sinks_1_1tcp__sink.html" target="_top" xlink:title=" ">
<polygon fill="white" stroke="#666666" points="498,-186 397,-186 397,-156 498,-156 498,-186"/>
<text text-anchor="start" x="405" y="-174" font-family="Helvetica,sans-Serif" font-size="10.00">spdlog::sinks::tcp</text>
<text text-anchor="middle" x="447.5" y="-163" font-family="Helvetica,sans-Serif" font-size="10.00">_sink&lt; Mutex &gt;</text>
</a>
</g>
</g>
<!-- Node1&#45;&gt;Node16 -->
<g id="edge15_Node000001_Node000016" class="edge">
<title>Node1&#45;&gt;Node16</title>
<g id="a_edge15_Node000001_Node000016"><a xlink:title=" ">
<path fill="none" stroke="#63b8ff" d="M207.82,-362.12C218.33,-332 239.53,-281.2 272,-248 305.92,-213.32 358.16,-193.12 396.65,-182.18"/>
<polygon fill="#63b8ff" stroke="#63b8ff" points="204.42,-361.25 204.55,-371.84 211.05,-363.48 204.42,-361.25"/>
</a>
</g>
</g>
<!-- Node17 -->
<g id="Node000017" class="node">
<title>Node17</title>
<g id="a_Node000017"><a xlink:href="classspdlog_1_1sinks_1_1test__sink.html" target="_top" xlink:title=" ">
<polygon fill="white" stroke="#666666" points="500,-138 395,-138 395,-108 500,-108 500,-138"/>
<text text-anchor="start" x="403" y="-126" font-family="Helvetica,sans-Serif" font-size="10.00">spdlog::sinks::test</text>
<text text-anchor="middle" x="447.5" y="-115" font-family="Helvetica,sans-Serif" font-size="10.00">_sink&lt; Mutex &gt;</text>
</a>
</g>
</g>
<!-- Node1&#45;&gt;Node17 -->
<g id="edge16_Node000001_Node000017" class="edge">
<title>Node1&#45;&gt;Node17</title>
<g id="a_edge16_Node000001_Node000017"><a xlink:title=" ">
<path fill="none" stroke="#63b8ff" d="M203.4,-361.89C209.98,-322.01 227.93,-243.74 272,-195 303.98,-159.63 355.97,-141.21 394.91,-131.89"/>
<polygon fill="#63b8ff" stroke="#63b8ff" points="199.93,-361.42 201.86,-371.83 206.85,-362.49 199.93,-361.42"/>
</a>
</g>
</g>
<!-- Node18 -->
<g id="Node000018" class="node">
<title>Node18</title>
<g id="a_Node000018"><a xlink:href="classspdlog_1_1sinks_1_1win__eventlog_1_1win__eventlog__sink.html" target="_top" xlink:title=" ">
<polygon fill="white" stroke="#666666" points="515.5,-89.5 379.5,-89.5 379.5,-48.5 515.5,-48.5 515.5,-89.5"/>
<text text-anchor="start" x="387.5" y="-77.5" font-family="Helvetica,sans-Serif" font-size="10.00">spdlog::sinks::win</text>
<text text-anchor="start" x="387.5" y="-66.5" font-family="Helvetica,sans-Serif" font-size="10.00">_eventlog::win_eventlog</text>
<text text-anchor="middle" x="447.5" y="-55.5" font-family="Helvetica,sans-Serif" font-size="10.00">_sink&lt; Mutex &gt;</text>
</a>
</g>
</g>
<!-- Node1&#45;&gt;Node18 -->
<g id="edge17_Node000001_Node000018" class="edge">
<title>Node1&#45;&gt;Node18</title>
<g id="a_edge17_Node000001_Node000018"><a xlink:title=" ">
<path fill="none" stroke="#63b8ff" d="M200.77,-361.6C203.54,-313.3 216.06,-207.3 272,-143 299.43,-111.47 342.59,-93.01 379.12,-82.41"/>
<polygon fill="#63b8ff" stroke="#63b8ff" points="197.27,-361.64 200.29,-371.79 204.26,-361.97 197.27,-361.64"/>
</a>
</g>
</g>
<!-- Node19 -->
<g id="Node000019" class="node">
<title>Node19</title>
<g id="a_Node000019"><a xlink:href="classspdlog_1_1sinks_1_1base__sink.html" target="_top" xlink:title=" ">
<polygon fill="white" stroke="#666666" points="506,-30 389,-30 389,0 506,0 506,-30"/>
<text text-anchor="start" x="397" y="-18" font-family="Helvetica,sans-Serif" font-size="10.00">spdlog::sinks::base</text>
<text text-anchor="middle" x="447.5" y="-7" font-family="Helvetica,sans-Serif" font-size="10.00">_sink&lt; std::mutex &gt;</text>
</a>
</g>
</g>
<!-- Node1&#45;&gt;Node19 -->
<g id="edge18_Node000001_Node000019" class="edge">
<title>Node1&#45;&gt;Node19</title>
<g id="a_edge18_Node000001_Node000019"><a xlink:title=" ">
<path fill="none" stroke="orange" stroke-dasharray="5,2" d="M202.96,-361.35C211.05,-295.4 235.35,-122.11 272,-79 301.05,-44.83 350,-28.9 388.68,-21.47"/>
<polygon fill="orange" stroke="orange" points="199.44,-361.32 201.73,-371.67 206.39,-362.16 199.44,-361.32"/>
</a>
</g>
<text text-anchor="middle" x="311.5" y="-82" font-family="Helvetica,sans-Serif" font-size="10.00" fill="grey"> &lt; std::mutex &gt;</text>
</g>
<!-- Node2 -->
<g id="Node000002" class="node">
<title>Node2</title>
<g id="a_Node000002"><a xlink:href="classspdlog_1_1sinks_1_1sink.html" target="_top" xlink:title=" ">
<polygon fill="white" stroke="#666666" points="107,-396.5 0,-396.5 0,-377.5 107,-377.5 107,-396.5"/>
<text text-anchor="middle" x="53.5" y="-384.5" font-family="Helvetica,sans-Serif" font-size="10.00">spdlog::sinks::sink</text>
</a>
</g>
</g>
<!-- Node2&#45;&gt;Node1 -->
<g id="edge1_Node000001_Node000002" class="edge">
<title>Node2&#45;&gt;Node1</title>
<g id="a_edge1_Node000001_Node000002"><a xlink:title=" ">
<path fill="none" stroke="#63b8ff" d="M117.39,-387C126.24,-387 135.28,-387 143.94,-387"/>
<polygon fill="#63b8ff" stroke="#63b8ff" points="117.12,-383.5 107.12,-387 117.12,-390.5 117.12,-383.5"/>
</a>
</g>
</g>
<!-- Node6 -->
<g id="Node000006" class="node">
<title>Node6</title>
<g id="a_Node000006"><a xlink:href="classspdlog_1_1sinks_1_1dup__filter__sink.html" target="_top" xlink:title=" ">
<polygon fill="white" stroke="#666666" points="686,-678 563,-678 563,-648 686,-648 686,-678"/>
<text text-anchor="start" x="571" y="-666" font-family="Helvetica,sans-Serif" font-size="10.00">spdlog::sinks::dup</text>
<text text-anchor="middle" x="624.5" y="-655" font-family="Helvetica,sans-Serif" font-size="10.00">_filter_sink&lt; Mutex &gt;</text>
</a>
</g>
</g>
<!-- Node5&#45;&gt;Node6 -->
<g id="edge5_Node000005_Node000006" class="edge">
<title>Node5&#45;&gt;Node6</title>
<g id="a_edge5_Node000005_Node000006"><a xlink:title=" ">
<path fill="none" stroke="#63b8ff" d="M510.02,-663C527.13,-663 545.7,-663 562.76,-663"/>
<polygon fill="#63b8ff" stroke="#63b8ff" points="509.59,-659.5 499.59,-663 509.59,-666.5 509.59,-659.5"/>
</a>
</g>
</g>
<!-- Node20 -->
<g id="Node000020" class="node">
<title>Node20</title>
<g id="a_Node000020"><a xlink:href="classfailing__sink.html" target="_top" xlink:title=" ">
<polygon fill="white" stroke="#666666" points="661,-24.5 588,-24.5 588,-5.5 661,-5.5 661,-24.5"/>
<text text-anchor="middle" x="624.5" y="-12.5" font-family="Helvetica,sans-Serif" font-size="10.00">failing_sink</text>
</a>
</g>
</g>
<!-- Node19&#45;&gt;Node20 -->
<g id="edge19_Node000019_Node000020" class="edge">
<title>Node19&#45;&gt;Node20</title>
<g id="a_edge19_Node000019_Node000020"><a xlink:title=" ">
<path fill="none" stroke="#63b8ff" d="M516.58,-15C540.96,-15 567.45,-15 587.97,-15"/>
<polygon fill="#63b8ff" stroke="#63b8ff" points="516.29,-11.5 506.29,-15 516.29,-18.5 516.29,-11.5"/>
</a>
</g>
</g>
</g>
</svg>

<g id="navigator" transform="translate(0 0)" fill="#404254">
  <rect fill="#f2f5e9" fill-opacity="0.5" stroke="#606060" stroke-width=".5" x="0" y="0" width="60" height="60"/>
  <use id="zoomplus" xlink:href="#zoomPlus" x="17" y="9" onmousedown="handleZoom(evt,'in')"/>
  <use id="zoomminus" xlink:href="#zoomMin" x="42" y="9" onmousedown="handleZoom(evt,'out')"/>
  <use id="reset" xlink:href="#resetDef" x="30" y="36" onmousedown="handleReset()"/>
   <use id="arrowup" xlink:href="#arrowUp" x="0" y="0" onmousedown="handlePan(0,-1)"/>
  <use id="arrowright" xlink:href="#arrowRight" x="0" y="0" onmousedown="handlePan(1,0)"/>
  <use id="arrowdown" xlink:href="#arrowDown" x="0" y="0" onmousedown="handlePan(0,1)"/>
  <use id="arrowleft" xlink:href="#arrowLeft" x="0" y="0" onmousedown="handlePan(-1,0)"/>
</g>
<svg viewBox="0 0 15 15" width="100%" height="30px" preserveAspectRatio="xMaxYMin meet">
 <g id="arrow_out" transform="scale(0.3 0.3)">
  <a xlink:href="classspdlog_1_1sinks_1_1base__sink__inherit__graph_org.svg" target="_base">
   <rect id="button" ry="5" rx="5" y="6" x="6" height="38" width="38"
        fill="#f2f5e9" fill-opacity="0.5" stroke="#606060" stroke-width="1.0"/>
   <path id="arrow"
     d="M 11.500037,31.436501 C 11.940474,20.09759 22.043105,11.32322 32.158766,21.979434 L 37.068811,17.246167 C 37.068811,17.246167 37.088388,32 37.088388,32 L 22.160133,31.978069 C 22.160133,31.978069 26.997745,27.140456 26.997745,27.140456 C 18.528582,18.264221 13.291696,25.230495 11.500037,31.436501 z"
     style="fill:#404040;"/>
  </a>
 </g>
</svg>

<style type='text/css'>
<![CDATA[
[data-mouse-over-selected='false'] { opacity: 0.7; }
[data-mouse-over-selected='true']  { opacity: 1.0; }
]]>
</style>
<script type="application/ecmascript"><![CDATA[
document.addEventListener('DOMContentLoaded', (event) => {
  highlightEdges();
  highlightAdjacentNodes();
});
]]></script>
</svg>
