<?xml version="1.0" encoding="UTF-8" standalone="no"?>
<!DOCTYPE svg PUBLIC "-//W3C//DTD SVG 1.1//EN"
 "http://www.w3.org/Graphics/SVG/1.1/DTD/svg11.dtd">
<!-- Generated by graphviz version 2.43.0 (0)
 -->
<!-- Title: spdlog::sinks::stdout_sink_base&lt; ConsoleMutex &gt; Pages: 1 -->
<svg width="484pt" height="86pt"
 viewBox="0.00 0.00 484.00 86.00" xmlns="http://www.w3.org/2000/svg" xmlns:xlink="http://www.w3.org/1999/xlink">
<g id="graph0" class="graph" transform="scale(1 1) rotate(0) translate(4 82)">
<title>spdlog::sinks::stdout_sink_base&lt; ConsoleMutex &gt;</title>
<!-- Node1 -->
<g id="Node000001" class="node">
<title>Node1</title>
<g id="a_Node000001"><a xlink:title=" ">
<polygon fill="#999999" stroke="#666666" points="306,-54 143,-54 143,-24 306,-24 306,-54"/>
<text text-anchor="start" x="151" y="-42" font-family="Helvetica,sans-Serif" font-size="10.00">spdlog::sinks::stdout</text>
<text text-anchor="middle" x="224.5" y="-31" font-family="Helvetica,sans-Serif" font-size="10.00">_sink_base&lt; ConsoleMutex &gt;</text>
</a>
</g>
</g>
<!-- Node3 -->
<g id="Node000003" class="node">
<title>Node3</title>
<g id="a_Node000003"><a xlink:href="classspdlog_1_1sinks_1_1stderr__sink.html" target="_top" xlink:title=" ">
<polygon fill="white" stroke="#666666" points="476,-78 342,-78 342,-48 476,-48 476,-78"/>
<text text-anchor="start" x="350" y="-66" font-family="Helvetica,sans-Serif" font-size="10.00">spdlog::sinks::stderr</text>
<text text-anchor="middle" x="409" y="-55" font-family="Helvetica,sans-Serif" font-size="10.00">_sink&lt; ConsoleMutex &gt;</text>
</a>
</g>
</g>
<!-- Node1&#45;&gt;Node3 -->
<g id="edge2_Node000001_Node000003" class="edge">
<title>Node1&#45;&gt;Node3</title>
<g id="a_edge2_Node000001_Node000003"><a xlink:title=" ">
<path fill="none" stroke="#63b8ff" d="M316.19,-50.93C324.82,-52.06 333.46,-53.2 341.79,-54.29"/>
<polygon fill="#63b8ff" stroke="#63b8ff" points="316.45,-47.43 306.08,-49.6 315.54,-54.37 316.45,-47.43"/>
</a>
</g>
</g>
<!-- Node4 -->
<g id="Node000004" class="node">
<title>Node4</title>
<g id="a_Node000004"><a xlink:href="classspdlog_1_1sinks_1_1stdout__sink.html" target="_top" xlink:title=" ">
<polygon fill="white" stroke="#666666" points="476,-30 342,-30 342,0 476,0 476,-30"/>
<text text-anchor="start" x="350" y="-18" font-family="Helvetica,sans-Serif" font-size="10.00">spdlog::sinks::stdout</text>
<text text-anchor="middle" x="409" y="-7" font-family="Helvetica,sans-Serif" font-size="10.00">_sink&lt; ConsoleMutex &gt;</text>
</a>
</g>
</g>
<!-- Node1&#45;&gt;Node4 -->
<g id="edge3_Node000001_Node000004" class="edge">
<title>Node1&#45;&gt;Node4</title>
<g id="a_edge3_Node000001_Node000004"><a xlink:title=" ">
<path fill="none" stroke="#63b8ff" d="M316.19,-27.07C324.82,-25.94 333.46,-24.8 341.79,-23.71"/>
<polygon fill="#63b8ff" stroke="#63b8ff" points="315.54,-23.63 306.08,-28.4 316.45,-30.57 315.54,-23.63"/>
</a>
</g>
</g>
<!-- Node2 -->
<g id="Node000002" class="node">
<title>Node2</title>
<g id="a_Node000002"><a xlink:href="classspdlog_1_1sinks_1_1sink.html" target="_top" xlink:title=" ">
<polygon fill="white" stroke="#666666" points="107,-48.5 0,-48.5 0,-29.5 107,-29.5 107,-48.5"/>
<text text-anchor="middle" x="53.5" y="-36.5" font-family="Helvetica,sans-Serif" font-size="10.00">spdlog::sinks::sink</text>
</a>
</g>
</g>
<!-- Node2&#45;&gt;Node1 -->
<g id="edge1_Node000001_Node000002" class="edge">
<title>Node2&#45;&gt;Node1</title>
<g id="a_edge1_Node000001_Node000002"><a xlink:title=" ">
<path fill="none" stroke="#63b8ff" d="M117.08,-39C125.45,-39 134.13,-39 142.75,-39"/>
<polygon fill="#63b8ff" stroke="#63b8ff" points="117.05,-35.5 107.05,-39 117.05,-42.5 117.05,-35.5"/>
</a>
</g>
</g>
</g>
</svg>
