<?xml version="1.0" encoding="UTF-8" standalone="no"?>
<!DOCTYPE svg PUBLIC "-//W3C//DTD SVG 1.1//EN"
 "http://www.w3.org/Graphics/SVG/1.1/DTD/svg11.dtd">
<!-- Generated by graphviz version 2.43.0 (0)
 -->
<!-- Title: Catch::Matchers::Generic::PredicateMatcher&lt; T &gt; Pages: 1 -->
<svg width="699pt" height="86pt"
 viewBox="0.00 0.00 699.00 86.00" xmlns="http://www.w3.org/2000/svg" xmlns:xlink="http://www.w3.org/1999/xlink">
<g id="graph0" class="graph" transform="scale(1 1) rotate(0) translate(4 82)">
<title>Catch::Matchers::Generic::PredicateMatcher&lt; T &gt;</title>
<!-- Node1 -->
<g id="Node000001" class="node">
<title>Node1</title>
<g id="a_Node000001"><a xlink:title=" ">
<polygon fill="#999999" stroke="#666666" points="691,-54 552,-54 552,-24 691,-24 691,-54"/>
<text text-anchor="start" x="560" y="-42" font-family="Helvetica,sans-Serif" font-size="10.00">Catch::Matchers::Generic</text>
<text text-anchor="middle" x="621.5" y="-31" font-family="Helvetica,sans-Serif" font-size="10.00">::PredicateMatcher&lt; T &gt;</text>
</a>
</g>
</g>
<!-- Node2 -->
<g id="Node000002" class="node">
<title>Node2</title>
<g id="a_Node000002"><a xlink:href="structCatch_1_1Matchers_1_1Impl_1_1MatcherBase.html" target="_top" xlink:title=" ">
<polygon fill="white" stroke="#666666" points="515,-54 392,-54 392,-24 515,-24 515,-54"/>
<text text-anchor="start" x="400" y="-42" font-family="Helvetica,sans-Serif" font-size="10.00">Catch::Matchers::Impl</text>
<text text-anchor="middle" x="453.5" y="-31" font-family="Helvetica,sans-Serif" font-size="10.00">::MatcherBase&lt; T &gt;</text>
</a>
</g>
</g>
<!-- Node2&#45;&gt;Node1 -->
<g id="edge1_Node000001_Node000002" class="edge">
<title>Node2&#45;&gt;Node1</title>
<g id="a_edge1_Node000001_Node000002"><a xlink:title=" ">
<path fill="none" stroke="#63b8ff" d="M525.49,-39C534.21,-39 543.1,-39 551.78,-39"/>
<polygon fill="#63b8ff" stroke="#63b8ff" points="525.37,-35.5 515.37,-39 525.37,-42.5 525.37,-35.5"/>
</a>
</g>
</g>
<!-- Node3 -->
<g id="Node000003" class="node">
<title>Node3</title>
<g id="a_Node000003"><a xlink:href="classCatch_1_1Matchers_1_1Impl_1_1MatcherUntypedBase.html" target="_top" xlink:title=" ">
<polygon fill="white" stroke="#666666" points="355,-78 227,-78 227,-48 355,-48 355,-78"/>
<text text-anchor="start" x="235" y="-66" font-family="Helvetica,sans-Serif" font-size="10.00">Catch::Matchers::Impl</text>
<text text-anchor="middle" x="291" y="-55" font-family="Helvetica,sans-Serif" font-size="10.00">::MatcherUntypedBase</text>
</a>
</g>
</g>
<!-- Node3&#45;&gt;Node2 -->
<g id="edge2_Node000002_Node000003" class="edge">
<title>Node3&#45;&gt;Node2</title>
<g id="a_edge2_Node000002_Node000003"><a xlink:title=" ">
<path fill="none" stroke="#63b8ff" d="M365.38,-52.03C374.24,-50.7 383.23,-49.36 391.88,-48.06"/>
<polygon fill="#63b8ff" stroke="#63b8ff" points="364.81,-48.57 355.43,-53.51 365.84,-55.5 364.81,-48.57"/>
</a>
</g>
</g>
<!-- Node4 -->
<g id="Node000004" class="node">
<title>Node4</title>
<g id="a_Node000004"><a xlink:href="structCatch_1_1Matchers_1_1Impl_1_1MatcherMethod.html" target="_top" xlink:title=" ">
<polygon fill="white" stroke="#666666" points="355,-30 227,-30 227,0 355,0 355,-30"/>
<text text-anchor="start" x="235" y="-18" font-family="Helvetica,sans-Serif" font-size="10.00">Catch::Matchers::Impl</text>
<text text-anchor="middle" x="291" y="-7" font-family="Helvetica,sans-Serif" font-size="10.00">::MatcherMethod&lt; T &gt;</text>
</a>
</g>
</g>
<!-- Node4&#45;&gt;Node2 -->
<g id="edge3_Node000002_Node000004" class="edge">
<title>Node4&#45;&gt;Node2</title>
<g id="a_edge3_Node000002_Node000004"><a xlink:title=" ">
<path fill="none" stroke="#63b8ff" d="M365.38,-25.97C374.24,-27.3 383.23,-28.64 391.88,-29.94"/>
<polygon fill="#63b8ff" stroke="#63b8ff" points="365.84,-22.5 355.43,-24.49 364.81,-29.43 365.84,-22.5"/>
</a>
</g>
</g>
<!-- Node5 -->
<g id="Node000005" class="node">
<title>Node5</title>
<g id="a_Node000005"><a xlink:href="structCatch_1_1Matchers_1_1Impl_1_1MatcherMethod.html" target="_top" xlink:title=" ">
<polygon fill="white" stroke="#666666" points="159,-30 0,-30 0,0 159,0 159,-30"/>
<text text-anchor="start" x="8" y="-18" font-family="Helvetica,sans-Serif" font-size="10.00">Catch::Matchers::Impl</text>
<text text-anchor="middle" x="79.5" y="-7" font-family="Helvetica,sans-Serif" font-size="10.00">::MatcherMethod&lt; ObjectT &gt;</text>
</a>
</g>
</g>
<!-- Node5&#45;&gt;Node4 -->
<g id="edge4_Node000004_Node000005" class="edge">
<title>Node5&#45;&gt;Node4</title>
<g id="a_edge4_Node000004_Node000005"><a xlink:title=" ">
<path fill="none" stroke="orange" stroke-dasharray="5,2" d="M169.18,-15C188.61,-15 208.8,-15 226.98,-15"/>
<polygon fill="orange" stroke="orange" points="169.11,-11.5 159.11,-15 169.11,-18.5 169.11,-11.5"/>
</a>
</g>
<text text-anchor="middle" x="193" y="-18" font-family="Helvetica,sans-Serif" font-size="10.00" fill="grey"> &lt; T &gt;</text>
</g>
</g>
</svg>
