<?xml version="1.0" encoding="UTF-8" standalone="no"?>
<!DOCTYPE svg PUBLIC "-//W3C//DTD SVG 1.1//EN"
 "http://www.w3.org/Graphics/SVG/1.1/DTD/svg11.dtd">
<!-- Generated by graphviz version 2.43.0 (0)
 -->
<!-- Title: buffer&lt; T &gt; Pages: 1 -->
<!--zoomable 247 -->

<svg id="main" version="1.1" xmlns="http://www.w3.org/2000/svg" xmlns:xlink="http://www.w3.org/1999/xlink" xml:space="preserve" onload="init(evt)">
<style type="text/css"><![CDATA[
.node, .edge {opacity: 0.7;}
.node.selected, .edge.selected {opacity: 1;}
.edge:hover path { stroke: red; }
.edge:hover polygon { stroke: red; fill: red; }
]]></style>

<defs>
  <circle id="rim" cx="0" cy="0" r="7"/>
  <circle id="rim2" cx="0" cy="0" r="3.5"/>
  <g id="zoomPlus">
    <use xlink:href="#rim" fill="#404040"><set attributeName="fill" to="#808080" begin="zoomplus.mouseover" end="zoomplus.mouseout"/></use>
    <path d="M-4,0h8M0,-4v8" fill="none" stroke="white" stroke-width="1.5" pointer-events="none"/>
  </g>
  <g id="zoomMin">
    <use xlink:href="#rim" fill="#404040"><set attributeName="fill" to="#808080" begin="zoomminus.mouseover" end="zoomminus.mouseout"/></use>
    <path d="M-4,0h8" fill="none" stroke="white" stroke-width="1.5" pointer-events="none"/>
  </g>
  <g id="arrowUp" transform="translate(30 24)">
    <use xlink:href="#rim"/>
    <path pointer-events="none" fill="none" stroke="white" stroke-width="1.5" d="M0,-3.0v7 M-2.5,-0.5L0,-3.0L2.5,-0.5"/>
  </g>
  <g id="arrowRight" transform="rotate(90) translate(36 -43)">
    <use xlink:href="#rim"/>
    <path pointer-events="none" fill="none" stroke="white" stroke-width="1.5" d="M0,-3.0v7 M-2.5,-0.5L0,-3.0L2.5,-0.5"/>
  </g>
  <g id="arrowDown" transform="rotate(180) translate(-30 -48)">
    <use xlink:href="#rim"/>
    <path pointer-events="none" fill="none" stroke="white" stroke-width="1.5" d="M0,-3.0v7 M-2.5,-0.5L0,-3.0L2.5,-0.5"/>
  </g>
  <g id="arrowLeft" transform="rotate(270) translate(-36 17)">
    <use xlink:href="#rim"/>
    <path pointer-events="none" fill="none" stroke="white" stroke-width="1.5" d="M0,-3.0v7 M-2.5,-0.5L0,-3.0L2.5,-0.5"/>
  </g>
  <g id="resetDef">
    <use xlink:href="#rim2" fill="#404040"><set attributeName="fill" to="#808080" begin="reset.mouseover" end="reset.mouseout"/></use>
  </g>
</defs>
<script type="application/ecmascript">
var viewWidth = 557;
var viewHeight = 247;
var sectionId = 'dynsection-0';
</script>
<script type="application/ecmascript" xlink:href="svg.min.js"/>
<svg id="graph" class="graph">
<g id="viewport">
<title>buffer&lt; T &gt;</title>
<!-- Node1 -->
<g id="Node000001" class="node">
<title>Node1</title>
<g id="a_Node000001"><a xlink:title=" ">
<polygon fill="#999999" stroke="#666666" points="74,-127 0,-127 0,-108 74,-108 74,-127"/>
<text text-anchor="middle" x="37" y="-115" font-family="Helvetica,sans-Serif" font-size="10.00">buffer&lt; T &gt;</text>
</a>
</g>
</g>
<!-- Node2 -->
<g id="Node000002" class="node">
<title>Node2</title>
<g id="a_Node000002"><a xlink:href="classcounting__buffer.html" target="_top" xlink:title=" ">
<polygon fill="white" stroke="#666666" points="335.5,-239 214.5,-239 214.5,-220 335.5,-220 335.5,-239"/>
<text text-anchor="middle" x="275" y="-227" font-family="Helvetica,sans-Serif" font-size="10.00">counting_buffer&lt; T &gt;</text>
</a>
</g>
</g>
<!-- Node1&#45;&gt;Node2 -->
<g id="edge1_Node000001_Node000002" class="edge">
<title>Node1&#45;&gt;Node2</title>
<g id="a_edge1_Node000001_Node000002"><a xlink:title=" ">
<path fill="none" stroke="#63b8ff" d="M53.22,-134.62C63.36,-145.22 77.47,-158.48 92,-167.5 134.55,-193.9 189.72,-210.65 228.11,-219.99"/>
<polygon fill="#63b8ff" stroke="#63b8ff" points="55.66,-132.1 46.29,-127.15 50.52,-136.86 55.66,-132.1"/>
</a>
</g>
</g>
<!-- Node3 -->
<g id="Node000003" class="node">
<title>Node3</title>
<g id="a_Node000003"><a xlink:href="classiterator__buffer.html" target="_top" xlink:title=" ">
<polygon fill="white" stroke="#666666" points="345,-201.5 205,-201.5 205,-171.5 345,-171.5 345,-201.5"/>
<text text-anchor="start" x="213" y="-189.5" font-family="Helvetica,sans-Serif" font-size="10.00">iterator_buffer&lt; OutputIt,</text>
<text text-anchor="middle" x="275" y="-178.5" font-family="Helvetica,sans-Serif" font-size="10.00"> T, Traits &gt;</text>
</a>
</g>
</g>
<!-- Node1&#45;&gt;Node3 -->
<g id="edge2_Node000001_Node000003" class="edge">
<title>Node1&#45;&gt;Node3</title>
<g id="a_edge2_Node000001_Node000003"><a xlink:title=" ">
<path fill="none" stroke="#63b8ff" d="M67.88,-131.2C75.64,-134.49 84.06,-137.82 92,-140.5 128.75,-152.89 170.66,-163.7 204.99,-171.72"/>
<polygon fill="#63b8ff" stroke="#63b8ff" points="69.05,-127.89 58.48,-127.11 66.25,-134.31 69.05,-127.89"/>
</a>
</g>
</g>
<!-- Node4 -->
<g id="Node000004" class="node">
<title>Node4</title>
<g id="a_Node000004"><a xlink:href="classiterator__buffer_3_01T_01_5_00_01T_01_4.html" target="_top" xlink:title=" ">
<polygon fill="white" stroke="#666666" points="327,-153.5 223,-153.5 223,-123.5 327,-123.5 327,-153.5"/>
<text text-anchor="start" x="231" y="-141.5" font-family="Helvetica,sans-Serif" font-size="10.00">iterator_buffer&lt; T</text>
<text text-anchor="middle" x="275" y="-130.5" font-family="Helvetica,sans-Serif" font-size="10.00"> *, T &gt;</text>
</a>
</g>
</g>
<!-- Node1&#45;&gt;Node4 -->
<g id="edge3_Node000001_Node000004" class="edge">
<title>Node1&#45;&gt;Node4</title>
<g id="a_edge3_Node000001_Node000004"><a xlink:title=" ">
<path fill="none" stroke="#63b8ff" d="M84.07,-121.6C123.86,-125.14 181.31,-130.25 222.59,-133.93"/>
<polygon fill="#63b8ff" stroke="#63b8ff" points="84.37,-118.11 74.1,-120.71 83.75,-125.08 84.37,-118.11"/>
</a>
</g>
</g>
<!-- Node5 -->
<g id="Node000005" class="node">
<title>Node5</title>
<g id="a_Node000005"><a xlink:href="classbuffer.html" target="_top" xlink:title=" ">
<polygon fill="white" stroke="#666666" points="319.5,-105 230.5,-105 230.5,-86 319.5,-86 319.5,-105"/>
<text text-anchor="middle" x="275" y="-93" font-family="Helvetica,sans-Serif" font-size="10.00">buffer&lt; char &gt;</text>
</a>
</g>
</g>
<!-- Node1&#45;&gt;Node5 -->
<g id="edge4_Node000001_Node000005" class="edge">
<title>Node1&#45;&gt;Node5</title>
<g id="a_edge4_Node000001_Node000005"><a xlink:title=" ">
<path fill="none" stroke="orange" stroke-dasharray="5,2" d="M84.28,-108.56C86.89,-108.17 89.48,-107.82 92,-107.5 139.13,-101.6 193.52,-98.5 230.47,-96.94"/>
<polygon fill="orange" stroke="orange" points="83.53,-105.14 74.22,-110.19 84.65,-112.05 83.53,-105.14"/>
</a>
</g>
<text text-anchor="middle" x="139.5" y="-110.5" font-family="Helvetica,sans-Serif" font-size="10.00" fill="grey"> &lt; char &gt;</text>
</g>
<!-- Node6 -->
<g id="Node000006" class="node">
<title>Node6</title>
<g id="a_Node000006"><a xlink:href="classbuffer.html" target="_top" xlink:title=" ">
<polygon fill="white" stroke="#666666" points="330,-67.5 220,-67.5 220,-37.5 330,-37.5 330,-67.5"/>
<text text-anchor="start" x="228" y="-55.5" font-family="Helvetica,sans-Serif" font-size="10.00">buffer&lt; Container::</text>
<text text-anchor="middle" x="275" y="-44.5" font-family="Helvetica,sans-Serif" font-size="10.00">value_type &gt;</text>
</a>
</g>
</g>
<!-- Node1&#45;&gt;Node6 -->
<g id="edge5_Node000001_Node000006" class="edge">
<title>Node1&#45;&gt;Node6</title>
<g id="a_edge5_Node000001_Node000006"><a xlink:title=" ">
<path fill="none" stroke="orange" stroke-dasharray="5,2" d="M53.53,-100.26C63.5,-90.39 77.29,-78.76 92,-72.5 132.51,-55.27 182.46,-50.83 219.78,-50.38"/>
<polygon fill="orange" stroke="orange" points="50.82,-98.03 46.42,-107.66 55.87,-102.88 50.82,-98.03"/>
</a>
</g>
<text text-anchor="start" x="92" y="-86.5" font-family="Helvetica,sans-Serif" font-size="10.00" fill="grey"> &lt; Container::value</text>
<text text-anchor="middle" x="139.5" y="-75.5" font-family="Helvetica,sans-Serif" font-size="10.00" fill="grey">_type &gt;</text>
</g>
<!-- Node8 -->
<g id="Node000008" class="node">
<title>Node8</title>
<g id="a_Node000008"><a xlink:href="classbuffer.html" target="_top" xlink:title=" ">
<polygon fill="white" stroke="#666666" points="320,-19 230,-19 230,0 320,0 320,-19"/>
<text text-anchor="middle" x="275" y="-7" font-family="Helvetica,sans-Serif" font-size="10.00">buffer&lt; Char &gt;</text>
</a>
</g>
</g>
<!-- Node1&#45;&gt;Node8 -->
<g id="edge7_Node000001_Node000008" class="edge">
<title>Node1&#45;&gt;Node8</title>
<g id="a_edge7_Node000001_Node000008"><a xlink:title=" ">
<path fill="none" stroke="orange" stroke-dasharray="5,2" d="M45.27,-98.39C53.56,-79.41 69,-51.08 92,-36.5 133.41,-10.25 190.6,-5.77 229.75,-6.39"/>
<polygon fill="orange" stroke="orange" points="41.96,-97.25 41.4,-107.83 48.43,-99.9 41.96,-97.25"/>
</a>
</g>
<text text-anchor="middle" x="139.5" y="-39.5" font-family="Helvetica,sans-Serif" font-size="10.00" fill="grey"> &lt; Char &gt;</text>
</g>
<!-- Node7 -->
<g id="Node000007" class="node">
<title>Node7</title>
<g id="a_Node000007"><a xlink:href="classiterator__buffer_3_01std_1_1back__insert__iterator_3_01Container_01_4_00_01enable__if__t_3_35791268f9463b30b303085098f291bc.html" target="_top" xlink:title=" ">
<polygon fill="white" stroke="#666666" points="549,-89.5 382,-89.5 382,-15.5 549,-15.5 549,-89.5"/>
<text text-anchor="start" x="390" y="-77.5" font-family="Helvetica,sans-Serif" font-size="10.00">iterator_buffer&lt; std</text>
<text text-anchor="start" x="390" y="-66.5" font-family="Helvetica,sans-Serif" font-size="10.00">::back_insert_iterator</text>
<text text-anchor="start" x="390" y="-55.5" font-family="Helvetica,sans-Serif" font-size="10.00">&lt; Container &gt;, enable_if</text>
<text text-anchor="start" x="390" y="-44.5" font-family="Helvetica,sans-Serif" font-size="10.00">_t&lt; is_contiguous&lt; Container</text>
<text text-anchor="start" x="390" y="-33.5" font-family="Helvetica,sans-Serif" font-size="10.00"> &gt;::value, typename Container</text>
<text text-anchor="middle" x="465.5" y="-22.5" font-family="Helvetica,sans-Serif" font-size="10.00">::value_type &gt; &gt;</text>
</a>
</g>
</g>
<!-- Node6&#45;&gt;Node7 -->
<g id="edge6_Node000006_Node000007" class="edge">
<title>Node6&#45;&gt;Node7</title>
<g id="a_edge6_Node000006_Node000007"><a xlink:title=" ">
<path fill="none" stroke="#63b8ff" d="M340.05,-52.5C353.42,-52.5 367.7,-52.5 381.65,-52.5"/>
<polygon fill="#63b8ff" stroke="#63b8ff" points="340.02,-49 330.02,-52.5 340.02,-56 340.02,-49"/>
</a>
</g>
</g>
</g>
</svg>

<g id="navigator" transform="translate(0 0)" fill="#404254">
  <rect fill="#f2f5e9" fill-opacity="0.5" stroke="#606060" stroke-width=".5" x="0" y="0" width="60" height="60"/>
  <use id="zoomplus" xlink:href="#zoomPlus" x="17" y="9" onmousedown="handleZoom(evt,'in')"/>
  <use id="zoomminus" xlink:href="#zoomMin" x="42" y="9" onmousedown="handleZoom(evt,'out')"/>
  <use id="reset" xlink:href="#resetDef" x="30" y="36" onmousedown="handleReset()"/>
   <use id="arrowup" xlink:href="#arrowUp" x="0" y="0" onmousedown="handlePan(0,-1)"/>
  <use id="arrowright" xlink:href="#arrowRight" x="0" y="0" onmousedown="handlePan(1,0)"/>
  <use id="arrowdown" xlink:href="#arrowDown" x="0" y="0" onmousedown="handlePan(0,1)"/>
  <use id="arrowleft" xlink:href="#arrowLeft" x="0" y="0" onmousedown="handlePan(-1,0)"/>
</g>
<svg viewBox="0 0 15 15" width="100%" height="30px" preserveAspectRatio="xMaxYMin meet">
 <g id="arrow_out" transform="scale(0.3 0.3)">
  <a xlink:href="classbuffer__inherit__graph_org.svg" target="_base">
   <rect id="button" ry="5" rx="5" y="6" x="6" height="38" width="38"
        fill="#f2f5e9" fill-opacity="0.5" stroke="#606060" stroke-width="1.0"/>
   <path id="arrow"
     d="M 11.500037,31.436501 C 11.940474,20.09759 22.043105,11.32322 32.158766,21.979434 L 37.068811,17.246167 C 37.068811,17.246167 37.088388,32 37.088388,32 L 22.160133,31.978069 C 22.160133,31.978069 26.997745,27.140456 26.997745,27.140456 C 18.528582,18.264221 13.291696,25.230495 11.500037,31.436501 z"
     style="fill:#404040;"/>
  </a>
 </g>
</svg>

<style type='text/css'>
<![CDATA[
[data-mouse-over-selected='false'] { opacity: 0.7; }
[data-mouse-over-selected='true']  { opacity: 1.0; }
]]>
</style>
<script type="application/ecmascript"><![CDATA[
document.addEventListener('DOMContentLoaded', (event) => {
  highlightEdges();
  highlightAdjacentNodes();
});
]]></script>
</svg>
