<?xml version="1.0" encoding="UTF-8" standalone="no"?>
<!DOCTYPE svg PUBLIC "-//W3C//DTD SVG 1.1//EN"
 "http://www.w3.org/Graphics/SVG/1.1/DTD/svg11.dtd">
<!-- Generated by graphviz version 2.43.0 (0)
 -->
<!-- Title: iterator_buffer&lt; OutputIt, T, Traits &gt; Pages: 1 -->
<svg width="176pt" height="93pt"
 viewBox="0.00 0.00 176.00 93.00" xmlns="http://www.w3.org/2000/svg" xmlns:xlink="http://www.w3.org/1999/xlink">
<g id="graph0" class="graph" transform="scale(1 1) rotate(0) translate(4 89)">
<title>iterator_buffer&lt; OutputIt, T, Traits &gt;</title>
<!-- Node1 -->
<g id="Node000001" class="node">
<title>Node1</title>
<g id="a_Node000001"><a xlink:title=" ">
<polygon fill="#999999" stroke="#666666" points="154,-30 14,-30 14,0 154,0 154,-30"/>
<text text-anchor="start" x="22" y="-18" font-family="Helvetica,sans-Serif" font-size="10.00">iterator_buffer&lt; OutputIt,</text>
<text text-anchor="middle" x="84" y="-7" font-family="Helvetica,sans-Serif" font-size="10.00"> T, Traits &gt;</text>
</a>
</g>
</g>
<!-- Node2 -->
<g id="Node000002" class="node">
<title>Node2</title>
<g id="a_Node000002"><a xlink:href="structbuffer__traits.html" target="_top" xlink:title=" ">
<polygon fill="white" stroke="#666666" points="76,-85 0,-85 0,-66 76,-66 76,-85"/>
<text text-anchor="middle" x="38" y="-73" font-family="Helvetica,sans-Serif" font-size="10.00">buffer_traits</text>
</a>
</g>
</g>
<!-- Node2&#45;&gt;Node1 -->
<g id="edge1_Node000001_Node000002" class="edge">
<title>Node2&#45;&gt;Node1</title>
<g id="a_edge1_Node000001_Node000002"><a xlink:title=" ">
<path fill="none" stroke="#63b8ff" d="M51.07,-57.88C57.96,-49.11 66.33,-38.48 72.9,-30.11"/>
<polygon fill="#63b8ff" stroke="#63b8ff" points="48.22,-55.84 44.79,-65.87 53.72,-60.17 48.22,-55.84"/>
</a>
</g>
</g>
<!-- Node3 -->
<g id="Node000003" class="node">
<title>Node3</title>
<g id="a_Node000003"><a xlink:href="classbuffer.html" target="_top" xlink:title=" ">
<polygon fill="white" stroke="#666666" points="168,-85 94,-85 94,-66 168,-66 168,-85"/>
<text text-anchor="middle" x="131" y="-73" font-family="Helvetica,sans-Serif" font-size="10.00">buffer&lt; T &gt;</text>
</a>
</g>
</g>
<!-- Node3&#45;&gt;Node1 -->
<g id="edge2_Node000001_Node000003" class="edge">
<title>Node3&#45;&gt;Node1</title>
<g id="a_edge2_Node000001_Node000003"><a xlink:title=" ">
<path fill="none" stroke="#63b8ff" d="M117.65,-57.88C110.61,-49.11 102.06,-38.48 95.34,-30.11"/>
<polygon fill="#63b8ff" stroke="#63b8ff" points="115.07,-60.26 124.06,-65.87 120.53,-55.88 115.07,-60.26"/>
</a>
</g>
</g>
</g>
</svg>
