<?xml version="1.0" encoding="UTF-8" standalone="no"?>
<!DOCTYPE svg PUBLIC "-//W3C//DTD SVG 1.1//EN"
 "http://www.w3.org/Graphics/SVG/1.1/DTD/svg11.dtd">
<!-- Generated by graphviz version 2.43.0 (0)
 -->
<!-- Title: compile_parse_context&lt; Char, ErrorHandler &gt; Pages: 1 -->
<svg width="427pt" height="161pt"
 viewBox="0.00 0.00 426.50 161.00" xmlns="http://www.w3.org/2000/svg" xmlns:xlink="http://www.w3.org/1999/xlink">
<g id="graph0" class="graph" transform="scale(1 1) rotate(0) translate(4 157)">
<title>compile_parse_context&lt; Char, ErrorHandler &gt;</title>
<!-- Node1 -->
<g id="Node000001" class="node">
<title>Node1</title>
<g id="a_Node000001"><a xlink:title=" ">
<polygon fill="#999999" stroke="#666666" points="150.5,-30 20.5,-30 20.5,0 150.5,0 150.5,-30"/>
<text text-anchor="start" x="28.5" y="-18" font-family="Helvetica,sans-Serif" font-size="10.00">compile_parse_context</text>
<text text-anchor="middle" x="85.5" y="-7" font-family="Helvetica,sans-Serif" font-size="10.00">&lt; Char, ErrorHandler &gt;</text>
</a>
</g>
</g>
<!-- Node1&#45;&gt;Node1 -->
<g id="edge3_Node000001_Node000001" class="edge">
<title>Node1&#45;&gt;Node1</title>
<g id="a_edge3_Node000001_Node000001"><a xlink:title=" ">
<path fill="none" stroke="orange" stroke-dasharray="5,2" d="M160.56,-17.14C165.5,-16.65 168.5,-15.93 168.5,-15 168.5,-13.55 161.2,-12.62 150.57,-12.22"/>
<polygon fill="orange" stroke="orange" points="160.33,-13.65 150.57,-17.78 160.77,-20.64 160.33,-13.65"/>
</a>
</g>
<text text-anchor="middle" x="226.5" y="-12.5" font-family="Helvetica,sans-Serif" font-size="10.00" fill="grey"> &lt; Char, ErrorHandler &gt;</text>
</g>
<!-- Node1&#45;&gt;Node1 -->
<g id="edge4_Node000001_Node000001" class="edge">
<title>Node1&#45;&gt;Node1</title>
<g id="a_edge4_Node000001_Node000001"><a xlink:title=" ">
<path fill="none" stroke="orange" stroke-dasharray="5,2" d="M160.87,-20.57C218.08,-21.93 284.5,-20.07 284.5,-15 284.5,-9.62 209.87,-7.86 150.68,-9.71"/>
<polygon fill="orange" stroke="orange" points="160.77,-17.07 150.68,-20.29 160.58,-24.06 160.77,-17.07"/>
</a>
</g>
<text text-anchor="middle" x="342.5" y="-12.5" font-family="Helvetica,sans-Serif" font-size="10.00" fill="grey"> &lt; Char, ErrorHandler &gt;</text>
</g>
<!-- Node2 -->
<g id="Node000002" class="node">
<title>Node2</title>
<g id="a_Node000002"><a xlink:href="classbasic__format__parse__context.html" target="_top" xlink:title=" ">
<polygon fill="white" stroke="#666666" points="171,-97 0,-97 0,-67 171,-67 171,-97"/>
<text text-anchor="start" x="8" y="-85" font-family="Helvetica,sans-Serif" font-size="10.00">basic_format_parse</text>
<text text-anchor="middle" x="85.5" y="-74" font-family="Helvetica,sans-Serif" font-size="10.00">_context&lt; Char, ErrorHandler &gt;</text>
</a>
</g>
</g>
<!-- Node2&#45;&gt;Node1 -->
<g id="edge1_Node000001_Node000002" class="edge">
<title>Node2&#45;&gt;Node1</title>
<g id="a_edge1_Node000001_Node000002"><a xlink:title=" ">
<path fill="none" stroke="#63b8ff" d="M85.5,-56.61C85.5,-47.65 85.5,-37.82 85.5,-30.08"/>
<polygon fill="#63b8ff" stroke="#63b8ff" points="82,-56.9 85.5,-66.9 89,-56.9 82,-56.9"/>
</a>
</g>
</g>
<!-- Node3 -->
<g id="Node000003" class="node">
<title>Node3</title>
<g id="a_Node000003"><a xlink:title=" ">
<polygon fill="white" stroke="#666666" points="143.5,-153 27.5,-153 27.5,-134 143.5,-134 143.5,-153"/>
<text text-anchor="middle" x="85.5" y="-141" font-family="Helvetica,sans-Serif" font-size="10.00">detail::error_handler</text>
</a>
</g>
</g>
<!-- Node3&#45;&gt;Node2 -->
<g id="edge2_Node000002_Node000003" class="edge">
<title>Node3&#45;&gt;Node2</title>
<g id="a_edge2_Node000002_Node000003"><a xlink:title=" ">
<path fill="none" stroke="#8b1a1a" d="M85.5,-123.73C85.5,-115.09 85.5,-105 85.5,-97.02"/>
<polygon fill="#8b1a1a" stroke="#8b1a1a" points="82,-123.98 85.5,-133.98 89,-123.98 82,-123.98"/>
</a>
</g>
</g>
</g>
</svg>
