<?xml version="1.0" encoding="UTF-8" standalone="no"?>
<!DOCTYPE svg PUBLIC "-//W3C//DTD SVG 1.1//EN"
 "http://www.w3.org/Graphics/SVG/1.1/DTD/svg11.dtd">
<!-- Generated by graphviz version 2.43.0 (0)
 -->
<!-- Title: Graphical Class Hierarchy Pages: 1 -->
<svg width="494pt" height="568pt"
 viewBox="0.00 0.00 494.00 567.50" xmlns="http://www.w3.org/2000/svg" xmlns:xlink="http://www.w3.org/1999/xlink">
<g id="graph0" class="graph" transform="scale(1 1) rotate(0) translate(4 563.5)">
<title>Graphical Class Hierarchy</title>
<!-- Node0 -->
<g id="Node000000" class="node">
<title>Node0</title>
<g id="a_Node000000"><a xlink:href="classCatch_1_1Generators_1_1GeneratorUntypedBase.html" target="_top" xlink:title=" ">
<polygon fill="white" stroke="#666666" points="131,-468 0,-468 0,-438 131,-438 131,-468"/>
<text text-anchor="start" x="8" y="-456" font-family="Helvetica,sans-Serif" font-size="10.00">Catch::Generators::</text>
<text text-anchor="middle" x="65.5" y="-445" font-family="Helvetica,sans-Serif" font-size="10.00">GeneratorUntypedBase</text>
</a>
</g>
</g>
<!-- Node1 -->
<g id="Node000001" class="node">
<title>Node1</title>
<g id="a_Node000001"><a xlink:href="structCatch_1_1Generators_1_1IGenerator.html" target="_top" xlink:title=" ">
<polygon fill="white" stroke="#666666" points="298,-559.5 167,-559.5 167,-518.5 298,-518.5 298,-559.5"/>
<text text-anchor="start" x="175" y="-547.5" font-family="Helvetica,sans-Serif" font-size="10.00">Catch::Generators::</text>
<text text-anchor="start" x="175" y="-536.5" font-family="Helvetica,sans-Serif" font-size="10.00">IGenerator&lt; std::vector</text>
<text text-anchor="middle" x="232.5" y="-525.5" font-family="Helvetica,sans-Serif" font-size="10.00">&lt; T &gt; &gt;</text>
</a>
</g>
</g>
<!-- Node0&#45;&gt;Node1 -->
<g id="edge10_Node000000_Node000001" class="edge">
<title>Node0&#45;&gt;Node1</title>
<g id="a_edge10_Node000000_Node000001"><a xlink:title=" ">
<path fill="none" stroke="#63b8ff" d="M103.93,-472.88C122.81,-482.87 146.09,-495.14 167,-506 174.81,-510.06 183.18,-514.37 191.2,-518.48"/>
<polygon fill="#63b8ff" stroke="#63b8ff" points="105.52,-469.76 95.04,-468.17 102.24,-475.95 105.52,-469.76"/>
</a>
</g>
</g>
<!-- Node3 -->
<g id="Node000003" class="node">
<title>Node3</title>
<g id="a_Node000003"><a xlink:href="structCatch_1_1Generators_1_1IGenerator.html" target="_top" xlink:title=" ">
<polygon fill="white" stroke="#666666" points="290.5,-497 174.5,-497 174.5,-467 290.5,-467 290.5,-497"/>
<text text-anchor="start" x="182.5" y="-485" font-family="Helvetica,sans-Serif" font-size="10.00">Catch::Generators::</text>
<text text-anchor="middle" x="232.5" y="-474" font-family="Helvetica,sans-Serif" font-size="10.00">IGenerator&lt; Float &gt;</text>
</a>
</g>
</g>
<!-- Node0&#45;&gt;Node3 -->
<g id="edge12_Node000000_Node000003" class="edge">
<title>Node0&#45;&gt;Node3</title>
<g id="a_edge12_Node000000_Node000003"><a xlink:title=" ">
<path fill="none" stroke="#63b8ff" d="M141.37,-466.16C152.48,-468.11 163.78,-470.1 174.45,-471.97"/>
<polygon fill="#63b8ff" stroke="#63b8ff" points="141.69,-462.66 131.24,-464.38 140.48,-469.56 141.69,-462.66"/>
</a>
</g>
</g>
<!-- Node5 -->
<g id="Node000005" class="node">
<title>Node5</title>
<g id="a_Node000005"><a xlink:href="structCatch_1_1Generators_1_1IGenerator.html" target="_top" xlink:title=" ">
<polygon fill="white" stroke="#666666" points="295,-444 170,-444 170,-414 295,-414 295,-444"/>
<text text-anchor="start" x="178" y="-432" font-family="Helvetica,sans-Serif" font-size="10.00">Catch::Generators::</text>
<text text-anchor="middle" x="232.5" y="-421" font-family="Helvetica,sans-Serif" font-size="10.00">IGenerator&lt; Integer &gt;</text>
</a>
</g>
</g>
<!-- Node0&#45;&gt;Node5 -->
<g id="edge14_Node000000_Node000005" class="edge">
<title>Node0&#45;&gt;Node5</title>
<g id="a_edge14_Node000000_Node000005"><a xlink:title=" ">
<path fill="none" stroke="#63b8ff" d="M141.18,-442.14C150.79,-440.74 160.55,-439.32 169.91,-437.96"/>
<polygon fill="#63b8ff" stroke="#63b8ff" points="140.63,-438.68 131.24,-443.58 141.64,-445.61 140.63,-438.68"/>
</a>
</g>
</g>
<!-- Node7 -->
<g id="Node000007" class="node">
<title>Node7</title>
<g id="a_Node000007"><a xlink:href="structCatch_1_1Generators_1_1IGenerator.html" target="_top" xlink:title=" ">
<polygon fill="white" stroke="#666666" points="287.5,-228 177.5,-228 177.5,-198 287.5,-198 287.5,-228"/>
<text text-anchor="start" x="185.5" y="-216" font-family="Helvetica,sans-Serif" font-size="10.00">Catch::Generators::</text>
<text text-anchor="middle" x="232.5" y="-205" font-family="Helvetica,sans-Serif" font-size="10.00">IGenerator&lt; T &gt;</text>
</a>
</g>
</g>
<!-- Node0&#45;&gt;Node7 -->
<g id="edge16_Node000000_Node000007" class="edge">
<title>Node0&#45;&gt;Node7</title>
<g id="a_edge16_Node000000_Node000007"><a xlink:title=" ">
<path fill="none" stroke="#63b8ff" d="M82.58,-429.61C116.24,-380.66 193.29,-268.58 221.18,-228.01"/>
<polygon fill="#63b8ff" stroke="#63b8ff" points="79.6,-427.76 76.82,-437.99 85.37,-431.73 79.6,-427.76"/>
</a>
</g>
</g>
<!-- Node2 -->
<g id="Node000002" class="node">
<title>Node2</title>
<g id="a_Node000002"><a xlink:href="classCatch_1_1Generators_1_1ChunkGenerator.html" target="_top" xlink:title=" ">
<polygon fill="white" stroke="#666666" points="472.5,-556 347.5,-556 347.5,-526 472.5,-526 472.5,-556"/>
<text text-anchor="start" x="355.5" y="-544" font-family="Helvetica,sans-Serif" font-size="10.00">Catch::Generators::</text>
<text text-anchor="middle" x="410" y="-533" font-family="Helvetica,sans-Serif" font-size="10.00">ChunkGenerator&lt; T &gt;</text>
</a>
</g>
</g>
<!-- Node1&#45;&gt;Node2 -->
<g id="edge11_Node000001_Node000002" class="edge">
<title>Node1&#45;&gt;Node2</title>
<g id="a_edge11_Node000001_Node000002"><a xlink:title=" ">
<path fill="none" stroke="#63b8ff" d="M308.61,-539.86C321.53,-540 334.82,-540.15 347.33,-540.3"/>
<polygon fill="#63b8ff" stroke="#63b8ff" points="308.39,-536.35 298.35,-539.74 308.31,-543.35 308.39,-536.35"/>
</a>
</g>
</g>
<!-- Node4 -->
<g id="Node000004" class="node">
<title>Node4</title>
<g id="a_Node000004"><a xlink:href="classCatch_1_1Generators_1_1RandomFloatingGenerator.html" target="_top" xlink:title=" ">
<polygon fill="white" stroke="#666666" points="483,-507.5 337,-507.5 337,-466.5 483,-466.5 483,-507.5"/>
<text text-anchor="start" x="345" y="-495.5" font-family="Helvetica,sans-Serif" font-size="10.00">Catch::Generators::</text>
<text text-anchor="start" x="345" y="-484.5" font-family="Helvetica,sans-Serif" font-size="10.00">RandomFloatingGenerator</text>
<text text-anchor="middle" x="410" y="-473.5" font-family="Helvetica,sans-Serif" font-size="10.00">&lt; Float &gt;</text>
</a>
</g>
</g>
<!-- Node3&#45;&gt;Node4 -->
<g id="edge13_Node000003_Node000004" class="edge">
<title>Node3&#45;&gt;Node4</title>
<g id="a_edge13_Node000003_Node000004"><a xlink:title=" ">
<path fill="none" stroke="#63b8ff" d="M301.13,-483.93C312.87,-484.26 325.12,-484.61 336.97,-484.95"/>
<polygon fill="#63b8ff" stroke="#63b8ff" points="301.06,-480.42 290.97,-483.64 300.86,-487.42 301.06,-480.42"/>
</a>
</g>
</g>
<!-- Node6 -->
<g id="Node000006" class="node">
<title>Node6</title>
<g id="a_Node000006"><a xlink:href="classCatch_1_1Generators_1_1RandomIntegerGenerator.html" target="_top" xlink:title=" ">
<polygon fill="white" stroke="#666666" points="480,-448.5 340,-448.5 340,-407.5 480,-407.5 480,-448.5"/>
<text text-anchor="start" x="348" y="-436.5" font-family="Helvetica,sans-Serif" font-size="10.00">Catch::Generators::</text>
<text text-anchor="start" x="348" y="-425.5" font-family="Helvetica,sans-Serif" font-size="10.00">RandomIntegerGenerator</text>
<text text-anchor="middle" x="410" y="-414.5" font-family="Helvetica,sans-Serif" font-size="10.00">&lt; Integer &gt;</text>
</a>
</g>
</g>
<!-- Node5&#45;&gt;Node6 -->
<g id="edge15_Node000005_Node000006" class="edge">
<title>Node5&#45;&gt;Node6</title>
<g id="a_edge15_Node000005_Node000006"><a xlink:title=" ">
<path fill="none" stroke="#63b8ff" d="M305.65,-428.59C316.98,-428.52 328.66,-428.46 339.91,-428.39"/>
<polygon fill="#63b8ff" stroke="#63b8ff" points="305.35,-425.09 295.37,-428.65 305.39,-432.09 305.35,-425.09"/>
</a>
</g>
</g>
<!-- Node8 -->
<g id="Node000008" class="node">
<title>Node8</title>
<g id="a_Node000008"><a xlink:href="classCatch_1_1Generators_1_1FilterGenerator.html" target="_top" xlink:title=" ">
<polygon fill="white" stroke="#666666" points="465,-389.5 355,-389.5 355,-348.5 465,-348.5 465,-389.5"/>
<text text-anchor="start" x="363" y="-377.5" font-family="Helvetica,sans-Serif" font-size="10.00">Catch::Generators::</text>
<text text-anchor="start" x="363" y="-366.5" font-family="Helvetica,sans-Serif" font-size="10.00">FilterGenerator&lt; T,</text>
<text text-anchor="middle" x="410" y="-355.5" font-family="Helvetica,sans-Serif" font-size="10.00"> Predicate &gt;</text>
</a>
</g>
</g>
<!-- Node7&#45;&gt;Node8 -->
<g id="edge17_Node000007_Node000008" class="edge">
<title>Node7&#45;&gt;Node8</title>
<g id="a_edge17_Node000007_Node000008"><a xlink:title=" ">
<path fill="none" stroke="#63b8ff" d="M247.31,-237.04C264.44,-264.97 296.06,-310.81 334,-339 340.3,-343.68 347.44,-347.75 354.74,-351.25"/>
<polygon fill="#63b8ff" stroke="#63b8ff" points="250.21,-235.08 242.07,-228.31 244.21,-238.68 250.21,-235.08"/>
</a>
</g>
</g>
<!-- Node9 -->
<g id="Node000009" class="node">
<title>Node9</title>
<g id="a_Node000009"><a xlink:href="classCatch_1_1Generators_1_1FixedValuesGenerator.html" target="_top" xlink:title=" ">
<polygon fill="white" stroke="#666666" points="486,-330 334,-330 334,-300 486,-300 486,-330"/>
<text text-anchor="start" x="342" y="-318" font-family="Helvetica,sans-Serif" font-size="10.00">Catch::Generators::</text>
<text text-anchor="middle" x="410" y="-307" font-family="Helvetica,sans-Serif" font-size="10.00">FixedValuesGenerator&lt; T &gt;</text>
</a>
</g>
</g>
<!-- Node7&#45;&gt;Node9 -->
<g id="edge18_Node000007_Node000009" class="edge">
<title>Node7&#45;&gt;Node9</title>
<g id="a_edge18_Node000007_Node000009"><a xlink:title=" ">
<path fill="none" stroke="#63b8ff" d="M256.76,-234.92C276.14,-252.19 305.15,-275.8 334,-291 340.29,-294.31 347.12,-297.27 354.01,-299.88"/>
<polygon fill="#63b8ff" stroke="#63b8ff" points="259.09,-232.3 249.32,-228.18 254.39,-237.49 259.09,-232.3"/>
</a>
</g>
</g>
<!-- Node10 -->
<g id="Node000010" class="node">
<title>Node10</title>
<g id="a_Node000010"><a xlink:href="classCatch_1_1Generators_1_1Generators.html" target="_top" xlink:title=" ">
<polygon fill="white" stroke="#666666" points="465,-282 355,-282 355,-252 465,-252 465,-282"/>
<text text-anchor="start" x="363" y="-270" font-family="Helvetica,sans-Serif" font-size="10.00">Catch::Generators::</text>
<text text-anchor="middle" x="410" y="-259" font-family="Helvetica,sans-Serif" font-size="10.00">Generators&lt; T &gt;</text>
</a>
</g>
</g>
<!-- Node7&#45;&gt;Node10 -->
<g id="edge19_Node000007_Node000010" class="edge">
<title>Node7&#45;&gt;Node10</title>
<g id="a_edge19_Node000007_Node000010"><a xlink:title=" ">
<path fill="none" stroke="#63b8ff" d="M291.99,-231C314.07,-237.79 338.95,-245.45 360.07,-251.95"/>
<polygon fill="#63b8ff" stroke="#63b8ff" points="292.97,-227.64 282.39,-228.04 290.92,-234.33 292.97,-227.64"/>
</a>
</g>
</g>
<!-- Node11 -->
<g id="Node000011" class="node">
<title>Node11</title>
<g id="a_Node000011"><a xlink:href="classCatch_1_1Generators_1_1MapGenerator.html" target="_top" xlink:title=" ">
<polygon fill="white" stroke="#666666" points="470,-233.5 350,-233.5 350,-192.5 470,-192.5 470,-233.5"/>
<text text-anchor="start" x="358" y="-221.5" font-family="Helvetica,sans-Serif" font-size="10.00">Catch::Generators::</text>
<text text-anchor="start" x="358" y="-210.5" font-family="Helvetica,sans-Serif" font-size="10.00">MapGenerator&lt; T, U,</text>
<text text-anchor="middle" x="410" y="-199.5" font-family="Helvetica,sans-Serif" font-size="10.00"> Func &gt;</text>
</a>
</g>
</g>
<!-- Node7&#45;&gt;Node11 -->
<g id="edge20_Node000007_Node000011" class="edge">
<title>Node7&#45;&gt;Node11</title>
<g id="a_edge20_Node000007_Node000011"><a xlink:title=" ">
<path fill="none" stroke="#63b8ff" d="M297.98,-213C314.97,-213 333.21,-213 349.9,-213"/>
<polygon fill="#63b8ff" stroke="#63b8ff" points="297.59,-209.5 287.59,-213 297.59,-216.5 297.59,-209.5"/>
</a>
</g>
</g>
<!-- Node12 -->
<g id="Node000012" class="node">
<title>Node12</title>
<g id="a_Node000012"><a xlink:href="classCatch_1_1Generators_1_1RangeGenerator.html" target="_top" xlink:title=" ">
<polygon fill="white" stroke="#666666" points="472.5,-174 347.5,-174 347.5,-144 472.5,-144 472.5,-174"/>
<text text-anchor="start" x="355.5" y="-162" font-family="Helvetica,sans-Serif" font-size="10.00">Catch::Generators::</text>
<text text-anchor="middle" x="410" y="-151" font-family="Helvetica,sans-Serif" font-size="10.00">RangeGenerator&lt; T &gt;</text>
</a>
</g>
</g>
<!-- Node7&#45;&gt;Node12 -->
<g id="edge21_Node000007_Node000012" class="edge">
<title>Node7&#45;&gt;Node12</title>
<g id="a_edge21_Node000007_Node000012"><a xlink:title=" ">
<path fill="none" stroke="#63b8ff" d="M291.99,-195C314.07,-188.21 338.95,-180.55 360.07,-174.05"/>
<polygon fill="#63b8ff" stroke="#63b8ff" points="290.92,-191.67 282.39,-197.96 292.97,-198.36 290.92,-191.67"/>
</a>
</g>
</g>
<!-- Node13 -->
<g id="Node000013" class="node">
<title>Node13</title>
<g id="a_Node000013"><a xlink:href="classCatch_1_1Generators_1_1RepeatGenerator.html" target="_top" xlink:title=" ">
<polygon fill="white" stroke="#666666" points="474,-126 346,-126 346,-96 474,-96 474,-126"/>
<text text-anchor="start" x="354" y="-114" font-family="Helvetica,sans-Serif" font-size="10.00">Catch::Generators::</text>
<text text-anchor="middle" x="410" y="-103" font-family="Helvetica,sans-Serif" font-size="10.00">RepeatGenerator&lt; T &gt;</text>
</a>
</g>
</g>
<!-- Node7&#45;&gt;Node13 -->
<g id="edge22_Node000007_Node000013" class="edge">
<title>Node7&#45;&gt;Node13</title>
<g id="a_edge22_Node000007_Node000013"><a xlink:title=" ">
<path fill="none" stroke="#63b8ff" d="M256.76,-191.08C276.14,-173.81 305.15,-150.2 334,-135 340.29,-131.69 347.12,-128.73 354.01,-126.12"/>
<polygon fill="#63b8ff" stroke="#63b8ff" points="254.39,-188.51 249.32,-197.82 259.09,-193.7 254.39,-188.51"/>
</a>
</g>
</g>
<!-- Node14 -->
<g id="Node000014" class="node">
<title>Node14</title>
<g id="a_Node000014"><a xlink:href="classCatch_1_1Generators_1_1SingleValueGenerator.html" target="_top" xlink:title=" ">
<polygon fill="white" stroke="#666666" points="485.5,-78 334.5,-78 334.5,-48 485.5,-48 485.5,-78"/>
<text text-anchor="start" x="342.5" y="-66" font-family="Helvetica,sans-Serif" font-size="10.00">Catch::Generators::</text>
<text text-anchor="middle" x="410" y="-55" font-family="Helvetica,sans-Serif" font-size="10.00">SingleValueGenerator&lt; T &gt;</text>
</a>
</g>
</g>
<!-- Node7&#45;&gt;Node14 -->
<g id="edge23_Node000007_Node000014" class="edge">
<title>Node7&#45;&gt;Node14</title>
<g id="a_edge23_Node000007_Node000014"><a xlink:title=" ">
<path fill="none" stroke="#63b8ff" d="M246.7,-188.94C263.44,-160.6 294.88,-113.97 334,-87 338.95,-83.59 344.42,-80.64 350.07,-78.09"/>
<polygon fill="#63b8ff" stroke="#63b8ff" points="243.56,-187.38 241.6,-197.79 249.63,-190.88 243.56,-187.38"/>
</a>
</g>
</g>
<!-- Node15 -->
<g id="Node000015" class="node">
<title>Node15</title>
<g id="a_Node000015"><a xlink:href="classCatch_1_1Generators_1_1TakeGenerator.html" target="_top" xlink:title=" ">
<polygon fill="white" stroke="#666666" points="468,-30 352,-30 352,0 468,0 468,-30"/>
<text text-anchor="start" x="360" y="-18" font-family="Helvetica,sans-Serif" font-size="10.00">Catch::Generators::</text>
<text text-anchor="middle" x="410" y="-7" font-family="Helvetica,sans-Serif" font-size="10.00">TakeGenerator&lt; T &gt;</text>
</a>
</g>
</g>
<!-- Node7&#45;&gt;Node15 -->
<g id="edge24_Node000007_Node000015" class="edge">
<title>Node7&#45;&gt;Node15</title>
<g id="a_edge24_Node000007_Node000015"><a xlink:title=" ">
<path fill="none" stroke="#63b8ff" d="M241.27,-188.28C254.36,-150.61 284.35,-79.02 334,-39 339.32,-34.71 345.43,-31.18 351.8,-28.28"/>
<polygon fill="#63b8ff" stroke="#63b8ff" points="237.89,-187.36 238.02,-197.95 244.53,-189.58 237.89,-187.36"/>
</a>
</g>
</g>
</g>
</svg>
