<?xml version="1.0" encoding="UTF-8" standalone="no"?>
<!DOCTYPE svg PUBLIC "-//W3C//DTD SVG 1.1//EN"
 "http://www.w3.org/Graphics/SVG/1.1/DTD/svg11.dtd">
<!-- Generated by graphviz version 2.43.0 (0)
 -->
<!-- Title: Graphical Class Hierarchy Pages: 1 -->
<svg width="421pt" height="75pt"
 viewBox="0.00 0.00 421.00 75.00" xmlns="http://www.w3.org/2000/svg" xmlns:xlink="http://www.w3.org/1999/xlink">
<g id="graph0" class="graph" transform="scale(1 1) rotate(0) translate(4 71)">
<title>Graphical Class Hierarchy</title>
<!-- Node0 -->
<g id="Node000000" class="node">
<title>Node0</title>
<g id="a_Node000000"><a target="_parent" xlink:href="http://en.cppreference.com/w/cpp/error/exception.html" xlink:title=" ">
<polygon fill="white" stroke="#666666" points="86,-48 0,-48 0,-29 86,-29 86,-48"/>
<text text-anchor="middle" x="43" y="-36" font-family="Helvetica,sans-Serif" font-size="10.00">std::exception</text>
</a>
</g>
</g>
<!-- Node1 -->
<g id="Node000001" class="node">
<title>Node1</title>
<g id="a_Node000001"><a xlink:href="classCatch_1_1GeneratorException.html" target="_top" xlink:title=" ">
<polygon fill="white" stroke="#666666" points="269,-67 122,-67 122,-48 269,-48 269,-67"/>
<text text-anchor="middle" x="195.5" y="-55" font-family="Helvetica,sans-Serif" font-size="10.00">Catch::GeneratorException</text>
</a>
</g>
</g>
<!-- Node0&#45;&gt;Node1 -->
<g id="edge167_Node000000_Node000001" class="edge">
<title>Node0&#45;&gt;Node1</title>
<g id="a_edge167_Node000000_Node000001"><a xlink:title=" ">
<path fill="none" stroke="#63b8ff" d="M96.44,-45.12C104.61,-46.15 113.19,-47.23 121.72,-48.31"/>
<polygon fill="#63b8ff" stroke="#63b8ff" points="96.68,-41.62 86.32,-43.84 95.81,-48.57 96.68,-41.62"/>
</a>
</g>
</g>
<!-- Node2 -->
<g id="Node000002" class="node">
<title>Node2</title>
<g id="a_Node000002"><a xlink:href="classspdlog_1_1spdlog__ex.html" target="_top" xlink:title=" ">
<polygon fill="white" stroke="#666666" points="247.5,-30 143.5,-30 143.5,-11 247.5,-11 247.5,-30"/>
<text text-anchor="middle" x="195.5" y="-18" font-family="Helvetica,sans-Serif" font-size="10.00">spdlog::spdlog_ex</text>
</a>
</g>
</g>
<!-- Node0&#45;&gt;Node2 -->
<g id="edge168_Node000000_Node000002" class="edge">
<title>Node0&#45;&gt;Node2</title>
<g id="a_edge168_Node000000_Node000002"><a xlink:title=" ">
<path fill="none" stroke="#63b8ff" d="M96.59,-32.21C111.77,-30.39 128.32,-28.42 143.41,-26.61"/>
<polygon fill="#63b8ff" stroke="#63b8ff" points="95.84,-28.78 86.32,-33.44 96.67,-35.73 95.84,-28.78"/>
</a>
</g>
</g>
<!-- Node3 -->
<g id="Node000003" class="node">
<title>Node3</title>
<g id="a_Node000003"><a xlink:href="structspdlog_1_1sinks_1_1win__eventlog_1_1internal_1_1win32__error.html" target="_top" xlink:title=" ">
<polygon fill="white" stroke="#666666" points="413,-41 305,-41 305,0 413,0 413,-41"/>
<text text-anchor="start" x="313" y="-29" font-family="Helvetica,sans-Serif" font-size="10.00">spdlog::sinks::win</text>
<text text-anchor="start" x="313" y="-18" font-family="Helvetica,sans-Serif" font-size="10.00">_eventlog::internal</text>
<text text-anchor="middle" x="359" y="-7" font-family="Helvetica,sans-Serif" font-size="10.00">::win32_error</text>
</a>
</g>
</g>
<!-- Node2&#45;&gt;Node3 -->
<g id="edge169_Node000002_Node000003" class="edge">
<title>Node2&#45;&gt;Node3</title>
<g id="a_edge169_Node000002_Node000003"><a xlink:title=" ">
<path fill="none" stroke="#63b8ff" d="M257.61,-20.5C273.12,-20.5 289.65,-20.5 304.73,-20.5"/>
<polygon fill="#63b8ff" stroke="#63b8ff" points="257.6,-17 247.6,-20.5 257.6,-24 257.6,-17"/>
</a>
</g>
</g>
</g>
</svg>
