<?xml version="1.0" encoding="UTF-8" standalone="no"?>
<!DOCTYPE svg PUBLIC "-//W3C//DTD SVG 1.1//EN"
 "http://www.w3.org/Graphics/SVG/1.1/DTD/svg11.dtd">
<!-- Generated by graphviz version 2.43.0 (0)
 -->
<!-- Title: Graphical Class Hierarchy Pages: 1 -->
<svg width="512pt" height="1983pt"
 viewBox="0.00 0.00 512.00 1982.50" xmlns="http://www.w3.org/2000/svg" xmlns:xlink="http://www.w3.org/1999/xlink">
<g id="graph0" class="graph" transform="scale(1 1) rotate(0) translate(4 1978.5)">
<title>Graphical Class Hierarchy</title>
<!-- Node0 -->
<g id="Node000000" class="node">
<title>Node0</title>
<g id="a_Node000000"><a xlink:href="classspdlog_1_1details_1_1flag__formatter.html" target="_top" xlink:title=" ">
<polygon fill="white" stroke="#666666" points="112,-1002 0,-1002 0,-972 112,-972 112,-1002"/>
<text text-anchor="start" x="8" y="-990" font-family="Helvetica,sans-Serif" font-size="10.00">spdlog::details::flag</text>
<text text-anchor="middle" x="56" y="-979" font-family="Helvetica,sans-Serif" font-size="10.00">_formatter</text>
</a>
</g>
</g>
<!-- Node1 -->
<g id="Node000001" class="node">
<title>Node1</title>
<g id="a_Node000001"><a xlink:href="classspdlog_1_1custom__flag__formatter.html" target="_top" xlink:title=" ">
<polygon fill="white" stroke="#666666" points="311.5,-1962 197.5,-1962 197.5,-1932 311.5,-1932 311.5,-1962"/>
<text text-anchor="start" x="205.5" y="-1950" font-family="Helvetica,sans-Serif" font-size="10.00">spdlog::custom_flag</text>
<text text-anchor="middle" x="254.5" y="-1939" font-family="Helvetica,sans-Serif" font-size="10.00">_formatter</text>
</a>
</g>
</g>
<!-- Node0&#45;&gt;Node1 -->
<g id="edge86_Node000000_Node000001" class="edge">
<title>Node0&#45;&gt;Node1</title>
<g id="a_edge86_Node000000_Node000001"><a xlink:title=" ">
<path fill="none" stroke="#63b8ff" d="M57.73,-1012.69C62.04,-1155.99 86.08,-1852.69 148,-1923 160.35,-1937.03 179.04,-1943.78 197.27,-1946.78"/>
<polygon fill="#63b8ff" stroke="#63b8ff" points="61.22,-1012.18 57.42,-1002.29 54.22,-1012.39 61.22,-1012.18"/>
</a>
</g>
</g>
<!-- Node4 -->
<g id="Node000004" class="node">
<title>Node4</title>
<g id="a_Node000004"><a xlink:href="classspdlog_1_1details_1_1A__formatter.html" target="_top" xlink:title=" ">
<polygon fill="white" stroke="#666666" points="334,-1914 175,-1914 175,-1884 334,-1884 334,-1914"/>
<text text-anchor="start" x="183" y="-1902" font-family="Helvetica,sans-Serif" font-size="10.00">spdlog::details::A</text>
<text text-anchor="middle" x="254.5" y="-1891" font-family="Helvetica,sans-Serif" font-size="10.00">_formatter&lt; ScopedPadder &gt;</text>
</a>
</g>
</g>
<!-- Node0&#45;&gt;Node4 -->
<g id="edge89_Node000000_Node000004" class="edge">
<title>Node0&#45;&gt;Node4</title>
<g id="a_edge89_Node000000_Node000004"><a xlink:title=" ">
<path fill="none" stroke="#63b8ff" d="M57.86,-1012.25C62.77,-1150.15 89.18,-1808.56 148,-1875 155.22,-1883.16 164.59,-1888.85 174.75,-1892.78"/>
<polygon fill="#63b8ff" stroke="#63b8ff" points="61.35,-1012.08 57.51,-1002.21 54.36,-1012.33 61.35,-1012.08"/>
</a>
</g>
</g>
<!-- Node5 -->
<g id="Node000005" class="node">
<title>Node5</title>
<g id="a_Node000005"><a xlink:href="classspdlog_1_1details_1_1B__formatter.html" target="_top" xlink:title=" ">
<polygon fill="white" stroke="#666666" points="334,-1866 175,-1866 175,-1836 334,-1836 334,-1866"/>
<text text-anchor="start" x="183" y="-1854" font-family="Helvetica,sans-Serif" font-size="10.00">spdlog::details::B</text>
<text text-anchor="middle" x="254.5" y="-1843" font-family="Helvetica,sans-Serif" font-size="10.00">_formatter&lt; ScopedPadder &gt;</text>
</a>
</g>
</g>
<!-- Node0&#45;&gt;Node5 -->
<g id="edge90_Node000000_Node000005" class="edge">
<title>Node0&#45;&gt;Node5</title>
<g id="a_edge90_Node000000_Node000005"><a xlink:title=" ">
<path fill="none" stroke="#63b8ff" d="M58.01,-1012.13C63.57,-1145.25 92.32,-1764.47 148,-1827 155.25,-1835.14 164.62,-1840.82 174.79,-1844.74"/>
<polygon fill="#63b8ff" stroke="#63b8ff" points="61.5,-1011.92 57.59,-1002.07 54.51,-1012.21 61.5,-1011.92"/>
</a>
</g>
</g>
<!-- Node6 -->
<g id="Node000006" class="node">
<title>Node6</title>
<g id="a_Node000006"><a xlink:href="classspdlog_1_1details_1_1C__formatter.html" target="_top" xlink:title=" ">
<polygon fill="white" stroke="#666666" points="334,-1818 175,-1818 175,-1788 334,-1788 334,-1818"/>
<text text-anchor="start" x="183" y="-1806" font-family="Helvetica,sans-Serif" font-size="10.00">spdlog::details::C</text>
<text text-anchor="middle" x="254.5" y="-1795" font-family="Helvetica,sans-Serif" font-size="10.00">_formatter&lt; ScopedPadder &gt;</text>
</a>
</g>
</g>
<!-- Node0&#45;&gt;Node6 -->
<g id="edge91_Node000000_Node000006" class="edge">
<title>Node0&#45;&gt;Node6</title>
<g id="a_edge91_Node000000_Node000006"><a xlink:title=" ">
<path fill="none" stroke="#63b8ff" d="M58.19,-1012.3C64.47,-1141.12 95.49,-1720.41 148,-1779 155.27,-1787.11 164.66,-1792.78 174.84,-1796.7"/>
<polygon fill="#63b8ff" stroke="#63b8ff" points="61.68,-1012.03 57.7,-1002.21 54.69,-1012.36 61.68,-1012.03"/>
</a>
</g>
</g>
<!-- Node7 -->
<g id="Node000007" class="node">
<title>Node7</title>
<g id="a_Node000007"><a xlink:href="classspdlog_1_1details_1_1D__formatter.html" target="_top" xlink:title=" ">
<polygon fill="white" stroke="#666666" points="334,-1770 175,-1770 175,-1740 334,-1740 334,-1770"/>
<text text-anchor="start" x="183" y="-1758" font-family="Helvetica,sans-Serif" font-size="10.00">spdlog::details::D</text>
<text text-anchor="middle" x="254.5" y="-1747" font-family="Helvetica,sans-Serif" font-size="10.00">_formatter&lt; ScopedPadder &gt;</text>
</a>
</g>
</g>
<!-- Node0&#45;&gt;Node7 -->
<g id="edge92_Node000000_Node000007" class="edge">
<title>Node0&#45;&gt;Node7</title>
<g id="a_edge92_Node000000_Node000007"><a xlink:title=" ">
<path fill="none" stroke="#63b8ff" d="M58.39,-1012.32C65.41,-1136.38 98.64,-1676.33 148,-1731 155.3,-1739.09 164.71,-1744.74 174.89,-1748.65"/>
<polygon fill="#63b8ff" stroke="#63b8ff" points="61.88,-1012.04 57.82,-1002.25 54.89,-1012.43 61.88,-1012.04"/>
</a>
</g>
</g>
<!-- Node8 -->
<g id="Node000008" class="node">
<title>Node8</title>
<g id="a_Node000008"><a xlink:href="classspdlog_1_1details_1_1E__formatter.html" target="_top" xlink:title=" ">
<polygon fill="white" stroke="#666666" points="334,-1722 175,-1722 175,-1692 334,-1692 334,-1722"/>
<text text-anchor="start" x="183" y="-1710" font-family="Helvetica,sans-Serif" font-size="10.00">spdlog::details::E</text>
<text text-anchor="middle" x="254.5" y="-1699" font-family="Helvetica,sans-Serif" font-size="10.00">_formatter&lt; ScopedPadder &gt;</text>
</a>
</g>
</g>
<!-- Node0&#45;&gt;Node8 -->
<g id="edge93_Node000000_Node000008" class="edge">
<title>Node0&#45;&gt;Node8</title>
<g id="a_edge93_Node000000_Node000008"><a xlink:title=" ">
<path fill="none" stroke="#63b8ff" d="M56.6,-1012.12C55.36,-1124.73 56.1,-1582.06 148,-1683 155.33,-1691.06 164.76,-1696.69 174.96,-1700.59"/>
<polygon fill="#63b8ff" stroke="#63b8ff" points="60.1,-1012.08 56.73,-1002.04 53.1,-1011.99 60.1,-1012.08"/>
</a>
</g>
</g>
<!-- Node9 -->
<g id="Node000009" class="node">
<title>Node9</title>
<g id="a_Node000009"><a xlink:href="classspdlog_1_1details_1_1F__formatter.html" target="_top" xlink:title=" ">
<polygon fill="white" stroke="#666666" points="334,-1674 175,-1674 175,-1644 334,-1644 334,-1674"/>
<text text-anchor="start" x="183" y="-1662" font-family="Helvetica,sans-Serif" font-size="10.00">spdlog::details::F</text>
<text text-anchor="middle" x="254.5" y="-1651" font-family="Helvetica,sans-Serif" font-size="10.00">_formatter&lt; ScopedPadder &gt;</text>
</a>
</g>
</g>
<!-- Node0&#45;&gt;Node9 -->
<g id="edge94_Node000000_Node000009" class="edge">
<title>Node0&#45;&gt;Node9</title>
<g id="a_edge94_Node000000_Node000009"><a xlink:title=" ">
<path fill="none" stroke="#63b8ff" d="M56.87,-1012.43C56.87,-1120.68 62.42,-1541.9 148,-1635 155.31,-1642.95 164.66,-1648.54 174.76,-1652.43"/>
<polygon fill="#63b8ff" stroke="#63b8ff" points="60.37,-1012.14 56.89,-1002.14 53.37,-1012.13 60.37,-1012.14"/>
</a>
</g>
</g>
<!-- Node10 -->
<g id="Node000010" class="node">
<title>Node10</title>
<g id="a_Node000010"><a xlink:href="classspdlog_1_1details_1_1H__formatter.html" target="_top" xlink:title=" ">
<polygon fill="white" stroke="#666666" points="334,-1626 175,-1626 175,-1596 334,-1596 334,-1626"/>
<text text-anchor="start" x="183" y="-1614" font-family="Helvetica,sans-Serif" font-size="10.00">spdlog::details::H</text>
<text text-anchor="middle" x="254.5" y="-1603" font-family="Helvetica,sans-Serif" font-size="10.00">_formatter&lt; ScopedPadder &gt;</text>
</a>
</g>
</g>
<!-- Node0&#45;&gt;Node10 -->
<g id="edge95_Node000000_Node000010" class="edge">
<title>Node0&#45;&gt;Node10</title>
<g id="a_edge95_Node000000_Node000010"><a xlink:title=" ">
<path fill="none" stroke="#63b8ff" d="M57.19,-1012.19C58.47,-1115.02 68.59,-1501.56 148,-1587 155.35,-1594.91 164.73,-1600.48 174.84,-1604.36"/>
<polygon fill="#63b8ff" stroke="#63b8ff" points="60.68,-1012.07 57.08,-1002.11 53.69,-1012.15 60.68,-1012.07"/>
</a>
</g>
</g>
<!-- Node11 -->
<g id="Node000011" class="node">
<title>Node11</title>
<g id="a_Node000011"><a xlink:href="classspdlog_1_1details_1_1I__formatter.html" target="_top" xlink:title=" ">
<polygon fill="white" stroke="#666666" points="334,-1578 175,-1578 175,-1548 334,-1548 334,-1578"/>
<text text-anchor="start" x="183" y="-1566" font-family="Helvetica,sans-Serif" font-size="10.00">spdlog::details::I</text>
<text text-anchor="middle" x="254.5" y="-1555" font-family="Helvetica,sans-Serif" font-size="10.00">_formatter&lt; ScopedPadder &gt;</text>
</a>
</g>
</g>
<!-- Node0&#45;&gt;Node11 -->
<g id="edge96_Node000000_Node000011" class="edge">
<title>Node0&#45;&gt;Node11</title>
<g id="a_edge96_Node000000_Node000011"><a xlink:title=" ">
<path fill="none" stroke="#63b8ff" d="M57.56,-1012.36C60.23,-1110.16 74.84,-1461.29 148,-1539 155.4,-1546.86 164.8,-1552.41 174.93,-1556.27"/>
<polygon fill="#63b8ff" stroke="#63b8ff" points="61.05,-1012.11 57.3,-1002.21 54.05,-1012.29 61.05,-1012.11"/>
</a>
</g>
</g>
<!-- Node12 -->
<g id="Node000012" class="node">
<title>Node12</title>
<g id="a_Node000012"><a xlink:href="classspdlog_1_1details_1_1M__formatter.html" target="_top" xlink:title=" ">
<polygon fill="white" stroke="#666666" points="334,-1530 175,-1530 175,-1500 334,-1500 334,-1530"/>
<text text-anchor="start" x="183" y="-1518" font-family="Helvetica,sans-Serif" font-size="10.00">spdlog::details::M</text>
<text text-anchor="middle" x="254.5" y="-1507" font-family="Helvetica,sans-Serif" font-size="10.00">_formatter&lt; ScopedPadder &gt;</text>
</a>
</g>
</g>
<!-- Node0&#45;&gt;Node12 -->
<g id="edge97_Node000000_Node000012" class="edge">
<title>Node0&#45;&gt;Node12</title>
<g id="a_edge97_Node000000_Node000012"><a xlink:title=" ">
<path fill="none" stroke="#63b8ff" d="M57.99,-1012.22C62.11,-1104.34 80.99,-1420.9 148,-1491 155.4,-1498.74 164.73,-1504.22 174.77,-1508.07"/>
<polygon fill="#63b8ff" stroke="#63b8ff" points="61.48,-1011.97 57.55,-1002.13 54.48,-1012.27 61.48,-1011.97"/>
</a>
</g>
</g>
<!-- Node13 -->
<g id="Node000013" class="node">
<title>Node13</title>
<g id="a_Node000013"><a xlink:href="classspdlog_1_1details_1_1R__formatter.html" target="_top" xlink:title=" ">
<polygon fill="white" stroke="#666666" points="334,-1482 175,-1482 175,-1452 334,-1452 334,-1482"/>
<text text-anchor="start" x="183" y="-1470" font-family="Helvetica,sans-Serif" font-size="10.00">spdlog::details::R</text>
<text text-anchor="middle" x="254.5" y="-1459" font-family="Helvetica,sans-Serif" font-size="10.00">_formatter&lt; ScopedPadder &gt;</text>
</a>
</g>
</g>
<!-- Node0&#45;&gt;Node13 -->
<g id="edge98_Node000000_Node000013" class="edge">
<title>Node0&#45;&gt;Node13</title>
<g id="a_edge98_Node000000_Node000013"><a xlink:title=" ">
<path fill="none" stroke="#63b8ff" d="M58.51,-1012.31C64.2,-1098.77 87.17,-1380.52 148,-1443 155.47,-1450.67 164.84,-1456.12 174.9,-1459.95"/>
<polygon fill="#63b8ff" stroke="#63b8ff" points="61.99,-1011.86 57.86,-1002.1 55.01,-1012.3 61.99,-1011.86"/>
</a>
</g>
</g>
<!-- Node14 -->
<g id="Node000014" class="node">
<title>Node14</title>
<g id="a_Node000014"><a xlink:href="classspdlog_1_1details_1_1S__formatter.html" target="_top" xlink:title=" ">
<polygon fill="white" stroke="#666666" points="334,-1434 175,-1434 175,-1404 334,-1404 334,-1434"/>
<text text-anchor="start" x="183" y="-1422" font-family="Helvetica,sans-Serif" font-size="10.00">spdlog::details::S</text>
<text text-anchor="middle" x="254.5" y="-1411" font-family="Helvetica,sans-Serif" font-size="10.00">_formatter&lt; ScopedPadder &gt;</text>
</a>
</g>
</g>
<!-- Node0&#45;&gt;Node14 -->
<g id="edge99_Node000000_Node000014" class="edge">
<title>Node0&#45;&gt;Node14</title>
<g id="a_edge99_Node000000_Node000014"><a xlink:title=" ">
<path fill="none" stroke="#63b8ff" d="M59.18,-1012.51C66.57,-1093.09 93.34,-1340.11 148,-1395 155.49,-1402.52 164.81,-1407.89 174.79,-1411.69"/>
<polygon fill="#63b8ff" stroke="#63b8ff" points="62.64,-1011.93 58.26,-1002.28 55.67,-1012.55 62.64,-1011.93"/>
</a>
</g>
</g>
<!-- Node15 -->
<g id="Node000015" class="node">
<title>Node15</title>
<g id="a_Node000015"><a xlink:href="classspdlog_1_1details_1_1T__formatter.html" target="_top" xlink:title=" ">
<polygon fill="white" stroke="#666666" points="334,-1386 175,-1386 175,-1356 334,-1356 334,-1386"/>
<text text-anchor="start" x="183" y="-1374" font-family="Helvetica,sans-Serif" font-size="10.00">spdlog::details::T</text>
<text text-anchor="middle" x="254.5" y="-1363" font-family="Helvetica,sans-Serif" font-size="10.00">_formatter&lt; ScopedPadder &gt;</text>
</a>
</g>
</g>
<!-- Node0&#45;&gt;Node15 -->
<g id="edge100_Node000000_Node000015" class="edge">
<title>Node0&#45;&gt;Node15</title>
<g id="a_edge100_Node000000_Node000015"><a xlink:title=" ">
<path fill="none" stroke="#63b8ff" d="M59.98,-1012.39C69.16,-1086.37 99.41,-1299.56 148,-1347 155.59,-1354.41 164.97,-1359.72 174.98,-1363.5"/>
<polygon fill="#63b8ff" stroke="#63b8ff" points="63.41,-1011.64 58.73,-1002.13 56.46,-1012.48 63.41,-1011.64"/>
</a>
</g>
</g>
<!-- Node16 -->
<g id="Node000016" class="node">
<title>Node16</title>
<g id="a_Node000016"><a xlink:href="classspdlog_1_1details_1_1Y__formatter.html" target="_top" xlink:title=" ">
<polygon fill="white" stroke="#666666" points="334,-1338 175,-1338 175,-1308 334,-1308 334,-1338"/>
<text text-anchor="start" x="183" y="-1326" font-family="Helvetica,sans-Serif" font-size="10.00">spdlog::details::Y</text>
<text text-anchor="middle" x="254.5" y="-1315" font-family="Helvetica,sans-Serif" font-size="10.00">_formatter&lt; ScopedPadder &gt;</text>
</a>
</g>
</g>
<!-- Node0&#45;&gt;Node16 -->
<g id="edge101_Node000000_Node000016" class="edge">
<title>Node0&#45;&gt;Node16</title>
<g id="a_edge101_Node000000_Node000016"><a xlink:title=" ">
<path fill="none" stroke="#63b8ff" d="M56.36,-1012.38C56.34,-1071.81 65.03,-1220.87 148,-1299 155.66,-1306.21 165.01,-1311.42 174.96,-1315.15"/>
<polygon fill="#63b8ff" stroke="#63b8ff" points="59.87,-1012.08 56.46,-1002.05 52.87,-1012.01 59.87,-1012.08"/>
</a>
</g>
</g>
<!-- Node17 -->
<g id="Node000017" class="node">
<title>Node17</title>
<g id="a_Node000017"><a xlink:href="classspdlog_1_1details_1_1a__formatter.html" target="_top" xlink:title=" ">
<polygon fill="white" stroke="#666666" points="334,-1290 175,-1290 175,-1260 334,-1260 334,-1290"/>
<text text-anchor="start" x="183" y="-1278" font-family="Helvetica,sans-Serif" font-size="10.00">spdlog::details::a</text>
<text text-anchor="middle" x="254.5" y="-1267" font-family="Helvetica,sans-Serif" font-size="10.00">_formatter&lt; ScopedPadder &gt;</text>
</a>
</g>
</g>
<!-- Node0&#45;&gt;Node17 -->
<g id="edge102_Node000000_Node000017" class="edge">
<title>Node0&#45;&gt;Node17</title>
<g id="a_edge102_Node000000_Node000017"><a xlink:title=" ">
<path fill="none" stroke="#63b8ff" d="M57.95,-1012.45C61.35,-1065.28 76.92,-1187.22 148,-1251 155.69,-1257.9 164.95,-1262.94 174.74,-1266.61"/>
<polygon fill="#63b8ff" stroke="#63b8ff" points="61.43,-1012.07 57.39,-1002.27 54.44,-1012.45 61.43,-1012.07"/>
</a>
</g>
</g>
<!-- Node18 -->
<g id="Node000018" class="node">
<title>Node18</title>
<g id="a_Node000018"><a xlink:href="classspdlog_1_1details_1_1aggregate__formatter.html" target="_top" xlink:title=" ">
<polygon fill="white" stroke="#666666" points="326,-1242 183,-1242 183,-1212 326,-1212 326,-1242"/>
<text text-anchor="start" x="191" y="-1230" font-family="Helvetica,sans-Serif" font-size="10.00">spdlog::details::aggregate</text>
<text text-anchor="middle" x="254.5" y="-1219" font-family="Helvetica,sans-Serif" font-size="10.00">_formatter</text>
</a>
</g>
</g>
<!-- Node0&#45;&gt;Node18 -->
<g id="edge103_Node000000_Node000018" class="edge">
<title>Node0&#45;&gt;Node18</title>
<g id="a_edge103_Node000000_Node000018"><a xlink:title=" ">
<path fill="none" stroke="#63b8ff" d="M60.13,-1012.21C67.15,-1057.63 88.52,-1153.12 148,-1203 157.93,-1211.33 170.17,-1216.91 182.76,-1220.62"/>
<polygon fill="#63b8ff" stroke="#63b8ff" points="63.56,-1011.45 58.67,-1002.05 56.63,-1012.44 63.56,-1011.45"/>
</a>
</g>
</g>
<!-- Node19 -->
<g id="Node000019" class="node">
<title>Node19</title>
<g id="a_Node000019"><a xlink:href="classspdlog_1_1details_1_1b__formatter.html" target="_top" xlink:title=" ">
<polygon fill="white" stroke="#666666" points="334,-1194 175,-1194 175,-1164 334,-1164 334,-1194"/>
<text text-anchor="start" x="183" y="-1182" font-family="Helvetica,sans-Serif" font-size="10.00">spdlog::details::b</text>
<text text-anchor="middle" x="254.5" y="-1171" font-family="Helvetica,sans-Serif" font-size="10.00">_formatter&lt; ScopedPadder &gt;</text>
</a>
</g>
</g>
<!-- Node0&#45;&gt;Node19 -->
<g id="edge104_Node000000_Node000019" class="edge">
<title>Node0&#45;&gt;Node19</title>
<g id="a_edge104_Node000000_Node000019"><a xlink:title=" ">
<path fill="none" stroke="#63b8ff" d="M63.44,-1012.11C74.32,-1049.32 100.02,-1118.6 148,-1155 156.01,-1161.07 165.27,-1165.66 174.93,-1169.11"/>
<polygon fill="#63b8ff" stroke="#63b8ff" points="66.7,-1010.78 60.64,-1002.09 59.96,-1012.67 66.7,-1010.78"/>
</a>
</g>
</g>
<!-- Node20 -->
<g id="Node000020" class="node">
<title>Node20</title>
<g id="a_Node000020"><a xlink:href="classspdlog_1_1details_1_1c__formatter.html" target="_top" xlink:title=" ">
<polygon fill="white" stroke="#666666" points="334,-1146 175,-1146 175,-1116 334,-1116 334,-1146"/>
<text text-anchor="start" x="183" y="-1134" font-family="Helvetica,sans-Serif" font-size="10.00">spdlog::details::c</text>
<text text-anchor="middle" x="254.5" y="-1123" font-family="Helvetica,sans-Serif" font-size="10.00">_formatter&lt; ScopedPadder &gt;</text>
</a>
</g>
</g>
<!-- Node0&#45;&gt;Node20 -->
<g id="edge105_Node000000_Node000020" class="edge">
<title>Node0&#45;&gt;Node20</title>
<g id="a_edge105_Node000000_Node000020"><a xlink:title=" ">
<path fill="none" stroke="#63b8ff" d="M68.74,-1011.27C83.37,-1038.86 111.05,-1083.17 148,-1107 156.21,-1112.29 165.44,-1116.43 174.93,-1119.65"/>
<polygon fill="#63b8ff" stroke="#63b8ff" points="71.79,-1009.56 64.11,-1002.26 65.57,-1012.76 71.79,-1009.56"/>
</a>
</g>
</g>
<!-- Node21 -->
<g id="Node000021" class="node">
<title>Node21</title>
<g id="a_Node000021"><a xlink:href="classspdlog_1_1details_1_1ch__formatter.html" target="_top" xlink:title=" ">
<polygon fill="white" stroke="#666666" points="307,-1098 202,-1098 202,-1068 307,-1068 307,-1098"/>
<text text-anchor="start" x="210" y="-1086" font-family="Helvetica,sans-Serif" font-size="10.00">spdlog::details::ch</text>
<text text-anchor="middle" x="254.5" y="-1075" font-family="Helvetica,sans-Serif" font-size="10.00">_formatter</text>
</a>
</g>
</g>
<!-- Node0&#45;&gt;Node21 -->
<g id="edge106_Node000000_Node000021" class="edge">
<title>Node0&#45;&gt;Node21</title>
<g id="a_edge106_Node000000_Node000021"><a xlink:title=" ">
<path fill="none" stroke="#63b8ff" d="M79.01,-1009.11C96.33,-1025.27 121.84,-1046.48 148,-1059 164.69,-1066.99 184.15,-1072.38 201.79,-1076"/>
<polygon fill="#63b8ff" stroke="#63b8ff" points="81.3,-1006.46 71.65,-1002.09 76.47,-1011.52 81.3,-1006.46"/>
</a>
</g>
</g>
<!-- Node22 -->
<g id="Node000022" class="node">
<title>Node22</title>
<g id="a_Node000022"><a xlink:href="classspdlog_1_1details_1_1color__start__formatter.html" target="_top" xlink:title=" ">
<polygon fill="white" stroke="#666666" points="313.5,-1050 195.5,-1050 195.5,-1020 313.5,-1020 313.5,-1050"/>
<text text-anchor="start" x="203.5" y="-1038" font-family="Helvetica,sans-Serif" font-size="10.00">spdlog::details::color</text>
<text text-anchor="middle" x="254.5" y="-1027" font-family="Helvetica,sans-Serif" font-size="10.00">_start_formatter</text>
</a>
</g>
</g>
<!-- Node0&#45;&gt;Node22 -->
<g id="edge107_Node000000_Node000022" class="edge">
<title>Node0&#45;&gt;Node22</title>
<g id="a_edge107_Node000000_Node000022"><a xlink:title=" ">
<path fill="none" stroke="#63b8ff" d="M122.03,-1004.44C130.75,-1006.69 139.58,-1008.93 148,-1011 163.32,-1014.76 179.95,-1018.64 195.37,-1022.15"/>
<polygon fill="#63b8ff" stroke="#63b8ff" points="122.82,-1001.03 112.26,-1001.9 121.06,-1007.8 122.82,-1001.03"/>
</a>
</g>
</g>
<!-- Node23 -->
<g id="Node000023" class="node">
<title>Node23</title>
<g id="a_Node000023"><a xlink:href="classspdlog_1_1details_1_1color__stop__formatter.html" target="_top" xlink:title=" ">
<polygon fill="white" stroke="#666666" points="313.5,-1002 195.5,-1002 195.5,-972 313.5,-972 313.5,-1002"/>
<text text-anchor="start" x="203.5" y="-990" font-family="Helvetica,sans-Serif" font-size="10.00">spdlog::details::color</text>
<text text-anchor="middle" x="254.5" y="-979" font-family="Helvetica,sans-Serif" font-size="10.00">_stop_formatter</text>
</a>
</g>
</g>
<!-- Node0&#45;&gt;Node23 -->
<g id="edge108_Node000000_Node000023" class="edge">
<title>Node0&#45;&gt;Node23</title>
<g id="a_edge108_Node000000_Node000023"><a xlink:title=" ">
<path fill="none" stroke="#63b8ff" d="M122.49,-987C146.02,-987 172.36,-987 195.23,-987"/>
<polygon fill="#63b8ff" stroke="#63b8ff" points="122.26,-983.5 112.26,-987 122.26,-990.5 122.26,-983.5"/>
</a>
</g>
</g>
<!-- Node24 -->
<g id="Node000024" class="node">
<title>Node24</title>
<g id="a_Node000024"><a xlink:href="classspdlog_1_1details_1_1d__formatter.html" target="_top" xlink:title=" ">
<polygon fill="white" stroke="#666666" points="334,-954 175,-954 175,-924 334,-924 334,-954"/>
<text text-anchor="start" x="183" y="-942" font-family="Helvetica,sans-Serif" font-size="10.00">spdlog::details::d</text>
<text text-anchor="middle" x="254.5" y="-931" font-family="Helvetica,sans-Serif" font-size="10.00">_formatter&lt; ScopedPadder &gt;</text>
</a>
</g>
</g>
<!-- Node0&#45;&gt;Node24 -->
<g id="edge109_Node000000_Node000024" class="edge">
<title>Node0&#45;&gt;Node24</title>
<g id="a_edge109_Node000000_Node000024"><a xlink:title=" ">
<path fill="none" stroke="#63b8ff" d="M122.03,-969.56C130.75,-967.31 139.58,-965.07 148,-963 160.22,-960 173.27,-956.92 185.88,-954.02"/>
<polygon fill="#63b8ff" stroke="#63b8ff" points="121.06,-966.2 112.26,-972.1 122.82,-972.97 121.06,-966.2"/>
</a>
</g>
</g>
<!-- Node25 -->
<g id="Node000025" class="node">
<title>Node25</title>
<g id="a_Node000025"><a xlink:href="classspdlog_1_1details_1_1e__formatter.html" target="_top" xlink:title=" ">
<polygon fill="white" stroke="#666666" points="334,-906 175,-906 175,-876 334,-876 334,-906"/>
<text text-anchor="start" x="183" y="-894" font-family="Helvetica,sans-Serif" font-size="10.00">spdlog::details::e</text>
<text text-anchor="middle" x="254.5" y="-883" font-family="Helvetica,sans-Serif" font-size="10.00">_formatter&lt; ScopedPadder &gt;</text>
</a>
</g>
</g>
<!-- Node0&#45;&gt;Node25 -->
<g id="edge110_Node000000_Node000025" class="edge">
<title>Node0&#45;&gt;Node25</title>
<g id="a_edge110_Node000000_Node000025"><a xlink:title=" ">
<path fill="none" stroke="#63b8ff" d="M79.01,-964.89C96.33,-948.73 121.84,-927.52 148,-915 156.47,-910.94 165.66,-907.56 174.96,-904.73"/>
<polygon fill="#63b8ff" stroke="#63b8ff" points="76.47,-962.48 71.65,-971.91 81.3,-967.54 76.47,-962.48"/>
</a>
</g>
</g>
<!-- Node26 -->
<g id="Node000026" class="node">
<title>Node26</title>
<g id="a_Node000026"><a xlink:href="classspdlog_1_1details_1_1elapsed__formatter.html" target="_top" xlink:title=" ">
<polygon fill="white" stroke="#666666" points="330,-857.5 179,-857.5 179,-816.5 330,-816.5 330,-857.5"/>
<text text-anchor="start" x="187" y="-845.5" font-family="Helvetica,sans-Serif" font-size="10.00">spdlog::details::elapsed</text>
<text text-anchor="start" x="187" y="-834.5" font-family="Helvetica,sans-Serif" font-size="10.00">_formatter&lt; ScopedPadder,</text>
<text text-anchor="middle" x="254.5" y="-823.5" font-family="Helvetica,sans-Serif" font-size="10.00"> Units &gt;</text>
</a>
</g>
</g>
<!-- Node0&#45;&gt;Node26 -->
<g id="edge111_Node000000_Node000026" class="edge">
<title>Node0&#45;&gt;Node26</title>
<g id="a_edge111_Node000000_Node000026"><a xlink:title=" ">
<path fill="none" stroke="#63b8ff" d="M68.96,-963.08C83.82,-935.81 111.7,-891.81 148,-867 157.35,-860.61 168.06,-855.57 178.98,-851.59"/>
<polygon fill="#63b8ff" stroke="#63b8ff" points="65.84,-961.49 64.26,-971.97 72.03,-964.77 65.84,-961.49"/>
</a>
</g>
</g>
<!-- Node27 -->
<g id="Node000027" class="node">
<title>Node27</title>
<g id="a_Node000027"><a xlink:href="classspdlog_1_1details_1_1f__formatter.html" target="_top" xlink:title=" ">
<polygon fill="white" stroke="#666666" points="334,-798 175,-798 175,-768 334,-768 334,-798"/>
<text text-anchor="start" x="183" y="-786" font-family="Helvetica,sans-Serif" font-size="10.00">spdlog::details::f</text>
<text text-anchor="middle" x="254.5" y="-775" font-family="Helvetica,sans-Serif" font-size="10.00">_formatter&lt; ScopedPadder &gt;</text>
</a>
</g>
</g>
<!-- Node0&#45;&gt;Node27 -->
<g id="edge112_Node000000_Node000027" class="edge">
<title>Node0&#45;&gt;Node27</title>
<g id="a_edge112_Node000000_Node000027"><a xlink:title=" ">
<path fill="none" stroke="#63b8ff" d="M62.4,-962.08C72.27,-922.78 97.07,-846.79 148,-807 155.92,-800.81 165.14,-796.16 174.76,-792.68"/>
<polygon fill="#63b8ff" stroke="#63b8ff" points="58.98,-961.37 60.06,-971.91 65.78,-962.99 58.98,-961.37"/>
</a>
</g>
</g>
<!-- Node28 -->
<g id="Node000028" class="node">
<title>Node28</title>
<g id="a_Node000028"><a xlink:href="classspdlog_1_1details_1_1full__formatter.html" target="_top" xlink:title=" ">
<polygon fill="white" stroke="#666666" points="309.5,-750 199.5,-750 199.5,-720 309.5,-720 309.5,-750"/>
<text text-anchor="start" x="207.5" y="-738" font-family="Helvetica,sans-Serif" font-size="10.00">spdlog::details::full</text>
<text text-anchor="middle" x="254.5" y="-727" font-family="Helvetica,sans-Serif" font-size="10.00">_formatter</text>
</a>
</g>
</g>
<!-- Node0&#45;&gt;Node28 -->
<g id="edge113_Node000000_Node000028" class="edge">
<title>Node0&#45;&gt;Node28</title>
<g id="a_edge113_Node000000_Node000028"><a xlink:title=" ">
<path fill="none" stroke="#63b8ff" d="M59.51,-961.72C65.61,-914.37 85.64,-812.32 148,-759 162.21,-746.85 181.31,-740.52 199.35,-737.32"/>
<polygon fill="#63b8ff" stroke="#63b8ff" points="56.02,-961.4 58.32,-971.74 62.97,-962.22 56.02,-961.4"/>
</a>
</g>
</g>
<!-- Node29 -->
<g id="Node000029" class="node">
<title>Node29</title>
<g id="a_Node000029"><a xlink:href="classspdlog_1_1details_1_1level__formatter.html" target="_top" xlink:title=" ">
<polygon fill="white" stroke="#666666" points="334,-702 175,-702 175,-672 334,-672 334,-702"/>
<text text-anchor="start" x="183" y="-690" font-family="Helvetica,sans-Serif" font-size="10.00">spdlog::details::level</text>
<text text-anchor="middle" x="254.5" y="-679" font-family="Helvetica,sans-Serif" font-size="10.00">_formatter&lt; ScopedPadder &gt;</text>
</a>
</g>
</g>
<!-- Node0&#45;&gt;Node29 -->
<g id="edge114_Node000000_Node000029" class="edge">
<title>Node0&#45;&gt;Node29</title>
<g id="a_edge114_Node000000_Node000029"><a xlink:title=" ">
<path fill="none" stroke="#63b8ff" d="M57.5,-961.55C60.03,-907 73.97,-778.33 148,-711 155.71,-703.99 165.04,-698.89 174.92,-695.2"/>
<polygon fill="#63b8ff" stroke="#63b8ff" points="54,-961.6 57.13,-971.72 60.99,-961.86 54,-961.6"/>
</a>
</g>
</g>
<!-- Node30 -->
<g id="Node000030" class="node">
<title>Node30</title>
<g id="a_Node000030"><a xlink:href="classspdlog_1_1details_1_1m__formatter.html" target="_top" xlink:title=" ">
<polygon fill="white" stroke="#666666" points="334,-654 175,-654 175,-624 334,-624 334,-654"/>
<text text-anchor="start" x="183" y="-642" font-family="Helvetica,sans-Serif" font-size="10.00">spdlog::details::m</text>
<text text-anchor="middle" x="254.5" y="-631" font-family="Helvetica,sans-Serif" font-size="10.00">_formatter&lt; ScopedPadder &gt;</text>
</a>
</g>
</g>
<!-- Node0&#45;&gt;Node30 -->
<g id="edge115_Node000000_Node000030" class="edge">
<title>Node0&#45;&gt;Node30</title>
<g id="a_edge115_Node000000_Node000030"><a xlink:title=" ">
<path fill="none" stroke="#63b8ff" d="M60.7,-961.87C71.3,-893.23 103.9,-704.95 148,-663 155.62,-655.75 164.96,-650.52 174.89,-646.78"/>
<polygon fill="#63b8ff" stroke="#63b8ff" points="57.23,-961.4 59.19,-971.81 64.15,-962.45 57.23,-961.4"/>
</a>
</g>
</g>
<!-- Node31 -->
<g id="Node000031" class="node">
<title>Node31</title>
<g id="a_Node000031"><a xlink:href="classspdlog_1_1details_1_1name__formatter.html" target="_top" xlink:title=" ">
<polygon fill="white" stroke="#666666" points="334,-606 175,-606 175,-576 334,-576 334,-606"/>
<text text-anchor="start" x="183" y="-594" font-family="Helvetica,sans-Serif" font-size="10.00">spdlog::details::name</text>
<text text-anchor="middle" x="254.5" y="-583" font-family="Helvetica,sans-Serif" font-size="10.00">_formatter&lt; ScopedPadder &gt;</text>
</a>
</g>
</g>
<!-- Node0&#45;&gt;Node31 -->
<g id="edge116_Node000000_Node000031" class="edge">
<title>Node0&#45;&gt;Node31</title>
<g id="a_edge116_Node000000_Node000031"><a xlink:title=" ">
<path fill="none" stroke="#63b8ff" d="M59.74,-961.76C68.44,-886.25 97.86,-664.33 148,-615 155.57,-607.56 164.93,-602.23 174.93,-598.45"/>
<polygon fill="#63b8ff" stroke="#63b8ff" points="56.25,-961.47 58.61,-971.8 63.2,-962.25 56.25,-961.47"/>
</a>
</g>
</g>
<!-- Node32 -->
<g id="Node000032" class="node">
<title>Node32</title>
<g id="a_Node000032"><a xlink:href="classspdlog_1_1details_1_1p__formatter.html" target="_top" xlink:title=" ">
<polygon fill="white" stroke="#666666" points="334,-558 175,-558 175,-528 334,-528 334,-558"/>
<text text-anchor="start" x="183" y="-546" font-family="Helvetica,sans-Serif" font-size="10.00">spdlog::details::p</text>
<text text-anchor="middle" x="254.5" y="-535" font-family="Helvetica,sans-Serif" font-size="10.00">_formatter&lt; ScopedPadder &gt;</text>
</a>
</g>
</g>
<!-- Node0&#45;&gt;Node32 -->
<g id="edge117_Node000000_Node000032" class="edge">
<title>Node0&#45;&gt;Node32</title>
<g id="a_edge117_Node000000_Node000032"><a xlink:title=" ">
<path fill="none" stroke="#63b8ff" d="M58.99,-961.56C65.95,-879.48 91.8,-623.78 148,-567 155.47,-559.46 164.77,-554.07 174.75,-550.27"/>
<polygon fill="#63b8ff" stroke="#63b8ff" points="55.49,-961.48 58.15,-971.74 62.47,-962.06 55.49,-961.48"/>
</a>
</g>
</g>
<!-- Node33 -->
<g id="Node000033" class="node">
<title>Node33</title>
<g id="a_Node000033"><a xlink:href="classspdlog_1_1details_1_1pid__formatter.html" target="_top" xlink:title=" ">
<polygon fill="white" stroke="#666666" points="334,-510 175,-510 175,-480 334,-480 334,-510"/>
<text text-anchor="start" x="183" y="-498" font-family="Helvetica,sans-Serif" font-size="10.00">spdlog::details::pid</text>
<text text-anchor="middle" x="254.5" y="-487" font-family="Helvetica,sans-Serif" font-size="10.00">_formatter&lt; ScopedPadder &gt;</text>
</a>
</g>
</g>
<!-- Node0&#45;&gt;Node33 -->
<g id="edge118_Node000000_Node000033" class="edge">
<title>Node0&#45;&gt;Node33</title>
<g id="a_edge118_Node000000_Node000033"><a xlink:title=" ">
<path fill="none" stroke="#63b8ff" d="M58.36,-961.89C63.63,-874.2 85.59,-583.42 148,-519 155.45,-511.31 164.81,-505.86 174.87,-502.02"/>
<polygon fill="#63b8ff" stroke="#63b8ff" points="54.86,-961.81 57.77,-971.99 61.85,-962.21 54.86,-961.81"/>
</a>
</g>
</g>
<!-- Node34 -->
<g id="Node000034" class="node">
<title>Node34</title>
<g id="a_Node000034"><a xlink:href="classspdlog_1_1details_1_1r__formatter.html" target="_top" xlink:title=" ">
<polygon fill="white" stroke="#666666" points="334,-462 175,-462 175,-432 334,-432 334,-462"/>
<text text-anchor="start" x="183" y="-450" font-family="Helvetica,sans-Serif" font-size="10.00">spdlog::details::r</text>
<text text-anchor="middle" x="254.5" y="-439" font-family="Helvetica,sans-Serif" font-size="10.00">_formatter&lt; ScopedPadder &gt;</text>
</a>
</g>
</g>
<!-- Node0&#45;&gt;Node34 -->
<g id="edge119_Node000000_Node000034" class="edge">
<title>Node0&#45;&gt;Node34</title>
<g id="a_edge119_Node000000_Node000034"><a xlink:title=" ">
<path fill="none" stroke="#63b8ff" d="M57.88,-961.5C61.65,-867.61 79.51,-542.94 148,-471 155.38,-463.25 164.71,-457.75 174.74,-453.9"/>
<polygon fill="#63b8ff" stroke="#63b8ff" points="54.37,-961.64 57.49,-971.77 61.37,-961.91 54.37,-961.64"/>
</a>
</g>
</g>
<!-- Node35 -->
<g id="Node000035" class="node">
<title>Node35</title>
<g id="a_Node000035"><a xlink:href="classspdlog_1_1details_1_1short__filename__formatter.html" target="_top" xlink:title=" ">
<polygon fill="white" stroke="#666666" points="358,-414 151,-414 151,-384 358,-384 358,-414"/>
<text text-anchor="start" x="159" y="-402" font-family="Helvetica,sans-Serif" font-size="10.00">spdlog::details::short</text>
<text text-anchor="middle" x="254.5" y="-391" font-family="Helvetica,sans-Serif" font-size="10.00">_filename_formatter&lt; ScopedPadder &gt;</text>
</a>
</g>
</g>
<!-- Node0&#45;&gt;Node35 -->
<g id="edge120_Node000000_Node000035" class="edge">
<title>Node0&#45;&gt;Node35</title>
<g id="a_edge120_Node000000_Node000035"><a xlink:title=" ">
<path fill="none" stroke="#63b8ff" d="M57.46,-961.73C59.77,-862.7 73.27,-502.65 148,-423 151.08,-419.71 154.52,-416.83 158.21,-414.31"/>
<polygon fill="#63b8ff" stroke="#63b8ff" points="53.96,-961.66 57.24,-971.73 60.96,-961.81 53.96,-961.66"/>
</a>
</g>
</g>
<!-- Node36 -->
<g id="Node000036" class="node">
<title>Node36</title>
<g id="a_Node000036"><a xlink:href="classspdlog_1_1details_1_1short__level__formatter.html" target="_top" xlink:title=" ">
<polygon fill="white" stroke="#666666" points="348.5,-366 160.5,-366 160.5,-336 348.5,-336 348.5,-366"/>
<text text-anchor="start" x="168.5" y="-354" font-family="Helvetica,sans-Serif" font-size="10.00">spdlog::details::short</text>
<text text-anchor="middle" x="254.5" y="-343" font-family="Helvetica,sans-Serif" font-size="10.00">_level_formatter&lt; ScopedPadder &gt;</text>
</a>
</g>
</g>
<!-- Node0&#45;&gt;Node36 -->
<g id="edge121_Node000000_Node000036" class="edge">
<title>Node0&#45;&gt;Node36</title>
<g id="a_edge121_Node000000_Node000036"><a xlink:title=" ">
<path fill="none" stroke="#63b8ff" d="M57.1,-961.65C58.07,-857.3 67.08,-462.33 148,-375 151.7,-371 155.92,-367.61 160.49,-364.72"/>
<polygon fill="#63b8ff" stroke="#63b8ff" points="53.6,-961.84 57.03,-971.87 60.6,-961.9 53.6,-961.84"/>
</a>
</g>
</g>
<!-- Node37 -->
<g id="Node000037" class="node">
<title>Node37</title>
<g id="a_Node000037"><a xlink:href="classspdlog_1_1details_1_1source__filename__formatter.html" target="_top" xlink:title=" ">
<polygon fill="white" stroke="#666666" points="358,-318 151,-318 151,-288 358,-288 358,-318"/>
<text text-anchor="start" x="159" y="-306" font-family="Helvetica,sans-Serif" font-size="10.00">spdlog::details::source</text>
<text text-anchor="middle" x="254.5" y="-295" font-family="Helvetica,sans-Serif" font-size="10.00">_filename_formatter&lt; ScopedPadder &gt;</text>
</a>
</g>
</g>
<!-- Node0&#45;&gt;Node37 -->
<g id="edge122_Node000000_Node000037" class="edge">
<title>Node0&#45;&gt;Node37</title>
<g id="a_edge122_Node000000_Node000037"><a xlink:title=" ">
<path fill="none" stroke="#63b8ff" d="M56.8,-961.79C56.47,-852.66 60.81,-422.1 148,-327 151.05,-323.68 154.45,-320.77 158.11,-318.22"/>
<polygon fill="#63b8ff" stroke="#63b8ff" points="53.3,-961.89 56.85,-971.88 60.3,-961.86 53.3,-961.89"/>
</a>
</g>
</g>
<!-- Node38 -->
<g id="Node000038" class="node">
<title>Node38</title>
<g id="a_Node000038"><a xlink:href="classspdlog_1_1details_1_1source__funcname__formatter.html" target="_top" xlink:title=" ">
<polygon fill="white" stroke="#666666" points="361,-270 148,-270 148,-240 361,-240 361,-270"/>
<text text-anchor="start" x="156" y="-258" font-family="Helvetica,sans-Serif" font-size="10.00">spdlog::details::source</text>
<text text-anchor="middle" x="254.5" y="-247" font-family="Helvetica,sans-Serif" font-size="10.00">_funcname_formatter&lt; ScopedPadder &gt;</text>
</a>
</g>
</g>
<!-- Node0&#45;&gt;Node38 -->
<g id="edge123_Node000000_Node000038" class="edge">
<title>Node0&#45;&gt;Node38</title>
<g id="a_edge123_Node000000_Node000038"><a xlink:title=" ">
<path fill="none" stroke="#63b8ff" d="M56.54,-961.45C55,-846.91 54.65,-381.75 148,-279 151.03,-275.66 154.42,-272.74 158.08,-270.19"/>
<polygon fill="#63b8ff" stroke="#63b8ff" points="53.04,-961.76 56.69,-971.7 60.04,-961.65 53.04,-961.76"/>
</a>
</g>
</g>
<!-- Node39 -->
<g id="Node000039" class="node">
<title>Node39</title>
<g id="a_Node000039"><a xlink:href="classspdlog_1_1details_1_1source__linenum__formatter.html" target="_top" xlink:title=" ">
<polygon fill="white" stroke="#666666" points="356.5,-222 152.5,-222 152.5,-192 356.5,-192 356.5,-222"/>
<text text-anchor="start" x="160.5" y="-210" font-family="Helvetica,sans-Serif" font-size="10.00">spdlog::details::source</text>
<text text-anchor="middle" x="254.5" y="-199" font-family="Helvetica,sans-Serif" font-size="10.00">_linenum_formatter&lt; ScopedPadder &gt;</text>
</a>
</g>
</g>
<!-- Node0&#45;&gt;Node39 -->
<g id="edge124_Node000000_Node000039" class="edge">
<title>Node0&#45;&gt;Node39</title>
<g id="a_edge124_Node000000_Node000039"><a xlink:title=" ">
<path fill="none" stroke="#63b8ff" d="M58.34,-961.68C65.17,-836.39 97.85,-286.65 148,-231 151.02,-227.65 154.4,-224.72 158.04,-222.16"/>
<polygon fill="#63b8ff" stroke="#63b8ff" points="54.83,-961.66 57.79,-971.84 61.82,-962.04 54.83,-961.66"/>
</a>
</g>
</g>
<!-- Node40 -->
<g id="Node000040" class="node">
<title>Node40</title>
<g id="a_Node000040"><a xlink:href="classspdlog_1_1details_1_1source__location__formatter.html" target="_top" xlink:title=" ">
<polygon fill="white" stroke="#666666" points="356,-174 153,-174 153,-144 356,-144 356,-174"/>
<text text-anchor="start" x="161" y="-162" font-family="Helvetica,sans-Serif" font-size="10.00">spdlog::details::source</text>
<text text-anchor="middle" x="254.5" y="-151" font-family="Helvetica,sans-Serif" font-size="10.00">_location_formatter&lt; ScopedPadder &gt;</text>
</a>
</g>
</g>
<!-- Node0&#45;&gt;Node40 -->
<g id="edge125_Node000000_Node000040" class="edge">
<title>Node0&#45;&gt;Node40</title>
<g id="a_edge125_Node000000_Node000040"><a xlink:title=" ">
<path fill="none" stroke="#63b8ff" d="M58.14,-961.74C64.24,-831.81 94.7,-242.57 148,-183 151.01,-179.64 154.38,-176.7 158.01,-174.13"/>
<polygon fill="#63b8ff" stroke="#63b8ff" points="54.64,-961.75 57.67,-971.9 61.63,-962.08 54.64,-961.75"/>
</a>
</g>
</g>
<!-- Node41 -->
<g id="Node000041" class="node">
<title>Node41</title>
<g id="a_Node000041"><a xlink:href="classspdlog_1_1details_1_1t__formatter.html" target="_top" xlink:title=" ">
<polygon fill="white" stroke="#666666" points="334,-126 175,-126 175,-96 334,-96 334,-126"/>
<text text-anchor="start" x="183" y="-114" font-family="Helvetica,sans-Serif" font-size="10.00">spdlog::details::t</text>
<text text-anchor="middle" x="254.5" y="-103" font-family="Helvetica,sans-Serif" font-size="10.00">_formatter&lt; ScopedPadder &gt;</text>
</a>
</g>
</g>
<!-- Node0&#45;&gt;Node41 -->
<g id="edge126_Node000000_Node000041" class="edge">
<title>Node0&#45;&gt;Node41</title>
<g id="a_edge126_Node000000_Node000041"><a xlink:title=" ">
<path fill="none" stroke="#63b8ff" d="M57.98,-961.52C63.41,-826.5 91.58,-198.46 148,-135 155.24,-126.86 164.61,-121.17 174.78,-117.25"/>
<polygon fill="#63b8ff" stroke="#63b8ff" points="54.48,-961.58 57.58,-971.71 61.47,-961.86 54.48,-961.58"/>
</a>
</g>
</g>
<!-- Node42 -->
<g id="Node000042" class="node">
<title>Node42</title>
<g id="a_Node000042"><a xlink:href="classspdlog_1_1details_1_1v__formatter.html" target="_top" xlink:title=" ">
<polygon fill="white" stroke="#666666" points="334,-78 175,-78 175,-48 334,-48 334,-78"/>
<text text-anchor="start" x="183" y="-66" font-family="Helvetica,sans-Serif" font-size="10.00">spdlog::details::v</text>
<text text-anchor="middle" x="254.5" y="-55" font-family="Helvetica,sans-Serif" font-size="10.00">_formatter&lt; ScopedPadder &gt;</text>
</a>
</g>
</g>
<!-- Node0&#45;&gt;Node42 -->
<g id="edge127_Node000000_Node000042" class="edge">
<title>Node0&#45;&gt;Node42</title>
<g id="a_edge127_Node000000_Node000042"><a xlink:title=" ">
<path fill="none" stroke="#63b8ff" d="M57.82,-961.86C62.56,-823.07 88.37,-154.45 148,-87 155.22,-78.84 164.58,-73.14 174.74,-69.21"/>
<polygon fill="#63b8ff" stroke="#63b8ff" points="54.32,-961.83 57.48,-971.94 61.31,-962.07 54.32,-961.83"/>
</a>
</g>
</g>
<!-- Node43 -->
<g id="Node000043" class="node">
<title>Node43</title>
<g id="a_Node000043"><a xlink:href="classspdlog_1_1details_1_1z__formatter.html" target="_top" xlink:title=" ">
<polygon fill="white" stroke="#666666" points="334,-30 175,-30 175,0 334,0 334,-30"/>
<text text-anchor="start" x="183" y="-18" font-family="Helvetica,sans-Serif" font-size="10.00">spdlog::details::z</text>
<text text-anchor="middle" x="254.5" y="-7" font-family="Helvetica,sans-Serif" font-size="10.00">_formatter&lt; ScopedPadder &gt;</text>
</a>
</g>
</g>
<!-- Node0&#45;&gt;Node43 -->
<g id="edge128_Node000000_Node000043" class="edge">
<title>Node0&#45;&gt;Node43</title>
<g id="a_edge128_Node000000_Node000043"><a xlink:title=" ">
<path fill="none" stroke="#63b8ff" d="M57.68,-961.87C61.79,-818.76 85.21,-110.39 148,-39 155.26,-30.75 164.71,-25.02 174.97,-21.08"/>
<polygon fill="#63b8ff" stroke="#63b8ff" points="54.18,-961.79 57.4,-971.89 61.18,-961.99 54.18,-961.79"/>
</a>
</g>
</g>
<!-- Node2 -->
<g id="Node000002" class="node">
<title>Node2</title>
<g id="a_Node000002"><a xlink:href="classcustom__test__flag.html" target="_top" xlink:title=" ">
<polygon fill="white" stroke="#666666" points="500.5,-1974.5 400.5,-1974.5 400.5,-1955.5 500.5,-1955.5 500.5,-1974.5"/>
<text text-anchor="middle" x="450.5" y="-1962.5" font-family="Helvetica,sans-Serif" font-size="10.00">custom_test_flag</text>
</a>
</g>
</g>
<!-- Node1&#45;&gt;Node2 -->
<g id="edge87_Node000001_Node000002" class="edge">
<title>Node1&#45;&gt;Node2</title>
<g id="a_edge87_Node000001_Node000002"><a xlink:title=" ">
<path fill="none" stroke="#63b8ff" d="M321.7,-1953.14C347.51,-1955.54 376.56,-1958.23 400.43,-1960.45"/>
<polygon fill="#63b8ff" stroke="#63b8ff" points="321.89,-1949.65 311.61,-1952.21 321.25,-1956.62 321.89,-1949.65"/>
</a>
</g>
</g>
<!-- Node3 -->
<g id="Node000003" class="node">
<title>Node3</title>
<g id="a_Node000003"><a xlink:href="classmy__formatter__flag.html" target="_top" xlink:title=" ">
<polygon fill="white" stroke="#666666" points="504,-1937.5 397,-1937.5 397,-1918.5 504,-1918.5 504,-1937.5"/>
<text text-anchor="middle" x="450.5" y="-1925.5" font-family="Helvetica,sans-Serif" font-size="10.00">my_formatter_flag</text>
</a>
</g>
</g>
<!-- Node1&#45;&gt;Node3 -->
<g id="edge88_Node000001_Node000003" class="edge">
<title>Node1&#45;&gt;Node3</title>
<g id="a_edge88_Node000001_Node000003"><a xlink:title=" ">
<path fill="none" stroke="#63b8ff" d="M321.58,-1940.53C346.13,-1938.12 373.64,-1935.43 396.84,-1933.16"/>
<polygon fill="#63b8ff" stroke="#63b8ff" points="321.22,-1937.05 311.61,-1941.5 321.91,-1944.01 321.22,-1937.05"/>
</a>
</g>
</g>
</g>
</svg>
