<?xml version="1.0" encoding="UTF-8" standalone="no"?>
<!DOCTYPE svg PUBLIC "-//W3C//DTD SVG 1.1//EN"
 "http://www.w3.org/Graphics/SVG/1.1/DTD/svg11.dtd">
<!-- Generated by graphviz version 2.43.0 (0)
 -->
<!-- Title: Graphical Class Hierarchy Pages: 1 -->
<svg width="497pt" height="110pt"
 viewBox="0.00 0.00 497.00 110.00" xmlns="http://www.w3.org/2000/svg" xmlns:xlink="http://www.w3.org/1999/xlink">
<g id="graph0" class="graph" transform="scale(1 1) rotate(0) translate(4 106)">
<title>Graphical Class Hierarchy</title>
<!-- Node0 -->
<g id="Node000000" class="node">
<title>Node0</title>
<g id="a_Node000000"><a xlink:title=" ">
<polygon fill="#e0e0e0" stroke="#999999" points="116,-48.5 0,-48.5 0,-29.5 116,-29.5 116,-48.5"/>
<text text-anchor="middle" x="58" y="-36.5" font-family="Helvetica,sans-Serif" font-size="10.00">detail::error_handler</text>
</a>
</g>
</g>
<!-- Node1 -->
<g id="Node000001" class="node">
<title>Node1</title>
<g id="a_Node000001"><a xlink:href="classbasic__format__parse__context.html" target="_top" xlink:title=" ">
<polygon fill="white" stroke="#666666" points="323,-78 152,-78 152,-48 323,-48 323,-78"/>
<text text-anchor="start" x="160" y="-66" font-family="Helvetica,sans-Serif" font-size="10.00">basic_format_parse</text>
<text text-anchor="middle" x="237.5" y="-55" font-family="Helvetica,sans-Serif" font-size="10.00">_context&lt; Char, ErrorHandler &gt;</text>
</a>
</g>
</g>
<!-- Node0&#45;&gt;Node1 -->
<g id="edge67_Node000000_Node000001" class="edge">
<title>Node0&#45;&gt;Node1</title>
<g id="a_edge67_Node000000_Node000001"><a xlink:title=" ">
<path fill="none" stroke="#8b1a1a" d="M126.16,-48.08C134.5,-49.21 143.12,-50.37 151.68,-51.53"/>
<polygon fill="#8b1a1a" stroke="#8b1a1a" points="126.52,-44.6 116.14,-46.73 125.58,-51.53 126.52,-44.6"/>
</a>
</g>
</g>
<!-- Node4 -->
<g id="Node000004" class="node">
<title>Node4</title>
<g id="a_Node000004"><a xlink:href="structdynamic__formatter_1_1null__handler.html" target="_top" xlink:title=" ">
<polygon fill="white" stroke="#666666" points="297,-30 178,-30 178,0 297,0 297,-30"/>
<text text-anchor="start" x="186" y="-18" font-family="Helvetica,sans-Serif" font-size="10.00">dynamic_formatter&lt;</text>
<text text-anchor="middle" x="237.5" y="-7" font-family="Helvetica,sans-Serif" font-size="10.00"> Char &gt;::null_handler</text>
</a>
</g>
</g>
<!-- Node0&#45;&gt;Node4 -->
<g id="edge70_Node000000_Node000004" class="edge">
<title>Node0&#45;&gt;Node4</title>
<g id="a_edge70_Node000000_Node000004"><a xlink:title=" ">
<path fill="none" stroke="#63b8ff" d="M126.52,-29.87C143.45,-27.58 161.49,-25.14 177.94,-22.92"/>
<polygon fill="#63b8ff" stroke="#63b8ff" points="125.58,-26.47 116.14,-31.27 126.52,-33.4 125.58,-26.47"/>
</a>
</g>
</g>
<!-- Node2 -->
<g id="Node000002" class="node">
<title>Node2</title>
<g id="a_Node000002"><a xlink:href="classbasic__printf__parse__context.html" target="_top" xlink:title=" ">
<polygon fill="white" stroke="#666666" points="477,-102 371,-102 371,-72 477,-72 477,-102"/>
<text text-anchor="start" x="379" y="-90" font-family="Helvetica,sans-Serif" font-size="10.00">basic_printf_parse</text>
<text text-anchor="middle" x="424" y="-79" font-family="Helvetica,sans-Serif" font-size="10.00">_context&lt; Char &gt;</text>
</a>
</g>
</g>
<!-- Node1&#45;&gt;Node2 -->
<g id="edge68_Node000001_Node000002" class="edge">
<title>Node1&#45;&gt;Node2</title>
<g id="a_edge68_Node000001_Node000002"><a xlink:title=" ">
<path fill="none" stroke="#63b8ff" d="M333.14,-75.31C346.16,-77 359.12,-78.69 370.97,-80.23"/>
<polygon fill="#63b8ff" stroke="#63b8ff" points="333.56,-71.84 323.19,-74.02 332.66,-78.78 333.56,-71.84"/>
</a>
</g>
</g>
<!-- Node3 -->
<g id="Node000003" class="node">
<title>Node3</title>
<g id="a_Node000003"><a xlink:href="classcompile__parse__context.html" target="_top" xlink:title=" ">
<polygon fill="white" stroke="#666666" points="489,-54 359,-54 359,-24 489,-24 489,-54"/>
<text text-anchor="start" x="367" y="-42" font-family="Helvetica,sans-Serif" font-size="10.00">compile_parse_context</text>
<text text-anchor="middle" x="424" y="-31" font-family="Helvetica,sans-Serif" font-size="10.00">&lt; Char, ErrorHandler &gt;</text>
</a>
</g>
</g>
<!-- Node1&#45;&gt;Node3 -->
<g id="edge69_Node000001_Node000003" class="edge">
<title>Node1&#45;&gt;Node3</title>
<g id="a_edge69_Node000001_Node000003"><a xlink:title=" ">
<path fill="none" stroke="#63b8ff" d="M333.36,-50.66C342.03,-49.53 350.67,-48.41 358.97,-47.33"/>
<polygon fill="#63b8ff" stroke="#63b8ff" points="332.66,-47.22 323.19,-51.98 333.56,-54.16 332.66,-47.22"/>
</a>
</g>
</g>
</g>
</svg>
