<?xml version="1.0" encoding="UTF-8" standalone="no"?>
<!DOCTYPE svg PUBLIC "-//W3C//DTD SVG 1.1//EN"
 "http://www.w3.org/Graphics/SVG/1.1/DTD/svg11.dtd">
<!-- Generated by graphviz version 2.43.0 (0)
 -->
<!-- Title: Graphical Class Hierarchy Pages: 1 -->
<svg width="263pt" height="134pt"
 viewBox="0.00 0.00 263.00 134.00" xmlns="http://www.w3.org/2000/svg" xmlns:xlink="http://www.w3.org/1999/xlink">
<g id="graph0" class="graph" transform="scale(1 1) rotate(0) translate(4 130)">
<title>Graphical Class Hierarchy</title>
<!-- Node0 -->
<g id="Node000000" class="node">
<title>Node0</title>
<g id="a_Node000000"><a xlink:title=" ">
<polygon fill="#e0e0e0" stroke="#999999" points="79,-72.5 0,-72.5 0,-53.5 79,-53.5 79,-72.5"/>
<text text-anchor="middle" x="39.5" y="-60.5" font-family="Helvetica,sans-Serif" font-size="10.00">detail::buffer</text>
</a>
</g>
</g>
<!-- Node1 -->
<g id="Node000001" class="node">
<title>Node1</title>
<g id="a_Node000001"><a xlink:href="classbasic__memory__buffer.html" target="_top" xlink:title=" ">
<polygon fill="white" stroke="#666666" points="255,-126 115,-126 115,-96 255,-96 255,-126"/>
<text text-anchor="start" x="123" y="-114" font-family="Helvetica,sans-Serif" font-size="10.00">basic_memory_buffer</text>
<text text-anchor="middle" x="185" y="-103" font-family="Helvetica,sans-Serif" font-size="10.00">&lt; bigit, bigits_capacity &gt;</text>
</a>
</g>
</g>
<!-- Node0&#45;&gt;Node1 -->
<g id="edge63_Node000000_Node000001" class="edge">
<title>Node0&#45;&gt;Node1</title>
<g id="a_edge63_Node000000_Node000001"><a xlink:title=" ">
<path fill="none" stroke="#63b8ff" d="M78.77,-75.8C97.28,-81.99 119.64,-89.47 138.97,-95.94"/>
<polygon fill="#63b8ff" stroke="#63b8ff" points="79.79,-72.45 69.19,-72.6 77.57,-79.09 79.79,-72.45"/>
</a>
</g>
</g>
<!-- Node2 -->
<g id="Node000002" class="node">
<title>Node2</title>
<g id="a_Node000002"><a xlink:href="classbasic__memory__buffer.html" target="_top" xlink:title=" ">
<polygon fill="white" stroke="#666666" points="246,-78 124,-78 124,-48 246,-48 246,-78"/>
<text text-anchor="start" x="132" y="-66" font-family="Helvetica,sans-Serif" font-size="10.00">basic_memory_buffer</text>
<text text-anchor="middle" x="185" y="-55" font-family="Helvetica,sans-Serif" font-size="10.00">&lt; wchar_t &gt;</text>
</a>
</g>
</g>
<!-- Node0&#45;&gt;Node2 -->
<g id="edge64_Node000000_Node000002" class="edge">
<title>Node0&#45;&gt;Node2</title>
<g id="a_edge64_Node000000_Node000002"><a xlink:title=" ">
<path fill="none" stroke="#63b8ff" d="M89.6,-63C100.61,-63 112.41,-63 123.81,-63"/>
<polygon fill="#63b8ff" stroke="#63b8ff" points="89.33,-59.5 79.33,-63 89.33,-66.5 89.33,-59.5"/>
</a>
</g>
</g>
<!-- Node3 -->
<g id="Node000003" class="node">
<title>Node3</title>
<g id="a_Node000003"><a xlink:href="classbasic__memory__buffer.html" target="_top" xlink:title=" ">
<polygon fill="white" stroke="#666666" points="246,-30 124,-30 124,0 246,0 246,-30"/>
<text text-anchor="start" x="132" y="-18" font-family="Helvetica,sans-Serif" font-size="10.00">basic_memory_buffer</text>
<text text-anchor="middle" x="185" y="-7" font-family="Helvetica,sans-Serif" font-size="10.00">&lt; T, SIZE, Allocator &gt;</text>
</a>
</g>
</g>
<!-- Node0&#45;&gt;Node3 -->
<g id="edge65_Node000000_Node000003" class="edge">
<title>Node0&#45;&gt;Node3</title>
<g id="a_edge65_Node000000_Node000003"><a xlink:title=" ">
<path fill="none" stroke="#63b8ff" d="M78.77,-50.2C97.28,-44.01 119.64,-36.53 138.97,-30.06"/>
<polygon fill="#63b8ff" stroke="#63b8ff" points="77.57,-46.91 69.19,-53.4 79.79,-53.55 77.57,-46.91"/>
</a>
</g>
</g>
</g>
</svg>
