<?xml version="1.0" encoding="UTF-8" standalone="no"?>
<!DOCTYPE svg PUBLIC "-//W3C//DTD SVG 1.1//EN"
 "http://www.w3.org/Graphics/SVG/1.1/DTD/svg11.dtd">
<!-- Generated by graphviz version 2.43.0 (0)
 -->
<!-- Title: Graphical Class Hierarchy Pages: 1 -->
<svg width="753pt" height="650pt"
 viewBox="0.00 0.00 753.00 649.50" xmlns="http://www.w3.org/2000/svg" xmlns:xlink="http://www.w3.org/1999/xlink">
<g id="graph0" class="graph" transform="scale(1 1) rotate(0) translate(4 645.5)">
<title>Graphical Class Hierarchy</title>
<!-- Node0 -->
<g id="Node000000" class="node">
<title>Node0</title>
<g id="a_Node000000"><a xlink:href="structCatch_1_1Matchers_1_1Impl_1_1MatcherMethod.html" target="_top" xlink:title=" ">
<polygon fill="white" stroke="#666666" points="159,-582 0,-582 0,-552 159,-552 159,-582"/>
<text text-anchor="start" x="8" y="-570" font-family="Helvetica,sans-Serif" font-size="10.00">Catch::Matchers::Impl</text>
<text text-anchor="middle" x="79.5" y="-559" font-family="Helvetica,sans-Serif" font-size="10.00">::MatcherMethod&lt; ObjectT &gt;</text>
</a>
</g>
</g>
<!-- Node1 -->
<g id="Node000001" class="node">
<title>Node1</title>
<g id="a_Node000001"><a xlink:href="structCatch_1_1Matchers_1_1Impl_1_1MatcherBase.html" target="_top" xlink:title=" ">
<polygon fill="white" stroke="#666666" points="345,-582 203,-582 203,-552 345,-552 345,-582"/>
<text text-anchor="start" x="211" y="-570" font-family="Helvetica,sans-Serif" font-size="10.00">Catch::Matchers::Impl</text>
<text text-anchor="middle" x="274" y="-559" font-family="Helvetica,sans-Serif" font-size="10.00">::MatcherBase&lt; double &gt;</text>
</a>
</g>
</g>
<!-- Node0&#45;&gt;Node1 -->
<g id="edge31_Node000000_Node000001" class="edge">
<title>Node0&#45;&gt;Node1</title>
<g id="a_edge31_Node000000_Node000001"><a xlink:title=" ">
<path fill="none" stroke="#63b8ff" d="M169.31,-567C180.51,-567 191.85,-567 202.71,-567"/>
<polygon fill="#63b8ff" stroke="#63b8ff" points="169.07,-563.5 159.07,-567 169.07,-570.5 169.07,-563.5"/>
</a>
</g>
</g>
<!-- Node3 -->
<g id="Node000003" class="node">
<title>Node3</title>
<g id="a_Node000003"><a xlink:href="structCatch_1_1Matchers_1_1Impl_1_1MatcherBase.html" target="_top" xlink:title=" ">
<polygon fill="white" stroke="#666666" points="339.5,-534 208.5,-534 208.5,-504 339.5,-504 339.5,-534"/>
<text text-anchor="start" x="216.5" y="-522" font-family="Helvetica,sans-Serif" font-size="10.00">Catch::Matchers::Impl</text>
<text text-anchor="middle" x="274" y="-511" font-family="Helvetica,sans-Serif" font-size="10.00">::MatcherBase&lt; ArgT &gt;</text>
</a>
</g>
</g>
<!-- Node0&#45;&gt;Node3 -->
<g id="edge32_Node000000_Node000003" class="edge">
<title>Node0&#45;&gt;Node3</title>
<g id="a_edge32_Node000000_Node000003"><a xlink:title=" ">
<path fill="none" stroke="#63b8ff" d="M150.73,-549.49C171.09,-544.41 193.14,-538.91 212.83,-534"/>
<polygon fill="#63b8ff" stroke="#63b8ff" points="149.74,-546.13 140.88,-551.94 151.43,-552.92 149.74,-546.13"/>
</a>
</g>
</g>
<!-- Node7 -->
<g id="Node000007" class="node">
<title>Node7</title>
<g id="a_Node000007"><a xlink:href="structCatch_1_1Matchers_1_1Impl_1_1MatcherBase.html" target="_top" xlink:title=" ">
<polygon fill="white" stroke="#666666" points="353,-486 195,-486 195,-456 353,-456 353,-486"/>
<text text-anchor="start" x="203" y="-474" font-family="Helvetica,sans-Serif" font-size="10.00">Catch::Matchers::Impl</text>
<text text-anchor="middle" x="274" y="-463" font-family="Helvetica,sans-Serif" font-size="10.00">::MatcherBase&lt; std::string &gt;</text>
</a>
</g>
</g>
<!-- Node0&#45;&gt;Node7 -->
<g id="edge36_Node000000_Node000007" class="edge">
<title>Node0&#45;&gt;Node7</title>
<g id="a_edge36_Node000000_Node000007"><a xlink:title=" ">
<path fill="none" stroke="#63b8ff" d="M152.3,-547.24C154.62,-545.92 156.86,-544.5 159,-543 180.83,-527.68 173.19,-510.34 195,-495 199.87,-491.58 205.24,-488.63 210.81,-486.1"/>
<polygon fill="#63b8ff" stroke="#63b8ff" points="150.41,-544.28 143.08,-551.93 153.58,-550.52 150.41,-544.28"/>
</a>
</g>
</g>
<!-- Node8 -->
<g id="Node000008" class="node">
<title>Node8</title>
<g id="a_Node000008"><a xlink:href="structCatch_1_1Matchers_1_1Impl_1_1MatcherBase.html" target="_top" xlink:title=" ">
<polygon fill="white" stroke="#666666" points="348.5,-641.5 199.5,-641.5 199.5,-600.5 348.5,-600.5 348.5,-641.5"/>
<text text-anchor="start" x="207.5" y="-629.5" font-family="Helvetica,sans-Serif" font-size="10.00">Catch::Matchers::Impl</text>
<text text-anchor="start" x="207.5" y="-618.5" font-family="Helvetica,sans-Serif" font-size="10.00">::MatcherBase&lt; std::vector</text>
<text text-anchor="middle" x="274" y="-607.5" font-family="Helvetica,sans-Serif" font-size="10.00">&lt; T &gt; &gt;</text>
</a>
</g>
</g>
<!-- Node0&#45;&gt;Node8 -->
<g id="edge37_Node000000_Node000008" class="edge">
<title>Node0&#45;&gt;Node8</title>
<g id="a_edge37_Node000000_Node000008"><a xlink:title=" ">
<path fill="none" stroke="#63b8ff" d="M143.88,-584.78C161.8,-589.81 181.44,-595.32 199.88,-600.49"/>
<polygon fill="#63b8ff" stroke="#63b8ff" points="144.7,-581.37 134.12,-582.04 142.8,-588.11 144.7,-581.37"/>
</a>
</g>
</g>
<!-- Node4 -->
<g id="Node000004" class="node">
<title>Node4</title>
<g id="a_Node000004"><a xlink:href="structCatch_1_1Matchers_1_1Impl_1_1MatchAllOf.html" target="_top" xlink:title=" ">
<polygon fill="white" stroke="#666666" points="537.5,-606 414.5,-606 414.5,-576 537.5,-576 537.5,-606"/>
<text text-anchor="start" x="422.5" y="-594" font-family="Helvetica,sans-Serif" font-size="10.00">Catch::Matchers::Impl</text>
<text text-anchor="middle" x="476" y="-583" font-family="Helvetica,sans-Serif" font-size="10.00">::MatchAllOf&lt; ArgT &gt;</text>
</a>
</g>
</g>
<!-- Node3&#45;&gt;Node4 -->
<g id="edge33_Node000003_Node000004" class="edge">
<title>Node3&#45;&gt;Node4</title>
<g id="a_edge33_Node000003_Node000004"><a xlink:title=" ">
<path fill="none" stroke="#63b8ff" d="M340.56,-537.63C344.82,-539.31 349,-541.1 353,-543 370.37,-551.25 371.52,-558.98 389,-567 397.03,-570.68 405.75,-573.92 414.45,-576.72"/>
<polygon fill="#63b8ff" stroke="#63b8ff" points="341.74,-534.33 331.14,-534.12 339.29,-540.89 341.74,-534.33"/>
</a>
</g>
</g>
<!-- Node5 -->
<g id="Node000005" class="node">
<title>Node5</title>
<g id="a_Node000005"><a xlink:href="structCatch_1_1Matchers_1_1Impl_1_1MatchAnyOf.html" target="_top" xlink:title=" ">
<polygon fill="white" stroke="#666666" points="540,-558 412,-558 412,-528 540,-528 540,-558"/>
<text text-anchor="start" x="420" y="-546" font-family="Helvetica,sans-Serif" font-size="10.00">Catch::Matchers::Impl</text>
<text text-anchor="middle" x="476" y="-535" font-family="Helvetica,sans-Serif" font-size="10.00">::MatchAnyOf&lt; ArgT &gt;</text>
</a>
</g>
</g>
<!-- Node3&#45;&gt;Node5 -->
<g id="edge34_Node000003_Node000005" class="edge">
<title>Node3&#45;&gt;Node5</title>
<g id="a_edge34_Node000003_Node000005"><a xlink:title=" ">
<path fill="none" stroke="#63b8ff" d="M349.59,-527.95C370.1,-530.41 392.14,-533.06 411.93,-535.43"/>
<polygon fill="#63b8ff" stroke="#63b8ff" points="350,-524.48 339.66,-526.76 349.17,-531.43 350,-524.48"/>
</a>
</g>
</g>
<!-- Node6 -->
<g id="Node000006" class="node">
<title>Node6</title>
<g id="a_Node000006"><a xlink:href="structCatch_1_1Matchers_1_1Impl_1_1MatchNotOf.html" target="_top" xlink:title=" ">
<polygon fill="white" stroke="#666666" points="539,-510 413,-510 413,-480 539,-480 539,-510"/>
<text text-anchor="start" x="421" y="-498" font-family="Helvetica,sans-Serif" font-size="10.00">Catch::Matchers::Impl</text>
<text text-anchor="middle" x="476" y="-487" font-family="Helvetica,sans-Serif" font-size="10.00">::MatchNotOf&lt; ArgT &gt;</text>
</a>
</g>
</g>
<!-- Node3&#45;&gt;Node6 -->
<g id="edge35_Node000003_Node000006" class="edge">
<title>Node3&#45;&gt;Node6</title>
<g id="a_edge35_Node000003_Node000006"><a xlink:title=" ">
<path fill="none" stroke="#63b8ff" d="M349.74,-510.03C370.56,-507.53 392.94,-504.85 412.95,-502.45"/>
<polygon fill="#63b8ff" stroke="#63b8ff" points="349.17,-506.57 339.66,-511.24 350,-513.52 349.17,-506.57"/>
</a>
</g>
</g>
<!-- Node24 -->
<g id="Node000024" class="node">
<title>Node24</title>
<g id="a_Node000024"><a xlink:href="structCatch_1_1Matchers_1_1Impl_1_1MatcherMethod.html" target="_top" xlink:title=" ">
<polygon fill="white" stroke="#666666" points="143.5,-270 15.5,-270 15.5,-240 143.5,-240 143.5,-270"/>
<text text-anchor="start" x="23.5" y="-258" font-family="Helvetica,sans-Serif" font-size="10.00">Catch::Matchers::Impl</text>
<text text-anchor="middle" x="79.5" y="-247" font-family="Helvetica,sans-Serif" font-size="10.00">::MatcherMethod&lt; T &gt;</text>
</a>
</g>
</g>
<!-- Node9 -->
<g id="Node000009" class="node">
<title>Node9</title>
<g id="a_Node000009"><a xlink:href="structCatch_1_1Matchers_1_1Impl_1_1MatcherBase.html" target="_top" xlink:title=" ">
<polygon fill="white" stroke="#666666" points="335.5,-270 212.5,-270 212.5,-240 335.5,-240 335.5,-270"/>
<text text-anchor="start" x="220.5" y="-258" font-family="Helvetica,sans-Serif" font-size="10.00">Catch::Matchers::Impl</text>
<text text-anchor="middle" x="274" y="-247" font-family="Helvetica,sans-Serif" font-size="10.00">::MatcherBase&lt; T &gt;</text>
</a>
</g>
</g>
<!-- Node24&#45;&gt;Node9 -->
<g id="edge38_Node000024_Node000009" class="edge">
<title>Node24&#45;&gt;Node9</title>
<g id="a_edge38_Node000024_Node000009"><a xlink:title=" ">
<path fill="none" stroke="#63b8ff" d="M153.55,-255C172.99,-255 193.76,-255 212.45,-255"/>
<polygon fill="#63b8ff" stroke="#63b8ff" points="153.53,-251.5 143.53,-255 153.53,-258.5 153.53,-251.5"/>
</a>
</g>
</g>
<!-- Node10 -->
<g id="Node000010" class="node">
<title>Node10</title>
<g id="a_Node000010"><a xlink:href="structCatch_1_1Matchers_1_1Floating_1_1WithinAbsMatcher.html" target="_top" xlink:title=" ">
<polygon fill="white" stroke="#666666" points="546.5,-30 405.5,-30 405.5,0 546.5,0 546.5,-30"/>
<text text-anchor="start" x="413.5" y="-18" font-family="Helvetica,sans-Serif" font-size="10.00">Catch::Matchers::Floating</text>
<text text-anchor="middle" x="476" y="-7" font-family="Helvetica,sans-Serif" font-size="10.00">::WithinAbsMatcher</text>
</a>
</g>
</g>
<!-- Node9&#45;&gt;Node10 -->
<g id="edge39_Node000009_Node000010" class="edge">
<title>Node9&#45;&gt;Node10</title>
<g id="a_edge39_Node000009_Node000010"><a xlink:title=" ">
<path fill="none" stroke="#63b8ff" d="M281.18,-229.92C293.63,-184.77 326.05,-89.76 389,-39 393.95,-35.01 399.52,-31.68 405.38,-28.91"/>
<polygon fill="#63b8ff" stroke="#63b8ff" points="277.75,-229.21 278.57,-239.77 284.51,-231.01 277.75,-229.21"/>
</a>
</g>
</g>
<!-- Node11 -->
<g id="Node000011" class="node">
<title>Node11</title>
<g id="a_Node000011"><a xlink:href="structCatch_1_1Matchers_1_1Floating_1_1WithinUlpsMatcher.html" target="_top" xlink:title=" ">
<polygon fill="white" stroke="#666666" points="546.5,-462 405.5,-462 405.5,-432 546.5,-432 546.5,-462"/>
<text text-anchor="start" x="413.5" y="-450" font-family="Helvetica,sans-Serif" font-size="10.00">Catch::Matchers::Floating</text>
<text text-anchor="middle" x="476" y="-439" font-family="Helvetica,sans-Serif" font-size="10.00">::WithinUlpsMatcher</text>
</a>
</g>
</g>
<!-- Node9&#45;&gt;Node11 -->
<g id="edge40_Node000009_Node000011" class="edge">
<title>Node9&#45;&gt;Node11</title>
<g id="a_edge40_Node000009_Node000011"><a xlink:title=" ">
<path fill="none" stroke="#63b8ff" d="M285.04,-279.67C301.31,-316.51 336.94,-385.57 389,-423 394.03,-426.62 399.59,-429.69 405.39,-432.31"/>
<polygon fill="#63b8ff" stroke="#63b8ff" points="288.13,-277.99 280.97,-270.19 281.7,-280.76 288.13,-277.99"/>
</a>
</g>
</g>
<!-- Node12 -->
<g id="Node000012" class="node">
<title>Node12</title>
<g id="a_Node000012"><a xlink:href="classCatch_1_1Matchers_1_1Generic_1_1PredicateMatcher.html" target="_top" xlink:title=" ">
<polygon fill="white" stroke="#666666" points="545.5,-414 406.5,-414 406.5,-384 545.5,-384 545.5,-414"/>
<text text-anchor="start" x="414.5" y="-402" font-family="Helvetica,sans-Serif" font-size="10.00">Catch::Matchers::Generic</text>
<text text-anchor="middle" x="476" y="-391" font-family="Helvetica,sans-Serif" font-size="10.00">::PredicateMatcher&lt; T &gt;</text>
</a>
</g>
</g>
<!-- Node9&#45;&gt;Node12 -->
<g id="edge41_Node000009_Node000012" class="edge">
<title>Node9&#45;&gt;Node12</title>
<g id="a_edge41_Node000009_Node000012"><a xlink:title=" ">
<path fill="none" stroke="#63b8ff" d="M290.91,-278.18C310.76,-305.35 347.23,-349.87 389,-375 394.71,-378.44 400.93,-381.39 407.33,-383.94"/>
<polygon fill="#63b8ff" stroke="#63b8ff" points="293.73,-276.1 285.06,-270.01 288.03,-280.18 293.73,-276.1"/>
</a>
</g>
</g>
<!-- Node13 -->
<g id="Node000013" class="node">
<title>Node13</title>
<g id="a_Node000013"><a xlink:href="structCatch_1_1Matchers_1_1StdString_1_1RegexMatcher.html" target="_top" xlink:title=" ">
<polygon fill="white" stroke="#666666" points="549,-366 403,-366 403,-336 549,-336 549,-366"/>
<text text-anchor="start" x="411" y="-354" font-family="Helvetica,sans-Serif" font-size="10.00">Catch::Matchers::StdString</text>
<text text-anchor="middle" x="476" y="-343" font-family="Helvetica,sans-Serif" font-size="10.00">::RegexMatcher</text>
</a>
</g>
</g>
<!-- Node9&#45;&gt;Node13 -->
<g id="edge42_Node000009_Node000013" class="edge">
<title>Node9&#45;&gt;Node13</title>
<g id="a_edge42_Node000009_Node000013"><a xlink:title=" ">
<path fill="none" stroke="#63b8ff" d="M303.31,-276.18C325.62,-292.02 358.02,-313.25 389,-327 396.51,-330.33 404.6,-333.31 412.7,-335.95"/>
<polygon fill="#63b8ff" stroke="#63b8ff" points="305.15,-273.19 294.99,-270.18 301.06,-278.86 305.15,-273.19"/>
</a>
</g>
</g>
<!-- Node14 -->
<g id="Node000014" class="node">
<title>Node14</title>
<g id="a_Node000014"><a xlink:href="structCatch_1_1Matchers_1_1StdString_1_1StringMatcherBase.html" target="_top" xlink:title=" ">
<polygon fill="white" stroke="#666666" points="549,-318 403,-318 403,-288 549,-288 549,-318"/>
<text text-anchor="start" x="411" y="-306" font-family="Helvetica,sans-Serif" font-size="10.00">Catch::Matchers::StdString</text>
<text text-anchor="middle" x="476" y="-295" font-family="Helvetica,sans-Serif" font-size="10.00">::StringMatcherBase</text>
</a>
</g>
</g>
<!-- Node9&#45;&gt;Node14 -->
<g id="edge43_Node000009_Node000014" class="edge">
<title>Node9&#45;&gt;Node14</title>
<g id="a_edge43_Node000009_Node000014"><a xlink:title=" ">
<path fill="none" stroke="#63b8ff" d="M345.39,-271.89C367.17,-277.12 391.01,-282.84 412.23,-287.94"/>
<polygon fill="#63b8ff" stroke="#63b8ff" points="346.09,-268.46 335.55,-269.53 344.46,-275.27 346.09,-268.46"/>
</a>
</g>
</g>
<!-- Node19 -->
<g id="Node000019" class="node">
<title>Node19</title>
<g id="a_Node000019"><a xlink:href="structCatch_1_1Matchers_1_1Vector_1_1ApproxMatcher.html" target="_top" xlink:title=" ">
<polygon fill="white" stroke="#666666" points="542,-270 410,-270 410,-240 542,-240 542,-270"/>
<text text-anchor="start" x="418" y="-258" font-family="Helvetica,sans-Serif" font-size="10.00">Catch::Matchers::Vector</text>
<text text-anchor="middle" x="476" y="-247" font-family="Helvetica,sans-Serif" font-size="10.00">::ApproxMatcher&lt; T &gt;</text>
</a>
</g>
</g>
<!-- Node9&#45;&gt;Node19 -->
<g id="edge48_Node000009_Node000019" class="edge">
<title>Node9&#45;&gt;Node19</title>
<g id="a_edge48_Node000009_Node000019"><a xlink:title=" ">
<path fill="none" stroke="#63b8ff" d="M345.63,-255C366.51,-255 389.26,-255 409.78,-255"/>
<polygon fill="#63b8ff" stroke="#63b8ff" points="345.55,-251.5 335.55,-255 345.55,-258.5 345.55,-251.5"/>
</a>
</g>
</g>
<!-- Node20 -->
<g id="Node000020" class="node">
<title>Node20</title>
<g id="a_Node000020"><a xlink:href="structCatch_1_1Matchers_1_1Vector_1_1ContainsElementMatcher.html" target="_top" xlink:title=" ">
<polygon fill="white" stroke="#666666" points="563,-222 389,-222 389,-192 563,-192 563,-222"/>
<text text-anchor="start" x="397" y="-210" font-family="Helvetica,sans-Serif" font-size="10.00">Catch::Matchers::Vector</text>
<text text-anchor="middle" x="476" y="-199" font-family="Helvetica,sans-Serif" font-size="10.00">::ContainsElementMatcher&lt; T &gt;</text>
</a>
</g>
</g>
<!-- Node9&#45;&gt;Node20 -->
<g id="edge49_Node000009_Node000020" class="edge">
<title>Node9&#45;&gt;Node20</title>
<g id="a_edge49_Node000009_Node000020"><a xlink:title=" ">
<path fill="none" stroke="#63b8ff" d="M345.39,-238.11C367.17,-232.88 391.01,-227.16 412.23,-222.06"/>
<polygon fill="#63b8ff" stroke="#63b8ff" points="344.46,-234.73 335.55,-240.47 346.09,-241.54 344.46,-234.73"/>
</a>
</g>
</g>
<!-- Node21 -->
<g id="Node000021" class="node">
<title>Node21</title>
<g id="a_Node000021"><a xlink:href="structCatch_1_1Matchers_1_1Vector_1_1ContainsMatcher.html" target="_top" xlink:title=" ">
<polygon fill="white" stroke="#666666" points="543,-174 409,-174 409,-144 543,-144 543,-174"/>
<text text-anchor="start" x="417" y="-162" font-family="Helvetica,sans-Serif" font-size="10.00">Catch::Matchers::Vector</text>
<text text-anchor="middle" x="476" y="-151" font-family="Helvetica,sans-Serif" font-size="10.00">::ContainsMatcher&lt; T &gt;</text>
</a>
</g>
</g>
<!-- Node9&#45;&gt;Node21 -->
<g id="edge50_Node000009_Node000021" class="edge">
<title>Node9&#45;&gt;Node21</title>
<g id="a_edge50_Node000009_Node000021"><a xlink:title=" ">
<path fill="none" stroke="#63b8ff" d="M303.31,-233.82C325.62,-217.98 358.02,-196.75 389,-183 396.51,-179.67 404.6,-176.69 412.7,-174.05"/>
<polygon fill="#63b8ff" stroke="#63b8ff" points="301.06,-231.14 294.99,-239.82 305.15,-236.81 301.06,-231.14"/>
</a>
</g>
</g>
<!-- Node22 -->
<g id="Node000022" class="node">
<title>Node22</title>
<g id="a_Node000022"><a xlink:href="structCatch_1_1Matchers_1_1Vector_1_1EqualsMatcher.html" target="_top" xlink:title=" ">
<polygon fill="white" stroke="#666666" points="542,-126 410,-126 410,-96 542,-96 542,-126"/>
<text text-anchor="start" x="418" y="-114" font-family="Helvetica,sans-Serif" font-size="10.00">Catch::Matchers::Vector</text>
<text text-anchor="middle" x="476" y="-103" font-family="Helvetica,sans-Serif" font-size="10.00">::EqualsMatcher&lt; T &gt;</text>
</a>
</g>
</g>
<!-- Node9&#45;&gt;Node22 -->
<g id="edge51_Node000009_Node000022" class="edge">
<title>Node9&#45;&gt;Node22</title>
<g id="a_edge51_Node000009_Node000022"><a xlink:title=" ">
<path fill="none" stroke="#63b8ff" d="M290.91,-231.82C310.76,-204.65 347.23,-160.13 389,-135 395.38,-131.16 402.38,-127.92 409.56,-125.19"/>
<polygon fill="#63b8ff" stroke="#63b8ff" points="288.03,-229.82 285.06,-239.99 293.73,-233.9 288.03,-229.82"/>
</a>
</g>
</g>
<!-- Node23 -->
<g id="Node000023" class="node">
<title>Node23</title>
<g id="a_Node000023"><a xlink:href="structCatch_1_1Matchers_1_1Vector_1_1UnorderedEqualsMatcher.html" target="_top" xlink:title=" ">
<polygon fill="white" stroke="#666666" points="563,-78 389,-78 389,-48 563,-48 563,-78"/>
<text text-anchor="start" x="397" y="-66" font-family="Helvetica,sans-Serif" font-size="10.00">Catch::Matchers::Vector</text>
<text text-anchor="middle" x="476" y="-55" font-family="Helvetica,sans-Serif" font-size="10.00">::UnorderedEqualsMatcher&lt; T &gt;</text>
</a>
</g>
</g>
<!-- Node9&#45;&gt;Node23 -->
<g id="edge52_Node000009_Node000023" class="edge">
<title>Node9&#45;&gt;Node23</title>
<g id="a_edge52_Node000009_Node000023"><a xlink:title=" ">
<path fill="none" stroke="#63b8ff" d="M285.04,-230.33C301.31,-193.49 336.94,-124.43 389,-87 393.78,-83.56 399.04,-80.61 404.53,-78.09"/>
<polygon fill="#63b8ff" stroke="#63b8ff" points="281.7,-229.24 280.97,-239.81 288.13,-232.01 281.7,-229.24"/>
</a>
</g>
</g>
<!-- Node15 -->
<g id="Node000015" class="node">
<title>Node15</title>
<g id="a_Node000015"><a xlink:href="structCatch_1_1Matchers_1_1StdString_1_1ContainsMatcher.html" target="_top" xlink:title=" ">
<polygon fill="white" stroke="#666666" points="745,-390 599,-390 599,-360 745,-360 745,-390"/>
<text text-anchor="start" x="607" y="-378" font-family="Helvetica,sans-Serif" font-size="10.00">Catch::Matchers::StdString</text>
<text text-anchor="middle" x="672" y="-367" font-family="Helvetica,sans-Serif" font-size="10.00">::ContainsMatcher</text>
</a>
</g>
</g>
<!-- Node14&#45;&gt;Node15 -->
<g id="edge44_Node000014_Node000015" class="edge">
<title>Node14&#45;&gt;Node15</title>
<g id="a_edge44_Node000014_Node000015"><a xlink:title=" ">
<path fill="none" stroke="#63b8ff" d="M549.46,-321.41C554.1,-323.14 558.65,-325 563,-327 580.48,-335.02 581.73,-342.55 599,-351 605.63,-354.24 612.8,-357.21 619.97,-359.88"/>
<polygon fill="#63b8ff" stroke="#63b8ff" points="550.43,-318.04 539.84,-318.03 548.11,-324.65 550.43,-318.04"/>
</a>
</g>
</g>
<!-- Node16 -->
<g id="Node000016" class="node">
<title>Node16</title>
<g id="a_Node000016"><a xlink:href="structCatch_1_1Matchers_1_1StdString_1_1EndsWithMatcher.html" target="_top" xlink:title=" ">
<polygon fill="white" stroke="#666666" points="745,-342 599,-342 599,-312 745,-312 745,-342"/>
<text text-anchor="start" x="607" y="-330" font-family="Helvetica,sans-Serif" font-size="10.00">Catch::Matchers::StdString</text>
<text text-anchor="middle" x="672" y="-319" font-family="Helvetica,sans-Serif" font-size="10.00">::EndsWithMatcher</text>
</a>
</g>
</g>
<!-- Node14&#45;&gt;Node16 -->
<g id="edge45_Node000014_Node000016" class="edge">
<title>Node14&#45;&gt;Node16</title>
<g id="a_edge45_Node000014_Node000016"><a xlink:title=" ">
<path fill="none" stroke="#63b8ff" d="M559.19,-313.17C572.32,-314.79 585.82,-316.46 598.7,-318.06"/>
<polygon fill="#63b8ff" stroke="#63b8ff" points="559.59,-309.69 549.24,-311.94 558.73,-316.64 559.59,-309.69"/>
</a>
</g>
</g>
<!-- Node17 -->
<g id="Node000017" class="node">
<title>Node17</title>
<g id="a_Node000017"><a xlink:href="structCatch_1_1Matchers_1_1StdString_1_1EqualsMatcher.html" target="_top" xlink:title=" ">
<polygon fill="white" stroke="#666666" points="745,-294 599,-294 599,-264 745,-264 745,-294"/>
<text text-anchor="start" x="607" y="-282" font-family="Helvetica,sans-Serif" font-size="10.00">Catch::Matchers::StdString</text>
<text text-anchor="middle" x="672" y="-271" font-family="Helvetica,sans-Serif" font-size="10.00">::EqualsMatcher</text>
</a>
</g>
</g>
<!-- Node14&#45;&gt;Node17 -->
<g id="edge46_Node000014_Node000017" class="edge">
<title>Node14&#45;&gt;Node17</title>
<g id="a_edge46_Node000014_Node000017"><a xlink:title=" ">
<path fill="none" stroke="#63b8ff" d="M559.19,-292.83C572.32,-291.21 585.82,-289.54 598.7,-287.94"/>
<polygon fill="#63b8ff" stroke="#63b8ff" points="558.73,-289.36 549.24,-294.06 559.59,-296.31 558.73,-289.36"/>
</a>
</g>
</g>
<!-- Node18 -->
<g id="Node000018" class="node">
<title>Node18</title>
<g id="a_Node000018"><a xlink:href="structCatch_1_1Matchers_1_1StdString_1_1StartsWithMatcher.html" target="_top" xlink:title=" ">
<polygon fill="white" stroke="#666666" points="745,-246 599,-246 599,-216 745,-216 745,-246"/>
<text text-anchor="start" x="607" y="-234" font-family="Helvetica,sans-Serif" font-size="10.00">Catch::Matchers::StdString</text>
<text text-anchor="middle" x="672" y="-223" font-family="Helvetica,sans-Serif" font-size="10.00">::StartsWithMatcher</text>
</a>
</g>
</g>
<!-- Node14&#45;&gt;Node18 -->
<g id="edge47_Node000014_Node000018" class="edge">
<title>Node14&#45;&gt;Node18</title>
<g id="a_edge47_Node000014_Node000018"><a xlink:title=" ">
<path fill="none" stroke="#63b8ff" d="M549.46,-284.59C554.1,-282.86 558.65,-281 563,-279 580.48,-270.98 581.73,-263.45 599,-255 605.63,-251.76 612.8,-248.79 619.97,-246.12"/>
<polygon fill="#63b8ff" stroke="#63b8ff" points="548.11,-281.35 539.84,-287.97 550.43,-287.96 548.11,-281.35"/>
</a>
</g>
</g>
<!-- Node2 -->
<g id="Node000002" class="node">
<title>Node2</title>
<g id="a_Node000002"><a xlink:href="classCatch_1_1Matchers_1_1Impl_1_1MatcherUntypedBase.html" target="_top" xlink:title=" ">
<polygon fill="white" stroke="#666666" points="143.5,-534 15.5,-534 15.5,-504 143.5,-504 143.5,-534"/>
<text text-anchor="start" x="23.5" y="-522" font-family="Helvetica,sans-Serif" font-size="10.00">Catch::Matchers::Impl</text>
<text text-anchor="middle" x="79.5" y="-511" font-family="Helvetica,sans-Serif" font-size="10.00">::MatcherUntypedBase</text>
</a>
</g>
</g>
<!-- Node2&#45;&gt;Node1 -->
<g id="edge53_Node000002_Node000001" class="edge">
<title>Node2&#45;&gt;Node1</title>
<g id="a_edge53_Node000002_Node000001"><a xlink:title=" ">
<path fill="none" stroke="#63b8ff" d="M150.73,-536.51C171.09,-541.59 193.14,-547.09 212.83,-552"/>
<polygon fill="#63b8ff" stroke="#63b8ff" points="151.43,-533.08 140.88,-534.06 149.74,-539.87 151.43,-533.08"/>
</a>
</g>
</g>
<!-- Node2&#45;&gt;Node3 -->
<g id="edge54_Node000002_Node000003" class="edge">
<title>Node2&#45;&gt;Node3</title>
<g id="a_edge54_Node000002_Node000003"><a xlink:title=" ">
<path fill="none" stroke="#63b8ff" d="M153.65,-519C171.59,-519 190.66,-519 208.18,-519"/>
<polygon fill="#63b8ff" stroke="#63b8ff" points="153.53,-515.5 143.53,-519 153.53,-522.5 153.53,-515.5"/>
</a>
</g>
</g>
<!-- Node2&#45;&gt;Node7 -->
<g id="edge55_Node000002_Node000007" class="edge">
<title>Node2&#45;&gt;Node7</title>
<g id="a_edge55_Node000002_Node000007"><a xlink:title=" ">
<path fill="none" stroke="#63b8ff" d="M150.73,-501.49C171.09,-496.41 193.14,-490.91 212.83,-486"/>
<polygon fill="#63b8ff" stroke="#63b8ff" points="149.74,-498.13 140.88,-503.94 151.43,-504.92 149.74,-498.13"/>
</a>
</g>
</g>
<!-- Node2&#45;&gt;Node8 -->
<g id="edge56_Node000002_Node000008" class="edge">
<title>Node2&#45;&gt;Node8</title>
<g id="a_edge56_Node000002_Node000008"><a xlink:title=" ">
<path fill="none" stroke="#63b8ff" d="M152.3,-538.76C154.62,-540.08 156.86,-541.5 159,-543 180.83,-558.32 173.73,-574.92 195,-591 199.63,-594.5 204.72,-597.64 210.01,-600.44"/>
<polygon fill="#63b8ff" stroke="#63b8ff" points="153.58,-535.48 143.08,-534.07 150.41,-541.72 153.58,-535.48"/>
</a>
</g>
</g>
<!-- Node2&#45;&gt;Node9 -->
<g id="edge57_Node000002_Node000009" class="edge">
<title>Node2&#45;&gt;Node9</title>
<g id="a_edge57_Node000002_Node000009"><a xlink:title=" ">
<path fill="none" stroke="#63b8ff" d="M97.63,-495.51C136.4,-442.34 229.99,-313.99 262.03,-270.05"/>
<polygon fill="#63b8ff" stroke="#63b8ff" points="94.75,-493.52 91.68,-503.67 100.4,-497.65 94.75,-493.52"/>
</a>
</g>
</g>
</g>
</svg>
