<?xml version="1.0" encoding="UTF-8" standalone="no"?>
<!DOCTYPE svg PUBLIC "-//W3C//DTD SVG 1.1//EN"
 "http://www.w3.org/Graphics/SVG/1.1/DTD/svg11.dtd">
<!-- Generated by graphviz version 2.43.0 (0)
 -->
<!-- Title: Graphical Class Hierarchy Pages: 1 -->
<svg width="679pt" height="1072pt"
 viewBox="0.00 0.00 679.00 1071.50" xmlns="http://www.w3.org/2000/svg" xmlns:xlink="http://www.w3.org/1999/xlink">
<g id="graph0" class="graph" transform="scale(1 1) rotate(0) translate(4 1067.5)">
<title>Graphical Class Hierarchy</title>
<!-- Node0 -->
<g id="Node000000" class="node">
<title>Node0</title>
<g id="a_Node000000"><a xlink:href="classspdlog_1_1sinks_1_1sink.html" target="_top" xlink:title=" ">
<polygon fill="white" stroke="#666666" points="107,-564.5 0,-564.5 0,-545.5 107,-545.5 107,-564.5"/>
<text text-anchor="middle" x="53.5" y="-552.5" font-family="Helvetica,sans-Serif" font-size="10.00">spdlog::sinks::sink</text>
</a>
</g>
</g>
<!-- Node1 -->
<g id="Node000001" class="node">
<title>Node1</title>
<g id="a_Node000001"><a xlink:href="classspdlog_1_1sinks_1_1base__sink.html" target="_top" xlink:title=" ">
<polygon fill="white" stroke="#666666" points="283,-1047 166,-1047 166,-1017 283,-1017 283,-1047"/>
<text text-anchor="start" x="174" y="-1035" font-family="Helvetica,sans-Serif" font-size="10.00">spdlog::sinks::base</text>
<text text-anchor="middle" x="224.5" y="-1024" font-family="Helvetica,sans-Serif" font-size="10.00">_sink&lt; std::mutex &gt;</text>
</a>
</g>
</g>
<!-- Node0&#45;&gt;Node1 -->
<g id="edge132_Node000000_Node000001" class="edge">
<title>Node0&#45;&gt;Node1</title>
<g id="a_edge132_Node000000_Node000001"><a xlink:title=" ">
<path fill="none" stroke="#63b8ff" d="M56.34,-574.48C63.73,-649.53 93.34,-919.12 143,-987 152.55,-1000.05 167.09,-1009.81 181.2,-1016.84"/>
<polygon fill="#63b8ff" stroke="#63b8ff" points="59.82,-574.13 55.37,-564.51 52.85,-574.8 59.82,-574.13"/>
</a>
</g>
</g>
<!-- Node3 -->
<g id="Node000003" class="node">
<title>Node3</title>
<g id="a_Node000003"><a xlink:href="classspdlog_1_1sinks_1_1ansicolor__sink.html" target="_top" xlink:title=" ">
<polygon fill="white" stroke="#666666" points="291.5,-978 157.5,-978 157.5,-948 291.5,-948 291.5,-978"/>
<text text-anchor="start" x="165.5" y="-966" font-family="Helvetica,sans-Serif" font-size="10.00">spdlog::sinks::ansicolor</text>
<text text-anchor="middle" x="224.5" y="-955" font-family="Helvetica,sans-Serif" font-size="10.00">_sink&lt; ConsoleMutex &gt;</text>
</a>
</g>
</g>
<!-- Node0&#45;&gt;Node3 -->
<g id="edge134_Node000000_Node000003" class="edge">
<title>Node0&#45;&gt;Node3</title>
<g id="a_edge134_Node000000_Node000003"><a xlink:title=" ">
<path fill="none" stroke="#63b8ff" d="M62.38,-574.04C91.31,-643.87 191.28,-885.2 217.28,-947.98"/>
<polygon fill="#63b8ff" stroke="#63b8ff" points="65.57,-572.58 58.51,-564.68 59.1,-575.26 65.57,-572.58"/>
</a>
</g>
</g>
<!-- Node6 -->
<g id="Node000006" class="node">
<title>Node6</title>
<g id="a_Node000006"><a xlink:href="classspdlog_1_1sinks_1_1base__sink.html" target="_top" xlink:title=" ">
<polygon fill="white" stroke="#666666" points="279.5,-570 169.5,-570 169.5,-540 279.5,-540 279.5,-570"/>
<text text-anchor="start" x="177.5" y="-558" font-family="Helvetica,sans-Serif" font-size="10.00">spdlog::sinks::base</text>
<text text-anchor="middle" x="224.5" y="-547" font-family="Helvetica,sans-Serif" font-size="10.00">_sink&lt; Mutex &gt;</text>
</a>
</g>
</g>
<!-- Node0&#45;&gt;Node6 -->
<g id="edge137_Node000000_Node000006" class="edge">
<title>Node0&#45;&gt;Node6</title>
<g id="a_edge137_Node000000_Node000006"><a xlink:title=" ">
<path fill="none" stroke="#63b8ff" d="M117.45,-555C134.47,-555 152.74,-555 169.24,-555"/>
<polygon fill="#63b8ff" stroke="#63b8ff" points="117.05,-551.5 107.05,-555 117.05,-558.5 117.05,-551.5"/>
</a>
</g>
</g>
<!-- Node23 -->
<g id="Node000023" class="node">
<title>Node23</title>
<g id="a_Node000023"><a xlink:href="classspdlog_1_1sinks_1_1stdout__sink__base.html" target="_top" xlink:title=" ">
<polygon fill="white" stroke="#666666" points="306,-174 143,-174 143,-144 306,-144 306,-174"/>
<text text-anchor="start" x="151" y="-162" font-family="Helvetica,sans-Serif" font-size="10.00">spdlog::sinks::stdout</text>
<text text-anchor="middle" x="224.5" y="-151" font-family="Helvetica,sans-Serif" font-size="10.00">_sink_base&lt; ConsoleMutex &gt;</text>
</a>
</g>
</g>
<!-- Node0&#45;&gt;Node23 -->
<g id="edge154_Node000000_Node000023" class="edge">
<title>Node0&#45;&gt;Node23</title>
<g id="a_edge154_Node000000_Node000023"><a xlink:title=" ">
<path fill="none" stroke="#63b8ff" d="M62.76,-535.64C92.04,-467.04 190.52,-236.28 216.93,-174.39"/>
<polygon fill="#63b8ff" stroke="#63b8ff" points="59.38,-534.64 58.68,-545.21 65.82,-537.39 59.38,-534.64"/>
</a>
</g>
</g>
<!-- Node26 -->
<g id="Node000026" class="node">
<title>Node26</title>
<g id="a_Node000026"><a xlink:href="classspdlog_1_1sinks_1_1wincolor__sink.html" target="_top" xlink:title=" ">
<polygon fill="white" stroke="#666666" points="291.5,-78 157.5,-78 157.5,-48 291.5,-48 291.5,-78"/>
<text text-anchor="start" x="165.5" y="-66" font-family="Helvetica,sans-Serif" font-size="10.00">spdlog::sinks::wincolor</text>
<text text-anchor="middle" x="224.5" y="-55" font-family="Helvetica,sans-Serif" font-size="10.00">_sink&lt; ConsoleMutex &gt;</text>
</a>
</g>
</g>
<!-- Node0&#45;&gt;Node26 -->
<g id="edge157_Node000000_Node000026" class="edge">
<title>Node0&#45;&gt;Node26</title>
<g id="a_edge157_Node000000_Node000026"><a xlink:title=" ">
<path fill="none" stroke="#63b8ff" d="M54.42,-535.26C55.02,-472.34 63.45,-272.54 143,-135 156.8,-111.14 181.29,-90.94 199.65,-78.07"/>
<polygon fill="#63b8ff" stroke="#63b8ff" points="50.92,-535.36 54.39,-545.37 57.92,-535.39 50.92,-535.36"/>
</a>
</g>
</g>
<!-- Node2 -->
<g id="Node000002" class="node">
<title>Node2</title>
<g id="a_Node000002"><a xlink:href="classfailing__sink.html" target="_top" xlink:title=" ">
<polygon fill="white" stroke="#666666" points="463.5,-1063.5 390.5,-1063.5 390.5,-1044.5 463.5,-1044.5 463.5,-1063.5"/>
<text text-anchor="middle" x="427" y="-1051.5" font-family="Helvetica,sans-Serif" font-size="10.00">failing_sink</text>
</a>
</g>
</g>
<!-- Node1&#45;&gt;Node2 -->
<g id="edge133_Node000001_Node000002" class="edge">
<title>Node1&#45;&gt;Node2</title>
<g id="a_edge133_Node000001_Node000002"><a xlink:title=" ">
<path fill="none" stroke="#63b8ff" d="M293.58,-1039.47C326.06,-1043.03 363.6,-1047.15 390.39,-1050.09"/>
<polygon fill="#63b8ff" stroke="#63b8ff" points="293.55,-1035.95 283.22,-1038.33 292.78,-1042.9 293.55,-1035.95"/>
</a>
</g>
</g>
<!-- Node4 -->
<g id="Node000004" class="node">
<title>Node4</title>
<g id="a_Node000004"><a xlink:href="classspdlog_1_1sinks_1_1ansicolor__stderr__sink.html" target="_top" xlink:title=" ">
<polygon fill="white" stroke="#666666" points="511,-1026 343,-1026 343,-996 511,-996 511,-1026"/>
<text text-anchor="start" x="351" y="-1014" font-family="Helvetica,sans-Serif" font-size="10.00">spdlog::sinks::ansicolor</text>
<text text-anchor="middle" x="427" y="-1003" font-family="Helvetica,sans-Serif" font-size="10.00">_stderr_sink&lt; ConsoleMutex &gt;</text>
</a>
</g>
</g>
<!-- Node3&#45;&gt;Node4 -->
<g id="edge135_Node000003_Node000004" class="edge">
<title>Node3&#45;&gt;Node4</title>
<g id="a_edge135_Node000003_Node000004"><a xlink:title=" ">
<path fill="none" stroke="#63b8ff" d="M298.36,-980.44C319.65,-985.54 342.73,-991.07 363.33,-996"/>
<polygon fill="#63b8ff" stroke="#63b8ff" points="298.93,-976.98 288.39,-978.06 297.3,-983.79 298.93,-976.98"/>
</a>
</g>
</g>
<!-- Node5 -->
<g id="Node000005" class="node">
<title>Node5</title>
<g id="a_Node000005"><a xlink:href="classspdlog_1_1sinks_1_1ansicolor__stdout__sink.html" target="_top" xlink:title=" ">
<polygon fill="white" stroke="#666666" points="512,-978 342,-978 342,-948 512,-948 512,-978"/>
<text text-anchor="start" x="350" y="-966" font-family="Helvetica,sans-Serif" font-size="10.00">spdlog::sinks::ansicolor</text>
<text text-anchor="middle" x="427" y="-955" font-family="Helvetica,sans-Serif" font-size="10.00">_stdout_sink&lt; ConsoleMutex &gt;</text>
</a>
</g>
</g>
<!-- Node3&#45;&gt;Node5 -->
<g id="edge136_Node000003_Node000005" class="edge">
<title>Node3&#45;&gt;Node5</title>
<g id="a_edge136_Node000003_Node000005"><a xlink:title=" ">
<path fill="none" stroke="#63b8ff" d="M302.04,-963C315.11,-963 328.74,-963 341.99,-963"/>
<polygon fill="#63b8ff" stroke="#63b8ff" points="301.71,-959.5 291.71,-963 301.71,-966.5 301.71,-959.5"/>
</a>
</g>
</g>
<!-- Node7 -->
<g id="Node000007" class="node">
<title>Node7</title>
<g id="a_Node000007"><a xlink:href="classspdlog_1_1sinks_1_1basic__file__sink.html" target="_top" xlink:title=" ">
<polygon fill="white" stroke="#666666" points="485,-930 369,-930 369,-900 485,-900 485,-930"/>
<text text-anchor="start" x="377" y="-918" font-family="Helvetica,sans-Serif" font-size="10.00">spdlog::sinks::basic</text>
<text text-anchor="middle" x="427" y="-907" font-family="Helvetica,sans-Serif" font-size="10.00">_file_sink&lt; Mutex &gt;</text>
</a>
</g>
</g>
<!-- Node6&#45;&gt;Node7 -->
<g id="edge138_Node000006_Node000007" class="edge">
<title>Node6&#45;&gt;Node7</title>
<g id="a_edge138_Node000006_Node000007"><a xlink:title=" ">
<path fill="none" stroke="#63b8ff" d="M226.66,-580.46C230.9,-642.85 250.61,-804.54 342,-891 349.49,-898.09 358.93,-903.1 368.75,-906.65"/>
<polygon fill="#63b8ff" stroke="#63b8ff" points="230.14,-580.11 226.05,-570.33 223.15,-580.53 230.14,-580.11"/>
</a>
</g>
</g>
<!-- Node8 -->
<g id="Node000008" class="node">
<title>Node8</title>
<g id="a_Node000008"><a xlink:href="classspdlog_1_1sinks_1_1daily__file__sink.html" target="_top" xlink:title=" ">
<polygon fill="white" stroke="#666666" points="505.5,-881.5 348.5,-881.5 348.5,-840.5 505.5,-840.5 505.5,-881.5"/>
<text text-anchor="start" x="356.5" y="-869.5" font-family="Helvetica,sans-Serif" font-size="10.00">spdlog::sinks::daily</text>
<text text-anchor="start" x="356.5" y="-858.5" font-family="Helvetica,sans-Serif" font-size="10.00">_file_sink&lt; Mutex, FileName</text>
<text text-anchor="middle" x="427" y="-847.5" font-family="Helvetica,sans-Serif" font-size="10.00">Calc &gt;</text>
</a>
</g>
</g>
<!-- Node6&#45;&gt;Node8 -->
<g id="edge139_Node000006_Node000008" class="edge">
<title>Node6&#45;&gt;Node8</title>
<g id="a_edge139_Node000006_Node000008"><a xlink:title=" ">
<path fill="none" stroke="#63b8ff" d="M229.22,-580.3C238.43,-634.01 267.21,-760.31 342,-831 345.71,-834.51 349.87,-837.61 354.28,-840.36"/>
<polygon fill="#63b8ff" stroke="#63b8ff" points="232.65,-579.58 227.59,-570.27 225.74,-580.7 232.65,-579.58"/>
</a>
</g>
</g>
<!-- Node9 -->
<g id="Node000009" class="node">
<title>Node9</title>
<g id="a_Node000009"><a xlink:href="classspdlog_1_1sinks_1_1dist__sink.html" target="_top" xlink:title=" ">
<polygon fill="white" stroke="#666666" points="479,-822 375,-822 375,-792 479,-792 479,-822"/>
<text text-anchor="start" x="383" y="-810" font-family="Helvetica,sans-Serif" font-size="10.00">spdlog::sinks::dist</text>
<text text-anchor="middle" x="427" y="-799" font-family="Helvetica,sans-Serif" font-size="10.00">_sink&lt; Mutex &gt;</text>
</a>
</g>
</g>
<!-- Node6&#45;&gt;Node9 -->
<g id="edge140_Node000006_Node000009" class="edge">
<title>Node6&#45;&gt;Node9</title>
<g id="a_edge140_Node000006_Node000009"><a xlink:title=" ">
<path fill="none" stroke="#63b8ff" d="M231.25,-580.09C243.34,-627.11 275.91,-728.64 342,-783 351.37,-790.71 363.09,-795.94 374.77,-799.5"/>
<polygon fill="#63b8ff" stroke="#63b8ff" points="234.59,-579.01 228.79,-570.14 227.79,-580.69 234.59,-579.01"/>
</a>
</g>
</g>
<!-- Node11 -->
<g id="Node000011" class="node">
<title>Node11</title>
<g id="a_Node000011"><a xlink:href="classspdlog_1_1sinks_1_1hourly__file__sink.html" target="_top" xlink:title=" ">
<polygon fill="white" stroke="#666666" points="505.5,-773.5 348.5,-773.5 348.5,-732.5 505.5,-732.5 505.5,-773.5"/>
<text text-anchor="start" x="356.5" y="-761.5" font-family="Helvetica,sans-Serif" font-size="10.00">spdlog::sinks::hourly</text>
<text text-anchor="start" x="356.5" y="-750.5" font-family="Helvetica,sans-Serif" font-size="10.00">_file_sink&lt; Mutex, FileName</text>
<text text-anchor="middle" x="427" y="-739.5" font-family="Helvetica,sans-Serif" font-size="10.00">Calc &gt;</text>
</a>
</g>
</g>
<!-- Node6&#45;&gt;Node11 -->
<g id="edge142_Node000006_Node000011" class="edge">
<title>Node6&#45;&gt;Node11</title>
<g id="a_edge142_Node000006_Node000011"><a xlink:title=" ">
<path fill="none" stroke="#63b8ff" d="M236.51,-579.76C253.89,-616.14 291.01,-683.93 342,-723 346.55,-726.48 351.54,-729.59 356.74,-732.35"/>
<polygon fill="#63b8ff" stroke="#63b8ff" points="239.54,-577.97 232.14,-570.38 233.19,-580.92 239.54,-577.97"/>
</a>
</g>
</g>
<!-- Node12 -->
<g id="Node000012" class="node">
<title>Node12</title>
<g id="a_Node000012"><a xlink:href="classspdlog_1_1sinks_1_1mongo__sink.html" target="_top" xlink:title=" ">
<polygon fill="white" stroke="#666666" points="487,-714 367,-714 367,-684 487,-684 487,-714"/>
<text text-anchor="start" x="375" y="-702" font-family="Helvetica,sans-Serif" font-size="10.00">spdlog::sinks::mongo</text>
<text text-anchor="middle" x="427" y="-691" font-family="Helvetica,sans-Serif" font-size="10.00">_sink&lt; Mutex &gt;</text>
</a>
</g>
</g>
<!-- Node6&#45;&gt;Node12 -->
<g id="edge143_Node000006_Node000012" class="edge">
<title>Node6&#45;&gt;Node12</title>
<g id="a_edge143_Node000006_Node000012"><a xlink:title=" ">
<path fill="none" stroke="#63b8ff" d="M242.23,-578.55C262.72,-605.71 299.96,-649.84 342,-675 349.68,-679.59 358.28,-683.35 366.97,-686.4"/>
<polygon fill="#63b8ff" stroke="#63b8ff" points="244.94,-576.33 236.17,-570.38 239.31,-580.5 244.94,-576.33"/>
</a>
</g>
</g>
<!-- Node13 -->
<g id="Node000013" class="node">
<title>Node13</title>
<g id="a_Node000013"><a xlink:href="classspdlog_1_1sinks_1_1null__sink.html" target="_top" xlink:title=" ">
<polygon fill="white" stroke="#666666" points="479,-666 375,-666 375,-636 479,-636 479,-666"/>
<text text-anchor="start" x="383" y="-654" font-family="Helvetica,sans-Serif" font-size="10.00">spdlog::sinks::null</text>
<text text-anchor="middle" x="427" y="-643" font-family="Helvetica,sans-Serif" font-size="10.00">_sink&lt; Mutex &gt;</text>
</a>
</g>
</g>
<!-- Node6&#45;&gt;Node13 -->
<g id="edge144_Node000006_Node000013" class="edge">
<title>Node6&#45;&gt;Node13</title>
<g id="a_edge144_Node000006_Node000013"><a xlink:title=" ">
<path fill="none" stroke="#63b8ff" d="M254.23,-575.88C277.08,-591.7 310.37,-613.03 342,-627 352.27,-631.53 363.62,-635.45 374.57,-638.73"/>
<polygon fill="#63b8ff" stroke="#63b8ff" points="256.2,-572.98 246,-570.11 252.18,-578.72 256.2,-572.98"/>
</a>
</g>
</g>
<!-- Node14 -->
<g id="Node000014" class="node">
<title>Node14</title>
<g id="a_Node000014"><a xlink:href="classspdlog_1_1sinks_1_1ostream__sink.html" target="_top" xlink:title=" ">
<polygon fill="white" stroke="#666666" points="490.5,-618 363.5,-618 363.5,-588 490.5,-588 490.5,-618"/>
<text text-anchor="start" x="371.5" y="-606" font-family="Helvetica,sans-Serif" font-size="10.00">spdlog::sinks::ostream</text>
<text text-anchor="middle" x="427" y="-595" font-family="Helvetica,sans-Serif" font-size="10.00">_sink&lt; Mutex &gt;</text>
</a>
</g>
</g>
<!-- Node6&#45;&gt;Node14 -->
<g id="edge145_Node000006_Node000014" class="edge">
<title>Node6&#45;&gt;Node14</title>
<g id="a_edge145_Node000006_Node000014"><a xlink:title=" ">
<path fill="none" stroke="#63b8ff" d="M289.64,-570.35C313.17,-575.99 339.76,-582.35 363.18,-587.96"/>
<polygon fill="#63b8ff" stroke="#63b8ff" points="290.3,-566.91 279.76,-567.99 288.67,-573.72 290.3,-566.91"/>
</a>
</g>
</g>
<!-- Node15 -->
<g id="Node000015" class="node">
<title>Node15</title>
<g id="a_Node000015"><a xlink:href="classspdlog_1_1sinks_1_1qt__sink.html" target="_top" xlink:title=" ">
<polygon fill="white" stroke="#666666" points="488,-570 366,-570 366,-540 488,-540 488,-570"/>
<text text-anchor="start" x="374" y="-558" font-family="Helvetica,sans-Serif" font-size="10.00">spdlog::sinks::qt_sink</text>
<text text-anchor="middle" x="427" y="-547" font-family="Helvetica,sans-Serif" font-size="10.00">&lt; Mutex &gt;</text>
</a>
</g>
</g>
<!-- Node6&#45;&gt;Node15 -->
<g id="edge146_Node000006_Node000015" class="edge">
<title>Node6&#45;&gt;Node15</title>
<g id="a_edge146_Node000006_Node000015"><a xlink:title=" ">
<path fill="none" stroke="#63b8ff" d="M289.96,-555C314.26,-555 341.79,-555 365.7,-555"/>
<polygon fill="#63b8ff" stroke="#63b8ff" points="289.76,-551.5 279.76,-555 289.76,-558.5 289.76,-551.5"/>
</a>
</g>
</g>
<!-- Node16 -->
<g id="Node000016" class="node">
<title>Node16</title>
<g id="a_Node000016"><a xlink:href="classspdlog_1_1sinks_1_1ringbuffer__sink.html" target="_top" xlink:title=" ">
<polygon fill="white" stroke="#666666" points="494,-522 360,-522 360,-492 494,-492 494,-522"/>
<text text-anchor="start" x="368" y="-510" font-family="Helvetica,sans-Serif" font-size="10.00">spdlog::sinks::ringbuffer</text>
<text text-anchor="middle" x="427" y="-499" font-family="Helvetica,sans-Serif" font-size="10.00">_sink&lt; Mutex &gt;</text>
</a>
</g>
</g>
<!-- Node6&#45;&gt;Node16 -->
<g id="edge147_Node000006_Node000016" class="edge">
<title>Node6&#45;&gt;Node16</title>
<g id="a_edge147_Node000006_Node000016"><a xlink:title=" ">
<path fill="none" stroke="#63b8ff" d="M289.64,-539.65C313.17,-534.01 339.76,-527.65 363.18,-522.04"/>
<polygon fill="#63b8ff" stroke="#63b8ff" points="288.67,-536.28 279.76,-542.01 290.3,-543.09 288.67,-536.28"/>
</a>
</g>
</g>
<!-- Node17 -->
<g id="Node000017" class="node">
<title>Node17</title>
<g id="a_Node000017"><a xlink:href="classspdlog_1_1sinks_1_1rotating__file__sink.html" target="_top" xlink:title=" ">
<polygon fill="white" stroke="#666666" points="489.5,-474 364.5,-474 364.5,-444 489.5,-444 489.5,-474"/>
<text text-anchor="start" x="372.5" y="-462" font-family="Helvetica,sans-Serif" font-size="10.00">spdlog::sinks::rotating</text>
<text text-anchor="middle" x="427" y="-451" font-family="Helvetica,sans-Serif" font-size="10.00">_file_sink&lt; Mutex &gt;</text>
</a>
</g>
</g>
<!-- Node6&#45;&gt;Node17 -->
<g id="edge148_Node000006_Node000017" class="edge">
<title>Node6&#45;&gt;Node17</title>
<g id="a_edge148_Node000006_Node000017"><a xlink:title=" ">
<path fill="none" stroke="#63b8ff" d="M254.23,-534.12C277.08,-518.3 310.37,-496.97 342,-483 349.49,-479.69 357.56,-476.71 365.63,-474.07"/>
<polygon fill="#63b8ff" stroke="#63b8ff" points="252.18,-531.28 246,-539.89 256.2,-537.02 252.18,-531.28"/>
</a>
</g>
</g>
<!-- Node18 -->
<g id="Node000018" class="node">
<title>Node18</title>
<g id="a_Node000018"><a xlink:href="classspdlog_1_1sinks_1_1syslog__sink.html" target="_top" xlink:title=" ">
<polygon fill="white" stroke="#666666" points="486,-426 368,-426 368,-396 486,-396 486,-426"/>
<text text-anchor="start" x="376" y="-414" font-family="Helvetica,sans-Serif" font-size="10.00">spdlog::sinks::syslog</text>
<text text-anchor="middle" x="427" y="-403" font-family="Helvetica,sans-Serif" font-size="10.00">_sink&lt; Mutex &gt;</text>
</a>
</g>
</g>
<!-- Node6&#45;&gt;Node18 -->
<g id="edge149_Node000006_Node000018" class="edge">
<title>Node6&#45;&gt;Node18</title>
<g id="a_edge149_Node000006_Node000018"><a xlink:title=" ">
<path fill="none" stroke="#63b8ff" d="M242.23,-531.45C262.72,-504.29 299.96,-460.16 342,-435 349.94,-430.25 358.86,-426.4 367.85,-423.29"/>
<polygon fill="#63b8ff" stroke="#63b8ff" points="239.31,-529.5 236.17,-539.62 244.94,-533.67 239.31,-529.5"/>
</a>
</g>
</g>
<!-- Node19 -->
<g id="Node000019" class="node">
<title>Node19</title>
<g id="a_Node000019"><a xlink:href="classspdlog_1_1sinks_1_1systemd__sink.html" target="_top" xlink:title=" ">
<polygon fill="white" stroke="#666666" points="491,-378 363,-378 363,-348 491,-348 491,-378"/>
<text text-anchor="start" x="371" y="-366" font-family="Helvetica,sans-Serif" font-size="10.00">spdlog::sinks::systemd</text>
<text text-anchor="middle" x="427" y="-355" font-family="Helvetica,sans-Serif" font-size="10.00">_sink&lt; Mutex &gt;</text>
</a>
</g>
</g>
<!-- Node6&#45;&gt;Node19 -->
<g id="edge150_Node000006_Node000019" class="edge">
<title>Node6&#45;&gt;Node19</title>
<g id="a_edge150_Node000006_Node000019"><a xlink:title=" ">
<path fill="none" stroke="#63b8ff" d="M235.94,-530.37C252.79,-493.58 289.51,-424.59 342,-387 348.29,-382.5 355.41,-378.84 362.77,-375.86"/>
<polygon fill="#63b8ff" stroke="#63b8ff" points="232.59,-529.28 231.71,-539.84 238.98,-532.13 232.59,-529.28"/>
</a>
</g>
</g>
<!-- Node20 -->
<g id="Node000020" class="node">
<title>Node20</title>
<g id="a_Node000020"><a xlink:href="classspdlog_1_1sinks_1_1tcp__sink.html" target="_top" xlink:title=" ">
<polygon fill="white" stroke="#666666" points="477.5,-330 376.5,-330 376.5,-300 477.5,-300 477.5,-330"/>
<text text-anchor="start" x="384.5" y="-318" font-family="Helvetica,sans-Serif" font-size="10.00">spdlog::sinks::tcp</text>
<text text-anchor="middle" x="427" y="-307" font-family="Helvetica,sans-Serif" font-size="10.00">_sink&lt; Mutex &gt;</text>
</a>
</g>
</g>
<!-- Node6&#45;&gt;Node20 -->
<g id="edge151_Node000006_Node000020" class="edge">
<title>Node6&#45;&gt;Node20</title>
<g id="a_edge151_Node000006_Node000020"><a xlink:title=" ">
<path fill="none" stroke="#63b8ff" d="M232.01,-529.95C245.05,-484.85 278.68,-389.92 342,-339 351.81,-331.11 364.09,-325.82 376.2,-322.26"/>
<polygon fill="#63b8ff" stroke="#63b8ff" points="228.58,-529.22 229.27,-539.79 235.33,-531.1 228.58,-529.22"/>
</a>
</g>
</g>
<!-- Node21 -->
<g id="Node000021" class="node">
<title>Node21</title>
<g id="a_Node000021"><a xlink:href="classspdlog_1_1sinks_1_1test__sink.html" target="_top" xlink:title=" ">
<polygon fill="white" stroke="#666666" points="479.5,-282 374.5,-282 374.5,-252 479.5,-252 479.5,-282"/>
<text text-anchor="start" x="382.5" y="-270" font-family="Helvetica,sans-Serif" font-size="10.00">spdlog::sinks::test</text>
<text text-anchor="middle" x="427" y="-259" font-family="Helvetica,sans-Serif" font-size="10.00">_sink&lt; Mutex &gt;</text>
</a>
</g>
</g>
<!-- Node6&#45;&gt;Node21 -->
<g id="edge152_Node000006_Node000021" class="edge">
<title>Node6&#45;&gt;Node21</title>
<g id="a_edge152_Node000006_Node000021"><a xlink:title=" ">
<path fill="none" stroke="#63b8ff" d="M229.36,-529.72C238.72,-477.21 267.6,-355.83 342,-291 351.15,-283.03 362.78,-277.7 374.45,-274.13"/>
<polygon fill="#63b8ff" stroke="#63b8ff" points="225.86,-529.39 227.65,-539.83 232.76,-530.56 225.86,-529.39"/>
</a>
</g>
</g>
<!-- Node22 -->
<g id="Node000022" class="node">
<title>Node22</title>
<g id="a_Node000022"><a xlink:href="classspdlog_1_1sinks_1_1win__eventlog_1_1win__eventlog__sink.html" target="_top" xlink:title=" ">
<polygon fill="white" stroke="#666666" points="495,-233.5 359,-233.5 359,-192.5 495,-192.5 495,-233.5"/>
<text text-anchor="start" x="367" y="-221.5" font-family="Helvetica,sans-Serif" font-size="10.00">spdlog::sinks::win</text>
<text text-anchor="start" x="367" y="-210.5" font-family="Helvetica,sans-Serif" font-size="10.00">_eventlog::win_eventlog</text>
<text text-anchor="middle" x="427" y="-199.5" font-family="Helvetica,sans-Serif" font-size="10.00">_sink&lt; Mutex &gt;</text>
</a>
</g>
</g>
<!-- Node6&#45;&gt;Node22 -->
<g id="edge153_Node000006_Node000022" class="edge">
<title>Node6&#45;&gt;Node22</title>
<g id="a_edge153_Node000006_Node000022"><a xlink:title=" ">
<path fill="none" stroke="#63b8ff" d="M227.81,-529.73C234.49,-471.14 259.02,-324.79 342,-243 346.96,-238.11 352.78,-234.01 358.99,-230.58"/>
<polygon fill="#63b8ff" stroke="#63b8ff" points="224.3,-529.61 226.73,-539.92 231.26,-530.35 224.3,-529.61"/>
</a>
</g>
</g>
<!-- Node10 -->
<g id="Node000010" class="node">
<title>Node10</title>
<g id="a_Node000010"><a xlink:href="classspdlog_1_1sinks_1_1dup__filter__sink.html" target="_top" xlink:title=" ">
<polygon fill="white" stroke="#666666" points="671,-822 548,-822 548,-792 671,-792 671,-822"/>
<text text-anchor="start" x="556" y="-810" font-family="Helvetica,sans-Serif" font-size="10.00">spdlog::sinks::dup</text>
<text text-anchor="middle" x="609.5" y="-799" font-family="Helvetica,sans-Serif" font-size="10.00">_filter_sink&lt; Mutex &gt;</text>
</a>
</g>
</g>
<!-- Node9&#45;&gt;Node10 -->
<g id="edge141_Node000009_Node000010" class="edge">
<title>Node9&#45;&gt;Node10</title>
<g id="a_edge141_Node000009_Node000010"><a xlink:title=" ">
<path fill="none" stroke="#63b8ff" d="M489.5,-807C508.35,-807 529.07,-807 547.86,-807"/>
<polygon fill="#63b8ff" stroke="#63b8ff" points="489.24,-803.5 479.24,-807 489.24,-810.5 489.24,-803.5"/>
</a>
</g>
</g>
<!-- Node24 -->
<g id="Node000024" class="node">
<title>Node24</title>
<g id="a_Node000024"><a xlink:href="classspdlog_1_1sinks_1_1stderr__sink.html" target="_top" xlink:title=" ">
<polygon fill="white" stroke="#666666" points="494,-174 360,-174 360,-144 494,-144 494,-174"/>
<text text-anchor="start" x="368" y="-162" font-family="Helvetica,sans-Serif" font-size="10.00">spdlog::sinks::stderr</text>
<text text-anchor="middle" x="427" y="-151" font-family="Helvetica,sans-Serif" font-size="10.00">_sink&lt; ConsoleMutex &gt;</text>
</a>
</g>
</g>
<!-- Node23&#45;&gt;Node24 -->
<g id="edge155_Node000023_Node000024" class="edge">
<title>Node23&#45;&gt;Node24</title>
<g id="a_edge155_Node000023_Node000024"><a xlink:title=" ">
<path fill="none" stroke="#63b8ff" d="M316.3,-159C330.99,-159 345.96,-159 359.92,-159"/>
<polygon fill="#63b8ff" stroke="#63b8ff" points="316.18,-155.5 306.18,-159 316.18,-162.5 316.18,-155.5"/>
</a>
</g>
</g>
<!-- Node25 -->
<g id="Node000025" class="node">
<title>Node25</title>
<g id="a_Node000025"><a xlink:href="classspdlog_1_1sinks_1_1stdout__sink.html" target="_top" xlink:title=" ">
<polygon fill="white" stroke="#666666" points="494,-126 360,-126 360,-96 494,-96 494,-126"/>
<text text-anchor="start" x="368" y="-114" font-family="Helvetica,sans-Serif" font-size="10.00">spdlog::sinks::stdout</text>
<text text-anchor="middle" x="427" y="-103" font-family="Helvetica,sans-Serif" font-size="10.00">_sink&lt; ConsoleMutex &gt;</text>
</a>
</g>
</g>
<!-- Node23&#45;&gt;Node25 -->
<g id="edge156_Node000023_Node000025" class="edge">
<title>Node23&#45;&gt;Node25</title>
<g id="a_edge156_Node000023_Node000025"><a xlink:title=" ">
<path fill="none" stroke="#63b8ff" d="M298.36,-141.56C319.65,-136.46 342.73,-130.93 363.33,-126"/>
<polygon fill="#63b8ff" stroke="#63b8ff" points="297.3,-138.21 288.39,-143.94 298.93,-145.02 297.3,-138.21"/>
</a>
</g>
</g>
<!-- Node27 -->
<g id="Node000027" class="node">
<title>Node27</title>
<g id="a_Node000027"><a xlink:href="classspdlog_1_1sinks_1_1wincolor__stderr__sink.html" target="_top" xlink:title=" ">
<polygon fill="white" stroke="#666666" points="511,-78 343,-78 343,-48 511,-48 511,-78"/>
<text text-anchor="start" x="351" y="-66" font-family="Helvetica,sans-Serif" font-size="10.00">spdlog::sinks::wincolor</text>
<text text-anchor="middle" x="427" y="-55" font-family="Helvetica,sans-Serif" font-size="10.00">_stderr_sink&lt; ConsoleMutex &gt;</text>
</a>
</g>
</g>
<!-- Node26&#45;&gt;Node27 -->
<g id="edge158_Node000026_Node000027" class="edge">
<title>Node26&#45;&gt;Node27</title>
<g id="a_edge158_Node000026_Node000027"><a xlink:title=" ">
<path fill="none" stroke="#63b8ff" d="M301.8,-63C315.17,-63 329.15,-63 342.7,-63"/>
<polygon fill="#63b8ff" stroke="#63b8ff" points="301.71,-59.5 291.71,-63 301.71,-66.5 301.71,-59.5"/>
</a>
</g>
</g>
<!-- Node28 -->
<g id="Node000028" class="node">
<title>Node28</title>
<g id="a_Node000028"><a xlink:href="classspdlog_1_1sinks_1_1wincolor__stdout__sink.html" target="_top" xlink:title=" ">
<polygon fill="white" stroke="#666666" points="512,-30 342,-30 342,0 512,0 512,-30"/>
<text text-anchor="start" x="350" y="-18" font-family="Helvetica,sans-Serif" font-size="10.00">spdlog::sinks::wincolor</text>
<text text-anchor="middle" x="427" y="-7" font-family="Helvetica,sans-Serif" font-size="10.00">_stdout_sink&lt; ConsoleMutex &gt;</text>
</a>
</g>
</g>
<!-- Node26&#45;&gt;Node28 -->
<g id="edge159_Node000026_Node000028" class="edge">
<title>Node26&#45;&gt;Node28</title>
<g id="a_edge159_Node000026_Node000028"><a xlink:title=" ">
<path fill="none" stroke="#63b8ff" d="M298.36,-45.56C319.65,-40.46 342.73,-34.93 363.33,-30"/>
<polygon fill="#63b8ff" stroke="#63b8ff" points="297.3,-42.21 288.39,-47.94 298.93,-49.02 297.3,-42.21"/>
</a>
</g>
</g>
</g>
</svg>
