<?xml version="1.0" encoding="UTF-8" standalone="no"?>
<!DOCTYPE svg PUBLIC "-//W3C//DTD SVG 1.1//EN"
 "http://www.w3.org/Graphics/SVG/1.1/DTD/svg11.dtd">
<!-- Generated by graphviz version 2.43.0 (0)
 -->
<!-- Title: Graphical Class Hierarchy Pages: 1 -->
<svg width="323pt" height="108pt"
 viewBox="0.00 0.00 323.00 108.00" xmlns="http://www.w3.org/2000/svg" xmlns:xlink="http://www.w3.org/1999/xlink">
<g id="graph0" class="graph" transform="scale(1 1) rotate(0) translate(4 104)">
<title>Graphical Class Hierarchy</title>
<!-- Node0 -->
<g id="Node000000" class="node">
<title>Node0</title>
<g id="a_Node000000"><a xlink:href="structformatter.html" target="_top" xlink:title=" ">
<polygon fill="white" stroke="#666666" points="133,-59 0,-59 0,-29 133,-29 133,-59"/>
<text text-anchor="start" x="8" y="-47" font-family="Helvetica,sans-Serif" font-size="10.00">formatter&lt; basic_string</text>
<text text-anchor="middle" x="66.5" y="-36" font-family="Helvetica,sans-Serif" font-size="10.00">_view&lt; Char &gt;, Char &gt;</text>
</a>
</g>
</g>
<!-- Node1 -->
<g id="Node000001" class="node">
<title>Node1</title>
<g id="a_Node000001"><a xlink:href="structdetail_1_1fallback__formatter_3_01T_00_01Char_00_01enable__if__t_3_01is__streamable_3_01T_70fb5240ebb5f83009cdb1627fa42087.html" target="_top" xlink:title=" ">
<polygon fill="white" stroke="#666666" points="315,-100 169,-100 169,-48 315,-48 315,-100"/>
<text text-anchor="start" x="177" y="-88" font-family="Helvetica,sans-Serif" font-size="10.00">detail::fallback_formatter</text>
<text text-anchor="start" x="177" y="-77" font-family="Helvetica,sans-Serif" font-size="10.00">&lt; T, Char, enable_if_t&lt;</text>
<text text-anchor="start" x="177" y="-66" font-family="Helvetica,sans-Serif" font-size="10.00"> is_streamable&lt; T, Char &gt;</text>
<text text-anchor="middle" x="242" y="-55" font-family="Helvetica,sans-Serif" font-size="10.00">::value &gt; &gt;</text>
</a>
</g>
</g>
<!-- Node0&#45;&gt;Node1 -->
<g id="edge79_Node000000_Node000001" class="edge">
<title>Node0&#45;&gt;Node1</title>
<g id="a_edge79_Node000000_Node000001"><a xlink:title=" ">
<path fill="none" stroke="#8b1a1a" d="M143.08,-57.07C151.66,-58.55 160.4,-60.06 168.93,-61.54"/>
<polygon fill="#8b1a1a" stroke="#8b1a1a" points="143.54,-53.6 133.09,-55.34 142.35,-60.49 143.54,-53.6"/>
</a>
</g>
</g>
<!-- Node2 -->
<g id="Node000002" class="node">
<title>Node2</title>
<g id="a_Node000002"><a xlink:href="structformatter_3_01Char_0fN_0e_00_01Char_01_4.html" target="_top" xlink:title=" ">
<polygon fill="white" stroke="#666666" points="299.5,-30 184.5,-30 184.5,0 299.5,0 299.5,-30"/>
<text text-anchor="start" x="192.5" y="-18" font-family="Helvetica,sans-Serif" font-size="10.00">formatter&lt; Char[N],</text>
<text text-anchor="middle" x="242" y="-7" font-family="Helvetica,sans-Serif" font-size="10.00"> Char &gt;</text>
</a>
</g>
</g>
<!-- Node0&#45;&gt;Node2 -->
<g id="edge80_Node000000_Node000002" class="edge">
<title>Node0&#45;&gt;Node2</title>
<g id="a_edge80_Node000000_Node000002"><a xlink:title=" ">
<path fill="none" stroke="#63b8ff" d="M143.1,-31.36C156.96,-29.05 171.21,-26.66 184.4,-24.46"/>
<polygon fill="#63b8ff" stroke="#63b8ff" points="142.38,-27.94 133.09,-33.04 143.53,-34.84 142.38,-27.94"/>
</a>
</g>
</g>
</g>
</svg>
