<?xml version="1.0" encoding="UTF-8" standalone="no"?>
<!DOCTYPE svg PUBLIC "-//W3C//DTD SVG 1.1//EN"
 "http://www.w3.org/Graphics/SVG/1.1/DTD/svg11.dtd">
<!-- Generated by graphviz version 2.43.0 (0)
 -->
<!-- Title: Graphical Class Hierarchy Pages: 1 -->
<svg width="311pt" height="1152pt"
 viewBox="0.00 0.00 311.00 1151.50" xmlns="http://www.w3.org/2000/svg" xmlns:xlink="http://www.w3.org/1999/xlink">
<g id="graph0" class="graph" transform="scale(1 1) rotate(0) translate(4 1147.5)">
<title>Graphical Class Hierarchy</title>
<!-- Node0 -->
<g id="Node000000" class="node">
<title>Node0</title>
<g id="a_Node000000"><a target="_parent" xlink:href="http://en.cppreference.com/w/cpp/types/integral_constant.html" xlink:title=" ">
<polygon fill="white" stroke="#666666" points="84,-493.5 0,-493.5 0,-474.5 84,-474.5 84,-493.5"/>
<text text-anchor="middle" x="42" y="-481.5" font-family="Helvetica,sans-Serif" font-size="10.00">std::true_type</text>
</a>
</g>
</g>
<!-- Node1 -->
<g id="Node000001" class="node">
<title>Node1</title>
<g id="a_Node000001"><a xlink:href="structCatch_1_1is__unique.html" target="_top" xlink:title=" ">
<polygon fill="white" stroke="#666666" points="274,-1143.5 149,-1143.5 149,-1124.5 274,-1124.5 274,-1143.5"/>
<text text-anchor="middle" x="211.5" y="-1131.5" font-family="Helvetica,sans-Serif" font-size="10.00">Catch::is_unique&lt;... &gt;</text>
</a>
</g>
</g>
<!-- Node0&#45;&gt;Node1 -->
<g id="edge197_Node000000_Node000001" class="edge">
<title>Node0&#45;&gt;Node1</title>
<g id="a_edge197_Node000000_Node000001"><a xlink:title=" ">
<path fill="none" stroke="#63b8ff" d="M44.04,-503.74C49.62,-605.71 77.21,-1069.86 120,-1116 127.63,-1124.22 137.85,-1129.29 148.68,-1132.32"/>
<polygon fill="#63b8ff" stroke="#63b8ff" points="47.53,-503.41 43.5,-493.61 40.54,-503.78 47.53,-503.41"/>
</a>
</g>
</g>
<!-- Node2 -->
<g id="Node000002" class="node">
<title>Node2</title>
<g id="a_Node000002"><a xlink:href="structdetail_1_1has__const__begin__end_3_01T_00_01void__t_3_01decltype_07detail_1_1range__begin_27094f48719c379b9775948340277c3e.html" target="_top" xlink:title=" ">
<polygon fill="white" stroke="#666666" points="302,-1106.5 121,-1106.5 121,-1021.5 302,-1021.5 302,-1106.5"/>
<text text-anchor="start" x="129" y="-1094.5" font-family="Helvetica,sans-Serif" font-size="10.00">detail::has_const_begin</text>
<text text-anchor="start" x="129" y="-1083.5" font-family="Helvetica,sans-Serif" font-size="10.00">_end&lt; T, void_t&lt; decltype</text>
<text text-anchor="start" x="129" y="-1072.5" font-family="Helvetica,sans-Serif" font-size="10.00">(detail::range_begin(std</text>
<text text-anchor="start" x="129" y="-1061.5" font-family="Helvetica,sans-Serif" font-size="10.00">::declval&lt; const remove_cvref</text>
<text text-anchor="start" x="129" y="-1050.5" font-family="Helvetica,sans-Serif" font-size="10.00">_t&lt; T &gt; &amp; &gt;())), decltype(detail</text>
<text text-anchor="start" x="129" y="-1039.5" font-family="Helvetica,sans-Serif" font-size="10.00">::range_begin(std::declval&lt; const</text>
<text text-anchor="middle" x="211.5" y="-1028.5" font-family="Helvetica,sans-Serif" font-size="10.00"> remove_cvref_t&lt; T &gt; &amp; &gt;()))&gt; &gt;</text>
</a>
</g>
</g>
<!-- Node0&#45;&gt;Node2 -->
<g id="edge198_Node000000_Node000002" class="edge">
<title>Node0&#45;&gt;Node2</title>
<g id="a_edge198_Node000000_Node000002"><a xlink:title=" ">
<path fill="none" stroke="#63b8ff" d="M43.62,-504.08C46.63,-590.05 61.99,-926.67 120,-1012 122.24,-1015.3 124.77,-1018.41 127.51,-1021.35"/>
<polygon fill="#63b8ff" stroke="#63b8ff" points="47.11,-503.74 43.28,-493.86 40.12,-503.97 47.11,-503.74"/>
</a>
</g>
</g>
<!-- Node3 -->
<g id="Node000003" class="node">
<title>Node3</title>
<g id="a_Node000003"><a xlink:href="structdetail_1_1has__member__fn__begin__end__t_3_01T_00_01void__t_3_01decltype_07std_1_1declval_7bfaf74b5a50caef111e70a0e029c9dc.html" target="_top" xlink:title=" ">
<polygon fill="white" stroke="#666666" points="279.5,-1003 143.5,-1003 143.5,-929 279.5,-929 279.5,-1003"/>
<text text-anchor="start" x="151.5" y="-991" font-family="Helvetica,sans-Serif" font-size="10.00">detail::has_member</text>
<text text-anchor="start" x="151.5" y="-980" font-family="Helvetica,sans-Serif" font-size="10.00">_fn_begin_end_t&lt; T,</text>
<text text-anchor="start" x="151.5" y="-969" font-family="Helvetica,sans-Serif" font-size="10.00"> void_t&lt; decltype(std</text>
<text text-anchor="start" x="151.5" y="-958" font-family="Helvetica,sans-Serif" font-size="10.00">::declval&lt; T &gt;().begin</text>
<text text-anchor="start" x="151.5" y="-947" font-family="Helvetica,sans-Serif" font-size="10.00">()), decltype(std::declval</text>
<text text-anchor="middle" x="211.5" y="-936" font-family="Helvetica,sans-Serif" font-size="10.00">&lt; T &gt;().end())&gt; &gt;</text>
</a>
</g>
</g>
<!-- Node0&#45;&gt;Node3 -->
<g id="edge199_Node000000_Node000003" class="edge">
<title>Node0&#45;&gt;Node3</title>
<g id="a_edge199_Node000000_Node000003"><a xlink:title=" ">
<path fill="none" stroke="#63b8ff" d="M44.17,-503.7C49.03,-579.59 69.73,-852.15 120,-920 126.19,-928.36 134.33,-935.3 143.2,-941.05"/>
<polygon fill="#63b8ff" stroke="#63b8ff" points="47.66,-503.39 43.55,-493.62 40.67,-503.82 47.66,-503.39"/>
</a>
</g>
</g>
<!-- Node4 -->
<g id="Node000004" class="node">
<title>Node4</title>
<g id="a_Node000004"><a xlink:href="structdetail_1_1has__mutable__begin__end_3_01T_00_01void__t_3_01decltype_07detail_1_1range__begi169586f4f2ce3d97cec0d8f88181ab72.html" target="_top" xlink:title=" ">
<polygon fill="white" stroke="#666666" points="289.5,-910.5 133.5,-910.5 133.5,-803.5 289.5,-803.5 289.5,-910.5"/>
<text text-anchor="start" x="141.5" y="-898.5" font-family="Helvetica,sans-Serif" font-size="10.00">detail::has_mutable</text>
<text text-anchor="start" x="141.5" y="-887.5" font-family="Helvetica,sans-Serif" font-size="10.00">_begin_end&lt; T, void</text>
<text text-anchor="start" x="141.5" y="-876.5" font-family="Helvetica,sans-Serif" font-size="10.00">_t&lt; decltype(detail::</text>
<text text-anchor="start" x="141.5" y="-865.5" font-family="Helvetica,sans-Serif" font-size="10.00">range_begin(std::declval</text>
<text text-anchor="start" x="141.5" y="-854.5" font-family="Helvetica,sans-Serif" font-size="10.00">&lt; T &gt;())), decltype(detail</text>
<text text-anchor="start" x="141.5" y="-843.5" font-family="Helvetica,sans-Serif" font-size="10.00">::range_begin(std::declval</text>
<text text-anchor="start" x="141.5" y="-832.5" font-family="Helvetica,sans-Serif" font-size="10.00">&lt; T &gt;())), enable_if_t&lt; std</text>
<text text-anchor="start" x="141.5" y="-821.5" font-family="Helvetica,sans-Serif" font-size="10.00">::is_copy_constructible&lt; T &gt;</text>
<text text-anchor="middle" x="211.5" y="-810.5" font-family="Helvetica,sans-Serif" font-size="10.00">::value &gt; &gt; &gt;</text>
</a>
</g>
</g>
<!-- Node0&#45;&gt;Node4 -->
<g id="edge200_Node000000_Node000004" class="edge">
<title>Node0&#45;&gt;Node4</title>
<g id="a_edge200_Node000000_Node000004"><a xlink:title=" ">
<path fill="none" stroke="#63b8ff" d="M43.18,-503.88C44.59,-556.3 54.57,-700.67 120,-795 123.8,-800.48 128.25,-805.62 133.11,-810.41"/>
<polygon fill="#63b8ff" stroke="#63b8ff" points="46.68,-503.56 42.99,-493.63 39.68,-503.7 46.68,-503.56"/>
</a>
</g>
</g>
<!-- Node5 -->
<g id="Node000005" class="node">
<title>Node5</title>
<g id="a_Node000005"><a xlink:href="structdetail_1_1is__locale_3_01T_00_01void__t_3_01decltype_07T_1_1classic_07_08_08_4_01_4.html" target="_top" xlink:title=" ">
<polygon fill="white" stroke="#666666" points="269,-785.5 154,-785.5 154,-744.5 269,-744.5 269,-785.5"/>
<text text-anchor="start" x="162" y="-773.5" font-family="Helvetica,sans-Serif" font-size="10.00">detail::is_locale&lt;</text>
<text text-anchor="start" x="162" y="-762.5" font-family="Helvetica,sans-Serif" font-size="10.00"> T, void_t&lt; decltype</text>
<text text-anchor="middle" x="211.5" y="-751.5" font-family="Helvetica,sans-Serif" font-size="10.00">(T::classic())&gt; &gt;</text>
</a>
</g>
</g>
<!-- Node0&#45;&gt;Node5 -->
<g id="edge201_Node000000_Node000005" class="edge">
<title>Node0&#45;&gt;Node5</title>
<g id="a_edge201_Node000000_Node000005"><a xlink:title=" ">
<path fill="none" stroke="#63b8ff" d="M43.15,-503.58C44.6,-550.43 54.85,-669.96 120,-736 129.15,-745.28 141.28,-751.59 153.66,-755.89"/>
<polygon fill="#63b8ff" stroke="#63b8ff" points="46.65,-503.47 42.95,-493.55 39.65,-503.62 46.65,-503.47"/>
</a>
</g>
</g>
<!-- Node6 -->
<g id="Node000006" class="node">
<title>Node6</title>
<g id="a_Node000006"><a xlink:href="structdetail_1_1is__reference__wrapper_3_01std_1_1reference__wrapper_3_01T_01_4_01_4.html" target="_top" xlink:title=" ">
<polygon fill="white" stroke="#666666" points="281.5,-726.5 141.5,-726.5 141.5,-685.5 281.5,-685.5 281.5,-726.5"/>
<text text-anchor="start" x="149.5" y="-714.5" font-family="Helvetica,sans-Serif" font-size="10.00">detail::is_reference</text>
<text text-anchor="start" x="149.5" y="-703.5" font-family="Helvetica,sans-Serif" font-size="10.00">_wrapper&lt; std::reference</text>
<text text-anchor="middle" x="211.5" y="-692.5" font-family="Helvetica,sans-Serif" font-size="10.00">_wrapper&lt; T &gt; &gt;</text>
</a>
</g>
</g>
<!-- Node0&#45;&gt;Node6 -->
<g id="edge202_Node000000_Node000006" class="edge">
<title>Node0&#45;&gt;Node6</title>
<g id="a_edge202_Node000000_Node000006"><a xlink:title=" ">
<path fill="none" stroke="#63b8ff" d="M45.29,-503.61C50.85,-542.35 68.62,-629.07 120,-677 126.15,-682.74 133.45,-687.34 141.18,-691.04"/>
<polygon fill="#63b8ff" stroke="#63b8ff" points="48.75,-503.09 43.98,-493.63 41.81,-504 48.75,-503.09"/>
</a>
</g>
</g>
<!-- Node7 -->
<g id="Node000007" class="node">
<title>Node7</title>
<g id="a_Node000007"><a xlink:href="structdetail_1_1is__std__string__like_3_01fmt_1_1basic__string__view_3_01Char_01_4_01_4.html" target="_top" xlink:title=" ">
<polygon fill="white" stroke="#666666" points="277.5,-667.5 145.5,-667.5 145.5,-626.5 277.5,-626.5 277.5,-667.5"/>
<text text-anchor="start" x="153.5" y="-655.5" font-family="Helvetica,sans-Serif" font-size="10.00">detail::is_std_string</text>
<text text-anchor="start" x="153.5" y="-644.5" font-family="Helvetica,sans-Serif" font-size="10.00">_like&lt; fmt::basic_string</text>
<text text-anchor="middle" x="211.5" y="-633.5" font-family="Helvetica,sans-Serif" font-size="10.00">_view&lt; Char &gt; &gt;</text>
</a>
</g>
</g>
<!-- Node0&#45;&gt;Node7 -->
<g id="edge203_Node000000_Node000007" class="edge">
<title>Node0&#45;&gt;Node7</title>
<g id="a_edge203_Node000000_Node000007"><a xlink:title=" ">
<path fill="none" stroke="#63b8ff" d="M49.1,-503.53C59.18,-532.66 82.07,-587.34 120,-618 127.44,-624.01 136.16,-628.79 145.19,-632.59"/>
<polygon fill="#63b8ff" stroke="#63b8ff" points="52.32,-502.12 45.86,-493.72 45.67,-504.31 52.32,-502.12"/>
</a>
</g>
</g>
<!-- Node8 -->
<g id="Node000008" class="node">
<title>Node8</title>
<g id="a_Node000008"><a xlink:href="structis__back__insert__iterator_3_01std_1_1back__insert__iterator_3_01Container_01_4_01_4.html" target="_top" xlink:title=" ">
<polygon fill="white" stroke="#666666" points="284.5,-608.5 138.5,-608.5 138.5,-567.5 284.5,-567.5 284.5,-608.5"/>
<text text-anchor="start" x="146.5" y="-596.5" font-family="Helvetica,sans-Serif" font-size="10.00">is_back_insert_iterator</text>
<text text-anchor="start" x="146.5" y="-585.5" font-family="Helvetica,sans-Serif" font-size="10.00">&lt; std::back_insert_iterator</text>
<text text-anchor="middle" x="211.5" y="-574.5" font-family="Helvetica,sans-Serif" font-size="10.00">&lt; Container &gt; &gt;</text>
</a>
</g>
</g>
<!-- Node0&#45;&gt;Node8 -->
<g id="edge204_Node000000_Node000008" class="edge">
<title>Node0&#45;&gt;Node8</title>
<g id="a_edge204_Node000000_Node000008"><a xlink:title=" ">
<path fill="none" stroke="#63b8ff" d="M57,-501.75C71.2,-518.68 94.67,-543.77 120,-559 125.8,-562.48 132.06,-565.6 138.49,-568.37"/>
<polygon fill="#63b8ff" stroke="#63b8ff" points="59.49,-499.27 50.45,-493.75 54.07,-503.7 59.49,-499.27"/>
</a>
</g>
</g>
<!-- Node9 -->
<g id="Node000009" class="node">
<title>Node9</title>
<g id="a_Node000009"><a xlink:href="structis__char_3_01char_01_4.html" target="_top" xlink:title=" ">
<polygon fill="white" stroke="#666666" points="259,-549.5 164,-549.5 164,-530.5 259,-530.5 259,-549.5"/>
<text text-anchor="middle" x="211.5" y="-537.5" font-family="Helvetica,sans-Serif" font-size="10.00">is_char&lt; char &gt;</text>
</a>
</g>
</g>
<!-- Node0&#45;&gt;Node9 -->
<g id="edge205_Node000000_Node000009" class="edge">
<title>Node0&#45;&gt;Node9</title>
<g id="a_edge205_Node000000_Node000009"><a xlink:title=" ">
<path fill="none" stroke="#63b8ff" d="M68.24,-498.56C82.94,-506.49 102.05,-515.9 120,-522 133.96,-526.74 149.57,-530.4 163.85,-533.14"/>
<polygon fill="#63b8ff" stroke="#63b8ff" points="69.73,-495.38 59.28,-493.61 66.34,-501.51 69.73,-495.38"/>
</a>
</g>
</g>
<!-- Node10 -->
<g id="Node000010" class="node">
<title>Node10</title>
<g id="a_Node000010"><a xlink:href="structis__char_3_01char16__t_01_4.html" target="_top" xlink:title=" ">
<polygon fill="white" stroke="#666666" points="269.5,-512.5 153.5,-512.5 153.5,-493.5 269.5,-493.5 269.5,-512.5"/>
<text text-anchor="middle" x="211.5" y="-500.5" font-family="Helvetica,sans-Serif" font-size="10.00">is_char&lt; char16_t &gt;</text>
</a>
</g>
</g>
<!-- Node0&#45;&gt;Node10 -->
<g id="edge206_Node000000_Node000010" class="edge">
<title>Node0&#45;&gt;Node10</title>
<g id="a_edge206_Node000000_Node000010"><a xlink:title=" ">
<path fill="none" stroke="#63b8ff" d="M94.49,-489.84C113.15,-491.96 134.34,-494.36 153.46,-496.53"/>
<polygon fill="#63b8ff" stroke="#63b8ff" points="94.74,-486.35 84.4,-488.7 93.95,-493.3 94.74,-486.35"/>
</a>
</g>
</g>
<!-- Node11 -->
<g id="Node000011" class="node">
<title>Node11</title>
<g id="a_Node000011"><a xlink:href="structis__char_3_01char32__t_01_4.html" target="_top" xlink:title=" ">
<polygon fill="white" stroke="#666666" points="269.5,-475.5 153.5,-475.5 153.5,-456.5 269.5,-456.5 269.5,-475.5"/>
<text text-anchor="middle" x="211.5" y="-463.5" font-family="Helvetica,sans-Serif" font-size="10.00">is_char&lt; char32_t &gt;</text>
</a>
</g>
</g>
<!-- Node0&#45;&gt;Node11 -->
<g id="edge207_Node000000_Node000011" class="edge">
<title>Node0&#45;&gt;Node11</title>
<g id="a_edge207_Node000000_Node000011"><a xlink:title=" ">
<path fill="none" stroke="#63b8ff" d="M94.49,-478.47C113.15,-476.46 134.34,-474.18 153.46,-472.13"/>
<polygon fill="#63b8ff" stroke="#63b8ff" points="93.97,-475 84.4,-479.55 94.72,-481.96 93.97,-475"/>
</a>
</g>
</g>
<!-- Node12 -->
<g id="Node000012" class="node">
<title>Node12</title>
<g id="a_Node000012"><a xlink:href="structis__char_3_01detail_1_1char8__type_01_4.html" target="_top" xlink:title=" ">
<polygon fill="white" stroke="#666666" points="273,-438 150,-438 150,-408 273,-408 273,-438"/>
<text text-anchor="start" x="158" y="-426" font-family="Helvetica,sans-Serif" font-size="10.00">is_char&lt; detail::char8</text>
<text text-anchor="middle" x="211.5" y="-415" font-family="Helvetica,sans-Serif" font-size="10.00">_type &gt;</text>
</a>
</g>
</g>
<!-- Node0&#45;&gt;Node12 -->
<g id="edge208_Node000000_Node000012" class="edge">
<title>Node0&#45;&gt;Node12</title>
<g id="a_edge208_Node000000_Node000012"><a xlink:title=" ">
<path fill="none" stroke="#63b8ff" d="M70.24,-469.9C84.76,-462.73 103.08,-454.24 120,-448 129.79,-444.39 140.34,-441.02 150.66,-438"/>
<polygon fill="#63b8ff" stroke="#63b8ff" points="68.67,-466.77 61.3,-474.38 71.81,-473.03 68.67,-466.77"/>
</a>
</g>
</g>
<!-- Node13 -->
<g id="Node000013" class="node">
<title>Node13</title>
<g id="a_Node000013"><a xlink:href="structis__char_3_01wchar__t_01_4.html" target="_top" xlink:title=" ">
<polygon fill="white" stroke="#666666" points="267.5,-389.5 155.5,-389.5 155.5,-370.5 267.5,-370.5 267.5,-389.5"/>
<text text-anchor="middle" x="211.5" y="-377.5" font-family="Helvetica,sans-Serif" font-size="10.00">is_char&lt; wchar_t &gt;</text>
</a>
</g>
</g>
<!-- Node0&#45;&gt;Node13 -->
<g id="edge209_Node000000_Node000013" class="edge">
<title>Node0&#45;&gt;Node13</title>
<g id="a_edge209_Node000000_Node000013"><a xlink:title=" ">
<path fill="none" stroke="#63b8ff" d="M54.29,-465.88C67.54,-446.21 91.37,-415.42 120,-399 130.72,-392.85 143.18,-388.68 155.36,-385.85"/>
<polygon fill="#63b8ff" stroke="#63b8ff" points="51.34,-464 48.81,-474.29 57.2,-467.82 51.34,-464"/>
</a>
</g>
</g>
<!-- Node14 -->
<g id="Node000014" class="node">
<title>Node14</title>
<g id="a_Node000014"><a xlink:href="structis__contiguous_3_01basic__memory__buffer_3_01T_00_01SIZE_00_01Allocator_01_4_01_4.html" target="_top" xlink:title=" ">
<polygon fill="white" stroke="#666666" points="284,-352.5 139,-352.5 139,-311.5 284,-311.5 284,-352.5"/>
<text text-anchor="start" x="147" y="-340.5" font-family="Helvetica,sans-Serif" font-size="10.00">is_contiguous&lt; basic</text>
<text text-anchor="start" x="147" y="-329.5" font-family="Helvetica,sans-Serif" font-size="10.00">_memory_buffer&lt; T, SIZE,</text>
<text text-anchor="middle" x="211.5" y="-318.5" font-family="Helvetica,sans-Serif" font-size="10.00"> Allocator &gt; &gt;</text>
</a>
</g>
</g>
<!-- Node0&#45;&gt;Node14 -->
<g id="edge210_Node000000_Node000014" class="edge">
<title>Node0&#45;&gt;Node14</title>
<g id="a_edge210_Node000000_Node000014"><a xlink:title=" ">
<path fill="none" stroke="#63b8ff" d="M50.25,-464.72C61.29,-437.9 84.82,-389.52 120,-362 125.74,-357.51 132.17,-353.68 138.9,-350.41"/>
<polygon fill="#63b8ff" stroke="#63b8ff" points="46.94,-463.58 46.51,-474.17 53.45,-466.15 46.94,-463.58"/>
</a>
</g>
</g>
<!-- Node15 -->
<g id="Node000015" class="node">
<title>Node15</title>
<g id="a_Node000015"><a xlink:href="structis__contiguous_3_01std_1_1basic__string_3_01Char_01_4_01_4.html" target="_top" xlink:title=" ">
<polygon fill="white" stroke="#666666" points="280,-293 143,-293 143,-263 280,-263 280,-293"/>
<text text-anchor="start" x="151" y="-281" font-family="Helvetica,sans-Serif" font-size="10.00">is_contiguous&lt; std</text>
<text text-anchor="middle" x="211.5" y="-270" font-family="Helvetica,sans-Serif" font-size="10.00">::basic_string&lt; Char &gt; &gt;</text>
</a>
</g>
</g>
<!-- Node0&#45;&gt;Node15 -->
<g id="edge211_Node000000_Node000015" class="edge">
<title>Node0&#45;&gt;Node15</title>
<g id="a_edge211_Node000000_Node000015"><a xlink:title=" ">
<path fill="none" stroke="#63b8ff" d="M45.68,-464.42C51.82,-427.27 70.4,-346.42 120,-303 126.62,-297.2 134.48,-292.74 142.75,-289.3"/>
<polygon fill="#63b8ff" stroke="#63b8ff" points="42.2,-464.04 44.16,-474.45 49.12,-465.09 42.2,-464.04"/>
</a>
</g>
</g>
<!-- Node16 -->
<g id="Node000016" class="node">
<title>Node16</title>
<g id="a_Node000016"><a xlink:href="structis__contiguous__back__insert__iterator_3_01appender_01_4.html" target="_top" xlink:title=" ">
<polygon fill="white" stroke="#666666" points="291,-245 132,-245 132,-215 291,-215 291,-245"/>
<text text-anchor="start" x="140" y="-233" font-family="Helvetica,sans-Serif" font-size="10.00">is_contiguous_back</text>
<text text-anchor="middle" x="211.5" y="-222" font-family="Helvetica,sans-Serif" font-size="10.00">_insert_iterator&lt; appender &gt;</text>
</a>
</g>
</g>
<!-- Node0&#45;&gt;Node16 -->
<g id="edge212_Node000000_Node000016" class="edge">
<title>Node0&#45;&gt;Node16</title>
<g id="a_edge212_Node000000_Node000016"><a xlink:title=" ">
<path fill="none" stroke="#63b8ff" d="M43.6,-464.43C46.06,-420.18 58.41,-311.78 120,-254 123.68,-250.55 127.79,-247.59 132.18,-245.04"/>
<polygon fill="#63b8ff" stroke="#63b8ff" points="40.11,-464.31 43.16,-474.45 47.1,-464.62 40.11,-464.31"/>
</a>
</g>
</g>
<!-- Node17 -->
<g id="Node000017" class="node">
<title>Node17</title>
<g id="a_Node000017"><a xlink:href="structis__integral_3_01int128__t_01_4.html" target="_top" xlink:title=" ">
<polygon fill="white" stroke="#666666" points="276.5,-196.5 146.5,-196.5 146.5,-177.5 276.5,-177.5 276.5,-196.5"/>
<text text-anchor="middle" x="211.5" y="-184.5" font-family="Helvetica,sans-Serif" font-size="10.00">is_integral&lt; int128_t &gt;</text>
</a>
</g>
</g>
<!-- Node0&#45;&gt;Node17 -->
<g id="edge213_Node000000_Node000017" class="edge">
<title>Node0&#45;&gt;Node17</title>
<g id="a_edge213_Node000000_Node000017"><a xlink:title=" ">
<path fill="none" stroke="#63b8ff" d="M45.74,-464.55C54.16,-407.47 81.49,-242.15 120,-206 127.37,-199.08 136.6,-194.41 146.32,-191.31"/>
<polygon fill="#63b8ff" stroke="#63b8ff" points="42.27,-464.06 44.31,-474.45 49.2,-465.06 42.27,-464.06"/>
</a>
</g>
</g>
<!-- Node18 -->
<g id="Node000018" class="node">
<title>Node18</title>
<g id="a_Node000018"><a xlink:href="structis__integral_3_01uint128__t_01_4.html" target="_top" xlink:title=" ">
<polygon fill="white" stroke="#666666" points="279.5,-159.5 143.5,-159.5 143.5,-140.5 279.5,-140.5 279.5,-159.5"/>
<text text-anchor="middle" x="211.5" y="-147.5" font-family="Helvetica,sans-Serif" font-size="10.00">is_integral&lt; uint128_t &gt;</text>
</a>
</g>
</g>
<!-- Node0&#45;&gt;Node18 -->
<g id="edge214_Node000000_Node000018" class="edge">
<title>Node0&#45;&gt;Node18</title>
<g id="a_edge214_Node000000_Node000018"><a xlink:title=" ">
<path fill="none" stroke="#63b8ff" d="M45.07,-464.47C52.06,-402.33 76.77,-210.83 120,-169 126.58,-162.64 134.71,-158.16 143.38,-155.06"/>
<polygon fill="#63b8ff" stroke="#63b8ff" points="41.58,-464.18 43.97,-474.5 48.54,-464.94 41.58,-464.18"/>
</a>
</g>
</g>
<!-- Node19 -->
<g id="Node000019" class="node">
<title>Node19</title>
<g id="a_Node000019"><a xlink:href="structis__named__arg_3_01named__arg_3_01Char_00_01T_01_4_01_4.html" target="_top" xlink:title=" ">
<polygon fill="white" stroke="#666666" points="276.5,-122 146.5,-122 146.5,-92 276.5,-92 276.5,-122"/>
<text text-anchor="start" x="154.5" y="-110" font-family="Helvetica,sans-Serif" font-size="10.00">is_named_arg&lt; named</text>
<text text-anchor="middle" x="211.5" y="-99" font-family="Helvetica,sans-Serif" font-size="10.00">_arg&lt; Char, T &gt; &gt;</text>
</a>
</g>
</g>
<!-- Node0&#45;&gt;Node19 -->
<g id="edge215_Node000000_Node000019" class="edge">
<title>Node0&#45;&gt;Node19</title>
<g id="a_edge215_Node000000_Node000019"><a xlink:title=" ">
<path fill="none" stroke="#63b8ff" d="M44.65,-464.5C50.66,-397.93 73.54,-181.05 120,-132 127.17,-124.43 136.42,-119.08 146.25,-115.31"/>
<polygon fill="#63b8ff" stroke="#63b8ff" points="41.16,-464.22 43.77,-474.48 48.13,-464.83 41.16,-464.22"/>
</a>
</g>
</g>
<!-- Node20 -->
<g id="Node000020" class="node">
<title>Node20</title>
<g id="a_Node000020"><a xlink:href="structis__output__iterator_3_01It_00_01T_00_01void__t_3_01typename_01std_1_1iterator__traits_3_0c2b8a446a766330ad0bd6457b4d10481.html" target="_top" xlink:title=" ">
<polygon fill="white" stroke="#666666" points="303,-74 120,-74 120,0 303,0 303,-74"/>
<text text-anchor="start" x="128" y="-62" font-family="Helvetica,sans-Serif" font-size="10.00">is_output_iterator</text>
<text text-anchor="start" x="128" y="-51" font-family="Helvetica,sans-Serif" font-size="10.00">&lt; It, T, void_t&lt; typename</text>
<text text-anchor="start" x="128" y="-40" font-family="Helvetica,sans-Serif" font-size="10.00"> std::iterator_traits&lt; It</text>
<text text-anchor="start" x="128" y="-29" font-family="Helvetica,sans-Serif" font-size="10.00"> &gt;::iterator_category, decltype</text>
<text text-anchor="start" x="128" y="-18" font-family="Helvetica,sans-Serif" font-size="10.00">(*std::declval&lt; It &gt;()=std::declval</text>
<text text-anchor="middle" x="211.5" y="-7" font-family="Helvetica,sans-Serif" font-size="10.00">&lt; T &gt;())&gt; &gt;</text>
</a>
</g>
</g>
<!-- Node0&#45;&gt;Node20 -->
<g id="edge216_Node000000_Node000020" class="edge">
<title>Node0&#45;&gt;Node20</title>
<g id="a_edge216_Node000000_Node000020"><a xlink:title=" ">
<path fill="none" stroke="#63b8ff" d="M44.53,-464.07C50.4,-391.83 73.57,-144.7 120,-83 122.33,-79.9 124.93,-77 127.73,-74.27"/>
<polygon fill="#63b8ff" stroke="#63b8ff" points="41,-464.2 43.7,-474.45 47.98,-464.75 41,-464.2"/>
</a>
</g>
</g>
</g>
</svg>
