<?xml version="1.0" encoding="UTF-8" standalone="no"?>
<!DOCTYPE svg PUBLIC "-//W3C//DTD SVG 1.1//EN"
 "http://www.w3.org/Graphics/SVG/1.1/DTD/svg11.dtd">
<!-- Generated by graphviz version 2.43.0 (0)
 -->
<!-- Title: Graphical Class Hierarchy Pages: 1 -->
<svg width="318pt" height="76pt"
 viewBox="0.00 0.00 318.00 75.50" xmlns="http://www.w3.org/2000/svg" xmlns:xlink="http://www.w3.org/1999/xlink">
<g id="graph0" class="graph" transform="scale(1 1) rotate(0) translate(4 71.5)">
<title>Graphical Class Hierarchy</title>
<!-- Node0 -->
<g id="Node000000" class="node">
<title>Node0</title>
<g id="a_Node000000"><a target="_parent" xlink:href="http://en.cppreference.com/w/cpp/memory/enable_shared_from_this.html" xlink:title=" ">
<polygon fill="white" stroke="#666666" points="155,-67.5 0,-67.5 0,-37.5 155,-37.5 155,-67.5"/>
<text text-anchor="start" x="8" y="-55.5" font-family="Helvetica,sans-Serif" font-size="10.00">std::enable_shared</text>
<text text-anchor="middle" x="77.5" y="-44.5" font-family="Helvetica,sans-Serif" font-size="10.00">_from_this&lt; async_logger &gt;</text>
</a>
</g>
</g>
<!-- Node1 -->
<g id="Node000001" class="node">
<title>Node1</title>
<g id="a_Node000001"><a xlink:href="classspdlog_1_1async__logger.html" target="_top" xlink:title=" ">
<polygon fill="white" stroke="#666666" points="310,-40 191,-40 191,-21 310,-21 310,-40"/>
<text text-anchor="middle" x="250.5" y="-28" font-family="Helvetica,sans-Serif" font-size="10.00">spdlog::async_logger</text>
</a>
</g>
</g>
<!-- Node0&#45;&gt;Node1 -->
<g id="edge165_Node000000_Node000001" class="edge">
<title>Node0&#45;&gt;Node1</title>
<g id="a_edge165_Node000000_Node000001"><a xlink:title=" ">
<path fill="none" stroke="#63b8ff" d="M165.55,-41.3C174.12,-40.2 182.68,-39.1 190.87,-38.04"/>
<polygon fill="#63b8ff" stroke="#63b8ff" points="164.97,-37.85 155.5,-42.59 165.86,-44.79 164.97,-37.85"/>
</a>
</g>
</g>
<!-- Node2 -->
<g id="Node000002" class="node">
<title>Node2</title>
<g id="a_Node000002"><a xlink:href="classspdlog_1_1logger.html" target="_top" xlink:title=" ">
<polygon fill="white" stroke="#666666" points="120.5,-19 34.5,-19 34.5,0 120.5,0 120.5,-19"/>
<text text-anchor="middle" x="77.5" y="-7" font-family="Helvetica,sans-Serif" font-size="10.00">spdlog::logger</text>
</a>
</g>
</g>
<!-- Node2&#45;&gt;Node1 -->
<g id="edge166_Node000002_Node000001" class="edge">
<title>Node2&#45;&gt;Node1</title>
<g id="a_edge166_Node000002_Node000001"><a xlink:title=" ">
<path fill="none" stroke="#63b8ff" d="M130.75,-15.92C149.78,-18.25 171.41,-20.91 190.95,-23.31"/>
<polygon fill="#63b8ff" stroke="#63b8ff" points="131.12,-12.44 120.77,-14.69 130.27,-19.38 131.12,-12.44"/>
</a>
</g>
</g>
</g>
</svg>
