<?xml version="1.0" encoding="UTF-8" standalone="no"?>
<!DOCTYPE svg PUBLIC "-//W3C//DTD SVG 1.1//EN"
 "http://www.w3.org/Graphics/SVG/1.1/DTD/svg11.dtd">
<!-- Generated by graphviz version 2.43.0 (0)
 -->
<!-- Title: Graphical Class Hierarchy Pages: 1 -->
<svg width="442pt" height="686pt"
 viewBox="0.00 0.00 442.00 686.00" xmlns="http://www.w3.org/2000/svg" xmlns:xlink="http://www.w3.org/1999/xlink">
<g id="graph0" class="graph" transform="scale(1 1) rotate(0) translate(4 682)">
<title>Graphical Class Hierarchy</title>
<!-- Node0 -->
<g id="Node000000" class="node">
<title>Node0</title>
<g id="a_Node000000"><a target="_parent" xlink:href="http://en.cppreference.com/w/cpp/types/integral_constant.html" xlink:title=" ">
<polygon fill="white" stroke="#666666" points="89,-329.5 0,-329.5 0,-310.5 89,-310.5 89,-329.5"/>
<text text-anchor="middle" x="44.5" y="-317.5" font-family="Helvetica,sans-Serif" font-size="10.00">std::false_type</text>
</a>
</g>
</g>
<!-- Node1 -->
<g id="Node000001" class="node">
<title>Node1</title>
<g id="a_Node000001"><a xlink:href="structis__contiguous.html" target="_top" xlink:title=" ">
<polygon fill="white" stroke="#666666" points="278,-661.5 125,-661.5 125,-642.5 278,-642.5 278,-661.5"/>
<text text-anchor="middle" x="201.5" y="-649.5" font-family="Helvetica,sans-Serif" font-size="10.00">is_contiguous&lt; Container &gt;</text>
</a>
</g>
</g>
<!-- Node0&#45;&gt;Node1 -->
<g id="edge170_Node000000_Node000001" class="edge">
<title>Node0&#45;&gt;Node1</title>
<g id="a_edge170_Node000000_Node000001"><a xlink:title=" ">
<path fill="none" stroke="#63b8ff" d="M47.84,-339.84C55.58,-402.09 82.31,-591.9 125,-634 128.36,-637.31 132.21,-640.05 136.36,-642.32"/>
<polygon fill="#63b8ff" stroke="#63b8ff" points="51.3,-339.27 46.62,-329.77 44.35,-340.12 51.3,-339.27"/>
</a>
</g>
</g>
<!-- Node3 -->
<g id="Node000003" class="node">
<title>Node3</title>
<g id="a_Node000003"><a xlink:href="structCatch_1_1always__false.html" target="_top" xlink:title=" ">
<polygon fill="white" stroke="#666666" points="273,-624.5 130,-624.5 130,-605.5 273,-605.5 273,-624.5"/>
<text text-anchor="middle" x="201.5" y="-612.5" font-family="Helvetica,sans-Serif" font-size="10.00">Catch::always_false&lt; T &gt;</text>
</a>
</g>
</g>
<!-- Node0&#45;&gt;Node3 -->
<g id="edge172_Node000000_Node000003" class="edge">
<title>Node0&#45;&gt;Node3</title>
<g id="a_edge172_Node000000_Node000003"><a xlink:title=" ">
<path fill="none" stroke="#63b8ff" d="M44.96,-339.67C44.7,-390.06 51.33,-524.78 125,-596 128.98,-599.85 133.63,-602.96 138.62,-605.46"/>
<polygon fill="#63b8ff" stroke="#63b8ff" points="48.46,-339.56 45.12,-329.5 41.46,-339.45 48.46,-339.56"/>
</a>
</g>
</g>
<!-- Node4 -->
<g id="Node000004" class="node">
<title>Node4</title>
<g id="a_Node000004"><a xlink:href="structdetail_1_1has__const__begin__end.html" target="_top" xlink:title=" ">
<polygon fill="white" stroke="#666666" points="267,-587 136,-587 136,-557 267,-557 267,-587"/>
<text text-anchor="start" x="144" y="-575" font-family="Helvetica,sans-Serif" font-size="10.00">detail::has_const_begin</text>
<text text-anchor="middle" x="201.5" y="-564" font-family="Helvetica,sans-Serif" font-size="10.00">_end&lt; T, Enable &gt;</text>
</a>
</g>
</g>
<!-- Node0&#45;&gt;Node4 -->
<g id="edge173_Node000000_Node000004" class="edge">
<title>Node0&#45;&gt;Node4</title>
<g id="a_edge173_Node000000_Node000004"><a xlink:title=" ">
<path fill="none" stroke="#63b8ff" d="M46.66,-340.09C50.3,-384.12 65.14,-489.78 125,-548 128.55,-551.45 132.59,-554.41 136.92,-556.94"/>
<polygon fill="#63b8ff" stroke="#63b8ff" points="50.14,-339.57 45.93,-329.85 43.15,-340.07 50.14,-339.57"/>
</a>
</g>
</g>
<!-- Node5 -->
<g id="Node000005" class="node">
<title>Node5</title>
<g id="a_Node000005"><a xlink:href="structdetail_1_1has__member__fn__begin__end__t.html" target="_top" xlink:title=" ">
<polygon fill="white" stroke="#666666" points="259.5,-538.5 143.5,-538.5 143.5,-497.5 259.5,-497.5 259.5,-538.5"/>
<text text-anchor="start" x="151.5" y="-526.5" font-family="Helvetica,sans-Serif" font-size="10.00">detail::has_member</text>
<text text-anchor="start" x="151.5" y="-515.5" font-family="Helvetica,sans-Serif" font-size="10.00">_fn_begin_end_t&lt; T,</text>
<text text-anchor="middle" x="201.5" y="-504.5" font-family="Helvetica,sans-Serif" font-size="10.00"> Enable &gt;</text>
</a>
</g>
</g>
<!-- Node0&#45;&gt;Node5 -->
<g id="edge174_Node000000_Node000005" class="edge">
<title>Node0&#45;&gt;Node5</title>
<g id="a_edge174_Node000000_Node000005"><a xlink:title=" ">
<path fill="none" stroke="#63b8ff" d="M49.78,-339.65C58.27,-374.22 80.41,-446.16 125,-488 130.35,-493.02 136.64,-497.24 143.27,-500.77"/>
<polygon fill="#63b8ff" stroke="#63b8ff" points="53.17,-338.78 47.49,-329.83 46.35,-340.37 53.17,-338.78"/>
</a>
</g>
</g>
<!-- Node6 -->
<g id="Node000006" class="node">
<title>Node6</title>
<g id="a_Node000006"><a xlink:href="structdetail_1_1has__mutable__begin__end.html" target="_top" xlink:title=" ">
<polygon fill="white" stroke="#666666" points="271.5,-479 131.5,-479 131.5,-449 271.5,-449 271.5,-479"/>
<text text-anchor="start" x="139.5" y="-467" font-family="Helvetica,sans-Serif" font-size="10.00">detail::has_mutable</text>
<text text-anchor="middle" x="201.5" y="-456" font-family="Helvetica,sans-Serif" font-size="10.00">_begin_end&lt; T, Enable &gt;</text>
</a>
</g>
</g>
<!-- Node0&#45;&gt;Node6 -->
<g id="edge175_Node000000_Node000006" class="edge">
<title>Node0&#45;&gt;Node6</title>
<g id="a_edge175_Node000000_Node000006"><a xlink:title=" ">
<path fill="none" stroke="#63b8ff" d="M53.19,-339.02C64.84,-365.48 89.43,-413.15 125,-440 129.5,-443.4 134.5,-446.32 139.71,-448.84"/>
<polygon fill="#63b8ff" stroke="#63b8ff" points="56.37,-337.55 49.24,-329.71 49.92,-340.28 56.37,-337.55"/>
</a>
</g>
</g>
<!-- Node7 -->
<g id="Node000007" class="node">
<title>Node7</title>
<g id="a_Node000007"><a xlink:href="structdetail_1_1is__locale.html" target="_top" xlink:title=" ">
<polygon fill="white" stroke="#666666" points="252,-431 151,-431 151,-401 252,-401 252,-431"/>
<text text-anchor="start" x="159" y="-419" font-family="Helvetica,sans-Serif" font-size="10.00">detail::is_locale&lt;</text>
<text text-anchor="middle" x="201.5" y="-408" font-family="Helvetica,sans-Serif" font-size="10.00"> T, Enable &gt;</text>
</a>
</g>
</g>
<!-- Node0&#45;&gt;Node7 -->
<g id="edge176_Node000000_Node000007" class="edge">
<title>Node0&#45;&gt;Node7</title>
<g id="a_edge176_Node000000_Node000007"><a xlink:title=" ">
<path fill="none" stroke="#63b8ff" d="M60.69,-337.53C75.59,-353.74 99.71,-377.46 125,-392 132.99,-396.59 141.97,-400.43 150.87,-403.58"/>
<polygon fill="#63b8ff" stroke="#63b8ff" points="63.06,-334.94 53.78,-329.83 57.85,-339.61 63.06,-334.94"/>
</a>
</g>
</g>
<!-- Node8 -->
<g id="Node000008" class="node">
<title>Node8</title>
<g id="a_Node000008"><a xlink:href="structdetail_1_1is__range__.html" target="_top" xlink:title=" ">
<polygon fill="white" stroke="#666666" points="254,-383 149,-383 149,-353 254,-353 254,-383"/>
<text text-anchor="start" x="157" y="-371" font-family="Helvetica,sans-Serif" font-size="10.00">detail::is_range_&lt;</text>
<text text-anchor="middle" x="201.5" y="-360" font-family="Helvetica,sans-Serif" font-size="10.00"> T, _ &gt;</text>
</a>
</g>
</g>
<!-- Node0&#45;&gt;Node8 -->
<g id="edge177_Node000000_Node000008" class="edge">
<title>Node0&#45;&gt;Node8</title>
<g id="a_edge177_Node000000_Node000008"><a xlink:title=" ">
<path fill="none" stroke="#63b8ff" d="M86.28,-332.63C106.39,-338.86 130.78,-346.41 151.86,-352.94"/>
<polygon fill="#63b8ff" stroke="#63b8ff" points="87.08,-329.21 76.49,-329.6 85.01,-335.9 87.08,-329.21"/>
</a>
</g>
</g>
<!-- Node9 -->
<g id="Node000009" class="node">
<title>Node9</title>
<g id="a_Node000009"><a xlink:href="structdetail_1_1is__reference__wrapper.html" target="_top" xlink:title=" ">
<polygon fill="white" stroke="#666666" points="256.5,-335 146.5,-335 146.5,-305 256.5,-305 256.5,-335"/>
<text text-anchor="start" x="154.5" y="-323" font-family="Helvetica,sans-Serif" font-size="10.00">detail::is_reference</text>
<text text-anchor="middle" x="201.5" y="-312" font-family="Helvetica,sans-Serif" font-size="10.00">_wrapper&lt; T &gt;</text>
</a>
</g>
</g>
<!-- Node0&#45;&gt;Node9 -->
<g id="edge178_Node000000_Node000009" class="edge">
<title>Node0&#45;&gt;Node9</title>
<g id="a_edge178_Node000000_Node000009"><a xlink:title=" ">
<path fill="none" stroke="#63b8ff" d="M99.39,-320C114.64,-320 131.22,-320 146.47,-320"/>
<polygon fill="#63b8ff" stroke="#63b8ff" points="99.09,-316.5 89.09,-320 99.09,-323.5 99.09,-316.5"/>
</a>
</g>
</g>
<!-- Node10 -->
<g id="Node000010" class="node">
<title>Node10</title>
<g id="a_Node000010"><a xlink:href="structis__back__insert__iterator.html" target="_top" xlink:title=" ">
<polygon fill="white" stroke="#666666" points="265.5,-287 137.5,-287 137.5,-257 265.5,-257 265.5,-287"/>
<text text-anchor="start" x="145.5" y="-275" font-family="Helvetica,sans-Serif" font-size="10.00">is_back_insert_iterator</text>
<text text-anchor="middle" x="201.5" y="-264" font-family="Helvetica,sans-Serif" font-size="10.00">&lt; OutputIt &gt;</text>
</a>
</g>
</g>
<!-- Node0&#45;&gt;Node10 -->
<g id="edge179_Node000000_Node000010" class="edge">
<title>Node0&#45;&gt;Node10</title>
<g id="a_edge179_Node000000_Node000010"><a xlink:title=" ">
<path fill="none" stroke="#63b8ff" d="M86.28,-307.37C106.39,-301.14 130.78,-293.59 151.86,-287.06"/>
<polygon fill="#63b8ff" stroke="#63b8ff" points="85.01,-304.1 76.49,-310.4 87.08,-310.79 85.01,-304.1"/>
</a>
</g>
</g>
<!-- Node11 -->
<g id="Node000011" class="node">
<title>Node11</title>
<g id="a_Node000011"><a xlink:href="structis__char.html" target="_top" xlink:title=" ">
<polygon fill="white" stroke="#666666" points="241.5,-238.5 161.5,-238.5 161.5,-219.5 241.5,-219.5 241.5,-238.5"/>
<text text-anchor="middle" x="201.5" y="-226.5" font-family="Helvetica,sans-Serif" font-size="10.00">is_char&lt; T &gt;</text>
</a>
</g>
</g>
<!-- Node0&#45;&gt;Node11 -->
<g id="edge180_Node000000_Node000011" class="edge">
<title>Node0&#45;&gt;Node11</title>
<g id="a_edge180_Node000000_Node000011"><a xlink:title=" ">
<path fill="none" stroke="#63b8ff" d="M60.02,-302.65C74.74,-286.17 98.99,-261.91 125,-248 136.08,-242.07 149.08,-237.94 161.13,-235.09"/>
<polygon fill="#63b8ff" stroke="#63b8ff" points="57.15,-300.61 53.23,-310.46 62.43,-305.21 57.15,-300.61"/>
</a>
</g>
</g>
<!-- Node12 -->
<g id="Node000012" class="node">
<title>Node12</title>
<g id="a_Node000012"><a xlink:href="structis__contiguous.html" target="_top" xlink:title=" ">
<polygon fill="white" stroke="#666666" points="257.5,-201.5 145.5,-201.5 145.5,-182.5 257.5,-182.5 257.5,-201.5"/>
<text text-anchor="middle" x="201.5" y="-189.5" font-family="Helvetica,sans-Serif" font-size="10.00">is_contiguous&lt; T &gt;</text>
</a>
</g>
</g>
<!-- Node0&#45;&gt;Node12 -->
<g id="edge181_Node000000_Node000012" class="edge">
<title>Node0&#45;&gt;Node12</title>
<g id="a_edge181_Node000000_Node000012"><a xlink:title=" ">
<path fill="none" stroke="#63b8ff" d="M54.14,-301.05C66.35,-276.44 91.02,-233.93 125,-211 131.16,-206.84 138.16,-203.59 145.35,-201.06"/>
<polygon fill="#63b8ff" stroke="#63b8ff" points="50.83,-299.86 49.67,-310.4 57.14,-302.88 50.83,-299.86"/>
</a>
</g>
</g>
<!-- Node13 -->
<g id="Node000013" class="node">
<title>Node13</title>
<g id="a_Node000013"><a xlink:href="structis__contiguous__back__insert__iterator.html" target="_top" xlink:title=" ">
<polygon fill="white" stroke="#666666" points="278,-164 125,-164 125,-134 278,-134 278,-164"/>
<text text-anchor="start" x="133" y="-152" font-family="Helvetica,sans-Serif" font-size="10.00">is_contiguous_back</text>
<text text-anchor="middle" x="201.5" y="-141" font-family="Helvetica,sans-Serif" font-size="10.00">_insert_iterator&lt; OutputIt &gt;</text>
</a>
</g>
</g>
<!-- Node0&#45;&gt;Node13 -->
<g id="edge182_Node000000_Node000013" class="edge">
<title>Node0&#45;&gt;Node13</title>
<g id="a_edge182_Node000000_Node000013"><a xlink:title=" ">
<path fill="none" stroke="#63b8ff" d="M50.97,-300.52C60.71,-269.34 83.99,-208.26 125,-174 129.66,-170.1 134.95,-166.81 140.52,-164.02"/>
<polygon fill="#63b8ff" stroke="#63b8ff" points="47.59,-299.63 48.08,-310.21 54.29,-301.63 47.59,-299.63"/>
</a>
</g>
</g>
<!-- Node14 -->
<g id="Node000014" class="node">
<title>Node14</title>
<g id="a_Node000014"><a xlink:href="structis__named__arg.html" target="_top" xlink:title=" ">
<polygon fill="white" stroke="#666666" points="258,-115.5 145,-115.5 145,-96.5 258,-96.5 258,-115.5"/>
<text text-anchor="middle" x="201.5" y="-103.5" font-family="Helvetica,sans-Serif" font-size="10.00">is_named_arg&lt; T &gt;</text>
</a>
</g>
</g>
<!-- Node0&#45;&gt;Node14 -->
<g id="edge183_Node000000_Node000014" class="edge">
<title>Node0&#45;&gt;Node14</title>
<g id="a_edge183_Node000000_Node000014"><a xlink:title=" ">
<path fill="none" stroke="#63b8ff" d="M47.71,-300.14C53.19,-260.59 71.12,-171.79 125,-125 130.71,-120.04 137.54,-116.34 144.72,-113.58"/>
<polygon fill="#63b8ff" stroke="#63b8ff" points="44.23,-299.76 46.45,-310.12 51.17,-300.64 44.23,-299.76"/>
</a>
</g>
</g>
<!-- Node15 -->
<g id="Node000015" class="node">
<title>Node15</title>
<g id="a_Node000015"><a xlink:href="structis__output__iterator.html" target="_top" xlink:title=" ">
<polygon fill="white" stroke="#666666" points="253,-78 150,-78 150,-48 253,-48 253,-78"/>
<text text-anchor="start" x="158" y="-66" font-family="Helvetica,sans-Serif" font-size="10.00">is_output_iterator</text>
<text text-anchor="middle" x="201.5" y="-55" font-family="Helvetica,sans-Serif" font-size="10.00">&lt; It, T, Enable &gt;</text>
</a>
</g>
</g>
<!-- Node0&#45;&gt;Node15 -->
<g id="edge184_Node000000_Node000015" class="edge">
<title>Node0&#45;&gt;Node15</title>
<g id="a_edge184_Node000000_Node000015"><a xlink:title=" ">
<path fill="none" stroke="#63b8ff" d="M46.53,-300.51C49.92,-256.39 64.31,-148.06 125,-88 131.87,-81.2 140.63,-76.25 149.73,-72.65"/>
<polygon fill="#63b8ff" stroke="#63b8ff" points="43.04,-300.29 45.87,-310.5 50.02,-300.75 43.04,-300.29"/>
</a>
</g>
</g>
<!-- Node16 -->
<g id="Node000016" class="node">
<title>Node16</title>
<g id="a_Node000016"><a xlink:href="structis__statically__named__arg.html" target="_top" xlink:title=" ">
<polygon fill="white" stroke="#666666" points="258.5,-30 144.5,-30 144.5,0 258.5,0 258.5,-30"/>
<text text-anchor="start" x="152.5" y="-18" font-family="Helvetica,sans-Serif" font-size="10.00">is_statically_named</text>
<text text-anchor="middle" x="201.5" y="-7" font-family="Helvetica,sans-Serif" font-size="10.00">_arg&lt; T &gt;</text>
</a>
</g>
</g>
<!-- Node0&#45;&gt;Node16 -->
<g id="edge185_Node000000_Node000016" class="edge">
<title>Node0&#45;&gt;Node16</title>
<g id="a_edge185_Node000000_Node000016"><a xlink:title=" ">
<path fill="none" stroke="#63b8ff" d="M45.1,-300.24C45.18,-249.59 52.52,-113.84 125,-39 130.45,-33.37 137.22,-29.05 144.45,-25.75"/>
<polygon fill="#63b8ff" stroke="#63b8ff" points="41.6,-300.49 45.19,-310.46 48.6,-300.43 41.6,-300.49"/>
</a>
</g>
</g>
<!-- Node2 -->
<g id="Node000002" class="node">
<title>Node2</title>
<g id="a_Node000002"><a xlink:href="structis__contiguous__back__insert__iterator_3_01std_1_1back__insert__iterator_3_01Container_01_4_01_4.html" target="_top" xlink:title=" ">
<polygon fill="white" stroke="#666666" points="434,-678 314,-678 314,-626 434,-626 434,-678"/>
<text text-anchor="start" x="322" y="-666" font-family="Helvetica,sans-Serif" font-size="10.00">is_contiguous_back</text>
<text text-anchor="start" x="322" y="-655" font-family="Helvetica,sans-Serif" font-size="10.00">_insert_iterator&lt; std</text>
<text text-anchor="start" x="322" y="-644" font-family="Helvetica,sans-Serif" font-size="10.00">::back_insert_iterator</text>
<text text-anchor="middle" x="374" y="-633" font-family="Helvetica,sans-Serif" font-size="10.00">&lt; Container &gt; &gt;</text>
</a>
</g>
</g>
<!-- Node1&#45;&gt;Node2 -->
<g id="edge171_Node000001_Node000002" class="edge">
<title>Node1&#45;&gt;Node2</title>
<g id="a_edge171_Node000001_Node000002"><a xlink:title=" ">
<path fill="none" stroke="#63b8ff" d="M288.37,-652C296.98,-652 305.59,-652 313.83,-652"/>
<polygon fill="#63b8ff" stroke="#63b8ff" points="288.28,-648.5 278.28,-652 288.28,-655.5 288.28,-648.5"/>
</a>
</g>
</g>
</g>
</svg>
