<?xml version="1.0" encoding="UTF-8" standalone="no"?>
<!DOCTYPE svg PUBLIC "-//W3C//DTD SVG 1.1//EN"
 "http://www.w3.org/Graphics/SVG/1.1/DTD/svg11.dtd">
<!-- Generated by graphviz version 2.43.0 (0)
 -->
<!-- Title: Graphical Class Hierarchy Pages: 1 -->
<svg width="252pt" height="101pt"
 viewBox="0.00 0.00 252.00 101.00" xmlns="http://www.w3.org/2000/svg" xmlns:xlink="http://www.w3.org/1999/xlink">
<g id="graph0" class="graph" transform="scale(1 1) rotate(0) translate(4 97)">
<title>Graphical Class Hierarchy</title>
<!-- Node0 -->
<g id="Node000000" class="node">
<title>Node0</title>
<g id="a_Node000000"><a xlink:href="classCatch_1_1NonCopyable.html" target="_top" xlink:title=" ">
<polygon fill="white" stroke="#666666" points="116,-56 0,-56 0,-37 116,-37 116,-56"/>
<text text-anchor="middle" x="58" y="-44" font-family="Helvetica,sans-Serif" font-size="10.00">Catch::NonCopyable</text>
</a>
</g>
</g>
<!-- Node1 -->
<g id="Node000001" class="node">
<title>Node1</title>
<g id="a_Node000001"><a xlink:href="structCatch_1_1AutoReg.html" target="_top" xlink:title=" ">
<polygon fill="white" stroke="#666666" points="244,-93 152,-93 152,-74 244,-74 244,-93"/>
<text text-anchor="middle" x="198" y="-81" font-family="Helvetica,sans-Serif" font-size="10.00">Catch::AutoReg</text>
</a>
</g>
</g>
<!-- Node0&#45;&gt;Node1 -->
<g id="edge59_Node000000_Node000001" class="edge">
<title>Node0&#45;&gt;Node1</title>
<g id="a_edge59_Node000000_Node000001"><a xlink:title=" ">
<path fill="none" stroke="#63b8ff" d="M104.21,-58.62C122.67,-63.57 143.72,-69.22 161.1,-73.88"/>
<polygon fill="#63b8ff" stroke="#63b8ff" points="105.1,-55.24 94.54,-56.03 103.29,-62 105.1,-55.24"/>
</a>
</g>
</g>
<!-- Node2 -->
<g id="Node000002" class="node">
<title>Node2</title>
<g id="a_Node000002"><a xlink:href="structCatch_1_1IConfig.html" target="_top" xlink:title=" ">
<polygon fill="white" stroke="#666666" points="240,-56 156,-56 156,-37 240,-37 240,-56"/>
<text text-anchor="middle" x="198" y="-44" font-family="Helvetica,sans-Serif" font-size="10.00">Catch::IConfig</text>
</a>
</g>
</g>
<!-- Node0&#45;&gt;Node2 -->
<g id="edge60_Node000000_Node000002" class="edge">
<title>Node0&#45;&gt;Node2</title>
<g id="a_edge60_Node000000_Node000002"><a xlink:title=" ">
<path fill="none" stroke="#63b8ff" d="M126.6,-46.5C136.51,-46.5 146.46,-46.5 155.63,-46.5"/>
<polygon fill="#63b8ff" stroke="#63b8ff" points="126.33,-43 116.33,-46.5 126.33,-50 126.33,-43"/>
</a>
</g>
</g>
<!-- Node3 -->
<g id="Node000003" class="node">
<title>Node3</title>
<g id="a_Node000003"><a xlink:href="classCatch_1_1Section.html" target="_top" xlink:title=" ">
<polygon fill="white" stroke="#666666" points="241,-19 155,-19 155,0 241,0 241,-19"/>
<text text-anchor="middle" x="198" y="-7" font-family="Helvetica,sans-Serif" font-size="10.00">Catch::Section</text>
</a>
</g>
</g>
<!-- Node0&#45;&gt;Node3 -->
<g id="edge61_Node000000_Node000003" class="edge">
<title>Node0&#45;&gt;Node3</title>
<g id="a_edge61_Node000000_Node000003"><a xlink:title=" ">
<path fill="none" stroke="#8b1a1a" d="M104.21,-34.38C122.67,-29.43 143.72,-23.78 161.1,-19.12"/>
<polygon fill="#8b1a1a" stroke="#8b1a1a" points="103.29,-31 94.54,-36.97 105.1,-37.76 103.29,-31"/>
</a>
</g>
</g>
</g>
</svg>
