<?xml version="1.0" encoding="UTF-8" standalone="no"?>
<!DOCTYPE svg PUBLIC "-//W3C//DTD SVG 1.1//EN"
 "http://www.w3.org/Graphics/SVG/1.1/DTD/svg11.dtd">
<!-- Generated by graphviz version 2.43.0 (0)
 -->
<!-- Title: Graphical Class Hierarchy Pages: 1 -->
<svg width="260pt" height="124pt"
 viewBox="0.00 0.00 260.00 123.50" xmlns="http://www.w3.org/2000/svg" xmlns:xlink="http://www.w3.org/1999/xlink">
<g id="graph0" class="graph" transform="scale(1 1) rotate(0) translate(4 119.5)">
<title>Graphical Class Hierarchy</title>
<!-- Node0 -->
<g id="Node000000" class="node">
<title>Node0</title>
<g id="a_Node000000"><a xlink:href="classbuffer.html" target="_top" xlink:title=" ">
<polygon fill="white" stroke="#666666" points="75,-72.5 1,-72.5 1,-53.5 75,-53.5 75,-72.5"/>
<text text-anchor="middle" x="38" y="-60.5" font-family="Helvetica,sans-Serif" font-size="10.00">buffer&lt; T &gt;</text>
</a>
</g>
</g>
<!-- Node1 -->
<g id="Node000001" class="node">
<title>Node1</title>
<g id="a_Node000001"><a xlink:href="classcounting__buffer.html" target="_top" xlink:title=" ">
<polygon fill="white" stroke="#666666" points="242.5,-115.5 121.5,-115.5 121.5,-96.5 242.5,-96.5 242.5,-115.5"/>
<text text-anchor="middle" x="182" y="-103.5" font-family="Helvetica,sans-Serif" font-size="10.00">counting_buffer&lt; T &gt;</text>
</a>
</g>
</g>
<!-- Node0&#45;&gt;Node1 -->
<g id="edge6_Node000000_Node000001" class="edge">
<title>Node0&#45;&gt;Node1</title>
<g id="a_edge6_Node000000_Node000001"><a xlink:title=" ">
<path fill="none" stroke="#63b8ff" d="M76.59,-75.75C87.93,-79.49 100.44,-83.51 112,-87 122.71,-90.23 134.41,-93.54 145.09,-96.47"/>
<polygon fill="#63b8ff" stroke="#63b8ff" points="77.57,-72.39 66.98,-72.55 75.36,-79.03 77.57,-72.39"/>
</a>
</g>
</g>
<!-- Node2 -->
<g id="Node000002" class="node">
<title>Node2</title>
<g id="a_Node000002"><a xlink:href="classiterator__buffer.html" target="_top" xlink:title=" ">
<polygon fill="white" stroke="#666666" points="252,-30 112,-30 112,0 252,0 252,-30"/>
<text text-anchor="start" x="120" y="-18" font-family="Helvetica,sans-Serif" font-size="10.00">iterator_buffer&lt; OutputIt,</text>
<text text-anchor="middle" x="182" y="-7" font-family="Helvetica,sans-Serif" font-size="10.00"> T, Traits &gt;</text>
</a>
</g>
</g>
<!-- Node0&#45;&gt;Node2 -->
<g id="edge7_Node000000_Node000002" class="edge">
<title>Node0&#45;&gt;Node2</title>
<g id="a_edge7_Node000000_Node000002"><a xlink:title=" ">
<path fill="none" stroke="#63b8ff" d="M77.12,-50.11C95.39,-43.94 117.4,-36.5 136.44,-30.06"/>
<polygon fill="#63b8ff" stroke="#63b8ff" points="75.75,-46.88 67.39,-53.4 77.99,-53.52 75.75,-46.88"/>
</a>
</g>
</g>
<!-- Node4 -->
<g id="Node000004" class="node">
<title>Node4</title>
<g id="a_Node000004"><a xlink:href="classiterator__buffer_3_01T_01_5_00_01T_01_4.html" target="_top" xlink:title=" ">
<polygon fill="white" stroke="#666666" points="234,-78 130,-78 130,-48 234,-48 234,-78"/>
<text text-anchor="start" x="138" y="-66" font-family="Helvetica,sans-Serif" font-size="10.00">iterator_buffer&lt; T</text>
<text text-anchor="middle" x="182" y="-55" font-family="Helvetica,sans-Serif" font-size="10.00"> *, T &gt;</text>
</a>
</g>
</g>
<!-- Node0&#45;&gt;Node4 -->
<g id="edge8_Node000000_Node000004" class="edge">
<title>Node0&#45;&gt;Node4</title>
<g id="a_edge8_Node000000_Node000004"><a xlink:title=" ">
<path fill="none" stroke="#63b8ff" d="M85.27,-63C99.53,-63 115.3,-63 129.86,-63"/>
<polygon fill="#63b8ff" stroke="#63b8ff" points="85.2,-59.5 75.2,-63 85.2,-66.5 85.2,-59.5"/>
</a>
</g>
</g>
<!-- Node3 -->
<g id="Node000003" class="node">
<title>Node3</title>
<g id="a_Node000003"><a xlink:href="structbuffer__traits.html" target="_top" xlink:title=" ">
<polygon fill="white" stroke="#666666" points="76,-24.5 0,-24.5 0,-5.5 76,-5.5 76,-24.5"/>
<text text-anchor="middle" x="38" y="-12.5" font-family="Helvetica,sans-Serif" font-size="10.00">buffer_traits</text>
</a>
</g>
</g>
<!-- Node3&#45;&gt;Node2 -->
<g id="edge9_Node000003_Node000002" class="edge">
<title>Node3&#45;&gt;Node2</title>
<g id="a_edge9_Node000003_Node000002"><a xlink:title=" ">
<path fill="none" stroke="#63b8ff" d="M86.37,-15C94.54,-15 103.19,-15 111.8,-15"/>
<polygon fill="#63b8ff" stroke="#63b8ff" points="86.31,-11.5 76.31,-15 86.31,-18.5 86.31,-11.5"/>
</a>
</g>
</g>
</g>
</svg>
