<?xml version="1.0" encoding="UTF-8" standalone="no"?>
<!DOCTYPE svg PUBLIC "-//W3C//DTD SVG 1.1//EN"
 "http://www.w3.org/Graphics/SVG/1.1/DTD/svg11.dtd">
<!-- Generated by graphviz version 2.43.0 (0)
 -->
<!-- Title: Graphical Class Hierarchy Pages: 1 -->
<svg width="268pt" height="76pt"
 viewBox="0.00 0.00 268.00 75.50" xmlns="http://www.w3.org/2000/svg" xmlns:xlink="http://www.w3.org/1999/xlink">
<g id="graph0" class="graph" transform="scale(1 1) rotate(0) translate(4 71.5)">
<title>Graphical Class Hierarchy</title>
<!-- Node0 -->
<g id="Node000000" class="node">
<title>Node0</title>
<g id="a_Node000000"><a xlink:title=" ">
<polygon fill="#e0e0e0" stroke="#999999" points="74,-40 0,-40 0,-21 74,-21 74,-40"/>
<text text-anchor="middle" x="37" y="-28" font-family="Helvetica,sans-Serif" font-size="10.00">detail::view</text>
</a>
</g>
</g>
<!-- Node1 -->
<g id="Node000001" class="node">
<title>Node1</title>
<g id="a_Node000001"><a xlink:href="structjoin__view.html" target="_top" xlink:title=" ">
<polygon fill="white" stroke="#666666" points="250,-67.5 120,-67.5 120,-37.5 250,-37.5 250,-67.5"/>
<text text-anchor="start" x="128" y="-55.5" font-family="Helvetica,sans-Serif" font-size="10.00">join_view&lt; It, Sentinel,</text>
<text text-anchor="middle" x="185" y="-44.5" font-family="Helvetica,sans-Serif" font-size="10.00"> Char &gt;</text>
</a>
</g>
</g>
<!-- Node0&#45;&gt;Node1 -->
<g id="edge74_Node000000_Node000001" class="edge">
<title>Node0&#45;&gt;Node1</title>
<g id="a_edge74_Node000000_Node000001"><a xlink:title=" ">
<path fill="none" stroke="#63b8ff" d="M84.19,-37.46C95.53,-39.17 107.87,-41.03 119.89,-42.84"/>
<polygon fill="#63b8ff" stroke="#63b8ff" points="84.5,-33.97 74.09,-35.94 83.46,-40.89 84.5,-33.97"/>
</a>
</g>
</g>
<!-- Node2 -->
<g id="Node000002" class="node">
<title>Node2</title>
<g id="a_Node000002"><a xlink:href="structtuple__join__view.html" target="_top" xlink:title=" ">
<polygon fill="white" stroke="#666666" points="260,-19 110,-19 110,0 260,0 260,-19"/>
<text text-anchor="middle" x="185" y="-7" font-family="Helvetica,sans-Serif" font-size="10.00">tuple_join_view&lt; Char, T &gt;</text>
</a>
</g>
</g>
<!-- Node0&#45;&gt;Node2 -->
<g id="edge75_Node000000_Node000002" class="edge">
<title>Node0&#45;&gt;Node2</title>
<g id="a_edge75_Node000000_Node000002"><a xlink:title=" ">
<path fill="none" stroke="#63b8ff" d="M84.07,-23.87C94.81,-22.33 106.46,-20.65 117.88,-19.01"/>
<polygon fill="#63b8ff" stroke="#63b8ff" points="83.49,-20.42 74.09,-25.31 84.49,-27.35 83.49,-20.42"/>
</a>
</g>
</g>
</g>
</svg>
