<?xml version="1.0" encoding="UTF-8" standalone="no"?>
<!DOCTYPE svg PUBLIC "-//W3C//DTD SVG 1.1//EN"
 "http://www.w3.org/Graphics/SVG/1.1/DTD/svg11.dtd">
<!-- Generated by graphviz version 2.43.0 (0)
 -->
<!-- Title: graphname Pages: 1 -->
<svg width="156pt" height="207pt"
 viewBox="0.00 0.00 156.00 207.00" xmlns="http://www.w3.org/2000/svg" xmlns:xlink="http://www.w3.org/1999/xlink">
<g id="graph0" class="graph" transform="scale(1 1) rotate(0) translate(4 203)">
<title>graphname</title>
<polygon fill="white" stroke="transparent" points="-4,4 -4,-203 152,-203 152,4 -4,4"/>
<g id="clust1" class="cluster">
<title>cluster_1</title>
<polygon fill="none" stroke="black" points="8,-8 8,-155 140,-155 140,-8 8,-8"/>
<text text-anchor="middle" x="74" y="-139.8" font-family="Times,serif" font-size="14.00">dds_agent</text>
</g>
<!-- px4sitl -->
<g id="node1" class="node">
<title>px4sitl</title>
<g id="a_node1"><a xlink:href="../px4sitl/index.html" xlink:title="px4sitl">
<ellipse fill="none" stroke="black" cx="74" cy="-181" rx="42.49" ry="18"/>
<text text-anchor="middle" x="74" y="-177.3" font-family="Times,serif" font-size="14.00">px4sitl</text>
</a>
</g>
</g>
<!-- dds_agent -->
<g id="node2" class="node">
<title>dds_agent</title>
<g id="a_node2"><a xlink:href="../dds_agent/index.html" xlink:title="dds_agent">
<ellipse fill="none" stroke="black" cx="74" cy="-106" rx="57.69" ry="18"/>
<text text-anchor="middle" x="74" y="-102.3" font-family="Times,serif" font-size="14.00">dds_agent</text>
</a>
</g>
</g>
<!-- px4sitl&#45;&gt;dds_agent -->
<g id="edge1" class="edge">
<title>px4sitl&#45;&gt;dds_agent</title>
<path fill="none" stroke="#ff0000" d="M74,-162.7C74,-154.25 74,-143.87 74,-134.37"/>
<polygon fill="#ff0000" stroke="#ff0000" points="77.5,-134.18 74,-124.18 70.5,-134.18 77.5,-134.18"/>
</g>
<!-- spdlog -->
<g id="node3" class="node">
<title>spdlog</title>
<g id="a_node3"><a xlink:href="../spdlog/index.html" xlink:title="spdlog">
<ellipse fill="none" stroke="black" cx="74" cy="-34" rx="41.69" ry="18"/>
<text text-anchor="middle" x="74" y="-30.3" font-family="Times,serif" font-size="14.00">spdlog</text>
</a>
</g>
</g>
<!-- dds_agent&#45;&gt;spdlog -->
<g id="edge2" class="edge">
<title>dds_agent&#45;&gt;spdlog</title>
<path fill="none" stroke="#0000ff" d="M73,-87.7C73,-79.98 73,-70.71 73,-62.11"/>
<path fill="none" stroke="#ff0000" d="M75,-87.7C75,-79.98 75,-70.71 75,-62.11"/>
<polygon fill="#0000ff" stroke="#0000ff" points="77.5,-62.1 74,-52.1 70.5,-62.1 77.5,-62.1"/>
</g>
</g>
</svg>
