<?xml version="1.0" encoding="UTF-8" standalone="no"?>
<!DOCTYPE svg PUBLIC "-//W3C//DTD SVG 1.1//EN"
 "http://www.w3.org/Graphics/SVG/1.1/DTD/svg11.dtd">
<!-- Generated by graphviz version 2.43.0 (0)
 -->
<!-- Title: basic_format_specs&lt; Char &gt; Pages: 1 -->
<svg width="633pt" height="168pt"
 viewBox="0.00 0.00 633.00 168.00" xmlns="http://www.w3.org/2000/svg" xmlns:xlink="http://www.w3.org/1999/xlink">
<g id="graph0" class="graph" transform="scale(1 1) rotate(0) translate(4 164)">
<title>basic_format_specs&lt; Char &gt;</title>
<!-- Node1 -->
<g id="Node000001" class="node">
<title>Node1</title>
<g id="a_Node000001"><a xlink:title=" ">
<polygon fill="#999999" stroke="#666666" points="113,-111 0,-111 0,-81 113,-81 113,-111"/>
<text text-anchor="start" x="8" y="-99" font-family="Helvetica,sans-Serif" font-size="10.00">basic_format_specs</text>
<text text-anchor="middle" x="56.5" y="-88" font-family="Helvetica,sans-Serif" font-size="10.00">&lt; Char &gt;</text>
</a>
</g>
</g>
<!-- Node2 -->
<g id="Node000002" class="node">
<title>Node2</title>
<g id="a_Node000002"><a xlink:href="structdynamic__format__specs.html" target="_top" xlink:title=" ">
<polygon fill="white" stroke="#666666" points="625,-160 495,-160 495,-130 625,-130 625,-160"/>
<text text-anchor="start" x="503" y="-148" font-family="Helvetica,sans-Serif" font-size="10.00">dynamic_format_specs</text>
<text text-anchor="middle" x="560" y="-137" font-family="Helvetica,sans-Serif" font-size="10.00">&lt; char_type &gt;</text>
</a>
</g>
</g>
<!-- Node1&#45;&gt;Node2 -->
<g id="edge1_Node000001_Node000002" class="edge">
<title>Node1&#45;&gt;Node2</title>
<g id="a_edge1_Node000001_Node000002"><a xlink:title=" ">
<path fill="none" stroke="#63b8ff" d="M102.74,-114.7C111.99,-118.1 121.73,-121.4 131,-124 279.54,-165.7 322.86,-158.57 477,-152 482.71,-151.76 488.64,-151.42 494.58,-151.02"/>
<polygon fill="#63b8ff" stroke="#63b8ff" points="103.92,-111.4 93.33,-111.13 101.44,-117.95 103.92,-111.4"/>
</a>
</g>
</g>
<!-- Node3 -->
<g id="Node000003" class="node">
<title>Node3</title>
<g id="a_Node000003"><a xlink:href="structdynamic__format__specs.html" target="_top" xlink:title=" ">
<polygon fill="white" stroke="#666666" points="385,-138 255,-138 255,-108 385,-108 385,-138"/>
<text text-anchor="start" x="263" y="-126" font-family="Helvetica,sans-Serif" font-size="10.00">dynamic_format_specs</text>
<text text-anchor="middle" x="320" y="-115" font-family="Helvetica,sans-Serif" font-size="10.00">&lt; Char &gt;</text>
</a>
</g>
</g>
<!-- Node1&#45;&gt;Node3 -->
<g id="edge2_Node000001_Node000003" class="edge">
<title>Node1&#45;&gt;Node3</title>
<g id="a_edge2_Node000001_Node000003"><a xlink:title=" ">
<path fill="none" stroke="#63b8ff" d="M123.24,-102.79C163.43,-106.94 214.61,-112.22 254.56,-116.35"/>
<polygon fill="#63b8ff" stroke="#63b8ff" points="123.58,-99.3 113.28,-101.76 122.87,-106.27 123.58,-99.3"/>
</a>
</g>
</g>
<!-- Node4 -->
<g id="Node000004" class="node">
<title>Node4</title>
<g id="a_Node000004"><a xlink:href="structbasic__format__specs.html" target="_top" xlink:title=" ">
<polygon fill="white" stroke="#666666" points="379.5,-89.5 260.5,-89.5 260.5,-48.5 379.5,-48.5 379.5,-89.5"/>
<text text-anchor="start" x="268.5" y="-77.5" font-family="Helvetica,sans-Serif" font-size="10.00">basic_format_specs</text>
<text text-anchor="start" x="268.5" y="-66.5" font-family="Helvetica,sans-Serif" font-size="10.00">&lt; ParseContext::char</text>
<text text-anchor="middle" x="320" y="-55.5" font-family="Helvetica,sans-Serif" font-size="10.00">_type &gt;</text>
</a>
</g>
</g>
<!-- Node1&#45;&gt;Node4 -->
<g id="edge4_Node000001_Node000004" class="edge">
<title>Node1&#45;&gt;Node4</title>
<g id="a_edge4_Node000001_Node000004"><a xlink:title=" ">
<path fill="none" stroke="orange" stroke-dasharray="5,2" d="M122.94,-79.3C125.65,-78.82 128.35,-78.38 131,-78 174.01,-71.76 223.07,-69.58 260.29,-68.92"/>
<polygon fill="orange" stroke="orange" points="122.22,-75.88 113.06,-81.2 123.54,-82.75 122.22,-75.88"/>
</a>
</g>
<text text-anchor="start" x="131" y="-92" font-family="Helvetica,sans-Serif" font-size="10.00" fill="grey"> &lt; ParseContext::char</text>
<text text-anchor="middle" x="184" y="-81" font-family="Helvetica,sans-Serif" font-size="10.00" fill="grey">_type &gt;</text>
</g>
<!-- Node5 -->
<g id="Node000005" class="node">
<title>Node5</title>
<g id="a_Node000005"><a xlink:href="structbasic__format__specs.html" target="_top" xlink:title=" ">
<polygon fill="white" stroke="#666666" points="376.5,-30 263.5,-30 263.5,0 376.5,0 376.5,-30"/>
<text text-anchor="start" x="271.5" y="-18" font-family="Helvetica,sans-Serif" font-size="10.00">basic_format_specs</text>
<text text-anchor="middle" x="320" y="-7" font-family="Helvetica,sans-Serif" font-size="10.00">&lt; char_type &gt;</text>
</a>
</g>
</g>
<!-- Node1&#45;&gt;Node5 -->
<g id="edge5_Node000001_Node000005" class="edge">
<title>Node1&#45;&gt;Node5</title>
<g id="a_edge5_Node000001_Node000005"><a xlink:title=" ">
<path fill="none" stroke="orange" stroke-dasharray="5,2" d="M89.2,-75.58C101.8,-68.2 116.69,-60.37 131,-55 174.11,-38.81 225.37,-28.45 263.47,-22.34"/>
<polygon fill="orange" stroke="orange" points="87.23,-72.68 80.47,-80.83 90.84,-78.68 87.23,-72.68"/>
</a>
</g>
<text text-anchor="middle" x="184" y="-58" font-family="Helvetica,sans-Serif" font-size="10.00" fill="grey"> &lt; char_type &gt;</text>
</g>
<!-- Node3&#45;&gt;Node2 -->
<g id="edge3_Node000003_Node000002" class="edge">
<title>Node3&#45;&gt;Node2</title>
<g id="a_edge3_Node000003_Node000002"><a xlink:title=" ">
<path fill="none" stroke="orange" stroke-dasharray="5,2" d="M395.26,-129.86C427.17,-132.81 464.09,-136.23 494.79,-139.06"/>
<polygon fill="orange" stroke="orange" points="395.37,-126.36 385.09,-128.92 394.73,-133.33 395.37,-126.36"/>
</a>
</g>
<text text-anchor="middle" x="440" y="-141" font-family="Helvetica,sans-Serif" font-size="10.00" fill="grey"> &lt; char_type &gt;</text>
</g>
</g>
</svg>
