<?xml version="1.0" encoding="UTF-8" standalone="no"?>
<!DOCTYPE svg PUBLIC "-//W3C//DTD SVG 1.1//EN"
 "http://www.w3.org/Graphics/SVG/1.1/DTD/svg11.dtd">
<!-- Generated by graphviz version 2.43.0 (0)
 -->
<!-- Title: formatter&lt; void *, Char &gt; Pages: 1 -->
<svg width="184pt" height="182pt"
 viewBox="0.00 0.00 183.50 182.00" xmlns="http://www.w3.org/2000/svg" xmlns:xlink="http://www.w3.org/1999/xlink">
<g id="graph0" class="graph" transform="scale(1 1) rotate(0) translate(4 178)">
<title>formatter&lt; void *, Char &gt;</title>
<!-- Node1 -->
<g id="Node000001" class="node">
<title>Node1</title>
<g id="a_Node000001"><a xlink:title=" ">
<polygon fill="#999999" stroke="#666666" points="116,-30 9,-30 9,0 116,0 116,-30"/>
<text text-anchor="start" x="17" y="-18" font-family="Helvetica,sans-Serif" font-size="10.00">formatter&lt; void *,</text>
<text text-anchor="middle" x="62.5" y="-7" font-family="Helvetica,sans-Serif" font-size="10.00"> Char &gt;</text>
</a>
</g>
</g>
<!-- Node2 -->
<g id="Node000002" class="node">
<title>Node2</title>
<g id="a_Node000002"><a xlink:href="structformatter.html" target="_top" xlink:title=" ">
<polygon fill="white" stroke="#666666" points="125,-97 0,-97 0,-67 125,-67 125,-97"/>
<text text-anchor="start" x="8" y="-85" font-family="Helvetica,sans-Serif" font-size="10.00">formatter&lt; const void</text>
<text text-anchor="middle" x="62.5" y="-74" font-family="Helvetica,sans-Serif" font-size="10.00"> *, Char &gt;</text>
</a>
</g>
</g>
<!-- Node2&#45;&gt;Node1 -->
<g id="edge1_Node000001_Node000002" class="edge">
<title>Node2&#45;&gt;Node1</title>
<g id="a_edge1_Node000001_Node000002"><a xlink:title=" ">
<path fill="none" stroke="#63b8ff" d="M62.5,-56.61C62.5,-47.65 62.5,-37.82 62.5,-30.08"/>
<polygon fill="#63b8ff" stroke="#63b8ff" points="59,-56.9 62.5,-66.9 66,-56.9 59,-56.9"/>
</a>
</g>
</g>
<!-- Node3 -->
<g id="Node000003" class="node">
<title>Node3</title>
<g id="a_Node000003"><a xlink:href="structformatter.html" target="_top" xlink:title=" ">
<polygon fill="white" stroke="#666666" points="118.5,-174 6.5,-174 6.5,-144 118.5,-144 118.5,-174"/>
<text text-anchor="start" x="14.5" y="-162" font-family="Helvetica,sans-Serif" font-size="10.00">formatter&lt; T, Char,</text>
<text text-anchor="middle" x="62.5" y="-151" font-family="Helvetica,sans-Serif" font-size="10.00"> Enable &gt;</text>
</a>
</g>
</g>
<!-- Node3&#45;&gt;Node2 -->
<g id="edge2_Node000002_Node000003" class="edge">
<title>Node3&#45;&gt;Node2</title>
<g id="a_edge2_Node000002_Node000003"><a xlink:title=" ">
<path fill="none" stroke="orange" stroke-dasharray="5,2" d="M62.5,-133.54C62.5,-121.45 62.5,-107.29 62.5,-97.04"/>
<polygon fill="orange" stroke="orange" points="59,-133.89 62.5,-143.89 66,-133.89 59,-133.89"/>
</a>
</g>
<text text-anchor="middle" x="119" y="-118" font-family="Helvetica,sans-Serif" font-size="10.00" fill="grey"> &lt; const void *, Char &gt;</text>
</g>
</g>
</svg>
