<?xml version="1.0" encoding="UTF-8" standalone="no"?>
<!DOCTYPE svg PUBLIC "-//W3C//DTD SVG 1.1//EN"
 "http://www.w3.org/Graphics/SVG/1.1/DTD/svg11.dtd">
<!-- Generated by graphviz version 2.43.0 (0)
 -->
<!-- Title: Catch::Matchers::Impl::MatcherBase&lt; T &gt; Pages: 1 -->
<!--zoomable 686 -->

<svg id="main" version="1.1" xmlns="http://www.w3.org/2000/svg" xmlns:xlink="http://www.w3.org/1999/xlink" xml:space="preserve" onload="init(evt)">
<style type="text/css"><![CDATA[
.node, .edge {opacity: 0.7;}
.node.selected, .edge.selected {opacity: 1;}
.edge:hover path { stroke: red; }
.edge:hover polygon { stroke: red; fill: red; }
]]></style>

<defs>
  <circle id="rim" cx="0" cy="0" r="7"/>
  <circle id="rim2" cx="0" cy="0" r="3.5"/>
  <g id="zoomPlus">
    <use xlink:href="#rim" fill="#404040"><set attributeName="fill" to="#808080" begin="zoomplus.mouseover" end="zoomplus.mouseout"/></use>
    <path d="M-4,0h8M0,-4v8" fill="none" stroke="white" stroke-width="1.5" pointer-events="none"/>
  </g>
  <g id="zoomMin">
    <use xlink:href="#rim" fill="#404040"><set attributeName="fill" to="#808080" begin="zoomminus.mouseover" end="zoomminus.mouseout"/></use>
    <path d="M-4,0h8" fill="none" stroke="white" stroke-width="1.5" pointer-events="none"/>
  </g>
  <g id="arrowUp" transform="translate(30 24)">
    <use xlink:href="#rim"/>
    <path pointer-events="none" fill="none" stroke="white" stroke-width="1.5" d="M0,-3.0v7 M-2.5,-0.5L0,-3.0L2.5,-0.5"/>
  </g>
  <g id="arrowRight" transform="rotate(90) translate(36 -43)">
    <use xlink:href="#rim"/>
    <path pointer-events="none" fill="none" stroke="white" stroke-width="1.5" d="M0,-3.0v7 M-2.5,-0.5L0,-3.0L2.5,-0.5"/>
  </g>
  <g id="arrowDown" transform="rotate(180) translate(-30 -48)">
    <use xlink:href="#rim"/>
    <path pointer-events="none" fill="none" stroke="white" stroke-width="1.5" d="M0,-3.0v7 M-2.5,-0.5L0,-3.0L2.5,-0.5"/>
  </g>
  <g id="arrowLeft" transform="rotate(270) translate(-36 17)">
    <use xlink:href="#rim"/>
    <path pointer-events="none" fill="none" stroke="white" stroke-width="1.5" d="M0,-3.0v7 M-2.5,-0.5L0,-3.0L2.5,-0.5"/>
  </g>
  <g id="resetDef">
    <use xlink:href="#rim2" fill="#404040"><set attributeName="fill" to="#808080" begin="reset.mouseover" end="reset.mouseout"/></use>
  </g>
</defs>
<script type="application/ecmascript">
var viewWidth = 1022;
var viewHeight = 686;
var sectionId = 'dynsection-0';
</script>
<script type="application/ecmascript" xlink:href="svg.min.js"/>
<svg id="graph" class="graph">
<g id="viewport">
<title>Catch::Matchers::Impl::MatcherBase&lt; T &gt;</title>
<!-- Node1 -->
<g id="Node000001" class="node">
<title>Node1</title>
<g id="a_Node000001"><a xlink:title=" ">
<polygon fill="#999999" stroke="#666666" points="515,-353.5 392,-353.5 392,-323.5 515,-323.5 515,-353.5"/>
<text text-anchor="start" x="400" y="-341.5" font-family="Helvetica,sans-Serif" font-size="10.00">Catch::Matchers::Impl</text>
<text text-anchor="middle" x="453.5" y="-330.5" font-family="Helvetica,sans-Serif" font-size="10.00">::MatcherBase&lt; T &gt;</text>
</a>
</g>
</g>
<!-- Node5 -->
<g id="Node000005" class="node">
<title>Node5</title>
<g id="a_Node000005"><a xlink:href="structCatch_1_1Matchers_1_1Floating_1_1WithinAbsMatcher.html" target="_top" xlink:title=" ">
<polygon fill="white" stroke="#666666" points="827.5,-677.5 660.5,-677.5 660.5,-647.5 827.5,-647.5 827.5,-677.5"/>
<text text-anchor="start" x="668.5" y="-665.5" font-family="Helvetica,sans-Serif" font-size="10.00">Catch::Matchers::Floating</text>
<text text-anchor="middle" x="744" y="-654.5" font-family="Helvetica,sans-Serif" font-size="10.00">::WithinAbsMatcher&lt; double &gt;</text>
</a>
</g>
</g>
<!-- Node1&#45;&gt;Node5 -->
<g id="edge4_Node000001_Node000005" class="edge">
<title>Node1&#45;&gt;Node5</title>
<g id="a_edge4_Node000001_Node000005"><a xlink:title=" ">
<path fill="none" stroke="#63b8ff" d="M457.67,-363.45C464.44,-407.85 483.87,-501.62 533,-562.5 569.14,-607.28 630.11,-633.19 677.08,-647.37"/>
<polygon fill="#63b8ff" stroke="#63b8ff" points="461.13,-362.92 456.25,-353.52 454.21,-363.91 461.13,-362.92"/>
</a>
</g>
</g>
<!-- Node6 -->
<g id="Node000006" class="node">
<title>Node6</title>
<g id="a_Node000006"><a xlink:href="structCatch_1_1Matchers_1_1Floating_1_1WithinUlpsMatcher.html" target="_top" xlink:title=" ">
<polygon fill="white" stroke="#666666" points="829.5,-629.5 658.5,-629.5 658.5,-599.5 829.5,-599.5 829.5,-629.5"/>
<text text-anchor="start" x="666.5" y="-617.5" font-family="Helvetica,sans-Serif" font-size="10.00">Catch::Matchers::Floating</text>
<text text-anchor="middle" x="744" y="-606.5" font-family="Helvetica,sans-Serif" font-size="10.00">::WithinUlpsMatcher&lt; double &gt;</text>
</a>
</g>
</g>
<!-- Node1&#45;&gt;Node6 -->
<g id="edge5_Node000001_Node000006" class="edge">
<title>Node1&#45;&gt;Node6</title>
<g id="a_edge5_Node000001_Node000006"><a xlink:title=" ">
<path fill="none" stroke="#63b8ff" d="M460.61,-363.73C470.55,-400.45 493.23,-469.18 533,-514.5 571.75,-558.66 634.29,-584.93 681.06,-599.37"/>
<polygon fill="#63b8ff" stroke="#63b8ff" points="463.94,-362.64 458.03,-353.84 457.17,-364.4 463.94,-362.64"/>
</a>
</g>
</g>
<!-- Node7 -->
<g id="Node000007" class="node">
<title>Node7</title>
<g id="a_Node000007"><a xlink:href="classCatch_1_1Matchers_1_1Generic_1_1PredicateMatcher.html" target="_top" xlink:title=" ">
<polygon fill="white" stroke="#666666" points="813.5,-581.5 674.5,-581.5 674.5,-551.5 813.5,-551.5 813.5,-581.5"/>
<text text-anchor="start" x="682.5" y="-569.5" font-family="Helvetica,sans-Serif" font-size="10.00">Catch::Matchers::Generic</text>
<text text-anchor="middle" x="744" y="-558.5" font-family="Helvetica,sans-Serif" font-size="10.00">::PredicateMatcher&lt; T &gt;</text>
</a>
</g>
</g>
<!-- Node1&#45;&gt;Node7 -->
<g id="edge6_Node000001_Node000007" class="edge">
<title>Node1&#45;&gt;Node7</title>
<g id="a_edge6_Node000001_Node000007"><a xlink:title=" ">
<path fill="none" stroke="#63b8ff" d="M464.95,-363.23C477.77,-391.35 501.7,-437.37 533,-468.5 578.5,-513.76 598.02,-517.21 657,-542.5 664.69,-545.8 672.97,-548.77 681.23,-551.41"/>
<polygon fill="#63b8ff" stroke="#63b8ff" points="467.99,-361.46 460.74,-353.74 461.59,-364.3 467.99,-361.46"/>
</a>
</g>
</g>
<!-- Node8 -->
<g id="Node000008" class="node">
<title>Node8</title>
<g id="a_Node000008"><a xlink:href="structCatch_1_1Matchers_1_1StdString_1_1RegexMatcher.html" target="_top" xlink:title=" ">
<polygon fill="white" stroke="#666666" points="826,-533.5 662,-533.5 662,-503.5 826,-503.5 826,-533.5"/>
<text text-anchor="start" x="670" y="-521.5" font-family="Helvetica,sans-Serif" font-size="10.00">Catch::Matchers::StdString</text>
<text text-anchor="middle" x="744" y="-510.5" font-family="Helvetica,sans-Serif" font-size="10.00">::RegexMatcher&lt; std::string &gt;</text>
</a>
</g>
</g>
<!-- Node1&#45;&gt;Node8 -->
<g id="edge7_Node000001_Node000008" class="edge">
<title>Node1&#45;&gt;Node8</title>
<g id="a_edge7_Node000001_Node000008"><a xlink:title=" ">
<path fill="none" stroke="#63b8ff" d="M472.04,-361.45C486.93,-379.93 509.55,-405.83 533,-424.5 582.51,-463.92 598.54,-470.26 657,-494.5 664.88,-497.77 673.34,-500.74 681.77,-503.39"/>
<polygon fill="#63b8ff" stroke="#63b8ff" points="474.72,-359.19 465.77,-353.53 469.23,-363.54 474.72,-359.19"/>
</a>
</g>
</g>
<!-- Node9 -->
<g id="Node000009" class="node">
<title>Node9</title>
<g id="a_Node000009"><a xlink:href="structCatch_1_1Matchers_1_1StdString_1_1StringMatcherBase.html" target="_top" xlink:title=" ">
<polygon fill="white" stroke="#666666" points="817,-485 671,-485 671,-444 817,-444 817,-485"/>
<text text-anchor="start" x="679" y="-473" font-family="Helvetica,sans-Serif" font-size="10.00">Catch::Matchers::StdString</text>
<text text-anchor="start" x="679" y="-462" font-family="Helvetica,sans-Serif" font-size="10.00">::StringMatcherBase&lt; std</text>
<text text-anchor="middle" x="744" y="-451" font-family="Helvetica,sans-Serif" font-size="10.00">::string &gt;</text>
</a>
</g>
</g>
<!-- Node1&#45;&gt;Node9 -->
<g id="edge8_Node000001_Node000009" class="edge">
<title>Node1&#45;&gt;Node9</title>
<g id="a_edge8_Node000001_Node000009"><a xlink:title=" ">
<path fill="none" stroke="#63b8ff" d="M482.84,-359.71C497.33,-369.91 515.56,-381.79 533,-390.5 577.1,-412.51 629.36,-430.96 670.72,-443.92"/>
<polygon fill="#63b8ff" stroke="#63b8ff" points="484.5,-356.59 474.33,-353.61 480.42,-362.28 484.5,-356.59"/>
</a>
</g>
</g>
<!-- Node14 -->
<g id="Node000014" class="node">
<title>Node14</title>
<g id="a_Node000014"><a xlink:href="structCatch_1_1Matchers_1_1Vector_1_1ApproxMatcher.html" target="_top" xlink:title=" ">
<polygon fill="white" stroke="#666666" points="810,-425.5 678,-425.5 678,-395.5 810,-395.5 810,-425.5"/>
<text text-anchor="start" x="686" y="-413.5" font-family="Helvetica,sans-Serif" font-size="10.00">Catch::Matchers::Vector</text>
<text text-anchor="middle" x="744" y="-402.5" font-family="Helvetica,sans-Serif" font-size="10.00">::ApproxMatcher&lt; T &gt;</text>
</a>
</g>
</g>
<!-- Node1&#45;&gt;Node14 -->
<g id="edge13_Node000001_Node000014" class="edge">
<title>Node1&#45;&gt;Node14</title>
<g id="a_edge13_Node000001_Node000014"><a xlink:title=" ">
<path fill="none" stroke="#63b8ff" d="M509.15,-356.58C517.12,-359.02 525.25,-361.4 533,-363.5 581.14,-376.53 636.18,-388.75 677.84,-397.46"/>
<polygon fill="#63b8ff" stroke="#63b8ff" points="510.13,-353.22 499.54,-353.59 508.05,-359.91 510.13,-353.22"/>
</a>
</g>
</g>
<!-- Node15 -->
<g id="Node000015" class="node">
<title>Node15</title>
<g id="a_Node000015"><a xlink:href="structCatch_1_1Matchers_1_1Vector_1_1ContainsElementMatcher.html" target="_top" xlink:title=" ">
<polygon fill="white" stroke="#666666" points="831,-377.5 657,-377.5 657,-347.5 831,-347.5 831,-377.5"/>
<text text-anchor="start" x="665" y="-365.5" font-family="Helvetica,sans-Serif" font-size="10.00">Catch::Matchers::Vector</text>
<text text-anchor="middle" x="744" y="-354.5" font-family="Helvetica,sans-Serif" font-size="10.00">::ContainsElementMatcher&lt; T &gt;</text>
</a>
</g>
</g>
<!-- Node1&#45;&gt;Node15 -->
<g id="edge14_Node000001_Node000015" class="edge">
<title>Node1&#45;&gt;Node15</title>
<g id="a_edge14_Node000001_Node000015"><a xlink:title=" ">
<path fill="none" stroke="#63b8ff" d="M525.45,-344.4C565.13,-347.7 614.9,-351.84 656.81,-355.33"/>
<polygon fill="#63b8ff" stroke="#63b8ff" points="525.59,-340.9 515.33,-343.56 525.01,-347.88 525.59,-340.9"/>
</a>
</g>
</g>
<!-- Node16 -->
<g id="Node000016" class="node">
<title>Node16</title>
<g id="a_Node000016"><a xlink:href="structCatch_1_1Matchers_1_1Vector_1_1ContainsMatcher.html" target="_top" xlink:title=" ">
<polygon fill="white" stroke="#666666" points="811,-329.5 677,-329.5 677,-299.5 811,-299.5 811,-329.5"/>
<text text-anchor="start" x="685" y="-317.5" font-family="Helvetica,sans-Serif" font-size="10.00">Catch::Matchers::Vector</text>
<text text-anchor="middle" x="744" y="-306.5" font-family="Helvetica,sans-Serif" font-size="10.00">::ContainsMatcher&lt; T &gt;</text>
</a>
</g>
</g>
<!-- Node1&#45;&gt;Node16 -->
<g id="edge15_Node000001_Node000016" class="edge">
<title>Node1&#45;&gt;Node16</title>
<g id="a_edge15_Node000001_Node000016"><a xlink:title=" ">
<path fill="none" stroke="#63b8ff" d="M525.58,-332.59C571.84,-328.74 631.76,-323.75 676.98,-319.99"/>
<polygon fill="#63b8ff" stroke="#63b8ff" points="525.01,-329.12 515.33,-333.44 525.59,-336.1 525.01,-329.12"/>
</a>
</g>
</g>
<!-- Node17 -->
<g id="Node000017" class="node">
<title>Node17</title>
<g id="a_Node000017"><a xlink:href="structCatch_1_1Matchers_1_1Vector_1_1EqualsMatcher.html" target="_top" xlink:title=" ">
<polygon fill="white" stroke="#666666" points="810,-281.5 678,-281.5 678,-251.5 810,-251.5 810,-281.5"/>
<text text-anchor="start" x="686" y="-269.5" font-family="Helvetica,sans-Serif" font-size="10.00">Catch::Matchers::Vector</text>
<text text-anchor="middle" x="744" y="-258.5" font-family="Helvetica,sans-Serif" font-size="10.00">::EqualsMatcher&lt; T &gt;</text>
</a>
</g>
</g>
<!-- Node1&#45;&gt;Node17 -->
<g id="edge16_Node000001_Node000017" class="edge">
<title>Node1&#45;&gt;Node17</title>
<g id="a_edge16_Node000001_Node000017"><a xlink:title=" ">
<path fill="none" stroke="#63b8ff" d="M524.38,-321.06C572.69,-309 636.31,-293.13 682.45,-281.61"/>
<polygon fill="#63b8ff" stroke="#63b8ff" points="523.48,-317.68 514.63,-323.49 525.18,-324.47 523.48,-317.68"/>
</a>
</g>
</g>
<!-- Node18 -->
<g id="Node000018" class="node">
<title>Node18</title>
<g id="a_Node000018"><a xlink:href="structCatch_1_1Matchers_1_1Vector_1_1UnorderedEqualsMatcher.html" target="_top" xlink:title=" ">
<polygon fill="white" stroke="#666666" points="831,-233.5 657,-233.5 657,-203.5 831,-203.5 831,-233.5"/>
<text text-anchor="start" x="665" y="-221.5" font-family="Helvetica,sans-Serif" font-size="10.00">Catch::Matchers::Vector</text>
<text text-anchor="middle" x="744" y="-210.5" font-family="Helvetica,sans-Serif" font-size="10.00">::UnorderedEqualsMatcher&lt; T &gt;</text>
</a>
</g>
</g>
<!-- Node1&#45;&gt;Node18 -->
<g id="edge17_Node000001_Node000018" class="edge">
<title>Node1&#45;&gt;Node18</title>
<g id="a_edge17_Node000001_Node000018"><a xlink:title=" ">
<path fill="none" stroke="#63b8ff" d="M485.7,-317.64C499.81,-308.68 516.91,-298.45 533,-290.5 582.93,-265.82 643.4,-246.06 686.6,-233.53"/>
<polygon fill="#63b8ff" stroke="#63b8ff" points="483.41,-314.95 476.9,-323.31 487.2,-320.84 483.41,-314.95"/>
</a>
</g>
</g>
<!-- Node19 -->
<g id="Node000019" class="node">
<title>Node19</title>
<g id="a_Node000019"><a xlink:href="structCatch_1_1Matchers_1_1Impl_1_1MatcherBase.html" target="_top" xlink:title=" ">
<polygon fill="white" stroke="#666666" points="815,-185.5 673,-185.5 673,-155.5 815,-155.5 815,-185.5"/>
<text text-anchor="start" x="681" y="-173.5" font-family="Helvetica,sans-Serif" font-size="10.00">Catch::Matchers::Impl</text>
<text text-anchor="middle" x="744" y="-162.5" font-family="Helvetica,sans-Serif" font-size="10.00">::MatcherBase&lt; double &gt;</text>
</a>
</g>
</g>
<!-- Node1&#45;&gt;Node19 -->
<g id="edge18_Node000001_Node000019" class="edge">
<title>Node1&#45;&gt;Node19</title>
<g id="a_edge18_Node000001_Node000019"><a xlink:title=" ">
<path fill="none" stroke="orange" stroke-dasharray="5,2" d="M467.21,-314.32C480.64,-291 503.88,-256.27 533,-235.5 574.33,-206.03 629.4,-189.64 672.77,-180.69"/>
<polygon fill="orange" stroke="orange" points="464.05,-312.8 462.23,-323.24 470.16,-316.22 464.05,-312.8"/>
</a>
</g>
<text text-anchor="middle" x="586" y="-238.5" font-family="Helvetica,sans-Serif" font-size="10.00" fill="grey"> &lt; double &gt;</text>
</g>
<!-- Node20 -->
<g id="Node000020" class="node">
<title>Node20</title>
<g id="a_Node000020"><a xlink:href="structCatch_1_1Matchers_1_1Impl_1_1MatcherBase.html" target="_top" xlink:title=" ">
<polygon fill="white" stroke="#666666" points="809.5,-137.5 678.5,-137.5 678.5,-107.5 809.5,-107.5 809.5,-137.5"/>
<text text-anchor="start" x="686.5" y="-125.5" font-family="Helvetica,sans-Serif" font-size="10.00">Catch::Matchers::Impl</text>
<text text-anchor="middle" x="744" y="-114.5" font-family="Helvetica,sans-Serif" font-size="10.00">::MatcherBase&lt; ArgT &gt;</text>
</a>
</g>
</g>
<!-- Node1&#45;&gt;Node20 -->
<g id="edge19_Node000001_Node000020" class="edge">
<title>Node1&#45;&gt;Node20</title>
<g id="a_edge19_Node000001_Node000020"><a xlink:title=" ">
<path fill="none" stroke="orange" stroke-dasharray="5,2" d="M459.65,-313.05C468.32,-276.9 489.34,-211.14 533,-175.5 573.93,-142.09 633.18,-129.39 678.32,-124.73"/>
<polygon fill="orange" stroke="orange" points="456.13,-312.72 457.34,-323.25 462.96,-314.26 456.13,-312.72"/>
</a>
</g>
<text text-anchor="middle" x="586" y="-178.5" font-family="Helvetica,sans-Serif" font-size="10.00" fill="grey"> &lt; ArgT &gt;</text>
</g>
<!-- Node24 -->
<g id="Node000024" class="node">
<title>Node24</title>
<g id="a_Node000024"><a xlink:href="structCatch_1_1Matchers_1_1Impl_1_1MatcherBase.html" target="_top" xlink:title=" ">
<polygon fill="white" stroke="#666666" points="823,-89.5 665,-89.5 665,-59.5 823,-59.5 823,-89.5"/>
<text text-anchor="start" x="673" y="-77.5" font-family="Helvetica,sans-Serif" font-size="10.00">Catch::Matchers::Impl</text>
<text text-anchor="middle" x="744" y="-66.5" font-family="Helvetica,sans-Serif" font-size="10.00">::MatcherBase&lt; std::string &gt;</text>
</a>
</g>
</g>
<!-- Node1&#45;&gt;Node24 -->
<g id="edge23_Node000001_Node000024" class="edge">
<title>Node1&#45;&gt;Node24</title>
<g id="a_edge23_Node000001_Node000024"><a xlink:title=" ">
<path fill="none" stroke="orange" stroke-dasharray="5,2" d="M455.73,-313.32C459.4,-267.09 474.12,-168.7 533,-117.5 568.95,-86.24 621.45,-75.49 664.96,-72.56"/>
<polygon fill="orange" stroke="orange" points="452.23,-313.17 455.04,-323.39 459.21,-313.65 452.23,-313.17"/>
</a>
</g>
<text text-anchor="middle" x="586" y="-120.5" font-family="Helvetica,sans-Serif" font-size="10.00" fill="grey"> &lt; std::string &gt;</text>
</g>
<!-- Node25 -->
<g id="Node000025" class="node">
<title>Node25</title>
<g id="a_Node000025"><a xlink:href="structCatch_1_1Matchers_1_1Impl_1_1MatcherBase.html" target="_top" xlink:title=" ">
<polygon fill="white" stroke="#666666" points="818.5,-41 669.5,-41 669.5,0 818.5,0 818.5,-41"/>
<text text-anchor="start" x="677.5" y="-29" font-family="Helvetica,sans-Serif" font-size="10.00">Catch::Matchers::Impl</text>
<text text-anchor="start" x="677.5" y="-18" font-family="Helvetica,sans-Serif" font-size="10.00">::MatcherBase&lt; std::vector</text>
<text text-anchor="middle" x="744" y="-7" font-family="Helvetica,sans-Serif" font-size="10.00">&lt; T &gt; &gt;</text>
</a>
</g>
</g>
<!-- Node1&#45;&gt;Node25 -->
<g id="edge24_Node000001_Node000025" class="edge">
<title>Node1&#45;&gt;Node25</title>
<g id="a_edge24_Node000001_Node000025"><a xlink:title=" ">
<path fill="none" stroke="orange" stroke-dasharray="5,2" d="M458.2,-313.24C467.77,-251.44 495.25,-95.1 533,-60.5 569.39,-27.15 624.65,-17.65 669.35,-16.23"/>
<polygon fill="orange" stroke="orange" points="454.71,-312.89 456.67,-323.31 461.63,-313.95 454.71,-312.89"/>
</a>
</g>
<text text-anchor="middle" x="586" y="-63.5" font-family="Helvetica,sans-Serif" font-size="10.00" fill="grey"> &lt; std::vector&lt; T &gt; &gt;</text>
</g>
<!-- Node2 -->
<g id="Node000002" class="node">
<title>Node2</title>
<g id="a_Node000002"><a xlink:href="classCatch_1_1Matchers_1_1Impl_1_1MatcherUntypedBase.html" target="_top" xlink:title=" ">
<polygon fill="white" stroke="#666666" points="355,-377.5 227,-377.5 227,-347.5 355,-347.5 355,-377.5"/>
<text text-anchor="start" x="235" y="-365.5" font-family="Helvetica,sans-Serif" font-size="10.00">Catch::Matchers::Impl</text>
<text text-anchor="middle" x="291" y="-354.5" font-family="Helvetica,sans-Serif" font-size="10.00">::MatcherUntypedBase</text>
</a>
</g>
</g>
<!-- Node2&#45;&gt;Node1 -->
<g id="edge1_Node000001_Node000002" class="edge">
<title>Node2&#45;&gt;Node1</title>
<g id="a_edge1_Node000001_Node000002"><a xlink:title=" ">
<path fill="none" stroke="#63b8ff" d="M365.38,-351.53C374.24,-350.2 383.23,-348.86 391.88,-347.56"/>
<polygon fill="#63b8ff" stroke="#63b8ff" points="364.81,-348.07 355.43,-353.01 365.84,-355 364.81,-348.07"/>
</a>
</g>
</g>
<!-- Node3 -->
<g id="Node000003" class="node">
<title>Node3</title>
<g id="a_Node000003"><a xlink:href="structCatch_1_1Matchers_1_1Impl_1_1MatcherMethod.html" target="_top" xlink:title=" ">
<polygon fill="white" stroke="#666666" points="355,-329.5 227,-329.5 227,-299.5 355,-299.5 355,-329.5"/>
<text text-anchor="start" x="235" y="-317.5" font-family="Helvetica,sans-Serif" font-size="10.00">Catch::Matchers::Impl</text>
<text text-anchor="middle" x="291" y="-306.5" font-family="Helvetica,sans-Serif" font-size="10.00">::MatcherMethod&lt; T &gt;</text>
</a>
</g>
</g>
<!-- Node3&#45;&gt;Node1 -->
<g id="edge2_Node000001_Node000003" class="edge">
<title>Node3&#45;&gt;Node1</title>
<g id="a_edge2_Node000001_Node000003"><a xlink:title=" ">
<path fill="none" stroke="#63b8ff" d="M365.38,-325.47C374.24,-326.8 383.23,-328.14 391.88,-329.44"/>
<polygon fill="#63b8ff" stroke="#63b8ff" points="365.84,-322 355.43,-323.99 364.81,-328.93 365.84,-322"/>
</a>
</g>
</g>
<!-- Node4 -->
<g id="Node000004" class="node">
<title>Node4</title>
<g id="a_Node000004"><a xlink:href="structCatch_1_1Matchers_1_1Impl_1_1MatcherMethod.html" target="_top" xlink:title=" ">
<polygon fill="white" stroke="#666666" points="159,-329.5 0,-329.5 0,-299.5 159,-299.5 159,-329.5"/>
<text text-anchor="start" x="8" y="-317.5" font-family="Helvetica,sans-Serif" font-size="10.00">Catch::Matchers::Impl</text>
<text text-anchor="middle" x="79.5" y="-306.5" font-family="Helvetica,sans-Serif" font-size="10.00">::MatcherMethod&lt; ObjectT &gt;</text>
</a>
</g>
</g>
<!-- Node4&#45;&gt;Node3 -->
<g id="edge3_Node000003_Node000004" class="edge">
<title>Node4&#45;&gt;Node3</title>
<g id="a_edge3_Node000003_Node000004"><a xlink:title=" ">
<path fill="none" stroke="orange" stroke-dasharray="5,2" d="M169.18,-314.5C188.61,-314.5 208.8,-314.5 226.98,-314.5"/>
<polygon fill="orange" stroke="orange" points="169.11,-311 159.11,-314.5 169.11,-318 169.11,-311"/>
</a>
</g>
<text text-anchor="middle" x="193" y="-317.5" font-family="Helvetica,sans-Serif" font-size="10.00" fill="grey"> &lt; T &gt;</text>
</g>
<!-- Node10 -->
<g id="Node000010" class="node">
<title>Node10</title>
<g id="a_Node000010"><a xlink:href="structCatch_1_1Matchers_1_1StdString_1_1ContainsMatcher.html" target="_top" xlink:title=" ">
<polygon fill="white" stroke="#666666" points="1014,-551.5 868,-551.5 868,-521.5 1014,-521.5 1014,-551.5"/>
<text text-anchor="start" x="876" y="-539.5" font-family="Helvetica,sans-Serif" font-size="10.00">Catch::Matchers::StdString</text>
<text text-anchor="middle" x="941" y="-528.5" font-family="Helvetica,sans-Serif" font-size="10.00">::ContainsMatcher</text>
</a>
</g>
</g>
<!-- Node9&#45;&gt;Node10 -->
<g id="edge9_Node000009_Node000010" class="edge">
<title>Node9&#45;&gt;Node10</title>
<g id="a_edge9_Node000009_Node000010"><a xlink:title=" ">
<path fill="none" stroke="#63b8ff" d="M816.44,-488.69C821.39,-490.59 826.28,-492.54 831,-494.5 847.88,-501.52 851.07,-505.59 868,-512.5 875.69,-515.63 883.95,-518.68 892.04,-521.49"/>
<polygon fill="#63b8ff" stroke="#63b8ff" points="817.46,-485.34 806.87,-485.1 815,-491.89 817.46,-485.34"/>
</a>
</g>
</g>
<!-- Node11 -->
<g id="Node000011" class="node">
<title>Node11</title>
<g id="a_Node000011"><a xlink:href="structCatch_1_1Matchers_1_1StdString_1_1EndsWithMatcher.html" target="_top" xlink:title=" ">
<polygon fill="white" stroke="#666666" points="1014,-503.5 868,-503.5 868,-473.5 1014,-473.5 1014,-503.5"/>
<text text-anchor="start" x="876" y="-491.5" font-family="Helvetica,sans-Serif" font-size="10.00">Catch::Matchers::StdString</text>
<text text-anchor="middle" x="941" y="-480.5" font-family="Helvetica,sans-Serif" font-size="10.00">::EndsWithMatcher</text>
</a>
</g>
</g>
<!-- Node9&#45;&gt;Node11 -->
<g id="edge10_Node000009_Node000011" class="edge">
<title>Node9&#45;&gt;Node11</title>
<g id="a_edge10_Node000009_Node000011"><a xlink:title=" ">
<path fill="none" stroke="#63b8ff" d="M827.29,-474.63C840.79,-476.29 854.69,-478 867.91,-479.63"/>
<polygon fill="#63b8ff" stroke="#63b8ff" points="827.41,-471.12 817.06,-473.37 826.55,-478.06 827.41,-471.12"/>
</a>
</g>
</g>
<!-- Node12 -->
<g id="Node000012" class="node">
<title>Node12</title>
<g id="a_Node000012"><a xlink:href="structCatch_1_1Matchers_1_1StdString_1_1EqualsMatcher.html" target="_top" xlink:title=" ">
<polygon fill="white" stroke="#666666" points="1014,-455.5 868,-455.5 868,-425.5 1014,-425.5 1014,-455.5"/>
<text text-anchor="start" x="876" y="-443.5" font-family="Helvetica,sans-Serif" font-size="10.00">Catch::Matchers::StdString</text>
<text text-anchor="middle" x="941" y="-432.5" font-family="Helvetica,sans-Serif" font-size="10.00">::EqualsMatcher</text>
</a>
</g>
</g>
<!-- Node9&#45;&gt;Node12 -->
<g id="edge11_Node000009_Node000012" class="edge">
<title>Node9&#45;&gt;Node12</title>
<g id="a_edge11_Node000009_Node000012"><a xlink:title=" ">
<path fill="none" stroke="#63b8ff" d="M827.29,-454.37C840.79,-452.71 854.69,-451 867.91,-449.37"/>
<polygon fill="#63b8ff" stroke="#63b8ff" points="826.55,-450.94 817.06,-455.63 827.41,-457.88 826.55,-450.94"/>
</a>
</g>
</g>
<!-- Node13 -->
<g id="Node000013" class="node">
<title>Node13</title>
<g id="a_Node000013"><a xlink:href="structCatch_1_1Matchers_1_1StdString_1_1StartsWithMatcher.html" target="_top" xlink:title=" ">
<polygon fill="white" stroke="#666666" points="1014,-407.5 868,-407.5 868,-377.5 1014,-377.5 1014,-407.5"/>
<text text-anchor="start" x="876" y="-395.5" font-family="Helvetica,sans-Serif" font-size="10.00">Catch::Matchers::StdString</text>
<text text-anchor="middle" x="941" y="-384.5" font-family="Helvetica,sans-Serif" font-size="10.00">::StartsWithMatcher</text>
</a>
</g>
</g>
<!-- Node9&#45;&gt;Node13 -->
<g id="edge12_Node000009_Node000013" class="edge">
<title>Node9&#45;&gt;Node13</title>
<g id="a_edge12_Node000009_Node000013"><a xlink:title=" ">
<path fill="none" stroke="#63b8ff" d="M816.44,-440.31C821.39,-438.41 826.28,-436.46 831,-434.5 847.88,-427.48 851.07,-423.41 868,-416.5 875.69,-413.37 883.95,-410.32 892.04,-407.51"/>
<polygon fill="#63b8ff" stroke="#63b8ff" points="815,-437.11 806.87,-443.9 817.46,-443.66 815,-437.11"/>
</a>
</g>
</g>
<!-- Node21 -->
<g id="Node000021" class="node">
<title>Node21</title>
<g id="a_Node000021"><a xlink:href="structCatch_1_1Matchers_1_1Impl_1_1MatchAllOf.html" target="_top" xlink:title=" ">
<polygon fill="white" stroke="#666666" points="1002.5,-185.5 879.5,-185.5 879.5,-155.5 1002.5,-155.5 1002.5,-185.5"/>
<text text-anchor="start" x="887.5" y="-173.5" font-family="Helvetica,sans-Serif" font-size="10.00">Catch::Matchers::Impl</text>
<text text-anchor="middle" x="941" y="-162.5" font-family="Helvetica,sans-Serif" font-size="10.00">::MatchAllOf&lt; ArgT &gt;</text>
</a>
</g>
</g>
<!-- Node20&#45;&gt;Node21 -->
<g id="edge20_Node000020_Node000021" class="edge">
<title>Node20&#45;&gt;Node21</title>
<g id="a_edge20_Node000020_Node000021"><a xlink:title=" ">
<path fill="none" stroke="#63b8ff" d="M815.9,-139.95C836.72,-145.08 859.28,-150.63 879.39,-155.58"/>
<polygon fill="#63b8ff" stroke="#63b8ff" points="816.71,-136.55 806.16,-137.56 815.04,-143.34 816.71,-136.55"/>
</a>
</g>
</g>
<!-- Node22 -->
<g id="Node000022" class="node">
<title>Node22</title>
<g id="a_Node000022"><a xlink:href="structCatch_1_1Matchers_1_1Impl_1_1MatchAnyOf.html" target="_top" xlink:title=" ">
<polygon fill="white" stroke="#666666" points="1005,-137.5 877,-137.5 877,-107.5 1005,-107.5 1005,-137.5"/>
<text text-anchor="start" x="885" y="-125.5" font-family="Helvetica,sans-Serif" font-size="10.00">Catch::Matchers::Impl</text>
<text text-anchor="middle" x="941" y="-114.5" font-family="Helvetica,sans-Serif" font-size="10.00">::MatchAnyOf&lt; ArgT &gt;</text>
</a>
</g>
</g>
<!-- Node20&#45;&gt;Node22 -->
<g id="edge21_Node000020_Node000022" class="edge">
<title>Node20&#45;&gt;Node22</title>
<g id="a_edge21_Node000020_Node000022"><a xlink:title=" ">
<path fill="none" stroke="#63b8ff" d="M819.69,-122.5C838.55,-122.5 858.61,-122.5 876.84,-122.5"/>
<polygon fill="#63b8ff" stroke="#63b8ff" points="819.66,-119 809.66,-122.5 819.66,-126 819.66,-119"/>
</a>
</g>
</g>
<!-- Node23 -->
<g id="Node000023" class="node">
<title>Node23</title>
<g id="a_Node000023"><a xlink:href="structCatch_1_1Matchers_1_1Impl_1_1MatchNotOf.html" target="_top" xlink:title=" ">
<polygon fill="white" stroke="#666666" points="1004,-89.5 878,-89.5 878,-59.5 1004,-59.5 1004,-89.5"/>
<text text-anchor="start" x="886" y="-77.5" font-family="Helvetica,sans-Serif" font-size="10.00">Catch::Matchers::Impl</text>
<text text-anchor="middle" x="941" y="-66.5" font-family="Helvetica,sans-Serif" font-size="10.00">::MatchNotOf&lt; ArgT &gt;</text>
</a>
</g>
</g>
<!-- Node20&#45;&gt;Node23 -->
<g id="edge22_Node000020_Node000023" class="edge">
<title>Node20&#45;&gt;Node23</title>
<g id="a_edge22_Node000020_Node000023"><a xlink:title=" ">
<path fill="none" stroke="#63b8ff" d="M816.14,-104.99C836.77,-99.91 859.1,-94.41 879.05,-89.5"/>
<polygon fill="#63b8ff" stroke="#63b8ff" points="815.04,-101.66 806.16,-107.44 816.71,-108.45 815.04,-101.66"/>
</a>
</g>
</g>
</g>
</svg>

<g id="navigator" transform="translate(0 0)" fill="#404254">
  <rect fill="#f2f5e9" fill-opacity="0.5" stroke="#606060" stroke-width=".5" x="0" y="0" width="60" height="60"/>
  <use id="zoomplus" xlink:href="#zoomPlus" x="17" y="9" onmousedown="handleZoom(evt,'in')"/>
  <use id="zoomminus" xlink:href="#zoomMin" x="42" y="9" onmousedown="handleZoom(evt,'out')"/>
  <use id="reset" xlink:href="#resetDef" x="30" y="36" onmousedown="handleReset()"/>
   <use id="arrowup" xlink:href="#arrowUp" x="0" y="0" onmousedown="handlePan(0,-1)"/>
  <use id="arrowright" xlink:href="#arrowRight" x="0" y="0" onmousedown="handlePan(1,0)"/>
  <use id="arrowdown" xlink:href="#arrowDown" x="0" y="0" onmousedown="handlePan(0,1)"/>
  <use id="arrowleft" xlink:href="#arrowLeft" x="0" y="0" onmousedown="handlePan(-1,0)"/>
</g>
<svg viewBox="0 0 15 15" width="100%" height="30px" preserveAspectRatio="xMaxYMin meet">
 <g id="arrow_out" transform="scale(0.3 0.3)">
  <a xlink:href="structCatch_1_1Matchers_1_1Impl_1_1MatcherBase__inherit__graph_org.svg" target="_base">
   <rect id="button" ry="5" rx="5" y="6" x="6" height="38" width="38"
        fill="#f2f5e9" fill-opacity="0.5" stroke="#606060" stroke-width="1.0"/>
   <path id="arrow"
     d="M 11.500037,31.436501 C 11.940474,20.09759 22.043105,11.32322 32.158766,21.979434 L 37.068811,17.246167 C 37.068811,17.246167 37.088388,32 37.088388,32 L 22.160133,31.978069 C 22.160133,31.978069 26.997745,27.140456 26.997745,27.140456 C 18.528582,18.264221 13.291696,25.230495 11.500037,31.436501 z"
     style="fill:#404040;"/>
  </a>
 </g>
</svg>

<style type='text/css'>
<![CDATA[
[data-mouse-over-selected='false'] { opacity: 0.7; }
[data-mouse-over-selected='true']  { opacity: 1.0; }
]]>
</style>
<script type="application/ecmascript"><![CDATA[
document.addEventListener('DOMContentLoaded', (event) => {
  highlightEdges();
  highlightAdjacentNodes();
});
]]></script>
</svg>
