<?xml version="1.0" encoding="UTF-8" standalone="no"?>
<!DOCTYPE svg PUBLIC "-//W3C//DTD SVG 1.1//EN"
 "http://www.w3.org/Graphics/SVG/1.1/DTD/svg11.dtd">
<!-- Generated by graphviz version 2.43.0 (0)
 -->
<!-- Title: formatter&lt; T, Char, Enable &gt; Pages: 1 -->
<svg width="585pt" height="204pt"
 viewBox="0.00 0.00 585.00 204.00" xmlns="http://www.w3.org/2000/svg" xmlns:xlink="http://www.w3.org/1999/xlink">
<g id="graph0" class="graph" transform="scale(1 1) rotate(0) translate(4 200)">
<title>formatter&lt; T, Char, Enable &gt;</title>
<!-- Node1 -->
<g id="Node000001" class="node">
<title>Node1</title>
<g id="a_Node000001"><a xlink:title=" ">
<polygon fill="#999999" stroke="#666666" points="112,-78 0,-78 0,-48 112,-48 112,-78"/>
<text text-anchor="start" x="8" y="-66" font-family="Helvetica,sans-Serif" font-size="10.00">formatter&lt; T, Char,</text>
<text text-anchor="middle" x="56" y="-55" font-family="Helvetica,sans-Serif" font-size="10.00"> Enable &gt;</text>
</a>
</g>
</g>
<!-- Node2 -->
<g id="Node000002" class="node">
<title>Node2</title>
<g id="a_Node000002"><a xlink:href="structformatter.html" target="_top" xlink:title=" ">
<polygon fill="white" stroke="#666666" points="394,-126 261,-126 261,-96 394,-96 394,-126"/>
<text text-anchor="start" x="269" y="-114" font-family="Helvetica,sans-Serif" font-size="10.00">formatter&lt; basic_string</text>
<text text-anchor="middle" x="327.5" y="-103" font-family="Helvetica,sans-Serif" font-size="10.00">_view&lt; Char &gt;, Char &gt;</text>
</a>
</g>
</g>
<!-- Node1&#45;&gt;Node2 -->
<g id="edge1_Node000001_Node000002" class="edge">
<title>Node1&#45;&gt;Node2</title>
<g id="a_edge1_Node000001_Node000002"><a xlink:title=" ">
<path fill="none" stroke="orange" stroke-dasharray="5,2" d="M122.37,-76.55C124.95,-77.05 127.5,-77.53 130,-78 173.53,-86.12 222.65,-94.37 260.89,-100.59"/>
<polygon fill="orange" stroke="orange" points="122.85,-73.08 112.36,-74.6 121.5,-79.95 122.85,-73.08"/>
</a>
</g>
<text text-anchor="start" x="135.5" y="-111" font-family="Helvetica,sans-Serif" font-size="10.00" fill="grey"> &lt; basic_string_view</text>
<text text-anchor="middle" x="186.5" y="-100" font-family="Helvetica,sans-Serif" font-size="10.00" fill="grey">&lt; Char &gt;, Char &gt;</text>
</g>
<!-- Node5 -->
<g id="Node000005" class="node">
<title>Node5</title>
<g id="a_Node000005"><a xlink:href="structformatter.html" target="_top" xlink:title=" ">
<polygon fill="white" stroke="#666666" points="387,-72.5 268,-72.5 268,-53.5 387,-53.5 387,-72.5"/>
<text text-anchor="middle" x="327.5" y="-60.5" font-family="Helvetica,sans-Serif" font-size="10.00">formatter&lt; double &gt;</text>
</a>
</g>
</g>
<!-- Node1&#45;&gt;Node5 -->
<g id="edge4_Node000001_Node000005" class="edge">
<title>Node1&#45;&gt;Node5</title>
<g id="a_edge4_Node000001_Node000005"><a xlink:title=" ">
<path fill="none" stroke="orange" stroke-dasharray="5,2" d="M122.28,-63C166.61,-63 224.75,-63 267.65,-63"/>
<polygon fill="orange" stroke="orange" points="122.19,-59.5 112.19,-63 122.19,-66.5 122.19,-59.5"/>
</a>
</g>
<text text-anchor="middle" x="186.5" y="-66" font-family="Helvetica,sans-Serif" font-size="10.00" fill="grey"> &lt; double &gt;</text>
</g>
<!-- Node7 -->
<g id="Node000007" class="node">
<title>Node7</title>
<g id="a_Node000007"><a xlink:href="structformatter.html" target="_top" xlink:title=" ">
<polygon fill="white" stroke="#666666" points="390,-33 265,-33 265,-3 390,-3 390,-33"/>
<text text-anchor="start" x="273" y="-21" font-family="Helvetica,sans-Serif" font-size="10.00">formatter&lt; const void</text>
<text text-anchor="middle" x="327.5" y="-10" font-family="Helvetica,sans-Serif" font-size="10.00"> *, Char &gt;</text>
</a>
</g>
</g>
<!-- Node1&#45;&gt;Node7 -->
<g id="edge6_Node000001_Node000007" class="edge">
<title>Node1&#45;&gt;Node7</title>
<g id="a_edge6_Node000001_Node000007"><a xlink:title=" ">
<path fill="none" stroke="orange" stroke-dasharray="5,2" d="M122.36,-49.4C124.94,-48.92 127.49,-48.45 130,-48 175.01,-39.95 226.07,-32.19 264.86,-26.59"/>
<polygon fill="orange" stroke="orange" points="121.51,-46 112.35,-51.32 122.83,-52.87 121.51,-46"/>
</a>
</g>
<text text-anchor="middle" x="186.5" y="-51" font-family="Helvetica,sans-Serif" font-size="10.00" fill="grey"> &lt; const void *, Char &gt;</text>
</g>
<!-- Node3 -->
<g id="Node000003" class="node">
<title>Node3</title>
<g id="a_Node000003"><a xlink:href="structdetail_1_1fallback__formatter_3_01T_00_01Char_00_01enable__if__t_3_01is__streamable_3_01T_70fb5240ebb5f83009cdb1627fa42087.html" target="_top" xlink:title=" ">
<polygon fill="white" stroke="#666666" points="577,-196 431,-196 431,-144 577,-144 577,-196"/>
<text text-anchor="start" x="439" y="-184" font-family="Helvetica,sans-Serif" font-size="10.00">detail::fallback_formatter</text>
<text text-anchor="start" x="439" y="-173" font-family="Helvetica,sans-Serif" font-size="10.00">&lt; T, Char, enable_if_t&lt;</text>
<text text-anchor="start" x="439" y="-162" font-family="Helvetica,sans-Serif" font-size="10.00"> is_streamable&lt; T, Char &gt;</text>
<text text-anchor="middle" x="504" y="-151" font-family="Helvetica,sans-Serif" font-size="10.00">::value &gt; &gt;</text>
</a>
</g>
</g>
<!-- Node2&#45;&gt;Node3 -->
<g id="edge2_Node000002_Node000003" class="edge">
<title>Node2&#45;&gt;Node3</title>
<g id="a_edge2_Node000002_Node000003"><a xlink:title=" ">
<path fill="none" stroke="#8b1a1a" d="M382.73,-129.34C397.94,-134.48 414.72,-140.15 430.8,-145.59"/>
<polygon fill="#8b1a1a" stroke="#8b1a1a" points="383.58,-125.93 372.99,-126.04 381.34,-132.56 383.58,-125.93"/>
</a>
</g>
</g>
<!-- Node4 -->
<g id="Node000004" class="node">
<title>Node4</title>
<g id="a_Node000004"><a xlink:href="structformatter_3_01Char_0fN_0e_00_01Char_01_4.html" target="_top" xlink:title=" ">
<polygon fill="white" stroke="#666666" points="561.5,-126 446.5,-126 446.5,-96 561.5,-96 561.5,-126"/>
<text text-anchor="start" x="454.5" y="-114" font-family="Helvetica,sans-Serif" font-size="10.00">formatter&lt; Char[N],</text>
<text text-anchor="middle" x="504" y="-103" font-family="Helvetica,sans-Serif" font-size="10.00"> Char &gt;</text>
</a>
</g>
</g>
<!-- Node2&#45;&gt;Node4 -->
<g id="edge3_Node000002_Node000004" class="edge">
<title>Node2&#45;&gt;Node4</title>
<g id="a_edge3_Node000002_Node000004"><a xlink:title=" ">
<path fill="none" stroke="#63b8ff" d="M404.59,-111C418.62,-111 433.03,-111 446.35,-111"/>
<polygon fill="#63b8ff" stroke="#63b8ff" points="404.47,-107.5 394.47,-111 404.47,-114.5 404.47,-107.5"/>
</a>
</g>
</g>
<!-- Node6 -->
<g id="Node000006" class="node">
<title>Node6</title>
<g id="a_Node000006"><a xlink:href="structfmt_1_1formatter_3_01spdlog_1_1stopwatch_01_4.html" target="_top" xlink:title=" ">
<polygon fill="white" stroke="#666666" points="569,-78 439,-78 439,-48 569,-48 569,-78"/>
<text text-anchor="start" x="447" y="-66" font-family="Helvetica,sans-Serif" font-size="10.00">fmt::formatter&lt; spdlog</text>
<text text-anchor="middle" x="504" y="-55" font-family="Helvetica,sans-Serif" font-size="10.00">::stopwatch &gt;</text>
</a>
</g>
</g>
<!-- Node5&#45;&gt;Node6 -->
<g id="edge5_Node000005_Node000006" class="edge">
<title>Node5&#45;&gt;Node6</title>
<g id="a_edge5_Node000005_Node000006"><a xlink:title=" ">
<path fill="none" stroke="#63b8ff" d="M397.4,-63C411.07,-63 425.36,-63 438.87,-63"/>
<polygon fill="#63b8ff" stroke="#63b8ff" points="397.09,-59.5 387.09,-63 397.09,-66.5 397.09,-59.5"/>
</a>
</g>
</g>
<!-- Node8 -->
<g id="Node000008" class="node">
<title>Node8</title>
<g id="a_Node000008"><a xlink:href="structformatter_3_01void_01_5_00_01Char_01_4.html" target="_top" xlink:title=" ">
<polygon fill="white" stroke="#666666" points="557.5,-30 450.5,-30 450.5,0 557.5,0 557.5,-30"/>
<text text-anchor="start" x="458.5" y="-18" font-family="Helvetica,sans-Serif" font-size="10.00">formatter&lt; void *,</text>
<text text-anchor="middle" x="504" y="-7" font-family="Helvetica,sans-Serif" font-size="10.00"> Char &gt;</text>
</a>
</g>
</g>
<!-- Node7&#45;&gt;Node8 -->
<g id="edge7_Node000007_Node000008" class="edge">
<title>Node7&#45;&gt;Node8</title>
<g id="a_edge7_Node000007_Node000008"><a xlink:title=" ">
<path fill="none" stroke="#63b8ff" d="M400.34,-16.76C417.11,-16.48 434.66,-16.17 450.42,-15.9"/>
<polygon fill="#63b8ff" stroke="#63b8ff" points="399.96,-13.27 390.02,-16.94 400.08,-20.27 399.96,-13.27"/>
</a>
</g>
</g>
</g>
</svg>
