<?xml version="1.0" encoding="UTF-8" standalone="no"?>
<!DOCTYPE svg PUBLIC "-//W3C//DTD SVG 1.1//EN"
 "http://www.w3.org/Graphics/SVG/1.1/DTD/svg11.dtd">
<!-- Generated by graphviz version 2.43.0 (0)
 -->
<!-- Title: fmt::formatter&lt; spdlog::stopwatch &gt; Pages: 1 -->
<svg width="138pt" height="171pt"
 viewBox="0.00 0.00 138.00 171.00" xmlns="http://www.w3.org/2000/svg" xmlns:xlink="http://www.w3.org/1999/xlink">
<g id="graph0" class="graph" transform="scale(1 1) rotate(0) translate(4 167)">
<title>fmt::formatter&lt; spdlog::stopwatch &gt;</title>
<!-- Node1 -->
<g id="Node000001" class="node">
<title>Node1</title>
<g id="a_Node000001"><a xlink:title=" ">
<polygon fill="#999999" stroke="#666666" points="130,-30 0,-30 0,0 130,0 130,-30"/>
<text text-anchor="start" x="8" y="-18" font-family="Helvetica,sans-Serif" font-size="10.00">fmt::formatter&lt; spdlog</text>
<text text-anchor="middle" x="65" y="-7" font-family="Helvetica,sans-Serif" font-size="10.00">::stopwatch &gt;</text>
</a>
</g>
</g>
<!-- Node2 -->
<g id="Node000002" class="node">
<title>Node2</title>
<g id="a_Node000002"><a xlink:href="structformatter.html" target="_top" xlink:title=" ">
<polygon fill="white" stroke="#666666" points="124.5,-86 5.5,-86 5.5,-67 124.5,-67 124.5,-86"/>
<text text-anchor="middle" x="65" y="-74" font-family="Helvetica,sans-Serif" font-size="10.00">formatter&lt; double &gt;</text>
</a>
</g>
</g>
<!-- Node2&#45;&gt;Node1 -->
<g id="edge1_Node000001_Node000002" class="edge">
<title>Node2&#45;&gt;Node1</title>
<g id="a_edge1_Node000001_Node000002"><a xlink:title=" ">
<path fill="none" stroke="#63b8ff" d="M65,-56.73C65,-48.09 65,-38 65,-30.02"/>
<polygon fill="#63b8ff" stroke="#63b8ff" points="61.5,-56.98 65,-66.98 68.5,-56.98 61.5,-56.98"/>
</a>
</g>
</g>
<!-- Node3 -->
<g id="Node000003" class="node">
<title>Node3</title>
<g id="a_Node000003"><a xlink:href="structformatter.html" target="_top" xlink:title=" ">
<polygon fill="white" stroke="#666666" points="121,-163 9,-163 9,-133 121,-133 121,-163"/>
<text text-anchor="start" x="17" y="-151" font-family="Helvetica,sans-Serif" font-size="10.00">formatter&lt; T, Char,</text>
<text text-anchor="middle" x="65" y="-140" font-family="Helvetica,sans-Serif" font-size="10.00"> Enable &gt;</text>
</a>
</g>
</g>
<!-- Node3&#45;&gt;Node2 -->
<g id="edge2_Node000002_Node000003" class="edge">
<title>Node3&#45;&gt;Node2</title>
<g id="a_edge2_Node000002_Node000003"><a xlink:title=" ">
<path fill="none" stroke="orange" stroke-dasharray="5,2" d="M65,-122.56C65,-109.95 65,-95.35 65,-86.27"/>
<polygon fill="orange" stroke="orange" points="61.5,-122.94 65,-132.94 68.5,-122.94 61.5,-122.94"/>
</a>
</g>
<text text-anchor="middle" x="94.5" y="-107" font-family="Helvetica,sans-Serif" font-size="10.00" fill="grey"> &lt; double &gt;</text>
</g>
</g>
</svg>
