<?xml version="1.0" encoding="UTF-8" standalone="no"?>
<!DOCTYPE svg PUBLIC "-//W3C//DTD SVG 1.1//EN"
 "http://www.w3.org/Graphics/SVG/1.1/DTD/svg11.dtd">
<!-- Generated by graphviz version 2.43.0 (0)
 -->
<!-- Title: detail::is_range_&lt; T, void &gt; Pages: 1 -->
<svg width="608pt" height="78pt"
 viewBox="0.00 0.00 608.00 78.00" xmlns="http://www.w3.org/2000/svg" xmlns:xlink="http://www.w3.org/1999/xlink">
<g id="graph0" class="graph" transform="scale(1 1) rotate(0) translate(4 74)">
<title>detail::is_range_&lt; T, void &gt;</title>
<!-- Node1 -->
<g id="Node000001" class="node">
<title>Node1</title>
<g id="a_Node000001"><a xlink:title=" ">
<polygon fill="#999999" stroke="#666666" points="600,-41 495,-41 495,-11 600,-11 600,-41"/>
<text text-anchor="start" x="503" y="-29" font-family="Helvetica,sans-Serif" font-size="10.00">detail::is_range_&lt;</text>
<text text-anchor="middle" x="547.5" y="-18" font-family="Helvetica,sans-Serif" font-size="10.00"> T, void &gt;</text>
</a>
</g>
</g>
<!-- Node2 -->
<g id="Node000002" class="node">
<title>Node2</title>
<g id="a_Node000002"><a target="_parent" xlink:href="http://en.cppreference.com/w/cpp/types/integral_constant.html" xlink:title=" ">
<polygon fill="white" stroke="#666666" points="458,-52 288,-52 288,0 458,0 458,-52"/>
<text text-anchor="start" x="296" y="-40" font-family="Helvetica,sans-Serif" font-size="10.00">std::integral_constant</text>
<text text-anchor="start" x="296" y="-29" font-family="Helvetica,sans-Serif" font-size="10.00">&lt; bool,(has_const_begin</text>
<text text-anchor="start" x="296" y="-18" font-family="Helvetica,sans-Serif" font-size="10.00">_end&lt; T &gt;::value||has_mutable</text>
<text text-anchor="middle" x="373" y="-7" font-family="Helvetica,sans-Serif" font-size="10.00">_begin_end&lt; T &gt;::value)&gt;</text>
</a>
</g>
</g>
<!-- Node2&#45;&gt;Node1 -->
<g id="edge1_Node000001_Node000002" class="edge">
<title>Node2&#45;&gt;Node1</title>
<g id="a_edge1_Node000001_Node000002"><a xlink:title=" ">
<path fill="none" stroke="#63b8ff" d="M468.46,-26C477.5,-26 486.42,-26 494.81,-26"/>
<polygon fill="#63b8ff" stroke="#63b8ff" points="468.23,-22.5 458.23,-26 468.23,-29.5 468.23,-22.5"/>
</a>
</g>
</g>
<!-- Node3 -->
<g id="Node000003" class="node">
<title>Node3</title>
<g id="a_Node000003"><a target="_parent" xlink:href="http://en.cppreference.com/w/cpp/types/integral_constant.html" xlink:title=" ">
<polygon fill="white" stroke="#666666" points="122,-35.5 0,-35.5 0,-16.5 122,-16.5 122,-35.5"/>
<text text-anchor="middle" x="61" y="-23.5" font-family="Helvetica,sans-Serif" font-size="10.00">std::integral_constant</text>
</a>
</g>
</g>
<!-- Node3&#45;&gt;Node2 -->
<g id="edge2_Node000002_Node000003" class="edge">
<title>Node3&#45;&gt;Node2</title>
<g id="a_edge2_Node000002_Node000003"><a xlink:title=" ">
<path fill="none" stroke="orange" stroke-dasharray="5,2" d="M132.36,-26C178.57,-26 239.26,-26 288,-26"/>
<polygon fill="orange" stroke="orange" points="132.14,-22.5 122.14,-26 132.14,-29.5 132.14,-22.5"/>
</a>
</g>
<text text-anchor="start" x="140" y="-62" font-family="Helvetica,sans-Serif" font-size="10.00" fill="grey"> &lt; bool,(has_const_begin</text>
<text text-anchor="start" x="140" y="-51" font-family="Helvetica,sans-Serif" font-size="10.00" fill="grey">_end&lt; T &gt;::value||has</text>
<text text-anchor="start" x="140" y="-40" font-family="Helvetica,sans-Serif" font-size="10.00" fill="grey">_mutable_begin_end&lt; T &gt;</text>
<text text-anchor="middle" x="205" y="-29" font-family="Helvetica,sans-Serif" font-size="10.00" fill="grey">::value)&gt;</text>
</g>
</g>
</svg>
