<?xml version="1.0" encoding="UTF-8" standalone="no"?>
<!DOCTYPE svg PUBLIC "-//W3C//DTD SVG 1.1//EN"
 "http://www.w3.org/Graphics/SVG/1.1/DTD/svg11.dtd">
<!-- Generated by graphviz version 2.43.0 (0)
 -->
<!-- Title: is_contiguous&lt; T &gt; Pages: 1 -->
<svg width="161pt" height="238pt"
 viewBox="0.00 0.00 161.00 238.00" xmlns="http://www.w3.org/2000/svg" xmlns:xlink="http://www.w3.org/1999/xlink">
<g id="graph0" class="graph" transform="scale(1 1) rotate(0) translate(4 234)">
<title>is_contiguous&lt; T &gt;</title>
<!-- Node1 -->
<g id="Node000001" class="node">
<title>Node1</title>
<g id="a_Node000001"><a xlink:title=" ">
<polygon fill="#999999" stroke="#666666" points="132.5,-174 20.5,-174 20.5,-155 132.5,-155 132.5,-174"/>
<text text-anchor="middle" x="76.5" y="-162" font-family="Helvetica,sans-Serif" font-size="10.00">is_contiguous&lt; T &gt;</text>
</a>
</g>
</g>
<!-- Node3 -->
<g id="Node000003" class="node">
<title>Node3</title>
<g id="a_Node000003"><a xlink:href="structis__contiguous.html" target="_top" xlink:title=" ">
<polygon fill="white" stroke="#666666" points="153,-108 0,-108 0,-89 153,-89 153,-108"/>
<text text-anchor="middle" x="76.5" y="-96" font-family="Helvetica,sans-Serif" font-size="10.00">is_contiguous&lt; Container &gt;</text>
</a>
</g>
</g>
<!-- Node1&#45;&gt;Node3 -->
<g id="edge2_Node000001_Node000003" class="edge">
<title>Node1&#45;&gt;Node3</title>
<g id="a_edge2_Node000001_Node000003"><a xlink:title=" ">
<path fill="none" stroke="orange" stroke-dasharray="5,2" d="M76.5,-144.58C76.5,-132.63 76.5,-117.72 76.5,-108.41"/>
<polygon fill="orange" stroke="orange" points="73,-144.87 76.5,-154.87 80,-144.87 73,-144.87"/>
</a>
</g>
<text text-anchor="middle" x="113" y="-129" font-family="Helvetica,sans-Serif" font-size="10.00" fill="grey"> &lt; Container &gt;</text>
</g>
<!-- Node2 -->
<g id="Node000002" class="node">
<title>Node2</title>
<g id="a_Node000002"><a target="_parent" xlink:href="http://en.cppreference.com/w/cpp/types/integral_constant.html" xlink:title=" ">
<polygon fill="white" stroke="#666666" points="121,-230 32,-230 32,-211 121,-211 121,-230"/>
<text text-anchor="middle" x="76.5" y="-218" font-family="Helvetica,sans-Serif" font-size="10.00">std::false_type</text>
</a>
</g>
</g>
<!-- Node2&#45;&gt;Node1 -->
<g id="edge1_Node000001_Node000002" class="edge">
<title>Node2&#45;&gt;Node1</title>
<g id="a_edge1_Node000001_Node000002"><a xlink:title=" ">
<path fill="none" stroke="#63b8ff" d="M76.5,-200.3C76.5,-191.41 76.5,-181.28 76.5,-174.25"/>
<polygon fill="#63b8ff" stroke="#63b8ff" points="73,-200.58 76.5,-210.58 80,-200.58 73,-200.58"/>
</a>
</g>
</g>
<!-- Node4 -->
<g id="Node000004" class="node">
<title>Node4</title>
<g id="a_Node000004"><a xlink:href="structis__contiguous__back__insert__iterator_3_01std_1_1back__insert__iterator_3_01Container_01_4_01_4.html" target="_top" xlink:title=" ">
<polygon fill="white" stroke="#666666" points="136.5,-52 16.5,-52 16.5,0 136.5,0 136.5,-52"/>
<text text-anchor="start" x="24.5" y="-40" font-family="Helvetica,sans-Serif" font-size="10.00">is_contiguous_back</text>
<text text-anchor="start" x="24.5" y="-29" font-family="Helvetica,sans-Serif" font-size="10.00">_insert_iterator&lt; std</text>
<text text-anchor="start" x="24.5" y="-18" font-family="Helvetica,sans-Serif" font-size="10.00">::back_insert_iterator</text>
<text text-anchor="middle" x="76.5" y="-7" font-family="Helvetica,sans-Serif" font-size="10.00">&lt; Container &gt; &gt;</text>
</a>
</g>
</g>
<!-- Node3&#45;&gt;Node4 -->
<g id="edge3_Node000003_Node000004" class="edge">
<title>Node3&#45;&gt;Node4</title>
<g id="a_edge3_Node000003_Node000004"><a xlink:title=" ">
<path fill="none" stroke="#63b8ff" d="M76.5,-78.6C76.5,-70.46 76.5,-60.83 76.5,-52.1"/>
<polygon fill="#63b8ff" stroke="#63b8ff" points="73,-78.86 76.5,-88.86 80,-78.86 73,-78.86"/>
</a>
</g>
</g>
</g>
</svg>
