<?xml version="1.0" encoding="UTF-8" standalone="no"?>
<!DOCTYPE svg PUBLIC "-//W3C//DTD SVG 1.1//EN"
 "http://www.w3.org/Graphics/SVG/1.1/DTD/svg11.dtd">
<!-- Generated by graphviz version 2.43.0 (0)
 -->
<!-- Title: is_contiguous_back_insert_iterator&lt; std::back_insert_iterator&lt; Container &gt; &gt; Pages: 1 -->
<svg width="209pt" height="238pt"
 viewBox="0.00 0.00 208.50 238.00" xmlns="http://www.w3.org/2000/svg" xmlns:xlink="http://www.w3.org/1999/xlink">
<g id="graph0" class="graph" transform="scale(1 1) rotate(0) translate(4 234)">
<title>is_contiguous_back_insert_iterator&lt; std::back_insert_iterator&lt; Container &gt; &gt;</title>
<!-- Node1 -->
<g id="Node000001" class="node">
<title>Node1</title>
<g id="a_Node000001"><a xlink:title=" ">
<polygon fill="#999999" stroke="#666666" points="136.5,-52 16.5,-52 16.5,0 136.5,0 136.5,-52"/>
<text text-anchor="start" x="24.5" y="-40" font-family="Helvetica,sans-Serif" font-size="10.00">is_contiguous_back</text>
<text text-anchor="start" x="24.5" y="-29" font-family="Helvetica,sans-Serif" font-size="10.00">_insert_iterator&lt; std</text>
<text text-anchor="start" x="24.5" y="-18" font-family="Helvetica,sans-Serif" font-size="10.00">::back_insert_iterator</text>
<text text-anchor="middle" x="76.5" y="-7" font-family="Helvetica,sans-Serif" font-size="10.00">&lt; Container &gt; &gt;</text>
</a>
</g>
</g>
<!-- Node2 -->
<g id="Node000002" class="node">
<title>Node2</title>
<g id="a_Node000002"><a xlink:href="structis__contiguous.html" target="_top" xlink:title=" ">
<polygon fill="white" stroke="#666666" points="153,-108 0,-108 0,-89 153,-89 153,-108"/>
<text text-anchor="middle" x="76.5" y="-96" font-family="Helvetica,sans-Serif" font-size="10.00">is_contiguous&lt; Container &gt;</text>
</a>
</g>
</g>
<!-- Node2&#45;&gt;Node1 -->
<g id="edge1_Node000001_Node000002" class="edge">
<title>Node2&#45;&gt;Node1</title>
<g id="a_edge1_Node000001_Node000002"><a xlink:title=" ">
<path fill="none" stroke="#63b8ff" d="M76.5,-78.6C76.5,-70.46 76.5,-60.83 76.5,-52.1"/>
<polygon fill="#63b8ff" stroke="#63b8ff" points="73,-78.86 76.5,-88.86 80,-78.86 73,-78.86"/>
</a>
</g>
</g>
<!-- Node3 -->
<g id="Node000003" class="node">
<title>Node3</title>
<g id="a_Node000003"><a target="_parent" xlink:href="http://en.cppreference.com/w/cpp/types/integral_constant.html" xlink:title=" ">
<polygon fill="white" stroke="#666666" points="117,-230 28,-230 28,-211 117,-211 117,-230"/>
<text text-anchor="middle" x="72.5" y="-218" font-family="Helvetica,sans-Serif" font-size="10.00">std::false_type</text>
</a>
</g>
</g>
<!-- Node3&#45;&gt;Node2 -->
<g id="edge2_Node000002_Node000003" class="edge">
<title>Node3&#45;&gt;Node2</title>
<g id="a_edge2_Node000002_Node000003"><a xlink:title=" ">
<path fill="none" stroke="#63b8ff" d="M73.13,-200.65C74.01,-174.22 75.57,-127.26 76.21,-108.05"/>
<polygon fill="#63b8ff" stroke="#63b8ff" points="69.62,-200.76 72.79,-210.87 76.62,-200.99 69.62,-200.76"/>
</a>
</g>
</g>
<!-- Node4 -->
<g id="Node000004" class="node">
<title>Node4</title>
<g id="a_Node000004"><a xlink:href="structis__contiguous.html" target="_top" xlink:title=" ">
<polygon fill="white" stroke="#666666" points="200.5,-174 88.5,-174 88.5,-155 200.5,-155 200.5,-174"/>
<text text-anchor="middle" x="144.5" y="-162" font-family="Helvetica,sans-Serif" font-size="10.00">is_contiguous&lt; T &gt;</text>
</a>
</g>
</g>
<!-- Node3&#45;&gt;Node4 -->
<g id="edge4_Node000004_Node000003" class="edge">
<title>Node3&#45;&gt;Node4</title>
<g id="a_edge4_Node000004_Node000003"><a xlink:title=" ">
<path fill="none" stroke="#63b8ff" d="M92.37,-204.6C105.32,-194.88 121.8,-182.53 132.72,-174.33"/>
<polygon fill="#63b8ff" stroke="#63b8ff" points="89.97,-202.02 84.07,-210.82 94.17,-207.62 89.97,-202.02"/>
</a>
</g>
</g>
<!-- Node4&#45;&gt;Node2 -->
<g id="edge3_Node000002_Node000004" class="edge">
<title>Node4&#45;&gt;Node2</title>
<g id="a_edge3_Node000002_Node000004"><a xlink:title=" ">
<path fill="none" stroke="orange" stroke-dasharray="5,2" d="M127.85,-147.83C114.69,-135.44 96.78,-118.59 85.96,-108.41"/>
<polygon fill="orange" stroke="orange" points="125.65,-150.56 135.33,-154.87 130.45,-145.47 125.65,-150.56"/>
</a>
</g>
<text text-anchor="middle" x="151" y="-129" font-family="Helvetica,sans-Serif" font-size="10.00" fill="grey"> &lt; Container &gt;</text>
</g>
</g>
</svg>
