<?xml version="1.0" encoding="UTF-8" standalone="no"?>
<!DOCTYPE svg PUBLIC "-//W3C//DTD SVG 1.1//EN"
 "http://www.w3.org/Graphics/SVG/1.1/DTD/svg11.dtd">
<!-- Generated by graphviz version 2.43.0 (0)
 -->
<!-- Title: is_compile_string&lt; S &gt; Pages: 1 -->
<svg width="188pt" height="160pt"
 viewBox="0.00 0.00 188.00 160.00" xmlns="http://www.w3.org/2000/svg" xmlns:xlink="http://www.w3.org/1999/xlink">
<g id="graph0" class="graph" transform="scale(1 1) rotate(0) translate(4 156)">
<title>is_compile_string&lt; S &gt;</title>
<!-- Node1 -->
<g id="Node000001" class="node">
<title>Node1</title>
<g id="a_Node000001"><a xlink:title=" ">
<polygon fill="#999999" stroke="#666666" points="135.5,-19 4.5,-19 4.5,0 135.5,0 135.5,-19"/>
<text text-anchor="middle" x="70" y="-7" font-family="Helvetica,sans-Serif" font-size="10.00">is_compile_string&lt; S &gt;</text>
</a>
</g>
</g>
<!-- Node2 -->
<g id="Node000002" class="node">
<title>Node2</title>
<g id="a_Node000002"><a target="_parent" xlink:href="http://en.cppreference.com/w/cpp/types/is_base_of.html" xlink:title=" ">
<polygon fill="white" stroke="#666666" points="140,-86 0,-86 0,-56 140,-56 140,-86"/>
<text text-anchor="start" x="8" y="-74" font-family="Helvetica,sans-Serif" font-size="10.00">std::is_base_of&lt; compile</text>
<text text-anchor="middle" x="70" y="-63" font-family="Helvetica,sans-Serif" font-size="10.00">_string, S &gt;</text>
</a>
</g>
</g>
<!-- Node2&#45;&gt;Node1 -->
<g id="edge1_Node000001_Node000002" class="edge">
<title>Node2&#45;&gt;Node1</title>
<g id="a_edge1_Node000001_Node000002"><a xlink:title=" ">
<path fill="none" stroke="#63b8ff" d="M70,-45.79C70,-36.36 70,-26.15 70,-19.16"/>
<polygon fill="#63b8ff" stroke="#63b8ff" points="66.5,-45.9 70,-55.9 73.5,-45.9 66.5,-45.9"/>
</a>
</g>
</g>
<!-- Node3 -->
<g id="Node000003" class="node">
<title>Node3</title>
<g id="a_Node000003"><a target="_parent" xlink:href="http://en.cppreference.com/w/cpp/types/is_base_of.html" xlink:title=" ">
<polygon fill="white" stroke="#666666" points="114.5,-152 25.5,-152 25.5,-133 114.5,-133 114.5,-152"/>
<text text-anchor="middle" x="70" y="-140" font-family="Helvetica,sans-Serif" font-size="10.00">std::is_base_of</text>
</a>
</g>
</g>
<!-- Node3&#45;&gt;Node2 -->
<g id="edge2_Node000002_Node000003" class="edge">
<title>Node3&#45;&gt;Node2</title>
<g id="a_edge2_Node000002_Node000003"><a xlink:title=" ">
<path fill="none" stroke="orange" stroke-dasharray="5,2" d="M70,-122.71C70,-111.19 70,-96.68 70,-86.14"/>
<polygon fill="orange" stroke="orange" points="66.5,-122.98 70,-132.98 73.5,-122.98 66.5,-122.98"/>
</a>
</g>
<text text-anchor="middle" x="125" y="-107" font-family="Helvetica,sans-Serif" font-size="10.00" fill="grey"> &lt; compile_string, S &gt;</text>
</g>
</g>
</svg>
