<?xml version="1.0" encoding="UTF-8" standalone="no"?>
<!DOCTYPE svg PUBLIC "-//W3C//DTD SVG 1.1//EN"
 "http://www.w3.org/Graphics/SVG/1.1/DTD/svg11.dtd">
<!-- Generated by graphviz version 2.43.0 (0)
 -->
<!-- Title: spdlog::sinks::win_eventlog::internal::win32_error Pages: 1 -->
<svg width="116pt" height="159pt"
 viewBox="0.00 0.00 116.00 159.00" xmlns="http://www.w3.org/2000/svg" xmlns:xlink="http://www.w3.org/1999/xlink">
<g id="graph0" class="graph" transform="scale(1 1) rotate(0) translate(4 155)">
<title>spdlog::sinks::win_eventlog::internal::win32_error</title>
<!-- Node1 -->
<g id="Node000001" class="node">
<title>Node1</title>
<g id="a_Node000001"><a xlink:title=" ">
<polygon fill="#999999" stroke="#666666" points="108,-41 0,-41 0,0 108,0 108,-41"/>
<text text-anchor="start" x="8" y="-29" font-family="Helvetica,sans-Serif" font-size="10.00">spdlog::sinks::win</text>
<text text-anchor="start" x="8" y="-18" font-family="Helvetica,sans-Serif" font-size="10.00">_eventlog::internal</text>
<text text-anchor="middle" x="54" y="-7" font-family="Helvetica,sans-Serif" font-size="10.00">::win32_error</text>
</a>
</g>
</g>
<!-- Node2 -->
<g id="Node000002" class="node">
<title>Node2</title>
<g id="a_Node000002"><a xlink:href="classspdlog_1_1spdlog__ex.html" target="_top" xlink:title=" ">
<polygon fill="white" stroke="#666666" points="106,-96 2,-96 2,-77 106,-77 106,-96"/>
<text text-anchor="middle" x="54" y="-84" font-family="Helvetica,sans-Serif" font-size="10.00">spdlog::spdlog_ex</text>
</a>
</g>
</g>
<!-- Node2&#45;&gt;Node1 -->
<g id="edge1_Node000001_Node000002" class="edge">
<title>Node2&#45;&gt;Node1</title>
<g id="a_edge1_Node000001_Node000002"><a xlink:title=" ">
<path fill="none" stroke="#63b8ff" d="M54,-66.63C54,-58.56 54,-49.15 54,-41.01"/>
<polygon fill="#63b8ff" stroke="#63b8ff" points="50.5,-66.87 54,-76.87 57.5,-66.87 50.5,-66.87"/>
</a>
</g>
</g>
<!-- Node3 -->
<g id="Node000003" class="node">
<title>Node3</title>
<g id="a_Node000003"><a target="_parent" xlink:href="http://en.cppreference.com/w/cpp/error/exception.html" xlink:title=" ">
<polygon fill="white" stroke="#666666" points="97,-151 11,-151 11,-132 97,-132 97,-151"/>
<text text-anchor="middle" x="54" y="-139" font-family="Helvetica,sans-Serif" font-size="10.00">std::exception</text>
</a>
</g>
</g>
<!-- Node3&#45;&gt;Node2 -->
<g id="edge2_Node000002_Node000003" class="edge">
<title>Node3&#45;&gt;Node2</title>
<g id="a_edge2_Node000002_Node000003"><a xlink:title=" ">
<path fill="none" stroke="#63b8ff" d="M54,-121.66C54,-112.93 54,-102.99 54,-96.09"/>
<polygon fill="#63b8ff" stroke="#63b8ff" points="50.5,-121.75 54,-131.75 57.5,-121.75 50.5,-121.75"/>
</a>
</g>
</g>
</g>
</svg>
