<?xml version="1.0" encoding="UTF-8" standalone="no"?>
<!DOCTYPE svg PUBLIC "-//W3C//DTD SVG 1.1//EN"
 "http://www.w3.org/Graphics/SVG/1.1/DTD/svg11.dtd">
<!-- Generated by graphviz version 2.43.0 (0)
 -->
<!-- Title: Catch::Matchers::Impl::MatcherMethod&lt; ObjectT &gt; Pages: 1 -->
<svg width="1123pt" height="764pt"
 viewBox="0.00 0.00 1123.00 763.50" xmlns="http://www.w3.org/2000/svg" xmlns:xlink="http://www.w3.org/1999/xlink">
<g id="graph0" class="graph" transform="scale(1 1) rotate(0) translate(4 759.5)">
<title>Catch::Matchers::Impl::MatcherMethod&lt; ObjectT &gt;</title>
<!-- Node1 -->
<g id="Node000001" class="node">
<title>Node1</title>
<g id="a_Node000001"><a xlink:title=" ">
<polygon fill="#999999" stroke="#666666" points="159,-395.5 0,-395.5 0,-365.5 159,-365.5 159,-395.5"/>
<text text-anchor="start" x="8" y="-383.5" font-family="Helvetica,sans-Serif" font-size="10.00">Catch::Matchers::Impl</text>
<text text-anchor="middle" x="79.5" y="-372.5" font-family="Helvetica,sans-Serif" font-size="10.00">::MatcherMethod&lt; ObjectT &gt;</text>
</a>
</g>
</g>
<!-- Node2 -->
<g id="Node000002" class="node">
<title>Node2</title>
<g id="a_Node000002"><a xlink:href="structCatch_1_1Matchers_1_1Impl_1_1MatcherBase.html" target="_top" xlink:title=" ">
<polygon fill="white" stroke="#666666" points="916,-755.5 774,-755.5 774,-725.5 916,-725.5 916,-755.5"/>
<text text-anchor="start" x="782" y="-743.5" font-family="Helvetica,sans-Serif" font-size="10.00">Catch::Matchers::Impl</text>
<text text-anchor="middle" x="845" y="-732.5" font-family="Helvetica,sans-Serif" font-size="10.00">::MatcherBase&lt; double &gt;</text>
</a>
</g>
</g>
<!-- Node1&#45;&gt;Node2 -->
<g id="edge1_Node000001_Node000002" class="edge">
<title>Node1&#45;&gt;Node2</title>
<g id="a_edge1_Node000001_Node000002"><a xlink:title=" ">
<path fill="none" stroke="#63b8ff" d="M92.44,-404.79C108.64,-436.18 139.88,-491.44 177,-530.5 223.73,-579.67 240.58,-588.65 301,-619.5 457.76,-699.55 666.53,-726.95 773.8,-736.09"/>
<polygon fill="#63b8ff" stroke="#63b8ff" points="95.55,-403.19 87.9,-395.86 89.31,-406.36 95.55,-403.19"/>
</a>
</g>
</g>
<!-- Node3 -->
<g id="Node000003" class="node">
<title>Node3</title>
<g id="a_Node000003"><a xlink:href="structCatch_1_1Matchers_1_1Impl_1_1MatcherBase.html" target="_top" xlink:title=" ">
<polygon fill="white" stroke="#666666" points="910.5,-707.5 779.5,-707.5 779.5,-677.5 910.5,-677.5 910.5,-707.5"/>
<text text-anchor="start" x="787.5" y="-695.5" font-family="Helvetica,sans-Serif" font-size="10.00">Catch::Matchers::Impl</text>
<text text-anchor="middle" x="845" y="-684.5" font-family="Helvetica,sans-Serif" font-size="10.00">::MatcherBase&lt; ArgT &gt;</text>
</a>
</g>
</g>
<!-- Node1&#45;&gt;Node3 -->
<g id="edge2_Node000001_Node000003" class="edge">
<title>Node1&#45;&gt;Node3</title>
<g id="a_edge2_Node000001_Node000003"><a xlink:title=" ">
<path fill="none" stroke="#63b8ff" d="M99.89,-403.52C118.35,-424.6 147.61,-455.85 177,-478.5 354.06,-614.94 415.25,-642.51 634,-688.5 682,-698.59 737.53,-699.18 779.43,-697.47"/>
<polygon fill="#63b8ff" stroke="#63b8ff" points="102.32,-400.99 93.13,-395.71 97.03,-405.57 102.32,-400.99"/>
</a>
</g>
</g>
<!-- Node7 -->
<g id="Node000007" class="node">
<title>Node7</title>
<g id="a_Node000007"><a xlink:href="structCatch_1_1Matchers_1_1Impl_1_1MatcherBase.html" target="_top" xlink:title=" ">
<polygon fill="white" stroke="#666666" points="924,-659.5 766,-659.5 766,-629.5 924,-629.5 924,-659.5"/>
<text text-anchor="start" x="774" y="-647.5" font-family="Helvetica,sans-Serif" font-size="10.00">Catch::Matchers::Impl</text>
<text text-anchor="middle" x="845" y="-636.5" font-family="Helvetica,sans-Serif" font-size="10.00">::MatcherBase&lt; std::string &gt;</text>
</a>
</g>
</g>
<!-- Node1&#45;&gt;Node7 -->
<g id="edge6_Node000001_Node000007" class="edge">
<title>Node1&#45;&gt;Node7</title>
<g id="a_edge6_Node000001_Node000007"><a xlink:title=" ">
<path fill="none" stroke="#63b8ff" d="M114.09,-400.83C198.1,-450.48 425.55,-577.66 634,-629.5 676.74,-640.13 725.77,-644.08 765.71,-645.28"/>
<polygon fill="#63b8ff" stroke="#63b8ff" points="115.64,-397.68 105.26,-395.58 112.06,-403.7 115.64,-397.68"/>
</a>
</g>
</g>
<!-- Node8 -->
<g id="Node000008" class="node">
<title>Node8</title>
<g id="a_Node000008"><a xlink:href="structCatch_1_1Matchers_1_1Impl_1_1MatcherBase.html" target="_top" xlink:title=" ">
<polygon fill="white" stroke="#666666" points="919.5,-119 770.5,-119 770.5,-78 919.5,-78 919.5,-119"/>
<text text-anchor="start" x="778.5" y="-107" font-family="Helvetica,sans-Serif" font-size="10.00">Catch::Matchers::Impl</text>
<text text-anchor="start" x="778.5" y="-96" font-family="Helvetica,sans-Serif" font-size="10.00">::MatcherBase&lt; std::vector</text>
<text text-anchor="middle" x="845" y="-85" font-family="Helvetica,sans-Serif" font-size="10.00">&lt; T &gt; &gt;</text>
</a>
</g>
</g>
<!-- Node1&#45;&gt;Node8 -->
<g id="edge7_Node000001_Node000008" class="edge">
<title>Node1&#45;&gt;Node8</title>
<g id="a_edge7_Node000001_Node000008"><a xlink:title=" ">
<path fill="none" stroke="#63b8ff" d="M118.82,-360.83C207.35,-316.12 433.85,-205.8 634,-142.5 678.4,-128.46 729.5,-117.64 770.18,-110.24"/>
<polygon fill="#63b8ff" stroke="#63b8ff" points="117.04,-357.81 109.7,-365.46 120.2,-364.06 117.04,-357.81"/>
</a>
</g>
</g>
<!-- Node9 -->
<g id="Node000009" class="node">
<title>Node9</title>
<g id="a_Node000009"><a xlink:href="structCatch_1_1Matchers_1_1Impl_1_1MatcherMethod.html" target="_top" xlink:title=" ">
<polygon fill="white" stroke="#666666" points="456,-395.5 301,-395.5 301,-365.5 456,-365.5 456,-395.5"/>
<text text-anchor="start" x="309" y="-383.5" font-family="Helvetica,sans-Serif" font-size="10.00">Catch::Matchers::Impl</text>
<text text-anchor="middle" x="378.5" y="-372.5" font-family="Helvetica,sans-Serif" font-size="10.00">::MatcherMethod&lt; double &gt;</text>
</a>
</g>
</g>
<!-- Node1&#45;&gt;Node9 -->
<g id="edge8_Node000001_Node000009" class="edge">
<title>Node1&#45;&gt;Node9</title>
<g id="a_edge8_Node000001_Node000009"><a xlink:title=" ">
<path fill="none" stroke="orange" stroke-dasharray="5,2" d="M169.5,-380.5C211.34,-380.5 260.74,-380.5 300.89,-380.5"/>
<polygon fill="orange" stroke="orange" points="169.31,-377 159.31,-380.5 169.31,-384 169.31,-377"/>
</a>
</g>
<text text-anchor="middle" x="230" y="-383.5" font-family="Helvetica,sans-Serif" font-size="10.00" fill="grey"> &lt; double &gt;</text>
</g>
<!-- Node10 -->
<g id="Node000010" class="node">
<title>Node10</title>
<g id="a_Node000010"><a xlink:href="structCatch_1_1Matchers_1_1Impl_1_1MatcherMethod.html" target="_top" xlink:title=" ">
<polygon fill="white" stroke="#666666" points="450.5,-347.5 306.5,-347.5 306.5,-317.5 450.5,-317.5 450.5,-347.5"/>
<text text-anchor="start" x="314.5" y="-335.5" font-family="Helvetica,sans-Serif" font-size="10.00">Catch::Matchers::Impl</text>
<text text-anchor="middle" x="378.5" y="-324.5" font-family="Helvetica,sans-Serif" font-size="10.00">::MatcherMethod&lt; ArgT &gt;</text>
</a>
</g>
</g>
<!-- Node1&#45;&gt;Node10 -->
<g id="edge9_Node000001_Node000010" class="edge">
<title>Node1&#45;&gt;Node10</title>
<g id="a_edge9_Node000001_Node000010"><a xlink:title=" ">
<path fill="none" stroke="orange" stroke-dasharray="5,2" d="M169.39,-366.13C213.21,-359.05 265.33,-350.63 306.45,-343.98"/>
<polygon fill="orange" stroke="orange" points="168.62,-362.71 159.31,-367.76 169.74,-369.62 168.62,-362.71"/>
</a>
</g>
<text text-anchor="middle" x="230" y="-366.5" font-family="Helvetica,sans-Serif" font-size="10.00" fill="grey"> &lt; ArgT &gt;</text>
</g>
<!-- Node11 -->
<g id="Node000011" class="node">
<title>Node11</title>
<g id="a_Node000011"><a xlink:href="structCatch_1_1Matchers_1_1Impl_1_1MatcherMethod.html" target="_top" xlink:title=" ">
<polygon fill="white" stroke="#666666" points="442.5,-443.5 314.5,-443.5 314.5,-413.5 442.5,-413.5 442.5,-443.5"/>
<text text-anchor="start" x="322.5" y="-431.5" font-family="Helvetica,sans-Serif" font-size="10.00">Catch::Matchers::Impl</text>
<text text-anchor="middle" x="378.5" y="-420.5" font-family="Helvetica,sans-Serif" font-size="10.00">::MatcherMethod&lt; T &gt;</text>
</a>
</g>
</g>
<!-- Node1&#45;&gt;Node11 -->
<g id="edge10_Node000001_Node000011" class="edge">
<title>Node1&#45;&gt;Node11</title>
<g id="a_edge10_Node000001_Node000011"><a xlink:title=" ">
<path fill="none" stroke="orange" stroke-dasharray="5,2" d="M169.42,-394.87C216.07,-402.41 272.14,-411.47 314.31,-418.29"/>
<polygon fill="orange" stroke="orange" points="169.74,-391.38 159.31,-393.24 168.62,-398.29 169.74,-391.38"/>
</a>
</g>
<text text-anchor="middle" x="230" y="-415.5" font-family="Helvetica,sans-Serif" font-size="10.00" fill="grey"> &lt; T &gt;</text>
</g>
<!-- Node27 -->
<g id="Node000027" class="node">
<title>Node27</title>
<g id="a_Node000027"><a xlink:href="structCatch_1_1Matchers_1_1Impl_1_1MatcherMethod.html" target="_top" xlink:title=" ">
<polygon fill="white" stroke="#666666" points="441,-100 316,-100 316,-59 441,-59 441,-100"/>
<text text-anchor="start" x="324" y="-88" font-family="Helvetica,sans-Serif" font-size="10.00">Catch::Matchers::Impl</text>
<text text-anchor="start" x="324" y="-77" font-family="Helvetica,sans-Serif" font-size="10.00">::MatcherMethod&lt; std</text>
<text text-anchor="middle" x="378.5" y="-66" font-family="Helvetica,sans-Serif" font-size="10.00">::string &gt;</text>
</a>
</g>
</g>
<!-- Node1&#45;&gt;Node27 -->
<g id="edge30_Node000001_Node000027" class="edge">
<title>Node1&#45;&gt;Node27</title>
<g id="a_edge30_Node000001_Node000027"><a xlink:title=" ">
<path fill="none" stroke="orange" stroke-dasharray="5,2" d="M80.95,-355.44C83.42,-300.08 97.76,-167.23 177,-103.5 215.52,-72.52 272.43,-68.39 315.79,-70.92"/>
<polygon fill="orange" stroke="orange" points="77.45,-355.32 80.6,-365.43 84.45,-355.56 77.45,-355.32"/>
</a>
</g>
<text text-anchor="middle" x="230" y="-106.5" font-family="Helvetica,sans-Serif" font-size="10.00" fill="grey"> &lt; std::string &gt;</text>
</g>
<!-- Node28 -->
<g id="Node000028" class="node">
<title>Node28</title>
<g id="a_Node000028"><a xlink:href="structCatch_1_1Matchers_1_1Impl_1_1MatcherMethod.html" target="_top" xlink:title=" ">
<polygon fill="white" stroke="#666666" points="441,-41 316,-41 316,0 441,0 441,-41"/>
<text text-anchor="start" x="324" y="-29" font-family="Helvetica,sans-Serif" font-size="10.00">Catch::Matchers::Impl</text>
<text text-anchor="start" x="324" y="-18" font-family="Helvetica,sans-Serif" font-size="10.00">::MatcherMethod&lt; std</text>
<text text-anchor="middle" x="378.5" y="-7" font-family="Helvetica,sans-Serif" font-size="10.00">::vector&lt; T &gt; &gt;</text>
</a>
</g>
</g>
<!-- Node1&#45;&gt;Node28 -->
<g id="edge31_Node000001_Node000028" class="edge">
<title>Node1&#45;&gt;Node28</title>
<g id="a_edge31_Node000001_Node000028"><a xlink:title=" ">
<path fill="none" stroke="orange" stroke-dasharray="5,2" d="M79.72,-355.01C79.34,-293.29 87.61,-135.09 177,-55.5 214.47,-22.13 272.06,-15.01 315.93,-15.29"/>
<polygon fill="orange" stroke="orange" points="76.23,-355.42 79.88,-365.37 83.23,-355.32 76.23,-355.42"/>
</a>
</g>
<text text-anchor="middle" x="230" y="-58.5" font-family="Helvetica,sans-Serif" font-size="10.00" fill="grey"> &lt; std::vector&lt; T &gt; &gt;</text>
</g>
<!-- Node4 -->
<g id="Node000004" class="node">
<title>Node4</title>
<g id="a_Node000004"><a xlink:href="structCatch_1_1Matchers_1_1Impl_1_1MatchAllOf.html" target="_top" xlink:title=" ">
<polygon fill="white" stroke="#666666" points="1103.5,-755.5 980.5,-755.5 980.5,-725.5 1103.5,-725.5 1103.5,-755.5"/>
<text text-anchor="start" x="988.5" y="-743.5" font-family="Helvetica,sans-Serif" font-size="10.00">Catch::Matchers::Impl</text>
<text text-anchor="middle" x="1042" y="-732.5" font-family="Helvetica,sans-Serif" font-size="10.00">::MatchAllOf&lt; ArgT &gt;</text>
</a>
</g>
</g>
<!-- Node3&#45;&gt;Node4 -->
<g id="edge3_Node000003_Node000004" class="edge">
<title>Node3&#45;&gt;Node4</title>
<g id="a_edge3_Node000003_Node000004"><a xlink:title=" ">
<path fill="none" stroke="#63b8ff" d="M916.9,-709.95C937.72,-715.08 960.28,-720.63 980.39,-725.58"/>
<polygon fill="#63b8ff" stroke="#63b8ff" points="917.71,-706.55 907.16,-707.56 916.04,-713.34 917.71,-706.55"/>
</a>
</g>
</g>
<!-- Node5 -->
<g id="Node000005" class="node">
<title>Node5</title>
<g id="a_Node000005"><a xlink:href="structCatch_1_1Matchers_1_1Impl_1_1MatchAnyOf.html" target="_top" xlink:title=" ">
<polygon fill="white" stroke="#666666" points="1106,-707.5 978,-707.5 978,-677.5 1106,-677.5 1106,-707.5"/>
<text text-anchor="start" x="986" y="-695.5" font-family="Helvetica,sans-Serif" font-size="10.00">Catch::Matchers::Impl</text>
<text text-anchor="middle" x="1042" y="-684.5" font-family="Helvetica,sans-Serif" font-size="10.00">::MatchAnyOf&lt; ArgT &gt;</text>
</a>
</g>
</g>
<!-- Node3&#45;&gt;Node5 -->
<g id="edge4_Node000003_Node000005" class="edge">
<title>Node3&#45;&gt;Node5</title>
<g id="a_edge4_Node000003_Node000005"><a xlink:title=" ">
<path fill="none" stroke="#63b8ff" d="M920.69,-692.5C939.55,-692.5 959.61,-692.5 977.84,-692.5"/>
<polygon fill="#63b8ff" stroke="#63b8ff" points="920.66,-689 910.66,-692.5 920.66,-696 920.66,-689"/>
</a>
</g>
</g>
<!-- Node6 -->
<g id="Node000006" class="node">
<title>Node6</title>
<g id="a_Node000006"><a xlink:href="structCatch_1_1Matchers_1_1Impl_1_1MatchNotOf.html" target="_top" xlink:title=" ">
<polygon fill="white" stroke="#666666" points="1105,-659.5 979,-659.5 979,-629.5 1105,-629.5 1105,-659.5"/>
<text text-anchor="start" x="987" y="-647.5" font-family="Helvetica,sans-Serif" font-size="10.00">Catch::Matchers::Impl</text>
<text text-anchor="middle" x="1042" y="-636.5" font-family="Helvetica,sans-Serif" font-size="10.00">::MatchNotOf&lt; ArgT &gt;</text>
</a>
</g>
</g>
<!-- Node3&#45;&gt;Node6 -->
<g id="edge5_Node000003_Node000006" class="edge">
<title>Node3&#45;&gt;Node6</title>
<g id="a_edge5_Node000003_Node000006"><a xlink:title=" ">
<path fill="none" stroke="#63b8ff" d="M917.14,-674.99C937.77,-669.91 960.1,-664.41 980.05,-659.5"/>
<polygon fill="#63b8ff" stroke="#63b8ff" points="916.04,-671.66 907.16,-677.44 917.71,-678.45 916.04,-671.66"/>
</a>
</g>
</g>
<!-- Node12 -->
<g id="Node000012" class="node">
<title>Node12</title>
<g id="a_Node000012"><a xlink:href="structCatch_1_1Matchers_1_1Impl_1_1MatcherBase.html" target="_top" xlink:title=" ">
<polygon fill="white" stroke="#666666" points="616,-443.5 493,-443.5 493,-413.5 616,-413.5 616,-443.5"/>
<text text-anchor="start" x="501" y="-431.5" font-family="Helvetica,sans-Serif" font-size="10.00">Catch::Matchers::Impl</text>
<text text-anchor="middle" x="554.5" y="-420.5" font-family="Helvetica,sans-Serif" font-size="10.00">::MatcherBase&lt; T &gt;</text>
</a>
</g>
</g>
<!-- Node11&#45;&gt;Node12 -->
<g id="edge11_Node000011_Node000012" class="edge">
<title>Node11&#45;&gt;Node12</title>
<g id="a_edge11_Node000011_Node000012"><a xlink:title=" ">
<path fill="none" stroke="#63b8ff" d="M452.89,-428.5C466.2,-428.5 479.95,-428.5 492.85,-428.5"/>
<polygon fill="#63b8ff" stroke="#63b8ff" points="452.81,-425 442.81,-428.5 452.81,-432 452.81,-425"/>
</a>
</g>
</g>
<!-- Node12&#45;&gt;Node2 -->
<g id="edge26_Node000012_Node000002" class="edge">
<title>Node12&#45;&gt;Node2</title>
<g id="a_edge26_Node000012_Node000002"><a xlink:title=" ">
<path fill="none" stroke="orange" stroke-dasharray="5,2" d="M558.05,-453.78C563.85,-499.13 581.84,-595.11 634,-654.5 674.66,-700.79 700.51,-694.34 758,-716.5 766.39,-719.73 775.39,-722.73 784.3,-725.44"/>
<polygon fill="orange" stroke="orange" points="561.5,-453.16 556.85,-443.64 554.55,-453.98 561.5,-453.16"/>
</a>
</g>
<text text-anchor="middle" x="687" y="-712.5" font-family="Helvetica,sans-Serif" font-size="10.00" fill="grey"> &lt; double &gt;</text>
</g>
<!-- Node12&#45;&gt;Node3 -->
<g id="edge27_Node000012_Node000003" class="edge">
<title>Node12&#45;&gt;Node3</title>
<g id="a_edge27_Node000012_Node000003"><a xlink:title=" ">
<path fill="none" stroke="orange" stroke-dasharray="5,2" d="M561.53,-454.09C571.17,-489.98 593.27,-555.35 634,-595.5 670.83,-631.81 699.98,-610.74 740,-643.5 750.59,-652.17 746.77,-660.66 758,-668.5 764.48,-673.03 771.79,-676.7 779.35,-679.68"/>
<polygon fill="orange" stroke="orange" points="564.8,-452.78 558.93,-443.96 558.02,-454.52 564.8,-452.78"/>
</a>
</g>
<text text-anchor="middle" x="687" y="-646.5" font-family="Helvetica,sans-Serif" font-size="10.00" fill="grey"> &lt; ArgT &gt;</text>
</g>
<!-- Node12&#45;&gt;Node7 -->
<g id="edge28_Node000012_Node000007" class="edge">
<title>Node12&#45;&gt;Node7</title>
<g id="a_edge28_Node000012_Node000007"><a xlink:title=" ">
<path fill="none" stroke="orange" stroke-dasharray="5,2" d="M565.08,-453.23C577.1,-481.07 600.29,-525.75 634,-551.5 673.21,-581.45 702.4,-552.54 740,-584.5 753.63,-596.09 744.2,-609.12 758,-620.5 762.19,-623.95 766.83,-626.91 771.74,-629.44"/>
<polygon fill="orange" stroke="orange" points="568.23,-451.7 561.16,-443.81 561.77,-454.38 568.23,-451.7"/>
</a>
</g>
<text text-anchor="middle" x="687" y="-587.5" font-family="Helvetica,sans-Serif" font-size="10.00" fill="grey"> &lt; std::string &gt;</text>
</g>
<!-- Node12&#45;&gt;Node8 -->
<g id="edge29_Node000012_Node000008" class="edge">
<title>Node12&#45;&gt;Node8</title>
<g id="a_edge29_Node000012_Node000008"><a xlink:title=" ">
<path fill="none" stroke="orange" stroke-dasharray="5,2" d="M554.93,-403.14C555.22,-349.92 563.85,-226.16 634,-161.5 669.38,-128.89 695.26,-157.19 740,-139.5 748.72,-136.05 749.53,-132.51 758,-128.5 765,-125.19 772.48,-122.04 779.98,-119.12"/>
<polygon fill="orange" stroke="orange" points="551.43,-403.4 554.98,-413.38 558.43,-403.36 551.43,-403.4"/>
</a>
</g>
<text text-anchor="middle" x="687" y="-164.5" font-family="Helvetica,sans-Serif" font-size="10.00" fill="grey"> &lt; std::vector&lt; T &gt; &gt;</text>
</g>
<!-- Node13 -->
<g id="Node000013" class="node">
<title>Node13</title>
<g id="a_Node000013"><a xlink:href="structCatch_1_1Matchers_1_1Floating_1_1WithinAbsMatcher.html" target="_top" xlink:title=" ">
<polygon fill="white" stroke="#666666" points="928.5,-563.5 761.5,-563.5 761.5,-533.5 928.5,-533.5 928.5,-563.5"/>
<text text-anchor="start" x="769.5" y="-551.5" font-family="Helvetica,sans-Serif" font-size="10.00">Catch::Matchers::Floating</text>
<text text-anchor="middle" x="845" y="-540.5" font-family="Helvetica,sans-Serif" font-size="10.00">::WithinAbsMatcher&lt; double &gt;</text>
</a>
</g>
</g>
<!-- Node12&#45;&gt;Node13 -->
<g id="edge12_Node000012_Node000013" class="edge">
<title>Node12&#45;&gt;Node13</title>
<g id="a_edge12_Node000012_Node000013"><a xlink:title=" ">
<path fill="none" stroke="#63b8ff" d="M584.91,-449.33C599.29,-458.96 617.1,-470.1 634,-478.5 682.53,-502.61 741.3,-521.4 784.32,-533.41"/>
<polygon fill="#63b8ff" stroke="#63b8ff" points="586.68,-446.3 576.44,-443.57 582.74,-452.09 586.68,-446.3"/>
</a>
</g>
</g>
<!-- Node14 -->
<g id="Node000014" class="node">
<title>Node14</title>
<g id="a_Node000014"><a xlink:href="structCatch_1_1Matchers_1_1Floating_1_1WithinUlpsMatcher.html" target="_top" xlink:title=" ">
<polygon fill="white" stroke="#666666" points="930.5,-515.5 759.5,-515.5 759.5,-485.5 930.5,-485.5 930.5,-515.5"/>
<text text-anchor="start" x="767.5" y="-503.5" font-family="Helvetica,sans-Serif" font-size="10.00">Catch::Matchers::Floating</text>
<text text-anchor="middle" x="845" y="-492.5" font-family="Helvetica,sans-Serif" font-size="10.00">::WithinUlpsMatcher&lt; double &gt;</text>
</a>
</g>
</g>
<!-- Node12&#45;&gt;Node14 -->
<g id="edge13_Node000012_Node000014" class="edge">
<title>Node12&#45;&gt;Node14</title>
<g id="a_edge13_Node000012_Node000014"><a xlink:title=" ">
<path fill="none" stroke="#63b8ff" d="M612.44,-446.43C619.67,-448.56 626.99,-450.63 634,-452.5 679.71,-464.69 731.52,-476.56 772.25,-485.44"/>
<polygon fill="#63b8ff" stroke="#63b8ff" points="613.25,-443.02 602.66,-443.52 611.25,-449.73 613.25,-443.02"/>
</a>
</g>
</g>
<!-- Node15 -->
<g id="Node000015" class="node">
<title>Node15</title>
<g id="a_Node000015"><a xlink:href="classCatch_1_1Matchers_1_1Generic_1_1PredicateMatcher.html" target="_top" xlink:title=" ">
<polygon fill="white" stroke="#666666" points="914.5,-467.5 775.5,-467.5 775.5,-437.5 914.5,-437.5 914.5,-467.5"/>
<text text-anchor="start" x="783.5" y="-455.5" font-family="Helvetica,sans-Serif" font-size="10.00">Catch::Matchers::Generic</text>
<text text-anchor="middle" x="845" y="-444.5" font-family="Helvetica,sans-Serif" font-size="10.00">::PredicateMatcher&lt; T &gt;</text>
</a>
</g>
</g>
<!-- Node12&#45;&gt;Node15 -->
<g id="edge14_Node000012_Node000015" class="edge">
<title>Node12&#45;&gt;Node15</title>
<g id="a_edge14_Node000012_Node000015"><a xlink:title=" ">
<path fill="none" stroke="#63b8ff" d="M626.4,-434.4C671.82,-438.18 730.45,-443.05 775.41,-446.79"/>
<polygon fill="#63b8ff" stroke="#63b8ff" points="626.59,-430.9 616.33,-433.56 626.01,-437.88 626.59,-430.9"/>
</a>
</g>
</g>
<!-- Node16 -->
<g id="Node000016" class="node">
<title>Node16</title>
<g id="a_Node000016"><a xlink:href="structCatch_1_1Matchers_1_1StdString_1_1RegexMatcher.html" target="_top" xlink:title=" ">
<polygon fill="white" stroke="#666666" points="927,-419.5 763,-419.5 763,-389.5 927,-389.5 927,-419.5"/>
<text text-anchor="start" x="771" y="-407.5" font-family="Helvetica,sans-Serif" font-size="10.00">Catch::Matchers::StdString</text>
<text text-anchor="middle" x="845" y="-396.5" font-family="Helvetica,sans-Serif" font-size="10.00">::RegexMatcher&lt; std::string &gt;</text>
</a>
</g>
</g>
<!-- Node12&#45;&gt;Node16 -->
<g id="edge15_Node000012_Node000016" class="edge">
<title>Node12&#45;&gt;Node16</title>
<g id="a_edge15_Node000012_Node000016"><a xlink:title=" ">
<path fill="none" stroke="#63b8ff" d="M626.32,-422.61C667.68,-419.17 720,-414.82 762.99,-411.24"/>
<polygon fill="#63b8ff" stroke="#63b8ff" points="626.01,-419.12 616.33,-423.44 626.59,-426.1 626.01,-419.12"/>
</a>
</g>
</g>
<!-- Node17 -->
<g id="Node000017" class="node">
<title>Node17</title>
<g id="a_Node000017"><a xlink:href="structCatch_1_1Matchers_1_1StdString_1_1StringMatcherBase.html" target="_top" xlink:title=" ">
<polygon fill="white" stroke="#666666" points="918,-371 772,-371 772,-330 918,-330 918,-371"/>
<text text-anchor="start" x="780" y="-359" font-family="Helvetica,sans-Serif" font-size="10.00">Catch::Matchers::StdString</text>
<text text-anchor="start" x="780" y="-348" font-family="Helvetica,sans-Serif" font-size="10.00">::StringMatcherBase&lt; std</text>
<text text-anchor="middle" x="845" y="-337" font-family="Helvetica,sans-Serif" font-size="10.00">::string &gt;</text>
</a>
</g>
</g>
<!-- Node12&#45;&gt;Node17 -->
<g id="edge16_Node000012_Node000017" class="edge">
<title>Node12&#45;&gt;Node17</title>
<g id="a_edge16_Node000012_Node000017"><a xlink:title=" ">
<path fill="none" stroke="#63b8ff" d="M621.06,-410.78C665.98,-398.63 725.59,-382.51 771.86,-370"/>
<polygon fill="#63b8ff" stroke="#63b8ff" points="619.87,-407.47 611.13,-413.46 621.69,-414.23 619.87,-407.47"/>
</a>
</g>
</g>
<!-- Node22 -->
<g id="Node000022" class="node">
<title>Node22</title>
<g id="a_Node000022"><a xlink:href="structCatch_1_1Matchers_1_1Vector_1_1ApproxMatcher.html" target="_top" xlink:title=" ">
<polygon fill="white" stroke="#666666" points="911,-311.5 779,-311.5 779,-281.5 911,-281.5 911,-311.5"/>
<text text-anchor="start" x="787" y="-299.5" font-family="Helvetica,sans-Serif" font-size="10.00">Catch::Matchers::Vector</text>
<text text-anchor="middle" x="845" y="-288.5" font-family="Helvetica,sans-Serif" font-size="10.00">::ApproxMatcher&lt; T &gt;</text>
</a>
</g>
</g>
<!-- Node12&#45;&gt;Node22 -->
<g id="edge21_Node000012_Node000022" class="edge">
<title>Node12&#45;&gt;Node22</title>
<g id="a_edge21_Node000012_Node000022"><a xlink:title=" ">
<path fill="none" stroke="#63b8ff" d="M583.64,-407.66C598.26,-397.32 616.65,-385.03 634,-375.5 686.69,-346.56 701.47,-341.93 758,-321.5 767.65,-318.01 778.04,-314.66 788.15,-311.61"/>
<polygon fill="#63b8ff" stroke="#63b8ff" points="581.6,-404.82 575.51,-413.49 585.68,-410.51 581.6,-404.82"/>
</a>
</g>
</g>
<!-- Node23 -->
<g id="Node000023" class="node">
<title>Node23</title>
<g id="a_Node000023"><a xlink:href="structCatch_1_1Matchers_1_1Vector_1_1ContainsElementMatcher.html" target="_top" xlink:title=" ">
<polygon fill="white" stroke="#666666" points="932,-263.5 758,-263.5 758,-233.5 932,-233.5 932,-263.5"/>
<text text-anchor="start" x="766" y="-251.5" font-family="Helvetica,sans-Serif" font-size="10.00">Catch::Matchers::Vector</text>
<text text-anchor="middle" x="845" y="-240.5" font-family="Helvetica,sans-Serif" font-size="10.00">::ContainsElementMatcher&lt; T &gt;</text>
</a>
</g>
</g>
<!-- Node12&#45;&gt;Node23 -->
<g id="edge22_Node000012_Node000023" class="edge">
<title>Node12&#45;&gt;Node23</title>
<g id="a_edge22_Node000012_Node000023"><a xlink:title=" ">
<path fill="none" stroke="#63b8ff" d="M568.43,-404.29C582.02,-380.84 605.39,-345.69 634,-323.5 672.78,-293.43 724.64,-274.75 767.12,-263.56"/>
<polygon fill="#63b8ff" stroke="#63b8ff" points="565.24,-402.81 563.38,-413.24 571.34,-406.25 565.24,-402.81"/>
</a>
</g>
</g>
<!-- Node24 -->
<g id="Node000024" class="node">
<title>Node24</title>
<g id="a_Node000024"><a xlink:href="structCatch_1_1Matchers_1_1Vector_1_1ContainsMatcher.html" target="_top" xlink:title=" ">
<polygon fill="white" stroke="#666666" points="912,-215.5 778,-215.5 778,-185.5 912,-185.5 912,-215.5"/>
<text text-anchor="start" x="786" y="-203.5" font-family="Helvetica,sans-Serif" font-size="10.00">Catch::Matchers::Vector</text>
<text text-anchor="middle" x="845" y="-192.5" font-family="Helvetica,sans-Serif" font-size="10.00">::ContainsMatcher&lt; T &gt;</text>
</a>
</g>
</g>
<!-- Node12&#45;&gt;Node24 -->
<g id="edge23_Node000012_Node000024" class="edge">
<title>Node12&#45;&gt;Node24</title>
<g id="a_edge23_Node000012_Node000024"><a xlink:title=" ">
<path fill="none" stroke="#63b8ff" d="M561.38,-403.51C570.86,-368.56 592.76,-305.25 634,-268.5 673.91,-232.94 732.69,-215.94 777.91,-207.83"/>
<polygon fill="#63b8ff" stroke="#63b8ff" points="557.95,-402.83 558.84,-413.38 564.72,-404.58 557.95,-402.83"/>
</a>
</g>
</g>
<!-- Node25 -->
<g id="Node000025" class="node">
<title>Node25</title>
<g id="a_Node000025"><a xlink:href="structCatch_1_1Matchers_1_1Vector_1_1EqualsMatcher.html" target="_top" xlink:title=" ">
<polygon fill="white" stroke="#666666" points="911,-167.5 779,-167.5 779,-137.5 911,-137.5 911,-167.5"/>
<text text-anchor="start" x="787" y="-155.5" font-family="Helvetica,sans-Serif" font-size="10.00">Catch::Matchers::Vector</text>
<text text-anchor="middle" x="845" y="-144.5" font-family="Helvetica,sans-Serif" font-size="10.00">::EqualsMatcher&lt; T &gt;</text>
</a>
</g>
</g>
<!-- Node12&#45;&gt;Node25 -->
<g id="edge24_Node000012_Node000025" class="edge">
<title>Node12&#45;&gt;Node25</title>
<g id="a_edge24_Node000012_Node000025"><a xlink:title=" ">
<path fill="none" stroke="#63b8ff" d="M557.33,-403.23C561.97,-358.08 578.18,-263.44 634,-211.5 644.9,-201.36 721.64,-181.41 779.23,-167.54"/>
<polygon fill="#63b8ff" stroke="#63b8ff" points="553.83,-403.06 556.4,-413.33 560.8,-403.7 553.83,-403.06"/>
</a>
</g>
</g>
<!-- Node26 -->
<g id="Node000026" class="node">
<title>Node26</title>
<g id="a_Node000026"><a xlink:href="structCatch_1_1Matchers_1_1Vector_1_1UnorderedEqualsMatcher.html" target="_top" xlink:title=" ">
<polygon fill="white" stroke="#666666" points="932,-611.5 758,-611.5 758,-581.5 932,-581.5 932,-611.5"/>
<text text-anchor="start" x="766" y="-599.5" font-family="Helvetica,sans-Serif" font-size="10.00">Catch::Matchers::Vector</text>
<text text-anchor="middle" x="845" y="-588.5" font-family="Helvetica,sans-Serif" font-size="10.00">::UnorderedEqualsMatcher&lt; T &gt;</text>
</a>
</g>
</g>
<!-- Node12&#45;&gt;Node26 -->
<g id="edge25_Node000012_Node000026" class="edge">
<title>Node12&#45;&gt;Node26</title>
<g id="a_edge25_Node000012_Node000026"><a xlink:title=" ">
<path fill="none" stroke="#63b8ff" d="M573.1,-451.6C587.87,-469.84 610.31,-495.05 634,-512.5 640.16,-517.04 750.84,-569.79 758,-572.5 766.55,-575.73 775.73,-578.75 784.8,-581.48"/>
<polygon fill="#63b8ff" stroke="#63b8ff" points="575.84,-449.41 566.88,-443.76 570.35,-453.76 575.84,-449.41"/>
</a>
</g>
</g>
<!-- Node18 -->
<g id="Node000018" class="node">
<title>Node18</title>
<g id="a_Node000018"><a xlink:href="structCatch_1_1Matchers_1_1StdString_1_1ContainsMatcher.html" target="_top" xlink:title=" ">
<polygon fill="white" stroke="#666666" points="1115,-389.5 969,-389.5 969,-359.5 1115,-359.5 1115,-389.5"/>
<text text-anchor="start" x="977" y="-377.5" font-family="Helvetica,sans-Serif" font-size="10.00">Catch::Matchers::StdString</text>
<text text-anchor="middle" x="1042" y="-366.5" font-family="Helvetica,sans-Serif" font-size="10.00">::ContainsMatcher</text>
</a>
</g>
</g>
<!-- Node17&#45;&gt;Node18 -->
<g id="edge17_Node000017_Node000018" class="edge">
<title>Node17&#45;&gt;Node18</title>
<g id="a_edge17_Node000017_Node000018"><a xlink:title=" ">
<path fill="none" stroke="#63b8ff" d="M928.29,-360.63C941.79,-362.29 955.69,-364 968.91,-365.63"/>
<polygon fill="#63b8ff" stroke="#63b8ff" points="928.41,-357.12 918.06,-359.37 927.55,-364.06 928.41,-357.12"/>
</a>
</g>
</g>
<!-- Node19 -->
<g id="Node000019" class="node">
<title>Node19</title>
<g id="a_Node000019"><a xlink:href="structCatch_1_1Matchers_1_1StdString_1_1EndsWithMatcher.html" target="_top" xlink:title=" ">
<polygon fill="white" stroke="#666666" points="1115,-341.5 969,-341.5 969,-311.5 1115,-311.5 1115,-341.5"/>
<text text-anchor="start" x="977" y="-329.5" font-family="Helvetica,sans-Serif" font-size="10.00">Catch::Matchers::StdString</text>
<text text-anchor="middle" x="1042" y="-318.5" font-family="Helvetica,sans-Serif" font-size="10.00">::EndsWithMatcher</text>
</a>
</g>
</g>
<!-- Node17&#45;&gt;Node19 -->
<g id="edge18_Node000017_Node000019" class="edge">
<title>Node17&#45;&gt;Node19</title>
<g id="a_edge18_Node000017_Node000019"><a xlink:title=" ">
<path fill="none" stroke="#63b8ff" d="M928.29,-340.37C941.79,-338.71 955.69,-337 968.91,-335.37"/>
<polygon fill="#63b8ff" stroke="#63b8ff" points="927.55,-336.94 918.06,-341.63 928.41,-343.88 927.55,-336.94"/>
</a>
</g>
</g>
<!-- Node20 -->
<g id="Node000020" class="node">
<title>Node20</title>
<g id="a_Node000020"><a xlink:href="structCatch_1_1Matchers_1_1StdString_1_1EqualsMatcher.html" target="_top" xlink:title=" ">
<polygon fill="white" stroke="#666666" points="1115,-293.5 969,-293.5 969,-263.5 1115,-263.5 1115,-293.5"/>
<text text-anchor="start" x="977" y="-281.5" font-family="Helvetica,sans-Serif" font-size="10.00">Catch::Matchers::StdString</text>
<text text-anchor="middle" x="1042" y="-270.5" font-family="Helvetica,sans-Serif" font-size="10.00">::EqualsMatcher</text>
</a>
</g>
</g>
<!-- Node17&#45;&gt;Node20 -->
<g id="edge19_Node000017_Node000020" class="edge">
<title>Node17&#45;&gt;Node20</title>
<g id="a_edge19_Node000017_Node000020"><a xlink:title=" ">
<path fill="none" stroke="#63b8ff" d="M917.44,-326.31C922.39,-324.41 927.28,-322.46 932,-320.5 948.88,-313.48 952.07,-309.41 969,-302.5 976.69,-299.37 984.95,-296.32 993.04,-293.51"/>
<polygon fill="#63b8ff" stroke="#63b8ff" points="916,-323.11 907.87,-329.9 918.46,-329.66 916,-323.11"/>
</a>
</g>
</g>
<!-- Node21 -->
<g id="Node000021" class="node">
<title>Node21</title>
<g id="a_Node000021"><a xlink:href="structCatch_1_1Matchers_1_1StdString_1_1StartsWithMatcher.html" target="_top" xlink:title=" ">
<polygon fill="white" stroke="#666666" points="1115,-437.5 969,-437.5 969,-407.5 1115,-407.5 1115,-437.5"/>
<text text-anchor="start" x="977" y="-425.5" font-family="Helvetica,sans-Serif" font-size="10.00">Catch::Matchers::StdString</text>
<text text-anchor="middle" x="1042" y="-414.5" font-family="Helvetica,sans-Serif" font-size="10.00">::StartsWithMatcher</text>
</a>
</g>
</g>
<!-- Node17&#45;&gt;Node21 -->
<g id="edge20_Node000017_Node000021" class="edge">
<title>Node17&#45;&gt;Node21</title>
<g id="a_edge20_Node000017_Node000021"><a xlink:title=" ">
<path fill="none" stroke="#63b8ff" d="M917.44,-374.69C922.39,-376.59 927.28,-378.54 932,-380.5 948.88,-387.52 952.07,-391.59 969,-398.5 976.69,-401.63 984.95,-404.68 993.04,-407.49"/>
<polygon fill="#63b8ff" stroke="#63b8ff" points="918.46,-371.34 907.87,-371.1 916,-377.89 918.46,-371.34"/>
</a>
</g>
</g>
</g>
</svg>
