<?xml version="1.0" encoding="UTF-8" standalone="no"?>
<!DOCTYPE svg PUBLIC "-//W3C//DTD SVG 1.1//EN"
 "http://www.w3.org/Graphics/SVG/1.1/DTD/svg11.dtd">
<!-- Generated by graphviz version 2.43.0 (0)
 -->
<!-- Title: Catch::Generators::IGenerator&lt; T &gt; Pages: 1 -->
<svg width="763pt" height="570pt"
 viewBox="0.00 0.00 763.00 570.00" xmlns="http://www.w3.org/2000/svg" xmlns:xlink="http://www.w3.org/1999/xlink">
<g id="graph0" class="graph" transform="scale(1 1) rotate(0) translate(4 566)">
<title>Catch::Generators::IGenerator&lt; T &gt;</title>
<!-- Node1 -->
<g id="Node000001" class="node">
<title>Node1</title>
<g id="a_Node000001"><a xlink:title=" ">
<polygon fill="#999999" stroke="#666666" points="278,-298.5 168,-298.5 168,-268.5 278,-268.5 278,-298.5"/>
<text text-anchor="start" x="176" y="-286.5" font-family="Helvetica,sans-Serif" font-size="10.00">Catch::Generators::</text>
<text text-anchor="middle" x="223" y="-275.5" font-family="Helvetica,sans-Serif" font-size="10.00">IGenerator&lt; T &gt;</text>
</a>
</g>
</g>
<!-- Node3 -->
<g id="Node000003" class="node">
<title>Node3</title>
<g id="a_Node000003"><a xlink:href="classCatch_1_1Generators_1_1FilterGenerator.html" target="_top" xlink:title=" ">
<polygon fill="white" stroke="#666666" points="551,-562 441,-562 441,-521 551,-521 551,-562"/>
<text text-anchor="start" x="449" y="-550" font-family="Helvetica,sans-Serif" font-size="10.00">Catch::Generators::</text>
<text text-anchor="start" x="449" y="-539" font-family="Helvetica,sans-Serif" font-size="10.00">FilterGenerator&lt; T,</text>
<text text-anchor="middle" x="496" y="-528" font-family="Helvetica,sans-Serif" font-size="10.00"> Predicate &gt;</text>
</a>
</g>
</g>
<!-- Node1&#45;&gt;Node3 -->
<g id="edge2_Node000001_Node000003" class="edge">
<title>Node1&#45;&gt;Node3</title>
<g id="a_edge2_Node000001_Node000003"><a xlink:title=" ">
<path fill="none" stroke="#63b8ff" d="M230.58,-308.65C240.26,-341.7 261.1,-400.03 296,-438.5 335.08,-481.57 396.38,-509.47 440.62,-525.22"/>
<polygon fill="#63b8ff" stroke="#63b8ff" points="233.9,-307.54 227.82,-298.87 227.16,-309.44 233.9,-307.54"/>
</a>
</g>
</g>
<!-- Node4 -->
<g id="Node000004" class="node">
<title>Node4</title>
<g id="a_Node000004"><a xlink:href="classCatch_1_1Generators_1_1FixedValuesGenerator.html" target="_top" xlink:title=" ">
<polygon fill="white" stroke="#666666" points="572,-502.5 420,-502.5 420,-472.5 572,-472.5 572,-502.5"/>
<text text-anchor="start" x="428" y="-490.5" font-family="Helvetica,sans-Serif" font-size="10.00">Catch::Generators::</text>
<text text-anchor="middle" x="496" y="-479.5" font-family="Helvetica,sans-Serif" font-size="10.00">FixedValuesGenerator&lt; T &gt;</text>
</a>
</g>
</g>
<!-- Node1&#45;&gt;Node4 -->
<g id="edge3_Node000001_Node000004" class="edge">
<title>Node1&#45;&gt;Node4</title>
<g id="a_edge3_Node000001_Node000004"><a xlink:title=" ">
<path fill="none" stroke="#63b8ff" d="M235.46,-308.05C247.75,-332.34 269.16,-369.41 296,-394.5 337.24,-433.04 397.3,-458.1 440.65,-472.39"/>
<polygon fill="#63b8ff" stroke="#63b8ff" points="238.47,-306.24 230.91,-298.81 232.19,-309.33 238.47,-306.24"/>
</a>
</g>
</g>
<!-- Node5 -->
<g id="Node000005" class="node">
<title>Node5</title>
<g id="a_Node000005"><a xlink:href="classCatch_1_1Generators_1_1Generators.html" target="_top" xlink:title=" ">
<polygon fill="white" stroke="#666666" points="551,-454.5 441,-454.5 441,-424.5 551,-424.5 551,-454.5"/>
<text text-anchor="start" x="449" y="-442.5" font-family="Helvetica,sans-Serif" font-size="10.00">Catch::Generators::</text>
<text text-anchor="middle" x="496" y="-431.5" font-family="Helvetica,sans-Serif" font-size="10.00">Generators&lt; T &gt;</text>
</a>
</g>
</g>
<!-- Node1&#45;&gt;Node5 -->
<g id="edge4_Node000001_Node000005" class="edge">
<title>Node1&#45;&gt;Node5</title>
<g id="a_edge4_Node000001_Node000005"><a xlink:title=" ">
<path fill="none" stroke="#63b8ff" d="M243.93,-306.22C257.6,-320.92 276.69,-339.79 296,-353.5 342.18,-386.3 402.84,-410.25 445,-424.43"/>
<polygon fill="#63b8ff" stroke="#63b8ff" points="246.26,-303.58 236.93,-298.55 241.09,-308.3 246.26,-303.58"/>
</a>
</g>
</g>
<!-- Node6 -->
<g id="Node000006" class="node">
<title>Node6</title>
<g id="a_Node000006"><a xlink:href="classCatch_1_1Generators_1_1MapGenerator.html" target="_top" xlink:title=" ">
<polygon fill="white" stroke="#666666" points="556,-406 436,-406 436,-365 556,-365 556,-406"/>
<text text-anchor="start" x="444" y="-394" font-family="Helvetica,sans-Serif" font-size="10.00">Catch::Generators::</text>
<text text-anchor="start" x="444" y="-383" font-family="Helvetica,sans-Serif" font-size="10.00">MapGenerator&lt; T, U,</text>
<text text-anchor="middle" x="496" y="-372" font-family="Helvetica,sans-Serif" font-size="10.00"> Func &gt;</text>
</a>
</g>
</g>
<!-- Node1&#45;&gt;Node6 -->
<g id="edge5_Node000001_Node000006" class="edge">
<title>Node1&#45;&gt;Node6</title>
<g id="a_edge5_Node000001_Node000006"><a xlink:title=" ">
<path fill="none" stroke="#63b8ff" d="M258.75,-303.41C270.39,-309.65 283.56,-316.26 296,-321.5 341.83,-340.79 395.6,-357.76 435.68,-369.37"/>
<polygon fill="#63b8ff" stroke="#63b8ff" points="260.25,-300.24 249.8,-298.52 256.9,-306.39 260.25,-300.24"/>
</a>
</g>
</g>
<!-- Node7 -->
<g id="Node000007" class="node">
<title>Node7</title>
<g id="a_Node000007"><a xlink:href="classCatch_1_1Generators_1_1RangeGenerator.html" target="_top" xlink:title=" ">
<polygon fill="white" stroke="#666666" points="558.5,-346.5 433.5,-346.5 433.5,-316.5 558.5,-316.5 558.5,-346.5"/>
<text text-anchor="start" x="441.5" y="-334.5" font-family="Helvetica,sans-Serif" font-size="10.00">Catch::Generators::</text>
<text text-anchor="middle" x="496" y="-323.5" font-family="Helvetica,sans-Serif" font-size="10.00">RangeGenerator&lt; T &gt;</text>
</a>
</g>
</g>
<!-- Node1&#45;&gt;Node7 -->
<g id="edge6_Node000001_Node000007" class="edge">
<title>Node1&#45;&gt;Node7</title>
<g id="a_edge6_Node000001_Node000007"><a xlink:title=" ">
<path fill="none" stroke="#63b8ff" d="M288.31,-296.08C290.91,-296.57 293.48,-297.04 296,-297.5 341.86,-305.87 393.78,-314.72 433.09,-321.3"/>
<polygon fill="#63b8ff" stroke="#63b8ff" points="288.7,-292.59 278.23,-294.18 287.41,-299.47 288.7,-292.59"/>
</a>
</g>
</g>
<!-- Node8 -->
<g id="Node000008" class="node">
<title>Node8</title>
<g id="a_Node000008"><a xlink:href="classCatch_1_1Generators_1_1RepeatGenerator.html" target="_top" xlink:title=" ">
<polygon fill="white" stroke="#666666" points="560,-298.5 432,-298.5 432,-268.5 560,-268.5 560,-298.5"/>
<text text-anchor="start" x="440" y="-286.5" font-family="Helvetica,sans-Serif" font-size="10.00">Catch::Generators::</text>
<text text-anchor="middle" x="496" y="-275.5" font-family="Helvetica,sans-Serif" font-size="10.00">RepeatGenerator&lt; T &gt;</text>
</a>
</g>
</g>
<!-- Node1&#45;&gt;Node8 -->
<g id="edge7_Node000001_Node000008" class="edge">
<title>Node1&#45;&gt;Node8</title>
<g id="a_edge7_Node000001_Node000008"><a xlink:title=" ">
<path fill="none" stroke="#63b8ff" d="M288.35,-283.5C331.75,-283.5 388.73,-283.5 431.87,-283.5"/>
<polygon fill="#63b8ff" stroke="#63b8ff" points="288.19,-280 278.19,-283.5 288.19,-287 288.19,-280"/>
</a>
</g>
</g>
<!-- Node9 -->
<g id="Node000009" class="node">
<title>Node9</title>
<g id="a_Node000009"><a xlink:href="classCatch_1_1Generators_1_1SingleValueGenerator.html" target="_top" xlink:title=" ">
<polygon fill="white" stroke="#666666" points="571.5,-250.5 420.5,-250.5 420.5,-220.5 571.5,-220.5 571.5,-250.5"/>
<text text-anchor="start" x="428.5" y="-238.5" font-family="Helvetica,sans-Serif" font-size="10.00">Catch::Generators::</text>
<text text-anchor="middle" x="496" y="-227.5" font-family="Helvetica,sans-Serif" font-size="10.00">SingleValueGenerator&lt; T &gt;</text>
</a>
</g>
</g>
<!-- Node1&#45;&gt;Node9 -->
<g id="edge8_Node000001_Node000009" class="edge">
<title>Node1&#45;&gt;Node9</title>
<g id="a_edge8_Node000001_Node000009"><a xlink:title=" ">
<path fill="none" stroke="#63b8ff" d="M288.27,-272.12C327.92,-265.09 378.94,-256.06 420.38,-248.72"/>
<polygon fill="#63b8ff" stroke="#63b8ff" points="287.43,-268.71 278.19,-273.9 288.65,-275.6 287.43,-268.71"/>
</a>
</g>
</g>
<!-- Node10 -->
<g id="Node000010" class="node">
<title>Node10</title>
<g id="a_Node000010"><a xlink:href="classCatch_1_1Generators_1_1TakeGenerator.html" target="_top" xlink:title=" ">
<polygon fill="white" stroke="#666666" points="554,-202.5 438,-202.5 438,-172.5 554,-172.5 554,-202.5"/>
<text text-anchor="start" x="446" y="-190.5" font-family="Helvetica,sans-Serif" font-size="10.00">Catch::Generators::</text>
<text text-anchor="middle" x="496" y="-179.5" font-family="Helvetica,sans-Serif" font-size="10.00">TakeGenerator&lt; T &gt;</text>
</a>
</g>
</g>
<!-- Node1&#45;&gt;Node10 -->
<g id="edge9_Node000001_Node000010" class="edge">
<title>Node1&#45;&gt;Node10</title>
<g id="a_edge9_Node000001_Node000010"><a xlink:title=" ">
<path fill="none" stroke="#63b8ff" d="M261.56,-263.88C272.51,-258.54 284.6,-252.99 296,-248.5 342.74,-230.1 397.39,-213.7 437.58,-202.55"/>
<polygon fill="#63b8ff" stroke="#63b8ff" points="259.67,-260.91 252.27,-268.5 262.79,-267.18 259.67,-260.91"/>
</a>
</g>
</g>
<!-- Node11 -->
<g id="Node000011" class="node">
<title>Node11</title>
<g id="a_Node000011"><a xlink:href="structCatch_1_1Generators_1_1IGenerator.html" target="_top" xlink:title=" ">
<polygon fill="white" stroke="#666666" points="561.5,-154 430.5,-154 430.5,-113 561.5,-113 561.5,-154"/>
<text text-anchor="start" x="438.5" y="-142" font-family="Helvetica,sans-Serif" font-size="10.00">Catch::Generators::</text>
<text text-anchor="start" x="438.5" y="-131" font-family="Helvetica,sans-Serif" font-size="10.00">IGenerator&lt; std::vector</text>
<text text-anchor="middle" x="496" y="-120" font-family="Helvetica,sans-Serif" font-size="10.00">&lt; T &gt; &gt;</text>
</a>
</g>
</g>
<!-- Node1&#45;&gt;Node11 -->
<g id="edge10_Node000001_Node000011" class="edge">
<title>Node1&#45;&gt;Node11</title>
<g id="a_edge10_Node000001_Node000011"><a xlink:title=" ">
<path fill="none" stroke="orange" stroke-dasharray="5,2" d="M238.9,-259.91C251.89,-241.11 272.32,-215.4 296,-199.5 336.5,-172.31 389.12,-155.51 430.08,-145.66"/>
<polygon fill="orange" stroke="orange" points="235.97,-258 233.31,-268.25 241.78,-261.89 235.97,-258"/>
</a>
</g>
<text text-anchor="middle" x="349" y="-202.5" font-family="Helvetica,sans-Serif" font-size="10.00" fill="grey"> &lt; std::vector&lt; T &gt; &gt;</text>
</g>
<!-- Node13 -->
<g id="Node000013" class="node">
<title>Node13</title>
<g id="a_Node000013"><a xlink:href="structCatch_1_1Generators_1_1IGenerator.html" target="_top" xlink:title=" ">
<polygon fill="white" stroke="#666666" points="554,-94.5 438,-94.5 438,-64.5 554,-64.5 554,-94.5"/>
<text text-anchor="start" x="446" y="-82.5" font-family="Helvetica,sans-Serif" font-size="10.00">Catch::Generators::</text>
<text text-anchor="middle" x="496" y="-71.5" font-family="Helvetica,sans-Serif" font-size="10.00">IGenerator&lt; Float &gt;</text>
</a>
</g>
</g>
<!-- Node1&#45;&gt;Node13 -->
<g id="edge12_Node000001_Node000013" class="edge">
<title>Node1&#45;&gt;Node13</title>
<g id="a_edge12_Node000001_Node000013"><a xlink:title=" ">
<path fill="none" stroke="orange" stroke-dasharray="5,2" d="M229.93,-258.45C238.84,-226.28 258.74,-170.88 296,-139.5 336.02,-105.79 394.55,-91.02 437.78,-84.55"/>
<polygon fill="orange" stroke="orange" points="226.48,-257.84 227.33,-268.4 233.25,-259.61 226.48,-257.84"/>
</a>
</g>
<text text-anchor="middle" x="349" y="-142.5" font-family="Helvetica,sans-Serif" font-size="10.00" fill="grey"> &lt; Float &gt;</text>
</g>
<!-- Node15 -->
<g id="Node000015" class="node">
<title>Node15</title>
<g id="a_Node000015"><a xlink:href="structCatch_1_1Generators_1_1IGenerator.html" target="_top" xlink:title=" ">
<polygon fill="white" stroke="#666666" points="558.5,-41.5 433.5,-41.5 433.5,-11.5 558.5,-11.5 558.5,-41.5"/>
<text text-anchor="start" x="441.5" y="-29.5" font-family="Helvetica,sans-Serif" font-size="10.00">Catch::Generators::</text>
<text text-anchor="middle" x="496" y="-18.5" font-family="Helvetica,sans-Serif" font-size="10.00">IGenerator&lt; Integer &gt;</text>
</a>
</g>
</g>
<!-- Node1&#45;&gt;Node15 -->
<g id="edge14_Node000001_Node000015" class="edge">
<title>Node1&#45;&gt;Node15</title>
<g id="a_edge14_Node000001_Node000015"><a xlink:title=" ">
<path fill="none" stroke="orange" stroke-dasharray="5,2" d="M225.31,-258.35C228.99,-214.72 242.95,-125.05 296,-76.5 333.19,-42.47 390.06,-30.78 433.5,-27.14"/>
<polygon fill="orange" stroke="orange" points="221.82,-258.17 224.58,-268.4 228.8,-258.68 221.82,-258.17"/>
</a>
</g>
<text text-anchor="middle" x="349" y="-79.5" font-family="Helvetica,sans-Serif" font-size="10.00" fill="grey"> &lt; Integer &gt;</text>
</g>
<!-- Node2 -->
<g id="Node000002" class="node">
<title>Node2</title>
<g id="a_Node000002"><a xlink:href="classCatch_1_1Generators_1_1GeneratorUntypedBase.html" target="_top" xlink:title=" ">
<polygon fill="white" stroke="#666666" points="131,-298.5 0,-298.5 0,-268.5 131,-268.5 131,-298.5"/>
<text text-anchor="start" x="8" y="-286.5" font-family="Helvetica,sans-Serif" font-size="10.00">Catch::Generators::</text>
<text text-anchor="middle" x="65.5" y="-275.5" font-family="Helvetica,sans-Serif" font-size="10.00">GeneratorUntypedBase</text>
</a>
</g>
</g>
<!-- Node2&#45;&gt;Node1 -->
<g id="edge1_Node000001_Node000002" class="edge">
<title>Node2&#45;&gt;Node1</title>
<g id="a_edge1_Node000001_Node000002"><a xlink:title=" ">
<path fill="none" stroke="#63b8ff" d="M141.16,-283.5C150.12,-283.5 159.14,-283.5 167.73,-283.5"/>
<polygon fill="#63b8ff" stroke="#63b8ff" points="141.1,-280 131.1,-283.5 141.1,-287 141.1,-280"/>
</a>
</g>
</g>
<!-- Node12 -->
<g id="Node000012" class="node">
<title>Node12</title>
<g id="a_Node000012"><a xlink:href="classCatch_1_1Generators_1_1ChunkGenerator.html" target="_top" xlink:title=" ">
<polygon fill="white" stroke="#666666" points="744.5,-148.5 619.5,-148.5 619.5,-118.5 744.5,-118.5 744.5,-148.5"/>
<text text-anchor="start" x="627.5" y="-136.5" font-family="Helvetica,sans-Serif" font-size="10.00">Catch::Generators::</text>
<text text-anchor="middle" x="682" y="-125.5" font-family="Helvetica,sans-Serif" font-size="10.00">ChunkGenerator&lt; T &gt;</text>
</a>
</g>
</g>
<!-- Node11&#45;&gt;Node12 -->
<g id="edge11_Node000011_Node000012" class="edge">
<title>Node11&#45;&gt;Node12</title>
<g id="a_edge11_Node000011_Node000012"><a xlink:title=" ">
<path fill="none" stroke="#63b8ff" d="M571.86,-133.5C587.63,-133.5 604.1,-133.5 619.32,-133.5"/>
<polygon fill="#63b8ff" stroke="#63b8ff" points="571.61,-130 561.61,-133.5 571.61,-137 571.61,-130"/>
</a>
</g>
</g>
<!-- Node14 -->
<g id="Node000014" class="node">
<title>Node14</title>
<g id="a_Node000014"><a xlink:href="classCatch_1_1Generators_1_1RandomFloatingGenerator.html" target="_top" xlink:title=" ">
<polygon fill="white" stroke="#666666" points="755,-100 609,-100 609,-59 755,-59 755,-100"/>
<text text-anchor="start" x="617" y="-88" font-family="Helvetica,sans-Serif" font-size="10.00">Catch::Generators::</text>
<text text-anchor="start" x="617" y="-77" font-family="Helvetica,sans-Serif" font-size="10.00">RandomFloatingGenerator</text>
<text text-anchor="middle" x="682" y="-66" font-family="Helvetica,sans-Serif" font-size="10.00">&lt; Float &gt;</text>
</a>
</g>
</g>
<!-- Node13&#45;&gt;Node14 -->
<g id="edge13_Node000013_Node000014" class="edge">
<title>Node13&#45;&gt;Node14</title>
<g id="a_edge13_Node000013_Node000014"><a xlink:title=" ">
<path fill="none" stroke="#63b8ff" d="M564.55,-79.5C578.98,-79.5 594.28,-79.5 608.88,-79.5"/>
<polygon fill="#63b8ff" stroke="#63b8ff" points="564.21,-76 554.21,-79.5 564.21,-83 564.21,-76"/>
</a>
</g>
</g>
<!-- Node16 -->
<g id="Node000016" class="node">
<title>Node16</title>
<g id="a_Node000016"><a xlink:href="classCatch_1_1Generators_1_1RandomIntegerGenerator.html" target="_top" xlink:title=" ">
<polygon fill="white" stroke="#666666" points="752,-41 612,-41 612,0 752,0 752,-41"/>
<text text-anchor="start" x="620" y="-29" font-family="Helvetica,sans-Serif" font-size="10.00">Catch::Generators::</text>
<text text-anchor="start" x="620" y="-18" font-family="Helvetica,sans-Serif" font-size="10.00">RandomIntegerGenerator</text>
<text text-anchor="middle" x="682" y="-7" font-family="Helvetica,sans-Serif" font-size="10.00">&lt; Integer &gt;</text>
</a>
</g>
</g>
<!-- Node15&#45;&gt;Node16 -->
<g id="edge15_Node000015_Node000016" class="edge">
<title>Node15&#45;&gt;Node16</title>
<g id="a_edge15_Node000015_Node000016"><a xlink:title=" ">
<path fill="none" stroke="#63b8ff" d="M568.73,-24.16C582.93,-23.7 597.81,-23.21 611.92,-22.75"/>
<polygon fill="#63b8ff" stroke="#63b8ff" points="568.41,-20.67 558.53,-24.49 568.63,-27.67 568.41,-20.67"/>
</a>
</g>
</g>
</g>
</svg>
