<?xml version="1.0" encoding="UTF-8" standalone="no"?>
<!DOCTYPE svg PUBLIC "-//W3C//DTD SVG 1.1//EN"
 "http://www.w3.org/Graphics/SVG/1.1/DTD/svg11.dtd">
<!-- Generated by graphviz version 2.43.0 (0)
 -->
<!-- Title: graphname Pages: 1 -->
<svg width="465pt" height="246pt"
 viewBox="0.00 0.00 464.54 246.00" xmlns="http://www.w3.org/2000/svg" xmlns:xlink="http://www.w3.org/1999/xlink">
<g id="graph0" class="graph" transform="scale(1 1) rotate(0) translate(4 242)">
<title>graphname</title>
<polygon fill="white" stroke="transparent" points="-4,4 -4,-242 460.54,-242 460.54,4 -4,4"/>
<g id="clust1" class="cluster">
<title>cluster_1</title>
<polygon fill="none" stroke="black" points="262.54,-8 262.54,-230 448.54,-230 448.54,-8 262.54,-8"/>
<text text-anchor="middle" x="355.54" y="-214.8" font-family="Times,serif" font-size="14.00">cdinit</text>
</g>
<g id="clust2" class="cluster">
<title>cluster_2</title>
<polygon fill="none" stroke="black" points="122.54,-8 122.54,-155 254.54,-155 254.54,-8 122.54,-8"/>
<text text-anchor="middle" x="188.54" y="-139.8" font-family="Times,serif" font-size="14.00">dds_agent</text>
</g>
<!-- px4_msgs -->
<g id="node1" class="node">
<title>px4_msgs</title>
<g id="a_node1"><a xlink:href="./px4_msgs/index.html" xlink:title="px4_msgs">
<ellipse fill="none" stroke="black" cx="56.54" cy="-106" rx="56.59" ry="18"/>
<text text-anchor="middle" x="56.54" y="-102.3" font-family="Times,serif" font-size="14.00">px4_msgs</text>
</a>
</g>
</g>
<!-- px4sitl -->
<g id="node2" class="node">
<title>px4sitl</title>
<g id="a_node2"><a xlink:href="./px4sitl/index.html" xlink:title="px4sitl">
<ellipse fill="none" stroke="black" cx="188.54" cy="-181" rx="42.49" ry="18"/>
<text text-anchor="middle" x="188.54" y="-177.3" font-family="Times,serif" font-size="14.00">px4sitl</text>
</a>
</g>
</g>
<!-- px4sitl&#45;&gt;px4_msgs -->
<g id="edge3" class="edge">
<title>px4sitl&#45;&gt;px4_msgs</title>
<path fill="none" stroke="#ff0000" d="M154.5,-170.25C142.76,-166.26 129.75,-161.14 118.54,-155 105.7,-147.97 92.7,-138.37 81.95,-129.6"/>
<polygon fill="#ff0000" stroke="#ff0000" points="84.12,-126.85 74.2,-123.12 79.62,-132.22 84.12,-126.85"/>
</g>
<!-- cdinit_manager -->
<g id="node3" class="node">
<title>cdinit_manager</title>
<g id="a_node3"><a xlink:href="./cdinit_manager/index.html" xlink:title="cdinit_manager">
<ellipse fill="none" stroke="black" cx="354.54" cy="-106" rx="82.59" ry="18"/>
<text text-anchor="middle" x="354.54" y="-102.3" font-family="Times,serif" font-size="14.00">cdinit_manager</text>
</a>
</g>
</g>
<!-- px4sitl&#45;&gt;cdinit_manager -->
<g id="edge1" class="edge">
<title>px4sitl&#45;&gt;cdinit_manager</title>
<path fill="none" stroke="#ff0000" d="M220.92,-169.35C232.87,-165.18 246.44,-160.17 258.54,-155 277.78,-146.79 298.6,-136.56 315.91,-127.65"/>
<polygon fill="#ff0000" stroke="#ff0000" points="317.88,-130.57 325.14,-122.86 314.65,-124.36 317.88,-130.57"/>
</g>
<!-- dds_agent -->
<g id="node7" class="node">
<title>dds_agent</title>
<g id="a_node7"><a xlink:href="./dds_agent/index.html" xlink:title="dds_agent">
<ellipse fill="none" stroke="black" cx="188.54" cy="-106" rx="57.69" ry="18"/>
<text text-anchor="middle" x="188.54" y="-102.3" font-family="Times,serif" font-size="14.00">dds_agent</text>
</a>
</g>
</g>
<!-- px4sitl&#45;&gt;dds_agent -->
<g id="edge2" class="edge">
<title>px4sitl&#45;&gt;dds_agent</title>
<path fill="none" stroke="#ff0000" d="M188.54,-162.7C188.54,-154.25 188.54,-143.87 188.54,-134.37"/>
<polygon fill="#ff0000" stroke="#ff0000" points="192.05,-134.18 188.54,-124.18 185.05,-134.18 192.05,-134.18"/>
</g>
<!-- cdinit -->
<g id="node5" class="node">
<title>cdinit</title>
<g id="a_node5"><a xlink:href="./cdinit/index.html" xlink:title="cdinit">
<ellipse fill="none" stroke="black" cx="354.54" cy="-34" rx="37.09" ry="18"/>
<text text-anchor="middle" x="354.54" y="-30.3" font-family="Times,serif" font-size="14.00">cdinit</text>
</a>
</g>
</g>
<!-- cdinit_manager&#45;&gt;cdinit -->
<g id="edge6" class="edge">
<title>cdinit_manager&#45;&gt;cdinit</title>
<path fill="none" stroke="#ff0000" d="M354.54,-87.7C354.54,-79.98 354.54,-70.71 354.54,-62.11"/>
<polygon fill="#ff0000" stroke="#ff0000" points="358.05,-62.1 354.54,-52.1 351.05,-62.1 358.05,-62.1"/>
</g>
<!-- cdinit_examples -->
<g id="node4" class="node">
<title>cdinit_examples</title>
<g id="a_node4"><a xlink:href="./cdinit_examples/index.html" xlink:title="cdinit_examples">
<ellipse fill="none" stroke="black" cx="355.54" cy="-181" rx="85.29" ry="18"/>
<text text-anchor="middle" x="355.54" y="-177.3" font-family="Times,serif" font-size="14.00">cdinit_examples</text>
</a>
</g>
</g>
<!-- cdinit_examples&#45;&gt;cdinit_manager -->
<g id="edge4" class="edge">
<title>cdinit_examples&#45;&gt;cdinit_manager</title>
<path fill="none" stroke="#ff0000" d="M355.31,-162.7C355.19,-154.25 355.05,-143.87 354.92,-134.37"/>
<polygon fill="#ff0000" stroke="#ff0000" points="358.42,-134.13 354.78,-124.18 351.42,-134.22 358.42,-134.13"/>
</g>
<!-- spdlog -->
<g id="node6" class="node">
<title>spdlog</title>
<g id="a_node6"><a xlink:href="./spdlog/index.html" xlink:title="spdlog">
<ellipse fill="none" stroke="black" cx="188.54" cy="-34" rx="41.69" ry="18"/>
<text text-anchor="middle" x="188.54" y="-30.3" font-family="Times,serif" font-size="14.00">spdlog</text>
</a>
</g>
</g>
<!-- dds_agent&#45;&gt;spdlog -->
<g id="edge5" class="edge">
<title>dds_agent&#45;&gt;spdlog</title>
<path fill="none" stroke="#0000ff" d="M187.54,-87.7C187.54,-79.98 187.54,-70.71 187.54,-62.11"/>
<path fill="none" stroke="#ff0000" d="M189.54,-87.7C189.54,-79.98 189.54,-70.71 189.54,-62.11"/>
<polygon fill="#0000ff" stroke="#0000ff" points="192.05,-62.1 188.54,-52.1 185.05,-62.1 192.05,-62.1"/>
</g>
</g>
</svg>
