<?xml version="1.0" encoding="UTF-8" standalone="no"?>
<!DOCTYPE svg PUBLIC "-//W3C//DTD SVG 1.1//EN"
 "http://www.w3.org/Graphics/SVG/1.1/DTD/svg11.dtd">
<!-- Generated by graphviz version 2.43.0 (0)
 -->
<!-- Title: dinit_service_selection Pages: 1 -->
<svg width="740pt" height="404pt"
 viewBox="0.00 0.00 740.03 404.00" xmlns="http://www.w3.org/2000/svg" xmlns:xlink="http://www.w3.org/1999/xlink">
<g id="graph0" class="graph" transform="scale(1 1) rotate(0) translate(4 400)">
<title>dinit_service_selection</title>
<polygon fill="white" stroke="transparent" points="-4,4 -4,-400 736.03,-400 736.03,4 -4,4"/>
<!-- px4sitl_px4 -->
<g id="node1" class="node">
<title>px4sitl_px4</title>
<path fill="lightblue" stroke="black" d="M384.5,-324C384.5,-324 295.5,-324 295.5,-324 289.5,-324 283.5,-318 283.5,-312 283.5,-312 283.5,-300 283.5,-300 283.5,-294 289.5,-288 295.5,-288 295.5,-288 384.5,-288 384.5,-288 390.5,-288 396.5,-294 396.5,-300 396.5,-300 396.5,-312 396.5,-312 396.5,-318 390.5,-324 384.5,-324"/>
<text text-anchor="middle" x="340" y="-302.3" font-family="Times,serif" font-size="14.00">px4sitl_px4@</text>
</g>
<!-- px4sitl_gz_wait -->
<g id="node7" class="node">
<title>px4sitl_gz_wait</title>
<path fill="lightyellow" stroke="black" d="M432,-252C432,-252 330,-252 330,-252 324,-252 318,-246 318,-240 318,-240 318,-228 318,-228 318,-222 324,-216 330,-216 330,-216 432,-216 432,-216 438,-216 444,-222 444,-228 444,-228 444,-240 444,-240 444,-246 438,-252 432,-252"/>
<text text-anchor="middle" x="381" y="-230.3" font-family="Times,serif" font-size="14.00">px4sitl_gz_wait</text>
</g>
<!-- px4sitl_px4&#45;&gt;px4sitl_gz_wait -->
<g id="edge10" class="edge">
<title>px4sitl_px4&#45;&gt;px4sitl_gz_wait</title>
<path fill="none" stroke="black" d="M350.13,-287.7C354.85,-279.64 360.56,-269.89 365.78,-260.98"/>
<polygon fill="black" stroke="black" points="368.95,-262.5 370.98,-252.1 362.91,-258.96 368.95,-262.5"/>
</g>
<!-- cdinit_log -->
<g id="node9" class="node">
<title>cdinit_log</title>
<path fill="lightblue" stroke="black" d="M347,-108C347,-108 271,-108 271,-108 265,-108 259,-102 259,-96 259,-96 259,-84 259,-84 259,-78 265,-72 271,-72 271,-72 347,-72 347,-72 353,-72 359,-78 359,-84 359,-84 359,-96 359,-96 359,-102 353,-108 347,-108"/>
<text text-anchor="middle" x="309" y="-86.3" font-family="Times,serif" font-size="14.00">cdinit_log@</text>
</g>
<!-- px4sitl_px4&#45;&gt;cdinit_log -->
<g id="edge11" class="edge">
<title>px4sitl_px4&#45;&gt;cdinit_log</title>
<path fill="none" stroke="black" d="M326.85,-287.91C320.08,-278.01 312.51,-264.96 309,-252 296.38,-205.44 300.78,-148.49 304.98,-116.31"/>
<ellipse fill="black" stroke="black" cx="305.54" cy="-112.27" rx="4" ry="4"/>
</g>
<!-- px4sitl_dds_agent -->
<g id="node2" class="node">
<title>px4sitl_dds_agent</title>
<path fill="lightblue" stroke="black" d="M527.5,-180C527.5,-180 406.5,-180 406.5,-180 400.5,-180 394.5,-174 394.5,-168 394.5,-168 394.5,-156 394.5,-156 394.5,-150 400.5,-144 406.5,-144 406.5,-144 527.5,-144 527.5,-144 533.5,-144 539.5,-150 539.5,-156 539.5,-156 539.5,-168 539.5,-168 539.5,-174 533.5,-180 527.5,-180"/>
<text text-anchor="middle" x="467" y="-158.3" font-family="Times,serif" font-size="14.00">px4sitl_dds_agent</text>
</g>
<!-- px4sitl_dds_agent&#45;&gt;cdinit_log -->
<g id="edge21" class="edge">
<title>px4sitl_dds_agent&#45;&gt;cdinit_log</title>
<path fill="none" stroke="black" d="M428.35,-143.88C406.17,-134.05 378.2,-121.66 354.91,-111.34"/>
<ellipse fill="black" stroke="black" cx="351.18" cy="-109.69" rx="4" ry="4"/>
</g>
<!-- px4_offboard_demo_py_node -->
<g id="node3" class="node">
<title>px4_offboard_demo_py_node</title>
<path fill="lightblue" stroke="black" d="M222,-396C222,-396 12,-396 12,-396 6,-396 0,-390 0,-384 0,-384 0,-372 0,-372 0,-366 6,-360 12,-360 12,-360 222,-360 222,-360 228,-360 234,-366 234,-372 234,-372 234,-384 234,-384 234,-390 228,-396 222,-396"/>
<text text-anchor="middle" x="117" y="-374.3" font-family="Times,serif" font-size="14.00">px4_offboard_demo_py_node@</text>
</g>
<!-- px4_offboard_demo_py_node&#45;&gt;px4sitl_px4 -->
<g id="edge7" class="edge">
<title>px4_offboard_demo_py_node&#45;&gt;px4sitl_px4</title>
<path fill="none" stroke="black" d="M171.27,-359.97C202.83,-350.06 242.79,-337.51 275.9,-327.12"/>
<polygon fill="black" stroke="black" points="277,-330.45 285.49,-324.11 274.9,-323.77 277,-330.45"/>
</g>
<!-- px4_offboard_demo_py_node&#45;&gt;cdinit_log -->
<g id="edge8" class="edge">
<title>px4_offboard_demo_py_node&#45;&gt;cdinit_log</title>
<path fill="none" stroke="black" d="M127.51,-359.72C151.44,-320.62 212.24,-222.65 268,-144 274.93,-134.23 282.92,-123.74 290,-114.69"/>
<ellipse fill="black" stroke="black" cx="292.48" cy="-111.53" rx="4" ry="4"/>
</g>
<!-- cdinit_ros2_bag -->
<g id="node10" class="node">
<title>cdinit_ros2_bag</title>
<path fill="lightblue" stroke="black" d="M174,-180C174,-180 70,-180 70,-180 64,-180 58,-174 58,-168 58,-168 58,-156 58,-156 58,-150 64,-144 70,-144 70,-144 174,-144 174,-144 180,-144 186,-150 186,-156 186,-156 186,-168 186,-168 186,-174 180,-180 174,-180"/>
<text text-anchor="middle" x="122" y="-158.3" font-family="Times,serif" font-size="14.00">cdinit_ros2_bag</text>
</g>
<!-- px4_offboard_demo_py_node&#45;&gt;cdinit_ros2_bag -->
<g id="edge6" class="edge">
<title>px4_offboard_demo_py_node&#45;&gt;cdinit_ros2_bag</title>
<path fill="none" stroke="black" d="M117.4,-359.85C118.28,-322.28 120.37,-232.58 121.41,-188.43"/>
<ellipse fill="black" stroke="black" cx="121.5" cy="-184.23" rx="4" ry="4"/>
</g>
<!-- px4sitl_ros -->
<g id="node4" class="node">
<title>px4sitl_ros</title>
<path fill="lightgray" stroke="black" d="M583.5,-324C583.5,-324 512.5,-324 512.5,-324 506.5,-324 500.5,-318 500.5,-312 500.5,-312 500.5,-300 500.5,-300 500.5,-294 506.5,-288 512.5,-288 512.5,-288 583.5,-288 583.5,-288 589.5,-288 595.5,-294 595.5,-300 595.5,-300 595.5,-312 595.5,-312 595.5,-318 589.5,-324 583.5,-324"/>
<text text-anchor="middle" x="548" y="-302.3" font-family="Times,serif" font-size="14.00">px4sitl_ros</text>
</g>
<!-- px4sitl_ros&#45;&gt;px4sitl_dds_agent -->
<g id="edge13" class="edge">
<title>px4sitl_ros&#45;&gt;px4sitl_dds_agent</title>
<path fill="none" stroke="black" d="M538.23,-287.87C524.18,-263.24 498.17,-217.64 481.77,-188.88"/>
<polygon fill="black" stroke="black" points="484.8,-187.14 476.81,-180.19 478.72,-190.61 484.8,-187.14"/>
</g>
<!-- px4sitl_gz_clock -->
<g id="node6" class="node">
<title>px4sitl_gz_clock</title>
<path fill="lightblue" stroke="black" d="M695.5,-252C695.5,-252 588.5,-252 588.5,-252 582.5,-252 576.5,-246 576.5,-240 576.5,-240 576.5,-228 576.5,-228 576.5,-222 582.5,-216 588.5,-216 588.5,-216 695.5,-216 695.5,-216 701.5,-216 707.5,-222 707.5,-228 707.5,-228 707.5,-240 707.5,-240 707.5,-246 701.5,-252 695.5,-252"/>
<text text-anchor="middle" x="642" y="-230.3" font-family="Times,serif" font-size="14.00">px4sitl_gz_clock</text>
</g>
<!-- px4sitl_ros&#45;&gt;px4sitl_gz_clock -->
<g id="edge12" class="edge">
<title>px4sitl_ros&#45;&gt;px4sitl_gz_clock</title>
<path fill="none" stroke="black" d="M571.24,-287.7C583.19,-278.8 597.92,-267.82 610.85,-258.2"/>
<polygon fill="black" stroke="black" points="613.1,-260.88 619.03,-252.1 608.92,-255.27 613.1,-260.88"/>
</g>
<!-- px4sitl_gz_headless -->
<g id="node8" class="node">
<title>px4sitl_gz_headless</title>
<path fill="lightblue" stroke="black" d="M704,-180C704,-180 570,-180 570,-180 564,-180 558,-174 558,-168 558,-168 558,-156 558,-156 558,-150 564,-144 570,-144 570,-144 704,-144 704,-144 710,-144 716,-150 716,-156 716,-156 716,-168 716,-168 716,-174 710,-180 704,-180"/>
<text text-anchor="middle" x="637" y="-158.3" font-family="Times,serif" font-size="14.00">px4sitl_gz_headless</text>
</g>
<!-- px4sitl_ros&#45;&gt;px4sitl_gz_headless -->
<g id="edge14" class="edge">
<title>px4sitl_ros&#45;&gt;px4sitl_gz_headless</title>
<path fill="none" stroke="black" d="M548.43,-287.95C549.64,-269 553.85,-238.16 568,-216 575.45,-204.33 586.41,-194.23 597.41,-186.06"/>
<polygon fill="black" stroke="black" points="599.59,-188.81 605.77,-180.2 595.57,-183.07 599.59,-188.81"/>
</g>
<!-- cdinit_sessionsync -->
<g id="node5" class="node">
<title>cdinit_sessionsync</title>
<path fill="lightblue" stroke="black" d="M287.5,-36C287.5,-36 162.5,-36 162.5,-36 156.5,-36 150.5,-30 150.5,-24 150.5,-24 150.5,-12 150.5,-12 150.5,-6 156.5,0 162.5,0 162.5,0 287.5,0 287.5,0 293.5,0 299.5,-6 299.5,-12 299.5,-12 299.5,-24 299.5,-24 299.5,-30 293.5,-36 287.5,-36"/>
<text text-anchor="middle" x="225" y="-14.3" font-family="Times,serif" font-size="14.00">cdinit_sessionsync</text>
</g>
<!-- px4sitl_gz_clock&#45;&gt;px4sitl_gz_headless -->
<g id="edge20" class="edge">
<title>px4sitl_gz_clock&#45;&gt;px4sitl_gz_headless</title>
<path fill="none" stroke="black" d="M640.76,-215.7C640.21,-207.98 639.55,-198.71 638.94,-190.11"/>
<polygon fill="black" stroke="black" points="642.43,-189.83 638.22,-180.1 635.44,-190.33 642.43,-189.83"/>
</g>
<!-- px4sitl_gz_clock&#45;&gt;cdinit_log -->
<g id="edge19" class="edge">
<title>px4sitl_gz_clock&#45;&gt;cdinit_log</title>
<path fill="none" stroke="black" d="M685.56,-215.87C700.86,-207.49 716.37,-195.74 725,-180 732.69,-165.97 735.57,-156.01 725,-144 701.76,-117.61 476.63,-100.86 367.6,-94.24"/>
<ellipse fill="black" stroke="black" cx="363.31" cy="-93.98" rx="4" ry="4"/>
</g>
<!-- px4sitl_gz_wait&#45;&gt;px4sitl_gz_headless -->
<g id="edge16" class="edge">
<title>px4sitl_gz_wait&#45;&gt;px4sitl_gz_headless</title>
<path fill="none" stroke="black" d="M443.3,-215.97C479.84,-205.97 526.19,-193.3 564.39,-182.85"/>
<polygon fill="black" stroke="black" points="565.7,-186.12 574.42,-180.11 563.85,-179.37 565.7,-186.12"/>
</g>
<!-- px4sitl_gz_wait&#45;&gt;cdinit_log -->
<g id="edge15" class="edge">
<title>px4sitl_gz_wait&#45;&gt;cdinit_log</title>
<path fill="none" stroke="black" d="M371.38,-215.93C365.62,-205.6 358.24,-192.12 352,-180 340.87,-158.37 328.88,-133.41 320.4,-115.43"/>
<ellipse fill="black" stroke="black" cx="318.69" cy="-111.81" rx="4" ry="4"/>
</g>
<!-- px4sitl_gz_headless&#45;&gt;cdinit_log -->
<g id="edge22" class="edge">
<title>px4sitl_gz_headless&#45;&gt;cdinit_log</title>
<path fill="none" stroke="black" d="M557.6,-144.05C498.81,-131.51 420.05,-114.7 367.07,-103.39"/>
<ellipse fill="black" stroke="black" cx="363.03" cy="-102.53" rx="4" ry="4"/>
</g>
<!-- cdinit_log&#45;&gt;cdinit_sessionsync -->
<g id="edge9" class="edge">
<title>cdinit_log&#45;&gt;cdinit_sessionsync</title>
<path fill="none" stroke="black" d="M288.24,-71.7C277.25,-62.54 263.63,-51.19 251.85,-41.38"/>
<ellipse fill="black" stroke="black" cx="248.6" cy="-38.67" rx="4" ry="4"/>
</g>
<!-- cdinit_ros2_bag&#45;&gt;cdinit_sessionsync -->
<g id="edge18" class="edge">
<title>cdinit_ros2_bag&#45;&gt;cdinit_sessionsync</title>
<path fill="none" stroke="black" d="M134.42,-143.87C152.75,-118.6 187.1,-71.25 207.82,-42.68"/>
<ellipse fill="black" stroke="black" cx="210.18" cy="-39.43" rx="4" ry="4"/>
</g>
<!-- cdinit_ros2_bag&#45;&gt;cdinit_log -->
<g id="edge17" class="edge">
<title>cdinit_ros2_bag&#45;&gt;cdinit_log</title>
<path fill="none" stroke="black" d="M167.75,-143.88C194.33,-133.92 227.96,-121.34 255.74,-110.94"/>
<ellipse fill="black" stroke="black" cx="259.66" cy="-109.47" rx="4" ry="4"/>
</g>
<!-- px4sitl_qgroundcontrol -->
<g id="node11" class="node">
<title>px4sitl_qgroundcontrol</title>
<path fill="lightblue" stroke="black" d="M437.5,-396C437.5,-396 264.5,-396 264.5,-396 258.5,-396 252.5,-390 252.5,-384 252.5,-384 252.5,-372 252.5,-372 252.5,-366 258.5,-360 264.5,-360 264.5,-360 437.5,-360 437.5,-360 443.5,-360 449.5,-366 449.5,-372 449.5,-372 449.5,-384 449.5,-384 449.5,-390 443.5,-396 437.5,-396"/>
<text text-anchor="middle" x="351" y="-374.3" font-family="Times,serif" font-size="14.00">px4sitl_qgroundcontrol@</text>
</g>
<!-- px4sitl_qgroundcontrol&#45;&gt;px4sitl_px4 -->
<g id="edge2" class="edge">
<title>px4sitl_qgroundcontrol&#45;&gt;px4sitl_px4</title>
<path fill="none" stroke="black" d="M348.28,-359.7C347.07,-351.98 345.61,-342.71 344.26,-334.11"/>
<polygon fill="black" stroke="black" points="347.7,-333.44 342.69,-324.1 340.78,-334.53 347.7,-333.44"/>
</g>
<!-- px4sitl_qgroundcontrol&#45;&gt;cdinit_log -->
<g id="edge1" class="edge">
<title>px4sitl_qgroundcontrol&#45;&gt;cdinit_log</title>
<path fill="none" stroke="black" d="M311.73,-359.9C297.13,-351.37 282.16,-339.51 274,-324 237.82,-255.17 274.67,-160.09 296.04,-115.7"/>
<ellipse fill="black" stroke="black" cx="297.93" cy="-111.85" rx="4" ry="4"/>
</g>
<!-- px4sitl_gz_gui -->
<g id="node12" class="node">
<title>px4sitl_gz_gui</title>
<path fill="lightblue" stroke="black" d="M574,-396C574,-396 480,-396 480,-396 474,-396 468,-390 468,-384 468,-384 468,-372 468,-372 468,-366 474,-360 480,-360 480,-360 574,-360 574,-360 580,-360 586,-366 586,-372 586,-372 586,-384 586,-384 586,-390 580,-396 574,-396"/>
<text text-anchor="middle" x="527" y="-374.3" font-family="Times,serif" font-size="14.00">px4sitl_gz_gui</text>
</g>
<!-- px4sitl_gz_gui&#45;&gt;px4sitl_ros -->
<g id="edge4" class="edge">
<title>px4sitl_gz_gui&#45;&gt;px4sitl_ros</title>
<path fill="none" stroke="black" d="M532.19,-359.7C534.53,-351.9 537.35,-342.51 539.95,-333.83"/>
<polygon fill="black" stroke="black" points="543.35,-334.69 542.87,-324.1 536.64,-332.68 543.35,-334.69"/>
</g>
<!-- px4sitl_gz_gui&#45;&gt;px4sitl_gz_wait -->
<g id="edge5" class="edge">
<title>px4sitl_gz_gui&#45;&gt;px4sitl_gz_wait</title>
<path fill="none" stroke="black" d="M502.4,-359.98C488.78,-350.1 471.84,-337.06 458,-324 436.86,-304.06 415.45,-278.81 400.59,-260.3"/>
<polygon fill="black" stroke="black" points="403.2,-257.97 394.24,-252.31 397.72,-262.32 403.2,-257.97"/>
</g>
<!-- px4sitl_gz_gui&#45;&gt;cdinit_log -->
<g id="edge3" class="edge">
<title>px4sitl_gz_gui&#45;&gt;cdinit_log</title>
<path fill="none" stroke="black" d="M514.25,-359.96C507.08,-349.86 498.33,-336.61 492,-324 469.11,-278.39 486.35,-254.63 453,-216 430.91,-190.41 412.38,-201.13 386,-180 373.23,-169.77 346.29,-137.5 327.92,-114.77"/>
<ellipse fill="black" stroke="black" cx="325.26" cy="-111.46" rx="4" ry="4"/>
</g>
</g>
</svg>
