<?xml version="1.0" encoding="UTF-8" standalone="no"?>
<!DOCTYPE svg PUBLIC "-//W3C//DTD SVG 1.1//EN"
 "http://www.w3.org/Graphics/SVG/1.1/DTD/svg11.dtd">
<!-- Generated by graphviz version 2.43.0 (0)
 -->
<!-- Title: DinitServices Pages: 1 -->
<svg width="750pt" height="404pt"
 viewBox="0.00 0.00 750.32 404.00" xmlns="http://www.w3.org/2000/svg" xmlns:xlink="http://www.w3.org/1999/xlink">
<g id="graph0" class="graph" transform="scale(1 1) rotate(0) translate(4 400)">
<title>DinitServices</title>
<polygon fill="white" stroke="transparent" points="-4,4 -4,-400 746.32,-400 746.32,4 -4,4"/>
<!-- cdinit_log -->
<g id="node1" class="node">
<title>cdinit_log</title>
<path fill="lightblue" stroke="black" d="M340,-108C340,-108 278,-108 278,-108 272,-108 266,-102 266,-96 266,-96 266,-84 266,-84 266,-78 272,-72 278,-72 278,-72 340,-72 340,-72 346,-72 352,-78 352,-84 352,-84 352,-96 352,-96 352,-102 346,-108 340,-108"/>
<text text-anchor="middle" x="309" y="-86.3" font-family="Times,serif" font-size="14.00">cdinit_log</text>
</g>
<!-- cdinit_sessionsync -->
<g id="node3" class="node">
<title>cdinit_sessionsync</title>
<path fill="lightblue" stroke="black" d="M267.5,-36C267.5,-36 142.5,-36 142.5,-36 136.5,-36 130.5,-30 130.5,-24 130.5,-24 130.5,-12 130.5,-12 130.5,-6 136.5,0 142.5,0 142.5,0 267.5,0 267.5,0 273.5,0 279.5,-6 279.5,-12 279.5,-12 279.5,-24 279.5,-24 279.5,-30 273.5,-36 267.5,-36"/>
<text text-anchor="middle" x="205" y="-14.3" font-family="Times,serif" font-size="14.00">cdinit_sessionsync</text>
</g>
<!-- cdinit_log&#45;&gt;cdinit_sessionsync -->
<g id="edge18" class="edge">
<title>cdinit_log&#45;&gt;cdinit_sessionsync</title>
<path fill="none" stroke="black" d="M283.56,-71.88C269.58,-62.47 252.11,-50.71 237.19,-40.67"/>
<ellipse fill="black" stroke="black" cx="233.86" cy="-38.42" rx="4" ry="4"/>
</g>
<!-- cdinit_ros2_bag -->
<g id="node2" class="node">
<title>cdinit_ros2_bag</title>
<path fill="lightblue" stroke="black" d="M145,-180C145,-180 41,-180 41,-180 35,-180 29,-174 29,-168 29,-168 29,-156 29,-156 29,-150 35,-144 41,-144 41,-144 145,-144 145,-144 151,-144 157,-150 157,-156 157,-156 157,-168 157,-168 157,-174 151,-180 145,-180"/>
<text text-anchor="middle" x="93" y="-158.3" font-family="Times,serif" font-size="14.00">cdinit_ros2_bag</text>
</g>
<!-- cdinit_ros2_bag&#45;&gt;cdinit_log -->
<g id="edge6" class="edge">
<title>cdinit_ros2_bag&#45;&gt;cdinit_log</title>
<path fill="none" stroke="black" d="M145.56,-143.97C179.67,-132.91 223.89,-118.58 257.73,-107.61"/>
<ellipse fill="black" stroke="black" cx="261.86" cy="-106.28" rx="4" ry="4"/>
</g>
<!-- cdinit_ros2_bag&#45;&gt;cdinit_sessionsync -->
<g id="edge2" class="edge">
<title>cdinit_ros2_bag&#45;&gt;cdinit_sessionsync</title>
<path fill="none" stroke="black" d="M106.51,-143.87C126.44,-118.6 163.79,-71.25 186.32,-42.68"/>
<ellipse fill="black" stroke="black" cx="188.97" cy="-39.33" rx="4" ry="4"/>
</g>
<!-- px4_offboard_demo_py_node -->
<g id="node4" class="node">
<title>px4_offboard_demo_py_node</title>
<path fill="lightblue" stroke="black" d="M208,-396C208,-396 12,-396 12,-396 6,-396 0,-390 0,-384 0,-384 0,-372 0,-372 0,-366 6,-360 12,-360 12,-360 208,-360 208,-360 214,-360 220,-366 220,-372 220,-372 220,-384 220,-384 220,-390 214,-396 208,-396"/>
<text text-anchor="middle" x="110" y="-374.3" font-family="Times,serif" font-size="14.00">px4_offboard_demo_py_node</text>
</g>
<!-- px4_offboard_demo_py_node&#45;&gt;cdinit_log -->
<g id="edge1" class="edge">
<title>px4_offboard_demo_py_node&#45;&gt;cdinit_log</title>
<path fill="none" stroke="black" d="M120.2,-359.8C143.76,-320.47 204.44,-221.36 263,-144 270.65,-133.9 279.67,-123.26 287.7,-114.18"/>
<ellipse fill="black" stroke="black" cx="290.39" cy="-111.16" rx="4" ry="4"/>
</g>
<!-- px4_offboard_demo_py_node&#45;&gt;cdinit_ros2_bag -->
<g id="edge5" class="edge">
<title>px4_offboard_demo_py_node&#45;&gt;cdinit_ros2_bag</title>
<path fill="none" stroke="black" d="M108.64,-359.85C105.65,-322.28 98.53,-232.58 95.02,-188.43"/>
<ellipse fill="black" stroke="black" cx="94.69" cy="-184.22" rx="4" ry="4"/>
</g>
<!-- px4sitl_px4 -->
<g id="node10" class="node">
<title>px4sitl_px4</title>
<path fill="lightblue" stroke="black" d="M289,-324C289,-324 215,-324 215,-324 209,-324 203,-318 203,-312 203,-312 203,-300 203,-300 203,-294 209,-288 215,-288 215,-288 289,-288 289,-288 295,-288 301,-294 301,-300 301,-300 301,-312 301,-312 301,-318 295,-324 289,-324"/>
<text text-anchor="middle" x="252" y="-302.3" font-family="Times,serif" font-size="14.00">px4sitl_px4</text>
</g>
<!-- px4_offboard_demo_py_node&#45;&gt;px4sitl_px4 -->
<g id="edge13" class="edge">
<title>px4_offboard_demo_py_node&#45;&gt;px4sitl_px4</title>
<path fill="none" stroke="black" d="M144.74,-359.88C163.82,-350.47 187.68,-338.71 208.05,-328.67"/>
<polygon fill="black" stroke="black" points="209.71,-331.75 217.13,-324.19 206.61,-325.47 209.71,-331.75"/>
</g>
<!-- px4sitl_dds_agent -->
<g id="node5" class="node">
<title>px4sitl_dds_agent</title>
<path fill="lightblue" stroke="black" d="M703.5,-180C703.5,-180 582.5,-180 582.5,-180 576.5,-180 570.5,-174 570.5,-168 570.5,-168 570.5,-156 570.5,-156 570.5,-150 576.5,-144 582.5,-144 582.5,-144 703.5,-144 703.5,-144 709.5,-144 715.5,-150 715.5,-156 715.5,-156 715.5,-168 715.5,-168 715.5,-174 709.5,-180 703.5,-180"/>
<text text-anchor="middle" x="643" y="-158.3" font-family="Times,serif" font-size="14.00">px4sitl_dds_agent</text>
</g>
<!-- px4sitl_dds_agent&#45;&gt;cdinit_log -->
<g id="edge22" class="edge">
<title>px4sitl_dds_agent&#45;&gt;cdinit_log</title>
<path fill="none" stroke="black" d="M570.12,-145.72C506.63,-132.42 416.21,-113.47 360.14,-101.72"/>
<ellipse fill="black" stroke="black" cx="356.04" cy="-100.86" rx="4" ry="4"/>
</g>
<!-- px4sitl_gz_clock -->
<g id="node6" class="node">
<title>px4sitl_gz_clock</title>
<path fill="lightblue" stroke="black" d="M619.5,-252C619.5,-252 512.5,-252 512.5,-252 506.5,-252 500.5,-246 500.5,-240 500.5,-240 500.5,-228 500.5,-228 500.5,-222 506.5,-216 512.5,-216 512.5,-216 619.5,-216 619.5,-216 625.5,-216 631.5,-222 631.5,-228 631.5,-228 631.5,-240 631.5,-240 631.5,-246 625.5,-252 619.5,-252"/>
<text text-anchor="middle" x="566" y="-230.3" font-family="Times,serif" font-size="14.00">px4sitl_gz_clock</text>
</g>
<!-- px4sitl_gz_clock&#45;&gt;cdinit_log -->
<g id="edge8" class="edge">
<title>px4sitl_gz_clock&#45;&gt;cdinit_log</title>
<path fill="none" stroke="black" d="M562.37,-215.84C557.18,-195.6 545.65,-162.38 523,-144 476.74,-106.46 407.62,-94.97 360.54,-91.74"/>
<ellipse fill="black" stroke="black" cx="356.3" cy="-91.49" rx="4" ry="4"/>
</g>
<!-- px4sitl_gz_headless -->
<g id="node8" class="node">
<title>px4sitl_gz_headless</title>
<path fill="lightblue" stroke="black" d="M502,-180C502,-180 368,-180 368,-180 362,-180 356,-174 356,-168 356,-168 356,-156 356,-156 356,-150 362,-144 368,-144 368,-144 502,-144 502,-144 508,-144 514,-150 514,-156 514,-156 514,-168 514,-168 514,-174 508,-180 502,-180"/>
<text text-anchor="middle" x="435" y="-158.3" font-family="Times,serif" font-size="14.00">px4sitl_gz_headless</text>
</g>
<!-- px4sitl_gz_clock&#45;&gt;px4sitl_gz_headless -->
<g id="edge12" class="edge">
<title>px4sitl_gz_clock&#45;&gt;px4sitl_gz_headless</title>
<path fill="none" stroke="black" d="M533.95,-215.88C516.51,-206.55 494.73,-194.92 476.06,-184.94"/>
<polygon fill="black" stroke="black" points="477.64,-181.82 467.17,-180.19 474.34,-187.99 477.64,-181.82"/>
</g>
<!-- px4sitl_gz_gui -->
<g id="node7" class="node">
<title>px4sitl_gz_gui</title>
<path fill="lightblue" stroke="black" d="M613,-396C613,-396 519,-396 519,-396 513,-396 507,-390 507,-384 507,-384 507,-372 507,-372 507,-366 513,-360 519,-360 519,-360 613,-360 613,-360 619,-360 625,-366 625,-372 625,-372 625,-384 625,-384 625,-390 619,-396 613,-396"/>
<text text-anchor="middle" x="566" y="-374.3" font-family="Times,serif" font-size="14.00">px4sitl_gz_gui</text>
</g>
<!-- px4sitl_gz_gui&#45;&gt;cdinit_log -->
<g id="edge4" class="edge">
<title>px4sitl_gz_gui&#45;&gt;cdinit_log</title>
<path fill="none" stroke="black" d="M593.42,-359.89C654.26,-319.88 790.22,-218.06 725,-144 701.23,-117.01 466.3,-100.11 360.36,-93.8"/>
<ellipse fill="black" stroke="black" cx="356.34" cy="-93.57" rx="4" ry="4"/>
</g>
<!-- px4sitl_gz_wait -->
<g id="node9" class="node">
<title>px4sitl_gz_wait</title>
<path fill="lightyellow" stroke="black" d="M432,-252C432,-252 330,-252 330,-252 324,-252 318,-246 318,-240 318,-240 318,-228 318,-228 318,-222 324,-216 330,-216 330,-216 432,-216 432,-216 438,-216 444,-222 444,-228 444,-228 444,-240 444,-240 444,-246 438,-252 432,-252"/>
<text text-anchor="middle" x="381" y="-230.3" font-family="Times,serif" font-size="14.00">px4sitl_gz_wait</text>
</g>
<!-- px4sitl_gz_gui&#45;&gt;px4sitl_gz_wait -->
<g id="edge3" class="edge">
<title>px4sitl_gz_gui&#45;&gt;px4sitl_gz_wait</title>
<path fill="none" stroke="black" d="M543.68,-359.87C510.63,-334.5 448.56,-286.85 411.38,-258.32"/>
<polygon fill="black" stroke="black" points="413.46,-255.5 403.39,-252.19 409.2,-261.05 413.46,-255.5"/>
</g>
<!-- px4sitl_ros -->
<g id="node12" class="node">
<title>px4sitl_ros</title>
<path fill="lightgray" stroke="black" d="M601.5,-324C601.5,-324 530.5,-324 530.5,-324 524.5,-324 518.5,-318 518.5,-312 518.5,-312 518.5,-300 518.5,-300 518.5,-294 524.5,-288 530.5,-288 530.5,-288 601.5,-288 601.5,-288 607.5,-288 613.5,-294 613.5,-300 613.5,-300 613.5,-312 613.5,-312 613.5,-318 607.5,-324 601.5,-324"/>
<text text-anchor="middle" x="566" y="-302.3" font-family="Times,serif" font-size="14.00">px4sitl_ros</text>
</g>
<!-- px4sitl_gz_gui&#45;&gt;px4sitl_ros -->
<g id="edge17" class="edge">
<title>px4sitl_gz_gui&#45;&gt;px4sitl_ros</title>
<path fill="none" stroke="black" d="M566,-359.7C566,-351.98 566,-342.71 566,-334.11"/>
<polygon fill="black" stroke="black" points="569.5,-334.1 566,-324.1 562.5,-334.1 569.5,-334.1"/>
</g>
<!-- px4sitl_gz_headless&#45;&gt;cdinit_log -->
<g id="edge15" class="edge">
<title>px4sitl_gz_headless&#45;&gt;cdinit_log</title>
<path fill="none" stroke="black" d="M404.18,-143.88C386.94,-134.3 365.31,-122.28 347.03,-112.13"/>
<ellipse fill="black" stroke="black" cx="343.44" cy="-110.13" rx="4" ry="4"/>
</g>
<!-- px4sitl_gz_wait&#45;&gt;cdinit_log -->
<g id="edge20" class="edge">
<title>px4sitl_gz_wait&#45;&gt;cdinit_log</title>
<path fill="none" stroke="black" d="M368.91,-215.77C362.05,-205.62 353.55,-192.37 347,-180 335.89,-159.01 325.46,-134.07 318.35,-115.93"/>
<ellipse fill="black" stroke="black" cx="316.77" cy="-111.85" rx="4" ry="4"/>
</g>
<!-- px4sitl_gz_wait&#45;&gt;px4sitl_gz_headless -->
<g id="edge19" class="edge">
<title>px4sitl_gz_wait&#45;&gt;px4sitl_gz_headless</title>
<path fill="none" stroke="black" d="M394.35,-215.7C400.76,-207.39 408.56,-197.28 415.61,-188.14"/>
<polygon fill="black" stroke="black" points="418.47,-190.16 421.81,-180.1 412.93,-185.88 418.47,-190.16"/>
</g>
<!-- px4sitl_px4&#45;&gt;cdinit_log -->
<g id="edge16" class="edge">
<title>px4sitl_px4&#45;&gt;cdinit_log</title>
<path fill="none" stroke="black" d="M252.28,-287.99C253.27,-257.99 257.56,-194.13 276,-144 279.72,-133.89 285.53,-123.63 291.24,-114.88"/>
<ellipse fill="black" stroke="black" cx="293.52" cy="-111.52" rx="4" ry="4"/>
</g>
<!-- px4sitl_px4&#45;&gt;px4sitl_gz_wait -->
<g id="edge9" class="edge">
<title>px4sitl_px4&#45;&gt;px4sitl_gz_wait</title>
<path fill="none" stroke="black" d="M283.56,-287.88C300.66,-278.6 321.98,-267.03 340.32,-257.08"/>
<polygon fill="black" stroke="black" points="342.2,-260.04 349.32,-252.19 338.86,-253.88 342.2,-260.04"/>
</g>
<!-- px4sitl_qgroundcontrol -->
<g id="node11" class="node">
<title>px4sitl_qgroundcontrol</title>
<path fill="lightblue" stroke="black" d="M408,-396C408,-396 250,-396 250,-396 244,-396 238,-390 238,-384 238,-384 238,-372 238,-372 238,-366 244,-360 250,-360 250,-360 408,-360 408,-360 414,-360 420,-366 420,-372 420,-372 420,-384 420,-384 420,-390 414,-396 408,-396"/>
<text text-anchor="middle" x="329" y="-374.3" font-family="Times,serif" font-size="14.00">px4sitl_qgroundcontrol</text>
</g>
<!-- px4sitl_qgroundcontrol&#45;&gt;cdinit_log -->
<g id="edge11" class="edge">
<title>px4sitl_qgroundcontrol&#45;&gt;cdinit_log</title>
<path fill="none" stroke="black" d="M325.34,-359.71C320.46,-335.69 312.08,-290.78 309,-252 305.21,-204.37 306.48,-148.57 307.75,-116.74"/>
<ellipse fill="black" stroke="black" cx="307.93" cy="-112.42" rx="4" ry="4"/>
</g>
<!-- px4sitl_qgroundcontrol&#45;&gt;px4sitl_px4 -->
<g id="edge7" class="edge">
<title>px4sitl_qgroundcontrol&#45;&gt;px4sitl_px4</title>
<path fill="none" stroke="black" d="M309.97,-359.7C300.46,-351.05 288.79,-340.45 278.43,-331.03"/>
<polygon fill="black" stroke="black" points="280.57,-328.24 270.81,-324.1 275.86,-333.42 280.57,-328.24"/>
</g>
<!-- px4sitl_ros&#45;&gt;px4sitl_dds_agent -->
<g id="edge14" class="edge">
<title>px4sitl_ros&#45;&gt;px4sitl_dds_agent</title>
<path fill="none" stroke="black" d="M603.71,-287.82C618.03,-279.23 632.84,-267.34 641,-252 651.01,-233.18 650.82,-208.81 648.51,-190.32"/>
<polygon fill="black" stroke="black" points="651.93,-189.57 646.96,-180.21 645.01,-190.62 651.93,-189.57"/>
</g>
<!-- px4sitl_ros&#45;&gt;px4sitl_gz_clock -->
<g id="edge21" class="edge">
<title>px4sitl_ros&#45;&gt;px4sitl_gz_clock</title>
<path fill="none" stroke="black" d="M566,-287.7C566,-279.98 566,-270.71 566,-262.11"/>
<polygon fill="black" stroke="black" points="569.5,-262.1 566,-252.1 562.5,-262.1 569.5,-262.1"/>
</g>
<!-- px4sitl_ros&#45;&gt;px4sitl_gz_headless -->
<g id="edge10" class="edge">
<title>px4sitl_ros&#45;&gt;px4sitl_gz_headless</title>
<path fill="none" stroke="black" d="M536.95,-287.9C522.42,-278.47 505.17,-265.87 492,-252 474.06,-233.1 458.48,-207.79 448.17,-188.98"/>
<polygon fill="black" stroke="black" points="451.21,-187.24 443.41,-180.08 445.03,-190.54 451.21,-187.24"/>
</g>
</g>
</svg>
