<?xml version="1.0" encoding="UTF-8" standalone="no"?>
<!DOCTYPE svg PUBLIC "-//W3C//DTD SVG 1.1//EN"
 "http://www.w3.org/Graphics/SVG/1.1/DTD/svg11.dtd">
<!-- Generated by graphviz version 2.43.0 (0)
 -->
<!-- Title: graphname Pages: 1 -->
<svg width="296pt" height="171pt"
 viewBox="0.00 0.00 296.25 171.00" xmlns="http://www.w3.org/2000/svg" xmlns:xlink="http://www.w3.org/1999/xlink">
<g id="graph0" class="graph" transform="scale(1 1) rotate(0) translate(4 167)">
<title>graphname</title>
<polygon fill="white" stroke="transparent" points="-4,4 -4,-167 292.25,-167 292.25,4 -4,4"/>
<g id="clust1" class="cluster">
<title>cluster_1</title>
<polygon fill="none" stroke="black" points="94.25,-8 94.25,-155 280.25,-155 280.25,-8 94.25,-8"/>
<text text-anchor="middle" x="187.25" y="-139.8" font-family="Times,serif" font-size="14.00">cdinit</text>
</g>
<!-- px4sitl -->
<g id="node1" class="node">
<title>px4sitl</title>
<g id="a_node1"><a xlink:href="../px4sitl/index.html" xlink:title="px4sitl">
<ellipse fill="none" stroke="black" cx="42.25" cy="-106" rx="42.49" ry="18"/>
<text text-anchor="middle" x="42.25" y="-102.3" font-family="Times,serif" font-size="14.00">px4sitl</text>
</a>
</g>
</g>
<!-- cdinit_manager -->
<g id="node3" class="node">
<title>cdinit_manager</title>
<g id="a_node3"><a xlink:href="../cdinit_manager/index.html" xlink:title="cdinit_manager">
<ellipse fill="none" stroke="black" cx="186.25" cy="-34" rx="82.59" ry="18"/>
<text text-anchor="middle" x="186.25" y="-30.3" font-family="Times,serif" font-size="14.00">cdinit_manager</text>
</a>
</g>
</g>
<!-- px4sitl&#45;&gt;cdinit_manager -->
<g id="edge1" class="edge">
<title>px4sitl&#45;&gt;cdinit_manager</title>
<path fill="none" stroke="#ff0000" d="M68.99,-92C90.34,-81.62 120.62,-66.9 145.05,-55.02"/>
<polygon fill="#ff0000" stroke="#ff0000" points="146.64,-58.14 154.1,-50.62 143.58,-51.85 146.64,-58.14"/>
</g>
<!-- cdinit_examples -->
<g id="node2" class="node">
<title>cdinit_examples</title>
<g id="a_node2"><a xlink:href="../cdinit_examples/index.html" xlink:title="cdinit_examples">
<ellipse fill="none" stroke="black" cx="187.25" cy="-106" rx="85.29" ry="18"/>
<text text-anchor="middle" x="187.25" y="-102.3" font-family="Times,serif" font-size="14.00">cdinit_examples</text>
</a>
</g>
</g>
<!-- cdinit_examples&#45;&gt;cdinit_manager -->
<g id="edge2" class="edge">
<title>cdinit_examples&#45;&gt;cdinit_manager</title>
<path fill="none" stroke="#ff0000" d="M187,-87.7C186.89,-79.98 186.76,-70.71 186.63,-62.11"/>
<polygon fill="#ff0000" stroke="#ff0000" points="190.13,-62.05 186.49,-52.1 183.13,-62.15 190.13,-62.05"/>
</g>
</g>
</svg>
