<?xml version="1.0" encoding="UTF-8" standalone="no"?>
<!DOCTYPE svg PUBLIC "-//W3C//DTD SVG 1.1//EN"
 "http://www.w3.org/Graphics/SVG/1.1/DTD/svg11.dtd">
<!-- Generated by graphviz version 2.43.0 (0)
 -->
<!-- Title: graphname Pages: 1 -->
<svg width="178pt" height="188pt"
 viewBox="0.00 0.00 178.28 188.00" xmlns="http://www.w3.org/2000/svg" xmlns:xlink="http://www.w3.org/1999/xlink">
<g id="graph0" class="graph" transform="scale(1 1) rotate(0) translate(4 184)">
<title>graphname</title>
<polygon fill="white" stroke="transparent" points="-4,4 -4,-184 174.28,-184 174.28,4 -4,4"/>
<!-- cdinit_manager -->
<g id="node1" class="node">
<title>cdinit_manager</title>
<g id="a_node1"><a xlink:href="../cdinit_manager/index.html" xlink:title="cdinit_manager">
<ellipse fill="none" stroke="black" cx="85.14" cy="-90" rx="82.59" ry="18"/>
<text text-anchor="middle" x="85.14" y="-86.3" font-family="Times,serif" font-size="14.00">cdinit_manager</text>
</a>
</g>
</g>
<!-- cdinit -->
<g id="node2" class="node">
<title>cdinit</title>
<g id="a_node2"><a xlink:href="../cdinit/index.html" xlink:title="cdinit">
<ellipse fill="none" stroke="black" cx="85.14" cy="-18" rx="37.09" ry="18"/>
<text text-anchor="middle" x="85.14" y="-14.3" font-family="Times,serif" font-size="14.00">cdinit</text>
</a>
</g>
</g>
<!-- cdinit_manager&#45;&gt;cdinit -->
<g id="edge2" class="edge">
<title>cdinit_manager&#45;&gt;cdinit</title>
<path fill="none" stroke="#ff0000" d="M85.14,-71.7C85.14,-63.98 85.14,-54.71 85.14,-46.11"/>
<polygon fill="#ff0000" stroke="#ff0000" points="88.64,-46.1 85.14,-36.1 81.64,-46.1 88.64,-46.1"/>
</g>
<!-- cdinit_examples -->
<g id="node3" class="node">
<title>cdinit_examples</title>
<g id="a_node3"><a xlink:href="../cdinit_examples/index.html" xlink:title="cdinit_examples">
<ellipse fill="none" stroke="black" cx="85.14" cy="-162" rx="85.29" ry="18"/>
<text text-anchor="middle" x="85.14" y="-158.3" font-family="Times,serif" font-size="14.00">cdinit_examples</text>
</a>
</g>
</g>
<!-- cdinit_examples&#45;&gt;cdinit_manager -->
<g id="edge1" class="edge">
<title>cdinit_examples&#45;&gt;cdinit_manager</title>
<path fill="none" stroke="#ff0000" d="M85.14,-143.7C85.14,-135.98 85.14,-126.71 85.14,-118.11"/>
<polygon fill="#ff0000" stroke="#ff0000" points="88.64,-118.1 85.14,-108.1 81.64,-118.1 88.64,-118.1"/>
</g>
</g>
</svg>
